<svg xmlns="http://www.w3.org/2000/svg" xmlns:xlink="http://www.w3.org/1999/xlink" width="179.751" height="166.418" viewBox="0 0 179.751 166.418">
  <defs>
    <linearGradient id="linear-gradient" x1="0.663" y1="-10.456" x2="0.089" y2="-10.918" gradientUnits="objectBoundingBox">
      <stop offset="0" stop-color="#9e7054"/>
      <stop offset="0.335" stop-color="#986b52"/>
      <stop offset="0.782" stop-color="#855f49"/>
      <stop offset="1" stop-color="#795644"/>
    </linearGradient>
    <linearGradient id="linear-gradient-2" x1="0.58" y1="-21.31" x2="0.392" y2="-22.179" gradientUnits="objectBoundingBox">
      <stop offset="0" stop-color="#9e7054"/>
      <stop offset="0.349" stop-color="#9a6d52"/>
      <stop offset="0.682" stop-color="#8d644c"/>
      <stop offset="1" stop-color="#795644"/>
    </linearGradient>
    <linearGradient id="linear-gradient-3" x1="0.663" y1="-10.456" x2="0.088" y2="-10.918" xlink:href="#linear-gradient"/>
    <linearGradient id="linear-gradient-6" x1="0.58" y1="-21.31" x2="0.392" y2="-22.179" xlink:href="#linear-gradient-2"/>
    <linearGradient id="linear-gradient-7" x1="0.663" y1="-10.456" x2="0.088" y2="-10.918" xlink:href="#linear-gradient"/>
    <linearGradient id="linear-gradient-10" x1="0.58" y1="-21.31" x2="0.392" y2="-22.179" xlink:href="#linear-gradient-2"/>
    <linearGradient id="linear-gradient-11" x1="0.663" y1="-10.456" x2="0.088" y2="-10.918" xlink:href="#linear-gradient"/>
    <linearGradient id="linear-gradient-13" x1="0.663" y1="-10.456" x2="0.088" y2="-10.918" xlink:href="#linear-gradient"/>
    <linearGradient id="linear-gradient-27" x1="0.663" y1="-10.454" x2="0.088" y2="-10.916" xlink:href="#linear-gradient"/>
    <linearGradient id="linear-gradient-28" x1="0.58" y1="-21.302" x2="0.392" y2="-22.17" xlink:href="#linear-gradient-2"/>
    <linearGradient id="linear-gradient-29" x1="0.663" y1="-10.454" x2="0.089" y2="-10.916" xlink:href="#linear-gradient"/>
    <linearGradient id="linear-gradient-30" x1="0.58" y1="-21.302" x2="0.392" y2="-22.17" xlink:href="#linear-gradient-2"/>
    <linearGradient id="linear-gradient-32" x1="0.58" y1="-21.302" x2="0.392" y2="-22.17" xlink:href="#linear-gradient-2"/>
    <clipPath id="clip-path">
      <rect id="Rectangle_270" data-name="Rectangle 270" width="49.613" height="31.845" rx="1.961" transform="translate(134.054 190.278)" fill="none"/>
    </clipPath>
  </defs>
  <g id="Group_2835" data-name="Group 2835" transform="translate(-288.984 -5883.977)">
    <g id="Group_1668" data-name="Group 1668" transform="translate(220 5756.564)">
      <line id="Line_60" data-name="Line 60" y2="7.468" transform="translate(158.861 172.526)" fill="none" stroke="#4e4d4d" stroke-linecap="round" stroke-linejoin="round" stroke-width="1.5"/>
      <circle id="Ellipse_249" data-name="Ellipse 249" cx="2.027" cy="2.027" r="2.027" transform="translate(156.833 180.607)" fill="none" stroke="#4e4d4d" stroke-linecap="round" stroke-linejoin="round" stroke-width="1.5"/>
      <g id="Group_1665" data-name="Group 1665">
        <path id="Path_1396" data-name="Path 1396" d="M145.207,140.932a4.87,4.87,0,1,0,0,9.741h27.307a4.87,4.87,0,1,0,0-9.741Z" fill="#68b699"/>
        <circle id="Ellipse_250" data-name="Ellipse 250" cx="1.357" cy="1.357" r="1.357" transform="translate(143.85 144.365)" fill="#fff"/>
        <circle id="Ellipse_251" data-name="Ellipse 251" cx="1.357" cy="1.357" r="1.357" transform="translate(149.119 144.365)" fill="#fff"/>
        <circle id="Ellipse_252" data-name="Ellipse 252" cx="1.357" cy="1.357" r="1.357" transform="translate(154.389 144.365)" fill="#fff"/>
      </g>
      <g id="Group_1666" data-name="Group 1666">
        <path id="Path_1397" data-name="Path 1397" d="M145.207,152.349a4.89,4.89,0,0,0-4.871,4.871,4.84,4.84,0,0,0,4.871,4.871h27.307a4.89,4.89,0,0,0,4.871-4.871,4.84,4.84,0,0,0-4.871-4.871Z" fill="#68b699"/>
        <circle id="Ellipse_253" data-name="Ellipse 253" cx="1.357" cy="1.357" r="1.357" transform="translate(143.85 155.863)" fill="#fff"/>
        <circle id="Ellipse_254" data-name="Ellipse 254" cx="1.357" cy="1.357" r="1.357" transform="translate(149.119 155.863)" fill="#fff"/>
        <circle id="Ellipse_255" data-name="Ellipse 255" cx="1.357" cy="1.357" r="1.357" transform="translate(154.389 155.863)" fill="#fff"/>
      </g>
      <g id="Group_1667" data-name="Group 1667">
        <path id="Path_1398" data-name="Path 1398" d="M145.207,163.767a4.89,4.89,0,0,0-4.871,4.871,4.839,4.839,0,0,0,4.871,4.87h27.307a4.89,4.89,0,0,0,4.871-4.87,4.84,4.84,0,0,0-4.871-4.871Z" fill="#68b699"/>
        <circle id="Ellipse_256" data-name="Ellipse 256" cx="1.357" cy="1.357" r="1.357" transform="translate(143.85 167.281)" fill="#fff"/>
        <circle id="Ellipse_257" data-name="Ellipse 257" cx="1.357" cy="1.357" r="1.357" transform="translate(149.119 167.281)" fill="#fff"/>
        <circle id="Ellipse_258" data-name="Ellipse 258" cx="1.357" cy="1.357" r="1.357" transform="translate(154.389 167.281)" fill="#fff"/>
      </g>
    </g>
    <circle id="Ellipse_259" data-name="Ellipse 259" cx="31.987" cy="31.987" r="31.987" transform="translate(346.873 5884.727)" fill="none" stroke="#74b59b" stroke-linecap="round" stroke-width="1.5" stroke-dasharray="0.5 4"/>
    <g id="Group_1688" data-name="Group 1688" transform="translate(220 5756.564)">
      <g id="Group_1669" data-name="Group 1669">
        <path id="Path_1399" data-name="Path 1399" d="M82.9,272.093a20.107,20.107,0,0,0-2.027,1.971c1.674,1.45,7.92,4.5,14.835,3.681,6.9-.837,7.436-3.086,7.436-3.086-.836-.781-3.011-2.324-3.011-2.324" fill="#75b69b"/>
        <path id="Path_1400" data-name="Path 1400" d="M82.9,272.093a13.169,13.169,0,0,1,3.086-1.784c1.766-.707,1.431-1.525,1.859-5.243,0,0-1.841-2.454-1.952-3.792,0,0-1.729-.632-1.822-3.235-.112-2.6.929-2.156.929-2.156a7.764,7.764,0,0,1,2.845-6.916c3.55-2.993,9.276.037,10.447,2.064a7.341,7.341,0,0,1,.986,5.818c-.539,1.9.483,3.756-1.1,6.8-1.58,3.068-2.435,3.458-3.83,4.016l.056,1.6a1.3,1.3,0,0,0,.8.911c.67.241,4.945,2.156,4.945,2.156-1.561.019-3.16,1.134-8.96,1.134s-8.291-1.376-8.291-1.376" fill="#9e7054"/>
        <path id="Path_1401" data-name="Path 1401" d="M94.371,269.268a7.314,7.314,0,0,1-4.889-3.384c1.654,1.859,4.852,1.766,4.852,1.766Z" fill="#795644"/>
        <path id="Path_1402" data-name="Path 1402" d="M84.983,255.883s1.561.39,1.9,2.77H87.1l-.037-2.473Z" fill="#282928"/>
        <path id="Path_1403" data-name="Path 1403" d="M95.17,270.179a48.261,48.261,0,0,1,4.945,2.156,29.027,29.027,0,0,1-8.96,1.134c-5.763,0-8.273-1.394-8.273-1.394a13.191,13.191,0,0,1,3.086-1.785s3.83,3.272,7.715,3.1c3.923-.149,1.487-3.216,1.487-3.216" fill="#5c8e77"/>
        <path id="Path_1404" data-name="Path 1404" d="M99.093,258.95a4.26,4.26,0,0,0-1.9-.52c-.986,0-2.622,0-2.622,2.621a9.35,9.35,0,0,0,.781,2.993" fill="url(#linear-gradient)"/>
        <path id="Path_1405" data-name="Path 1405" d="M93.553,259.415a4.673,4.673,0,0,0-2.454-.985c-1.45,0-2.249.483-2.249,1.226a1.683,1.683,0,0,0,1.3,1.581" fill="url(#linear-gradient-2)"/>
        <path id="Path_1406" data-name="Path 1406" d="M95.28,248.75c-.1.729-.713,6.728,3.958,8.276A7.35,7.35,0,0,0,98.289,251,7.26,7.26,0,0,0,95.28,248.75Z" fill="#232322"/>
        <path id="Path_1407" data-name="Path 1407" d="M84.983,255.883a7.762,7.762,0,0,1,2.844-6.916c3.551-2.993,9.277.037,10.448,2.064a8.669,8.669,0,0,1-3.9,4.852c-3.142,1.877-9.388,0-9.388,0" fill="#282928"/>
      </g>
      <g id="Group_1670" data-name="Group 1670">
        <path id="Path_1408" data-name="Path 1408" d="M109.147,272.093a20.155,20.155,0,0,0-2.026,1.971c1.673,1.45,7.919,4.5,14.835,3.681,6.9-.837,7.436-3.086,7.436-3.086-.836-.781-3.012-2.324-3.012-2.324" fill="#75b69b"/>
        <path id="Path_1409" data-name="Path 1409" d="M109.147,272.093a13.169,13.169,0,0,1,3.086-1.784c1.766-.707,1.432-1.525,1.859-5.243,0,0-1.84-2.454-1.952-3.792,0,0-1.729-.632-1.821-3.235-.112-2.6.929-2.156.929-2.156a7.765,7.765,0,0,1,2.844-6.916c3.551-2.993,9.277.037,10.448,2.064a7.34,7.34,0,0,1,.985,5.818c-.539,1.9.484,3.756-1.1,6.8-1.581,3.068-2.436,3.458-3.83,4.016l.056,1.6a1.3,1.3,0,0,0,.8.911c.669.241,4.945,2.156,4.945,2.156-1.561.019-3.16,1.134-8.96,1.134s-8.292-1.376-8.292-1.376" fill="#9e7054"/>
        <path id="Path_1410" data-name="Path 1410" d="M120.618,269.268a7.314,7.314,0,0,1-4.89-3.384c1.655,1.859,4.852,1.766,4.852,1.766Z" fill="#795644"/>
        <path id="Path_1411" data-name="Path 1411" d="M111.229,255.883s1.562.39,1.9,2.77h.223l-.037-2.473Z" fill="#282928"/>
        <path id="Path_1412" data-name="Path 1412" d="M121.417,270.179a48.358,48.358,0,0,1,4.945,2.156,29.03,29.03,0,0,1-8.961,1.134c-5.763,0-8.272-1.394-8.272-1.394a13.191,13.191,0,0,1,3.086-1.785s3.829,3.272,7.715,3.1c3.922-.149,1.487-3.216,1.487-3.216" fill="#5c8e77"/>
        <path id="Path_1413" data-name="Path 1413" d="M125.339,258.95a4.255,4.255,0,0,0-1.9-.52c-.985,0-2.621,0-2.621,2.621a9.35,9.35,0,0,0,.781,2.993" fill="url(#linear-gradient-3)"/>
        <path id="Path_1414" data-name="Path 1414" d="M119.8,259.415a4.673,4.673,0,0,0-2.454-.985c-1.45,0-2.25.483-2.25,1.226a1.683,1.683,0,0,0,1.3,1.581" fill="url(#linear-gradient-2)"/>
        <path id="Path_1415" data-name="Path 1415" d="M121.527,248.75c-.1.729-.713,6.728,3.958,8.276a7.354,7.354,0,0,0-.949-6.022A7.26,7.26,0,0,0,121.527,248.75Z" fill="#232322"/>
        <path id="Path_1416" data-name="Path 1416" d="M111.229,255.883a7.764,7.764,0,0,1,2.845-6.916c3.551-2.993,9.276.037,10.447,2.064a8.665,8.665,0,0,1-3.9,4.852c-3.142,1.877-9.389,0-9.389,0" fill="#282928"/>
      </g>
      <g id="Group_1671" data-name="Group 1671">
        <path id="Path_1417" data-name="Path 1417" d="M135.394,272.093a20.156,20.156,0,0,0-2.026,1.971c1.673,1.45,7.919,4.5,14.835,3.681,6.9-.837,7.436-3.086,7.436-3.086-.837-.781-3.012-2.324-3.012-2.324" fill="#75b69b"/>
        <path id="Path_1418" data-name="Path 1418" d="M135.394,272.093a13.17,13.17,0,0,1,3.086-1.784c1.766-.707,1.431-1.525,1.859-5.243,0,0-1.84-2.454-1.952-3.792,0,0-1.729-.632-1.822-3.235-.111-2.6.93-2.156.93-2.156a7.762,7.762,0,0,1,2.844-6.916c3.551-2.993,9.277.037,10.448,2.064a7.344,7.344,0,0,1,.985,5.818c-.539,1.9.483,3.756-1.1,6.8-1.58,3.068-2.435,3.458-3.829,4.016l.055,1.6a1.3,1.3,0,0,0,.8.911c.669.241,4.945,2.156,4.945,2.156-1.562.019-3.161,1.134-8.961,1.134s-8.291-1.376-8.291-1.376" fill="#9e7054"/>
        <path id="Path_1419" data-name="Path 1419" d="M146.864,269.268a7.314,7.314,0,0,1-4.889-3.384c1.654,1.859,4.852,1.766,4.852,1.766Z" fill="#795644"/>
        <path id="Path_1420" data-name="Path 1420" d="M137.476,255.883s1.562.39,1.9,2.77h.223l-.037-2.473Z" fill="#282928"/>
        <path id="Path_1421" data-name="Path 1421" d="M147.664,270.179a48.358,48.358,0,0,1,4.945,2.156,29.038,29.038,0,0,1-8.961,1.134c-5.763,0-8.273-1.394-8.273-1.394a13.191,13.191,0,0,1,3.086-1.785s3.83,3.272,7.715,3.1c3.923-.149,1.488-3.216,1.488-3.216" fill="#5c8e77"/>
        <path id="Path_1422" data-name="Path 1422" d="M151.586,258.95a4.255,4.255,0,0,0-1.9-.52c-.985,0-2.621,0-2.621,2.621a9.36,9.36,0,0,0,.78,2.993" fill="url(#linear-gradient-3)"/>
        <path id="Path_1423" data-name="Path 1423" d="M146.046,259.415a4.673,4.673,0,0,0-2.454-.985c-1.45,0-2.249.483-2.249,1.226a1.683,1.683,0,0,0,1.3,1.581" fill="url(#linear-gradient-6)"/>
        <path id="Path_1424" data-name="Path 1424" d="M147.773,248.75c-.1.729-.713,6.728,3.959,8.276a7.358,7.358,0,0,0-.949-6.022A7.264,7.264,0,0,0,147.773,248.75Z" fill="#232322"/>
        <path id="Path_1425" data-name="Path 1425" d="M137.476,255.883a7.765,7.765,0,0,1,2.844-6.916c3.551-2.993,9.277.037,10.448,2.064a8.664,8.664,0,0,1-3.9,4.852c-3.142,1.877-9.388,0-9.388,0" fill="#282928"/>
      </g>
      <g id="Group_1672" data-name="Group 1672">
        <path id="Path_1426" data-name="Path 1426" d="M161.641,272.093a20.107,20.107,0,0,0-2.027,1.971c1.673,1.45,7.92,4.5,14.835,3.681,6.9-.837,7.436-3.086,7.436-3.086-.836-.781-3.011-2.324-3.011-2.324" fill="#75b69b"/>
        <path id="Path_1427" data-name="Path 1427" d="M161.641,272.093a13.169,13.169,0,0,1,3.086-1.784c1.766-.707,1.431-1.525,1.859-5.243,0,0-1.841-2.454-1.952-3.792,0,0-1.729-.632-1.822-3.235-.112-2.6.929-2.156.929-2.156a7.764,7.764,0,0,1,2.845-6.916c3.55-2.993,9.276.037,10.447,2.064a7.341,7.341,0,0,1,.986,5.818c-.539,1.9.483,3.756-1.1,6.8-1.58,3.068-2.436,3.458-3.83,4.016l.056,1.6a1.3,1.3,0,0,0,.8.911c.67.241,4.945,2.156,4.945,2.156-1.561.019-3.16,1.134-8.96,1.134s-8.291-1.376-8.291-1.376" fill="#9e7054"/>
        <path id="Path_1428" data-name="Path 1428" d="M173.111,269.268a7.314,7.314,0,0,1-4.889-3.384c1.654,1.859,4.852,1.766,4.852,1.766Z" fill="#795644"/>
        <path id="Path_1429" data-name="Path 1429" d="M163.723,255.883s1.561.39,1.9,2.77h.223l-.037-2.473Z" fill="#282928"/>
        <path id="Path_1430" data-name="Path 1430" d="M173.91,270.179a48.358,48.358,0,0,1,4.945,2.156,29.027,29.027,0,0,1-8.96,1.134c-5.763,0-8.273-1.394-8.273-1.394a13.191,13.191,0,0,1,3.086-1.785s3.83,3.272,7.715,3.1c3.923-.149,1.487-3.216,1.487-3.216" fill="#5c8e77"/>
        <path id="Path_1431" data-name="Path 1431" d="M177.833,258.95a4.26,4.26,0,0,0-1.9-.52c-.986,0-2.622,0-2.622,2.621a9.35,9.35,0,0,0,.781,2.993" fill="url(#linear-gradient-7)"/>
        <path id="Path_1432" data-name="Path 1432" d="M172.293,259.415a4.673,4.673,0,0,0-2.454-.985c-1.45,0-2.249.483-2.249,1.226a1.683,1.683,0,0,0,1.3,1.581" fill="url(#linear-gradient-2)"/>
        <path id="Path_1433" data-name="Path 1433" d="M174.02,248.75c-.1.729-.713,6.728,3.958,8.276a7.35,7.35,0,0,0-.949-6.022A7.26,7.26,0,0,0,174.02,248.75Z" fill="#232322"/>
        <path id="Path_1434" data-name="Path 1434" d="M163.723,255.883a7.762,7.762,0,0,1,2.844-6.916c3.551-2.993,9.277.037,10.448,2.064a8.669,8.669,0,0,1-3.9,4.852c-3.142,1.877-9.388,0-9.388,0" fill="#282928"/>
      </g>
      <g id="Group_1673" data-name="Group 1673">
        <path id="Path_1435" data-name="Path 1435" d="M187.887,272.093a20.156,20.156,0,0,0-2.026,1.971c1.673,1.45,7.919,4.5,14.835,3.681,6.9-.837,7.436-3.086,7.436-3.086-.837-.781-3.012-2.324-3.012-2.324" fill="#75b69b"/>
        <path id="Path_1436" data-name="Path 1436" d="M187.887,272.093a13.169,13.169,0,0,1,3.086-1.784c1.766-.707,1.432-1.525,1.859-5.243,0,0-1.84-2.454-1.952-3.792,0,0-1.729-.632-1.822-3.235-.111-2.6.93-2.156.93-2.156a7.765,7.765,0,0,1,2.844-6.916c3.551-2.993,9.277.037,10.448,2.064a7.34,7.34,0,0,1,.985,5.818c-.539,1.9.484,3.756-1.1,6.8-1.58,3.068-2.435,3.458-3.829,4.016l.056,1.6a1.3,1.3,0,0,0,.8.911c.669.241,4.945,2.156,4.945,2.156-1.562.019-3.16,1.134-8.96,1.134s-8.292-1.376-8.292-1.376" fill="#9e7054"/>
        <path id="Path_1437" data-name="Path 1437" d="M199.357,269.268a7.314,7.314,0,0,1-4.889-3.384c1.655,1.859,4.852,1.766,4.852,1.766Z" fill="#795644"/>
        <path id="Path_1438" data-name="Path 1438" d="M189.969,255.883s1.562.39,1.9,2.77h.223l-.038-2.473Z" fill="#282928"/>
        <path id="Path_1439" data-name="Path 1439" d="M200.157,270.179a48.358,48.358,0,0,1,4.945,2.156,29.038,29.038,0,0,1-8.961,1.134c-5.763,0-8.272-1.394-8.272-1.394a13.191,13.191,0,0,1,3.086-1.785s3.829,3.272,7.715,3.1c3.922-.149,1.487-3.216,1.487-3.216" fill="#5c8e77"/>
        <path id="Path_1440" data-name="Path 1440" d="M204.079,258.95a4.255,4.255,0,0,0-1.9-.52c-.985,0-2.621,0-2.621,2.621a9.35,9.35,0,0,0,.781,2.993" fill="url(#linear-gradient-3)"/>
        <path id="Path_1441" data-name="Path 1441" d="M198.539,259.415a4.668,4.668,0,0,0-2.453-.985c-1.45,0-2.25.483-2.25,1.226a1.683,1.683,0,0,0,1.3,1.581" fill="url(#linear-gradient-10)"/>
        <path id="Path_1442" data-name="Path 1442" d="M200.267,248.75c-.1.729-.714,6.728,3.958,8.276a7.354,7.354,0,0,0-.949-6.022A7.26,7.26,0,0,0,200.267,248.75Z" fill="#232322"/>
        <path id="Path_1443" data-name="Path 1443" d="M189.969,255.883a7.764,7.764,0,0,1,2.845-6.916c3.55-2.993,9.276.037,10.447,2.064a8.664,8.664,0,0,1-3.9,4.852c-3.141,1.877-9.388,0-9.388,0" fill="#282928"/>
      </g>
      <g id="Group_1674" data-name="Group 1674">
        <path id="Path_1444" data-name="Path 1444" d="M214.134,272.093a20.154,20.154,0,0,0-2.026,1.971c1.673,1.45,7.919,4.5,14.835,3.681,6.9-.837,7.436-3.086,7.436-3.086-.837-.781-3.012-2.324-3.012-2.324" fill="#75b69b"/>
        <path id="Path_1445" data-name="Path 1445" d="M214.134,272.093a13.169,13.169,0,0,1,3.086-1.784c1.766-.707,1.431-1.525,1.859-5.243,0,0-1.841-2.454-1.952-3.792,0,0-1.729-.632-1.822-3.235-.111-2.6.93-2.156.93-2.156a7.762,7.762,0,0,1,2.844-6.916c3.551-2.993,9.276.037,10.448,2.064a7.344,7.344,0,0,1,.985,5.818c-.539,1.9.483,3.756-1.1,6.8-1.58,3.068-2.435,3.458-3.83,4.016l.056,1.6a1.3,1.3,0,0,0,.8.911c.669.241,4.945,2.156,4.945,2.156-1.562.019-3.161,1.134-8.961,1.134s-8.291-1.376-8.291-1.376" fill="#9e7054"/>
        <path id="Path_1446" data-name="Path 1446" d="M225.6,269.268a7.314,7.314,0,0,1-4.889-3.384c1.654,1.859,4.852,1.766,4.852,1.766Z" fill="#795644"/>
        <path id="Path_1447" data-name="Path 1447" d="M216.216,255.883s1.562.39,1.9,2.77h.223l-.037-2.473Z" fill="#282928"/>
        <path id="Path_1448" data-name="Path 1448" d="M226.4,270.179a48.167,48.167,0,0,1,4.945,2.156,29.027,29.027,0,0,1-8.96,1.134c-5.763,0-8.273-1.394-8.273-1.394a13.191,13.191,0,0,1,3.086-1.785s3.83,3.272,7.715,3.1c3.923-.149,1.487-3.216,1.487-3.216" fill="#5c8e77"/>
        <path id="Path_1449" data-name="Path 1449" d="M230.326,258.95a4.255,4.255,0,0,0-1.9-.52c-.985,0-2.621,0-2.621,2.621a9.36,9.36,0,0,0,.78,2.993" fill="url(#linear-gradient-11)"/>
        <path id="Path_1450" data-name="Path 1450" d="M224.786,259.415a4.673,4.673,0,0,0-2.454-.985c-1.45,0-2.249.483-2.249,1.226a1.683,1.683,0,0,0,1.3,1.581" fill="url(#linear-gradient-2)"/>
        <path id="Path_1451" data-name="Path 1451" d="M226.513,248.75c-.1.729-.713,6.728,3.959,8.276a7.358,7.358,0,0,0-.949-6.022A7.271,7.271,0,0,0,226.513,248.75Z" fill="#232322"/>
        <path id="Path_1452" data-name="Path 1452" d="M216.216,255.883a7.765,7.765,0,0,1,2.844-6.916c3.551-2.993,9.277.037,10.448,2.064a8.669,8.669,0,0,1-3.9,4.852c-3.142,1.877-9.388,0-9.388,0" fill="#282928"/>
      </g>
      <g id="Group_1675" data-name="Group 1675">
        <path id="Path_1453" data-name="Path 1453" d="M71.011,280.068a20.155,20.155,0,0,0-2.026,1.971c1.673,1.45,7.92,4.5,14.835,3.681,6.9-.837,7.436-3.086,7.436-3.086-.836-.781-3.011-2.324-3.011-2.324" fill="#75b69b"/>
        <path id="Path_1454" data-name="Path 1454" d="M71.011,280.068a13.168,13.168,0,0,1,3.086-1.784c1.767-.707,1.432-1.525,1.859-5.243,0,0-1.84-2.454-1.952-3.792,0,0-1.728-.632-1.821-3.235-.112-2.6.929-2.156.929-2.156a7.765,7.765,0,0,1,2.844-6.916c3.551-2.993,9.277.037,10.448,2.064a7.336,7.336,0,0,1,.985,5.818c-.539,1.9.484,3.756-1.1,6.8-1.581,3.068-2.436,3.458-3.83,4.016l.056,1.6a1.3,1.3,0,0,0,.8.911c.669.241,4.945,2.156,4.945,2.156-1.561.019-3.16,1.134-8.96,1.134s-8.292-1.376-8.292-1.376" fill="#9e7054"/>
        <path id="Path_1455" data-name="Path 1455" d="M82.482,277.243a7.318,7.318,0,0,1-4.89-3.384c1.655,1.859,4.852,1.766,4.852,1.766Z" fill="#795644"/>
        <path id="Path_1456" data-name="Path 1456" d="M73.094,263.858s1.561.39,1.9,2.77h.223l-.037-2.473Z" fill="#282928"/>
        <path id="Path_1457" data-name="Path 1457" d="M83.281,278.154a48.35,48.35,0,0,1,4.945,2.156,29.027,29.027,0,0,1-8.96,1.134c-5.763,0-8.273-1.394-8.273-1.394a13.191,13.191,0,0,1,3.086-1.785s3.829,3.272,7.715,3.1c3.922-.149,1.487-3.216,1.487-3.216" fill="#5c8e77"/>
        <path id="Path_1458" data-name="Path 1458" d="M87.2,266.925a4.262,4.262,0,0,0-1.9-.52c-.985,0-2.621,0-2.621,2.621a9.35,9.35,0,0,0,.781,2.993" fill="url(#linear-gradient-13)"/>
        <path id="Path_1459" data-name="Path 1459" d="M81.664,267.39a4.673,4.673,0,0,0-2.454-.985c-1.45,0-2.25.483-2.25,1.227a1.683,1.683,0,0,0,1.3,1.58" fill="url(#linear-gradient-6)"/>
        <path id="Path_1460" data-name="Path 1460" d="M83.391,256.725c-.1.729-.713,6.728,3.958,8.276a7.351,7.351,0,0,0-.949-6.022A7.26,7.26,0,0,0,83.391,256.725Z" fill="#232322"/>
        <path id="Path_1461" data-name="Path 1461" d="M73.094,263.858a7.762,7.762,0,0,1,2.844-6.916c3.551-2.993,9.276.037,10.448,2.064a8.669,8.669,0,0,1-3.9,4.852c-3.142,1.877-9.388,0-9.388,0" fill="#282928"/>
      </g>
      <g id="Group_1676" data-name="Group 1676">
        <path id="Path_1462" data-name="Path 1462" d="M97.258,280.068a20.155,20.155,0,0,0-2.026,1.971c1.673,1.45,7.919,4.5,14.835,3.681,6.9-.837,7.436-3.086,7.436-3.086-.837-.781-3.012-2.324-3.012-2.324" fill="#75b69b"/>
        <path id="Path_1463" data-name="Path 1463" d="M97.258,280.068a13.168,13.168,0,0,1,3.086-1.784c1.766-.707,1.432-1.525,1.859-5.243,0,0-1.84-2.454-1.952-3.792,0,0-1.729-.632-1.822-3.235-.111-2.6.93-2.156.93-2.156a7.762,7.762,0,0,1,2.844-6.916c3.551-2.993,9.277.037,10.448,2.064a7.344,7.344,0,0,1,.985,5.818c-.539,1.9.483,3.756-1.1,6.8-1.58,3.068-2.435,3.458-3.829,4.016l.055,1.6a1.3,1.3,0,0,0,.8.911c.669.241,4.945,2.156,4.945,2.156-1.562.019-3.161,1.134-8.961,1.134s-8.291-1.376-8.291-1.376" fill="#9e7054"/>
        <path id="Path_1464" data-name="Path 1464" d="M108.728,277.243a7.314,7.314,0,0,1-4.889-3.384c1.655,1.859,4.852,1.766,4.852,1.766Z" fill="#795644"/>
        <path id="Path_1465" data-name="Path 1465" d="M99.34,263.858s1.562.39,1.9,2.77h.223l-.037-2.473Z" fill="#282928"/>
        <path id="Path_1466" data-name="Path 1466" d="M109.528,278.154a48.351,48.351,0,0,1,4.945,2.156,29.038,29.038,0,0,1-8.961,1.134c-5.763,0-8.272-1.394-8.272-1.394a13.17,13.17,0,0,1,3.085-1.785s3.83,3.272,7.715,3.1c3.923-.149,1.488-3.216,1.488-3.216" fill="#5c8e77"/>
        <path id="Path_1467" data-name="Path 1467" d="M113.45,266.925a4.255,4.255,0,0,0-1.9-.52c-.985,0-2.621,0-2.621,2.621a9.35,9.35,0,0,0,.781,2.993" fill="url(#linear-gradient-3)"/>
        <path id="Path_1468" data-name="Path 1468" d="M107.91,267.39a4.673,4.673,0,0,0-2.454-.985c-1.45,0-2.249.483-2.249,1.227a1.682,1.682,0,0,0,1.3,1.58" fill="url(#linear-gradient-10)"/>
        <path id="Path_1469" data-name="Path 1469" d="M109.637,256.725c-.1.729-.713,6.728,3.959,8.276a7.358,7.358,0,0,0-.949-6.022A7.264,7.264,0,0,0,109.637,256.725Z" fill="#232322"/>
        <path id="Path_1470" data-name="Path 1470" d="M99.34,263.858a7.764,7.764,0,0,1,2.845-6.916c3.55-2.993,9.276.037,10.447,2.064a8.664,8.664,0,0,1-3.9,4.852c-3.141,1.877-9.388,0-9.388,0" fill="#282928"/>
      </g>
      <g id="Group_1677" data-name="Group 1677">
        <path id="Path_1471" data-name="Path 1471" d="M123.5,280.068a20.107,20.107,0,0,0-2.027,1.971c1.674,1.45,7.92,4.5,14.835,3.681,6.9-.837,7.436-3.086,7.436-3.086-.836-.781-3.011-2.324-3.011-2.324" fill="#75b69b"/>
        <path id="Path_1472" data-name="Path 1472" d="M123.5,280.068a13.168,13.168,0,0,1,3.086-1.784c1.766-.707,1.431-1.525,1.859-5.243,0,0-1.841-2.454-1.952-3.792,0,0-1.729-.632-1.822-3.235-.112-2.6.929-2.156.929-2.156a7.764,7.764,0,0,1,2.845-6.916c3.55-2.993,9.276.037,10.447,2.064a7.341,7.341,0,0,1,.986,5.818c-.539,1.9.483,3.756-1.1,6.8-1.58,3.068-2.435,3.458-3.83,4.016l.056,1.6a1.3,1.3,0,0,0,.8.911c.67.241,4.945,2.156,4.945,2.156-1.561.019-3.16,1.134-8.96,1.134s-8.291-1.376-8.291-1.376" fill="#9e7054"/>
        <path id="Path_1473" data-name="Path 1473" d="M134.975,277.243a7.314,7.314,0,0,1-4.889-3.384c1.654,1.859,4.852,1.766,4.852,1.766Z" fill="#795644"/>
        <path id="Path_1474" data-name="Path 1474" d="M125.587,263.858s1.561.39,1.9,2.77h.223l-.037-2.473Z" fill="#282928"/>
        <path id="Path_1475" data-name="Path 1475" d="M135.774,278.154a48.255,48.255,0,0,1,4.945,2.156,29.027,29.027,0,0,1-8.96,1.134c-5.763,0-8.273-1.394-8.273-1.394a13.19,13.19,0,0,1,3.086-1.785s3.83,3.272,7.715,3.1c3.923-.149,1.487-3.216,1.487-3.216" fill="#5c8e77"/>
        <path id="Path_1476" data-name="Path 1476" d="M139.7,266.925a4.261,4.261,0,0,0-1.9-.52c-.986,0-2.622,0-2.622,2.621a9.35,9.35,0,0,0,.781,2.993" fill="url(#linear-gradient)"/>
        <path id="Path_1477" data-name="Path 1477" d="M134.157,267.39a4.673,4.673,0,0,0-2.454-.985c-1.45,0-2.249.483-2.249,1.227a1.682,1.682,0,0,0,1.3,1.58" fill="url(#linear-gradient-2)"/>
        <path id="Path_1478" data-name="Path 1478" d="M135.884,256.725c-.1.729-.713,6.728,3.958,8.276a7.354,7.354,0,0,0-.948-6.022A7.271,7.271,0,0,0,135.884,256.725Z" fill="#232322"/>
        <path id="Path_1479" data-name="Path 1479" d="M125.587,263.858a7.762,7.762,0,0,1,2.844-6.916c3.551-2.993,9.277.037,10.448,2.064a8.669,8.669,0,0,1-3.9,4.852c-3.142,1.877-9.388,0-9.388,0" fill="#282928"/>
      </g>
      <g id="Group_1678" data-name="Group 1678">
        <path id="Path_1480" data-name="Path 1480" d="M149.751,280.068a20.154,20.154,0,0,0-2.026,1.971c1.673,1.45,7.919,4.5,14.835,3.681,6.9-.837,7.436-3.086,7.436-3.086-.836-.781-3.011-2.324-3.011-2.324" fill="#75b69b"/>
        <path id="Path_1481" data-name="Path 1481" d="M149.751,280.068a13.168,13.168,0,0,1,3.086-1.784c1.766-.707,1.432-1.525,1.859-5.243,0,0-1.84-2.454-1.952-3.792,0,0-1.728-.632-1.821-3.235-.112-2.6.929-2.156.929-2.156a7.765,7.765,0,0,1,2.844-6.916c3.551-2.993,9.277.037,10.448,2.064a7.34,7.34,0,0,1,.985,5.818c-.539,1.9.484,3.756-1.1,6.8-1.581,3.068-2.436,3.458-3.83,4.016l.056,1.6a1.3,1.3,0,0,0,.8.911c.669.241,4.945,2.156,4.945,2.156-1.561.019-3.16,1.134-8.96,1.134s-8.292-1.376-8.292-1.376" fill="#9e7054"/>
        <path id="Path_1482" data-name="Path 1482" d="M161.222,277.243a7.318,7.318,0,0,1-4.89-3.384c1.655,1.859,4.852,1.766,4.852,1.766Z" fill="#795644"/>
        <path id="Path_1483" data-name="Path 1483" d="M151.833,263.858s1.562.39,1.9,2.77h.223l-.037-2.473Z" fill="#282928"/>
        <path id="Path_1484" data-name="Path 1484" d="M162.021,278.154a48.351,48.351,0,0,1,4.945,2.156,29.03,29.03,0,0,1-8.961,1.134c-5.763,0-8.272-1.394-8.272-1.394a13.19,13.19,0,0,1,3.086-1.785s3.829,3.272,7.715,3.1c3.922-.149,1.487-3.216,1.487-3.216" fill="#5c8e77"/>
        <path id="Path_1485" data-name="Path 1485" d="M165.943,266.925a4.255,4.255,0,0,0-1.9-.52c-.985,0-2.621,0-2.621,2.621a9.35,9.35,0,0,0,.781,2.993" fill="url(#linear-gradient-3)"/>
        <path id="Path_1486" data-name="Path 1486" d="M160.4,267.39a4.673,4.673,0,0,0-2.454-.985c-1.45,0-2.25.483-2.25,1.227a1.683,1.683,0,0,0,1.3,1.58" fill="url(#linear-gradient-6)"/>
        <path id="Path_1487" data-name="Path 1487" d="M162.131,256.725c-.1.729-.713,6.728,3.958,8.276a7.354,7.354,0,0,0-.949-6.022A7.26,7.26,0,0,0,162.131,256.725Z" fill="#232322"/>
        <path id="Path_1488" data-name="Path 1488" d="M151.833,263.858a7.764,7.764,0,0,1,2.845-6.916c3.551-2.993,9.276.037,10.447,2.064a8.665,8.665,0,0,1-3.9,4.852c-3.142,1.877-9.389,0-9.389,0" fill="#282928"/>
      </g>
      <g id="Group_1679" data-name="Group 1679">
        <path id="Path_1489" data-name="Path 1489" d="M176,280.068a20.154,20.154,0,0,0-2.026,1.971c1.673,1.45,7.919,4.5,14.835,3.681,6.9-.837,7.436-3.086,7.436-3.086-.837-.781-3.012-2.324-3.012-2.324" fill="#75b69b"/>
        <path id="Path_1490" data-name="Path 1490" d="M176,280.068a13.168,13.168,0,0,1,3.086-1.784c1.766-.707,1.431-1.525,1.859-5.243,0,0-1.84-2.454-1.952-3.792,0,0-1.729-.632-1.822-3.235-.111-2.6.93-2.156.93-2.156a7.762,7.762,0,0,1,2.844-6.916c3.551-2.993,9.277.037,10.448,2.064a7.344,7.344,0,0,1,.985,5.818c-.539,1.9.483,3.756-1.1,6.8-1.58,3.068-2.435,3.458-3.829,4.016l.055,1.6a1.3,1.3,0,0,0,.8.911c.669.241,4.945,2.156,4.945,2.156-1.562.019-3.161,1.134-8.961,1.134S176,280.068,176,280.068" fill="#9e7054"/>
        <path id="Path_1491" data-name="Path 1491" d="M187.468,277.243a7.314,7.314,0,0,1-4.889-3.384c1.654,1.859,4.852,1.766,4.852,1.766Z" fill="#795644"/>
        <path id="Path_1492" data-name="Path 1492" d="M178.08,263.858s1.562.39,1.9,2.77h.223l-.037-2.473Z" fill="#282928"/>
        <path id="Path_1493" data-name="Path 1493" d="M188.268,278.154a48.351,48.351,0,0,1,4.945,2.156,29.038,29.038,0,0,1-8.961,1.134c-5.763,0-8.273-1.394-8.273-1.394a13.19,13.19,0,0,1,3.086-1.785s3.83,3.272,7.715,3.1c3.923-.149,1.488-3.216,1.488-3.216" fill="#5c8e77"/>
        <path id="Path_1494" data-name="Path 1494" d="M192.19,266.925a4.255,4.255,0,0,0-1.9-.52c-.985,0-2.621,0-2.621,2.621a9.36,9.36,0,0,0,.78,2.993" fill="url(#linear-gradient-3)"/>
        <path id="Path_1495" data-name="Path 1495" d="M186.65,267.39a4.673,4.673,0,0,0-2.454-.985c-1.45,0-2.249.483-2.249,1.227a1.682,1.682,0,0,0,1.3,1.58" fill="url(#linear-gradient-6)"/>
        <path id="Path_1496" data-name="Path 1496" d="M188.377,256.725c-.1.729-.713,6.728,3.959,8.276a7.358,7.358,0,0,0-.949-6.022A7.264,7.264,0,0,0,188.377,256.725Z" fill="#232322"/>
        <path id="Path_1497" data-name="Path 1497" d="M178.08,263.858a7.765,7.765,0,0,1,2.844-6.916c3.551-2.993,9.277.037,10.448,2.064a8.664,8.664,0,0,1-3.9,4.852c-3.142,1.877-9.388,0-9.388,0" fill="#282928"/>
      </g>
      <g id="Group_1680" data-name="Group 1680">
        <path id="Path_1498" data-name="Path 1498" d="M202.245,280.068a20.106,20.106,0,0,0-2.027,1.971c1.673,1.45,7.92,4.5,14.835,3.681,6.9-.837,7.436-3.086,7.436-3.086-.836-.781-3.011-2.324-3.011-2.324" fill="#75b69b"/>
        <path id="Path_1499" data-name="Path 1499" d="M202.245,280.068a13.168,13.168,0,0,1,3.086-1.784c1.766-.707,1.431-1.525,1.859-5.243,0,0-1.841-2.454-1.952-3.792,0,0-1.729-.632-1.822-3.235-.112-2.6.929-2.156.929-2.156a7.764,7.764,0,0,1,2.845-6.916c3.55-2.993,9.276.037,10.447,2.064a7.341,7.341,0,0,1,.986,5.818c-.539,1.9.483,3.756-1.1,6.8-1.58,3.068-2.435,3.458-3.83,4.016l.056,1.6a1.3,1.3,0,0,0,.8.911c.67.241,4.945,2.156,4.945,2.156-1.561.019-3.16,1.134-8.96,1.134s-8.291-1.376-8.291-1.376" fill="#9e7054"/>
        <path id="Path_1500" data-name="Path 1500" d="M213.715,277.243a7.314,7.314,0,0,1-4.889-3.384c1.654,1.859,4.852,1.766,4.852,1.766Z" fill="#795644"/>
        <path id="Path_1501" data-name="Path 1501" d="M204.327,263.858s1.561.39,1.9,2.77h.223l-.037-2.473Z" fill="#282928"/>
        <path id="Path_1502" data-name="Path 1502" d="M214.514,278.154a48.351,48.351,0,0,1,4.945,2.156,29.027,29.027,0,0,1-8.96,1.134c-5.763,0-8.273-1.394-8.273-1.394a13.191,13.191,0,0,1,3.086-1.785s3.83,3.272,7.715,3.1c3.923-.149,1.487-3.216,1.487-3.216" fill="#5c8e77"/>
        <path id="Path_1503" data-name="Path 1503" d="M218.437,266.925a4.261,4.261,0,0,0-1.9-.52c-.986,0-2.622,0-2.622,2.621a9.35,9.35,0,0,0,.781,2.993" fill="url(#linear-gradient)"/>
        <path id="Path_1504" data-name="Path 1504" d="M212.9,267.39a4.673,4.673,0,0,0-2.454-.985c-1.45,0-2.249.483-2.249,1.227a1.682,1.682,0,0,0,1.3,1.58" fill="url(#linear-gradient-2)"/>
        <path id="Path_1505" data-name="Path 1505" d="M214.624,256.725c-.1.729-.713,6.728,3.958,8.276a7.351,7.351,0,0,0-.949-6.022A7.259,7.259,0,0,0,214.624,256.725Z" fill="#232322"/>
        <path id="Path_1506" data-name="Path 1506" d="M204.327,263.858a7.762,7.762,0,0,1,2.844-6.916c3.551-2.993,9.277.037,10.448,2.064a8.669,8.669,0,0,1-3.9,4.852c-3.142,1.877-9.388,0-9.388,0" fill="#282928"/>
      </g>
      <g id="Group_1681" data-name="Group 1681">
        <path id="Path_1507" data-name="Path 1507" d="M228.491,280.068a20.156,20.156,0,0,0-2.026,1.971c1.673,1.45,7.919,4.5,14.835,3.681,6.9-.837,7.436-3.086,7.436-3.086-.837-.781-3.012-2.324-3.012-2.324" fill="#75b69b"/>
        <path id="Path_1508" data-name="Path 1508" d="M228.491,280.068a13.168,13.168,0,0,1,3.086-1.784c1.766-.707,1.432-1.525,1.859-5.243,0,0-1.84-2.454-1.952-3.792,0,0-1.729-.632-1.822-3.235-.111-2.6.93-2.156.93-2.156a7.765,7.765,0,0,1,2.844-6.916c3.551-2.993,9.277.037,10.448,2.064a7.34,7.34,0,0,1,.985,5.818c-.539,1.9.484,3.756-1.1,6.8-1.58,3.068-2.435,3.458-3.829,4.016l.056,1.6a1.3,1.3,0,0,0,.8.911c.669.241,4.945,2.156,4.945,2.156-1.562.019-3.16,1.134-8.96,1.134s-8.292-1.376-8.292-1.376" fill="#9e7054"/>
        <path id="Path_1509" data-name="Path 1509" d="M239.961,277.243a7.314,7.314,0,0,1-4.889-3.384c1.655,1.859,4.852,1.766,4.852,1.766Z" fill="#795644"/>
        <path id="Path_1510" data-name="Path 1510" d="M230.573,263.858s1.562.39,1.9,2.77h.223l-.037-2.473Z" fill="#282928"/>
        <path id="Path_1511" data-name="Path 1511" d="M240.761,278.154a48.351,48.351,0,0,1,4.945,2.156,29.03,29.03,0,0,1-8.961,1.134c-5.763,0-8.272-1.394-8.272-1.394a13.19,13.19,0,0,1,3.086-1.785s3.829,3.272,7.715,3.1c3.922-.149,1.487-3.216,1.487-3.216" fill="#5c8e77"/>
        <path id="Path_1512" data-name="Path 1512" d="M244.683,266.925a4.255,4.255,0,0,0-1.9-.52c-.985,0-2.621,0-2.621,2.621a9.35,9.35,0,0,0,.781,2.993" fill="url(#linear-gradient-3)"/>
        <path id="Path_1513" data-name="Path 1513" d="M239.144,267.39a4.673,4.673,0,0,0-2.454-.985c-1.45,0-2.25.483-2.25,1.227a1.682,1.682,0,0,0,1.3,1.58" fill="url(#linear-gradient-2)"/>
        <path id="Path_1514" data-name="Path 1514" d="M240.871,256.725c-.1.729-.713,6.728,3.958,8.276a7.354,7.354,0,0,0-.949-6.022A7.26,7.26,0,0,0,240.871,256.725Z" fill="#232322"/>
        <path id="Path_1515" data-name="Path 1515" d="M230.573,263.858a7.764,7.764,0,0,1,2.845-6.916c3.55-2.993,9.276.037,10.447,2.064a8.664,8.664,0,0,1-3.9,4.852c-3.141,1.877-9.388,0-9.388,0" fill="#282928"/>
      </g>
      <g id="Group_1682" data-name="Group 1682">
        <path id="Path_1516" data-name="Path 1516" d="M85.621,288.042a20.155,20.155,0,0,0-2.026,1.971c1.673,1.45,7.919,4.5,14.835,3.681,6.9-.837,7.436-3.086,7.436-3.086-.837-.781-3.012-2.324-3.012-2.324" fill="#75b69b"/>
        <path id="Path_1517" data-name="Path 1517" d="M85.621,288.042a13.168,13.168,0,0,1,3.086-1.784c1.766-.707,1.432-1.525,1.859-5.243,0,0-1.84-2.454-1.952-3.792,0,0-1.729-.632-1.822-3.235-.111-2.6.93-2.156.93-2.156a7.762,7.762,0,0,1,2.844-6.916c3.551-2.993,9.277.037,10.448,2.063A7.347,7.347,0,0,1,102,272.8c-.539,1.9.483,3.755-1.1,6.8-1.58,3.068-2.435,3.458-3.829,4.016l.055,1.6a1.3,1.3,0,0,0,.8.911c.669.242,4.945,2.157,4.945,2.157-1.562.018-3.16,1.134-8.961,1.134s-8.291-1.376-8.291-1.376" fill="#9e7054"/>
        <path id="Path_1518" data-name="Path 1518" d="M97.091,285.216a7.311,7.311,0,0,1-4.889-3.383c1.655,1.859,4.852,1.766,4.852,1.766Z" fill="#795644"/>
        <path id="Path_1519" data-name="Path 1519" d="M87.7,271.832s1.562.39,1.9,2.769h.224l-.038-2.472Z" fill="#282928"/>
        <path id="Path_1520" data-name="Path 1520" d="M97.891,286.127a48.615,48.615,0,0,1,4.945,2.157,29.038,29.038,0,0,1-8.961,1.134c-5.763,0-8.272-1.394-8.272-1.394a13.125,13.125,0,0,1,3.086-1.785s3.829,3.272,7.714,3.1c3.923-.149,1.488-3.217,1.488-3.217" fill="#5c8e77"/>
        <path id="Path_1521" data-name="Path 1521" d="M101.813,274.9a4.249,4.249,0,0,0-1.9-.521c-.985,0-2.621,0-2.621,2.622a9.35,9.35,0,0,0,.781,2.993" fill="url(#linear-gradient-27)"/>
        <path id="Path_1522" data-name="Path 1522" d="M96.273,275.364a4.671,4.671,0,0,0-2.454-.986c-1.45,0-2.249.484-2.249,1.227a1.683,1.683,0,0,0,1.3,1.581" fill="url(#linear-gradient-28)"/>
        <path id="Path_1523" data-name="Path 1523" d="M98,264.7c-.1.73-.713,6.729,3.959,8.277a7.357,7.357,0,0,0-.949-6.022A7.258,7.258,0,0,0,98,264.7Z" fill="#232322"/>
        <path id="Path_1524" data-name="Path 1524" d="M87.7,271.832a7.764,7.764,0,0,1,2.845-6.916c3.55-2.993,9.276.037,10.447,2.063a8.664,8.664,0,0,1-3.9,4.853c-3.141,1.877-9.388,0-9.388,0" fill="#282928"/>
      </g>
      <g id="Group_1683" data-name="Group 1683">
        <path id="Path_1525" data-name="Path 1525" d="M111.868,288.042a20.106,20.106,0,0,0-2.027,1.971c1.674,1.45,7.92,4.5,14.835,3.681,6.9-.837,7.437-3.086,7.437-3.086-.837-.781-3.012-2.324-3.012-2.324" fill="#75b69b"/>
        <path id="Path_1526" data-name="Path 1526" d="M111.868,288.042a13.168,13.168,0,0,1,3.086-1.784c1.766-.707,1.431-1.525,1.859-5.243,0,0-1.841-2.454-1.952-3.792,0,0-1.729-.632-1.822-3.235-.112-2.6.929-2.156.929-2.156a7.764,7.764,0,0,1,2.845-6.916c3.551-2.993,9.276.037,10.447,2.063a7.344,7.344,0,0,1,.986,5.819c-.539,1.9.483,3.755-1.1,6.8-1.58,3.068-2.435,3.458-3.83,4.016l.056,1.6a1.3,1.3,0,0,0,.8.911c.669.242,4.945,2.157,4.945,2.157-1.562.018-3.161,1.134-8.961,1.134s-8.291-1.376-8.291-1.376" fill="#9e7054"/>
        <path id="Path_1527" data-name="Path 1527" d="M123.338,285.216a7.311,7.311,0,0,1-4.889-3.383c1.654,1.859,4.852,1.766,4.852,1.766Z" fill="#795644"/>
        <path id="Path_1528" data-name="Path 1528" d="M113.95,271.832s1.561.39,1.9,2.769h.223l-.037-2.472Z" fill="#282928"/>
        <path id="Path_1529" data-name="Path 1529" d="M124.137,286.127a48.518,48.518,0,0,1,4.945,2.157,29.027,29.027,0,0,1-8.96,1.134c-5.763,0-8.273-1.394-8.273-1.394a13.151,13.151,0,0,1,3.086-1.785s3.83,3.272,7.715,3.1c3.923-.149,1.487-3.217,1.487-3.217" fill="#5c8e77"/>
        <path id="Path_1530" data-name="Path 1530" d="M128.06,274.9a4.249,4.249,0,0,0-1.9-.521c-.986,0-2.622,0-2.622,2.622a9.35,9.35,0,0,0,.781,2.993" fill="url(#linear-gradient-29)"/>
        <path id="Path_1531" data-name="Path 1531" d="M122.52,275.364a4.67,4.67,0,0,0-2.454-.986c-1.45,0-2.249.484-2.249,1.227a1.683,1.683,0,0,0,1.3,1.581" fill="url(#linear-gradient-30)"/>
        <path id="Path_1532" data-name="Path 1532" d="M124.247,264.7c-.1.73-.713,6.729,3.958,8.277a7.353,7.353,0,0,0-.948-6.022A7.272,7.272,0,0,0,124.247,264.7Z" fill="#232322"/>
        <path id="Path_1533" data-name="Path 1533" d="M113.95,271.832a7.762,7.762,0,0,1,2.844-6.916c3.551-2.993,9.277.037,10.448,2.063a8.67,8.67,0,0,1-3.9,4.853c-3.142,1.877-9.388,0-9.388,0" fill="#282928"/>
      </g>
      <g id="Group_1684" data-name="Group 1684">
        <path id="Path_1534" data-name="Path 1534" d="M138.114,288.042a20.156,20.156,0,0,0-2.026,1.971c1.673,1.45,7.92,4.5,14.835,3.681,6.9-.837,7.436-3.086,7.436-3.086-.836-.781-3.011-2.324-3.011-2.324" fill="#75b69b"/>
        <path id="Path_1535" data-name="Path 1535" d="M138.114,288.042a13.168,13.168,0,0,1,3.086-1.784c1.766-.707,1.432-1.525,1.859-5.243,0,0-1.84-2.454-1.952-3.792,0,0-1.728-.632-1.821-3.235-.112-2.6.929-2.156.929-2.156a7.765,7.765,0,0,1,2.844-6.916c3.551-2.993,9.277.037,10.448,2.063a7.339,7.339,0,0,1,.985,5.819c-.539,1.9.484,3.755-1.1,6.8-1.581,3.068-2.436,3.458-3.83,4.016l.056,1.6a1.3,1.3,0,0,0,.8.911c.669.242,4.945,2.157,4.945,2.157-1.561.018-3.16,1.134-8.96,1.134s-8.292-1.376-8.292-1.376" fill="#9e7054"/>
        <path id="Path_1536" data-name="Path 1536" d="M149.585,285.216a7.315,7.315,0,0,1-4.89-3.383c1.655,1.859,4.852,1.766,4.852,1.766Z" fill="#795644"/>
        <path id="Path_1537" data-name="Path 1537" d="M140.2,271.832s1.561.39,1.9,2.769h.223l-.037-2.472Z" fill="#282928"/>
        <path id="Path_1538" data-name="Path 1538" d="M150.384,286.127a48.615,48.615,0,0,1,4.945,2.157,29.03,29.03,0,0,1-8.961,1.134c-5.762,0-8.272-1.394-8.272-1.394a13.151,13.151,0,0,1,3.086-1.785s3.829,3.272,7.715,3.1c3.922-.149,1.487-3.217,1.487-3.217" fill="#5c8e77"/>
        <path id="Path_1539" data-name="Path 1539" d="M154.306,274.9a4.249,4.249,0,0,0-1.9-.521c-.985,0-2.621,0-2.621,2.622a9.35,9.35,0,0,0,.781,2.993" fill="url(#linear-gradient-29)"/>
        <path id="Path_1540" data-name="Path 1540" d="M148.767,275.364a4.671,4.671,0,0,0-2.454-.986c-1.45,0-2.25.484-2.25,1.227a1.683,1.683,0,0,0,1.3,1.581" fill="url(#linear-gradient-32)"/>
        <path id="Path_1541" data-name="Path 1541" d="M150.494,264.7c-.1.73-.713,6.729,3.958,8.277a7.35,7.35,0,0,0-.949-6.022A7.261,7.261,0,0,0,150.494,264.7Z" fill="#232322"/>
        <path id="Path_1542" data-name="Path 1542" d="M140.2,271.832a7.762,7.762,0,0,1,2.844-6.916c3.551-2.993,9.276.037,10.448,2.063a8.67,8.67,0,0,1-3.9,4.853c-3.142,1.877-9.388,0-9.388,0" fill="#282928"/>
      </g>
      <g id="Group_1685" data-name="Group 1685">
        <path id="Path_1543" data-name="Path 1543" d="M164.361,288.042a20.155,20.155,0,0,0-2.026,1.971c1.673,1.45,7.919,4.5,14.835,3.681,6.9-.837,7.436-3.086,7.436-3.086-.837-.781-3.012-2.324-3.012-2.324" fill="#75b69b"/>
        <path id="Path_1544" data-name="Path 1544" d="M164.361,288.042a13.168,13.168,0,0,1,3.086-1.784c1.766-.707,1.431-1.525,1.859-5.243,0,0-1.84-2.454-1.952-3.792,0,0-1.729-.632-1.822-3.235-.111-2.6.93-2.156.93-2.156a7.762,7.762,0,0,1,2.844-6.916c3.551-2.993,9.277.037,10.448,2.063a7.347,7.347,0,0,1,.985,5.819c-.539,1.9.483,3.755-1.1,6.8-1.58,3.068-2.435,3.458-3.829,4.016l.055,1.6a1.3,1.3,0,0,0,.8.911c.669.242,4.945,2.157,4.945,2.157-1.562.018-3.161,1.134-8.961,1.134s-8.291-1.376-8.291-1.376" fill="#9e7054"/>
        <path id="Path_1545" data-name="Path 1545" d="M175.831,285.216a7.311,7.311,0,0,1-4.889-3.383c1.655,1.859,4.852,1.766,4.852,1.766Z" fill="#795644"/>
        <path id="Path_1546" data-name="Path 1546" d="M166.443,271.832s1.562.39,1.9,2.769h.223l-.037-2.472Z" fill="#282928"/>
        <path id="Path_1547" data-name="Path 1547" d="M176.631,286.127a48.615,48.615,0,0,1,4.945,2.157,29.038,29.038,0,0,1-8.961,1.134c-5.763,0-8.273-1.394-8.273-1.394a13.151,13.151,0,0,1,3.086-1.785s3.83,3.272,7.715,3.1c3.923-.149,1.488-3.217,1.488-3.217" fill="#5c8e77"/>
        <path id="Path_1548" data-name="Path 1548" d="M180.553,274.9a4.249,4.249,0,0,0-1.9-.521c-.985,0-2.621,0-2.621,2.622a9.35,9.35,0,0,0,.781,2.993" fill="url(#linear-gradient-27)"/>
        <path id="Path_1549" data-name="Path 1549" d="M175.013,275.364a4.671,4.671,0,0,0-2.454-.986c-1.45,0-2.249.484-2.249,1.227a1.683,1.683,0,0,0,1.3,1.581" fill="url(#linear-gradient-32)"/>
        <path id="Path_1550" data-name="Path 1550" d="M176.74,264.7c-.1.73-.713,6.729,3.959,8.277a7.357,7.357,0,0,0-.949-6.022A7.265,7.265,0,0,0,176.74,264.7Z" fill="#232322"/>
        <path id="Path_1551" data-name="Path 1551" d="M166.443,271.832a7.765,7.765,0,0,1,2.844-6.916c3.551-2.993,9.277.037,10.448,2.063a8.664,8.664,0,0,1-3.9,4.853c-3.142,1.877-9.388,0-9.388,0" fill="#282928"/>
      </g>
      <g id="Group_1686" data-name="Group 1686">
        <path id="Path_1552" data-name="Path 1552" d="M190.608,288.042a20.107,20.107,0,0,0-2.027,1.971c1.673,1.45,7.92,4.5,14.835,3.681,6.9-.837,7.436-3.086,7.436-3.086-.836-.781-3.011-2.324-3.011-2.324" fill="#75b69b"/>
        <path id="Path_1553" data-name="Path 1553" d="M190.608,288.042a13.168,13.168,0,0,1,3.086-1.784c1.766-.707,1.431-1.525,1.859-5.243,0,0-1.841-2.454-1.952-3.792,0,0-1.729-.632-1.822-3.235-.112-2.6.929-2.156.929-2.156a7.764,7.764,0,0,1,2.845-6.916c3.55-2.993,9.276.037,10.447,2.063a7.344,7.344,0,0,1,.986,5.819c-.539,1.9.483,3.755-1.1,6.8-1.58,3.068-2.435,3.458-3.83,4.016l.056,1.6a1.3,1.3,0,0,0,.8.911c.67.242,4.945,2.157,4.945,2.157-1.561.018-3.16,1.134-8.96,1.134s-8.291-1.376-8.291-1.376" fill="#9e7054"/>
        <path id="Path_1554" data-name="Path 1554" d="M202.078,285.216a7.311,7.311,0,0,1-4.889-3.383c1.654,1.859,4.852,1.766,4.852,1.766Z" fill="#795644"/>
        <path id="Path_1555" data-name="Path 1555" d="M192.69,271.832s1.561.39,1.9,2.769h.223l-.037-2.472Z" fill="#282928"/>
        <path id="Path_1556" data-name="Path 1556" d="M202.877,286.127a48.615,48.615,0,0,1,4.945,2.157,29.027,29.027,0,0,1-8.96,1.134c-5.763,0-8.273-1.394-8.273-1.394a13.151,13.151,0,0,1,3.086-1.785s3.83,3.272,7.715,3.1c3.923-.149,1.487-3.217,1.487-3.217" fill="#5c8e77"/>
        <path id="Path_1557" data-name="Path 1557" d="M206.8,274.9a4.255,4.255,0,0,0-1.9-.521c-.986,0-2.622,0-2.622,2.622a9.35,9.35,0,0,0,.781,2.993" fill="url(#linear-gradient-29)"/>
        <path id="Path_1558" data-name="Path 1558" d="M201.26,275.364a4.67,4.67,0,0,0-2.454-.986c-1.45,0-2.249.484-2.249,1.227a1.683,1.683,0,0,0,1.3,1.581" fill="url(#linear-gradient-30)"/>
        <path id="Path_1559" data-name="Path 1559" d="M202.987,264.7c-.1.73-.713,6.729,3.958,8.277a7.35,7.35,0,0,0-.949-6.022A7.261,7.261,0,0,0,202.987,264.7Z" fill="#232322"/>
        <path id="Path_1560" data-name="Path 1560" d="M192.69,271.832a7.762,7.762,0,0,1,2.844-6.916c3.551-2.993,9.277.037,10.448,2.063a8.67,8.67,0,0,1-3.9,4.853c-3.142,1.877-9.388,0-9.388,0" fill="#282928"/>
      </g>
      <g id="Group_1687" data-name="Group 1687">
        <path id="Path_1561" data-name="Path 1561" d="M216.854,288.042a20.154,20.154,0,0,0-2.026,1.971c1.673,1.45,7.919,4.5,14.835,3.681,6.9-.837,7.436-3.086,7.436-3.086-.836-.781-3.012-2.324-3.012-2.324" fill="#75b69b"/>
        <path id="Path_1562" data-name="Path 1562" d="M216.854,288.042a13.168,13.168,0,0,1,3.086-1.784c1.766-.707,1.432-1.525,1.859-5.243,0,0-1.84-2.454-1.952-3.792,0,0-1.729-.632-1.821-3.235-.112-2.6.929-2.156.929-2.156a7.765,7.765,0,0,1,2.844-6.916c3.551-2.993,9.277.037,10.448,2.063a7.343,7.343,0,0,1,.985,5.819c-.539,1.9.484,3.755-1.1,6.8-1.581,3.068-2.436,3.458-3.83,4.016l.056,1.6a1.3,1.3,0,0,0,.8.911c.669.242,4.945,2.157,4.945,2.157-1.562.018-3.16,1.134-8.96,1.134s-8.292-1.376-8.292-1.376" fill="#9e7054"/>
        <path id="Path_1563" data-name="Path 1563" d="M228.325,285.216a7.312,7.312,0,0,1-4.89-3.383c1.655,1.859,4.852,1.766,4.852,1.766Z" fill="#795644"/>
        <path id="Path_1564" data-name="Path 1564" d="M218.936,271.832s1.562.39,1.9,2.769h.223l-.037-2.472Z" fill="#282928"/>
        <path id="Path_1565" data-name="Path 1565" d="M229.124,286.127a48.614,48.614,0,0,1,4.945,2.157,29.03,29.03,0,0,1-8.961,1.134c-5.763,0-8.272-1.394-8.272-1.394a13.151,13.151,0,0,1,3.086-1.785s3.829,3.272,7.715,3.1c3.922-.149,1.487-3.217,1.487-3.217" fill="#5c8e77"/>
        <path id="Path_1566" data-name="Path 1566" d="M233.046,274.9a4.249,4.249,0,0,0-1.9-.521c-.985,0-2.621,0-2.621,2.622a9.35,9.35,0,0,0,.781,2.993" fill="url(#linear-gradient-27)"/>
        <path id="Path_1567" data-name="Path 1567" d="M227.507,275.364a4.671,4.671,0,0,0-2.454-.986c-1.45,0-2.25.484-2.25,1.227a1.683,1.683,0,0,0,1.3,1.581" fill="url(#linear-gradient-30)"/>
        <path id="Path_1568" data-name="Path 1568" d="M229.234,264.7c-.1.73-.713,6.729,3.958,8.277a7.353,7.353,0,0,0-.949-6.022A7.26,7.26,0,0,0,229.234,264.7Z" fill="#232322"/>
        <path id="Path_1569" data-name="Path 1569" d="M218.936,271.832a7.764,7.764,0,0,1,2.845-6.916c3.55-2.993,9.276.037,10.447,2.063a8.665,8.665,0,0,1-3.9,4.853c-3.142,1.877-9.389,0-9.389,0" fill="#282928"/>
      </g>
    </g>
    <g id="Group_1744" data-name="Group 1744" transform="translate(220 5756.564)">
      <g id="Group_1703" data-name="Group 1703">
        <g id="Group_1702" data-name="Group 1702">
          <g id="Group_1697" data-name="Group 1697">
            <g id="Group_1689" data-name="Group 1689">
              <path id="Path_1570" data-name="Path 1570" d="M183.844,236.491H133.877V226.214h49.967Zm-49.613-.354H183.49v-9.569H134.231Z" fill="#100f0c"/>
            </g>
            <g id="Group_1696" data-name="Group 1696">
              <g id="Group_1690" data-name="Group 1690">
                <path id="Path_1571" data-name="Path 1571" d="M137.746,232.968l.692-1.269-1.269-.577.346-.923,1.385.346.115-1.385h.923l.116,1.5,1.384-.346.346.923-1.269.577.692,1.269-.807.577-.923-1.038-1.039,1.038Z" fill="#201c1a"/>
              </g>
              <g id="Group_1691" data-name="Group 1691">
                <path id="Path_1572" data-name="Path 1572" d="M143.284,232.968l.693-1.269-1.27-.577.347-.923,1.384.346.116-1.385h.923l.115,1.5,1.384-.346.347.923-1.27.577.693,1.269-.808.577-.923-1.038-1.038,1.038Z" fill="#201c1a"/>
              </g>
              <g id="Group_1692" data-name="Group 1692">
                <path id="Path_1573" data-name="Path 1573" d="M148.823,232.968l.692-1.269-1.269-.577.346-.923,1.384.346.116-1.385h.923l.115,1.5,1.385-.346.346.923-1.269.577.692,1.269-.808.577-.923-1.038-1.038,1.038Z" fill="#201c1a"/>
              </g>
              <g id="Group_1693" data-name="Group 1693">
                <path id="Path_1574" data-name="Path 1574" d="M154.476,232.968l.692-1.269-1.269-.577.346-.923,1.385.346.115-1.385h.923l.116,1.5,1.384-.346.346.923-1.269.577.693,1.269-.808.577-.923-1.038-1.039,1.038Z" fill="#201c1a"/>
              </g>
              <g id="Group_1694" data-name="Group 1694">
                <path id="Path_1575" data-name="Path 1575" d="M160.014,232.968l.693-1.269-1.27-.577.347-.923,1.384.346.116-1.385h.923l.115,1.5,1.385-.346.346.923-1.27.577.693,1.269-.808.577-.923-1.038-1.038,1.038Z" fill="#201c1a"/>
              </g>
              <g id="Group_1695" data-name="Group 1695">
                <path id="Path_1576" data-name="Path 1576" d="M165.553,232.968l.692-1.269-1.269-.577.346-.923,1.384.346.116-1.385h.923l.115,1.5,1.385-.346.346.923-1.269.577.692,1.269-.808.577-.923-1.038-1.038,1.038Z" fill="#201c1a"/>
              </g>
            </g>
          </g>
          <g id="Group_1698" data-name="Group 1698">
            <circle id="Ellipse_260" data-name="Ellipse 260" cx="3.231" cy="3.231" r="3.231" transform="translate(174.552 233.083)" fill="#201c1a"/>
          </g>
          <g id="Group_1699" data-name="Group 1699">
            <path id="Path_1577" data-name="Path 1577" d="M177.783,238.168a2.139,2.139,0,0,1-2.085-2.085v-3.577a2.085,2.085,0,0,1,4.17,0v3.577A2.139,2.139,0,0,1,177.783,238.168Zm0-7.038a1.412,1.412,0,0,0-1.376,1.376v3.577a1.376,1.376,0,1,0,2.752,0v-3.577A1.412,1.412,0,0,0,177.783,231.13Z" fill="#201c1a"/>
          </g>
          <g id="Group_1700" data-name="Group 1700">
            <circle id="Ellipse_261" data-name="Ellipse 261" cx="0.692" cy="0.692" r="0.692" transform="translate(177.091 235.622)" fill="#fff"/>
          </g>
          <g id="Group_1701" data-name="Group 1701">
            <rect id="Rectangle_269" data-name="Rectangle 269" width="0.577" height="1.731" transform="translate(177.437 236.545)" fill="#fff"/>
          </g>
        </g>
      </g>
      <g id="Group_1743" data-name="Group 1743">
        <g id="Group_1704" data-name="Group 1704">
          <path id="Path_1578" data-name="Path 1578" d="M136.015,222.122a2.022,2.022,0,0,1-1.961-1.961V192.239a2.022,2.022,0,0,1,1.961-1.961h45.691a2.022,2.022,0,0,1,1.961,1.961v27.922a2.022,2.022,0,0,1-1.961,1.961Z" fill="#dad9d9"/>
        </g>
        <g id="Group_1718" data-name="Group 1718">
          <g id="Group_1717" data-name="Group 1717">
            <g id="Group_1716" data-name="Group 1716">
              <g id="Group_1715" data-name="Group 1715">
                <g id="Group_1714" data-name="Group 1714" clip-path="url(#clip-path)">
                  <g id="Group_1713" data-name="Group 1713" opacity="0.2">
                    <g id="Group_1705" data-name="Group 1705">
                      <path id="Path_1579" data-name="Path 1579" d="M186.667,218.219a13.057,13.057,0,1,1,13.057-13.057A13.072,13.072,0,0,1,186.667,218.219Zm0-25.384a12.326,12.326,0,1,0,12.326,12.327A12.34,12.34,0,0,0,186.667,192.835Z" fill="#868281"/>
                    </g>
                    <g id="Group_1706" data-name="Group 1706">
                      <path id="Path_1580" data-name="Path 1580" d="M186.667,218.334a.365.365,0,0,1-.365-.365v-25.5a.365.365,0,1,1,.73,0v25.5A.365.365,0,0,1,186.667,218.334Z" fill="#868281"/>
                    </g>
                    <g id="Group_1711" data-name="Group 1711">
                      <g id="Group_1707" data-name="Group 1707">
                        <path id="Path_1581" data-name="Path 1581" d="M186.436,218.219a.362.362,0,0,1-.219-.074c-4.764-3.572-7.4-8.151-7.415-12.891-.018-4.776,2.615-9.419,7.413-13.075a.365.365,0,1,1,.443.581c-4.612,3.514-7.142,7.95-7.125,12.491.017,4.506,2.546,8.878,7.122,12.31a.365.365,0,0,1-.219.658Z" fill="#868281"/>
                      </g>
                      <g id="Group_1708" data-name="Group 1708">
                        <path id="Path_1582" data-name="Path 1582" d="M186.783,218.219a.366.366,0,0,1-.22-.658c4.576-3.432,7.106-7.8,7.123-12.31.017-4.541-2.513-8.977-7.125-12.491a.365.365,0,0,1,.443-.581c4.8,3.656,7.431,8.3,7.413,13.075-.018,4.74-2.652,9.319-7.415,12.891A.362.362,0,0,1,186.783,218.219Z" fill="#868281"/>
                      </g>
                      <g id="Group_1709" data-name="Group 1709">
                        <path id="Path_1583" data-name="Path 1583" d="M186.6,213.027c-4.758,0-9.382-2.631-13.026-7.413a.366.366,0,0,1,.582-.443c3.5,4.6,7.92,7.125,12.444,7.125h.046c4.506-.017,8.878-2.547,12.31-7.123a.365.365,0,0,1,.585.438c-3.573,4.764-8.151,7.4-12.892,7.415Z" fill="#868281"/>
                      </g>
                      <g id="Group_1710" data-name="Group 1710">
                        <path id="Path_1584" data-name="Path 1584" d="M199.244,205.412a.366.366,0,0,1-.293-.147c-3.432-4.576-7.8-7.1-12.31-7.122H186.6c-4.525,0-8.943,2.528-12.444,7.124a.365.365,0,1,1-.582-.442c3.656-4.8,8.295-7.432,13.075-7.413,4.741.018,9.319,2.651,12.892,7.415a.365.365,0,0,1-.073.511A.362.362,0,0,1,199.244,205.412Z" fill="#868281"/>
                      </g>
                    </g>
                    <g id="Group_1712" data-name="Group 1712">
                      <path id="Path_1585" data-name="Path 1585" d="M199.359,205.527H173.975a.365.365,0,0,1,0-.731h25.384a.365.365,0,0,1,0,.731Z" fill="#868281"/>
                    </g>
                  </g>
                </g>
              </g>
            </g>
          </g>
        </g>
        <g id="Group_1730" data-name="Group 1730">
          <g id="Group_1719" data-name="Group 1719">
            <path id="Path_1586" data-name="Path 1586" d="M177.9,201.469v7.5a1.822,1.822,0,0,1-1.846,1.846h-6.461a1.822,1.822,0,0,1-1.846-1.846v-7.5a1.822,1.822,0,0,1,1.846-1.846h6.461A1.9,1.9,0,0,1,177.9,201.469Z" fill="#e99d00"/>
            <path id="Path_1587" data-name="Path 1587" d="M176.052,210.987h-6.461a2,2,0,0,1-2.019-2.018v-7.5a2,2,0,0,1,2.019-2.018h6.48a2.06,2.06,0,0,1,2,2.017v7.5A2,2,0,0,1,176.052,210.987ZM169.591,199.8a1.656,1.656,0,0,0-1.674,1.673v7.5a1.656,1.656,0,0,0,1.674,1.674h6.461a1.656,1.656,0,0,0,1.674-1.674v-7.5a1.726,1.726,0,0,0-1.684-1.673Z" fill="#5f5c5a"/>
          </g>
          <g id="Group_1720" data-name="Group 1720">
            <path id="Path_1588" data-name="Path 1588" d="M174.321,204.065h-3.23a1.085,1.085,0,0,1-1.1-1.1v-3.23a.173.173,0,1,1,.345,0v3.23a.735.735,0,0,0,.751.751h3.23a.735.735,0,0,0,.751-.751v-3.23a.173.173,0,1,1,.345,0v3.23A1.085,1.085,0,0,1,174.321,204.065Z" fill="#5f5c5a"/>
          </g>
          <g id="Group_1721" data-name="Group 1721">
            <path id="Path_1589" data-name="Path 1589" d="M175.36,210.979a.173.173,0,0,1-.173-.173V207.7a.735.735,0,0,0-.75-.751h-3.231a.735.735,0,0,0-.75.751v3.106a.173.173,0,1,1-.345,0V207.7a1.085,1.085,0,0,1,1.1-1.1h3.231a1.085,1.085,0,0,1,1.1,1.1v3.106A.172.172,0,0,1,175.36,210.979Z" fill="#5f5c5a"/>
          </g>
          <g id="Group_1722" data-name="Group 1722">
            <path id="Path_1590" data-name="Path 1590" d="M171.322,206.949a.172.172,0,0,1-.173-.172v-2.885a.173.173,0,0,1,.345,0v2.885A.172.172,0,0,1,171.322,206.949Z" fill="#5f5c5a"/>
          </g>
          <g id="Group_1723" data-name="Group 1723">
            <path id="Path_1591" data-name="Path 1591" d="M174.206,206.949a.172.172,0,0,1-.172-.172v-2.885a.172.172,0,0,1,.344,0v2.885A.172.172,0,0,1,174.206,206.949Z" fill="#5f5c5a"/>
          </g>
          <g id="Group_1724" data-name="Group 1724">
            <path id="Path_1592" data-name="Path 1592" d="M172.821,210.979a.172.172,0,0,1-.172-.173v-4.029a.173.173,0,1,1,.345,0v4.029A.172.172,0,0,1,172.821,210.979Z" fill="#5f5c5a"/>
          </g>
          <g id="Group_1725" data-name="Group 1725">
            <path id="Path_1593" data-name="Path 1593" d="M172.821,204.065a.172.172,0,0,1-.172-.173v-4.153a.173.173,0,1,1,.345,0v4.153A.172.172,0,0,1,172.821,204.065Z" fill="#5f5c5a"/>
          </g>
          <g id="Group_1726" data-name="Group 1726">
            <path id="Path_1594" data-name="Path 1594" d="M170.283,208.334H167.86a.173.173,0,0,1,0-.345h2.423a.173.173,0,1,1,0,.345Z" fill="#5f5c5a"/>
          </g>
          <g id="Group_1727" data-name="Group 1727">
            <path id="Path_1595" data-name="Path 1595" d="M177.9,208.334h-2.53a.173.173,0,0,1,0-.345h2.53a.173.173,0,1,1,0,.345Z" fill="#5f5c5a"/>
          </g>
          <g id="Group_1728" data-name="Group 1728">
            <path id="Path_1596" data-name="Path 1596" d="M177.9,202.68h-2.654a.172.172,0,0,1,0-.345H177.9a.172.172,0,1,1,0,.345Z" fill="#5f5c5a"/>
          </g>
          <g id="Group_1729" data-name="Group 1729">
            <path id="Path_1597" data-name="Path 1597" d="M170.159,202.68h-2.3a.172.172,0,0,1,0-.345h2.3a.172.172,0,0,1,0,.345Z" fill="#5f5c5a"/>
          </g>
        </g>
        <g id="Group_1731" data-name="Group 1731">
          <rect id="Rectangle_271" data-name="Rectangle 271" width="23.653" height="2.192" transform="translate(136.477 199.739)" fill="#608f77"/>
        </g>
        <g id="Group_1740" data-name="Group 1740">
          <g id="Group_1732" data-name="Group 1732">
            <rect id="Rectangle_272" data-name="Rectangle 272" width="0.577" height="3.231" transform="translate(136.477 207.354)" fill="#608f77"/>
          </g>
          <g id="Group_1733" data-name="Group 1733">
            <rect id="Rectangle_273" data-name="Rectangle 273" width="1.846" height="3.231" transform="translate(137.515 207.354)" fill="#608f77"/>
          </g>
          <g id="Group_1734" data-name="Group 1734">
            <rect id="Rectangle_274" data-name="Rectangle 274" width="3" height="3.231" transform="translate(139.592 207.354)" fill="#608f77"/>
          </g>
          <g id="Group_1735" data-name="Group 1735">
            <rect id="Rectangle_275" data-name="Rectangle 275" width="1.385" height="3.231" transform="translate(142.938 207.354)" fill="#608f77"/>
          </g>
          <g id="Group_1736" data-name="Group 1736">
            <rect id="Rectangle_276" data-name="Rectangle 276" width="0.692" height="3.231" transform="translate(144.784 207.354)" fill="#608f77"/>
          </g>
          <g id="Group_1737" data-name="Group 1737">
            <rect id="Rectangle_277" data-name="Rectangle 277" width="3.808" height="3.231" transform="translate(145.823 207.354)" fill="#608f77"/>
          </g>
          <g id="Group_1738" data-name="Group 1738">
            <rect id="Rectangle_278" data-name="Rectangle 278" width="2.423" height="3.231" transform="translate(149.861 207.354)" fill="#608f77"/>
          </g>
          <g id="Group_1739" data-name="Group 1739">
            <rect id="Rectangle_279" data-name="Rectangle 279" width="0.462" height="3.231" transform="translate(152.63 207.354)" fill="#608f77"/>
          </g>
        </g>
        <g id="Group_1741" data-name="Group 1741">
          <rect id="Rectangle_280" data-name="Rectangle 280" width="49.498" height="0.923" transform="translate(134.169 216.815)" fill="#9c9695"/>
        </g>
        <g id="Group_1742" data-name="Group 1742">
          <path id="Path_1598" data-name="Path 1598" d="M138.187,193.62l-.2.188a.593.593,0,0,0-.54-.3c-.265,0-.379.117-.379.262,0,.112.062.2.278.245l.366.082c.346.079.48.232.48.472,0,.333-.287.543-.715.543a.933.933,0,0,1-.8-.376l.2-.2a.669.669,0,0,0,.606.327c.251,0,.4-.09.4-.259,0-.1-.057-.191-.251-.232l-.4-.09c-.327-.071-.48-.232-.48-.472,0-.306.265-.551.7-.551A.816.816,0,0,1,138.187,193.62Z" fill="#9c9695"/>
          <path id="Path_1599" data-name="Path 1599" d="M140.992,195.088h-.267v-1.042l.019-.5h0l-.549,1.539h-.242l-.549-1.539h0l.022.5v1.042h-.27v-1.8h.434l.363,1.042.125.429h.006l.128-.429.36-1.042h.426Z" fill="#9c9695"/>
          <path id="Path_1600" data-name="Path 1600" d="M143.09,194.616h-.758l-.172.472h-.3l.68-1.8h.349l.68,1.8h-.309Zm-.087-.237-.207-.579-.082-.259h-.009l-.076.253-.213.585Z" fill="#9c9695"/>
          <path id="Path_1601" data-name="Path 1601" d="M145.568,195.088l-.458-.72h-.388v.72h-.289v-1.8h.734c.385,0,.63.207.63.535a.486.486,0,0,1-.39.5l.5.767Zm-.846-.963h.423c.235,0,.349-.1.349-.295s-.114-.295-.349-.295h-.423Z" fill="#9c9695"/>
          <path id="Path_1602" data-name="Path 1602" d="M148.108,193.538h-.616v1.55H147.2v-1.55h-.617v-.251h1.525Z" fill="#9c9695"/>
          <path id="Path_1603" data-name="Path 1603" d="M151.118,195.115a.931.931,0,0,1,0-1.855.7.7,0,0,1,.72.442l-.276.123a.408.408,0,0,0-.428-.312c-.336,0-.557.246-.557.674s.205.675.549.675a.452.452,0,0,0,.461-.344l.278.093A.738.738,0,0,1,151.118,195.115Z" fill="#9c9695"/>
          <path id="Path_1604" data-name="Path 1604" d="M153.8,194.616h-.759l-.172.472h-.3l.679-1.8h.35l.679,1.8h-.308Zm-.088-.237-.207-.579-.082-.259h-.008l-.077.253-.213.585Z" fill="#9c9695"/>
          <path id="Path_1605" data-name="Path 1605" d="M156.278,195.088l-.458-.72h-.388v.72h-.289v-1.8h.734c.385,0,.631.207.631.535a.487.487,0,0,1-.391.5l.5.767Zm-.846-.963h.423c.235,0,.35-.1.35-.295s-.115-.295-.35-.295h-.423Z" fill="#9c9695"/>
          <path id="Path_1606" data-name="Path 1606" d="M159.053,194.187a.816.816,0,0,1-.895.9h-.636v-1.8h.636A.816.816,0,0,1,159.053,194.187Zm-.3,0c0-.414-.21-.652-.59-.652h-.344v1.3h.344C158.538,194.84,158.748,194.6,158.748,194.187Z" fill="#9c9695"/>
        </g>
      </g>
    </g>
  </g>
</svg>
