<svg xmlns="http://www.w3.org/2000/svg" xmlns:xlink="http://www.w3.org/1999/xlink" width="354.058" height="224.146" viewBox="0 0 354.058 224.146"><defs><style>.a,.b,.d{fill:none;}.b{stroke:#74b59b;stroke-miterlimit:10;stroke-dasharray:0.5 4;}.b,.d{stroke-linecap:round;stroke-width:1.5px;}.c{fill:#9e7054;}.d{stroke:#4e4d4d;stroke-linejoin:round;}.e{fill:#68b699;}.f{fill:#fff;}.g{fill:#cbb9b0;}.h{fill:#a99b94;}.i{fill:#4a4744;}.j{fill:#5e412f;}.k{fill:#a77453;}.l{clip-path:url(#a);}.m{fill:#32271f;}.n{fill:#5d5652;}.o{fill:#392a22;}.p{fill:#040506;}.q{fill:#74b59b;}.r{fill:#353637;}.s{fill:#4e4d4d;}.t{fill:#9c9695;}.u{fill:#878382;}.v{clip-path:url(#c);}.w{clip-path:url(#e);}.x{fill:#62b598;}</style><clipPath id="a"><path class="a" d="M-578.836-260.761s-.6,4.31,2.515,5.268l1.2-.239-.24-5.029Z"/></clipPath><clipPath id="c"><path class="a" d="M-716.075-259.259s-.368,2.645,1.543,3.233l.734-.147-.147-3.086Z"/></clipPath><clipPath id="e"><path class="a" d="M-440.051-259.259s-.368,2.645,1.543,3.233l.734-.147-.146-3.086Z"/></clipPath></defs><g transform="translate(-502.393 -2758.515)"><g transform="translate(1256.397 3072.253)"><circle class="b" cx="9.551" cy="9.551" r="9.551" transform="translate(-584.813 -149.36)"/><path class="c" d="M-559.055-119.815v6.152a.81.81,0,0,0,1.619,0v-3.778c0-2.806,4.965-3.13,5.181.648-.324,2.483-.54,4.965-.755,7.448-.864,10.361-1.188,19.752-14.032,19.752-15.327.108-15-13.924-15-25.149,0-3.67.216-4.965,3.778-6.692a.723.723,0,0,0,.432-.756v-15.219c0-3.346,5.18-3.346,5.18,0v24.394a.812.812,0,1,0,1.619-.108v-10.146c0-2.7,5.181-3.022,5.181.755v6.153a.809.809,0,0,0,1.619,0v-4.1c.108-2.914,5.289-2.914,5.181.648Z"/></g><g transform="translate(1256.397 3072.253)"><line class="d" y2="10.678" transform="translate(-614.159 -175.11)"/><circle class="d" cx="2.899" cy="2.899" r="2.899" transform="translate(-617.058 -163.554)"/><path class="e" d="M-633.683-220.288a6.993,6.993,0,0,0-6.965,6.965,6.993,6.993,0,0,0,6.965,6.964h39.048a6.991,6.991,0,0,0,6.964-6.964,6.992,6.992,0,0,0-6.964-6.965Z"/><circle class="f" cx="1.941" cy="1.941" r="1.941" transform="translate(-635.624 -215.379)"/><circle class="f" cx="1.941" cy="1.941" r="1.941" transform="translate(-628.088 -215.379)"/><circle class="f" cx="1.941" cy="1.941" r="1.941" transform="translate(-620.553 -215.379)"/><path class="e" d="M-633.683-203.961A6.993,6.993,0,0,0-640.648-197a6.92,6.92,0,0,0,6.965,6.964h39.048A6.992,6.992,0,0,0-587.671-197a6.919,6.919,0,0,0-6.964-6.965Z"/><circle class="f" cx="1.941" cy="1.941" r="1.941" transform="translate(-635.624 -198.937)"/><circle class="f" cx="1.941" cy="1.941" r="1.941" transform="translate(-628.088 -198.937)"/><circle class="f" cx="1.941" cy="1.941" r="1.941" transform="translate(-620.553 -198.937)"/><path class="e" d="M-633.683-187.634a6.993,6.993,0,0,0-6.965,6.965,6.92,6.92,0,0,0,6.965,6.964h39.048a6.992,6.992,0,0,0,6.964-6.964,6.919,6.919,0,0,0-6.964-6.965Z"/><circle class="f" cx="1.941" cy="1.941" r="1.941" transform="translate(-635.624 -182.61)"/><circle class="f" cx="1.941" cy="1.941" r="1.941" transform="translate(-628.088 -182.61)"/><circle class="f" cx="1.941" cy="1.941" r="1.941" transform="translate(-620.553 -182.61)"/><path class="g" d="M-542.607-287.122h-62.9a3.613,3.613,0,0,0-3.672,3.672v38.316a3.613,3.613,0,0,0,3.672,3.672h62.9a3.613,3.613,0,0,0,3.672-3.672V-283.45A3.613,3.613,0,0,0-542.607-287.122Z"/><path class="f" d="M-542.607-242.442h-62.9a2.664,2.664,0,0,1-2.693-2.692V-283.45a2.664,2.664,0,0,1,2.693-2.692h62.9a2.664,2.664,0,0,1,2.693,2.692v38.316A2.664,2.664,0,0,1-542.607-242.442Zm-62.9-43.424a2.391,2.391,0,0,0-2.416,2.416v38.316a2.39,2.39,0,0,0,2.416,2.416h62.9a2.39,2.39,0,0,0,2.416-2.416V-283.45a2.391,2.391,0,0,0-2.416-2.416Z"/><path class="h" d="M-603.537-241.462v-36.295a3.613,3.613,0,0,1,3.672-3.672H-539.1v-1.023h-60.765a4.644,4.644,0,0,0-4.694,4.7v36.295Z"/><path class="g" d="M-537.076-281.3h-62.9a3.613,3.613,0,0,0-3.672,3.672v38.315a3.613,3.613,0,0,0,3.672,3.672h62.9a3.612,3.612,0,0,0,3.671-3.672v-38.315A3.612,3.612,0,0,0-537.076-281.3Z"/><path class="f" d="M-537.019-236.618h-62.9a2.664,2.664,0,0,1-2.692-2.693v-38.315a2.664,2.664,0,0,1,2.692-2.693h62.9a2.664,2.664,0,0,1,2.692,2.693v38.315A2.664,2.664,0,0,1-537.019-236.618Zm-62.9-43.425a2.391,2.391,0,0,0-2.416,2.417v38.315a2.391,2.391,0,0,0,2.416,2.417h62.9a2.391,2.391,0,0,0,2.416-2.417v-38.315a2.391,2.391,0,0,0-2.416-2.417Z"/><path class="g" d="M-531.3-275.606h-62.9a3.613,3.613,0,0,0-3.672,3.672v38.316a3.613,3.613,0,0,0,3.672,3.672h62.9a3.613,3.613,0,0,0,3.672-3.672v-38.316A3.613,3.613,0,0,0-531.3-275.606Z"/><rect class="f" width="0.639" height="22.031" transform="translate(-563.869 -262.355)"/><line class="a" x2="18.998" transform="translate(-558.6 -259.801)"/><path class="i" d="M-537.367-250.627h-19.158a.553.553,0,0,1-.552-.553.552.552,0,0,1,.552-.552h19.158a.552.552,0,0,1,.552.552A.553.553,0,0,1-537.367-250.627Z"/><path class="i" d="M-537.367-256.621h-19.158a1.1,1.1,0,0,1-1.1-1.1,1.1,1.1,0,0,1,1.1-1.1h19.158a1.1,1.1,0,0,1,1.1,1.1A1.1,1.1,0,0,1-537.367-256.621Z"/><path class="i" d="M-537.367-247.115h-19.158a.552.552,0,0,1-.552-.552.553.553,0,0,1,.552-.553h19.158a.553.553,0,0,1,.552.553A.552.552,0,0,1-537.367-247.115Z"/><path class="i" d="M-543.115-243.6h-13.41a.552.552,0,0,1-.552-.552.552.552,0,0,1,.552-.552h13.41a.552.552,0,0,1,.553.552A.552.552,0,0,1-543.115-243.6Z"/><path class="f" d="M-531.3-230.766h-62.9a2.664,2.664,0,0,1-2.693-2.693v-38.315a2.665,2.665,0,0,1,2.693-2.693h62.9a2.664,2.664,0,0,1,2.692,2.693v38.315A2.664,2.664,0,0,1-531.3-230.766Zm-62.9-43.425a2.391,2.391,0,0,0-2.416,2.417v38.315a2.391,2.391,0,0,0,2.416,2.417h62.9a2.391,2.391,0,0,0,2.415-2.417v-38.315a2.391,2.391,0,0,0-2.415-2.417Z"/><path class="j" d="M-586.978-245.674a10.978,10.978,0,0,0-1.317,1.317,14.464,14.464,0,0,0,9.579,2.394c4.43-.478,4.789-2.035,4.789-2.035-.6-.479-1.915-1.557-1.915-1.557"/><path class="k" d="M-586.978-245.674a8.038,8.038,0,0,1,2.036-1.2c1.077-.479.957-.958,1.2-3.352a8.006,8.006,0,0,1-1.317-2.4,2.137,2.137,0,0,1-1.2-2.036c-.119-1.676.6-1.436.6-1.436a4.913,4.913,0,0,1,1.8-4.431c2.275-1.915,5.987,0,6.705,1.317a4.692,4.692,0,0,1,.6,3.712c-.359,1.2.359,2.395-.718,4.431s-1.557,2.275-2.515,2.634v1.077s.12.479.479.6c.479.12,3.233,1.437,3.233,1.437-.958,0-2.035.718-5.747.718a12,12,0,0,1-5.149-1.077"/><g class="l"><path class="m" d="M-586.978-245.674a8.038,8.038,0,0,1,2.036-1.2c1.077-.479.957-.958,1.2-3.352a8.006,8.006,0,0,1-1.317-2.4,2.137,2.137,0,0,1-1.2-2.036c-.119-1.676.6-1.436.6-1.436a4.913,4.913,0,0,1,1.8-4.431c2.275-1.915,5.987,0,6.705,1.317a4.692,4.692,0,0,1,.6,3.712c-.359,1.2.359,2.395-.718,4.431s-1.557,2.275-2.515,2.634v1.077s.12.479.479.6a12.22,12.22,0,0,1,3.233,1.437,18.907,18.907,0,0,1-5.747.718,12,12,0,0,1-5.149-1.077"/></g><g class="l"><path class="n" d="M-579.435-247.47a4.587,4.587,0,0,1-3.113-2.156,4.713,4.713,0,0,0,3.113,1.2Z"/></g><path class="o" d="M-583.745-260.641a4.911,4.911,0,0,0-1.8,4.43s.958.239,1.2,1.8h.12v-1.437c1.317.24,3.472.479,4.67-.359a5.538,5.538,0,0,0,2.514-3.113C-577.758-260.641-581.47-262.557-583.745-260.641Z"/><path class="j" d="M-578.956-246.872a16.9,16.9,0,0,1,3.233,1.437,18.882,18.882,0,0,1-5.747.719,11.711,11.711,0,0,1-5.388-.958,8.041,8.041,0,0,1,2.035-1.2s2.515,2.156,5.029,2.036c2.4-.12.838-2.036.838-2.036"/><path class="h" d="M-597.874-235.639v-36.295a3.613,3.613,0,0,1,3.672-3.672h60.764v-1.023H-594.2a4.646,4.646,0,0,0-4.695,4.7v36.295Z"/><path class="p" d="M-517.759-170.434H-537.3a4.218,4.218,0,0,1-4.281-4.281v-44.563a4.218,4.218,0,0,1,4.281-4.281h19.538a4.218,4.218,0,0,1,4.28,4.281v44.563A4.358,4.358,0,0,1-517.759-170.434Z"/><rect class="q" width="21.843" height="42.369" transform="translate(-538.505 -219.059)"/><circle class="r" cx="1.317" cy="1.317" r="1.317" transform="translate(-528.955 -175.044)"/><rect class="r" width="6.257" height="0.549" transform="translate(-530.711 -221.583)"/><path class="f" d="M-529.614-193.923a1.1,1.1,0,0,1-.792-.338l-2.525-2.635a1.1,1.1,0,0,1,.033-1.552,1.1,1.1,0,0,1,1.552.033l1.8,1.875,6.565-5.781a1.1,1.1,0,0,1,1.549.1,1.1,1.1,0,0,1-.1,1.549l-7.355,6.476A1.1,1.1,0,0,1-529.614-193.923Z"/><line class="d" y2="11.417" transform="translate(-564.769 -216.874)"/><path class="d" d="M-554.238-199.85l-10.54-5.606-10.522,5.588"/><circle class="d" cx="2.899" cy="2.899" r="2.899" transform="translate(-581.098 -201.095)"/><circle class="d" cx="2.899" cy="2.899" r="2.899" transform="translate(-553.948 -201.095)"/><circle class="d" cx="2.899" cy="2.899" r="2.899" transform="translate(-567.668 -223.187)"/></g><g transform="translate(1256.397 3072.253)"><path class="s" d="M-737.751-199.394a.755.755,0,0,1-.754-.754V-206.7a.754.754,0,0,1,.754-.754.754.754,0,0,1,.755.754v6.553A.755.755,0,0,1-737.751-199.394Z"/><path class="s" d="M-737.751-195.3a2.535,2.535,0,0,1-2.532-2.534,2.534,2.534,0,0,1,2.532-2.532,2.535,2.535,0,0,1,2.534,2.532A2.537,2.537,0,0,1-737.751-195.3Zm0-3.557a1.023,1.023,0,0,0-1.023,1.023,1.025,1.025,0,0,0,1.023,1.025,1.026,1.026,0,0,0,1.025-1.025A1.025,1.025,0,0,0-737.751-198.855Z"/><path class="t" d="M-725.77-234.423h-23.961A4.29,4.29,0,0,0-754-230.15a4.29,4.29,0,0,0,4.273,4.274h23.961a4.291,4.291,0,0,0,4.274-4.274A4.29,4.29,0,0,0-725.77-234.423Zm-23.961,5.394a1.191,1.191,0,0,1-1.191-1.191,1.191,1.191,0,0,1,1.191-1.191,1.191,1.191,0,0,1,1.191,1.191A1.191,1.191,0,0,1-749.731-229.029Zm4.624,0a1.191,1.191,0,0,1-1.191-1.191,1.191,1.191,0,0,1,1.191-1.191,1.191,1.191,0,0,1,1.191,1.191A1.191,1.191,0,0,1-745.107-229.029Zm4.624,0a1.191,1.191,0,0,1-1.191-1.191,1.191,1.191,0,0,1,1.191-1.191,1.191,1.191,0,0,1,1.191,1.191A1.191,1.191,0,0,1-740.483-229.029Z"/><path class="t" d="M-725.77-224.4h-23.961A4.29,4.29,0,0,0-754-220.131a4.245,4.245,0,0,0,4.273,4.273h23.961a4.29,4.29,0,0,0,4.274-4.273A4.247,4.247,0,0,0-725.77-224.4Zm-23.961,5.465a1.191,1.191,0,0,1-1.191-1.191,1.191,1.191,0,0,1,1.191-1.191,1.191,1.191,0,0,1,1.191,1.191A1.191,1.191,0,0,1-749.731-218.94Zm4.624,0a1.191,1.191,0,0,1-1.191-1.191,1.191,1.191,0,0,1,1.191-1.191,1.191,1.191,0,0,1,1.191,1.191A1.191,1.191,0,0,1-745.107-218.94Zm4.624,0a1.191,1.191,0,0,1-1.191-1.191,1.191,1.191,0,0,1,1.191-1.191,1.191,1.191,0,0,1,1.191,1.191A1.191,1.191,0,0,1-740.483-218.94Z"/><path class="t" d="M-725.77-214.386h-23.961A4.29,4.29,0,0,0-754-210.113a4.246,4.246,0,0,0,4.273,4.274h23.961a4.291,4.291,0,0,0,4.274-4.274A4.246,4.246,0,0,0-725.77-214.386Zm-23.961,5.464a1.191,1.191,0,0,1-1.191-1.191,1.191,1.191,0,0,1,1.191-1.191,1.191,1.191,0,0,1,1.191,1.191A1.191,1.191,0,0,1-749.731-208.922Zm4.624,0a1.191,1.191,0,0,1-1.191-1.191,1.191,1.191,0,0,1,1.191-1.191,1.191,1.191,0,0,1,1.191,1.191A1.191,1.191,0,0,1-745.107-208.922Zm4.624,0a1.191,1.191,0,0,1-1.191-1.191,1.191,1.191,0,0,1,1.191-1.191,1.191,1.191,0,0,1,1.191,1.191A1.191,1.191,0,0,1-740.483-208.922Z"/><path class="t" d="M-693.844-275.434h-38.6a2.217,2.217,0,0,0-2.253,2.253v23.511a2.217,2.217,0,0,0,2.253,2.254h38.6a2.217,2.217,0,0,0,2.253-2.254v-23.511A2.217,2.217,0,0,0-693.844-275.434Z"/><path class="f" d="M-693.844-248.017h-38.6a1.634,1.634,0,0,1-1.652-1.653v-23.511a1.634,1.634,0,0,1,1.652-1.652h38.6a1.635,1.635,0,0,1,1.652,1.652v23.511A1.635,1.635,0,0,1-693.844-248.017Zm-38.6-26.647a1.467,1.467,0,0,0-1.483,1.483v23.511a1.467,1.467,0,0,0,1.483,1.483h38.6a1.466,1.466,0,0,0,1.482-1.483v-23.511a1.467,1.467,0,0,0-1.482-1.483Z"/><path class="u" d="M-731.232-247.416v-22.272a2.217,2.217,0,0,1,2.253-2.253h37.286v-.628h-37.286a2.851,2.851,0,0,0-2.881,2.881v22.272Z"/><path class="t" d="M-690.45-271.861h-38.6a2.217,2.217,0,0,0-2.253,2.253V-246.1a2.217,2.217,0,0,0,2.253,2.253h38.6A2.217,2.217,0,0,0-688.2-246.1v-23.512A2.217,2.217,0,0,0-690.45-271.861Z"/><path class="f" d="M-690.416-244.444h-38.6a1.635,1.635,0,0,1-1.653-1.652v-23.511a1.635,1.635,0,0,1,1.653-1.653h38.6a1.635,1.635,0,0,1,1.653,1.653V-246.1A1.635,1.635,0,0,1-690.416-244.444Zm-38.6-26.646a1.467,1.467,0,0,0-1.483,1.483V-246.1a1.466,1.466,0,0,0,1.483,1.482h38.6a1.467,1.467,0,0,0,1.483-1.482v-23.511a1.467,1.467,0,0,0-1.483-1.483Z"/><path class="t" d="M-686.907-268.368h-38.6a2.217,2.217,0,0,0-2.254,2.253V-242.6a2.217,2.217,0,0,0,2.254,2.253h38.6a2.217,2.217,0,0,0,2.254-2.253v-23.512A2.217,2.217,0,0,0-686.907-268.368Z"/><rect class="f" width="0.392" height="13.519" transform="translate(-706.891 -260.237)"/><line class="a" x2="11.658" transform="translate(-703.658 -258.669)"/><path class="i" d="M-690.629-253.04h-11.756a.339.339,0,0,1-.339-.339.339.339,0,0,1,.339-.339h11.756a.339.339,0,0,1,.339.339A.339.339,0,0,1-690.629-253.04Z"/><path class="i" d="M-690.629-256.718h-11.756a.678.678,0,0,1-.678-.678.679.679,0,0,1,.678-.678h11.756a.679.679,0,0,1,.678.678A.678.678,0,0,1-690.629-256.718Z"/><path class="i" d="M-690.629-250.885h-11.756a.339.339,0,0,1-.339-.339.339.339,0,0,1,.339-.339h11.756a.339.339,0,0,1,.339.339A.339.339,0,0,1-690.629-250.885Z"/><path class="i" d="M-694.156-248.73h-8.229a.339.339,0,0,1-.339-.339.339.339,0,0,1,.339-.339h8.229a.339.339,0,0,1,.339.339A.339.339,0,0,1-694.156-248.73Z"/><path class="f" d="M-686.906-240.853h-38.6a1.635,1.635,0,0,1-1.653-1.652v-23.512a1.635,1.635,0,0,1,1.653-1.652h38.6a1.635,1.635,0,0,1,1.652,1.652v23.512A1.635,1.635,0,0,1-686.906-240.853ZM-725.5-267.5a1.466,1.466,0,0,0-1.483,1.482v23.512a1.466,1.466,0,0,0,1.483,1.482h38.6a1.466,1.466,0,0,0,1.482-1.482v-23.512a1.466,1.466,0,0,0-1.482-1.482Z"/><path class="i" d="M-721.071-250a6.759,6.759,0,0,0-.809.808,8.881,8.881,0,0,0,5.878,1.47c2.719-.294,2.939-1.249,2.939-1.249-.367-.294-1.175-.956-1.175-.956"/><path class="u" d="M-721.071-250a4.933,4.933,0,0,1,1.249-.735c.661-.294.587-.588.734-2.057a4.918,4.918,0,0,1-.808-1.469,1.313,1.313,0,0,1-.735-1.25c-.073-1.028.368-.881.368-.881a3.015,3.015,0,0,1,1.1-2.719c1.4-1.175,3.673,0,4.114.808a2.882,2.882,0,0,1,.368,2.278c-.221.735.22,1.47-.441,2.719s-.955,1.4-1.543,1.616v.661s.073.294.294.368c.294.073,1.984.881,1.984.881a17.62,17.62,0,0,1-3.527.441,7.356,7.356,0,0,1-3.159-.661"/><g class="v"><path class="i" d="M-721.071-250a4.933,4.933,0,0,1,1.249-.735c.661-.294.587-.588.734-2.057a4.918,4.918,0,0,1-.808-1.469,1.313,1.313,0,0,1-.735-1.25c-.073-1.028.368-.881.368-.881a3.015,3.015,0,0,1,1.1-2.719c1.4-1.175,3.673,0,4.114.808a2.882,2.882,0,0,1,.368,2.278c-.221.735.22,1.47-.441,2.719s-.955,1.4-1.543,1.616v.661s.073.294.294.368a7.5,7.5,0,0,1,1.984.881,11.6,11.6,0,0,1-3.527.441,7.356,7.356,0,0,1-3.159-.661"/></g><g class="v"><path class="n" d="M-716.443-251.1a2.816,2.816,0,0,1-1.91-1.323,2.891,2.891,0,0,0,1.91.735Z"/></g><path class="i" d="M-719.088-259.185a3.013,3.013,0,0,0-1.1,2.718s.588.147.735,1.1h.073v-.881a4.262,4.262,0,0,0,2.866-.221,3.4,3.4,0,0,0,1.543-1.91C-715.414-259.185-717.692-260.361-719.088-259.185Z"/><path class="i" d="M-714.238-249.928a4.987,4.987,0,0,1-3.454,1.209A3.757,3.757,0,0,1-721.071-250a4.079,4.079,0,0,1,1.322-.764,5.24,5.24,0,0,0,3.086,1.278c1.469-.073.6-1.051.6-1.051"/><path class="u" d="M-727.758-243.843v-22.272a2.217,2.217,0,0,1,2.254-2.253h37.286v-.627H-725.5a2.85,2.85,0,0,0-2.881,2.88v22.272Z"/><path class="p" d="M-678.6-203.832h-11.989a2.588,2.588,0,0,1-2.627-2.626V-233.8a2.588,2.588,0,0,1,2.627-2.627H-678.6a2.588,2.588,0,0,1,2.626,2.627v27.346A2.674,2.674,0,0,1-678.6-203.832Z"/><rect class="t" width="13.403" height="25.998" transform="translate(-691.327 -233.669)"/><circle class="r" cx="0.808" cy="0.808" r="0.808" transform="translate(-685.467 -206.661)"/><rect class="r" width="3.839" height="0.337" transform="translate(-686.545 -235.218)"/><path class="f" d="M-685.871-218.245a.672.672,0,0,1-.487-.208l-1.549-1.616a.675.675,0,0,1,.02-.953.674.674,0,0,1,.953.021l1.1,1.15,4.028-3.547a.674.674,0,0,1,.951.06.674.674,0,0,1-.061.951l-4.512,3.974A.675.675,0,0,1-685.871-218.245Z"/><path class="s" d="M-707.444-224.568a.755.755,0,0,1-.755-.755v-7.005a.755.755,0,0,1,.755-.755.755.755,0,0,1,.754.755v7.005A.755.755,0,0,1-707.444-224.568Z"/><path class="s" d="M-700.983-221.128a.754.754,0,0,1-.354-.088l-6.112-3.252-6.1,3.24a.754.754,0,0,1-1.02-.312.754.754,0,0,1,.313-1.02l6.457-3.429a.754.754,0,0,1,.709,0l6.467,3.441a.754.754,0,0,1,.311,1.02A.754.754,0,0,1-700.983-221.128Z"/><path class="s" d="M-715.685-218.335a2.535,2.535,0,0,1-2.533-2.532,2.536,2.536,0,0,1,2.533-2.534,2.536,2.536,0,0,1,2.533,2.534A2.535,2.535,0,0,1-715.685-218.335Zm0-3.557a1.026,1.026,0,0,0-1.024,1.025,1.024,1.024,0,0,0,1.024,1.023,1.024,1.024,0,0,0,1.024-1.023A1.026,1.026,0,0,0-715.685-221.892Z"/><path class="s" d="M-699.025-218.335a2.535,2.535,0,0,1-2.533-2.532,2.536,2.536,0,0,1,2.533-2.534,2.537,2.537,0,0,1,2.534,2.534A2.535,2.535,0,0,1-699.025-218.335Zm0-3.557a1.026,1.026,0,0,0-1.024,1.025,1.024,1.024,0,0,0,1.024,1.023A1.025,1.025,0,0,0-698-220.867,1.026,1.026,0,0,0-699.025-221.892Z"/><path class="s" d="M-707.444-231.89a2.536,2.536,0,0,1-2.533-2.534,2.535,2.535,0,0,1,2.533-2.533,2.535,2.535,0,0,1,2.533,2.533A2.536,2.536,0,0,1-707.444-231.89Zm0-3.558a1.025,1.025,0,0,0-1.024,1.024,1.026,1.026,0,0,0,1.024,1.025,1.026,1.026,0,0,0,1.024-1.025A1.025,1.025,0,0,0-707.444-235.448Z"/></g><g transform="translate(1256.397 3072.253)"><path class="s" d="M-461.727-199.394a.755.755,0,0,1-.754-.754V-206.7a.754.754,0,0,1,.754-.754.754.754,0,0,1,.755.754v6.553A.755.755,0,0,1-461.727-199.394Z"/><path class="s" d="M-461.727-195.3a2.535,2.535,0,0,1-2.532-2.534,2.534,2.534,0,0,1,2.532-2.532,2.535,2.535,0,0,1,2.534,2.532A2.537,2.537,0,0,1-461.727-195.3Zm0-3.557a1.024,1.024,0,0,0-1.023,1.023,1.025,1.025,0,0,0,1.023,1.025,1.026,1.026,0,0,0,1.025-1.025A1.025,1.025,0,0,0-461.727-198.855Z"/><path class="t" d="M-449.746-234.423h-23.961a4.29,4.29,0,0,0-4.273,4.273,4.29,4.29,0,0,0,4.273,4.274h23.961a4.291,4.291,0,0,0,4.274-4.274A4.29,4.29,0,0,0-449.746-234.423Zm-23.961,5.394a1.191,1.191,0,0,1-1.191-1.191,1.191,1.191,0,0,1,1.191-1.191,1.191,1.191,0,0,1,1.191,1.191A1.191,1.191,0,0,1-473.707-229.029Zm4.624,0a1.191,1.191,0,0,1-1.191-1.191,1.191,1.191,0,0,1,1.191-1.191,1.191,1.191,0,0,1,1.191,1.191A1.191,1.191,0,0,1-469.083-229.029Zm4.624,0a1.191,1.191,0,0,1-1.191-1.191,1.191,1.191,0,0,1,1.191-1.191,1.191,1.191,0,0,1,1.191,1.191A1.191,1.191,0,0,1-464.459-229.029Z"/><path class="t" d="M-449.746-224.4h-23.961a4.29,4.29,0,0,0-4.273,4.274,4.245,4.245,0,0,0,4.273,4.273h23.961a4.29,4.29,0,0,0,4.274-4.273A4.247,4.247,0,0,0-449.746-224.4Zm-23.961,5.465a1.191,1.191,0,0,1-1.191-1.191,1.191,1.191,0,0,1,1.191-1.191,1.191,1.191,0,0,1,1.191,1.191A1.191,1.191,0,0,1-473.707-218.94Zm4.624,0a1.191,1.191,0,0,1-1.191-1.191,1.191,1.191,0,0,1,1.191-1.191,1.191,1.191,0,0,1,1.191,1.191A1.191,1.191,0,0,1-469.083-218.94Zm4.624,0a1.191,1.191,0,0,1-1.191-1.191,1.191,1.191,0,0,1,1.191-1.191,1.191,1.191,0,0,1,1.191,1.191A1.191,1.191,0,0,1-464.459-218.94Z"/><path class="t" d="M-449.746-214.386h-23.961a4.29,4.29,0,0,0-4.273,4.273,4.246,4.246,0,0,0,4.273,4.274h23.961a4.291,4.291,0,0,0,4.274-4.274A4.246,4.246,0,0,0-449.746-214.386Zm-23.961,5.464a1.191,1.191,0,0,1-1.191-1.191,1.192,1.192,0,0,1,1.191-1.191,1.191,1.191,0,0,1,1.191,1.191A1.191,1.191,0,0,1-473.707-208.922Zm4.624,0a1.191,1.191,0,0,1-1.191-1.191,1.192,1.192,0,0,1,1.191-1.191,1.191,1.191,0,0,1,1.191,1.191A1.191,1.191,0,0,1-469.083-208.922Zm4.624,0a1.191,1.191,0,0,1-1.191-1.191,1.192,1.192,0,0,1,1.191-1.191,1.191,1.191,0,0,1,1.191,1.191A1.191,1.191,0,0,1-464.459-208.922Z"/><path class="t" d="M-417.82-275.434h-38.6a2.217,2.217,0,0,0-2.253,2.253v23.511a2.217,2.217,0,0,0,2.253,2.254h38.6a2.217,2.217,0,0,0,2.253-2.254v-23.511A2.217,2.217,0,0,0-417.82-275.434Z"/><path class="f" d="M-417.82-248.017h-38.6a1.634,1.634,0,0,1-1.652-1.653v-23.511a1.634,1.634,0,0,1,1.652-1.652h38.6a1.635,1.635,0,0,1,1.652,1.652v23.511A1.635,1.635,0,0,1-417.82-248.017Zm-38.6-26.647a1.467,1.467,0,0,0-1.483,1.483v23.511a1.467,1.467,0,0,0,1.483,1.483h38.6a1.466,1.466,0,0,0,1.482-1.483v-23.511a1.467,1.467,0,0,0-1.482-1.483Z"/><path class="u" d="M-455.208-247.416v-22.272a2.217,2.217,0,0,1,2.253-2.253h37.286v-.628h-37.286a2.851,2.851,0,0,0-2.881,2.881v22.272Z"/><path class="t" d="M-414.426-271.861h-38.6a2.217,2.217,0,0,0-2.253,2.253V-246.1a2.217,2.217,0,0,0,2.253,2.253h38.6a2.217,2.217,0,0,0,2.253-2.253v-23.512A2.217,2.217,0,0,0-414.426-271.861Z"/><path class="f" d="M-414.391-244.444h-38.6a1.635,1.635,0,0,1-1.653-1.652v-23.511a1.635,1.635,0,0,1,1.653-1.653h38.6a1.635,1.635,0,0,1,1.652,1.653V-246.1A1.635,1.635,0,0,1-414.391-244.444Zm-38.6-26.646a1.467,1.467,0,0,0-1.483,1.483V-246.1a1.466,1.466,0,0,0,1.483,1.482h38.6a1.466,1.466,0,0,0,1.482-1.482v-23.511a1.466,1.466,0,0,0-1.482-1.483Z"/><path class="t" d="M-410.882-268.368h-38.6a2.217,2.217,0,0,0-2.253,2.253V-242.6a2.217,2.217,0,0,0,2.253,2.253h38.6a2.217,2.217,0,0,0,2.253-2.253v-23.512A2.217,2.217,0,0,0-410.882-268.368Z"/><rect class="f" width="0.392" height="13.519" transform="translate(-430.867 -260.237)"/><line class="a" x2="11.658" transform="translate(-427.634 -258.669)"/><path class="i" d="M-414.605-253.04h-11.756a.339.339,0,0,1-.339-.339.339.339,0,0,1,.339-.339h11.756a.339.339,0,0,1,.339.339A.339.339,0,0,1-414.605-253.04Z"/><path class="i" d="M-414.605-256.718h-11.756a.677.677,0,0,1-.677-.678.678.678,0,0,1,.677-.678h11.756a.679.679,0,0,1,.678.678A.678.678,0,0,1-414.605-256.718Z"/><path class="i" d="M-414.605-250.885h-11.756a.339.339,0,0,1-.339-.339.339.339,0,0,1,.339-.339h11.756a.339.339,0,0,1,.339.339A.339.339,0,0,1-414.605-250.885Z"/><path class="i" d="M-418.132-248.73h-8.229a.339.339,0,0,1-.339-.339.339.339,0,0,1,.339-.339h8.229a.339.339,0,0,1,.339.339A.339.339,0,0,1-418.132-248.73Z"/><path class="f" d="M-410.882-240.853h-38.6a1.635,1.635,0,0,1-1.653-1.652v-23.512a1.635,1.635,0,0,1,1.653-1.652h38.6a1.635,1.635,0,0,1,1.652,1.652v23.512A1.635,1.635,0,0,1-410.882-240.853Zm-38.6-26.646a1.466,1.466,0,0,0-1.483,1.482v23.512a1.466,1.466,0,0,0,1.483,1.482h38.6a1.466,1.466,0,0,0,1.482-1.482v-23.512a1.466,1.466,0,0,0-1.482-1.482Z"/><path class="i" d="M-445.047-250a6.757,6.757,0,0,0-.809.808,8.881,8.881,0,0,0,5.878,1.47c2.719-.294,2.939-1.249,2.939-1.249-.367-.294-1.175-.956-1.175-.956"/><path class="u" d="M-445.047-250a4.933,4.933,0,0,1,1.249-.735c.661-.294.587-.588.734-2.057a4.919,4.919,0,0,1-.808-1.469,1.312,1.312,0,0,1-.734-1.25c-.074-1.028.367-.881.367-.881a3.015,3.015,0,0,1,1.1-2.719c1.4-1.175,3.674,0,4.114.808a2.882,2.882,0,0,1,.368,2.278c-.221.735.22,1.47-.441,2.719s-.955,1.4-1.543,1.616v.661s.074.294.294.368c.294.073,1.984.881,1.984.881a17.621,17.621,0,0,1-3.527.441,7.356,7.356,0,0,1-3.159-.661"/><g class="w"><path class="i" d="M-445.047-250a4.933,4.933,0,0,1,1.249-.735c.661-.294.587-.588.734-2.057a4.919,4.919,0,0,1-.808-1.469,1.312,1.312,0,0,1-.734-1.25c-.074-1.028.367-.881.367-.881a3.015,3.015,0,0,1,1.1-2.719c1.4-1.175,3.674,0,4.114.808a2.882,2.882,0,0,1,.368,2.278c-.221.735.22,1.47-.441,2.719s-.955,1.4-1.543,1.616v.661s.074.294.294.368a7.5,7.5,0,0,1,1.984.881,11.6,11.6,0,0,1-3.527.441,7.356,7.356,0,0,1-3.159-.661"/></g><g class="w"><path class="n" d="M-440.419-251.1a2.816,2.816,0,0,1-1.91-1.323,2.891,2.891,0,0,0,1.91.735Z"/></g><path class="i" d="M-443.064-259.185a3.013,3.013,0,0,0-1.1,2.718s.588.147.735,1.1h.074v-.881a4.259,4.259,0,0,0,2.865-.221,3.4,3.4,0,0,0,1.543-1.91C-439.39-259.185-441.668-260.361-443.064-259.185Z"/><path class="i" d="M-438.214-249.928a4.986,4.986,0,0,1-3.454,1.209A3.757,3.757,0,0,1-445.047-250a4.079,4.079,0,0,1,1.322-.764,5.239,5.239,0,0,0,3.086,1.278c1.47-.073.6-1.051.6-1.051"/><path class="u" d="M-451.733-243.843v-22.272a2.217,2.217,0,0,1,2.253-2.253h37.286v-.627H-449.48a2.85,2.85,0,0,0-2.881,2.88v22.272Z"/><path class="p" d="M-402.573-203.832h-11.989a2.588,2.588,0,0,1-2.627-2.626V-233.8a2.588,2.588,0,0,1,2.627-2.627h11.989a2.588,2.588,0,0,1,2.627,2.627v27.346A2.675,2.675,0,0,1-402.573-203.832Z"/><rect class="t" width="13.403" height="25.998" transform="translate(-415.303 -233.669)"/><circle class="r" cx="0.808" cy="0.808" r="0.808" transform="translate(-409.443 -206.661)"/><rect class="r" width="3.839" height="0.337" transform="translate(-410.521 -235.218)"/><path class="f" d="M-409.847-218.245a.672.672,0,0,1-.487-.208l-1.549-1.616a.674.674,0,0,1,.021-.953.673.673,0,0,1,.952.021l1.1,1.15,4.028-3.547a.674.674,0,0,1,.951.06.673.673,0,0,1-.061.951l-4.512,3.974A.675.675,0,0,1-409.847-218.245Z"/><path class="s" d="M-431.42-224.568a.755.755,0,0,1-.755-.755v-7.005a.755.755,0,0,1,.755-.755.755.755,0,0,1,.754.755v7.005A.755.755,0,0,1-431.42-224.568Z"/><path class="s" d="M-424.959-221.128a.75.75,0,0,1-.353-.088l-6.113-3.252-6.1,3.24a.752.752,0,0,1-1.019-.312.753.753,0,0,1,.312-1.02l6.457-3.429a.754.754,0,0,1,.709,0l6.467,3.441a.754.754,0,0,1,.311,1.02A.754.754,0,0,1-424.959-221.128Z"/><path class="s" d="M-439.661-218.335a2.535,2.535,0,0,1-2.533-2.532,2.536,2.536,0,0,1,2.533-2.534,2.536,2.536,0,0,1,2.533,2.534A2.535,2.535,0,0,1-439.661-218.335Zm0-3.557a1.026,1.026,0,0,0-1.024,1.025,1.024,1.024,0,0,0,1.024,1.023,1.024,1.024,0,0,0,1.024-1.023A1.026,1.026,0,0,0-439.661-221.892Z"/><path class="s" d="M-423-218.335a2.534,2.534,0,0,1-2.532-2.532A2.535,2.535,0,0,1-423-223.4a2.537,2.537,0,0,1,2.534,2.534A2.535,2.535,0,0,1-423-218.335Zm0-3.557a1.025,1.025,0,0,0-1.023,1.025A1.023,1.023,0,0,0-423-219.844a1.025,1.025,0,0,0,1.025-1.023A1.026,1.026,0,0,0-423-221.892Z"/><path class="s" d="M-431.42-231.89a2.536,2.536,0,0,1-2.533-2.534,2.535,2.535,0,0,1,2.533-2.533,2.536,2.536,0,0,1,2.534,2.533A2.537,2.537,0,0,1-431.42-231.89Zm0-3.558a1.025,1.025,0,0,0-1.024,1.024,1.026,1.026,0,0,0,1.024,1.025,1.026,1.026,0,0,0,1.025-1.025A1.026,1.026,0,0,0-431.42-235.448Z"/></g><g transform="translate(1256.397 3072.253)"><circle class="x" cx="10.868" cy="10.868" r="10.868" transform="translate(-583.123 -313.738)"/><path class="f" d="M-569.791-304.753c0,1.3-.725,2.463-3.478,4.927h3.623l-.145,1.594h-5.8v-1.449c2.9-2.9,3.623-3.768,3.623-4.783a1.067,1.067,0,0,0-1.159-1.159,2.227,2.227,0,0,0-1.594.87l-1.159-1.015a3.978,3.978,0,0,1,3.043-1.594C-570.806-307.217-569.791-306.058-569.791-304.753Z"/></g><g transform="translate(1256.397 3072.253)"><circle class="x" cx="8.488" cy="8.488" r="8.488" transform="translate(-720.778 -299.228)"/><path class="f" d="M-711.271-287.118h-1.584v-5.319l-1.472.9-.679-1.018,2.377-1.359h1.471v6.791Z"/></g><g transform="translate(1256.397 3072.253)"><circle class="x" cx="8.488" cy="8.488" r="8.488" transform="translate(-442.213 -299.228)"/><path class="f" d="M-431.8-292.324a1.569,1.569,0,0,1-1.358,1.584,1.578,1.578,0,0,1,1.584,1.7c0,1.132-.9,2.15-2.6,2.15a2.922,2.922,0,0,1-2.376-1.018l.9-.793a1.955,1.955,0,0,0,1.358.679.9.9,0,0,0,1.019-1.018c0-.679-.453-1.019-1.132-1.019h-.566l.226-1.131h.453a.925.925,0,0,0,1.019-.906.808.808,0,0,0-.906-.792,2.086,2.086,0,0,0-1.358.566l-.792-.906a3.441,3.441,0,0,1,2.377-.9C-432.593-294.135-431.8-293.343-431.8-292.324Z"/></g></g></svg>