<svg xmlns="http://www.w3.org/2000/svg" xmlns:xlink="http://www.w3.org/1999/xlink" width="250.113" height="229.518" viewBox="0 0 250.113 229.518"><defs><style>.a,.x,.y{fill:none;}.b{fill:#787573;}.c{fill:#fff;}.d{fill:#7eb79c;}.e{fill:#d9d7d8;}.f{fill:#c9515b;}.g{clip-path:url(#a);}.h{fill:#d2cfce;}.i{fill:#dddcdb;}.j{fill:#d3d1d1;}.k{fill:#b1aeae;}.l{fill:#797574;}.m{clip-path:url(#e);}.n{fill:#4d4b4a;}.o{fill:#9b9897;}.p{fill:#676463;}.q{fill:#494847;}.r{fill:#31302e;}.s{fill:#91bda3;}.t{fill:#6f8b75;}.u{fill:#e89c00;}.v{fill:#b87105;}.w{fill:#efeef1;}.x{stroke:#74b59b;stroke-miterlimit:10;stroke-dasharray:0.5 4;}.x,.y{stroke-linecap:round;stroke-width:1.5px;}.y{stroke:#4e4d4d;stroke-linejoin:round;}.z{fill:#68b699;}.aa{fill:#cbb9b0;}.ab{fill:#a99b94;}.ac{fill:#4a4744;}.ad{fill:#5e412f;}.ae{fill:#a77453;}.af{clip-path:url(#f);}.ag{fill:#32271f;}.ah{fill:#5d5652;}.ai{fill:#392a22;}.aj{fill:#040506;}.ak{fill:#74b59b;}.al{fill:#353637;}.am{fill:#a97552;}.an{fill:#57b093;}.ao{fill:#161615;font-size:10px;font-family:WorkSans-Bold, Work Sans;font-weight:700;}</style><clipPath id="a"><circle class="a" cx="19.938" cy="19.938" r="19.938" transform="translate(-335.568 -258.241)"/></clipPath><clipPath id="e"><rect class="a" width="40.85" height="37.957" rx="6.232" transform="translate(-334.42 -210.533)"/></clipPath><clipPath id="f"><path class="a" d="M-140.318-241.57s-.485,3.494,2.039,4.271l.97-.2-.194-4.076Z"/></clipPath></defs><g transform="translate(-920.829 -2786.531)"><g transform="translate(1256.397 3072.253)"><path class="b" d="M-274.115-167.411a1.033,1.033,0,0,1-.156-.012,1.043,1.043,0,0,1-.877-1.187l9.72-64.465a1.043,1.043,0,0,1,1.032-.888h6.281a1.043,1.043,0,0,1,1.03.877l10.314,63.8a1.043,1.043,0,0,1-.863,1.2,1.042,1.042,0,0,1-1.2-.863L-259-231.876H-263.5l-9.586,63.577A1.044,1.044,0,0,1-274.115-167.411Z"/><path class="b" d="M-242.644-167.411h-36.5a1.044,1.044,0,0,1-1.043-1.044,1.043,1.043,0,0,1,1.043-1.043h36.5a1.043,1.043,0,0,1,1.044,1.043A1.044,1.044,0,0,1-242.644-167.411Z"/><path class="b" d="M-274.115-167.411a1.044,1.044,0,0,1-.856-.446,1.043,1.043,0,0,1,.258-1.453l12.092-8.445-9.054-6.376a1.041,1.041,0,0,1-.441-.8,1.044,1.044,0,0,1,.352-.84l9.343-8.217-7.089-6.145a1.047,1.047,0,0,1-.36-.769,1.046,1.046,0,0,1,.331-.782l6.84-6.391-4.9-4.294a1.043,1.043,0,0,1-.289-1.152,1.045,1.045,0,0,1,.977-.676h11.174a1.044,1.044,0,0,1,.971.66,1.045,1.045,0,0,1-.258,1.146l-4.568,4.267,7.32,6.418a1.045,1.045,0,0,1,.356.784,1.042,1.042,0,0,1-.355.784L-259.248-194l9.486,8.223a1.047,1.047,0,0,1,.359.843,1.042,1.042,0,0,1-.445.8l-9.138,6.382,10.2,7.183a1.045,1.045,0,0,1,.253,1.454,1.045,1.045,0,0,1-1.455.252l-10.817-7.619-12.712,8.878A1.041,1.041,0,0,1-274.115-167.411Zm4.724-17.664,8.59,6.049,8.66-6.047-8.689-7.532Zm2.124-15.873,6.427,5.572,6.3-5.541-6.583-5.772Zm3.131-11.159,2.969,2.6,2.787-2.6Z"/><path class="b" d="M-261.355-212.107a1.044,1.044,0,0,1-1.044-1.044v-34.116a1.044,1.044,0,0,1,1.044-1.044,1.043,1.043,0,0,1,1.043,1.044v34.116A1.043,1.043,0,0,1-261.355-212.107Z"/><circle class="c" cx="3.041" cy="3.041" r="3.041" transform="translate(-264.529 -243.036)"/><path class="b" d="M-261.487-235.909a4.09,4.09,0,0,1-4.085-4.085,4.089,4.089,0,0,1,4.085-4.085,4.09,4.09,0,0,1,4.085,4.085A4.09,4.09,0,0,1-261.487-235.909Zm0-6.083a2,2,0,0,0-2,2,2,2,0,0,0,2,2,2,2,0,0,0,2-2A2,2,0,0,0-261.487-241.992Z"/><path class="d" d="M-278.876-241.581a14.426,14.426,0,0,1,4.628-10.579l-1.653-1.785a16.561,16.561,0,0,0-5.289,12.364,17.561,17.561,0,0,0,5.289,12.364l1.653-1.785A14.318,14.318,0,0,1-278.876-241.581Z"/><path class="d" d="M-243.768-241.581A14.428,14.428,0,0,1-248.4-231l1.653,1.785a16.485,16.485,0,0,0,5.289-12.232,17.44,17.44,0,0,0-5.289-12.364l-1.653,1.785A14.157,14.157,0,0,1-243.768-241.581Z"/><path class="d" d="M-242.115-256.854l-1.653,1.653a18.782,18.782,0,0,1,6.017,13.62,18.187,18.187,0,0,1-6.017,13.62l1.653,1.785a21.121,21.121,0,0,0,6.678-15.273A21.192,21.192,0,0,0-242.115-256.854Z"/><path class="d" d="M-272.463-241.581a10.1,10.1,0,0,1,3.042-7.075l-1.653-1.785a12.283,12.283,0,0,0-3.9,8.926,12.283,12.283,0,0,0,3.9,8.926l1.653-1.785A10.547,10.547,0,0,1-272.463-241.581Z"/><path class="d" d="M-280.4-226.11l1.653-1.785a18.786,18.786,0,0,1-6.017-13.62,18.185,18.185,0,0,1,6.017-13.62l-1.653-1.786a21.388,21.388,0,0,0-6.678,15.34A20.952,20.952,0,0,0-280.4-226.11Z"/><path class="d" d="M-250.181-241.581a10.1,10.1,0,0,1-3.042,7.074l1.653,1.786a12.283,12.283,0,0,0,3.9-8.926,12.281,12.281,0,0,0-3.9-8.926l-1.653,1.785A10.1,10.1,0,0,1-250.181-241.581Z"/><circle class="e" cx="19.938" cy="19.938" r="19.938" transform="translate(-335.568 -258.241)"/><path class="f" d="M-305.252-240.064a.43.43,0,0,0-.44-.441h-7.3a.43.43,0,0,1-.441-.44v-7.3a.43.43,0,0,0-.44-.44h-3.4a.43.43,0,0,0-.44.44v7.3a.43.43,0,0,1-.441.44h-7.3a.43.43,0,0,0-.44.441v3.4a.43.43,0,0,0,.44.44h7.3a.431.431,0,0,1,.441.441v7.3a.43.43,0,0,0,.44.44h3.4a.43.43,0,0,0,.44-.44v-7.233a.431.431,0,0,1,.441-.441h7.3a.43.43,0,0,0,.44-.44Z"/><g class="g"><ellipse class="h" cx="19.938" cy="6.856" rx="19.938" ry="6.856" transform="translate(-335.568 -224.843)"/></g><g class="g"><ellipse class="i" cx="19.938" cy="6.856" rx="19.938" ry="6.856" transform="translate(-335.568 -264.657)"/></g><g class="g"><ellipse class="j" cx="6.856" cy="19.938" rx="6.856" ry="19.938" transform="translate(-302.547 -257.801)"/></g><g class="g"><ellipse class="j" cx="6.856" cy="19.938" rx="6.856" ry="19.938" transform="translate(-342.361 -257.801)"/></g><path class="k" d="M-315.63-221.321c-6,0-11.273-1.394-13.43-3.552-1.726-1.725-3.561-6.2-3.536-13.589.016-4.746.954-10.726,3.537-13.273,2.156-2.156,7.428-3.55,13.429-3.55s11.274,1.394,13.431,3.551,3.551,7.429,3.551,13.431-1.394,11.273-3.551,13.43S-309.628-221.321-315.63-221.321Zm0-33.335c-5.753,0-10.972,1.353-12.986,3.367-2.047,2.02-3.331,6.935-3.351,12.829-.02,5.928,1.3,11.086,3.351,13.143,2.014,2.014,7.233,3.367,12.986,3.367s10.972-1.353,12.986-3.367,3.367-7.233,3.367-12.986-1.353-10.972-3.367-12.986S-309.877-254.656-315.63-254.656Z"/><rect class="l" width="40.85" height="37.957" rx="6.232" transform="translate(-334.42 -210.533)"/><g class="m"><rect class="n" width="44.812" height="2.213" transform="translate(-336.601 -173.521)"/><rect class="o" width="44.812" height="2.213" transform="translate(-336.601 -211.839)"/><rect class="p" width="4.02" height="40.255" transform="translate(-336.601 -211.839)"/><rect class="p" width="4.02" height="40.255" transform="translate(-295.519 -211.839)"/></g><rect class="q" width="30.556" height="3.202" rx="1.601" transform="translate(-329.482 -179.758)"/><rect class="r" width="28.536" height="0.43" transform="translate(-328.472 -178.373)"/><path class="s" d="M2.738,0H24.765A2.738,2.738,0,0,1,27.5,2.738V9.556a0,0,0,0,1,0,0H0a0,0,0,0,1,0,0V2.738A2.738,2.738,0,0,1,2.738,0Z" transform="translate(-300.453 -168.816) rotate(180)"/><path class="t" d="M-301.469-169.332h-3.136a.158.158,0,0,1-.146-.1.157.157,0,0,1,.034-.171l3.42-3.42a.157.157,0,0,1,.172-.034.157.157,0,0,1,.1.145v3.136A.442.442,0,0,1-301.469-169.332Zm-2.757-.314h2.757a.127.127,0,0,0,.126-.127v-2.756Z"/><path class="t" d="M-323.923-169.332h-3.136a.442.442,0,0,1-.441-.441v-3.136a.156.156,0,0,1,.1-.145.156.156,0,0,1,.171.034l3.42,3.42a.155.155,0,0,1,.034.171A.156.156,0,0,1-323.923-169.332Zm-3.263-3.2v2.756a.127.127,0,0,0,.127.127h2.756Z"/><path class="t" d="M-306.589-171.156H-321.94a.157.157,0,0,1-.142-.09.155.155,0,0,1,.021-.166l.514-.629a.158.158,0,0,1,.222-.022.158.158,0,0,1,.022.222l-.3.371h14.687l-.3-.371a.158.158,0,0,1,.022-.222.157.157,0,0,1,.221.022l.515.629a.155.155,0,0,1,.021.166A.158.158,0,0,1-306.589-171.156Z"/><path class="t" d="M-307.1-171.784a.155.155,0,0,1-.1-.035.158.158,0,0,1-.022-.222l.3-.371h-14.687l.3.371a.158.158,0,0,1-.022.222.159.159,0,0,1-.222-.022l-.514-.629a.156.156,0,0,1-.021-.167.157.157,0,0,1,.142-.09h15.351a.158.158,0,0,1,.143.09.156.156,0,0,1-.021.167l-.515.629A.155.155,0,0,1-307.1-171.784Z"/><path class="t" d="M-322.56-171.4a.509.509,0,0,1-.508-.509.509.509,0,0,1,.508-.508.509.509,0,0,1,.508.508A.509.509,0,0,1-322.56-171.4Zm0-.7a.194.194,0,0,0-.194.193.194.194,0,0,0,.194.194.194.194,0,0,0,.194-.194A.194.194,0,0,0-322.56-172.1Z"/><path class="t" d="M-305.916-171.4a.509.509,0,0,1-.508-.509.509.509,0,0,1,.508-.508.509.509,0,0,1,.509.508A.509.509,0,0,1-305.916-171.4Zm0-.7a.194.194,0,0,0-.193.193.194.194,0,0,0,.193.194.194.194,0,0,0,.194-.194A.194.194,0,0,0-305.916-172.1Z"/><path class="t" d="M-305.692-169.332h-17.145a.157.157,0,0,1-.111-.046l-4.506-4.507A.153.153,0,0,1-327.5-174v-4.377h.314v4.312l4.415,4.415h17.014l4.414-4.415v-4.312h.315V-174a.157.157,0,0,1-.046.111l-4.507,4.507A.153.153,0,0,1-305.692-169.332Z"/><path class="s" d="M.513,0H3.367A1.263,1.263,0,0,1,4.629,1.263v0A1.263,1.263,0,0,1,3.367,2.526H.513A.513.513,0,0,1,0,2.013V.513A.513.513,0,0,1,.513,0Z" transform="translate(-303.74 -206.043)"/><path class="u" d="M.513,0H3.367A1.263,1.263,0,0,1,4.629,1.263v0A1.263,1.263,0,0,1,3.367,2.526H.513A.513.513,0,0,1,0,2.013V.513A.513.513,0,0,1,.513,0Z" transform="translate(-303.74 -201.011)"/><path class="f" d="M.513,0H3.367A1.263,1.263,0,0,1,4.629,1.263v0A1.263,1.263,0,0,1,3.367,2.526H.513A.513.513,0,0,1,0,2.013V.513A.513.513,0,0,1,.513,0Z" transform="translate(-303.74 -195.979)"/><rect class="p" width="3.4" height="0.212" transform="translate(-303.326 -202.315)"/><rect class="p" width="3.4" height="0.212" transform="translate(-303.326 -197.362)"/><rect class="q" width="12.296" height="2.273" rx="1.136" transform="translate(-311.223 -189.589)"/><rect class="r" width="11.415" height="0.211" transform="translate(-310.757 -188.664)"/><path class="u" d="M0,0H9.771a0,0,0,0,1,0,0V5.831a.69.69,0,0,1-.69.69H.69A.69.69,0,0,1,0,5.831V0A0,0,0,0,1,0,0Z" transform="translate(-309.935 -188.452)"/><rect class="v" width="0.286" height="6.528" transform="translate(-308.737 -188.459)"/><rect class="v" width="0.286" height="6.528" transform="translate(-308.249 -188.459)"/><rect class="v" width="0.286" height="6.528" transform="translate(-307.761 -188.459)"/><circle class="v" cx="1.114" cy="1.114" r="1.114" transform="translate(-309.221 -185.483)"/><rect class="w" width="23.299" height="12.589" rx="1.766" transform="translate(-329.762 -206.043)"/><rect class="q" width="15.983" height="6.99" rx="1.567" transform="translate(-329.762 -189.589)"/><rect class="l" width="0.629" height="8.301" transform="translate(-324.756 -190.233)"/><rect class="l" width="0.629" height="8.301" transform="translate(-319.462 -189.866)"/><rect class="l" width="17.97" height="0.629" transform="translate(-330.322 -187.607)"/><rect class="l" width="17.97" height="0.629" transform="translate(-330.95 -185.188)"/><rect class="r" width="1.901" height="6.626" transform="translate(-303.326 -188.558)"/></g><line class="x" x2="39.822" transform="translate(1026.874 2855.058)"/><g transform="translate(1256.397 3072.253)"><line class="y" y2="8.657" transform="translate(-168.954 -172.135)"/><circle class="y" cx="2.35" cy="2.35" r="2.35" transform="translate(-171.304 -162.767)"/><path class="z" d="M-184.781-208.76a5.668,5.668,0,0,0-5.646,5.646,5.668,5.668,0,0,0,5.646,5.646h31.655a5.669,5.669,0,0,0,5.646-5.646,5.669,5.669,0,0,0-5.646-5.646Z"/><circle class="c" cx="1.574" cy="1.574" r="1.574" transform="translate(-186.355 -204.78)"/><circle class="c" cx="1.574" cy="1.574" r="1.574" transform="translate(-180.246 -204.78)"/><circle class="c" cx="1.574" cy="1.574" r="1.574" transform="translate(-174.137 -204.78)"/><path class="z" d="M-184.781-195.524a5.668,5.668,0,0,0-5.646,5.646,5.61,5.61,0,0,0,5.646,5.646h31.655a5.669,5.669,0,0,0,5.646-5.646,5.61,5.61,0,0,0-5.646-5.646Z"/><circle class="c" cx="1.574" cy="1.574" r="1.574" transform="translate(-186.355 -191.451)"/><circle class="c" cx="1.574" cy="1.574" r="1.574" transform="translate(-180.246 -191.451)"/><circle class="c" cx="1.574" cy="1.574" r="1.574" transform="translate(-174.137 -191.451)"/><path class="z" d="M-184.781-182.288a5.668,5.668,0,0,0-5.646,5.646A5.61,5.61,0,0,0-184.781-171h31.655a5.669,5.669,0,0,0,5.646-5.646,5.61,5.61,0,0,0-5.646-5.646Z"/><circle class="c" cx="1.574" cy="1.574" r="1.574" transform="translate(-186.355 -178.215)"/><circle class="c" cx="1.574" cy="1.574" r="1.574" transform="translate(-180.246 -178.215)"/><circle class="c" cx="1.574" cy="1.574" r="1.574" transform="translate(-174.137 -178.215)"/><path class="aa" d="M-110.948-262.94h-50.993a2.929,2.929,0,0,0-2.977,2.976V-228.9a2.929,2.929,0,0,0,2.977,2.977h50.993a2.929,2.929,0,0,0,2.977-2.977v-31.062A2.928,2.928,0,0,0-110.948-262.94Z"/><path class="c" d="M-110.948-226.719h-50.993a2.16,2.16,0,0,1-2.183-2.183v-31.061a2.159,2.159,0,0,1,2.183-2.183h50.993a2.159,2.159,0,0,1,2.183,2.183V-228.9A2.16,2.16,0,0,1-110.948-226.719Zm-50.993-35.2a1.937,1.937,0,0,0-1.958,1.959V-228.9a1.937,1.937,0,0,0,1.958,1.959h50.993a1.938,1.938,0,0,0,1.959-1.959v-31.061a1.938,1.938,0,0,0-1.959-1.959Z"/><path class="ab" d="M-160.342-225.925v-29.424a2.929,2.929,0,0,1,2.977-2.977h49.26v-.829h-49.26a3.765,3.765,0,0,0-3.806,3.806v29.424Z"/><path class="aa" d="M-106.464-258.22h-50.993a2.929,2.929,0,0,0-2.976,2.977v31.062a2.929,2.929,0,0,0,2.976,2.977h50.993a2.929,2.929,0,0,0,2.977-2.977v-31.062A2.929,2.929,0,0,0-106.464-258.22Z"/><path class="c" d="M-106.418-222h-50.993a2.16,2.16,0,0,1-2.183-2.183v-31.062a2.159,2.159,0,0,1,2.183-2.182h50.993a2.159,2.159,0,0,1,2.183,2.182v31.062A2.16,2.16,0,0,1-106.418-222Zm-50.993-35.2a1.939,1.939,0,0,0-1.959,1.959v31.062a1.939,1.939,0,0,0,1.959,1.959h50.993a1.939,1.939,0,0,0,1.959-1.959v-31.062a1.939,1.939,0,0,0-1.959-1.959Z"/><path class="aa" d="M-101.782-253.6h-50.993a2.929,2.929,0,0,0-2.977,2.977v31.062a2.929,2.929,0,0,0,2.977,2.976h50.993a2.929,2.929,0,0,0,2.977-2.976v-31.062A2.929,2.929,0,0,0-101.782-253.6Z"/><rect class="c" width="0.518" height="17.86" transform="translate(-128.184 -242.863)"/><line class="a" x2="15.401" transform="translate(-123.913 -240.792)"/><path class="ac" d="M-106.7-233.355h-15.531a.449.449,0,0,1-.448-.448.449.449,0,0,1,.448-.448H-106.7a.449.449,0,0,1,.448.448A.449.449,0,0,1-106.7-233.355Z"/><path class="ac" d="M-106.7-238.214h-15.531a.9.9,0,0,1-.895-.895.9.9,0,0,1,.895-.9H-106.7a.9.9,0,0,1,.895.9A.9.9,0,0,1-106.7-238.214Z"/><path class="ac" d="M-106.7-230.508h-15.531a.448.448,0,0,1-.448-.448.448.448,0,0,1,.448-.447H-106.7a.448.448,0,0,1,.448.447A.448.448,0,0,1-106.7-230.508Z"/><path class="ac" d="M-111.359-227.661h-10.872a.448.448,0,0,1-.448-.447.448.448,0,0,1,.448-.448h10.872a.447.447,0,0,1,.447.448A.447.447,0,0,1-111.359-227.661Z"/><path class="c" d="M-101.782-217.254h-50.993a2.16,2.16,0,0,1-2.183-2.183V-250.5a2.159,2.159,0,0,1,2.183-2.182h50.993A2.159,2.159,0,0,1-99.6-250.5v31.062A2.16,2.16,0,0,1-101.782-217.254Zm-50.993-35.2a1.939,1.939,0,0,0-1.959,1.959v31.062a1.939,1.939,0,0,0,1.959,1.959h50.993a1.938,1.938,0,0,0,1.958-1.959V-250.5a1.938,1.938,0,0,0-1.958-1.959Z"/><path class="ad" d="M-146.918-229.34a8.837,8.837,0,0,0-1.068,1.068,11.728,11.728,0,0,0,7.765,1.941c3.592-.388,3.883-1.65,3.883-1.65-.485-.388-1.553-1.262-1.553-1.262"/><path class="ae" d="M-146.918-229.34a6.537,6.537,0,0,1,1.65-.971c.873-.388.776-.776.97-2.717a6.481,6.481,0,0,1-1.067-1.942,1.731,1.731,0,0,1-.971-1.65c-.1-1.359.485-1.165.485-1.165a3.982,3.982,0,0,1,1.456-3.591c1.845-1.553,4.854,0,5.436,1.067a3.8,3.8,0,0,1,.485,3.01c-.291.97.292,1.941-.582,3.591s-1.262,1.844-2.038,2.136v.873s.1.388.388.485c.388.1,2.621,1.165,2.621,1.165a23.268,23.268,0,0,1-4.66.583,9.719,9.719,0,0,1-4.173-.874"/><g class="af"><path class="ag" d="M-146.918-229.34a6.537,6.537,0,0,1,1.65-.971c.873-.388.776-.776.97-2.717a6.481,6.481,0,0,1-1.067-1.942,1.731,1.731,0,0,1-.971-1.65c-.1-1.359.485-1.165.485-1.165a3.982,3.982,0,0,1,1.456-3.591c1.845-1.553,4.854,0,5.436,1.067a3.8,3.8,0,0,1,.485,3.01c-.291.97.292,1.941-.582,3.591s-1.262,1.844-2.038,2.136v.873s.1.388.388.485a9.968,9.968,0,0,1,2.621,1.165,15.31,15.31,0,0,1-4.66.583,9.719,9.719,0,0,1-4.173-.874"/></g><g class="af"><path class="ah" d="M-140.8-230.8a3.715,3.715,0,0,1-2.524-1.747,3.822,3.822,0,0,0,2.524.971Z"/></g><path class="ai" d="M-144.3-241.473a3.982,3.982,0,0,0-1.456,3.591s.777.194.971,1.456h.1v-1.165c1.068.194,2.815.389,3.786-.291a4.49,4.49,0,0,0,2.038-2.524C-139.444-241.473-142.453-243.026-144.3-241.473Z"/><path class="ad" d="M-140.415-230.311a13.739,13.739,0,0,1,2.621,1.165,15.307,15.307,0,0,1-4.659.583,9.492,9.492,0,0,1-4.368-.777,6.537,6.537,0,0,1,1.65-.971,6.983,6.983,0,0,0,4.077,1.651c1.941-.1.679-1.651.679-1.651"/><path class="ab" d="M-155.752-221.2v-29.424a2.929,2.929,0,0,1,2.977-2.977h49.26v-.829h-49.26a3.766,3.766,0,0,0-3.806,3.806V-221.2Z"/><path class="aj" d="M-90.8-168.344h-15.839a3.42,3.42,0,0,1-3.471-3.47v-36.127a3.42,3.42,0,0,1,3.471-3.471H-90.8a3.42,3.42,0,0,1,3.47,3.471v36.127A3.534,3.534,0,0,1-90.8-168.344Z"/><rect class="ak" width="17.708" height="34.347" transform="translate(-107.622 -207.763)"/><circle class="al" cx="1.068" cy="1.068" r="1.068" transform="translate(-99.881 -172.081)"/><rect class="al" width="5.072" height="0.445" transform="translate(-101.304 -209.81)"/><path class="c" d="M-100.414-187.386a.891.891,0,0,1-.643-.274L-103.1-189.8a.89.89,0,0,1,.027-1.258.89.89,0,0,1,1.258.027l1.456,1.519,5.322-4.686a.89.89,0,0,1,1.256.08.89.89,0,0,1-.08,1.256l-5.962,5.25A.887.887,0,0,1-100.414-187.386Z"/><line class="y" y2="9.256" transform="translate(-128.915 -205.992)"/><path class="y" d="M-120.377-192.191l-8.545-4.545-8.53,4.53"/><circle class="y" cx="2.35" cy="2.35" r="2.35" transform="translate(-142.152 -193.201)"/><circle class="y" cx="2.35" cy="2.35" r="2.35" transform="translate(-120.142 -193.201)"/><circle class="y" cx="2.35" cy="2.35" r="2.35" transform="translate(-131.264 -211.11)"/></g><g transform="translate(1256.397 3072.253)"><path class="am" d="M-206.59-127.189V-125a11.148,11.148,0,0,1-.1,1.528,14.172,14.172,0,0,1-.528,2.4,13.864,13.864,0,0,1-2.4,4.538c-.176.216-.36.432-.552.632l-.632.688a4.37,4.37,0,0,1-3.2,1.433h-1a4.379,4.379,0,0,1-3.2-1.433l-.632-.688a7.982,7.982,0,0,1-.544-.632,13.817,13.817,0,0,1-1.793-2.9,13.612,13.612,0,0,1-1.152-4.074,10.2,10.2,0,0,1-.1-1.472v-2.161a8.086,8.086,0,0,1,.3-2.193,7.939,7.939,0,0,1,9.811-5.458,7.939,7.939,0,0,1,5.458,5.458A7.549,7.549,0,0,1-206.59-127.189Z"/><path class="an" d="M-202.044-108.27a6.618,6.618,0,0,0-1.2-.417l-4.553-1.64a.349.349,0,0,0,0-.144l-.8-2.017a.7.7,0,0,0-.916-.391.742.742,0,0,0-.109.055l-2.9,1.745-2,1.176-1.96-1.176-2.9-1.761a.7.7,0,0,0-.965.246.866.866,0,0,0-.052.106l-.8,2.017a.35.35,0,0,0,0,.144l-4.593,1.64a6.618,6.618,0,0,0-1.2.417,6.962,6.962,0,0,0-4.1,6.346v8.3a1.992,1.992,0,0,0,1.993,1.992h.008l29.145.04a1.992,1.992,0,0,0,2-1.984v-8.347A6.962,6.962,0,0,0-202.044-108.27Z"/></g><path class="b" d="M-191.747-104.668l-13.075,4.9v16.344l13.075,4.9,13.075-4.9V-99.765Zm3.268,4.554,4.9,2.2V-92.2l-3.269,1.225v-5.72l-4.9-2.027,3.268-1.389Zm-13.074,13.777,3.268,1.226v1.746l-3.268-1.226Z" transform="translate(1256.397 3072.253)"/><line class="x" x2="30.796" y2="25.246" transform="translate(988.858 2924.532)"/><line class="x" x1="30.796" y2="25.246" transform="translate(1062.099 2924.532)"/><text class="ao" transform="translate(990.825 3013.049)"><tspan x="0" y="0">INDEPENDENT VENDOR</tspan></text><text class="ao" transform="translate(926.915 2797.531)"><tspan x="0" y="0">RELYING PARTIES</tspan></text><text class="ao" transform="translate(1069.943 2797.532)"><tspan x="0" y="0">IDENTITY PROVIDER</tspan></text></g></svg>