<svg xmlns="http://www.w3.org/2000/svg" xmlns:xlink="http://www.w3.org/1999/xlink" width="227.29" height="182.72" viewBox="0 0 227.29 182.72">
  <defs>
    <style>
      .cls-1, .cls-2 {
        fill: none;
      }

      .cls-2 {
        stroke: #040506;
        stroke-linecap: round;
        stroke-miterlimit: 10;
        stroke-width: 1.5px;
        stroke-dasharray: 0.5 5;
      }

      .cls-3 {
        fill: #0f0e0d;
      }

      .cls-4 {
        fill: #201d1b;
      }

      .cls-5 {
        fill: #fff;
      }

      .cls-6 {
        fill: #dad9d9;
      }

      .cls-7 {
        clip-path: url(#clip-path);
      }

      .cls-8 {
        opacity: 0.2;
      }

      .cls-9 {
        fill: #868281;
      }

      .cls-10 {
        fill: #e99e02;
      }

      .cls-11 {
        fill: #5f5d5b;
      }

      .cls-12 {
        fill: #608f77;
      }

      .cls-13 {
        fill: #9c9696;
      }

      .cls-14 {
        fill: #333;
      }
    </style>
    <clipPath id="clip-path">
      <rect class="cls-1" x="83.25" y="39.65" width="42.37" height="27.19" rx="1.67"/>
    </clipPath>
  </defs>
  <g id="Layer_1" data-name="Layer 1">
    <g>
      <line id="Line_55" data-name="Line 55" class="cls-2" x1="204.74" y1="93.87" x2="19.23" y2="93.87"/>
      <g id="Group_1650" data-name="Group 1650">
        <g id="Group_1609" data-name="Group 1609">
          <g id="Group_1608" data-name="Group 1608">
            <g id="Group_1603" data-name="Group 1603">
              <g id="Group_1595" data-name="Group 1595">
                <path id="Path_1348" data-name="Path 1348" class="cls-3" d="M125.77,79.12H83.09V70.34h42.68Zm-42.37-.3h42.06V70.65H83.4Z"/>
              </g>
              <g id="Group_1602" data-name="Group 1602">
                <g id="Group_1596" data-name="Group 1596">
                  <path id="Path_1349" data-name="Path 1349" class="cls-4" d="M86.4,76.11,87,75l-1.08-.5.3-.79,1.18.3.1-1.18h.79l.1,1.28,1.18-.29.3.79-1.08.49.59,1.08-.69.49-.79-.88L87,76.7Z"/>
                </g>
                <g id="Group_1597" data-name="Group 1597">
                  <path id="Path_1350" data-name="Path 1350" class="cls-4" d="M91.13,76.11,91.72,75l-1.08-.5.3-.79,1.18.3.1-1.18H93l.1,1.28,1.18-.29.3.79-1.09.49.6,1.08-.69.49-.79-.88-.89.88Z"/>
                </g>
                <g id="Group_1598" data-name="Group 1598">
                  <path id="Path_1351" data-name="Path 1351" class="cls-4" d="M95.86,76.11,96.45,75l-1.09-.5.3-.79,1.19.3.1-1.18h.78l.1,1.28L99,73.85l.3.79-1.09.49.6,1.08-.69.49-.79-.88-.89.88Z"/>
                </g>
                <g id="Group_1599" data-name="Group 1599">
                  <path id="Path_1352" data-name="Path 1352" class="cls-4" d="M100.69,76.11l.59-1.08-1.09-.5.3-.79,1.18.3.1-1.18h.79l.1,1.28,1.19-.29.29.79-1.08.49.59,1.08-.69.49-.79-.88-.89.88Z"/>
                </g>
                <g id="Group_1600" data-name="Group 1600">
                  <path id="Path_1353" data-name="Path 1353" class="cls-4" d="M105.41,76.11,106,75l-1.09-.5.3-.79,1.19.3.1-1.18h.78l.1,1.28,1.19-.29.3.79-1.09.49.59,1.08-.69.49-.79-.88-.88.88Z"/>
                </g>
                <g id="Group_1601" data-name="Group 1601">
                  <path id="Path_1354" data-name="Path 1354" class="cls-4" d="M110.14,76.11l.6-1.08-1.09-.5.3-.79,1.18.3.1-1.18H112l.1,1.28,1.18-.29.3.79-1.08.49.59,1.08-.69.49-.79-.88-.88.88Z"/>
                </g>
              </g>
            </g>
            <g id="Group_1604" data-name="Group 1604">
              <circle id="Ellipse_236" data-name="Ellipse 236" class="cls-4" cx="120.59" cy="78.97" r="2.76"/>
            </g>
            <g id="Group_1605" data-name="Group 1605">
              <path id="Path_1355" data-name="Path 1355" class="cls-4" d="M120.59,80.55a1.82,1.82,0,0,1-1.78-1.78v-3a1.78,1.78,0,0,1,3.56,0v3A1.82,1.82,0,0,1,120.59,80.55Zm0-6a1.22,1.22,0,0,0-1.18,1.18v3a1.18,1.18,0,0,0,2.35,0v-3a1.2,1.2,0,0,0-1.17-1.18Z"/>
            </g>
            <g id="Group_1606" data-name="Group 1606">
              <circle id="Ellipse_237" data-name="Ellipse 237" class="cls-5" cx="120.59" cy="78.97" r="0.59"/>
            </g>
            <g id="Group_1607" data-name="Group 1607">
              <rect id="Rectangle_256" data-name="Rectangle 256" class="cls-5" x="120.29" y="79.16" width="0.49" height="1.48"/>
            </g>
          </g>
        </g>
        <g id="Group_1649" data-name="Group 1649">
          <g id="Group_1610" data-name="Group 1610">
            <path id="Path_1356" data-name="Path 1356" class="cls-6" d="M84.92,66.85a1.72,1.72,0,0,1-1.67-1.68V41.33a1.72,1.72,0,0,1,1.67-1.68h39a1.72,1.72,0,0,1,1.67,1.68V65.17a1.72,1.72,0,0,1-1.67,1.68Z"/>
          </g>
          <g id="Group_1624" data-name="Group 1624">
            <g id="Group_1623" data-name="Group 1623">
              <g id="Group_1622" data-name="Group 1622">
                <g id="Group_1621" data-name="Group 1621">
                  <g class="cls-7">
                    <g id="Group_1620" data-name="Group 1620">
                      <g id="Group_1619" data-name="Group 1619" class="cls-8">
                        <g id="Group_1611" data-name="Group 1611">
                          <path id="Path_1357" data-name="Path 1357" class="cls-9" d="M128.18,63.51a11.15,11.15,0,1,1,11.15-11.15A11.15,11.15,0,0,1,128.18,63.51Zm0-21.67A10.53,10.53,0,1,0,138.7,52.36h0a10.52,10.52,0,0,0-10.52-10.52Z"/>
                        </g>
                        <g id="Group_1612" data-name="Group 1612">
                          <path id="Path_1358" data-name="Path 1358" class="cls-9" d="M128.18,63.61a.31.31,0,0,1-.32-.31h0V41.52a.32.32,0,0,1,.63,0h0V63.3A.31.31,0,0,1,128.18,63.61Z"/>
                        </g>
                        <g id="Group_1617" data-name="Group 1617">
                          <g id="Group_1613" data-name="Group 1613">
                            <path id="Path_1359" data-name="Path 1359" class="cls-9" d="M128,63.51a.33.33,0,0,1-.19-.06c-4.07-3.05-6.32-7-6.33-11s2.23-8,6.33-11.16a.31.31,0,0,1,.44.06.32.32,0,0,1-.06.44h0c-3.94,3-6.1,6.79-6.09,10.66S124.26,60,128.17,63a.31.31,0,0,1-.19.56Z"/>
                          </g>
                          <g id="Group_1614" data-name="Group 1614">
                            <path id="Path_1360" data-name="Path 1360" class="cls-9" d="M128.27,63.51a.31.31,0,0,1-.18-.56c3.91-2.93,6.07-6.66,6.08-10.51s-2.15-7.67-6.08-10.67a.32.32,0,0,1-.07-.44.33.33,0,0,1,.44-.06c4.1,3.12,6.35,7.09,6.33,11.17s-2.26,8-6.33,11A.31.31,0,0,1,128.27,63.51Z"/>
                          </g>
                          <g id="Group_1615" data-name="Group 1615">
                            <path id="Path_1361" data-name="Path 1361" class="cls-9" d="M128.11,59.08c-4.06,0-8-2.25-11.12-6.33a.31.31,0,1,1,.5-.38c3,3.93,6.76,6.09,10.63,6.09h0c3.85,0,7.58-2.18,10.51-6.09a.31.31,0,1,1,.5.38c-3,4.07-7,6.31-11,6.33Z"/>
                          </g>
                          <g id="Group_1616" data-name="Group 1616">
                            <path id="Path_1362" data-name="Path 1362" class="cls-9" d="M138.92,52.58a.31.31,0,0,1-.25-.13c-2.93-3.91-6.67-6.07-10.52-6.08h0c-3.86,0-7.63,2.16-10.62,6.08a.32.32,0,0,1-.44.07.31.31,0,0,1-.06-.44c3.12-4.1,7.08-6.35,11.16-6.33s8,2.26,11,6.33a.3.3,0,0,1-.06.43.26.26,0,0,1-.19.07Z"/>
                          </g>
                        </g>
                        <g id="Group_1618" data-name="Group 1618">
                          <path id="Path_1363" data-name="Path 1363" class="cls-9" d="M139,52.68H117.34a.32.32,0,0,1,0-.63H139a.31.31,0,0,1,.3.33A.32.32,0,0,1,139,52.68Z"/>
                        </g>
                      </g>
                    </g>
                  </g>
                </g>
              </g>
            </g>
          </g>
          <g id="Group_1636" data-name="Group 1636">
            <g id="Group_1625" data-name="Group 1625">
              <path id="Path_1364" data-name="Path 1364" class="cls-10" d="M120.69,49.21v6.4a1.56,1.56,0,0,1-1.54,1.58h-5.56A1.55,1.55,0,0,1,112,55.65V49.21a1.55,1.55,0,0,1,1.53-1.58h5.56A1.64,1.64,0,0,1,120.69,49.21Z"/>
              <path id="Path_1365" data-name="Path 1365" class="cls-11" d="M119.11,57.34h-5.52a1.71,1.71,0,0,1-1.72-1.69V49.21a1.7,1.7,0,0,1,1.68-1.72h5.58a1.75,1.75,0,0,1,1.71,1.72v6.4a1.71,1.71,0,0,1-1.68,1.73Zm-5.52-9.56a1.42,1.42,0,0,0-1.43,1.4v6.43a1.42,1.42,0,0,0,1.4,1.43h5.55a1.42,1.42,0,0,0,1.43-1.4V49.21a1.47,1.47,0,0,0-1.44-1.43Z"/>
            </g>
            <g id="Group_1626" data-name="Group 1626">
              <path id="Path_1366" data-name="Path 1366" class="cls-11" d="M117.63,51.43h-2.76a.94.94,0,0,1-.94-.92V47.73a.15.15,0,0,1,.3,0h0v2.76a.63.63,0,0,0,.61.64h2.79a.63.63,0,0,0,.64-.61V47.73a.15.15,0,0,1,.3,0h0v2.76a.93.93,0,0,1-.91.94Z"/>
            </g>
            <g id="Group_1627" data-name="Group 1627">
              <path id="Path_1367" data-name="Path 1367" class="cls-11" d="M118.52,57.33a.15.15,0,0,1-.15-.15V54.53a.63.63,0,0,0-.61-.64H115a.63.63,0,0,0-.64.61v2.69a.14.14,0,0,1-.15.14.14.14,0,0,1-.14-.14V54.53a.91.91,0,0,1,.91-.93h2.78a.91.91,0,0,1,.93.92h0v2.66A.14.14,0,0,1,118.52,57.33Z"/>
            </g>
            <g id="Group_1628" data-name="Group 1628">
              <path id="Path_1368" data-name="Path 1368" class="cls-11" d="M115.07,53.89a.15.15,0,0,1-.15-.15h0V51.28a.15.15,0,0,1,.15-.15.14.14,0,0,1,.15.15h0v2.46a.15.15,0,0,1-.14.15Z"/>
            </g>
            <g id="Group_1629" data-name="Group 1629">
              <path id="Path_1369" data-name="Path 1369" class="cls-11" d="M117.53,53.89a.15.15,0,0,1-.14-.15h0V51.28a.15.15,0,1,1,.29,0h0v2.46A.15.15,0,0,1,117.53,53.89Z"/>
            </g>
            <g id="Group_1630" data-name="Group 1630">
              <path id="Path_1370" data-name="Path 1370" class="cls-11" d="M116.35,57.33a.15.15,0,0,1-.15-.15h0V53.74a.15.15,0,0,1,.15-.15.15.15,0,0,1,.15.15h0v3.45a.14.14,0,0,1-.15.14Z"/>
            </g>
            <g id="Group_1631" data-name="Group 1631">
              <path id="Path_1371" data-name="Path 1371" class="cls-11" d="M116.35,51.43a.15.15,0,0,1-.15-.15h0V47.73a.15.15,0,0,1,.15-.15.15.15,0,0,1,.15.15v3.55a.15.15,0,0,1-.14.15Z"/>
            </g>
            <g id="Group_1632" data-name="Group 1632">
              <path id="Path_1372" data-name="Path 1372" class="cls-11" d="M114.18,55.07h-2.06a.14.14,0,0,1-.15-.15.14.14,0,0,1,.15-.14h2.06a.14.14,0,0,1,.15.14A.14.14,0,0,1,114.18,55.07Z"/>
            </g>
            <g id="Group_1633" data-name="Group 1633">
              <path id="Path_1373" data-name="Path 1373" class="cls-11" d="M120.69,55.07h-2.16a.15.15,0,0,1-.15-.15.15.15,0,0,1,.15-.14h2.16a.15.15,0,0,1,.15.14.15.15,0,0,1-.15.15Z"/>
            </g>
            <g id="Group_1634" data-name="Group 1634">
              <path id="Path_1374" data-name="Path 1374" class="cls-11" d="M120.69,50.24h-2.27a.15.15,0,0,1-.15-.14.15.15,0,0,1,.15-.15h2.27a.15.15,0,0,1,.14.15A.14.14,0,0,1,120.69,50.24Z"/>
            </g>
            <g id="Group_1635" data-name="Group 1635">
              <path id="Path_1375" data-name="Path 1375" class="cls-11" d="M114.08,50.24h-2a.14.14,0,0,1-.15-.14.15.15,0,0,1,.15-.15h2a.15.15,0,0,1,.15.15A.15.15,0,0,1,114.08,50.24Z"/>
            </g>
          </g>
          <g id="Group_1637" data-name="Group 1637">
            <rect id="Rectangle_258" data-name="Rectangle 258" class="cls-12" x="85.31" y="47.73" width="20.2" height="1.87"/>
          </g>
          <g id="Group_1646" data-name="Group 1646">
            <g id="Group_1638" data-name="Group 1638">
              <rect id="Rectangle_259" data-name="Rectangle 259" class="cls-12" x="85.31" y="54.24" width="0.49" height="2.76"/>
            </g>
            <g id="Group_1639" data-name="Group 1639">
              <rect id="Rectangle_260" data-name="Rectangle 260" class="cls-12" x="86.2" y="54.24" width="1.58" height="2.76"/>
            </g>
            <g id="Group_1640" data-name="Group 1640">
              <rect id="Rectangle_261" data-name="Rectangle 261" class="cls-12" x="87.97" y="54.24" width="2.56" height="2.76"/>
            </g>
            <g id="Group_1641" data-name="Group 1641">
              <rect id="Rectangle_262" data-name="Rectangle 262" class="cls-12" x="90.83" y="54.24" width="1.18" height="2.76"/>
            </g>
            <g id="Group_1642" data-name="Group 1642">
              <rect id="Rectangle_263" data-name="Rectangle 263" class="cls-12" x="92.41" y="54.24" width="0.59" height="2.76"/>
            </g>
            <g id="Group_1643" data-name="Group 1643">
              <rect id="Rectangle_264" data-name="Rectangle 264" class="cls-12" x="93.3" y="54.24" width="3.25" height="2.76"/>
            </g>
            <g id="Group_1644" data-name="Group 1644">
              <rect id="Rectangle_265" data-name="Rectangle 265" class="cls-12" x="96.74" y="54.24" width="2.07" height="2.76"/>
            </g>
            <g id="Group_1645" data-name="Group 1645">
              <rect id="Rectangle_266" data-name="Rectangle 266" class="cls-12" x="99.11" y="54.24" width="0.39" height="2.76"/>
            </g>
          </g>
          <g id="Group_1647" data-name="Group 1647">
            <rect id="Rectangle_267" data-name="Rectangle 267" class="cls-13" x="83.34" y="62.31" width="42.27" height="0.79"/>
          </g>
          <g id="Group_1648" data-name="Group 1648">
            <path id="Path_1376" data-name="Path 1376" class="cls-13" d="M86.77,42.51l-.16.16a.53.53,0,0,0-.46-.26c-.23,0-.33.1-.33.23s.05.16.24.21l.31.07c.3.06.41.2.41.4s-.24.46-.61.46a.81.81,0,0,1-.68-.32l.17-.17a.58.58,0,0,0,.52.28c.21,0,.34-.08.34-.23s0-.16-.21-.2L86,43.07c-.28-.06-.41-.2-.41-.4s.23-.47.6-.47A.67.67,0,0,1,86.77,42.51Z"/>
            <path id="Path_1377" data-name="Path 1377" class="cls-13" d="M89.17,43.76h-.23v-.89l0-.42h0l-.47,1.31h-.21l-.47-1.31h0l0,.42v.89H87.6V42.22H88l.31.89.11.37h0l.11-.37.31-.89h.37Z"/>
            <path id="Path_1378" data-name="Path 1378" class="cls-13" d="M91,43.36h-.65l-.14.4h-.26l.58-1.54h.3l.58,1.54h-.26Zm-.07-.2-.18-.5-.07-.22h0l-.07.22-.18.5Z"/>
            <path id="Path_1379" data-name="Path 1379" class="cls-13" d="M93.08,43.76l-.39-.61h-.33v.61h-.25V42.22h.63a.47.47,0,0,1,.53.46.42.42,0,0,1-.33.43l.42.65Zm-.72-.82h.36c.2,0,.3-.08.3-.25s-.1-.26-.3-.26h-.36Z"/>
            <path id="Path_1380" data-name="Path 1380" class="cls-13" d="M95.25,42.44h-.53v1.32h-.25V42.44h-.53v-.22h1.3Z"/>
            <path id="Path_1381" data-name="Path 1381" class="cls-13" d="M97.82,43.79a.8.8,0,0,1,0-1.59.61.61,0,0,1,.61.38l-.23.1a.36.36,0,0,0-.37-.26c-.29,0-.47.21-.47.57s.17.58.46.58a.39.39,0,0,0,.4-.29l.24.08A.65.65,0,0,1,97.82,43.79Z"/>
            <path id="Path_1382" data-name="Path 1382" class="cls-13" d="M100.11,43.36h-.65l-.15.4h-.25l.58-1.54h.3l.58,1.54h-.27Zm-.08-.2-.17-.5-.07-.22h0l-.07.22-.18.5Z"/>
            <path id="Path_1383" data-name="Path 1383" class="cls-13" d="M102.23,43.76l-.39-.61h-.33v.61h-.25V42.22h.63a.47.47,0,0,1,.53.46.42.42,0,0,1-.33.43l.42.65Zm-.72-.82h.36c.2,0,.3-.08.3-.25s-.1-.26-.3-.26h-.36Z"/>
            <path id="Path_1384" data-name="Path 1384" class="cls-13" d="M104.59,43a.69.69,0,0,1-.62.77.33.33,0,0,1-.14,0h-.54V42.22h.54a.71.71,0,0,1,.77.63A.66.66,0,0,1,104.59,43Zm-.26,0c0-.35-.18-.56-.5-.56h-.29v1.12h.29c.32,0,.5-.2.5-.56Z"/>
          </g>
        </g>
      </g>
      <path id="Polygon_2" data-name="Polygon 2" class="cls-14" d="M209.26,93.83l-10,6v-12Z"/>
    </g>
    <rect class="cls-1" x="-0.25" width="227.54" height="182.72"/>
  </g>
</svg>
