<svg xmlns="http://www.w3.org/2000/svg" xmlns:xlink="http://www.w3.org/1999/xlink" width="229.202" height="178.629" viewBox="0 0 229.202 178.629">
  <defs>
    <linearGradient id="linear-gradient" x1="0.663" y1="-5.351" x2="0.088" y2="-5.813" gradientUnits="objectBoundingBox">
      <stop offset="0" stop-color="#9e7054"/>
      <stop offset="0.335" stop-color="#986b52"/>
      <stop offset="0.782" stop-color="#855f49"/>
      <stop offset="1" stop-color="#795644"/>
    </linearGradient>
    <linearGradient id="linear-gradient-2" x1="0.58" y1="-11.1" x2="0.392" y2="-11.968" gradientUnits="objectBoundingBox">
      <stop offset="0" stop-color="#9e7054"/>
      <stop offset="0.349" stop-color="#9a6d52"/>
      <stop offset="0.682" stop-color="#8d644c"/>
      <stop offset="1" stop-color="#795644"/>
    </linearGradient>
    <clipPath id="clip-path">
      <rect id="Rectangle_318" data-name="Rectangle 318" width="49.613" height="31.845" rx="1.961" transform="translate(748.041 152.885)" fill="none"/>
    </clipPath>
    <linearGradient id="linear-gradient-4" x1="0.58" y1="-11.102" x2="0.392" y2="-11.971" xlink:href="#linear-gradient-2"/>
    <clipPath id="clip-path-2">
      <rect id="Rectangle_330" data-name="Rectangle 330" width="49.613" height="31.845" rx="1.961" transform="translate(823.146 237.879)" fill="none"/>
    </clipPath>
    <linearGradient id="linear-gradient-5" x1="0.663" y1="-5.351" x2="0.088" y2="-5.813" xlink:href="#linear-gradient"/>
    <linearGradient id="linear-gradient-6" x1="0.58" y1="-11.102" x2="0.392" y2="-11.971" xlink:href="#linear-gradient-2"/>
    <clipPath id="clip-path-3">
      <rect id="Rectangle_342" data-name="Rectangle 342" width="49.613" height="31.845" rx="1.961" transform="translate(884.424 127.849)" fill="none"/>
    </clipPath>
  </defs>
  <g id="Group_2837" data-name="Group 2837" transform="translate(-925.013 -5884.413)">
    <g id="Group_1962" data-name="Group 1962" transform="translate(220 5756.564)">
      <path id="Path_1988" data-name="Path 1988" d="M708.775,210.738a37.346,37.346,0,0,0-3.762,3.658c3.106,2.692,14.7,8.353,27.542,6.834,12.8-1.553,13.806-5.729,13.806-5.729-1.553-1.45-5.592-4.315-5.592-4.315" fill="#75b69b"/>
      <path id="Path_1989" data-name="Path 1989" d="M708.775,210.738a24.449,24.449,0,0,1,5.729-3.314c3.279-1.311,2.658-2.83,3.452-9.733,0,0-3.417-4.555-3.624-7.04,0,0-3.21-1.174-3.383-6.006-.207-4.832,1.726-4,1.726-4a14.411,14.411,0,0,1,5.281-12.84c6.592-5.556,17.222.069,19.4,3.831,2.139,3.762,2.83,7.283,1.829,10.8s.9,6.972-2.037,12.632c-2.933,5.7-4.521,6.42-7.109,7.455l.1,2.969a2.413,2.413,0,0,0,1.484,1.691c1.243.449,9.181,4,9.181,4-2.9.035-5.867,2.106-16.636,2.106s-15.393-2.554-15.393-2.554" fill="#9e7054"/>
      <path id="Path_1990" data-name="Path 1990" d="M730.07,205.492c-6.9-1.726-9.077-6.282-9.077-6.282,3.072,3.451,9.008,3.279,9.008,3.279Z" fill="#795644"/>
      <path id="Path_1991" data-name="Path 1991" d="M712.641,180.642s2.9.724,3.52,5.142h.414l-.069-4.59Z" fill="#282928"/>
      <path id="Path_1992" data-name="Path 1992" d="M731.554,207.183a90.232,90.232,0,0,1,9.181,4s-5.867,2.106-16.636,2.106c-10.7,0-15.359-2.589-15.359-2.589a24.448,24.448,0,0,1,5.73-3.313s7.11,6.074,14.323,5.764c7.283-.276,2.761-5.971,2.761-5.971" fill="#5c8e77"/>
      <path id="Path_1993" data-name="Path 1993" d="M738.837,186.336a7.9,7.9,0,0,0-3.521-.966c-1.829,0-4.866,0-4.866,4.866a17.357,17.357,0,0,0,1.449,5.557" fill="url(#linear-gradient)"/>
      <path id="Path_1994" data-name="Path 1994" d="M728.551,187.2A8.67,8.67,0,0,0,724,185.37c-2.692,0-4.177.9-4.177,2.278a3.124,3.124,0,0,0,2.416,2.934" fill="url(#linear-gradient-2)"/>
      <path id="Path_1995" data-name="Path 1995" d="M731.758,167.4c-.187,1.354-1.324,12.492,7.349,15.366,1.131-3.628.458-7.268-1.762-11.18C736.493,170.122,734.419,168.716,731.758,167.4Z" fill="#232322"/>
      <path id="Path_1996" data-name="Path 1996" d="M712.641,180.642a14.412,14.412,0,0,1,5.28-12.84c6.592-5.556,17.223.069,19.4,3.831a16.092,16.092,0,0,1-7.248,9.009c-5.833,3.485-17.429,0-17.429,0" fill="#282928"/>
    </g>
    <g id="Group_2018" data-name="Group 2018" transform="translate(220 5756.564)">
      <g id="Group_1977" data-name="Group 1977">
        <g id="Group_1976" data-name="Group 1976">
          <g id="Group_1971" data-name="Group 1971">
            <g id="Group_1963" data-name="Group 1963">
              <path id="Path_1997" data-name="Path 1997" d="M797.832,199.1H747.864V188.821h49.968Zm-49.614-.354h49.259v-9.568H748.218Z" fill="#100f0c"/>
            </g>
            <g id="Group_1970" data-name="Group 1970">
              <g id="Group_1964" data-name="Group 1964">
                <path id="Path_1998" data-name="Path 1998" d="M751.733,195.575l.693-1.269-1.27-.577.347-.923,1.384.346.116-1.384h.923l.115,1.5,1.385-.347.346.924-1.27.576.693,1.27-.808.576-.923-1.038-1.038,1.038Z" fill="#201c1a"/>
              </g>
              <g id="Group_1965" data-name="Group 1965">
                <path id="Path_1999" data-name="Path 1999" d="M757.272,195.575l.692-1.269-1.269-.577.346-.923,1.384.346.116-1.384h.923l.115,1.5,1.385-.347.346.924-1.269.576.692,1.27-.808.576L759,195.229l-1.038,1.038Z" fill="#201c1a"/>
              </g>
              <g id="Group_1966" data-name="Group 1966">
                <path id="Path_2000" data-name="Path 2000" d="M762.81,195.575l.692-1.269-1.269-.577.346-.923,1.385.346.115-1.384H765l.115,1.5,1.385-.347.346.924-1.269.576.692,1.27-.807.576-.923-1.038-1.039,1.038Z" fill="#201c1a"/>
              </g>
              <g id="Group_1967" data-name="Group 1967">
                <path id="Path_2001" data-name="Path 2001" d="M768.463,195.575l.693-1.269-1.269-.577.346-.923,1.384.346.116-1.384h.923l.115,1.5,1.385-.347.346.924-1.269.576.692,1.27-.808.576-.923-1.038-1.038,1.038Z" fill="#201c1a"/>
              </g>
              <g id="Group_1968" data-name="Group 1968">
                <path id="Path_2002" data-name="Path 2002" d="M774,195.575l.692-1.269-1.269-.577.346-.923,1.384.346.116-1.384h.923l.115,1.5,1.385-.347.346.924-1.269.576.692,1.27-.808.576-.923-1.038-1.038,1.038Z" fill="#201c1a"/>
              </g>
              <g id="Group_1969" data-name="Group 1969">
                <path id="Path_2003" data-name="Path 2003" d="M779.54,195.575l.692-1.269-1.269-.577.346-.923,1.385.346.115-1.384h.923l.115,1.5,1.385-.347.346.924-1.269.576.692,1.27-.807.576-.923-1.038-1.039,1.038Z" fill="#201c1a"/>
              </g>
            </g>
          </g>
          <g id="Group_1972" data-name="Group 1972">
            <circle id="Ellipse_301" data-name="Ellipse 301" cx="3.231" cy="3.231" r="3.231" transform="translate(788.539 195.691)" fill="#201c1a"/>
          </g>
          <g id="Group_1973" data-name="Group 1973">
            <path id="Path_2004" data-name="Path 2004" d="M791.77,200.776a2.14,2.14,0,0,1-2.085-2.086v-3.576a2.085,2.085,0,1,1,4.17,0v3.576A2.14,2.14,0,0,1,791.77,200.776Zm0-7.039a1.413,1.413,0,0,0-1.376,1.377v3.576a1.376,1.376,0,1,0,2.752,0v-3.576A1.413,1.413,0,0,0,791.77,193.737Z" fill="#201c1a"/>
          </g>
          <g id="Group_1974" data-name="Group 1974">
            <circle id="Ellipse_302" data-name="Ellipse 302" cx="0.692" cy="0.692" r="0.692" transform="translate(791.078 198.229)" fill="#fff"/>
          </g>
          <g id="Group_1975" data-name="Group 1975">
            <rect id="Rectangle_317" data-name="Rectangle 317" width="0.577" height="1.731" transform="translate(791.424 199.152)" fill="#fff"/>
          </g>
        </g>
      </g>
      <g id="Group_2017" data-name="Group 2017">
        <g id="Group_1978" data-name="Group 1978">
          <path id="Path_2005" data-name="Path 2005" d="M750,184.73a2.022,2.022,0,0,1-1.962-1.962V154.846A2.022,2.022,0,0,1,750,152.885h45.69a2.022,2.022,0,0,1,1.961,1.961v27.922a2.022,2.022,0,0,1-1.961,1.962Z" fill="#dad9d9"/>
        </g>
        <g id="Group_1992" data-name="Group 1992">
          <g id="Group_1991" data-name="Group 1991">
            <g id="Group_1990" data-name="Group 1990">
              <g id="Group_1989" data-name="Group 1989">
                <g id="Group_1988" data-name="Group 1988" clip-path="url(#clip-path)">
                  <g id="Group_1987" data-name="Group 1987" opacity="0.2">
                    <g id="Group_1979" data-name="Group 1979">
                      <path id="Path_2006" data-name="Path 2006" d="M800.654,180.826a13.057,13.057,0,1,1,13.058-13.057A13.072,13.072,0,0,1,800.654,180.826Zm0-25.384a12.326,12.326,0,1,0,12.327,12.327A12.341,12.341,0,0,0,800.654,155.442Z" fill="#868281"/>
                    </g>
                    <g id="Group_1980" data-name="Group 1980">
                      <path id="Path_2007" data-name="Path 2007" d="M800.654,180.941a.364.364,0,0,1-.365-.365v-25.5a.366.366,0,0,1,.731,0v25.5A.365.365,0,0,1,800.654,180.941Z" fill="#868281"/>
                    </g>
                    <g id="Group_1985" data-name="Group 1985">
                      <g id="Group_1981" data-name="Group 1981">
                        <path id="Path_2008" data-name="Path 2008" d="M800.423,180.826a.367.367,0,0,1-.219-.073c-4.763-3.573-7.4-8.151-7.415-12.892-.018-4.775,2.615-9.419,7.413-13.075a.366.366,0,0,1,.443.582c-4.612,3.513-7.142,7.949-7.125,12.49.017,4.506,2.547,8.878,7.123,12.31a.366.366,0,0,1-.22.658Z" fill="#868281"/>
                      </g>
                      <g id="Group_1982" data-name="Group 1982">
                        <path id="Path_2009" data-name="Path 2009" d="M800.77,180.826a.366.366,0,0,1-.22-.658c4.577-3.432,7.106-7.8,7.123-12.31.017-4.541-2.513-8.977-7.125-12.49a.366.366,0,0,1,.443-.582c4.8,3.656,7.431,8.3,7.413,13.075-.018,4.741-2.651,9.319-7.415,12.892A.367.367,0,0,1,800.77,180.826Z" fill="#868281"/>
                      </g>
                      <g id="Group_1983" data-name="Group 1983">
                        <path id="Path_2010" data-name="Path 2010" d="M800.582,175.634c-4.758,0-9.382-2.631-13.026-7.413a.366.366,0,0,1,.582-.443c3.5,4.6,7.92,7.125,12.445,7.125h.046c4.506-.017,8.877-2.547,12.309-7.123a.366.366,0,0,1,.585.439c-3.573,4.763-8.151,7.4-12.892,7.415Z" fill="#868281"/>
                      </g>
                      <g id="Group_1984" data-name="Group 1984">
                        <path id="Path_2011" data-name="Path 2011" d="M813.231,168.019a.368.368,0,0,1-.293-.146c-3.432-4.576-7.8-7.106-12.309-7.123h-.046c-4.526,0-8.943,2.529-12.445,7.125a.366.366,0,0,1-.582-.443c3.657-4.8,8.295-7.431,13.075-7.413,4.741.018,9.319,2.651,12.892,7.415a.365.365,0,0,1-.292.585Z" fill="#868281"/>
                      </g>
                    </g>
                    <g id="Group_1986" data-name="Group 1986">
                      <path id="Path_2012" data-name="Path 2012" d="M813.346,168.134H787.963a.366.366,0,1,1,0-.731h25.383a.366.366,0,1,1,0,.731Z" fill="#868281"/>
                    </g>
                  </g>
                </g>
              </g>
            </g>
          </g>
        </g>
        <g id="Group_2004" data-name="Group 2004">
          <g id="Group_1993" data-name="Group 1993">
            <path id="Path_2013" data-name="Path 2013" d="M791.885,164.077v7.5a1.822,1.822,0,0,1-1.846,1.846h-6.461a1.822,1.822,0,0,1-1.846-1.846v-7.5a1.822,1.822,0,0,1,1.846-1.846h6.461A1.9,1.9,0,0,1,791.885,164.077Z" fill="#e99d00"/>
            <path id="Path_2014" data-name="Path 2014" d="M790.039,173.6h-6.461a2,2,0,0,1-2.018-2.019v-7.5a2,2,0,0,1,2.018-2.019h6.48a2.06,2.06,0,0,1,2,2.018v7.5A2,2,0,0,1,790.039,173.6ZM783.578,162.4a1.656,1.656,0,0,0-1.674,1.674v7.5a1.656,1.656,0,0,0,1.674,1.674h6.461a1.656,1.656,0,0,0,1.674-1.674v-7.5a1.726,1.726,0,0,0-1.683-1.674Z" fill="#5f5c5a"/>
          </g>
          <g id="Group_1994" data-name="Group 1994">
            <path id="Path_2015" data-name="Path 2015" d="M788.309,166.672h-3.231a1.085,1.085,0,0,1-1.1-1.1v-3.231a.172.172,0,0,1,.344,0v3.231a.735.735,0,0,0,.751.75h3.231a.734.734,0,0,0,.75-.75v-3.231a.172.172,0,0,1,.345,0v3.231A1.085,1.085,0,0,1,788.309,166.672Z" fill="#5f5c5a"/>
          </g>
          <g id="Group_1995" data-name="Group 1995">
            <path id="Path_2016" data-name="Path 2016" d="M789.347,173.586a.172.172,0,0,1-.172-.172v-3.107a.736.736,0,0,0-.751-.751h-3.231a.735.735,0,0,0-.75.751v3.107a.172.172,0,0,1-.345,0v-3.107a1.085,1.085,0,0,1,1.095-1.1h3.231a1.085,1.085,0,0,1,1.095,1.1v3.107A.172.172,0,0,1,789.347,173.586Z" fill="#5f5c5a"/>
          </g>
          <g id="Group_1996" data-name="Group 1996">
            <path id="Path_2017" data-name="Path 2017" d="M785.309,169.556a.173.173,0,0,1-.173-.172V166.5a.173.173,0,1,1,.345,0v2.884A.172.172,0,0,1,785.309,169.556Z" fill="#5f5c5a"/>
          </g>
          <g id="Group_1997" data-name="Group 1997">
            <path id="Path_2018" data-name="Path 2018" d="M788.193,169.556a.172.172,0,0,1-.172-.172V166.5a.173.173,0,1,1,.345,0v2.884A.172.172,0,0,1,788.193,169.556Z" fill="#5f5c5a"/>
          </g>
          <g id="Group_1998" data-name="Group 1998">
            <path id="Path_2019" data-name="Path 2019" d="M786.809,173.586a.173.173,0,0,1-.173-.172v-4.03a.173.173,0,0,1,.345,0v4.03A.172.172,0,0,1,786.809,173.586Z" fill="#5f5c5a"/>
          </g>
          <g id="Group_1999" data-name="Group 1999">
            <path id="Path_2020" data-name="Path 2020" d="M786.809,166.672a.173.173,0,0,1-.173-.172v-4.154a.173.173,0,0,1,.345,0V166.5A.172.172,0,0,1,786.809,166.672Z" fill="#5f5c5a"/>
          </g>
          <g id="Group_2000" data-name="Group 2000">
            <path id="Path_2021" data-name="Path 2021" d="M784.27,170.941h-2.423a.173.173,0,0,1,0-.345h2.423a.173.173,0,1,1,0,.345Z" fill="#5f5c5a"/>
          </g>
          <g id="Group_2001" data-name="Group 2001">
            <path id="Path_2022" data-name="Path 2022" d="M791.885,170.941h-2.529a.173.173,0,1,1,0-.345h2.529a.173.173,0,1,1,0,.345Z" fill="#5f5c5a"/>
          </g>
          <g id="Group_2002" data-name="Group 2002">
            <path id="Path_2023" data-name="Path 2023" d="M791.885,165.287h-2.653a.172.172,0,1,1,0-.344h2.653a.172.172,0,1,1,0,.344Z" fill="#5f5c5a"/>
          </g>
          <g id="Group_2003" data-name="Group 2003">
            <path id="Path_2024" data-name="Path 2024" d="M784.146,165.287h-2.3a.172.172,0,0,1,0-.344h2.3a.172.172,0,1,1,0,.344Z" fill="#5f5c5a"/>
          </g>
        </g>
        <g id="Group_2005" data-name="Group 2005">
          <rect id="Rectangle_319" data-name="Rectangle 319" width="23.653" height="2.192" transform="translate(750.464 162.346)" fill="#608f77"/>
        </g>
        <g id="Group_2014" data-name="Group 2014">
          <g id="Group_2006" data-name="Group 2006">
            <rect id="Rectangle_320" data-name="Rectangle 320" width="0.577" height="3.231" transform="translate(750.464 169.961)" fill="#608f77"/>
          </g>
          <g id="Group_2007" data-name="Group 2007">
            <rect id="Rectangle_321" data-name="Rectangle 321" width="1.846" height="3.231" transform="translate(751.503 169.961)" fill="#608f77"/>
          </g>
          <g id="Group_2008" data-name="Group 2008">
            <rect id="Rectangle_322" data-name="Rectangle 322" width="3" height="3.231" transform="translate(753.579 169.961)" fill="#608f77"/>
          </g>
          <g id="Group_2009" data-name="Group 2009">
            <rect id="Rectangle_323" data-name="Rectangle 323" width="1.385" height="3.231" transform="translate(756.925 169.961)" fill="#608f77"/>
          </g>
          <g id="Group_2010" data-name="Group 2010">
            <rect id="Rectangle_324" data-name="Rectangle 324" width="0.692" height="3.231" transform="translate(758.772 169.961)" fill="#608f77"/>
          </g>
          <g id="Group_2011" data-name="Group 2011">
            <rect id="Rectangle_325" data-name="Rectangle 325" width="3.808" height="3.231" transform="translate(759.81 169.961)" fill="#608f77"/>
          </g>
          <g id="Group_2012" data-name="Group 2012">
            <rect id="Rectangle_326" data-name="Rectangle 326" width="2.423" height="3.231" transform="translate(763.848 169.961)" fill="#608f77"/>
          </g>
          <g id="Group_2013" data-name="Group 2013">
            <rect id="Rectangle_327" data-name="Rectangle 327" width="0.462" height="3.231" transform="translate(766.617 169.961)" fill="#608f77"/>
          </g>
        </g>
        <g id="Group_2015" data-name="Group 2015">
          <rect id="Rectangle_328" data-name="Rectangle 328" width="49.498" height="0.923" transform="translate(748.157 179.422)" fill="#9c9695"/>
        </g>
        <g id="Group_2016" data-name="Group 2016">
          <path id="Path_2025" data-name="Path 2025" d="M752.174,156.227l-.2.188a.6.6,0,0,0-.541-.3c-.265,0-.379.117-.379.262,0,.112.063.2.278.246l.366.081c.346.08.48.232.48.473,0,.333-.286.543-.715.543a.927.927,0,0,1-.8-.377l.2-.2a.667.667,0,0,0,.6.328c.252,0,.4-.09.4-.26,0-.1-.057-.191-.251-.232l-.4-.09c-.328-.071-.481-.232-.481-.472,0-.3.265-.551.7-.551A.817.817,0,0,1,752.174,156.227Z" fill="#9c9695"/>
          <path id="Path_2026" data-name="Path 2026" d="M754.979,157.7h-.267v-1.042l.019-.5h0l-.548,1.539h-.243l-.549-1.539h0l.022.5V157.7h-.27v-1.8h.434l.363,1.043.126.428h.005l.128-.428.361-1.043h.425Z" fill="#9c9695"/>
          <path id="Path_2027" data-name="Path 2027" d="M757.078,157.223h-.759l-.172.472h-.3l.679-1.8h.35l.679,1.8h-.308Zm-.088-.237-.207-.579-.082-.259h-.008l-.077.254-.213.584Z" fill="#9c9695"/>
          <path id="Path_2028" data-name="Path 2028" d="M759.555,157.7l-.458-.72h-.388v.72h-.289v-1.8h.734c.385,0,.631.208.631.535a.487.487,0,0,1-.391.5l.5.767Zm-.846-.963h.423c.235,0,.35-.1.35-.295s-.115-.294-.35-.294h-.423Z" fill="#9c9695"/>
          <path id="Path_2029" data-name="Path 2029" d="M762.1,156.145h-.617v1.55h-.292v-1.55h-.617v-.251H762.1Z" fill="#9c9695"/>
          <path id="Path_2030" data-name="Path 2030" d="M765.106,157.723a.932.932,0,0,1,0-1.856.7.7,0,0,1,.72.442l-.275.123a.408.408,0,0,0-.429-.311c-.335,0-.557.245-.557.674s.205.674.549.674a.452.452,0,0,0,.461-.344l.279.093A.739.739,0,0,1,765.106,157.723Z" fill="#9c9695"/>
          <path id="Path_2031" data-name="Path 2031" d="M767.788,157.223h-.759l-.172.472h-.3l.68-1.8h.349l.679,1.8h-.308Zm-.088-.237-.207-.579-.082-.259H767.4l-.076.254-.213.584Z" fill="#9c9695"/>
          <path id="Path_2032" data-name="Path 2032" d="M770.266,157.7l-.459-.72h-.387v.72h-.29v-1.8h.734c.385,0,.631.208.631.535a.487.487,0,0,1-.39.5l.5.767Zm-.846-.963h.423c.234,0,.349-.1.349-.295s-.115-.294-.349-.294h-.423Z" fill="#9c9695"/>
          <path id="Path_2033" data-name="Path 2033" d="M773.041,156.795a.816.816,0,0,1-.9.9h-.636v-1.8h.636A.816.816,0,0,1,773.041,156.795Zm-.306,0c0-.415-.21-.652-.589-.652H771.8v1.3h.344C772.525,157.447,772.735,157.21,772.735,156.795Z" fill="#9c9695"/>
        </g>
      </g>
    </g>
    <g id="Group_2019" data-name="Group 2019" transform="translate(220 5756.564)">
      <path id="Path_2034" data-name="Path 2034" d="M783.88,295.732a37.354,37.354,0,0,0-3.762,3.658c3.106,2.692,14.7,8.353,27.542,6.834,12.805-1.553,13.806-5.729,13.806-5.729-1.553-1.45-5.591-4.315-5.591-4.315" fill="#75b69b"/>
      <path id="Path_2035" data-name="Path 2035" d="M783.88,295.732a24.477,24.477,0,0,1,5.729-3.314c3.279-1.311,2.658-2.83,3.452-9.733,0,0-3.417-4.556-3.624-7.041,0,0-3.21-1.173-3.383-6.005-.207-4.832,1.726-4,1.726-4a14.413,14.413,0,0,1,5.281-12.839c6.592-5.557,17.222.069,19.4,3.831,2.14,3.762,2.83,7.283,1.829,10.8s.9,6.972-2.036,12.632c-2.934,5.695-4.522,6.42-7.11,7.455l.1,2.969a2.413,2.413,0,0,0,1.484,1.691c1.243.448,9.181,4,9.181,4-2.9.035-5.867,2.106-16.636,2.106s-15.393-2.554-15.393-2.554" fill="#9e7054"/>
      <path id="Path_2036" data-name="Path 2036" d="M805.175,290.486c-6.9-1.726-9.077-6.282-9.077-6.282,3.072,3.451,9.008,3.279,9.008,3.279Z" fill="#795644"/>
      <path id="Path_2037" data-name="Path 2037" d="M787.746,265.635s2.9.725,3.52,5.143h.414l-.069-4.59Z" fill="#282928"/>
      <path id="Path_2038" data-name="Path 2038" d="M806.659,292.177a90.009,90.009,0,0,1,9.181,4s-5.867,2.106-16.636,2.106c-10.7,0-15.358-2.589-15.358-2.589a24.429,24.429,0,0,1,5.729-3.313s7.11,6.074,14.323,5.764c7.283-.276,2.761-5.971,2.761-5.971" fill="#5c8e77"/>
      <path id="Path_2039" data-name="Path 2039" d="M813.942,271.33a7.9,7.9,0,0,0-3.521-.966c-1.829,0-4.866,0-4.866,4.866A17.357,17.357,0,0,0,807,280.787" fill="url(#linear-gradient)"/>
      <path id="Path_2040" data-name="Path 2040" d="M803.657,272.193a8.675,8.675,0,0,0-4.556-1.829c-2.692,0-4.176.9-4.176,2.278a3.121,3.121,0,0,0,2.415,2.933" fill="url(#linear-gradient-4)"/>
      <path id="Path_2041" data-name="Path 2041" d="M806.863,252.392c-.187,1.354-1.324,12.492,7.349,15.366,1.132-3.628.458-7.268-1.762-11.18C811.6,255.116,809.524,253.71,806.863,252.392Z" fill="#232322"/>
      <path id="Path_2042" data-name="Path 2042" d="M787.746,265.635a14.411,14.411,0,0,1,5.28-12.839c6.592-5.557,17.223.069,19.4,3.831a16.086,16.086,0,0,1-7.248,9.008c-5.833,3.486-17.429,0-17.429,0" fill="#282928"/>
    </g>
    <g id="Group_2075" data-name="Group 2075" transform="translate(220 5756.564)">
      <g id="Group_2034" data-name="Group 2034">
        <g id="Group_2033" data-name="Group 2033">
          <g id="Group_2028" data-name="Group 2028">
            <g id="Group_2020" data-name="Group 2020">
              <path id="Path_2043" data-name="Path 2043" d="M872.937,284.092H822.969V273.815h49.968Zm-49.613-.354h49.258V274.17H823.324Z" fill="#100f0c"/>
            </g>
            <g id="Group_2027" data-name="Group 2027">
              <g id="Group_2021" data-name="Group 2021">
                <path id="Path_2044" data-name="Path 2044" d="M826.838,280.569l.693-1.269-1.269-.577.346-.923,1.384.346.116-1.384h.923l.115,1.5,1.385-.346.346.923-1.269.577.692,1.269-.808.577-.923-1.038-1.038,1.038Z" fill="#201c1a"/>
              </g>
              <g id="Group_2022" data-name="Group 2022">
                <path id="Path_2045" data-name="Path 2045" d="M832.377,280.569l.692-1.269-1.269-.577.346-.923,1.385.346.115-1.384h.923l.115,1.5,1.385-.346.346.923-1.269.577.692,1.269-.808.577-.923-1.038-1.038,1.038Z" fill="#201c1a"/>
              </g>
              <g id="Group_2023" data-name="Group 2023">
                <path id="Path_2046" data-name="Path 2046" d="M837.915,280.569l.692-1.269-1.269-.577.346-.923,1.385.346.115-1.384h.923l.115,1.5,1.385-.346.346.923-1.269.577.692,1.269-.807.577-.923-1.038-1.039,1.038Z" fill="#201c1a"/>
              </g>
              <g id="Group_2024" data-name="Group 2024">
                <path id="Path_2047" data-name="Path 2047" d="M843.568,280.569l.693-1.269-1.269-.577.346-.923,1.384.346.116-1.384h.923l.115,1.5,1.385-.346.346.923-1.269.577.692,1.269-.808.577-.923-1.038-1.038,1.038Z" fill="#201c1a"/>
              </g>
              <g id="Group_2025" data-name="Group 2025">
                <path id="Path_2048" data-name="Path 2048" d="M849.107,280.569l.692-1.269-1.269-.577.346-.923,1.385.346.115-1.384h.923l.115,1.5,1.385-.346.346.923-1.269.577.692,1.269-.808.577-.923-1.038-1.038,1.038Z" fill="#201c1a"/>
              </g>
              <g id="Group_2026" data-name="Group 2026">
                <path id="Path_2049" data-name="Path 2049" d="M854.645,280.569l.692-1.269-1.269-.577.346-.923,1.385.346.115-1.384h.923l.116,1.5,1.384-.346.346.923-1.269.577.692,1.269-.807.577-.923-1.038-1.039,1.038Z" fill="#201c1a"/>
              </g>
            </g>
          </g>
          <g id="Group_2029" data-name="Group 2029">
            <circle id="Ellipse_303" data-name="Ellipse 303" cx="3.231" cy="3.231" r="3.231" transform="translate(863.645 280.684)" fill="#201c1a"/>
          </g>
          <g id="Group_2030" data-name="Group 2030">
            <path id="Path_2050" data-name="Path 2050" d="M866.875,285.769a2.139,2.139,0,0,1-2.085-2.085v-3.576a2.085,2.085,0,1,1,4.17,0v3.576A2.139,2.139,0,0,1,866.875,285.769Zm0-7.038a1.412,1.412,0,0,0-1.376,1.377v3.576a1.376,1.376,0,1,0,2.752,0v-3.576A1.412,1.412,0,0,0,866.875,278.731Z" fill="#201c1a"/>
          </g>
          <g id="Group_2031" data-name="Group 2031">
            <circle id="Ellipse_304" data-name="Ellipse 304" cx="0.692" cy="0.692" r="0.692" transform="translate(866.183 283.223)" fill="#fff"/>
          </g>
          <g id="Group_2032" data-name="Group 2032">
            <rect id="Rectangle_329" data-name="Rectangle 329" width="0.577" height="1.731" transform="translate(866.529 284.146)" fill="#fff"/>
          </g>
        </g>
      </g>
      <g id="Group_2074" data-name="Group 2074">
        <g id="Group_2035" data-name="Group 2035">
          <path id="Path_2051" data-name="Path 2051" d="M825.108,269.723a2.022,2.022,0,0,1-1.962-1.961V239.84a2.022,2.022,0,0,1,1.962-1.961H870.8a2.023,2.023,0,0,1,1.962,1.961v27.922a2.022,2.022,0,0,1-1.962,1.961Z" fill="#dad9d9"/>
        </g>
        <g id="Group_2049" data-name="Group 2049">
          <g id="Group_2048" data-name="Group 2048">
            <g id="Group_2047" data-name="Group 2047">
              <g id="Group_2046" data-name="Group 2046">
                <g id="Group_2045" data-name="Group 2045" clip-path="url(#clip-path-2)">
                  <g id="Group_2044" data-name="Group 2044" opacity="0.2">
                    <g id="Group_2036" data-name="Group 2036">
                      <path id="Path_2052" data-name="Path 2052" d="M875.759,265.82a13.058,13.058,0,1,1,13.058-13.057A13.073,13.073,0,0,1,875.759,265.82Zm0-25.384a12.326,12.326,0,1,0,12.327,12.327A12.341,12.341,0,0,0,875.759,240.436Z" fill="#868281"/>
                    </g>
                    <g id="Group_2037" data-name="Group 2037">
                      <path id="Path_2053" data-name="Path 2053" d="M875.759,265.935a.365.365,0,0,1-.365-.365v-25.5a.366.366,0,1,1,.731,0v25.5A.365.365,0,0,1,875.759,265.935Z" fill="#868281"/>
                    </g>
                    <g id="Group_2042" data-name="Group 2042">
                      <g id="Group_2038" data-name="Group 2038">
                        <path id="Path_2054" data-name="Path 2054" d="M875.528,265.82a.367.367,0,0,1-.219-.073c-4.763-3.573-7.4-8.151-7.415-12.892-.018-4.776,2.615-9.419,7.413-13.075a.366.366,0,0,1,.443.582c-4.612,3.513-7.142,7.949-7.125,12.49.017,4.506,2.547,8.878,7.123,12.31a.366.366,0,0,1-.22.658Z" fill="#868281"/>
                      </g>
                      <g id="Group_2039" data-name="Group 2039">
                        <path id="Path_2055" data-name="Path 2055" d="M875.875,265.82a.366.366,0,0,1-.219-.658c4.576-3.432,7.1-7.8,7.122-12.31.017-4.541-2.513-8.977-7.125-12.49a.366.366,0,0,1,.443-.582c4.8,3.656,7.431,8.3,7.413,13.075-.018,4.741-2.651,9.319-7.415,12.892A.367.367,0,0,1,875.875,265.82Z" fill="#868281"/>
                      </g>
                      <g id="Group_2040" data-name="Group 2040">
                        <path id="Path_2056" data-name="Path 2056" d="M875.688,260.628c-4.759,0-9.383-2.631-13.026-7.413a.365.365,0,0,1,.581-.443c3.5,4.6,7.92,7.125,12.445,7.125h.046c4.506-.017,8.877-2.547,12.309-7.123a.366.366,0,1,1,.585.439c-3.573,4.763-8.151,7.4-12.892,7.415Z" fill="#868281"/>
                      </g>
                      <g id="Group_2041" data-name="Group 2041">
                        <path id="Path_2057" data-name="Path 2057" d="M888.336,253.013a.366.366,0,0,1-.293-.147c-3.432-4.576-7.8-7.1-12.309-7.122h-.046c-4.525,0-8.943,2.528-12.445,7.125a.365.365,0,0,1-.581-.443c3.656-4.8,8.294-7.431,13.074-7.413,4.741.018,9.319,2.651,12.892,7.415a.365.365,0,0,1-.073.511A.362.362,0,0,1,888.336,253.013Z" fill="#868281"/>
                      </g>
                    </g>
                    <g id="Group_2043" data-name="Group 2043">
                      <path id="Path_2058" data-name="Path 2058" d="M888.451,253.128H863.068a.366.366,0,1,1,0-.731h25.383a.366.366,0,1,1,0,.731Z" fill="#868281"/>
                    </g>
                  </g>
                </g>
              </g>
            </g>
          </g>
        </g>
        <g id="Group_2061" data-name="Group 2061">
          <g id="Group_2050" data-name="Group 2050">
            <path id="Path_2059" data-name="Path 2059" d="M866.991,249.07v7.5a1.822,1.822,0,0,1-1.847,1.846h-6.461a1.822,1.822,0,0,1-1.846-1.846v-7.5a1.823,1.823,0,0,1,1.846-1.846h6.461A1.9,1.9,0,0,1,866.991,249.07Z" fill="#e99d00"/>
            <path id="Path_2060" data-name="Path 2060" d="M865.144,258.589h-6.461a2,2,0,0,1-2.018-2.019v-7.5a2,2,0,0,1,2.018-2.018h6.481a2.06,2.06,0,0,1,2,2.017v7.5A2,2,0,0,1,865.144,258.589ZM858.683,247.4a1.655,1.655,0,0,0-1.673,1.673v7.5a1.656,1.656,0,0,0,1.673,1.674h6.461a1.656,1.656,0,0,0,1.674-1.674v-7.5a1.726,1.726,0,0,0-1.683-1.673Z" fill="#5f5c5a"/>
          </g>
          <g id="Group_2051" data-name="Group 2051">
            <path id="Path_2061" data-name="Path 2061" d="M863.414,251.666h-3.231a1.085,1.085,0,0,1-1.095-1.1v-3.23a.172.172,0,1,1,.345,0v3.23a.735.735,0,0,0,.75.751h3.231a.735.735,0,0,0,.75-.751v-3.23a.172.172,0,1,1,.345,0v3.23A1.085,1.085,0,0,1,863.414,251.666Z" fill="#5f5c5a"/>
          </g>
          <g id="Group_2052" data-name="Group 2052">
            <path id="Path_2062" data-name="Path 2062" d="M864.452,258.58a.172.172,0,0,1-.172-.172V255.3a.735.735,0,0,0-.751-.751H860.3a.735.735,0,0,0-.75.751v3.107a.172.172,0,0,1-.345,0V255.3a1.085,1.085,0,0,1,1.095-1.1h3.231a1.084,1.084,0,0,1,1.1,1.1v3.107A.172.172,0,0,1,864.452,258.58Z" fill="#5f5c5a"/>
          </g>
          <g id="Group_2053" data-name="Group 2053">
            <path id="Path_2063" data-name="Path 2063" d="M860.414,254.55a.172.172,0,0,1-.172-.172v-2.885a.172.172,0,0,1,.344,0v2.885A.172.172,0,0,1,860.414,254.55Z" fill="#5f5c5a"/>
          </g>
          <g id="Group_2054" data-name="Group 2054">
            <path id="Path_2064" data-name="Path 2064" d="M863.3,254.55a.172.172,0,0,1-.172-.172v-2.885a.173.173,0,0,1,.345,0v2.885A.172.172,0,0,1,863.3,254.55Z" fill="#5f5c5a"/>
          </g>
          <g id="Group_2055" data-name="Group 2055">
            <path id="Path_2065" data-name="Path 2065" d="M861.914,258.58a.173.173,0,0,1-.173-.172v-4.03a.172.172,0,0,1,.345,0v4.03A.172.172,0,0,1,861.914,258.58Z" fill="#5f5c5a"/>
          </g>
          <g id="Group_2056" data-name="Group 2056">
            <path id="Path_2066" data-name="Path 2066" d="M861.914,251.666a.173.173,0,0,1-.173-.173V247.34a.172.172,0,1,1,.345,0v4.153A.172.172,0,0,1,861.914,251.666Z" fill="#5f5c5a"/>
          </g>
          <g id="Group_2057" data-name="Group 2057">
            <path id="Path_2067" data-name="Path 2067" d="M859.376,255.935h-2.424a.173.173,0,0,1,0-.345h2.424a.173.173,0,0,1,0,.345Z" fill="#5f5c5a"/>
          </g>
          <g id="Group_2058" data-name="Group 2058">
            <path id="Path_2068" data-name="Path 2068" d="M866.991,255.935h-2.53a.173.173,0,1,1,0-.345h2.53a.173.173,0,0,1,0,.345Z" fill="#5f5c5a"/>
          </g>
          <g id="Group_2059" data-name="Group 2059">
            <path id="Path_2069" data-name="Path 2069" d="M866.991,250.281h-2.654a.172.172,0,1,1,0-.344h2.654a.172.172,0,0,1,0,.344Z" fill="#5f5c5a"/>
          </g>
          <g id="Group_2060" data-name="Group 2060">
            <path id="Path_2070" data-name="Path 2070" d="M859.251,250.281h-2.3a.172.172,0,0,1,0-.344h2.3a.172.172,0,1,1,0,.344Z" fill="#5f5c5a"/>
          </g>
        </g>
        <g id="Group_2062" data-name="Group 2062">
          <rect id="Rectangle_331" data-name="Rectangle 331" width="23.653" height="2.192" transform="translate(825.569 247.34)" fill="#608f77"/>
        </g>
        <g id="Group_2071" data-name="Group 2071">
          <g id="Group_2063" data-name="Group 2063">
            <rect id="Rectangle_332" data-name="Rectangle 332" width="0.577" height="3.231" transform="translate(825.569 254.955)" fill="#608f77"/>
          </g>
          <g id="Group_2064" data-name="Group 2064">
            <rect id="Rectangle_333" data-name="Rectangle 333" width="1.846" height="3.231" transform="translate(826.608 254.955)" fill="#608f77"/>
          </g>
          <g id="Group_2065" data-name="Group 2065">
            <rect id="Rectangle_334" data-name="Rectangle 334" width="3" height="3.231" transform="translate(828.685 254.955)" fill="#608f77"/>
          </g>
          <g id="Group_2066" data-name="Group 2066">
            <rect id="Rectangle_335" data-name="Rectangle 335" width="1.385" height="3.231" transform="translate(832.031 254.955)" fill="#608f77"/>
          </g>
          <g id="Group_2067" data-name="Group 2067">
            <rect id="Rectangle_336" data-name="Rectangle 336" width="0.692" height="3.231" transform="translate(833.877 254.955)" fill="#608f77"/>
          </g>
          <g id="Group_2068" data-name="Group 2068">
            <rect id="Rectangle_337" data-name="Rectangle 337" width="3.808" height="3.231" transform="translate(834.915 254.955)" fill="#608f77"/>
          </g>
          <g id="Group_2069" data-name="Group 2069">
            <rect id="Rectangle_338" data-name="Rectangle 338" width="2.423" height="3.231" transform="translate(838.953 254.955)" fill="#608f77"/>
          </g>
          <g id="Group_2070" data-name="Group 2070">
            <rect id="Rectangle_339" data-name="Rectangle 339" width="0.462" height="3.231" transform="translate(841.722 254.955)" fill="#608f77"/>
          </g>
        </g>
        <g id="Group_2072" data-name="Group 2072">
          <rect id="Rectangle_340" data-name="Rectangle 340" width="49.498" height="0.923" transform="translate(823.262 264.416)" fill="#9c9695"/>
        </g>
        <g id="Group_2073" data-name="Group 2073">
          <path id="Path_2071" data-name="Path 2071" d="M827.279,241.221l-.2.188a.6.6,0,0,0-.541-.3c-.264,0-.379.117-.379.262,0,.112.063.2.278.245l.366.082c.347.079.48.232.48.472,0,.333-.286.544-.715.544a.927.927,0,0,1-.8-.377l.2-.2a.668.668,0,0,0,.606.327c.251,0,.4-.09.4-.259,0-.1-.057-.191-.251-.232l-.395-.09c-.328-.071-.481-.232-.481-.472,0-.306.265-.551.7-.551A.816.816,0,0,1,827.279,241.221Z" fill="#9c9695"/>
          <path id="Path_2072" data-name="Path 2072" d="M830.084,242.689h-.267v-1.042l.019-.5h0l-.548,1.539h-.243l-.549-1.539h0l.021.5v1.042h-.27v-1.8h.434l.363,1.043.126.428h.005l.128-.428.361-1.043h.425Z" fill="#9c9695"/>
          <path id="Path_2073" data-name="Path 2073" d="M832.183,242.217h-.759l-.172.472h-.3l.679-1.8h.35l.679,1.8h-.308Zm-.088-.237-.207-.579-.082-.259H831.8l-.077.254-.212.584Z" fill="#9c9695"/>
          <path id="Path_2074" data-name="Path 2074" d="M834.66,242.689l-.458-.72h-.388v.72h-.289v-1.8h.734c.385,0,.631.207.631.535a.487.487,0,0,1-.391.5l.5.767Zm-.846-.963h.423c.235,0,.35-.1.35-.295s-.115-.295-.35-.295h-.423Z" fill="#9c9695"/>
          <path id="Path_2075" data-name="Path 2075" d="M837.2,241.139h-.617v1.55h-.292v-1.55h-.617v-.251H837.2Z" fill="#9c9695"/>
          <path id="Path_2076" data-name="Path 2076" d="M840.211,242.717a.932.932,0,0,1,0-1.856.7.7,0,0,1,.72.442l-.275.123a.408.408,0,0,0-.429-.311c-.335,0-.556.245-.556.674s.2.674.548.674a.452.452,0,0,0,.461-.344l.279.093A.738.738,0,0,1,840.211,242.717Z" fill="#9c9695"/>
          <path id="Path_2077" data-name="Path 2077" d="M842.893,242.217h-.759l-.172.472h-.3l.68-1.8h.349l.68,1.8h-.309Zm-.087-.237-.208-.579-.082-.259h-.008l-.076.254-.213.584Z" fill="#9c9695"/>
          <path id="Path_2078" data-name="Path 2078" d="M845.371,242.689l-.459-.72h-.387v.72h-.29v-1.8h.735c.384,0,.63.207.63.535a.486.486,0,0,1-.39.5l.5.767Zm-.846-.963h.423c.234,0,.349-.1.349-.295s-.115-.295-.349-.295h-.423Z" fill="#9c9695"/>
          <path id="Path_2079" data-name="Path 2079" d="M848.146,241.789a.816.816,0,0,1-.9.9h-.636v-1.8h.636A.816.816,0,0,1,848.146,241.789Zm-.306,0c0-.415-.21-.653-.589-.653h-.344v1.3h.344C847.63,242.441,847.84,242.2,847.84,241.789Z" fill="#9c9695"/>
        </g>
      </g>
    </g>
    <g id="Group_2076" data-name="Group 2076" transform="translate(220 5756.564)">
      <path id="Path_2080" data-name="Path 2080" d="M845.158,185.7a37.284,37.284,0,0,0-3.762,3.659c3.106,2.692,14.7,8.352,27.542,6.834,12.8-1.553,13.806-5.73,13.806-5.73-1.554-1.449-5.592-4.314-5.592-4.314" fill="#75b69b"/>
      <path id="Path_2081" data-name="Path 2081" d="M845.158,185.7a24.467,24.467,0,0,1,5.729-3.313c3.279-1.311,2.658-2.83,3.451-9.733,0,0-3.416-4.556-3.623-7.041,0,0-3.21-1.173-3.383-6.005-.207-4.832,1.726-4,1.726-4a14.411,14.411,0,0,1,5.28-12.839c6.593-5.557,17.223.069,19.4,3.831,2.14,3.762,2.831,7.282,1.83,10.8s.9,6.972-2.037,12.632c-2.933,5.695-4.521,6.42-7.11,7.455l.1,2.968a2.411,2.411,0,0,0,1.484,1.691c1.243.449,9.181,4,9.181,4-2.9.035-5.868,2.1-16.636,2.1s-15.393-2.554-15.393-2.554" fill="#9e7054"/>
      <path id="Path_2082" data-name="Path 2082" d="M866.453,180.456c-6.9-1.725-9.077-6.281-9.077-6.281,3.071,3.451,9.008,3.279,9.008,3.279Z" fill="#795644"/>
      <path id="Path_2083" data-name="Path 2083" d="M849.023,155.606s2.9.725,3.521,5.143h.414l-.069-4.591Z" fill="#282928"/>
      <path id="Path_2084" data-name="Path 2084" d="M867.937,182.147a90.273,90.273,0,0,1,9.181,4s-5.868,2.1-16.636,2.1c-10.7,0-15.359-2.588-15.359-2.588a24.447,24.447,0,0,1,5.73-3.313s7.109,6.074,14.323,5.763c7.282-.276,2.761-5.971,2.761-5.971" fill="#5c8e77"/>
      <path id="Path_2085" data-name="Path 2085" d="M875.219,161.3a7.9,7.9,0,0,0-3.52-.966c-1.829,0-4.866,0-4.866,4.866a17.357,17.357,0,0,0,1.449,5.557" fill="url(#linear-gradient-5)"/>
      <path id="Path_2086" data-name="Path 2086" d="M864.934,162.164a8.675,8.675,0,0,0-4.556-1.829c-2.692,0-4.176.9-4.176,2.278a3.122,3.122,0,0,0,2.416,2.933" fill="url(#linear-gradient-6)"/>
      <path id="Path_2087" data-name="Path 2087" d="M868.141,142.363c-.187,1.354-1.324,12.492,7.349,15.366,1.131-3.629.458-7.268-1.762-11.18C872.875,145.087,870.8,143.68,868.141,142.363Z" fill="#232322"/>
      <path id="Path_2088" data-name="Path 2088" d="M849.023,155.606a14.413,14.413,0,0,1,5.281-12.839c6.592-5.557,17.222.069,19.4,3.831a16.091,16.091,0,0,1-7.248,9.008c-5.833,3.486-17.43,0-17.43,0" fill="#282928"/>
    </g>
    <g id="Group_2132" data-name="Group 2132" transform="translate(220 5756.564)">
      <g id="Group_2091" data-name="Group 2091">
        <g id="Group_2090" data-name="Group 2090">
          <g id="Group_2085" data-name="Group 2085">
            <g id="Group_2077" data-name="Group 2077">
              <path id="Path_2089" data-name="Path 2089" d="M934.215,174.063H884.247V163.786h49.968Zm-49.614-.354H933.86V164.14H884.6Z" fill="#100f0c"/>
            </g>
            <g id="Group_2084" data-name="Group 2084">
              <g id="Group_2078" data-name="Group 2078">
                <path id="Path_2090" data-name="Path 2090" d="M888.116,170.54l.692-1.269-1.269-.577.346-.923,1.385.346.115-1.385h.923l.116,1.5,1.384-.346.346.923-1.269.577.693,1.269-.808.577-.923-1.038-1.039,1.038Z" fill="#201c1a"/>
              </g>
              <g id="Group_2079" data-name="Group 2079">
                <path id="Path_2091" data-name="Path 2091" d="M893.654,170.54l.693-1.269-1.269-.577.346-.923,1.384.346.116-1.385h.923l.115,1.5,1.385-.346.346.923-1.269.577.692,1.269-.808.577-.923-1.038-1.038,1.038Z" fill="#201c1a"/>
              </g>
              <g id="Group_2080" data-name="Group 2080">
                <path id="Path_2092" data-name="Path 2092" d="M899.193,170.54l.692-1.269-1.269-.577.346-.923,1.384.346.116-1.385h.923l.115,1.5,1.385-.346.346.923-1.269.577.692,1.269-.808.577-.923-1.038-1.038,1.038Z" fill="#201c1a"/>
              </g>
              <g id="Group_2081" data-name="Group 2081">
                <path id="Path_2093" data-name="Path 2093" d="M904.846,170.54l.693-1.269-1.27-.577.346-.923,1.385.346.115-1.385h.923l.116,1.5,1.384-.346.347.923-1.27.577.693,1.269-.808.577-.923-1.038-1.038,1.038Z" fill="#201c1a"/>
              </g>
              <g id="Group_2082" data-name="Group 2082">
                <path id="Path_2094" data-name="Path 2094" d="M910.384,170.54l.693-1.269-1.269-.577.346-.923,1.384.346.116-1.385h.923l.115,1.5,1.385-.346.346.923-1.269.577.692,1.269-.808.577-.923-1.038-1.038,1.038Z" fill="#201c1a"/>
              </g>
              <g id="Group_2083" data-name="Group 2083">
                <path id="Path_2095" data-name="Path 2095" d="M915.923,170.54l.692-1.269-1.269-.577.346-.923,1.384.346.116-1.385h.923l.115,1.5,1.385-.346.346.923-1.269.577.692,1.269-.808.577-.923-1.038-1.038,1.038Z" fill="#201c1a"/>
              </g>
            </g>
          </g>
          <g id="Group_2086" data-name="Group 2086">
            <circle id="Ellipse_305" data-name="Ellipse 305" cx="3.231" cy="3.231" r="3.231" transform="translate(924.922 170.655)" fill="#201c1a"/>
          </g>
          <g id="Group_2087" data-name="Group 2087">
            <path id="Path_2096" data-name="Path 2096" d="M928.153,175.74a2.139,2.139,0,0,1-2.085-2.085v-3.577a2.085,2.085,0,1,1,4.17,0v3.577A2.139,2.139,0,0,1,928.153,175.74Zm0-7.038a1.412,1.412,0,0,0-1.376,1.376v3.577a1.376,1.376,0,1,0,2.752,0v-3.577A1.412,1.412,0,0,0,928.153,168.7Z" fill="#201c1a"/>
          </g>
          <g id="Group_2088" data-name="Group 2088">
            <circle id="Ellipse_306" data-name="Ellipse 306" cx="0.692" cy="0.692" r="0.692" transform="translate(927.461 173.194)" fill="#fff"/>
          </g>
          <g id="Group_2089" data-name="Group 2089">
            <rect id="Rectangle_341" data-name="Rectangle 341" width="0.577" height="1.731" transform="translate(927.807 174.117)" fill="#fff"/>
          </g>
        </g>
      </g>
      <g id="Group_2131" data-name="Group 2131">
        <g id="Group_2092" data-name="Group 2092">
          <path id="Path_2097" data-name="Path 2097" d="M886.386,159.694a2.022,2.022,0,0,1-1.962-1.961V129.811a2.022,2.022,0,0,1,1.962-1.962h45.69a2.022,2.022,0,0,1,1.961,1.962v27.922a2.022,2.022,0,0,1-1.961,1.961Z" fill="#dad9d9"/>
        </g>
        <g id="Group_2106" data-name="Group 2106">
          <g id="Group_2105" data-name="Group 2105">
            <g id="Group_2104" data-name="Group 2104">
              <g id="Group_2103" data-name="Group 2103">
                <g id="Group_2102" data-name="Group 2102" clip-path="url(#clip-path-3)">
                  <g id="Group_2101" data-name="Group 2101" opacity="0.2">
                    <g id="Group_2093" data-name="Group 2093">
                      <path id="Path_2098" data-name="Path 2098" d="M937.037,155.791a13.058,13.058,0,1,1,13.057-13.058A13.072,13.072,0,0,1,937.037,155.791Zm0-25.384a12.326,12.326,0,1,0,12.327,12.326A12.34,12.34,0,0,0,937.037,130.407Z" fill="#868281"/>
                    </g>
                    <g id="Group_2094" data-name="Group 2094">
                      <path id="Path_2099" data-name="Path 2099" d="M937.037,155.906a.365.365,0,0,1-.365-.365v-25.5a.366.366,0,1,1,.731,0v25.5A.366.366,0,0,1,937.037,155.906Z" fill="#868281"/>
                    </g>
                    <g id="Group_2099" data-name="Group 2099">
                      <g id="Group_2095" data-name="Group 2095">
                        <path id="Path_2100" data-name="Path 2100" d="M936.806,155.791a.362.362,0,0,1-.219-.074c-4.764-3.572-7.4-8.151-7.415-12.891-.018-4.776,2.615-9.419,7.413-13.075a.365.365,0,0,1,.443.581c-4.612,3.514-7.142,7.95-7.125,12.491.017,4.506,2.547,8.878,7.123,12.31a.366.366,0,0,1-.22.658Z" fill="#868281"/>
                      </g>
                      <g id="Group_2096" data-name="Group 2096">
                        <path id="Path_2101" data-name="Path 2101" d="M937.153,155.791a.366.366,0,0,1-.22-.658c4.576-3.432,7.106-7.8,7.123-12.31.017-4.541-2.513-8.977-7.125-12.491a.365.365,0,1,1,.443-.581c4.8,3.656,7.431,8.3,7.413,13.075-.018,4.74-2.652,9.319-7.415,12.891A.362.362,0,0,1,937.153,155.791Z" fill="#868281"/>
                      </g>
                      <g id="Group_2097" data-name="Group 2097">
                        <path id="Path_2102" data-name="Path 2102" d="M936.965,150.6c-4.758,0-9.382-2.63-13.026-7.412a.366.366,0,1,1,.582-.443c3.5,4.6,7.92,7.125,12.444,7.125h.046c4.506-.017,8.878-2.547,12.31-7.123a.365.365,0,0,1,.585.438c-3.573,4.764-8.151,7.4-12.892,7.415Z" fill="#868281"/>
                      </g>
                      <g id="Group_2098" data-name="Group 2098">
                        <path id="Path_2103" data-name="Path 2103" d="M949.614,142.983a.365.365,0,0,1-.293-.146c-3.432-4.576-7.8-7.105-12.31-7.122h-.046c-4.525,0-8.942,2.528-12.444,7.124a.365.365,0,1,1-.582-.442c3.656-4.8,8.295-7.432,13.075-7.413,4.741.018,9.319,2.651,12.892,7.415a.365.365,0,0,1-.073.511A.36.36,0,0,1,949.614,142.983Z" fill="#868281"/>
                      </g>
                    </g>
                    <g id="Group_2100" data-name="Group 2100">
                      <path id="Path_2104" data-name="Path 2104" d="M949.729,143.1H924.345a.366.366,0,0,1,0-.731h25.384a.366.366,0,0,1,0,.731Z" fill="#868281"/>
                    </g>
                  </g>
                </g>
              </g>
            </g>
          </g>
        </g>
        <g id="Group_2118" data-name="Group 2118">
          <g id="Group_2107" data-name="Group 2107">
            <path id="Path_2105" data-name="Path 2105" d="M928.268,139.041v7.5a1.822,1.822,0,0,1-1.846,1.846h-6.461a1.823,1.823,0,0,1-1.846-1.846v-7.5a1.823,1.823,0,0,1,1.846-1.846h6.461A1.9,1.9,0,0,1,928.268,139.041Z" fill="#e99d00"/>
            <path id="Path_2106" data-name="Path 2106" d="M926.422,148.559h-6.461a2,2,0,0,1-2.018-2.018v-7.5a2,2,0,0,1,2.018-2.018h6.48a2.06,2.06,0,0,1,2,2.017v7.5A2,2,0,0,1,926.422,148.559Zm-6.461-11.191a1.656,1.656,0,0,0-1.674,1.673v7.5a1.656,1.656,0,0,0,1.674,1.674h6.461a1.656,1.656,0,0,0,1.674-1.674v-7.5a1.726,1.726,0,0,0-1.683-1.673Z" fill="#5f5c5a"/>
          </g>
          <g id="Group_2108" data-name="Group 2108">
            <path id="Path_2107" data-name="Path 2107" d="M924.691,141.637h-3.23a1.085,1.085,0,0,1-1.095-1.1v-3.23a.172.172,0,1,1,.344,0v3.23a.735.735,0,0,0,.751.751h3.23a.735.735,0,0,0,.751-.751v-3.23a.172.172,0,1,1,.345,0v3.23A1.085,1.085,0,0,1,924.691,141.637Z" fill="#5f5c5a"/>
          </g>
          <g id="Group_2109" data-name="Group 2109">
            <path id="Path_2108" data-name="Path 2108" d="M925.73,148.551a.172.172,0,0,1-.172-.173v-3.106a.735.735,0,0,0-.751-.751h-3.231a.735.735,0,0,0-.75.751v3.106a.172.172,0,1,1-.345,0v-3.106a1.085,1.085,0,0,1,1.095-1.1h3.231a1.085,1.085,0,0,1,1.095,1.1v3.106A.172.172,0,0,1,925.73,148.551Z" fill="#5f5c5a"/>
          </g>
          <g id="Group_2110" data-name="Group 2110">
            <path id="Path_2109" data-name="Path 2109" d="M921.692,144.521a.172.172,0,0,1-.173-.172v-2.885a.173.173,0,0,1,.345,0v2.885A.172.172,0,0,1,921.692,144.521Z" fill="#5f5c5a"/>
          </g>
          <g id="Group_2111" data-name="Group 2111">
            <path id="Path_2110" data-name="Path 2110" d="M924.576,144.521a.172.172,0,0,1-.172-.172v-2.885a.173.173,0,0,1,.345,0v2.885A.173.173,0,0,1,924.576,144.521Z" fill="#5f5c5a"/>
          </g>
          <g id="Group_2112" data-name="Group 2112">
            <path id="Path_2111" data-name="Path 2111" d="M923.192,148.551a.172.172,0,0,1-.173-.173v-4.029a.173.173,0,1,1,.345,0v4.029A.172.172,0,0,1,923.192,148.551Z" fill="#5f5c5a"/>
          </g>
          <g id="Group_2113" data-name="Group 2113">
            <path id="Path_2112" data-name="Path 2112" d="M923.192,141.637a.173.173,0,0,1-.173-.173v-4.153a.173.173,0,1,1,.345,0v4.153A.173.173,0,0,1,923.192,141.637Z" fill="#5f5c5a"/>
          </g>
          <g id="Group_2114" data-name="Group 2114">
            <path id="Path_2113" data-name="Path 2113" d="M920.653,145.906H918.23a.173.173,0,0,1,0-.345h2.423a.173.173,0,1,1,0,.345Z" fill="#5f5c5a"/>
          </g>
          <g id="Group_2115" data-name="Group 2115">
            <path id="Path_2114" data-name="Path 2114" d="M928.268,145.906h-2.529a.173.173,0,1,1,0-.345h2.529a.173.173,0,1,1,0,.345Z" fill="#5f5c5a"/>
          </g>
          <g id="Group_2116" data-name="Group 2116">
            <path id="Path_2115" data-name="Path 2115" d="M928.268,140.252h-2.653a.173.173,0,1,1,0-.345h2.653a.173.173,0,1,1,0,.345Z" fill="#5f5c5a"/>
          </g>
          <g id="Group_2117" data-name="Group 2117">
            <path id="Path_2116" data-name="Path 2116" d="M920.529,140.252h-2.3a.173.173,0,0,1,0-.345h2.3a.173.173,0,1,1,0,.345Z" fill="#5f5c5a"/>
          </g>
        </g>
        <g id="Group_2119" data-name="Group 2119">
          <rect id="Rectangle_343" data-name="Rectangle 343" width="23.653" height="2.192" transform="translate(886.847 137.311)" fill="#608f77"/>
        </g>
        <g id="Group_2128" data-name="Group 2128">
          <g id="Group_2120" data-name="Group 2120">
            <rect id="Rectangle_344" data-name="Rectangle 344" width="0.577" height="3.231" transform="translate(886.847 144.926)" fill="#608f77"/>
          </g>
          <g id="Group_2121" data-name="Group 2121">
            <rect id="Rectangle_345" data-name="Rectangle 345" width="1.846" height="3.231" transform="translate(887.885 144.926)" fill="#608f77"/>
          </g>
          <g id="Group_2122" data-name="Group 2122">
            <rect id="Rectangle_346" data-name="Rectangle 346" width="3" height="3.231" transform="translate(889.962 144.926)" fill="#608f77"/>
          </g>
          <g id="Group_2123" data-name="Group 2123">
            <rect id="Rectangle_347" data-name="Rectangle 347" width="1.385" height="3.231" transform="translate(893.308 144.926)" fill="#608f77"/>
          </g>
          <g id="Group_2124" data-name="Group 2124">
            <rect id="Rectangle_348" data-name="Rectangle 348" width="0.692" height="3.231" transform="translate(895.154 144.926)" fill="#608f77"/>
          </g>
          <g id="Group_2125" data-name="Group 2125">
            <rect id="Rectangle_349" data-name="Rectangle 349" width="3.808" height="3.231" transform="translate(896.193 144.926)" fill="#608f77"/>
          </g>
          <g id="Group_2126" data-name="Group 2126">
            <rect id="Rectangle_350" data-name="Rectangle 350" width="2.423" height="3.231" transform="translate(900.231 144.926)" fill="#608f77"/>
          </g>
          <g id="Group_2127" data-name="Group 2127">
            <rect id="Rectangle_351" data-name="Rectangle 351" width="0.462" height="3.231" transform="translate(903 144.926)" fill="#608f77"/>
          </g>
        </g>
        <g id="Group_2129" data-name="Group 2129">
          <rect id="Rectangle_352" data-name="Rectangle 352" width="49.498" height="0.923" transform="translate(884.539 154.387)" fill="#9c9695"/>
        </g>
        <g id="Group_2130" data-name="Group 2130">
          <path id="Path_2117" data-name="Path 2117" d="M888.557,131.192l-.2.188a.593.593,0,0,0-.54-.3c-.265,0-.379.117-.379.262,0,.111.062.2.278.245l.366.082c.346.079.48.232.48.472,0,.333-.286.543-.715.543a.933.933,0,0,1-.8-.376l.2-.2a.669.669,0,0,0,.606.327c.251,0,.4-.09.4-.259,0-.1-.057-.191-.251-.232l-.4-.09c-.327-.071-.48-.232-.48-.472,0-.306.265-.551.7-.551A.816.816,0,0,1,888.557,131.192Z" fill="#9c9695"/>
          <path id="Path_2118" data-name="Path 2118" d="M891.362,132.66h-.267v-1.043l.019-.5h0l-.548,1.539h-.243l-.549-1.539h0l.022.5v1.043h-.27v-1.8h.434l.363,1.042.125.429h.006l.128-.429.36-1.042h.426Z" fill="#9c9695"/>
          <path id="Path_2119" data-name="Path 2119" d="M893.46,132.188H892.7l-.172.472h-.3l.679-1.8h.349l.68,1.8h-.308Zm-.087-.238-.207-.578-.082-.259h-.008l-.077.253-.213.584Z" fill="#9c9695"/>
          <path id="Path_2120" data-name="Path 2120" d="M895.938,132.66l-.458-.72h-.388v.72H894.8v-1.8h.734c.385,0,.63.207.63.535a.486.486,0,0,1-.39.5l.5.767Zm-.846-.963h.423c.235,0,.349-.1.349-.3s-.114-.295-.349-.295h-.423Z" fill="#9c9695"/>
          <path id="Path_2121" data-name="Path 2121" d="M898.479,131.11h-.617v1.55h-.292v-1.55h-.617v-.251h1.526Z" fill="#9c9695"/>
          <path id="Path_2122" data-name="Path 2122" d="M901.488,132.687a.931.931,0,0,1,0-1.855.7.7,0,0,1,.72.442l-.275.122a.409.409,0,0,0-.429-.311c-.336,0-.557.246-.557.674s.205.675.549.675a.452.452,0,0,0,.461-.344l.278.092A.736.736,0,0,1,901.488,132.687Z" fill="#9c9695"/>
          <path id="Path_2123" data-name="Path 2123" d="M904.171,132.188h-.759l-.172.472h-.3l.679-1.8h.35l.679,1.8h-.308Zm-.088-.238-.207-.578-.082-.259h-.008l-.077.253-.212.584Z" fill="#9c9695"/>
          <path id="Path_2124" data-name="Path 2124" d="M906.648,132.66l-.458-.72H905.8v.72h-.289v-1.8h.734c.385,0,.631.207.631.535a.487.487,0,0,1-.391.5l.5.767Zm-.846-.963h.423c.235,0,.35-.1.35-.3s-.115-.295-.35-.295H905.8Z" fill="#9c9695"/>
          <path id="Path_2125" data-name="Path 2125" d="M909.424,131.759a.817.817,0,0,1-.9.9h-.636v-1.8h.636A.817.817,0,0,1,909.424,131.759Zm-.306,0c0-.414-.21-.652-.59-.652h-.343v1.305h.343C908.908,132.412,909.118,132.174,909.118,131.759Z" fill="#9c9695"/>
        </g>
      </g>
    </g>
  </g>
</svg>
