<svg xmlns="http://www.w3.org/2000/svg" xmlns:xlink="http://www.w3.org/1999/xlink" width="123.993" height="149.553" viewBox="0 0 123.993 149.553">
  <defs>
    <clipPath id="clip-path">
      <path id="Path_1042" data-name="Path 1042" d="M809.794,132.108s-.233,1.673.975,2.045l.465-.093-.093-1.952Z" fill="none"/>
    </clipPath>
    <clipPath id="clip-path-3">
      <rect id="Rectangle_181" data-name="Rectangle 181" width="18.09" height="12.762" rx="0.991" transform="translate(860.43 179.754)" fill="none"/>
    </clipPath>
    <clipPath id="clip-path-7">
      <path id="Path_1088" data-name="Path 1088" d="M880.751,195.3H858.2a.267.267,0,0,1-.248-.248V176.532a.267.267,0,0,1,.248-.248h22.612a.267.267,0,0,1,.248.248v18.524A.283.283,0,0,1,880.751,195.3Z" fill="none"/>
    </clipPath>
    <clipPath id="clip-path-10">
      <path id="Path_1094" data-name="Path 1094" d="M882.423,175.975a.31.31,0,0,1-.31.371H856.9a.31.31,0,0,1-.31-.371l1.425-7.62a.532.532,0,0,1,.434-.372H880.5c.186,0,.433.186.433.372Z" fill="none"/>
    </clipPath>
    <clipPath id="clip-path-12">
      <path id="Path_1096" data-name="Path 1096" d="M877.095,177.771h-15.3a1.375,1.375,0,0,1-1.363-1.363v-.062h18.028v.062A1.3,1.3,0,0,1,877.095,177.771Z" fill="none"/>
    </clipPath>
    <clipPath id="clip-path-13">
      <path id="Path_1097" data-name="Path 1097" d="M880.874,175.417a.737.737,0,0,1-.805.929H858.881a.784.784,0,0,1-.8-.929l.434-2.354a5.8,5.8,0,0,1,5.451-5.08h10.966a5.744,5.744,0,0,1,5.452,5.08Z" fill="none"/>
    </clipPath>
    <linearGradient id="linear-gradient" x1="0.663" y1="-11.394" x2="0.088" y2="-11.856" gradientUnits="objectBoundingBox">
      <stop offset="0" stop-color="#9e7054"/>
      <stop offset="0.335" stop-color="#986b52"/>
      <stop offset="0.782" stop-color="#855f49"/>
      <stop offset="1" stop-color="#795644"/>
    </linearGradient>
    <linearGradient id="linear-gradient-2" x1="0.58" y1="-23.192" x2="0.392" y2="-24.06" gradientUnits="objectBoundingBox">
      <stop offset="0" stop-color="#9e7054"/>
      <stop offset="0.349" stop-color="#9a6d52"/>
      <stop offset="0.682" stop-color="#8d644c"/>
      <stop offset="1" stop-color="#795644"/>
    </linearGradient>
    <linearGradient id="linear-gradient-3" x1="0.663" y1="-11.394" x2="0.088" y2="-11.856" xlink:href="#linear-gradient"/>
    <linearGradient id="linear-gradient-5" x1="0.663" y1="-11.394" x2="0.088" y2="-11.856" xlink:href="#linear-gradient"/>
    <linearGradient id="linear-gradient-6" x1="0.58" y1="-23.183" x2="0.392" y2="-24.051" xlink:href="#linear-gradient-2"/>
    <linearGradient id="linear-gradient-7" x1="0.663" y1="-11.394" x2="0.088" y2="-11.856" xlink:href="#linear-gradient"/>
    <linearGradient id="linear-gradient-8" x1="0.58" y1="-23.192" x2="0.392" y2="-24.06" xlink:href="#linear-gradient-2"/>
    <linearGradient id="linear-gradient-10" x1="0.58" y1="-23.192" x2="0.392" y2="-24.06" xlink:href="#linear-gradient-2"/>
    <linearGradient id="linear-gradient-11" x1="0.663" y1="-11.394" x2="0.088" y2="-11.856" xlink:href="#linear-gradient"/>
    <linearGradient id="linear-gradient-13" x1="0.663" y1="-11.394" x2="0.088" y2="-11.856" xlink:href="#linear-gradient"/>
    <linearGradient id="linear-gradient-14" x1="0.58" y1="-23.192" x2="0.392" y2="-24.06" xlink:href="#linear-gradient-2"/>
    <linearGradient id="linear-gradient-15" x1="0.663" y1="-11.394" x2="0.088" y2="-11.856" xlink:href="#linear-gradient"/>
    <linearGradient id="linear-gradient-16" x1="0.58" y1="-23.192" x2="0.392" y2="-24.06" xlink:href="#linear-gradient-2"/>
    <linearGradient id="linear-gradient-17" x1="0.663" y1="-11.394" x2="0.088" y2="-11.856" xlink:href="#linear-gradient"/>
    <linearGradient id="linear-gradient-18" x1="0.58" y1="-23.192" x2="0.392" y2="-24.06" xlink:href="#linear-gradient-2"/>
  </defs>
  <g id="Group_1324" data-name="Group 1324" transform="translate(-758.442 -119.223)">
    <g id="Group_1195" data-name="Group 1195">
      <g id="Group_1171" data-name="Group 1171">
        <path id="Path_1030" data-name="Path 1030" d="M814.239,128.33l-.743-1.982h1.487Z" fill="#3a8062"/>
      </g>
      <g id="Group_1172" data-name="Group 1172">
        <path id="Path_1031" data-name="Path 1031" d="M828.24,126.347H803.831a1.4,1.4,0,0,0-1.425,1.425v14.869a1.4,1.4,0,0,0,1.425,1.425H828.24a1.4,1.4,0,0,0,1.425-1.425V127.772A1.4,1.4,0,0,0,828.24,126.347Zm-10.656,2.479h-3.1a.62.62,0,1,1,0-1.239h3.1a.62.62,0,1,1,0,1.239Z" fill="#cbb9b0"/>
      </g>
      <g id="Group_1173" data-name="Group 1173">
        <path id="Path_1032" data-name="Path 1032" d="M813.5,126.347h3.531l-2.54-6.133h-3.531Z" fill="#3a8062"/>
      </g>
      <g id="Group_1174" data-name="Group 1174">
        <rect id="Rectangle_179" data-name="Rectangle 179" width="0.248" height="8.549" transform="translate(815.602 131.49)" fill="#fff"/>
      </g>
      <g id="Group_1175" data-name="Group 1175">
        <line id="Line_35" data-name="Line 35" x2="7.372" transform="translate(817.646 132.481)" fill="none"/>
      </g>
      <g id="Group_1180" data-name="Group 1180">
        <g id="Group_1176" data-name="Group 1176">
          <path id="Path_1033" data-name="Path 1033" d="M825.886,136.041h-7.434a.215.215,0,1,1,0-.429h7.434a.215.215,0,0,1,0,.429Z" fill="#4a4744"/>
        </g>
        <g id="Group_1177" data-name="Group 1177">
          <path id="Path_1034" data-name="Path 1034" d="M825.886,133.715h-7.434a.428.428,0,1,1,0-.857h7.434a.428.428,0,1,1,0,.857Z" fill="#4a4744"/>
        </g>
        <g id="Group_1178" data-name="Group 1178">
          <path id="Path_1035" data-name="Path 1035" d="M825.886,137.4h-7.434a.214.214,0,1,1,0-.428h7.434a.214.214,0,0,1,0,.428Z" fill="#4a4744"/>
        </g>
        <g id="Group_1179" data-name="Group 1179">
          <path id="Path_1036" data-name="Path 1036" d="M823.656,138.766h-5.2a.214.214,0,1,1,0-.428h5.2a.214.214,0,0,1,0,.428Z" fill="#4a4744"/>
        </g>
      </g>
      <g id="Group_1181" data-name="Group 1181">
        <path id="Path_1037" data-name="Path 1037" d="M828.24,143.748H803.831a1.034,1.034,0,0,1-1.045-1.045V127.834a1.033,1.033,0,0,1,1.045-1.044H828.24a1.033,1.033,0,0,1,1.045,1.044V142.7A1.034,1.034,0,0,1,828.24,143.748ZM803.831,126.9a.928.928,0,0,0-.938.937V142.7a.928.928,0,0,0,.938.938H828.24a.928.928,0,0,0,.938-.938V127.834a.928.928,0,0,0-.938-.937Z" fill="#fff"/>
      </g>
      <g id="Group_1182" data-name="Group 1182">
        <path id="Path_1038" data-name="Path 1038" d="M817.708,128.33h-3.469l3.717-9.107h3.593Z" fill="#68b699"/>
      </g>
      <g id="Group_1194" data-name="Group 1194">
        <g id="Group_1183" data-name="Group 1183">
          <path id="Path_1039" data-name="Path 1039" d="M806.634,137.963a4.225,4.225,0,0,0-.511.511,5.615,5.615,0,0,0,3.717.929c1.719-.186,1.859-.79,1.859-.79-.233-.186-.744-.6-.744-.6" fill="#5e412f"/>
        </g>
        <g id="Group_1184" data-name="Group 1184">
          <path id="Path_1040" data-name="Path 1040" d="M806.634,137.963a3.118,3.118,0,0,1,.79-.465c.418-.186.372-.372.465-1.3a3.094,3.094,0,0,1-.511-.929.829.829,0,0,1-.465-.79c-.047-.651.232-.558.232-.558a1.905,1.905,0,0,1,.7-1.719,1.98,1.98,0,0,1,2.6.511,1.823,1.823,0,0,1,.233,1.441c-.14.464.139.929-.279,1.719s-.6.883-.976,1.022v.418s.046.186.186.232c.186.047,1.254.558,1.254.558a11.128,11.128,0,0,1-2.23.279,4.674,4.674,0,0,1-2-.418" fill="#a77453"/>
        </g>
        <g id="Group_1191" data-name="Group 1191">
          <g id="Group_1187" data-name="Group 1187">
            <g id="Group_1186" data-name="Group 1186" clip-path="url(#clip-path)">
              <g id="Group_1185" data-name="Group 1185">
                <path id="Path_1041" data-name="Path 1041" d="M806.634,137.963a3.118,3.118,0,0,1,.79-.465c.418-.186.372-.372.465-1.3a3.094,3.094,0,0,1-.511-.929.829.829,0,0,1-.465-.79c-.047-.651.232-.558.232-.558a1.905,1.905,0,0,1,.7-1.719,1.98,1.98,0,0,1,2.6.511,1.823,1.823,0,0,1,.233,1.441c-.14.464.139.929-.279,1.719s-.6.883-.976,1.022v.418s.046.186.186.232a4.759,4.759,0,0,1,1.254.558,7.329,7.329,0,0,1-2.23.279,4.674,4.674,0,0,1-2-.418" fill="#32271f"/>
              </g>
            </g>
          </g>
          <g id="Group_1190" data-name="Group 1190">
            <g id="Group_1189" data-name="Group 1189" clip-path="url(#clip-path)">
              <g id="Group_1188" data-name="Group 1188">
                <path id="Path_1043" data-name="Path 1043" d="M809.561,137.266a1.782,1.782,0,0,1-1.208-.837,1.828,1.828,0,0,0,1.208.465Z" fill="#5d5652"/>
              </g>
            </g>
          </g>
        </g>
        <g id="Group_1192" data-name="Group 1192">
          <path id="Path_1045" data-name="Path 1045" d="M807.889,132.155a1.905,1.905,0,0,0-.7,1.719s.371.093.464.7h.047v-.558a2.7,2.7,0,0,0,1.812-.139,2.151,2.151,0,0,0,.976-1.208A1.979,1.979,0,0,0,807.889,132.155Z" fill="#392a22"/>
        </g>
        <g id="Group_1193" data-name="Group 1193">
          <path id="Path_1046" data-name="Path 1046" d="M809.747,137.5a6.5,6.5,0,0,1,1.255.558,7.358,7.358,0,0,1-2.231.278,4.548,4.548,0,0,1-2.09-.371,3.122,3.122,0,0,1,.789-.465,3.348,3.348,0,0,0,1.952.79c.929-.047.325-.79.325-.79" fill="#5e412f"/>
        </g>
      </g>
    </g>
    <g id="Group_1200" data-name="Group 1200">
      <g id="Group_1199" data-name="Group 1199">
        <g id="Group_1196" data-name="Group 1196">
          <path id="Path_1047" data-name="Path 1047" d="M777.371,142.747a7.434,7.434,0,1,0-14.869,0,7.354,7.354,0,0,0,6.319,7.31v3.593h-1.363a1.116,1.116,0,0,0,0,2.231h1.363v1.672a1.115,1.115,0,1,0,2.23,0v-1.672h1.363a1.116,1.116,0,1,0,0-2.231h-1.363v-3.593A7.354,7.354,0,0,0,777.371,142.747Zm-12.577,0a5.2,5.2,0,1,1,5.2,5.2A5.235,5.235,0,0,1,764.794,142.747Z" fill="#a97552"/>
          <path id="Path_1048" data-name="Path 1048" d="M769.936,158.949a1.4,1.4,0,0,1-1.395-1.4v-1.392h-1.083a1.4,1.4,0,0,1,0-2.791h1.083V150.3a7.715,7.715,0,1,1,2.791,0v3.072h1.082a1.4,1.4,0,1,1,0,2.791h-1.082v1.392A1.4,1.4,0,0,1,769.936,158.949Zm-2.478-5.018a.835.835,0,0,0,0,1.669H769.1v1.953a.835.835,0,1,0,1.669,0V155.6h1.643a.835.835,0,1,0,0-1.669h-1.643v-4.118l.242-.034a7.154,7.154,0,1,0-2.153,0l.242.034v4.118Zm2.54-5.7a5.485,5.485,0,1,1,5.485-5.484A5.49,5.49,0,0,1,770,148.231Zm0-10.408a4.924,4.924,0,1,0,4.924,4.924A4.929,4.929,0,0,0,770,137.823Z" fill="#fff"/>
        </g>
        <g id="Group_1197" data-name="Group 1197">
          <path id="Path_1049" data-name="Path 1049" d="M794.717,142.747a7.434,7.434,0,1,0-14.868,0,7.354,7.354,0,0,0,6.319,7.31v5.7l-1.177-.868a1.153,1.153,0,1,0-1.363,1.859l2.974,2.23a1.125,1.125,0,0,0,1.239,0l2.973-2.23a1.153,1.153,0,1,0-1.363-1.859l-1.177.868v-5.7A7.356,7.356,0,0,0,794.717,142.747Zm-12.576,0a5.2,5.2,0,1,1,5.2,5.2A5.235,5.235,0,0,1,782.141,142.747Z" fill="#a97552"/>
          <path id="Path_1050" data-name="Path 1050" d="M787.221,159.445a1.476,1.476,0,0,1-.775-.233l-3-2.253a1.469,1.469,0,0,1-.287-1.99l.013-.016a1.469,1.469,0,0,1,1.99-.288l.728.537v-4.9a7.775,7.775,0,1,1,2.668,0v4.9l.73-.538a1.39,1.39,0,0,1,1.062-.253,1.467,1.467,0,0,1,.94.558,1.452,1.452,0,0,1-.3,2l-2.974,2.231A1.485,1.485,0,0,1,787.221,159.445ZM783.8,156.53l2.965,2.224a.846.846,0,0,0,.915-.009l2.961-2.221a.863.863,0,0,0-.387-1.559.836.836,0,0,0-.639.149l-1.626,1.2v-6.5l.243-.033a7.051,7.051,0,0,0,6.2-7.032,7.154,7.154,0,1,0-8.231,7.032l.242.034v6.5l-1.624-1.2a.872.872,0,1,0-1.019,1.415Zm3.54-8.3a5.485,5.485,0,1,1,5.485-5.484A5.491,5.491,0,0,1,787.345,148.231Zm0-10.408a4.924,4.924,0,1,0,4.923,4.924A4.929,4.929,0,0,0,787.345,137.823Z" fill="#fff"/>
        </g>
        <g id="Group_1198" data-name="Group 1198">
          <path id="Path_1051" data-name="Path 1051" d="M786.044,142.747a7.435,7.435,0,1,0-14.869,0,7.354,7.354,0,0,0,6.32,7.31v1.425h-1.363a1.115,1.115,0,1,0,0,2.23h1.363v2.045l-1.178-.806a1.153,1.153,0,0,0-1.363,1.859l2.974,2.23a1.125,1.125,0,0,0,1.239,0l2.974-2.23a1.153,1.153,0,0,0-1.363-1.859l-1.177.868v-2.045h1.363a1.115,1.115,0,0,0,0-2.23H779.6v-1.425A7.465,7.465,0,0,0,786.044,142.747Zm-12.576,0a5.2,5.2,0,1,1,5.2,5.2A5.235,5.235,0,0,1,773.468,142.747Z" fill="#a97552"/>
          <path id="Path_1052" data-name="Path 1052" d="M778.548,159.507a1.476,1.476,0,0,1-.775-.233l-3-2.253a1.47,1.47,0,0,1-.288-1.99l.013-.017a1.471,1.471,0,0,1,1.991-.287l.728.5v-1.232h-1.082a1.4,1.4,0,1,1,0-2.791h1.082v-.9a7.612,7.612,0,1,1,2.667.059v.907h1.083a1.4,1.4,0,1,1,0,2.791h-1.083v1.209l.731-.538a1.384,1.384,0,0,1,1.062-.253,1.424,1.424,0,0,1,.635,2.561l-2.973,2.231A1.49,1.49,0,0,1,778.548,159.507Zm-3.416-2.915,2.965,2.224a.846.846,0,0,0,.915-.009l2.961-2.221a.864.864,0,0,0-.387-1.559.839.839,0,0,0-.64.149l-1.626,1.2v-2.88h1.644a.835.835,0,0,0,0-1.67H779.32v-1.946l.239-.036a7.156,7.156,0,1,0-8.1-7.1,7.1,7.1,0,0,0,6.077,7.032l.242.034v1.95h-1.643a.835.835,0,1,0,0,1.669h1.643v2.857l-1.616-1.106a.872.872,0,1,0-1.027,1.409Zm3.54-8.361a5.485,5.485,0,1,1,5.484-5.484A5.49,5.49,0,0,1,778.672,148.231Zm0-10.408a4.924,4.924,0,1,0,4.923,4.924A4.93,4.93,0,0,0,778.672,137.823Z" fill="#fff"/>
        </g>
      </g>
    </g>
    <g id="Group_1215" data-name="Group 1215">
      <g id="Group_1203" data-name="Group 1203">
        <g id="Group_1202" data-name="Group 1202">
          <g id="Group_1201" data-name="Group 1201">
            <path id="Path_1053" data-name="Path 1053" d="M773.125,168.262l-12.638-.062a1.95,1.95,0,0,0-2.045,1.858v25.153a1.952,1.952,0,0,0,2.045,1.859l15.736.062a1.95,1.95,0,0,0,2.044-1.859l.062-22.427a1.639,1.639,0,0,0-.619-1.3l-3.036-2.726A2.378,2.378,0,0,0,773.125,168.262Z" fill="#68b699"/>
          </g>
        </g>
      </g>
      <g id="Group_1204" data-name="Group 1204">
        <path id="Path_1054" data-name="Path 1054" d="M775.417,180.962l-.062,11.833a1.93,1.93,0,0,1-1.92,1.92l-10.408-.062a1.93,1.93,0,0,1-1.921-1.92l.062-11.833a1.931,1.931,0,0,1,1.921-1.921l10.408.062A1.93,1.93,0,0,1,775.417,180.962Z" fill="#cbb9b0"/>
        <path id="Path_1055" data-name="Path 1055" d="M773.435,194.957l-10.41-.062a2.164,2.164,0,0,1-2.16-2.162l.062-11.834a2.164,2.164,0,0,1,2.162-2.161l10.409.062a2.171,2.171,0,0,1,2.16,2.162h0L775.6,192.8A2.164,2.164,0,0,1,773.435,194.957Zm-10.348-15.736a1.681,1.681,0,0,0-1.678,1.679l-.061,11.834a1.68,1.68,0,0,0,1.679,1.678l10.409.062a1.68,1.68,0,0,0,1.678-1.679l.062-11.834a1.7,1.7,0,0,0-1.693-1.679Z" fill="#fff"/>
      </g>
      <g id="Group_1205" data-name="Group 1205">
        <path id="Path_1056" data-name="Path 1056" d="M770.585,185.168h-4.523a1.583,1.583,0,0,1-1.542-1.542v-4.585a.241.241,0,0,1,.483,0v4.585a1.115,1.115,0,0,0,1.059,1.059h4.523a1.115,1.115,0,0,0,1.06-1.059v-4.585a.241.241,0,1,1,.482,0v4.585A1.582,1.582,0,0,1,770.585,185.168Z" fill="#fff"/>
      </g>
      <g id="Group_1206" data-name="Group 1206">
        <path id="Path_1057" data-name="Path 1057" d="M771.886,194.957a.241.241,0,0,1-.241-.242v-4.584a1.116,1.116,0,0,0-1.06-1.06h-4.523a1.116,1.116,0,0,0-1.059,1.06v4.584a.241.241,0,1,1-.483,0v-4.584a1.582,1.582,0,0,1,1.542-1.542h4.523a1.582,1.582,0,0,1,1.542,1.542v4.584A.241.241,0,0,1,771.886,194.957Z" fill="#fff"/>
      </g>
      <g id="Group_1207" data-name="Group 1207">
        <path id="Path_1058" data-name="Path 1058" d="M766.31,189.071a.241.241,0,0,1-.241-.241v-3.965a.242.242,0,0,1,.483,0v3.965A.241.241,0,0,1,766.31,189.071Z" fill="#fff"/>
      </g>
      <g id="Group_1208" data-name="Group 1208">
        <path id="Path_1059" data-name="Path 1059" d="M770.337,189.133a.241.241,0,0,1-.241-.241v-4.027a.241.241,0,1,1,.482,0v4.027A.24.24,0,0,1,770.337,189.133Z" fill="#fff"/>
      </g>
      <g id="Group_1209" data-name="Group 1209">
        <path id="Path_1060" data-name="Path 1060" d="M768.293,194.957a.241.241,0,0,1-.241-.242v-5.823a.241.241,0,1,1,.482,0v5.823A.241.241,0,0,1,768.293,194.957Z" fill="#fff"/>
      </g>
      <g id="Group_1210" data-name="Group 1210">
        <path id="Path_1061" data-name="Path 1061" d="M768.293,185.106h0a.24.24,0,0,1-.238-.244l.062-5.761a.241.241,0,0,1,.241-.239h0a.241.241,0,0,1,.239.244l-.062,5.762A.24.24,0,0,1,768.293,185.106Z" fill="#fff"/>
      </g>
      <g id="Group_1211" data-name="Group 1211">
        <path id="Path_1062" data-name="Path 1062" d="M764.761,191.054h-3.593a.242.242,0,0,1,0-.483h3.593a.242.242,0,1,1,0,.483Z" fill="#fff"/>
      </g>
      <g id="Group_1212" data-name="Group 1212">
        <path id="Path_1063" data-name="Path 1063" d="M775.417,191.116h-3.593a.242.242,0,0,1,0-.483h3.593a.242.242,0,0,1,0,.483Z" fill="#fff"/>
      </g>
      <g id="Group_1213" data-name="Group 1213">
        <path id="Path_1064" data-name="Path 1064" d="M775.417,183.124h-3.593a.241.241,0,0,1,0-.483h3.593a.241.241,0,0,1,0,.483Z" fill="#fff"/>
      </g>
      <g id="Group_1214" data-name="Group 1214">
        <path id="Path_1065" data-name="Path 1065" d="M764.823,183.124H761.23a.241.241,0,0,1,0-.483h3.593a.241.241,0,1,1,0,.483Z" fill="#fff"/>
      </g>
    </g>
    <g id="Group_1241" data-name="Group 1241">
      <g id="Group_1240" data-name="Group 1240">
        <g id="Group_1239" data-name="Group 1239">
          <g id="Group_1238" data-name="Group 1238">
            <g id="Group_1217" data-name="Group 1217">
              <g id="Group_1216" data-name="Group 1216">
                <path id="Path_1066" data-name="Path 1066" d="M847.959,133.679a13.485,13.485,0,0,1,5.885-1.177,13.868,13.868,0,0,1,5.886,1.177.373.373,0,0,0,.248.062.594.594,0,0,0,.557-.372.615.615,0,0,0-.309-.805,15.051,15.051,0,0,0-6.382-1.3,14.852,14.852,0,0,0-6.381,1.3.615.615,0,0,0-.309.805A.657.657,0,0,0,847.959,133.679Z" fill="#a97552"/>
              </g>
            </g>
            <g id="Group_1219" data-name="Group 1219">
              <g id="Group_1218" data-name="Group 1218">
                <path id="Path_1067" data-name="Path 1067" d="M845.729,138.387a11.365,11.365,0,0,1,8.177-3.531,11.125,11.125,0,0,1,8.178,3.531.6.6,0,0,0,.867,0,.6.6,0,0,0,0-.867,12.32,12.32,0,0,0-9.045-3.841,12.669,12.669,0,0,0-9.045,3.841.613.613,0,0,0,.868.867Z" fill="#a97552"/>
              </g>
            </g>
            <g id="Group_1221" data-name="Group 1221">
              <g id="Group_1220" data-name="Group 1220">
                <path id="Path_1068" data-name="Path 1068" d="M853.906,136.157a12.435,12.435,0,0,0-2.6.31c-.371.124-.557.371-.433.743s.371.558.743.434a9.159,9.159,0,0,1,11.523,8.921.619.619,0,1,0,1.239,0A10.565,10.565,0,0,0,853.906,136.157Z" fill="#a97552"/>
              </g>
            </g>
            <g id="Group_1223" data-name="Group 1223">
              <g id="Group_1222" data-name="Group 1222">
                <path id="Path_1069" data-name="Path 1069" d="M844.675,146.565a9.511,9.511,0,0,1,2.664-6.505,8.44,8.44,0,0,1,1.921-1.487.627.627,0,1,0-.682-1.053,11.282,11.282,0,0,0-2.168,1.673,10.693,10.693,0,0,0-3.036,7.31.586.586,0,0,0,.62.62h0A.516.516,0,0,0,844.675,146.565Z" fill="#a97552"/>
              </g>
            </g>
            <g id="Group_1225" data-name="Group 1225">
              <g id="Group_1224" data-name="Group 1224">
                <path id="Path_1070" data-name="Path 1070" d="M847.154,146.751a6.832,6.832,0,0,1,1.982-4.894,6.762,6.762,0,0,1,9.912.371.615.615,0,0,0,.93-.8,7.959,7.959,0,0,0-11.647-.372,8.356,8.356,0,0,0-2.355,5.824,10.037,10.037,0,0,1-1.115,4.4l-.371.62a.686.686,0,0,0,.247.867c.124.062.186.124.31.124a.74.74,0,0,0,.558-.31l.371-.619A14.789,14.789,0,0,0,847.154,146.751Z" fill="#a97552"/>
              </g>
            </g>
            <g id="Group_1227" data-name="Group 1227">
              <g id="Group_1226" data-name="Group 1226">
                <path id="Path_1071" data-name="Path 1071" d="M862.332,151.4a22.667,22.667,0,0,1-.434-4.522V146.5a8.018,8.018,0,0,0-.433-2.664.627.627,0,1,0-1.177.434,7.131,7.131,0,0,1,.371,2.292v.372a22.03,22.03,0,0,0,.5,4.77l.681,2.354a.747.747,0,0,0,.62.434.228.228,0,0,0,.186-.062.535.535,0,0,0,.371-.743Z" fill="#a97552"/>
              </g>
            </g>
            <g id="Group_1229" data-name="Group 1229">
              <g id="Group_1228" data-name="Group 1228">
                <path id="Path_1072" data-name="Path 1072" d="M860.659,154.681a33.8,33.8,0,0,1-1.239-8.054,5.526,5.526,0,0,0-5.514-5.514,5.593,5.593,0,0,0-5.513,5.638,14.349,14.349,0,0,1-2.726,7.806.619.619,0,0,0,.991.743,15.422,15.422,0,0,0,2.912-8.549,4.336,4.336,0,1,1,8.673,0,31.01,31.01,0,0,0,1.3,8.425l.558,1.859a.745.745,0,0,0,.619.434.228.228,0,0,0,.186-.062.578.578,0,0,0,.372-.806Z" fill="#a97552"/>
              </g>
            </g>
            <g id="Group_1231" data-name="Group 1231">
              <g id="Group_1230" data-name="Group 1230">
                <path id="Path_1073" data-name="Path 1073" d="M856.942,146.565a3.1,3.1,0,1,0-6.2,0,17.061,17.061,0,0,1-3.779,10.1.62.62,0,1,0,.991.744,18.382,18.382,0,0,0,4.027-10.842,1.858,1.858,0,1,1,3.717,0,22.429,22.429,0,0,1-4.77,13.134.674.674,0,0,0,.124.867.452.452,0,0,0,.371.124.765.765,0,0,0,.5-.248A23.045,23.045,0,0,0,856.942,146.565Z" fill="#a97552"/>
              </g>
            </g>
            <g id="Group_1233" data-name="Group 1233">
              <g id="Group_1232" data-name="Group 1232">
                <path id="Path_1074" data-name="Path 1074" d="M853.6,149.663h.124a.6.6,0,0,0,.619-.5,13.1,13.1,0,0,0,.186-2.6.621.621,0,0,0-.62-.62.667.667,0,0,0-.619.62,11.074,11.074,0,0,1-.186,2.354A.6.6,0,0,0,853.6,149.663Z" fill="#a97552"/>
              </g>
            </g>
            <g id="Group_1235" data-name="Group 1235">
              <g id="Group_1234" data-name="Group 1234">
                <path id="Path_1075" data-name="Path 1075" d="M853.287,150.964a.6.6,0,0,0-.744.371,19.729,19.729,0,0,1-3.841,7.187.676.676,0,0,0,.124.867.456.456,0,0,0,.372.124.765.765,0,0,0,.5-.248,22.067,22.067,0,0,0,4.027-7.62A.553.553,0,0,0,853.287,150.964Z" fill="#a97552"/>
              </g>
            </g>
            <g id="Group_1237" data-name="Group 1237">
              <g id="Group_1236" data-name="Group 1236">
                <path id="Path_1076" data-name="Path 1076" d="M858.491,155.982c-.31-.868-.558-1.859-.62-1.859a.593.593,0,0,0-.557-.433.681.681,0,0,0-.62.371,36.3,36.3,0,0,1-2.973,5.7.62.62,0,0,0,.185.867.665.665,0,0,0,.372.124.632.632,0,0,0,.5-.31,35.015,35.015,0,0,0,2.354-4.4c.062.124.062.186.124.309l.743,2.355a.627.627,0,0,0,1.177-.434Z" fill="#a97552"/>
              </g>
            </g>
          </g>
        </g>
      </g>
    </g>
    <g id="Group_1308" data-name="Group 1308">
      <g id="Group_1242" data-name="Group 1242">
        <path id="Path_1077" data-name="Path 1077" d="M882.423,175.975a.31.31,0,0,1-.31.371H856.9a.31.31,0,0,1-.31-.371l1.425-7.62a.532.532,0,0,1,.434-.372H880.5c.186,0,.433.186.433.372Z" fill="#7fb69b"/>
      </g>
      <g id="Group_1243" data-name="Group 1243">
        <path id="Path_1078" data-name="Path 1078" d="M880.751,195.3H858.2a.267.267,0,0,1-.248-.248V176.47a.266.266,0,0,1,.248-.247h22.612a.266.266,0,0,1,.248.247v18.586A.283.283,0,0,1,880.751,195.3Z" fill="#74a58b"/>
      </g>
      <g id="Group_1244" data-name="Group 1244">
        <path id="Path_1079" data-name="Path 1079" d="M877.095,177.771h-15.3a1.375,1.375,0,0,1-1.363-1.363v-.062h18.028v.062A1.3,1.3,0,0,1,877.095,177.771Z" fill="#2b3c30"/>
      </g>
      <g id="Group_1245" data-name="Group 1245">
        <path id="Path_1080" data-name="Path 1080" d="M878.52,191.525a.978.978,0,0,1-.991.991H861.421a.979.979,0,0,1-.991-.991v-10.78a.979.979,0,0,1,.991-.991h16.108a.978.978,0,0,1,.991.991Z" fill="#7fb69b"/>
      </g>
      <g id="Group_1246" data-name="Group 1246">
        <circle id="Ellipse_134" data-name="Ellipse 134" cx="0.867" cy="0.867" r="0.867" transform="translate(868.608 180.683)" fill="#d7eae0"/>
      </g>
      <g id="Group_1247" data-name="Group 1247">
        <path id="Path_1081" data-name="Path 1081" d="M869.475,182.941a1.393,1.393,0,0,1-1.391-1.391.152.152,0,0,1,.3,0,1.087,1.087,0,1,0,2.174,0,.152.152,0,0,1,.3,0A1.393,1.393,0,0,1,869.475,182.941Z" fill="#436b5d"/>
      </g>
      <g id="Group_1248" data-name="Group 1248">
        <path id="Path_1082" data-name="Path 1082" d="M882.3,194.994a1.031,1.031,0,0,1-1.053.991H857.828a.994.994,0,0,1-1.053-.991V177.4a1.033,1.033,0,0,1,1.053-.992h23.418a.994.994,0,0,1,1.053.992Z" fill="none"/>
      </g>
      <g id="Group_1261" data-name="Group 1261">
        <g id="Group_1251" data-name="Group 1251">
          <g id="Group_1250" data-name="Group 1250" clip-path="url(#clip-path-3)">
            <g id="Group_1249" data-name="Group 1249">
              <rect id="Rectangle_180" data-name="Rectangle 180" width="0.31" height="12.7" transform="translate(860.43 179.816)" fill="#618a74"/>
            </g>
          </g>
        </g>
        <g id="Group_1254" data-name="Group 1254">
          <g id="Group_1253" data-name="Group 1253" clip-path="url(#clip-path-3)">
            <g id="Group_1252" data-name="Group 1252">
              <rect id="Rectangle_182" data-name="Rectangle 182" width="0.31" height="12.7" transform="translate(878.21 179.816)" fill="#618a74"/>
            </g>
          </g>
        </g>
        <g id="Group_1257" data-name="Group 1257">
          <g id="Group_1256" data-name="Group 1256" clip-path="url(#clip-path-3)">
            <g id="Group_1255" data-name="Group 1255">
              <rect id="Rectangle_184" data-name="Rectangle 184" width="18.028" height="0.372" transform="translate(860.43 179.816)" fill="#afd6c2"/>
            </g>
          </g>
        </g>
        <g id="Group_1260" data-name="Group 1260">
          <g id="Group_1259" data-name="Group 1259" clip-path="url(#clip-path-3)">
            <g id="Group_1258" data-name="Group 1258">
              <rect id="Rectangle_186" data-name="Rectangle 186" width="18.462" height="0.434" transform="translate(860.368 192.268)" fill="#496656"/>
            </g>
          </g>
        </g>
      </g>
      <g id="Group_1271" data-name="Group 1271">
        <g id="Group_1264" data-name="Group 1264">
          <g id="Group_1262" data-name="Group 1262">
            <path id="Path_1083" data-name="Path 1083" d="M863.032,193.321a.4.4,0,0,1-.372-.371v-.5a.994.994,0,0,1,.806-.991h.186a.953.953,0,0,1,.929.929v.558a.4.4,0,0,1-.372.371Z" fill="#e89c00"/>
          </g>
          <g id="Group_1263" data-name="Group 1263">
            <path id="Path_1084" data-name="Path 1084" d="M863.59,191.525a.847.847,0,0,1,.867.867v.558a.292.292,0,0,1-.31.309h-1.115a.292.292,0,0,1-.31-.309v-.5a.868.868,0,0,1,.744-.867c.062-.062.062-.062.124-.062m0-.186H863.4a1.067,1.067,0,0,0-.868,1.053v.5a.423.423,0,0,0,.434.433h1.115a.423.423,0,0,0,.434-.433v-.558a.926.926,0,0,0-.929-.991Z" fill="#bb7a00"/>
          </g>
        </g>
        <g id="Group_1267" data-name="Group 1267">
          <g id="Group_1265" data-name="Group 1265">
            <path id="Path_1085" data-name="Path 1085" d="M874.8,193.321a.4.4,0,0,1-.372-.371v-.5a.994.994,0,0,1,.806-.991h.186a.953.953,0,0,1,.929.929v.558a.4.4,0,0,1-.372.371Z" fill="#e89c00"/>
          </g>
          <g id="Group_1266" data-name="Group 1266">
            <path id="Path_1086" data-name="Path 1086" d="M875.361,191.525a.847.847,0,0,1,.867.867v.558a.292.292,0,0,1-.31.309H874.8a.292.292,0,0,1-.31-.309v-.5a.868.868,0,0,1,.744-.867c0-.062.062-.062.124-.062m0-.186h-.186a1.067,1.067,0,0,0-.868,1.053v.5a.423.423,0,0,0,.434.433h1.115a.423.423,0,0,0,.434-.433v-.558a.926.926,0,0,0-.929-.991Z" fill="#bb7a00"/>
          </g>
        </g>
        <g id="Group_1268" data-name="Group 1268">
          <rect id="Rectangle_188" data-name="Rectangle 188" width="10.036" height="0.304" transform="translate(864.457 192.364)" fill="#395645"/>
        </g>
        <g id="Group_1269" data-name="Group 1269">
          <rect id="Rectangle_189" data-name="Rectangle 189" width="1.735" height="0.304" transform="translate(862.722 192.364)" fill="#c37e00"/>
        </g>
        <g id="Group_1270" data-name="Group 1270">
          <rect id="Rectangle_190" data-name="Rectangle 190" width="1.735" height="0.304" transform="translate(874.493 192.364)" fill="#c37e00"/>
        </g>
      </g>
      <g id="Group_1272" data-name="Group 1272">
        <path id="Path_1087" data-name="Path 1087" d="M870.095,181.7a.152.152,0,0,1-.152-.152.468.468,0,0,0-.936,0,.152.152,0,1,1-.3,0,.771.771,0,0,1,1.542,0A.151.151,0,0,1,870.095,181.7Z" fill="#fff"/>
      </g>
      <g id="Group_1282" data-name="Group 1282">
        <g id="Group_1275" data-name="Group 1275">
          <g id="Group_1274" data-name="Group 1274" clip-path="url(#clip-path-7)">
            <g id="Group_1273" data-name="Group 1273">
              <rect id="Rectangle_191" data-name="Rectangle 191" width="0.496" height="20.073" transform="translate(857.89 175.913)" fill="#638b74"/>
            </g>
          </g>
        </g>
        <g id="Group_1278" data-name="Group 1278">
          <g id="Group_1277" data-name="Group 1277" clip-path="url(#clip-path-7)">
            <g id="Group_1276" data-name="Group 1276">
              <rect id="Rectangle_192" data-name="Rectangle 192" width="0.496" height="20.073" transform="translate(880.565 175.913)" fill="#638b74"/>
            </g>
          </g>
        </g>
        <g id="Group_1281" data-name="Group 1281">
          <g id="Group_1280" data-name="Group 1280" clip-path="url(#clip-path-7)">
            <g id="Group_1279" data-name="Group 1279">
              <rect id="Rectangle_193" data-name="Rectangle 193" width="23.108" height="1.177" transform="translate(857.89 194.808)" fill="#4d6555"/>
            </g>
          </g>
        </g>
      </g>
      <g id="Group_1283" data-name="Group 1283">
        <path id="Path_1091" data-name="Path 1091" d="M882.3,175.417a.756.756,0,0,1-.8.929H857.456a.784.784,0,0,1-.8-.929l1.3-6.505a1.264,1.264,0,0,1,1.177-.929h20.692a1.263,1.263,0,0,1,1.177.929Z" fill="none"/>
      </g>
      <g id="Group_1284" data-name="Group 1284">
        <path id="Path_1092" data-name="Path 1092" d="M880.874,175.417a.737.737,0,0,1-.805.929H858.881a.784.784,0,0,1-.8-.929l.434-2.354a5.8,5.8,0,0,1,5.451-5.08h10.966a5.744,5.744,0,0,1,5.452,5.08Z" fill="#8cc0a2"/>
      </g>
      <g id="Group_1285" data-name="Group 1285">
        <path id="Path_1093" data-name="Path 1093" d="M881.06,176.408H857.952l.62-3.345a5.8,5.8,0,0,1,5.451-5.08h10.966a5.743,5.743,0,0,1,5.452,5.08Z" fill="none"/>
      </g>
      <g id="Group_1292" data-name="Group 1292">
        <g id="Group_1288" data-name="Group 1288">
          <g id="Group_1287" data-name="Group 1287" clip-path="url(#clip-path-10)">
            <g id="Group_1286" data-name="Group 1286">
              <rect id="Rectangle_194" data-name="Rectangle 194" width="25.834" height="1.053" transform="translate(856.279 167.487)" fill="#92c8aa"/>
            </g>
          </g>
        </g>
        <g id="Group_1291" data-name="Group 1291">
          <g id="Group_1290" data-name="Group 1290" clip-path="url(#clip-path-10)">
            <g id="Group_1289" data-name="Group 1289">
              <rect id="Rectangle_195" data-name="Rectangle 195" width="27.817" height="1.487" transform="translate(855.846 175.541)" fill="#4f705f"/>
            </g>
          </g>
        </g>
      </g>
      <g id="Group_1296" data-name="Group 1296">
        <g id="Group_1295" data-name="Group 1295">
          <g id="Group_1294" data-name="Group 1294" clip-path="url(#clip-path-12)">
            <g id="Group_1293" data-name="Group 1293">
              <rect id="Rectangle_196" data-name="Rectangle 196" width="18.462" height="0.62" transform="translate(860.244 177.462)" fill="#1d251e"/>
            </g>
          </g>
        </g>
      </g>
      <g id="Group_1303" data-name="Group 1303">
        <g id="Group_1299" data-name="Group 1299">
          <g id="Group_1298" data-name="Group 1298" clip-path="url(#clip-path-13)">
            <g id="Group_1297" data-name="Group 1297">
              <rect id="Rectangle_197" data-name="Rectangle 197" width="18.896" height="1.053" transform="translate(859.749 167.487)" fill="#9fcdb2"/>
            </g>
          </g>
        </g>
        <g id="Group_1302" data-name="Group 1302">
          <g id="Group_1301" data-name="Group 1301" clip-path="url(#clip-path-13)">
            <g id="Group_1300" data-name="Group 1300">
              <rect id="Rectangle_198" data-name="Rectangle 198" width="27.817" height="1.487" transform="translate(855.846 175.541)" fill="#5a7868"/>
            </g>
          </g>
        </g>
      </g>
      <g id="Group_1307" data-name="Group 1307">
        <g id="Group_1304" data-name="Group 1304">
          <path id="Path_1099" data-name="Path 1099" d="M867.059,186.259a1.448,1.448,0,0,1,.434.434,1.316,1.316,0,0,1,.186.743,1.709,1.709,0,0,1-.186.8.968.968,0,0,1-.5.5,1.249,1.249,0,0,1-.681.186,1.148,1.148,0,0,1-1.054-.558,2.66,2.66,0,0,1-.309-1.487,3.378,3.378,0,0,1,.185-1.177,1.891,1.891,0,0,1,.558-.805,1.305,1.305,0,0,1,.8-.31,1.424,1.424,0,0,1,.868.248l-.248.372a1.2,1.2,0,0,0-.62-.186.67.67,0,0,0-.681.433,2.948,2.948,0,0,0-.31,1.116,1.117,1.117,0,0,1,.991-.558A2.2,2.2,0,0,1,867.059,186.259Zm-.186,1.92a1.316,1.316,0,0,0,.186-.743c0-.62-.248-.867-.681-.867a1.168,1.168,0,0,0-.5.124c-.124.123-.31.247-.372.433a2,2,0,0,0,.186.991.684.684,0,0,0,.62.31A.6.6,0,0,0,866.873,188.179Z" fill="#2b3c30"/>
        </g>
        <g id="Group_1305" data-name="Group 1305">
          <path id="Path_1100" data-name="Path 1100" d="M870.652,185.144a2.806,2.806,0,0,1,.372,1.61,2.947,2.947,0,0,1-.372,1.611,1.147,1.147,0,0,1-1.053.558,1.216,1.216,0,0,1-1.053-.558,2.808,2.808,0,0,1-.372-1.611,2.946,2.946,0,0,1,.372-1.61,1.273,1.273,0,0,1,2.106,0Zm-1.611.309a4.667,4.667,0,0,0,0,2.6.622.622,0,0,0,.62.372.755.755,0,0,0,.62-.372,3.205,3.205,0,0,0,.185-1.3,3.421,3.421,0,0,0-.185-1.3.7.7,0,0,0-1.24,0Z" fill="#2b3c30"/>
        </g>
        <g id="Group_1306" data-name="Group 1306">
          <path id="Path_1101" data-name="Path 1101" d="M873.316,184.772a1.449,1.449,0,0,1,.434.434,1,1,0,0,1,.186.557,1.651,1.651,0,0,1-.186.744,5.224,5.224,0,0,1-.5.743c-.248.248-.619.62-1.053,1.115h1.859l-.062.5h-2.416v-.434c.557-.557.929-.991,1.177-1.239a3.717,3.717,0,0,0,.5-.681,1.118,1.118,0,0,0,.124-.62.64.64,0,0,0-.681-.681.9.9,0,0,0-.434.124,1.968,1.968,0,0,0-.434.371l-.371-.309a3.948,3.948,0,0,1,.557-.5,1.25,1.25,0,0,1,.682-.186A.556.556,0,0,1,873.316,184.772Z" fill="#2b3c30"/>
        </g>
      </g>
    </g>
    <g id="Group_1318" data-name="Group 1318">
      <g id="Group_1309" data-name="Group 1309">
        <path id="Path_1102" data-name="Path 1102" d="M784.6,248.74a18.54,18.54,0,0,0-1.868,1.817c1.543,1.336,7.3,4.147,13.674,3.393,6.358-.772,6.855-2.845,6.855-2.845-.771-.72-2.776-2.142-2.776-2.142" fill="#75b69b"/>
        <path id="Path_1103" data-name="Path 1103" d="M784.6,248.74a12.142,12.142,0,0,1,2.845-1.645c1.627-.651,1.319-1.4,1.713-4.832,0,0-1.7-2.262-1.8-3.5a3.077,3.077,0,0,1-1.679-2.981c-.1-2.4.856-1.988.856-1.988a7.155,7.155,0,0,1,2.622-6.374c3.273-2.759,8.551.034,9.63,1.9a6.769,6.769,0,0,1,.909,5.363c-.5,1.748.445,3.462-1.011,6.272-1.457,2.827-2.245,3.187-3.53,3.7l.051,1.474a1.2,1.2,0,0,0,.737.839c.617.223,4.558,1.988,4.558,1.988-1.44.017-2.913,1.045-8.259,1.045s-7.643-1.268-7.643-1.268" fill="#9e7054"/>
        <path id="Path_1104" data-name="Path 1104" d="M795.169,246.136a6.744,6.744,0,0,1-4.507-3.119c1.525,1.714,4.472,1.628,4.472,1.628Z" fill="#795644"/>
        <path id="Path_1105" data-name="Path 1105" d="M786.515,233.8s1.44.36,1.748,2.553h.206l-.035-2.279Z" fill="#282928"/>
        <path id="Path_1106" data-name="Path 1106" d="M795.906,246.975a44.886,44.886,0,0,1,4.558,1.988,26.768,26.768,0,0,1-8.26,1.045c-5.312,0-7.625-1.285-7.625-1.285a12.149,12.149,0,0,1,2.844-1.645s3.53,3.016,7.112,2.862c3.615-.137,1.371-2.965,1.371-2.965" fill="#5c8e77"/>
        <path id="Path_1107" data-name="Path 1107" d="M799.521,236.626a3.918,3.918,0,0,0-1.748-.48c-.908,0-2.416,0-2.416,2.416a8.615,8.615,0,0,0,.72,2.759" fill="url(#linear-gradient)"/>
        <path id="Path_1108" data-name="Path 1108" d="M794.415,237.054a4.307,4.307,0,0,0-2.262-.908c-1.337,0-2.074.445-2.074,1.131a1.55,1.55,0,0,0,1.2,1.456" fill="url(#linear-gradient-2)"/>
        <path id="Path_1109" data-name="Path 1109" d="M796.007,227.223c-.093.672-.658,6.2,3.648,7.629a6.778,6.778,0,0,0-.874-5.551A6.7,6.7,0,0,0,796.007,227.223Z" fill="#232322"/>
        <path id="Path_1110" data-name="Path 1110" d="M786.515,233.8a7.155,7.155,0,0,1,2.622-6.374c3.273-2.759,8.551.034,9.63,1.9a7.987,7.987,0,0,1-3.6,4.472c-2.9,1.731-8.654,0-8.654,0" fill="#282928"/>
      </g>
      <g id="Group_1310" data-name="Group 1310">
        <path id="Path_1111" data-name="Path 1111" d="M808.789,248.74a18.54,18.54,0,0,0-1.868,1.817c1.542,1.336,7.3,4.147,13.674,3.393,6.358-.772,6.855-2.845,6.855-2.845-.772-.72-2.776-2.142-2.776-2.142" fill="#75b69b"/>
        <path id="Path_1112" data-name="Path 1112" d="M808.789,248.74a12.148,12.148,0,0,1,2.844-1.645c1.628-.651,1.32-1.4,1.714-4.832,0,0-1.7-2.262-1.8-3.5a3.078,3.078,0,0,1-1.68-2.981c-.1-2.4.857-1.988.857-1.988a7.155,7.155,0,0,1,2.622-6.374c3.273-2.759,8.551.034,9.63,1.9a6.765,6.765,0,0,1,.908,5.363c-.5,1.748.446,3.462-1.011,6.272-1.456,2.827-2.244,3.187-3.53,3.7l.052,1.474a1.2,1.2,0,0,0,.737.839c.617.223,4.558,1.988,4.558,1.988-1.44.017-2.913,1.045-8.26,1.045s-7.642-1.268-7.642-1.268" fill="#9e7054"/>
        <path id="Path_1113" data-name="Path 1113" d="M819.362,246.136a6.74,6.74,0,0,1-4.507-3.119c1.525,1.714,4.472,1.628,4.472,1.628Z" fill="#795644"/>
        <path id="Path_1114" data-name="Path 1114" d="M810.708,233.8s1.44.36,1.748,2.553h.206l-.035-2.279Z" fill="#282928"/>
        <path id="Path_1115" data-name="Path 1115" d="M820.1,246.975a44.69,44.69,0,0,1,4.558,1.988,26.765,26.765,0,0,1-8.259,1.045c-5.312,0-7.625-1.285-7.625-1.285a12.122,12.122,0,0,1,2.844-1.645s3.53,3.016,7.112,2.862c3.615-.137,1.37-2.965,1.37-2.965" fill="#5c8e77"/>
        <path id="Path_1116" data-name="Path 1116" d="M823.714,236.626a3.917,3.917,0,0,0-1.748-.48c-.908,0-2.416,0-2.416,2.416a8.615,8.615,0,0,0,.72,2.759" fill="url(#linear-gradient-3)"/>
        <path id="Path_1117" data-name="Path 1117" d="M818.608,237.054a4.307,4.307,0,0,0-2.262-.908c-1.337,0-2.074.445-2.074,1.131a1.55,1.55,0,0,0,1.2,1.456" fill="url(#linear-gradient-2)"/>
        <path id="Path_1118" data-name="Path 1118" d="M820.2,227.223c-.093.672-.658,6.2,3.648,7.629a6.782,6.782,0,0,0-.874-5.551A6.7,6.7,0,0,0,820.2,227.223Z" fill="#232322"/>
        <path id="Path_1119" data-name="Path 1119" d="M810.708,233.8a7.155,7.155,0,0,1,2.622-6.374c3.273-2.759,8.551.034,9.63,1.9a7.987,7.987,0,0,1-3.6,4.472c-2.9,1.731-8.654,0-8.654,0" fill="#282928"/>
      </g>
      <g id="Group_1311" data-name="Group 1311">
        <path id="Path_1120" data-name="Path 1120" d="M846.653,256.18A18.482,18.482,0,0,0,844.785,258c1.542,1.337,7.3,4.147,13.674,3.393,6.358-.771,6.855-2.844,6.855-2.844-.772-.72-2.776-2.142-2.776-2.142" fill="#75b69b"/>
        <path id="Path_1121" data-name="Path 1121" d="M846.653,256.18a12.148,12.148,0,0,1,2.844-1.645c1.628-.651,1.32-1.4,1.714-4.832,0,0-1.7-2.262-1.8-3.5a3.079,3.079,0,0,1-1.679-2.982c-.1-2.4.856-1.987.856-1.987a7.156,7.156,0,0,1,2.622-6.375c3.273-2.759,8.551.035,9.63,1.9a6.767,6.767,0,0,1,.908,5.364c-.5,1.748.446,3.461-1.011,6.271-1.456,2.828-2.244,3.188-3.53,3.7l.052,1.473a1.2,1.2,0,0,0,.737.84c.617.223,4.558,1.988,4.558,1.988-1.44.017-2.913,1.045-8.26,1.045s-7.642-1.268-7.642-1.268" fill="#9e7054"/>
        <path id="Path_1122" data-name="Path 1122" d="M857.226,253.575a6.737,6.737,0,0,1-4.507-3.118c1.525,1.713,4.472,1.627,4.472,1.627Z" fill="#795644"/>
        <path id="Path_1123" data-name="Path 1123" d="M848.572,241.238s1.44.36,1.748,2.553h.206l-.035-2.279Z" fill="#282928"/>
        <path id="Path_1124" data-name="Path 1124" d="M857.962,254.415a44.692,44.692,0,0,1,4.558,1.988,26.765,26.765,0,0,1-8.259,1.045c-5.312,0-7.625-1.285-7.625-1.285a12.122,12.122,0,0,1,2.844-1.645s3.53,3.016,7.112,2.861c3.615-.137,1.37-2.964,1.37-2.964" fill="#5c8e77"/>
        <path id="Path_1125" data-name="Path 1125" d="M861.578,244.065a3.918,3.918,0,0,0-1.748-.48c-.908,0-2.416,0-2.416,2.416a8.616,8.616,0,0,0,.72,2.759" fill="url(#linear-gradient-5)"/>
        <path id="Path_1126" data-name="Path 1126" d="M856.472,244.493a4.307,4.307,0,0,0-2.262-.908c-1.337,0-2.074.446-2.074,1.131a1.551,1.551,0,0,0,1.2,1.457" fill="url(#linear-gradient-6)"/>
        <path id="Path_1127" data-name="Path 1127" d="M858.064,234.663c-.093.672-.658,6.2,3.648,7.629a6.777,6.777,0,0,0-.874-5.551A6.7,6.7,0,0,0,858.064,234.663Z" fill="#232322"/>
        <path id="Path_1128" data-name="Path 1128" d="M848.572,241.238a7.156,7.156,0,0,1,2.622-6.375c3.273-2.759,8.551.035,9.63,1.9a7.987,7.987,0,0,1-3.6,4.473c-2.9,1.73-8.654,0-8.654,0" fill="#282928"/>
      </g>
      <g id="Group_1312" data-name="Group 1312">
        <path id="Path_1129" data-name="Path 1129" d="M773.637,256.091a18.546,18.546,0,0,0-1.868,1.817c1.543,1.336,7.3,4.147,13.675,3.393,6.357-.772,6.854-2.845,6.854-2.845-.771-.72-2.776-2.142-2.776-2.142" fill="#75b69b"/>
        <path id="Path_1130" data-name="Path 1130" d="M773.637,256.091a12.182,12.182,0,0,1,2.845-1.645c1.628-.651,1.319-1.4,1.713-4.832,0,0-1.7-2.262-1.8-3.5a3.077,3.077,0,0,1-1.679-2.981c-.1-2.4.856-1.988.856-1.988a7.155,7.155,0,0,1,2.622-6.374c3.273-2.759,8.551.034,9.63,1.9a6.77,6.77,0,0,1,.909,5.363c-.5,1.748.445,3.462-1.011,6.272-1.457,2.827-2.245,3.187-3.53,3.7l.051,1.474a1.2,1.2,0,0,0,.737.839c.617.223,4.558,1.988,4.558,1.988-1.439.017-2.913,1.045-8.259,1.045s-7.643-1.268-7.643-1.268" fill="#9e7054"/>
        <path id="Path_1131" data-name="Path 1131" d="M784.21,253.487a6.744,6.744,0,0,1-4.507-3.119c1.525,1.714,4.473,1.628,4.473,1.628Z" fill="#795644"/>
        <path id="Path_1132" data-name="Path 1132" d="M775.556,241.149s1.44.36,1.748,2.553h.206l-.034-2.279Z" fill="#282928"/>
        <path id="Path_1133" data-name="Path 1133" d="M784.947,254.326a44.886,44.886,0,0,1,4.558,1.988,26.768,26.768,0,0,1-8.26,1.045c-5.312,0-7.625-1.285-7.625-1.285a12.141,12.141,0,0,1,2.845-1.645s3.529,3.016,7.111,2.862c3.615-.137,1.371-2.965,1.371-2.965" fill="#5c8e77"/>
        <path id="Path_1134" data-name="Path 1134" d="M788.562,243.977a3.918,3.918,0,0,0-1.748-.48c-.908,0-2.416,0-2.416,2.416a8.616,8.616,0,0,0,.72,2.759" fill="url(#linear-gradient-7)"/>
        <path id="Path_1135" data-name="Path 1135" d="M783.456,244.4a4.307,4.307,0,0,0-2.262-.908c-1.337,0-2.073.445-2.073,1.131a1.55,1.55,0,0,0,1.2,1.456" fill="url(#linear-gradient-8)"/>
        <path id="Path_1136" data-name="Path 1136" d="M785.048,234.574c-.093.672-.658,6.2,3.648,7.629a6.778,6.778,0,0,0-.874-5.551A6.7,6.7,0,0,0,785.048,234.574Z" fill="#232322"/>
        <path id="Path_1137" data-name="Path 1137" d="M775.556,241.149a7.155,7.155,0,0,1,2.622-6.374c3.273-2.759,8.551.034,9.63,1.9a7.987,7.987,0,0,1-3.6,4.472c-2.9,1.731-8.654,0-8.654,0" fill="#282928"/>
      </g>
      <g id="Group_1313" data-name="Group 1313">
        <path id="Path_1138" data-name="Path 1138" d="M797.83,256.091a18.546,18.546,0,0,0-1.868,1.817c1.542,1.336,7.3,4.147,13.674,3.393,6.358-.772,6.855-2.845,6.855-2.845-.771-.72-2.776-2.142-2.776-2.142" fill="#75b69b"/>
        <path id="Path_1139" data-name="Path 1139" d="M797.83,256.091a12.182,12.182,0,0,1,2.845-1.645c1.627-.651,1.319-1.4,1.713-4.832,0,0-1.7-2.262-1.8-3.5a3.077,3.077,0,0,1-1.679-2.981c-.1-2.4.856-1.988.856-1.988a7.155,7.155,0,0,1,2.622-6.374c3.273-2.759,8.551.034,9.63,1.9a6.765,6.765,0,0,1,.908,5.363c-.5,1.748.446,3.462-1.011,6.272-1.456,2.827-2.244,3.187-3.529,3.7l.051,1.474a1.2,1.2,0,0,0,.737.839c.617.223,4.558,1.988,4.558,1.988-1.44.017-2.913,1.045-8.26,1.045s-7.642-1.268-7.642-1.268" fill="#9e7054"/>
        <path id="Path_1140" data-name="Path 1140" d="M808.4,253.487a6.744,6.744,0,0,1-4.507-3.119c1.525,1.714,4.472,1.628,4.472,1.628Z" fill="#795644"/>
        <path id="Path_1141" data-name="Path 1141" d="M799.749,241.149s1.44.36,1.748,2.553h.206l-.035-2.279Z" fill="#282928"/>
        <path id="Path_1142" data-name="Path 1142" d="M809.139,254.326a44.785,44.785,0,0,1,4.559,1.988,26.775,26.775,0,0,1-8.26,1.045c-5.312,0-7.625-1.285-7.625-1.285a12.149,12.149,0,0,1,2.844-1.645s3.53,3.016,7.112,2.862c3.615-.137,1.37-2.965,1.37-2.965" fill="#5c8e77"/>
        <path id="Path_1143" data-name="Path 1143" d="M812.755,243.977a3.918,3.918,0,0,0-1.748-.48c-.908,0-2.416,0-2.416,2.416a8.616,8.616,0,0,0,.72,2.759" fill="url(#linear-gradient-7)"/>
        <path id="Path_1144" data-name="Path 1144" d="M807.649,244.4a4.307,4.307,0,0,0-2.262-.908c-1.337,0-2.074.445-2.074,1.131a1.55,1.55,0,0,0,1.2,1.456" fill="url(#linear-gradient-10)"/>
        <path id="Path_1145" data-name="Path 1145" d="M809.241,234.574c-.093.672-.658,6.2,3.648,7.629a6.778,6.778,0,0,0-.874-5.551A6.7,6.7,0,0,0,809.241,234.574Z" fill="#232322"/>
        <path id="Path_1146" data-name="Path 1146" d="M799.749,241.149a7.155,7.155,0,0,1,2.622-6.374c3.273-2.759,8.551.034,9.63,1.9a7.987,7.987,0,0,1-3.6,4.472c-2.9,1.731-8.654,0-8.654,0" fill="#282928"/>
      </g>
      <g id="Group_1314" data-name="Group 1314">
        <path id="Path_1147" data-name="Path 1147" d="M822.023,256.091a18.541,18.541,0,0,0-1.868,1.817c1.542,1.336,7.3,4.147,13.674,3.393,6.358-.772,6.855-2.845,6.855-2.845-.772-.72-2.776-2.142-2.776-2.142" fill="#75b69b"/>
        <path id="Path_1148" data-name="Path 1148" d="M822.023,256.091a12.188,12.188,0,0,1,2.844-1.645c1.628-.651,1.32-1.4,1.714-4.832,0,0-1.7-2.262-1.8-3.5a3.078,3.078,0,0,1-1.68-2.981c-.1-2.4.857-1.988.857-1.988a7.155,7.155,0,0,1,2.622-6.374c3.273-2.759,8.551.034,9.63,1.9a6.765,6.765,0,0,1,.908,5.363c-.5,1.748.446,3.462-1.011,6.272-1.456,2.827-2.244,3.187-3.53,3.7l.052,1.474a1.2,1.2,0,0,0,.737.839c.617.223,4.558,1.988,4.558,1.988-1.44.017-2.913,1.045-8.26,1.045s-7.642-1.268-7.642-1.268" fill="#9e7054"/>
        <path id="Path_1149" data-name="Path 1149" d="M832.6,253.487a6.74,6.74,0,0,1-4.507-3.119c1.525,1.714,4.472,1.628,4.472,1.628Z" fill="#795644"/>
        <path id="Path_1150" data-name="Path 1150" d="M823.942,241.149s1.439.36,1.748,2.553h.206l-.035-2.279Z" fill="#282928"/>
        <path id="Path_1151" data-name="Path 1151" d="M833.332,254.326a44.69,44.69,0,0,1,4.558,1.988,26.764,26.764,0,0,1-8.259,1.045c-5.312,0-7.625-1.285-7.625-1.285a12.122,12.122,0,0,1,2.844-1.645s3.53,3.016,7.112,2.862c3.615-.137,1.37-2.965,1.37-2.965" fill="#5c8e77"/>
        <path id="Path_1152" data-name="Path 1152" d="M836.948,243.977a3.923,3.923,0,0,0-1.748-.48c-.908,0-2.416,0-2.416,2.416a8.615,8.615,0,0,0,.72,2.759" fill="url(#linear-gradient-11)"/>
        <path id="Path_1153" data-name="Path 1153" d="M831.842,244.4a4.307,4.307,0,0,0-2.262-.908c-1.337,0-2.074.445-2.074,1.131a1.55,1.55,0,0,0,1.2,1.456" fill="url(#linear-gradient-10)"/>
        <path id="Path_1154" data-name="Path 1154" d="M833.434,234.574c-.093.672-.658,6.2,3.648,7.629a6.782,6.782,0,0,0-.874-5.551A6.705,6.705,0,0,0,833.434,234.574Z" fill="#232322"/>
        <path id="Path_1155" data-name="Path 1155" d="M823.942,241.149a7.155,7.155,0,0,1,2.622-6.374c3.273-2.759,8.55.034,9.63,1.9a7.987,7.987,0,0,1-3.6,4.472c-2.9,1.731-8.654,0-8.654,0" fill="#282928"/>
      </g>
      <g id="Group_1315" data-name="Group 1315">
        <path id="Path_1156" data-name="Path 1156" d="M787.1,263.441a18.541,18.541,0,0,0-1.868,1.817c1.542,1.336,7.3,4.146,13.674,3.392,6.357-.771,6.854-2.844,6.854-2.844-.771-.72-2.776-2.142-2.776-2.142" fill="#75b69b"/>
        <path id="Path_1157" data-name="Path 1157" d="M787.1,263.441a12.122,12.122,0,0,1,2.844-1.645c1.628-.651,1.32-1.4,1.714-4.832,0,0-1.7-2.262-1.8-3.5a3.078,3.078,0,0,1-1.679-2.981c-.1-2.4.857-1.988.857-1.988a7.154,7.154,0,0,1,2.622-6.374c3.273-2.759,8.55.034,9.63,1.9a6.768,6.768,0,0,1,.908,5.363c-.5,1.748.446,3.461-1.011,6.272-1.456,2.827-2.245,3.187-3.53,3.7l.052,1.474a1.194,1.194,0,0,0,.736.839c.617.223,4.558,1.988,4.558,1.988-1.439.017-2.913,1.045-8.259,1.045s-7.642-1.268-7.642-1.268" fill="#9e7054"/>
        <path id="Path_1158" data-name="Path 1158" d="M797.676,260.837a6.74,6.74,0,0,1-4.506-3.119c1.525,1.713,4.472,1.628,4.472,1.628Z" fill="#795644"/>
        <path id="Path_1159" data-name="Path 1159" d="M789.023,248.5s1.439.36,1.748,2.553h.205l-.034-2.279Z" fill="#282928"/>
        <path id="Path_1160" data-name="Path 1160" d="M798.413,261.676a44.691,44.691,0,0,1,4.558,1.988,26.764,26.764,0,0,1-8.259,1.045c-5.312,0-7.626-1.285-7.626-1.285a12.141,12.141,0,0,1,2.845-1.645s3.53,3.016,7.111,2.862c3.616-.137,1.371-2.965,1.371-2.965" fill="#5c8e77"/>
        <path id="Path_1161" data-name="Path 1161" d="M802.029,251.326a3.929,3.929,0,0,0-1.748-.479c-.908,0-2.416,0-2.416,2.416a8.625,8.625,0,0,0,.719,2.759" fill="url(#linear-gradient-13)"/>
        <path id="Path_1162" data-name="Path 1162" d="M796.922,251.755a4.307,4.307,0,0,0-2.262-.908c-1.336,0-2.073.445-2.073,1.131a1.55,1.55,0,0,0,1.2,1.456" fill="url(#linear-gradient-14)"/>
        <path id="Path_1163" data-name="Path 1163" d="M798.514,241.924c-.093.672-.657,6.2,3.649,7.629a6.778,6.778,0,0,0-.875-5.551A6.692,6.692,0,0,0,798.514,241.924Z" fill="#232322"/>
        <path id="Path_1164" data-name="Path 1164" d="M789.023,248.5a7.154,7.154,0,0,1,2.622-6.374c3.272-2.759,8.55.034,9.63,1.9a7.991,7.991,0,0,1-3.6,4.472c-2.9,1.731-8.653,0-8.653,0" fill="#282928"/>
      </g>
      <g id="Group_1316" data-name="Group 1316">
        <path id="Path_1165" data-name="Path 1165" d="M811.3,263.441a18.541,18.541,0,0,0-1.868,1.817c1.542,1.336,7.3,4.146,13.674,3.392,6.357-.771,6.854-2.844,6.854-2.844-.771-.72-2.776-2.142-2.776-2.142" fill="#75b69b"/>
        <path id="Path_1166" data-name="Path 1166" d="M811.3,263.441a12.122,12.122,0,0,1,2.844-1.645c1.628-.651,1.319-1.4,1.714-4.832,0,0-1.7-2.262-1.8-3.5a3.078,3.078,0,0,1-1.679-2.981c-.1-2.4.857-1.988.857-1.988a7.154,7.154,0,0,1,2.622-6.374c3.272-2.759,8.55.034,9.63,1.9a6.768,6.768,0,0,1,.908,5.363c-.5,1.748.445,3.461-1.011,6.272-1.457,2.827-2.245,3.187-3.53,3.7l.051,1.474a1.2,1.2,0,0,0,.737.839c.617.223,4.558,1.988,4.558,1.988-1.439.017-2.913,1.045-8.259,1.045s-7.642-1.268-7.642-1.268" fill="#9e7054"/>
        <path id="Path_1167" data-name="Path 1167" d="M821.869,260.837a6.744,6.744,0,0,1-4.507-3.119c1.526,1.713,4.473,1.628,4.473,1.628Z" fill="#795644"/>
        <path id="Path_1168" data-name="Path 1168" d="M813.216,248.5s1.439.36,1.748,2.553h.205l-.034-2.279Z" fill="#282928"/>
        <path id="Path_1169" data-name="Path 1169" d="M822.606,261.676a44.691,44.691,0,0,1,4.558,1.988,26.764,26.764,0,0,1-8.259,1.045c-5.312,0-7.626-1.285-7.626-1.285a12.141,12.141,0,0,1,2.845-1.645s3.53,3.016,7.111,2.862c3.616-.137,1.371-2.965,1.371-2.965" fill="#5c8e77"/>
        <path id="Path_1170" data-name="Path 1170" d="M826.222,251.326a3.929,3.929,0,0,0-1.748-.479c-.908,0-2.416,0-2.416,2.416a8.625,8.625,0,0,0,.719,2.759" fill="url(#linear-gradient-15)"/>
        <path id="Path_1171" data-name="Path 1171" d="M821.115,251.755a4.307,4.307,0,0,0-2.262-.908c-1.336,0-2.073.445-2.073,1.131a1.55,1.55,0,0,0,1.2,1.456" fill="url(#linear-gradient-16)"/>
        <path id="Path_1172" data-name="Path 1172" d="M822.707,241.924c-.093.672-.657,6.2,3.649,7.629a6.778,6.778,0,0,0-.875-5.551A6.692,6.692,0,0,0,822.707,241.924Z" fill="#232322"/>
        <path id="Path_1173" data-name="Path 1173" d="M813.216,248.5a7.155,7.155,0,0,1,2.621-6.374c3.273-2.759,8.551.034,9.631,1.9a7.991,7.991,0,0,1-3.6,4.472c-2.9,1.731-8.653,0-8.653,0" fill="#282928"/>
      </g>
      <g id="Group_1317" data-name="Group 1317">
        <path id="Path_1174" data-name="Path 1174" d="M835.489,263.441a18.588,18.588,0,0,0-1.867,1.817c1.542,1.336,7.3,4.146,13.674,3.392,6.357-.771,6.854-2.844,6.854-2.844-.771-.72-2.776-2.142-2.776-2.142" fill="#75b69b"/>
        <path id="Path_1175" data-name="Path 1175" d="M835.489,263.441a12.141,12.141,0,0,1,2.845-1.645c1.628-.651,1.319-1.4,1.713-4.832,0,0-1.7-2.262-1.8-3.5a3.078,3.078,0,0,1-1.679-2.981c-.1-2.4.857-1.988.857-1.988a7.155,7.155,0,0,1,2.621-6.374c3.273-2.759,8.551.034,9.631,1.9a6.768,6.768,0,0,1,.908,5.363c-.5,1.748.445,3.461-1.011,6.272-1.457,2.827-2.245,3.187-3.53,3.7l.051,1.474a1.2,1.2,0,0,0,.737.839c.617.223,4.558,1.988,4.558,1.988-1.439.017-2.913,1.045-8.259,1.045s-7.643-1.268-7.643-1.268" fill="#9e7054"/>
        <path id="Path_1176" data-name="Path 1176" d="M846.062,260.837a6.744,6.744,0,0,1-4.507-3.119c1.525,1.713,4.473,1.628,4.473,1.628Z" fill="#795644"/>
        <path id="Path_1177" data-name="Path 1177" d="M837.409,248.5s1.439.36,1.747,2.553h.206l-.034-2.279Z" fill="#282928"/>
        <path id="Path_1178" data-name="Path 1178" d="M846.8,261.676a44.691,44.691,0,0,1,4.558,1.988,26.764,26.764,0,0,1-8.259,1.045c-5.312,0-7.626-1.285-7.626-1.285a12.143,12.143,0,0,1,2.845-1.645s3.53,3.016,7.111,2.862c3.616-.137,1.371-2.965,1.371-2.965" fill="#5c8e77"/>
        <path id="Path_1179" data-name="Path 1179" d="M850.414,251.326a3.922,3.922,0,0,0-1.747-.479c-.909,0-2.416,0-2.416,2.416a8.625,8.625,0,0,0,.719,2.759" fill="url(#linear-gradient-17)"/>
        <path id="Path_1180" data-name="Path 1180" d="M845.308,251.755a4.307,4.307,0,0,0-2.262-.908c-1.336,0-2.073.445-2.073,1.131a1.55,1.55,0,0,0,1.2,1.456" fill="url(#linear-gradient-18)"/>
        <path id="Path_1181" data-name="Path 1181" d="M846.9,241.924c-.093.672-.657,6.2,3.649,7.629a6.782,6.782,0,0,0-.875-5.551A6.692,6.692,0,0,0,846.9,241.924Z" fill="#232322"/>
        <path id="Path_1182" data-name="Path 1182" d="M837.409,248.5a7.152,7.152,0,0,1,2.621-6.374c3.273-2.759,8.551.034,9.63,1.9a7.987,7.987,0,0,1-3.6,4.472c-2.9,1.731-8.653,0-8.653,0" fill="#282928"/>
      </g>
    </g>
    <g id="Group_1323" data-name="Group 1323">
      <g id="Group_1322" data-name="Group 1322">
        <line id="Line_36" data-name="Line 36" y2="7.611" transform="translate(817.185 195.28)" fill="none" stroke="#4e4d4d" stroke-linecap="round" stroke-linejoin="round" stroke-width="1.5"/>
        <circle id="Ellipse_135" data-name="Ellipse 135" cx="2.066" cy="2.066" r="2.066" transform="translate(815.119 203.517)" fill="none" stroke="#4e4d4d" stroke-linecap="round" stroke-linejoin="round" stroke-width="1.5"/>
        <g id="Group_1319" data-name="Group 1319">
          <path id="Path_1183" data-name="Path 1183" d="M803.725,162.991a4.87,4.87,0,1,0,0,9.741h27.307a4.87,4.87,0,0,0,0-9.741Z" fill="#68b699"/>
          <circle id="Ellipse_136" data-name="Ellipse 136" cx="1.357" cy="1.357" r="1.357" transform="translate(802.367 166.425)" fill="#fff"/>
          <circle id="Ellipse_137" data-name="Ellipse 137" cx="1.357" cy="1.357" r="1.357" transform="translate(807.637 166.425)" fill="#fff"/>
          <circle id="Ellipse_138" data-name="Ellipse 138" cx="1.357" cy="1.357" r="1.357" transform="translate(812.907 166.425)" fill="#fff"/>
        </g>
        <g id="Group_1320" data-name="Group 1320">
          <path id="Path_1184" data-name="Path 1184" d="M803.725,174.409a4.89,4.89,0,0,0-4.871,4.871,4.839,4.839,0,0,0,4.871,4.87h27.307a4.889,4.889,0,0,0,4.87-4.87,4.839,4.839,0,0,0-4.87-4.871Z" fill="#68b699"/>
          <circle id="Ellipse_139" data-name="Ellipse 139" cx="1.357" cy="1.357" r="1.357" transform="translate(802.367 177.922)" fill="#fff"/>
          <circle id="Ellipse_140" data-name="Ellipse 140" cx="1.357" cy="1.357" r="1.357" transform="translate(807.637 177.922)" fill="#fff"/>
          <circle id="Ellipse_141" data-name="Ellipse 141" cx="1.357" cy="1.357" r="1.357" transform="translate(812.907 177.922)" fill="#fff"/>
        </g>
        <g id="Group_1321" data-name="Group 1321">
          <path id="Path_1185" data-name="Path 1185" d="M803.725,185.827a4.89,4.89,0,0,0-4.871,4.871,4.839,4.839,0,0,0,4.871,4.87h27.307a4.889,4.889,0,0,0,4.87-4.87,4.839,4.839,0,0,0-4.87-4.871Z" fill="#68b699"/>
          <circle id="Ellipse_142" data-name="Ellipse 142" cx="1.357" cy="1.357" r="1.357" transform="translate(802.367 189.34)" fill="#fff"/>
          <circle id="Ellipse_143" data-name="Ellipse 143" cx="1.357" cy="1.357" r="1.357" transform="translate(807.637 189.34)" fill="#fff"/>
          <circle id="Ellipse_144" data-name="Ellipse 144" cx="1.357" cy="1.357" r="1.357" transform="translate(812.907 189.34)" fill="#fff"/>
        </g>
      </g>
      <circle id="Ellipse_145" data-name="Ellipse 145" cx="32.602" cy="32.602" r="32.602" transform="translate(784.584 150.064)" fill="none" stroke="#74b59b" stroke-linecap="round" stroke-width="1.5" stroke-dasharray="0.5 4"/>
    </g>
  </g>
</svg>
