<svg xmlns="http://www.w3.org/2000/svg" xmlns:xlink="http://www.w3.org/1999/xlink" width="422.79" height="182.72" viewBox="0 0 422.79 182.72">
  <defs>
    <style>
      .cls-1, .cls-14, .cls-2 {
        fill: none;
      }

      .cls-2 {
        stroke: #040506;
        stroke-miterlimit: 10;
        stroke-dasharray: 0.5 5;
      }

      .cls-14, .cls-2 {
        stroke-linecap: round;
        stroke-width: 1.5px;
      }

      .cls-3 {
        fill: #0f0e0d;
      }

      .cls-4 {
        fill: #201d1b;
      }

      .cls-5 {
        fill: #fff;
      }

      .cls-6 {
        fill: #dad9d9;
      }

      .cls-7 {
        clip-path: url(#clip-path);
      }

      .cls-8 {
        opacity: 0.2;
      }

      .cls-9 {
        fill: #868281;
      }

      .cls-10 {
        fill: #e99e02;
      }

      .cls-11 {
        fill: #5f5d5b;
      }

      .cls-12 {
        fill: #608f77;
      }

      .cls-13 {
        fill: #9c9696;
      }

      .cls-14 {
        stroke: #4e4d4d;
        stroke-linejoin: round;
      }

      .cls-15 {
        fill: #67b699;
      }

      .cls-16 {
        fill: #cbb9b0;
      }

      .cls-17 {
        fill: #a99b94;
      }

      .cls-18 {
        fill: #4a4744;
      }

      .cls-19 {
        fill: #5e4130;
      }

      .cls-20 {
        fill: #a77453;
      }

      .cls-21 {
        clip-path: url(#clip-path-2);
      }

      .cls-22 {
        fill: #32271f;
      }

      .cls-23 {
        fill: #5d5752;
      }

      .cls-24 {
        fill: #392a22;
      }

      .cls-25 {
        fill: #040506;
      }

      .cls-26 {
        fill: #74b59b;
      }

      .cls-27 {
        fill: #353637;
      }

      .cls-28, .cls-29 {
        isolation: isolate;
      }

      .cls-29 {
        font-size: 12px;
        fill: #161615;
        font-family: WorkSans-Bold, Work Sans;
        font-weight: 700;
      }

      .cls-30 {
        letter-spacing: -0.02em;
      }

      .cls-31 {
        letter-spacing: -0.03em;
      }

      .cls-32 {
        letter-spacing: -0.01em;
      }

      .cls-33 {
        letter-spacing: -0.02em;
      }

      .cls-34 {
        letter-spacing: -0.01em;
      }

      .cls-35 {
        letter-spacing: 0em;
      }

      .cls-36 {
        fill: #75b69b;
      }

      .cls-37 {
        fill: #9e7054;
      }

      .cls-38 {
        fill: #795644;
      }

      .cls-39 {
        fill: #282928;
      }

      .cls-40 {
        fill: #5c8e77;
      }

      .cls-41 {
        fill: url(#linear-gradient);
      }

      .cls-42 {
        fill: url(#linear-gradient-2);
      }

      .cls-43 {
        fill: #232322;
      }

      .cls-44 {
        letter-spacing: -0.02em;
      }

      .cls-45 {
        letter-spacing: -0.02em;
      }

      .cls-46 {
        fill: #333;
      }
    </style>
    <clipPath id="clip-path">
      <rect class="cls-1" x="206.8" y="39.65" width="42.37" height="27.19" rx="1.67"/>
    </clipPath>
    <clipPath id="clip-path-2">
      <path class="cls-1" d="M80.91,50.37s-.48,3.48,2,4.25l1-.19-.19-4.06Z"/>
    </clipPath>
    <linearGradient id="linear-gradient" x1="-3821.88" y1="449.61" x2="-3822.45" y2="450.07" gradientTransform="matrix(10.39, 0, 0, -12.91, 40050.21, 5870.73)" gradientUnits="userSpaceOnUse">
      <stop offset="0" stop-color="#9e7054"/>
      <stop offset="0.34" stop-color="#986b52"/>
      <stop offset="0.78" stop-color="#86604a"/>
      <stop offset="1" stop-color="#795644"/>
    </linearGradient>
    <linearGradient id="linear-gradient-2" x1="-3836.46" y1="480.07" x2="-3836.65" y2="480.93" gradientTransform="matrix(10.81, 0, 0, -6.45, 41828.96, 3128.49)" gradientUnits="userSpaceOnUse">
      <stop offset="0" stop-color="#9e7054"/>
      <stop offset="0.35" stop-color="#9a6d52"/>
      <stop offset="0.68" stop-color="#8d654d"/>
      <stop offset="1" stop-color="#795644"/>
    </linearGradient>
  </defs>
  <g id="Layer_1" data-name="Layer 1">
    <g>
      <g>
        <line id="Line_40" data-name="Line 40" class="cls-2" x1="333.3" y1="93.87" x2="147.79" y2="93.87"/>
        <g id="Group_1419" data-name="Group 1419">
          <g id="Group_1378" data-name="Group 1378">
            <g id="Group_1377" data-name="Group 1377">
              <g id="Group_1372" data-name="Group 1372">
                <g id="Group_1364" data-name="Group 1364">
                  <path id="Path_1212" data-name="Path 1212" class="cls-3" d="M249.32,79.12H206.65V70.34h42.67ZM207,78.82H249V70.65H207Z"/>
                </g>
                <g id="Group_1371" data-name="Group 1371">
                  <g id="Group_1365" data-name="Group 1365">
                    <path id="Path_1213" data-name="Path 1213" class="cls-4" d="M210,76.11l.59-1.08-1.09-.5.3-.79L211,74l.1-1.18h.79l.1,1.28,1.18-.29.29.79-1.08.49.59,1.08-.69.49-.79-.88-.88.88Z"/>
                  </g>
                  <g id="Group_1366" data-name="Group 1366">
                    <path id="Path_1214" data-name="Path 1214" class="cls-4" d="M214.69,76.11l.59-1.08-1.09-.5.3-.79,1.18.3.1-1.18h.79l.1,1.28,1.18-.29.3.79-1.08.49.59,1.08-.69.49-.79-.88-.88.88Z"/>
                  </g>
                  <g id="Group_1367" data-name="Group 1367">
                    <path id="Path_1215" data-name="Path 1215" class="cls-4" d="M219.42,76.11,220,75l-1.09-.5.3-.79,1.18.3.1-1.18h.79l.1,1.28,1.19-.29.29.79-1.08.49.59,1.08-.69.49-.79-.88-.89.88Z"/>
                  </g>
                  <g id="Group_1368" data-name="Group 1368">
                    <path id="Path_1216" data-name="Path 1216" class="cls-4" d="M224.24,76.11l.59-1.08-1.08-.5.3-.79,1.18.3.1-1.18h.79l.1,1.28,1.18-.29.3.79-1.08.49.59,1.08-.69.49-.79-.88-.89.88Z"/>
                  </g>
                  <g id="Group_1369" data-name="Group 1369">
                    <path id="Path_1217" data-name="Path 1217" class="cls-4" d="M229,76.11l.59-1.08-1.08-.5.3-.79L230,74l.1-1.18h.79l.1,1.28,1.18-.29.3.79-1.09.49.6,1.08-.69.49-.79-.88-.89.88Z"/>
                  </g>
                  <g id="Group_1370" data-name="Group 1370">
                    <path id="Path_1218" data-name="Path 1218" class="cls-4" d="M233.7,76.11l.59-1.08-1.08-.5.3-.79,1.18.3.1-1.18h.79l.1,1.28,1.18-.29.3.79-1.08.49.59,1.08-.69.49-.79-.88-.89.88Z"/>
                  </g>
                </g>
              </g>
              <g id="Group_1373" data-name="Group 1373">
                <circle id="Ellipse_160" data-name="Ellipse 160" class="cls-4" cx="244.15" cy="78.97" r="2.76"/>
              </g>
              <g id="Group_1374" data-name="Group 1374">
                <path id="Path_1219" data-name="Path 1219" class="cls-4" d="M244.15,80.55a1.82,1.82,0,0,1-1.78-1.78v-3a1.78,1.78,0,1,1,3.56-.09v3.14A1.83,1.83,0,0,1,244.15,80.55Zm0-6A1.21,1.21,0,0,0,243,75.72v3a1.18,1.18,0,1,0,2.35,0h0v-3a1.2,1.2,0,0,0-1.17-1.18Z"/>
              </g>
              <g id="Group_1375" data-name="Group 1375">
                <circle id="Ellipse_161" data-name="Ellipse 161" class="cls-5" cx="244.15" cy="78.97" r="0.59"/>
              </g>
              <g id="Group_1376" data-name="Group 1376">
                <rect id="Rectangle_202" data-name="Rectangle 202" class="cls-5" x="243.85" y="79.16" width="0.49" height="1.48"/>
              </g>
            </g>
          </g>
          <g id="Group_1418" data-name="Group 1418">
            <g id="Group_1379" data-name="Group 1379">
              <path id="Path_1220" data-name="Path 1220" class="cls-6" d="M208.48,66.85a1.73,1.73,0,0,1-1.68-1.68V41.33a1.73,1.73,0,0,1,1.68-1.68h39a1.72,1.72,0,0,1,1.67,1.68V65.17a1.72,1.72,0,0,1-1.67,1.68Z"/>
            </g>
            <g id="Group_1393" data-name="Group 1393">
              <g id="Group_1392" data-name="Group 1392">
                <g id="Group_1391" data-name="Group 1391">
                  <g id="Group_1390" data-name="Group 1390">
                    <g class="cls-7">
                      <g id="Group_1389" data-name="Group 1389">
                        <g id="Group_1388" data-name="Group 1388" class="cls-8">
                          <g id="Group_1380" data-name="Group 1380">
                            <path id="Path_1221" data-name="Path 1221" class="cls-9" d="M251.73,63.51a11.15,11.15,0,1,1,11.15-11.15A11.15,11.15,0,0,1,251.73,63.51Zm0-21.67a10.53,10.53,0,1,0,10.53,10.52,10.52,10.52,0,0,0-10.53-10.52Z"/>
                          </g>
                          <g id="Group_1381" data-name="Group 1381">
                            <path id="Path_1222" data-name="Path 1222" class="cls-9" d="M251.73,63.61a.31.31,0,0,1-.31-.31h0V41.52a.31.31,0,0,1,.31-.31.32.32,0,0,1,.31.31V63.3A.31.31,0,0,1,251.73,63.61Z"/>
                          </g>
                          <g id="Group_1386" data-name="Group 1386">
                            <g id="Group_1382" data-name="Group 1382">
                              <path id="Path_1223" data-name="Path 1223" class="cls-9" d="M251.53,63.51a.28.28,0,0,1-.18-.06c-4.07-3.05-6.32-7-6.34-11s2.24-8,6.33-11.16a.31.31,0,0,1,.38.5c-3.94,3-6.1,6.79-6.08,10.66S247.81,60,251.72,63a.3.3,0,0,1,.06.43.31.31,0,0,1-.25.13Z"/>
                            </g>
                            <g id="Group_1383" data-name="Group 1383">
                              <path id="Path_1224" data-name="Path 1224" class="cls-9" d="M251.83,63.51a.31.31,0,0,1-.18-.56c3.9-2.93,6.06-6.66,6.08-10.51s-2.15-7.67-6.09-10.67a.31.31,0,1,1,.38-.5c4.1,3.12,6.35,7.09,6.33,11.17s-2.26,8-6.33,11A.31.31,0,0,1,251.83,63.51Z"/>
                            </g>
                            <g id="Group_1384" data-name="Group 1384">
                              <path id="Path_1225" data-name="Path 1225" class="cls-9" d="M251.67,59.08c-4.06,0-8-2.25-11.12-6.33a.31.31,0,0,1,.06-.44.32.32,0,0,1,.44.06h0c3,3.93,6.76,6.09,10.63,6.09h0c3.84,0,7.58-2.18,10.51-6.09a.32.32,0,0,1,.44-.06.33.33,0,0,1,.06.44c-3.05,4.07-7,6.31-11,6.33Z"/>
                            </g>
                            <g id="Group_1385" data-name="Group 1385">
                              <path id="Path_1226" data-name="Path 1226" class="cls-9" d="M262.47,52.58a.33.33,0,0,1-.25-.13c-2.93-3.91-6.66-6.07-10.51-6.08h0c-3.86,0-7.63,2.16-10.63,6.08a.31.31,0,0,1-.43.07.32.32,0,0,1-.07-.44c3.13-4.1,7.09-6.35,11.17-6.33s8,2.26,11,6.33a.3.3,0,0,1-.06.43.26.26,0,0,1-.19.07Z"/>
                            </g>
                          </g>
                          <g id="Group_1387" data-name="Group 1387">
                            <path id="Path_1227" data-name="Path 1227" class="cls-9" d="M262.57,52.68H240.9a.31.31,0,0,1-.3-.33.32.32,0,0,1,.3-.3h21.67a.32.32,0,0,1,0,.63Z"/>
                          </g>
                        </g>
                      </g>
                    </g>
                  </g>
                </g>
              </g>
            </g>
            <g id="Group_1405" data-name="Group 1405">
              <g id="Group_1394" data-name="Group 1394">
                <path id="Path_1228" data-name="Path 1228" class="cls-10" d="M244.25,49.21v6.4a1.56,1.56,0,0,1-1.54,1.58h-5.56a1.57,1.57,0,0,1-1.58-1.54V49.21a1.56,1.56,0,0,1,1.54-1.58h5.56A1.64,1.64,0,0,1,244.25,49.21Z"/>
                <path id="Path_1229" data-name="Path 1229" class="cls-11" d="M242.67,57.34h-5.52a1.71,1.71,0,0,1-1.72-1.69V49.21a1.69,1.69,0,0,1,1.68-1.72h5.58a1.75,1.75,0,0,1,1.7,1.72v6.4a1.71,1.71,0,0,1-1.68,1.73Zm-5.52-9.56a1.42,1.42,0,0,0-1.43,1.4v6.43a1.42,1.42,0,0,0,1.4,1.43h5.55a1.42,1.42,0,0,0,1.43-1.4V49.21a1.49,1.49,0,0,0-1.44-1.43Z"/>
              </g>
              <g id="Group_1395" data-name="Group 1395">
                <path id="Path_1230" data-name="Path 1230" class="cls-11" d="M241.19,51.43h-2.76a.93.93,0,0,1-.93-.92V47.73a.14.14,0,0,1,.14-.14.14.14,0,0,1,.15.14h0v2.76a.63.63,0,0,0,.62.64h2.78a.63.63,0,0,0,.64-.61V47.73a.15.15,0,1,1,.3,0h0v2.76a.93.93,0,0,1-.92.94Z"/>
              </g>
              <g id="Group_1396" data-name="Group 1396">
                <path id="Path_1231" data-name="Path 1231" class="cls-11" d="M242.08,57.33a.15.15,0,0,1-.15-.15h0V54.53a.63.63,0,0,0-.61-.64h-2.79a.63.63,0,0,0-.64.61v2.69a.14.14,0,0,1-.15.14.14.14,0,0,1-.14-.14V54.53a.91.91,0,0,1,.91-.93h2.78a.93.93,0,0,1,.94.92h0v2.66A.15.15,0,0,1,242.08,57.33Z"/>
              </g>
              <g id="Group_1397" data-name="Group 1397">
                <path id="Path_1232" data-name="Path 1232" class="cls-11" d="M238.63,53.89a.15.15,0,0,1-.15-.15h0V51.28a.15.15,0,0,1,.3,0v2.46a.15.15,0,0,1-.15.15Z"/>
              </g>
              <g id="Group_1398" data-name="Group 1398">
                <path id="Path_1233" data-name="Path 1233" class="cls-11" d="M241.09,53.89a.15.15,0,0,1-.14-.15h0V51.28a.15.15,0,0,1,.14-.15.15.15,0,0,1,.15.15v2.46a.15.15,0,0,1-.15.15Z"/>
              </g>
              <g id="Group_1399" data-name="Group 1399">
                <path id="Path_1234" data-name="Path 1234" class="cls-11" d="M239.91,57.33a.15.15,0,0,1-.15-.15h0V53.74a.15.15,0,0,1,.3,0v3.45A.15.15,0,0,1,239.91,57.33Z"/>
              </g>
              <g id="Group_1400" data-name="Group 1400">
                <path id="Path_1235" data-name="Path 1235" class="cls-11" d="M239.91,51.43a.15.15,0,0,1-.15-.15h0V47.73a.15.15,0,0,1,.3,0v3.55a.15.15,0,0,1-.15.15Z"/>
              </g>
              <g id="Group_1401" data-name="Group 1401">
                <path id="Path_1236" data-name="Path 1236" class="cls-11" d="M237.74,55.07h-2.07a.14.14,0,0,1-.14-.15.14.14,0,0,1,.14-.14h2.07a.15.15,0,0,1,.15.14A.15.15,0,0,1,237.74,55.07Z"/>
              </g>
              <g id="Group_1402" data-name="Group 1402">
                <path id="Path_1237" data-name="Path 1237" class="cls-11" d="M244.25,55.07h-2.16a.14.14,0,0,1-.15-.15.14.14,0,0,1,.15-.14h2.16a.14.14,0,0,1,.14.14A.14.14,0,0,1,244.25,55.07Z"/>
              </g>
              <g id="Group_1403" data-name="Group 1403">
                <path id="Path_1238" data-name="Path 1238" class="cls-11" d="M244.25,50.24H242a.15.15,0,0,1-.15-.14A.15.15,0,0,1,242,50h2.27a.15.15,0,0,1,.14.15A.14.14,0,0,1,244.25,50.24Z"/>
              </g>
              <g id="Group_1404" data-name="Group 1404">
                <path id="Path_1239" data-name="Path 1239" class="cls-11" d="M237.63,50.24h-2a.15.15,0,0,1-.15-.14.15.15,0,0,1,.15-.15h2a.15.15,0,0,1,.15.15A.15.15,0,0,1,237.63,50.24Z"/>
              </g>
            </g>
            <g id="Group_1406" data-name="Group 1406">
              <rect id="Rectangle_204" data-name="Rectangle 204" class="cls-12" x="208.87" y="47.73" width="20.2" height="1.87"/>
            </g>
            <g id="Group_1415" data-name="Group 1415">
              <g id="Group_1407" data-name="Group 1407">
                <rect id="Rectangle_205" data-name="Rectangle 205" class="cls-12" x="208.87" y="54.24" width="0.49" height="2.76"/>
              </g>
              <g id="Group_1408" data-name="Group 1408">
                <rect id="Rectangle_206" data-name="Rectangle 206" class="cls-12" x="209.76" y="54.24" width="1.58" height="2.76"/>
              </g>
              <g id="Group_1409" data-name="Group 1409">
                <rect id="Rectangle_207" data-name="Rectangle 207" class="cls-12" x="211.53" y="54.24" width="2.56" height="2.76"/>
              </g>
              <g id="Group_1410" data-name="Group 1410">
                <rect id="Rectangle_208" data-name="Rectangle 208" class="cls-12" x="214.39" y="54.24" width="1.18" height="2.76"/>
              </g>
              <g id="Group_1411" data-name="Group 1411">
                <rect id="Rectangle_209" data-name="Rectangle 209" class="cls-12" x="215.97" y="54.24" width="0.59" height="2.76"/>
              </g>
              <g id="Group_1412" data-name="Group 1412">
                <rect id="Rectangle_210" data-name="Rectangle 210" class="cls-12" x="216.85" y="54.24" width="3.25" height="2.76"/>
              </g>
              <g id="Group_1413" data-name="Group 1413">
                <rect id="Rectangle_211" data-name="Rectangle 211" class="cls-12" x="220.3" y="54.24" width="2.07" height="2.76"/>
              </g>
              <g id="Group_1414" data-name="Group 1414">
                <rect id="Rectangle_212" data-name="Rectangle 212" class="cls-12" x="222.67" y="54.24" width="0.39" height="2.76"/>
              </g>
            </g>
            <g id="Group_1416" data-name="Group 1416">
              <rect id="Rectangle_213" data-name="Rectangle 213" class="cls-13" x="206.9" y="62.31" width="42.27" height="0.79"/>
            </g>
            <g id="Group_1417" data-name="Group 1417">
              <path id="Path_1240" data-name="Path 1240" class="cls-13" d="M210.33,42.51l-.17.16a.51.51,0,0,0-.46-.26c-.22,0-.32.1-.32.23s.05.16.24.21l.31.07c.3.06.41.2.41.4s-.25.46-.61.46a.8.8,0,0,1-.68-.32l.17-.17a.57.57,0,0,0,.52.28c.21,0,.34-.08.34-.23s-.05-.16-.21-.2l-.34-.07c-.28-.06-.41-.2-.41-.4s.22-.47.6-.47A.68.68,0,0,1,210.33,42.51Z"/>
              <path id="Path_1241" data-name="Path 1241" class="cls-13" d="M212.73,43.76h-.23v-.89l0-.42h0l-.47,1.31h-.21l-.46-1.31h0v1.31h-.23V42.22h.37l.31.89.11.37h0l.11-.37.3-.89h.37Z"/>
              <path id="Path_1242" data-name="Path 1242" class="cls-13" d="M214.52,43.36h-.65l-.14.4h-.26l.58-1.54h.3l.58,1.54h-.26Zm-.07-.2-.18-.5-.07-.22h0l-.06.22-.19.5Z"/>
              <path id="Path_1243" data-name="Path 1243" class="cls-13" d="M216.63,43.76l-.39-.61h-.33v.61h-.25V42.22h.63c.33,0,.54.18.54.46a.42.42,0,0,1-.33.43l.42.65Zm-.72-.82h.36c.2,0,.3-.08.3-.25s-.1-.26-.3-.26h-.36Z"/>
              <path id="Path_1244" data-name="Path 1244" class="cls-13" d="M218.81,42.44h-.53v1.32H218V42.44h-.52v-.22h1.3Z"/>
              <path id="Path_1245" data-name="Path 1245" class="cls-13" d="M221.38,43.79a.8.8,0,0,1,0-1.59.61.61,0,0,1,.61.38l-.23.1a.36.36,0,0,0-.37-.26c-.29,0-.48.21-.48.57s.18.58.47.58a.39.39,0,0,0,.4-.29l.23.08A.64.64,0,0,1,221.38,43.79Z"/>
              <path id="Path_1246" data-name="Path 1246" class="cls-13" d="M223.67,43.36H223l-.15.4h-.25l.58-1.54h.3l.58,1.54h-.27Zm-.08-.2-.18-.5-.07-.22h0l-.07.22-.18.5Z"/>
              <path id="Path_1247" data-name="Path 1247" class="cls-13" d="M225.78,43.76l-.39-.61h-.33v.61h-.25V42.22h.63c.33,0,.54.18.54.46a.42.42,0,0,1-.34.43l.43.65Zm-.72-.82h.36c.2,0,.3-.08.3-.25s-.1-.26-.3-.26h-.36Z"/>
              <path id="Path_1248" data-name="Path 1248" class="cls-13" d="M228.15,43a.7.7,0,0,1-.62.77.33.33,0,0,1-.14,0h-.55V42.22h.55a.7.7,0,0,1,.76.63A.33.33,0,0,1,228.15,43Zm-.26,0c0-.35-.18-.56-.5-.56h-.29v1.12h.29C227.71,43.55,227.89,43.35,227.89,43Z"/>
            </g>
          </g>
        </g>
      </g>
      <g id="Group_2831" data-name="Group 2831">
        <g id="Group_1363" data-name="Group 1363">
          <g id="Group_1329" data-name="Group 1329">
            <line id="Line_37" data-name="Line 37" class="cls-14" x1="52.41" y1="119.48" x2="52.41" y2="128.09"/>
            <circle id="Ellipse_146" data-name="Ellipse 146" class="cls-14" cx="52.41" cy="131.14" r="2.34"/>
            <g id="Group_1326" data-name="Group 1326">
              <path id="Path_1186" data-name="Path 1186" class="cls-15" d="M36.66,83a5.62,5.62,0,1,0,0,11.23H68.16a5.62,5.62,0,0,0,0-11.23Z"/>
              <circle id="Ellipse_147" data-name="Ellipse 147" class="cls-5" cx="36.66" cy="88.55" r="1.57"/>
              <circle id="Ellipse_148" data-name="Ellipse 148" class="cls-5" cx="42.74" cy="88.55" r="1.57"/>
              <circle id="Ellipse_149" data-name="Ellipse 149" class="cls-5" cx="48.82" cy="88.55" r="1.57"/>
            </g>
            <g id="Group_1327" data-name="Group 1327">
              <path id="Path_1187" data-name="Path 1187" class="cls-15" d="M36.66,96.2a5.62,5.62,0,0,0-.08,11.24H68.16a5.62,5.62,0,0,0,.07-11.24H36.66Z"/>
              <circle id="Ellipse_150" data-name="Ellipse 150" class="cls-5" cx="36.66" cy="101.82" r="1.57"/>
              <circle id="Ellipse_151" data-name="Ellipse 151" class="cls-5" cx="42.74" cy="101.82" r="1.57"/>
              <circle id="Ellipse_152" data-name="Ellipse 152" class="cls-5" cx="48.82" cy="101.82" r="1.57"/>
            </g>
            <g id="Group_1328" data-name="Group 1328">
              <path id="Path_1188" data-name="Path 1188" class="cls-15" d="M36.66,109.37A5.64,5.64,0,0,0,31,115a5.58,5.58,0,0,0,5.54,5.62H68.16a5.62,5.62,0,0,0,.07-11.24H36.66Z"/>
              <circle id="Ellipse_153" data-name="Ellipse 153" class="cls-5" cx="36.66" cy="114.99" r="1.57"/>
              <circle id="Ellipse_154" data-name="Ellipse 154" class="cls-5" cx="42.74" cy="114.99" r="1.57"/>
              <circle id="Ellipse_155" data-name="Ellipse 155" class="cls-5" cx="48.82" cy="114.99" r="1.57"/>
            </g>
          </g>
          <g id="Group_1355" data-name="Group 1355">
            <g id="Group_1330" data-name="Group 1330">
              <path id="Path_1189" data-name="Path 1189" class="cls-16" d="M110.14,29.1H59.39a2.92,2.92,0,0,0-3,2.87.17.17,0,0,0,0,.1V63a2.9,2.9,0,0,0,2.86,3h50.85a2.9,2.9,0,0,0,3-2.86v-31a2.92,2.92,0,0,0-2.86-3Z"/>
            </g>
            <g id="Group_1331" data-name="Group 1331">
              <path id="Path_1190" data-name="Path 1190" class="cls-5" d="M110.14,65.15H59.39A2.14,2.14,0,0,1,57.22,63v-31a2.15,2.15,0,0,1,2.12-2.18h50.8A2.15,2.15,0,0,1,112.31,32V63a2.14,2.14,0,0,1-2.12,2.17Zm-50.75-35a1.92,1.92,0,0,0-2,1.91V63a1.92,1.92,0,0,0,1.91,2h50.79a1.93,1.93,0,0,0,2-1.91V32.07a1.92,1.92,0,0,0-1.91-1.95H59.39Z"/>
            </g>
            <path id="Path_1191" data-name="Path 1191" class="cls-17" d="M61,65.94V36.66a2.91,2.91,0,0,1,2.87-3H113v-.83h-49a3.76,3.76,0,0,0-3.79,3.71V65.94Z"/>
            <g id="Group_1332" data-name="Group 1332">
              <path id="Path_1192" data-name="Path 1192" class="cls-16" d="M114.6,33.8H63.85a2.92,2.92,0,0,0-3,2.87v31a2.91,2.91,0,0,0,2.86,3H114.6a2.91,2.91,0,0,0,3-2.87v-31a2.91,2.91,0,0,0-2.86-3Z"/>
            </g>
            <g id="Group_1333" data-name="Group 1333">
              <path id="Path_1193" data-name="Path 1193" class="cls-5" d="M114.65,69.85H63.9a2.16,2.16,0,0,1-2.18-2.12v-31a2.15,2.15,0,0,1,2.13-2.17h50.8a2.15,2.15,0,0,1,2.17,2.13v31a2.15,2.15,0,0,1-2.13,2.17Zm-50.75-35A1.93,1.93,0,0,0,62,36.72v31a1.93,1.93,0,0,0,1.9,1.95h50.8a1.94,1.94,0,0,0,1.95-1.91v-31a1.94,1.94,0,0,0-1.91-1.95H63.9Z"/>
            </g>
            <g id="Group_1334" data-name="Group 1334">
              <path id="Path_1194" data-name="Path 1194" class="cls-16" d="M119.26,38.39H68.51a2.92,2.92,0,0,0-3,2.87v31a2.9,2.9,0,0,0,2.86,3h50.85a2.9,2.9,0,0,0,3-2.86v-31a2.92,2.92,0,0,0-2.86-3Z"/>
            </g>
            <g id="Group_1335" data-name="Group 1335">
              <rect id="Rectangle_199" data-name="Rectangle 199" class="cls-5" x="92.98" y="49.09" width="0.51" height="17.78"/>
            </g>
            <g id="Group_1341" data-name="Group 1341">
              <g id="Group_1337" data-name="Group 1337">
                <path id="Path_1195" data-name="Path 1195" class="cls-18" d="M114.37,58.55H98.91a.45.45,0,1,1,0-.89h15.46a.45.45,0,0,1,0,.89Z"/>
              </g>
              <g id="Group_1338" data-name="Group 1338">
                <path id="Path_1196" data-name="Path 1196" class="cls-18" d="M114.37,53.71H98.91a.89.89,0,0,1,0-1.78h15.46a.89.89,0,0,1,0,1.78Z"/>
              </g>
              <g id="Group_1339" data-name="Group 1339">
                <path id="Path_1197" data-name="Path 1197" class="cls-18" d="M114.37,61.38H98.91a.45.45,0,1,1,0-.89h15.46a.45.45,0,0,1,0,.89Z"/>
              </g>
              <g id="Group_1340" data-name="Group 1340">
                <path id="Path_1198" data-name="Path 1198" class="cls-18" d="M109.73,64.21H98.91a.45.45,0,0,1,0-.89h10.82a.45.45,0,1,1,0,.89S109.75,64.22,109.73,64.21Z"/>
              </g>
            </g>
            <g id="Group_1342" data-name="Group 1342">
              <path id="Path_1199" data-name="Path 1199" class="cls-5" d="M119.26,74.57H68.51a2.14,2.14,0,0,1-2.17-2.12v-31a2.16,2.16,0,0,1,2.13-2.18h50.79a2.15,2.15,0,0,1,2.17,2.13v31a2.15,2.15,0,0,1-2.13,2.17Zm-50.75-35a1.92,1.92,0,0,0-2,1.9v31a1.92,1.92,0,0,0,1.91,1.95h50.79a1.92,1.92,0,0,0,1.95-1.91V41.49a1.92,1.92,0,0,0-1.91-2H68.51Z"/>
            </g>
            <g id="Group_1354" data-name="Group 1354">
              <g id="Group_1343" data-name="Group 1343">
                <path id="Path_1200" data-name="Path 1200" class="cls-19" d="M74.34,62.54a8.93,8.93,0,0,0-1.06,1.07A11.68,11.68,0,0,0,81,65.54c3.57-.39,3.86-1.64,3.86-1.64l-1.55-1.26"/>
              </g>
              <g id="Group_1344" data-name="Group 1344">
                <path id="Path_1201" data-name="Path 1201" class="cls-20" d="M74.34,62.54a6.59,6.59,0,0,1,1.64-1c.87-.39.77-.78,1-2.71a6.52,6.52,0,0,1-1.07-1.93,1.71,1.71,0,0,1-1-1.64c-.1-1.35.48-1.16.48-1.16a4,4,0,0,1,1.45-3.58c1.84-1.54,4.83,0,5.41,1.07a3.75,3.75,0,0,1,.48,3c-.29,1,.29,1.93-.58,3.58s-1.25,1.83-2,2.12v.87s.1.39.38.48,2.61,1.16,2.61,1.16a22.66,22.66,0,0,1-4.64.58,9.58,9.58,0,0,1-4.15-.87"/>
              </g>
              <g id="Group_1351" data-name="Group 1351">
                <g id="Group_1347" data-name="Group 1347">
                  <g class="cls-21">
                    <g id="Group_1346" data-name="Group 1346">
                      <g id="Group_1345" data-name="Group 1345">
                        <path id="Path_1202" data-name="Path 1202" class="cls-22" d="M74.34,62.54a6.59,6.59,0,0,1,1.64-1c.87-.39.77-.78,1-2.71a6.52,6.52,0,0,1-1.07-1.93,1.71,1.71,0,0,1-1-1.64c-.1-1.35.48-1.16.48-1.16a4,4,0,0,1,1.45-3.58c1.84-1.54,4.83,0,5.41,1.07a3.75,3.75,0,0,1,.48,3c-.29,1,.29,1.93-.58,3.58s-1.25,1.83-2,2.12v.87s.1.39.38.48a10,10,0,0,1,2.61,1.16,15.09,15.09,0,0,1-4.63.58,9.59,9.59,0,0,1-4.16-.87"/>
                      </g>
                    </g>
                  </g>
                </g>
                <g id="Group_1350" data-name="Group 1350">
                  <g class="cls-21">
                    <g id="Group_1349" data-name="Group 1349">
                      <g id="Group_1348" data-name="Group 1348">
                        <path id="Path_1204" data-name="Path 1204" class="cls-23" d="M80.43,61.09a3.72,3.72,0,0,1-2.52-1.73,3.82,3.82,0,0,0,2.52,1Z"/>
                      </g>
                    </g>
                  </g>
                </g>
              </g>
              <g id="Group_1352" data-name="Group 1352">
                <path id="Path_1206" data-name="Path 1206" class="cls-24" d="M77,50.47A4,4,0,0,0,75.5,54s.77.2,1,1.45h.1V54.33c1.07.2,2.8.39,3.77-.29a4.44,4.44,0,0,0,2-2.51C81.78,50.47,78.78,48.92,77,50.47Z"/>
              </g>
              <g id="Group_1353" data-name="Group 1353">
                <path id="Path_1207" data-name="Path 1207" class="cls-19" d="M80.81,61.58a13.23,13.23,0,0,1,2.61,1.16,15.47,15.47,0,0,1-4.64.58,9.36,9.36,0,0,1-4.34-.78,6.42,6.42,0,0,1,1.64-1,7,7,0,0,0,4,1.64c1.93-.1.68-1.64.68-1.64"/>
              </g>
            </g>
            <path id="Path_1208" data-name="Path 1208" class="cls-17" d="M65.55,70.64V41.36a2.92,2.92,0,0,1,2.86-3h49.12v-.82h-49a3.75,3.75,0,0,0-3.79,3.71V70.64Z"/>
          </g>
          <g id="Group_1361" data-name="Group 1361">
            <g id="Group_1356" data-name="Group 1356">
              <path id="Path_1209" data-name="Path 1209" class="cls-25" d="M130.19,123.25H114.42a3.4,3.4,0,0,1-3.45-3.34V83.84a3.4,3.4,0,0,1,3.34-3.45h15.88a3.4,3.4,0,0,1,3.45,3.34V119.8A3.51,3.51,0,0,1,130.19,123.25Z"/>
            </g>
            <g id="Group_1357" data-name="Group 1357">
              <rect id="Rectangle_200" data-name="Rectangle 200" class="cls-26" x="113.45" y="84.02" width="17.62" height="34.18"/>
            </g>
            <g id="Group_1358" data-name="Group 1358">
              <circle id="Ellipse_156" data-name="Ellipse 156" class="cls-27" cx="122.22" cy="120.59" r="1.06"/>
            </g>
            <g id="Group_1359" data-name="Group 1359">
              <rect id="Rectangle_201" data-name="Rectangle 201" class="cls-27" x="119.74" y="81.98" width="5.05" height="0.44"/>
            </g>
            <g id="Group_1360" data-name="Group 1360">
              <path id="Path_1210" data-name="Path 1210" class="cls-5" d="M120.62,104.3A.91.91,0,0,1,120,104l-2-2.13a.88.88,0,0,1,1.23-1.27l0,0,1.44,1.52,5.3-4.67a.89.89,0,0,1,1.25.08.88.88,0,0,1-.07,1.25h0l-5.94,5.23A.9.9,0,0,1,120.62,104.3Z"/>
            </g>
          </g>
          <g id="Group_1362" data-name="Group 1362">
            <line id="Line_39" data-name="Line 39" class="cls-14" x1="92.26" y1="85.78" x2="92.26" y2="94.99"/>
            <path id="Path_1211" data-name="Path 1211" class="cls-14" d="M100.75,99.52,92.25,95,83.76,99.5"/>
            <circle id="Ellipse_157" data-name="Ellipse 157" class="cls-14" cx="81.42" cy="100.85" r="2.34"/>
            <circle id="Ellipse_158" data-name="Ellipse 158" class="cls-14" cx="103.33" cy="100.85" r="2.34"/>
            <circle id="Ellipse_159" data-name="Ellipse 159" class="cls-14" cx="92.26" cy="83.03" r="2.34"/>
          </g>
        </g>
        <g id="IDENTITY_PROVIDER_S_" data-name="IDENTITY PROVIDER S " class="cls-28">
          <text class="cls-29" transform="translate(28.59 153.48)" xml:space="preserve">IDENTITY PROVIDER(S)</text>
        </g>
      </g>
      <g id="Group_2832" data-name="Group 2832">
        <g id="Group_1420" data-name="Group 1420">
          <path id="Path_1249" data-name="Path 1249" class="cls-36" d="M347,115.62a47.47,47.47,0,0,0-4.66,4.53c3.85,3.34,18.21,10.35,34.11,8.47s17.1-7.1,17.1-7.1c-1.92-1.79-6.93-5.34-6.93-5.34"/>
          <path id="Path_1250" data-name="Path 1250" class="cls-37" d="M347,115.62a30.45,30.45,0,0,1,7.1-4.1c4.06-1.62,3.29-3.5,4.27-12,0,0-4.23-5.64-4.48-8.72,0,0-4-1.45-4.19-7.43s2.14-5,2.14-5a17.84,17.84,0,0,1,6.53-15.9c8.17-6.88,21.33.08,24,4.74s3.51,9,2.27,13.38,1.11,8.63-2.52,15.64-5.6,8-8.8,9.23l.13,3.68a3,3,0,0,0,1.83,2.1c1.54.55,11.37,5,11.37,5-3.59,0-7.26,2.6-20.6,2.6S347,115.63,347,115.63"/>
          <path id="Path_1251" data-name="Path 1251" class="cls-38" d="M373.32,109.13c-8.55-2.14-11.24-7.78-11.24-7.78,3.8,4.27,11.16,4.06,11.16,4.06Z"/>
          <path id="Path_1252" data-name="Path 1252" class="cls-39" d="M351.74,78.35s3.59.9,4.36,6.37h.51L356.52,79Z"/>
          <path id="Path_1253" data-name="Path 1253" class="cls-40" d="M375.16,111.22a112.34,112.34,0,0,1,11.37,5s-7.27,2.61-20.6,2.61-19-3.21-19-3.21a30.38,30.38,0,0,1,7.09-4.1s8.8,7.52,17.74,7.14,3.42-7.39,3.42-7.39"/>
          <path id="Path_1254" data-name="Path 1254" class="cls-41" d="M384.18,85.41a9.69,9.69,0,0,0-4.36-1.2c-2.27,0-6,0-6,6,0,2.87,1.8,6.88,1.8,6.88"/>
          <path id="Path_1255" data-name="Path 1255" class="cls-42" d="M371.44,86.48s-2.82-2.27-5.64-2.27c-3.33,0-5.17,1.11-5.17,2.82a3.85,3.85,0,0,0,3,3.63"/>
          <path id="Path_1256" data-name="Path 1256" class="cls-43" d="M375.41,62c-.23,1.67-1.64,15.46,9.1,19,1.4-4.49.57-9-2.18-13.84C381.27,65.33,378.71,63.59,375.41,62Z"/>
          <path id="Path_1257" data-name="Path 1257" class="cls-39" d="M351.74,78.35a17.85,17.85,0,0,1,6.54-15.9c8.16-6.88,21.32.09,24,4.75a19.92,19.92,0,0,1-9,11.15c-7.22,4.32-21.58,0-21.58,0"/>
        </g>
        <g id="INDIVIDUAL" class="cls-28">
          <text class="cls-29" transform="translate(336.64 153.48)">INDIVIDUAL</text>
        </g>
      </g>
      <path id="Polygon_1" data-name="Polygon 1" class="cls-46" d="M340,93.83l-10,6v-12Z"/>
    </g>
    <rect class="cls-1" width="422.79" height="182.72"/>
  </g>
</svg>
