<svg xmlns="http://www.w3.org/2000/svg" xmlns:xlink="http://www.w3.org/1999/xlink" width="117.863" height="170.714" viewBox="0 0 117.863 170.714"><defs><style>.a,.c{fill:none;}.b{fill:#161615;font-size:10px;font-family:WorkSans-Bold, Work Sans;font-weight:700;}.c{stroke:#4e4d4d;stroke-linecap:round;stroke-linejoin:round;stroke-width:1.5px;}.d{fill:#68b699;}.e{fill:#fff;}.f{fill:#cbb9b0;}.g{fill:#a99b94;}.h{fill:#4a4744;}.i{fill:#5e412f;}.j{fill:#a77453;}.k{clip-path:url(#a);}.l{fill:#32271f;}.m{fill:#5d5652;}.n{fill:#392a22;}.o{fill:#040506;}.p{fill:#74b59b;}.q{fill:#353637;}.r{fill:#62b598;}</style><clipPath id="a"><path class="a" d="M-916.581-223.849s-.554,3.995,2.331,4.882l1.11-.222-.222-4.66Z"/></clipPath></defs><g transform="translate(-282.528 -2773.906)"><text class="b" transform="translate(343.8 2810.799)"><tspan x="-50.18" y="0">IDENTITY PROVIDER</tspan></text><g transform="translate(1256.397 3072.253)"><line class="c" y2="9.897" transform="translate(-949.319 -144.466)"/><circle class="c" cx="2.687" cy="2.687" r="2.687" transform="translate(-952.005 -133.756)"/><path class="d" d="M-967.414-186.338a6.481,6.481,0,0,0-6.455,6.455,6.481,6.481,0,0,0,6.455,6.455h36.19a6.481,6.481,0,0,0,6.455-6.455,6.481,6.481,0,0,0-6.455-6.455Z"/><circle class="e" cx="1.799" cy="1.799" r="1.799" transform="translate(-969.213 -181.788)"/><circle class="e" cx="1.799" cy="1.799" r="1.799" transform="translate(-962.229 -181.788)"/><circle class="e" cx="1.799" cy="1.799" r="1.799" transform="translate(-955.245 -181.788)"/><path class="d" d="M-967.414-171.206a6.481,6.481,0,0,0-6.455,6.455,6.413,6.413,0,0,0,6.455,6.455h36.19a6.481,6.481,0,0,0,6.455-6.455,6.413,6.413,0,0,0-6.455-6.455Z"/><circle class="e" cx="1.799" cy="1.799" r="1.799" transform="translate(-969.213 -166.55)"/><circle class="e" cx="1.799" cy="1.799" r="1.799" transform="translate(-962.229 -166.55)"/><circle class="e" cx="1.799" cy="1.799" r="1.799" transform="translate(-955.245 -166.55)"/><path class="d" d="M-967.414-156.074a6.481,6.481,0,0,0-6.455,6.455,6.413,6.413,0,0,0,6.455,6.455h36.19a6.481,6.481,0,0,0,6.455-6.455,6.413,6.413,0,0,0-6.455-6.455Z"/><circle class="e" cx="1.799" cy="1.799" r="1.799" transform="translate(-969.213 -151.418)"/><circle class="e" cx="1.799" cy="1.799" r="1.799" transform="translate(-962.229 -151.418)"/><circle class="e" cx="1.799" cy="1.799" r="1.799" transform="translate(-955.245 -151.418)"/><path class="f" d="M-883-248.281h-58.3a3.348,3.348,0,0,0-3.4,3.4v35.512a3.348,3.348,0,0,0,3.4,3.4H-883a3.348,3.348,0,0,0,3.4-3.4v-35.512A3.348,3.348,0,0,0-883-248.281Z"/><path class="e" d="M-883-206.871h-58.3a2.469,2.469,0,0,1-2.5-2.495v-35.512a2.469,2.469,0,0,1,2.5-2.495H-883a2.469,2.469,0,0,1,2.5,2.495v35.512A2.469,2.469,0,0,1-883-206.871Zm-58.3-40.246a2.215,2.215,0,0,0-2.239,2.239v35.512a2.215,2.215,0,0,0,2.239,2.24H-883a2.215,2.215,0,0,0,2.239-2.24v-35.512A2.215,2.215,0,0,0-883-247.117Z"/><path class="g" d="M-939.474-205.963V-239.6a3.349,3.349,0,0,1,3.4-3.4h56.317v-.948H-936.07a4.305,4.305,0,0,0-4.352,4.351v33.639Z"/><path class="f" d="M-877.876-242.884h-58.3a3.349,3.349,0,0,0-3.4,3.4v35.512a3.348,3.348,0,0,0,3.4,3.4h58.3a3.348,3.348,0,0,0,3.4-3.4V-239.48A3.349,3.349,0,0,0-877.876-242.884Z"/><path class="e" d="M-877.824-201.473h-58.3a2.469,2.469,0,0,1-2.5-2.5V-239.48a2.469,2.469,0,0,1,2.5-2.5h58.3a2.47,2.47,0,0,1,2.5,2.5v35.511A2.47,2.47,0,0,1-877.824-201.473Zm-58.3-40.247a2.216,2.216,0,0,0-2.24,2.24v35.511a2.216,2.216,0,0,0,2.24,2.24h58.3a2.215,2.215,0,0,0,2.239-2.24V-239.48a2.215,2.215,0,0,0-2.239-2.24Z"/><path class="f" d="M-872.524-237.608h-58.3a3.348,3.348,0,0,0-3.4,3.4v35.512a3.348,3.348,0,0,0,3.4,3.4h58.3a3.348,3.348,0,0,0,3.4-3.4v-35.512A3.348,3.348,0,0,0-872.524-237.608Z"/><rect class="e" width="0.592" height="20.419" transform="translate(-902.709 -225.327)"/><line class="a" x2="17.608" transform="translate(-897.826 -222.959)"/><path class="h" d="M-878.147-214.457H-895.9a.512.512,0,0,1-.512-.512.512.512,0,0,1,.512-.512h17.755a.512.512,0,0,1,.512.512A.512.512,0,0,1-878.147-214.457Z"/><path class="h" d="M-878.147-220.012H-895.9a1.023,1.023,0,0,1-1.024-1.024,1.024,1.024,0,0,1,1.024-1.024h17.755a1.024,1.024,0,0,1,1.024,1.024A1.023,1.023,0,0,1-878.147-220.012Z"/><path class="h" d="M-878.147-211.2H-895.9a.512.512,0,0,1-.512-.512.512.512,0,0,1,.512-.512h17.755a.512.512,0,0,1,.512.512A.512.512,0,0,1-878.147-211.2Z"/><path class="h" d="M-883.473-207.947H-895.9a.512.512,0,0,1-.512-.512.512.512,0,0,1,.512-.511h12.429a.512.512,0,0,1,.512.511A.512.512,0,0,1-883.473-207.947Z"/><path class="e" d="M-872.524-196.05h-58.3a2.469,2.469,0,0,1-2.5-2.495v-35.512a2.469,2.469,0,0,1,2.5-2.495h58.3a2.469,2.469,0,0,1,2.5,2.495v35.512A2.469,2.469,0,0,1-872.524-196.05Zm-58.3-40.246a2.216,2.216,0,0,0-2.24,2.239v35.512a2.215,2.215,0,0,0,2.24,2.239h58.3a2.215,2.215,0,0,0,2.239-2.239v-35.512a2.215,2.215,0,0,0-2.239-2.239Z"/><path class="i" d="M-924.127-209.867a10.134,10.134,0,0,0-1.22,1.221,13.4,13.4,0,0,0,8.877,2.22c4.107-.444,4.439-1.887,4.439-1.887-.554-.444-1.775-1.443-1.775-1.443"/><path class="j" d="M-924.127-209.867a7.445,7.445,0,0,1,1.887-1.109c1-.444.888-.888,1.11-3.108a7.4,7.4,0,0,1-1.221-2.219,1.981,1.981,0,0,1-1.11-1.887c-.111-1.553.555-1.331.555-1.331a4.552,4.552,0,0,1,1.665-4.106c2.108-1.776,5.548,0,6.214,1.22a4.348,4.348,0,0,1,.555,3.44c-.333,1.11.333,2.22-.666,4.106s-1.443,2.109-2.33,2.442v1s.111.444.444.555c.443.111,3,1.331,3,1.331-.888,0-1.887.666-5.327.666a11.128,11.128,0,0,1-4.772-1"/><g class="k"><path class="l" d="M-924.127-209.867a7.445,7.445,0,0,1,1.887-1.109c1-.444.888-.888,1.11-3.108a7.4,7.4,0,0,1-1.221-2.219,1.981,1.981,0,0,1-1.11-1.887c-.111-1.553.555-1.331.555-1.331a4.552,4.552,0,0,1,1.665-4.106c2.108-1.776,5.548,0,6.214,1.22a4.348,4.348,0,0,1,.555,3.44c-.333,1.11.333,2.22-.666,4.106s-1.443,2.109-2.33,2.442v1s.111.444.444.555a11.337,11.337,0,0,1,3,1.331,17.518,17.518,0,0,1-5.327.666,11.128,11.128,0,0,1-4.772-1"/></g><g class="k"><path class="m" d="M-917.135-211.531a4.25,4.25,0,0,1-2.886-2,4.37,4.37,0,0,0,2.886,1.11Z"/></g><path class="n" d="M-921.13-223.738a4.552,4.552,0,0,0-1.665,4.106s.888.222,1.11,1.664h.111V-219.3c1.22.221,3.218.443,4.328-.333a5.135,5.135,0,0,0,2.33-2.886C-915.582-223.738-919.022-225.514-921.13-223.738Z"/><path class="i" d="M-916.691-210.976a15.673,15.673,0,0,1,3,1.331,17.518,17.518,0,0,1-5.327.666,10.857,10.857,0,0,1-4.994-.888,7.444,7.444,0,0,1,1.887-1.109s2.33,2,4.661,1.886c2.219-.111.777-1.886.777-1.886"/><path class="g" d="M-934.225-200.566v-33.639a3.348,3.348,0,0,1,3.4-3.4h56.317v-.948h-56.317a4.305,4.305,0,0,0-4.351,4.351v33.639Z"/><path class="o" d="M-859.974-140.132h-18.108a3.909,3.909,0,0,1-3.967-3.968v-41.3a3.908,3.908,0,0,1,3.967-3.968h18.108a3.909,3.909,0,0,1,3.968,3.968v41.3A4.04,4.04,0,0,1-859.974-140.132Z"/><rect class="p" width="20.244" height="39.268" transform="translate(-879.201 -185.199)"/><circle class="q" cx="1.221" cy="1.221" r="1.221" transform="translate(-870.35 -144.405)"/><rect class="q" width="5.799" height="0.509" transform="translate(-871.978 -187.539)"/><path class="e" d="M-870.96-161.9a1.015,1.015,0,0,1-.735-.313l-2.34-2.441A1.018,1.018,0,0,1-874-166.1a1.016,1.016,0,0,1,1.438.031l1.665,1.737,6.084-5.358a1.018,1.018,0,0,1,1.436.092,1.019,1.019,0,0,1-.091,1.436l-6.816,6A1.018,1.018,0,0,1-870.96-161.9Z"/><line class="c" y2="10.582" transform="translate(-903.543 -183.174)"/><path class="c" d="M-893.783-167.4l-9.769-5.2-9.752,5.179"/><circle class="c" cx="2.687" cy="2.687" r="2.687" transform="translate(-918.677 -168.55)"/><circle class="c" cx="2.687" cy="2.687" r="2.687" transform="translate(-893.514 -168.55)"/><circle class="c" cx="2.687" cy="2.687" r="2.687" transform="translate(-906.23 -189.025)"/></g><g transform="translate(1256.397 3072.253)"><circle class="r" cx="10.01" cy="10.01" r="10.01" transform="translate(-920.098 -298.347)"/><path class="e" d="M-908.886-284.066h-1.869v-6.273l-1.735,1.068-.8-1.2,2.8-1.6h1.736v8.008Z"/></g></g></svg>