<svg xmlns="http://www.w3.org/2000/svg" xmlns:xlink="http://www.w3.org/1999/xlink" width="123.993" height="149.553" viewBox="0 0 123.993 149.553"><defs><style>.a,.bh,.bi{fill:none;}.b{fill:#3a8062;}.c{fill:#cbb9b0;}.d{fill:#fff;}.e{fill:#4a4744;}.f{fill:#68b699;}.g{fill:#5e412f;}.h{fill:#a77453;}.i{clip-path:url(#a);}.j{fill:#32271f;}.k{fill:#5d5652;}.l{fill:#392a22;}.m{fill:#a97552;}.n{fill:#7fb69b;}.o{fill:#74a58b;}.p{fill:#2b3c30;}.q{fill:#d7eae0;}.r{fill:#436b5d;}.s{clip-path:url(#c);}.t{fill:#618a74;}.u{fill:#afd6c2;}.v{fill:#496656;}.w{fill:#e89c00;}.x{fill:#bb7a00;}.y{fill:#395645;}.z{fill:#c37e00;}.aa{clip-path:url(#g);}.ab{fill:#638b74;}.ac{fill:#4d6555;}.ad{fill:#8cc0a2;}.ae{clip-path:url(#j);}.af{fill:#92c8aa;}.ag{fill:#4f705f;}.ah{clip-path:url(#l);}.ai{fill:#1d251e;}.aj{clip-path:url(#m);}.ak{fill:#9fcdb2;}.al{fill:#5a7868;}.am{fill:#75b69b;}.an{fill:#9e7054;}.ao{fill:#795644;}.ap{fill:#282928;}.aq{fill:#5c8e77;}.ar{fill:url(#o);}.as{fill:url(#p);}.at{fill:#232322;}.au{fill:url(#q);}.av{fill:url(#r);}.aw{fill:url(#u);}.ax{fill:url(#v);}.ay{fill:url(#x);}.az{fill:url(#y);}.ba{fill:url(#aa);}.bb{fill:url(#ab);}.bc{fill:url(#ad);}.bd{fill:url(#ae);}.be{fill:url(#af);}.bf{fill:url(#ag);}.bg{fill:url(#ah);}.bh{stroke:#4e4d4d;stroke-linejoin:round;}.bh,.bi{stroke-linecap:round;stroke-width:1.5px;}.bi{stroke:#74b59b;stroke-miterlimit:10;stroke-dasharray:0.5 4;}</style><clipPath id="a"><path class="a" d="M618.491,132.108s-.233,1.673.976,2.045l.464-.093-.093-1.952Z"/></clipPath><clipPath id="c"><rect class="a" width="18.09" height="12.762" rx="0.991" transform="translate(669.127 179.754)"/></clipPath><clipPath id="g"><path class="a" d="M689.448,195.3H666.9a.267.267,0,0,1-.248-.248V176.532a.267.267,0,0,1,.248-.248H689.51a.266.266,0,0,1,.247.248v18.524A.283.283,0,0,1,689.448,195.3Z"/></clipPath><clipPath id="j"><path class="a" d="M691.12,175.975a.309.309,0,0,1-.309.371H665.6a.31.31,0,0,1-.31-.371l1.425-7.62a.532.532,0,0,1,.434-.372H689.2c.186,0,.434.186.434.372Z"/></clipPath><clipPath id="l"><path class="a" d="M685.792,177.771h-15.3a1.375,1.375,0,0,1-1.363-1.363v-.062h18.028v.062A1.3,1.3,0,0,1,685.792,177.771Z"/></clipPath><clipPath id="m"><path class="a" d="M689.572,175.417a.738.738,0,0,1-.806.929H667.578a.784.784,0,0,1-.8-.929l.434-2.354a5.8,5.8,0,0,1,5.452-5.08h10.965a5.743,5.743,0,0,1,5.452,5.08Z"/></clipPath><linearGradient id="o" x1="0.663" y1="-11.394" x2="0.088" y2="-11.856" gradientUnits="objectBoundingBox"><stop offset="0" stop-color="#9e7054"/><stop offset="0.335" stop-color="#986b52"/><stop offset="0.782" stop-color="#855f49"/><stop offset="1" stop-color="#795644"/></linearGradient><linearGradient id="p" x1="0.58" y1="-23.192" x2="0.392" y2="-24.06" gradientUnits="objectBoundingBox"><stop offset="0" stop-color="#9e7054"/><stop offset="0.349" stop-color="#9a6d52"/><stop offset="0.682" stop-color="#8d644c"/><stop offset="1" stop-color="#795644"/></linearGradient><linearGradient id="q" x1="0.663" y1="-11.394" x2="0.088" y2="-11.856" xlink:href="#o"/><linearGradient id="r" x1="0.58" y1="-23.192" x2="0.392" y2="-24.06" xlink:href="#p"/><linearGradient id="u" x1="0.663" y1="-11.394" x2="0.088" y2="-11.856" xlink:href="#o"/><linearGradient id="v" x1="0.58" y1="-23.192" x2="0.392" y2="-24.06" xlink:href="#p"/><linearGradient id="x" x1="0.58" y1="-23.192" x2="0.392" y2="-24.06" xlink:href="#p"/><linearGradient id="y" x1="0.663" y1="-11.394" x2="0.088" y2="-11.856" xlink:href="#o"/><linearGradient id="aa" x1="0.663" y1="-11.394" x2="0.088" y2="-11.856" xlink:href="#o"/><linearGradient id="ab" x1="0.58" y1="-23.192" x2="0.392" y2="-24.06" xlink:href="#p"/><linearGradient id="ad" x1="0.58" y1="-23.192" x2="0.392" y2="-24.06" xlink:href="#p"/><linearGradient id="ae" x1="0.663" y1="-11.394" x2="0.088" y2="-11.856" xlink:href="#o"/><linearGradient id="af" x1="0.58" y1="-23.192" x2="0.392" y2="-24.06" xlink:href="#p"/><linearGradient id="ag" x1="0.663" y1="-11.394" x2="0.089" y2="-11.856" xlink:href="#o"/><linearGradient id="ah" x1="0.58" y1="-23.192" x2="0.392" y2="-24.06" xlink:href="#p"/></defs><g transform="translate(-567.139 -119.223)"><path class="b" d="M622.936,128.33l-.743-1.982h1.487Z"/><path class="c" d="M636.937,126.347H612.528a1.4,1.4,0,0,0-1.425,1.425v14.869a1.4,1.4,0,0,0,1.425,1.425h24.409a1.4,1.4,0,0,0,1.425-1.425V127.772A1.4,1.4,0,0,0,636.937,126.347Zm-10.656,2.479h-3.1a.62.62,0,1,1,0-1.239h3.1a.62.62,0,1,1,0,1.239Z"/><path class="b" d="M622.193,126.347h3.531l-2.54-6.133h-3.531Z"/><rect class="d" width="0.248" height="8.549" transform="translate(624.299 131.49)"/><line class="a" x2="7.372" transform="translate(626.343 132.481)"/><path class="e" d="M634.583,136.041h-7.434a.215.215,0,1,1,0-.429h7.434a.215.215,0,0,1,0,.429Z"/><path class="e" d="M634.583,133.715h-7.434a.428.428,0,1,1,0-.857h7.434a.428.428,0,1,1,0,.857Z"/><path class="e" d="M634.583,137.4h-7.434a.214.214,0,1,1,0-.428h7.434a.214.214,0,0,1,0,.428Z"/><path class="e" d="M632.353,138.766h-5.2a.214.214,0,1,1,0-.428h5.2a.214.214,0,0,1,0,.428Z"/><path class="d" d="M636.937,143.748H612.528a1.034,1.034,0,0,1-1.045-1.045V127.834a1.033,1.033,0,0,1,1.045-1.044h24.409a1.033,1.033,0,0,1,1.045,1.044V142.7A1.034,1.034,0,0,1,636.937,143.748ZM612.528,126.9a.928.928,0,0,0-.938.937V142.7a.928.928,0,0,0,.938.938h24.409a.928.928,0,0,0,.938-.938V127.834a.928.928,0,0,0-.938-.937Z"/><path class="f" d="M626.405,128.33h-3.469l3.717-9.107h3.593Z"/><path class="g" d="M615.331,137.963a4.22,4.22,0,0,0-.511.511,5.615,5.615,0,0,0,3.717.929c1.719-.186,1.859-.79,1.859-.79-.232-.186-.744-.6-.744-.6"/><path class="h" d="M615.331,137.963a3.118,3.118,0,0,1,.79-.465c.418-.186.372-.372.465-1.3a3.092,3.092,0,0,1-.511-.929.829.829,0,0,1-.465-.79c-.046-.651.232-.558.232-.558a1.905,1.905,0,0,1,.7-1.719,1.98,1.98,0,0,1,2.6.511,1.823,1.823,0,0,1,.233,1.441c-.14.464.139.929-.279,1.719s-.6.883-.976,1.022v.418s.047.186.186.232c.186.047,1.255.558,1.255.558a11.145,11.145,0,0,1-2.231.279,4.674,4.674,0,0,1-2-.418"/><g class="i"><path class="j" d="M615.331,137.963a3.118,3.118,0,0,1,.79-.465c.418-.186.372-.372.465-1.3a3.092,3.092,0,0,1-.511-.929.829.829,0,0,1-.465-.79c-.046-.651.232-.558.232-.558a1.905,1.905,0,0,1,.7-1.719,1.98,1.98,0,0,1,2.6.511,1.823,1.823,0,0,1,.233,1.441c-.14.464.139.929-.279,1.719s-.6.883-.976,1.022v.418s.047.186.186.232a4.778,4.778,0,0,1,1.255.558,7.333,7.333,0,0,1-2.231.279,4.674,4.674,0,0,1-2-.418"/></g><g class="i"><path class="k" d="M618.258,137.266a1.782,1.782,0,0,1-1.208-.837,1.83,1.83,0,0,0,1.208.465Z"/></g><path class="l" d="M616.586,132.155a1.905,1.905,0,0,0-.7,1.719s.372.093.464.7h.047v-.558a2.7,2.7,0,0,0,1.812-.139,2.151,2.151,0,0,0,.976-1.208A1.979,1.979,0,0,0,616.586,132.155Z"/><path class="g" d="M618.444,137.5a6.5,6.5,0,0,1,1.255.558,7.354,7.354,0,0,1-2.23.278,4.551,4.551,0,0,1-2.091-.371,3.118,3.118,0,0,1,.79-.465,3.343,3.343,0,0,0,1.951.79c.929-.047.325-.79.325-.79"/><path class="m" d="M586.068,142.747a7.435,7.435,0,1,0-14.869,0,7.354,7.354,0,0,0,6.319,7.31v3.593h-1.363a1.116,1.116,0,0,0,0,2.231h1.363v1.672a1.116,1.116,0,1,0,2.231,0v-1.672h1.363a1.116,1.116,0,0,0,0-2.231h-1.363v-3.593A7.354,7.354,0,0,0,586.068,142.747Zm-12.577,0a5.2,5.2,0,1,1,5.2,5.2A5.236,5.236,0,0,1,573.491,142.747Z"/><path class="d" d="M578.633,158.949a1.4,1.4,0,0,1-1.4-1.4v-1.392h-1.083a1.4,1.4,0,0,1,0-2.791h1.083V150.3a7.715,7.715,0,1,1,2.791,0v3.072h1.083a1.4,1.4,0,0,1,0,2.791h-1.083v1.392A1.4,1.4,0,0,1,578.633,158.949Zm-2.478-5.018a.835.835,0,0,0,0,1.669H577.8v1.953a.835.835,0,1,0,1.669,0V155.6h1.644a.835.835,0,0,0,0-1.669h-1.644v-4.118l.242-.034a7.154,7.154,0,1,0-2.153,0l.242.034v4.118Zm2.54-5.7a5.485,5.485,0,1,1,5.485-5.484A5.49,5.49,0,0,1,578.7,148.231Zm0-10.408a4.924,4.924,0,1,0,4.924,4.924A4.93,4.93,0,0,0,578.7,137.823Z"/><path class="m" d="M603.415,142.747a7.434,7.434,0,1,0-14.869,0,7.354,7.354,0,0,0,6.319,7.31v5.7l-1.177-.868a1.153,1.153,0,0,0-1.363,1.859l2.974,2.23a1.125,1.125,0,0,0,1.239,0l2.973-2.23a1.152,1.152,0,0,0-1.362-1.859l-1.178.868v-5.7A7.356,7.356,0,0,0,603.415,142.747Zm-12.577,0a5.2,5.2,0,1,1,5.2,5.2A5.235,5.235,0,0,1,590.838,142.747Z"/><path class="d" d="M595.918,159.445a1.482,1.482,0,0,1-.775-.233l-3-2.253a1.469,1.469,0,0,1-.287-1.99l.013-.016a1.469,1.469,0,0,1,1.99-.288l.728.537v-4.9a7.775,7.775,0,1,1,2.668,0v4.9l.73-.538a1.389,1.389,0,0,1,1.062-.253,1.468,1.468,0,0,1,.94.558,1.451,1.451,0,0,1-.3,2l-2.974,2.231A1.485,1.485,0,0,1,595.918,159.445ZM592.5,156.53l2.965,2.224a.846.846,0,0,0,.915-.009l2.961-2.221a.864.864,0,0,0-.386-1.559.837.837,0,0,0-.64.149l-1.626,1.2v-6.5l.243-.033a7.051,7.051,0,0,0,6.2-7.032,7.154,7.154,0,1,0-8.231,7.032l.243.034v6.5l-1.625-1.2a.872.872,0,1,0-1.019,1.415Zm3.54-8.3a5.485,5.485,0,1,1,5.485-5.484A5.49,5.49,0,0,1,596.042,148.231Zm0-10.408a4.924,4.924,0,1,0,4.924,4.924A4.929,4.929,0,0,0,596.042,137.823Z"/><path class="m" d="M594.741,142.747a7.434,7.434,0,1,0-14.868,0,7.353,7.353,0,0,0,6.319,7.31v1.425h-1.363a1.115,1.115,0,0,0,0,2.23h1.363v2.045l-1.177-.806a1.153,1.153,0,0,0-1.363,1.859l2.973,2.23a1.125,1.125,0,0,0,1.239,0l2.974-2.23a1.153,1.153,0,0,0-1.363-1.859l-1.177.868v-2.045h1.363a1.115,1.115,0,0,0,0-2.23H588.3v-1.425A7.465,7.465,0,0,0,594.741,142.747Zm-12.576,0a5.2,5.2,0,1,1,5.2,5.2A5.235,5.235,0,0,1,582.165,142.747Z"/><path class="d" d="M587.245,159.507a1.476,1.476,0,0,1-.775-.233l-3-2.253a1.47,1.47,0,0,1-.288-1.99l.014-.017a1.47,1.47,0,0,1,1.99-.287l.728.5v-1.232h-1.082a1.4,1.4,0,1,1,0-2.791h1.082v-.9a7.612,7.612,0,1,1,2.668.059v.907h1.082a1.4,1.4,0,1,1,0,2.791h-1.082v1.209l.73-.538a1.384,1.384,0,0,1,1.062-.253,1.424,1.424,0,0,1,.636,2.561l-2.974,2.231A1.49,1.49,0,0,1,587.245,159.507Zm-3.416-2.915,2.965,2.224a.846.846,0,0,0,.915-.009l2.961-2.221a.863.863,0,0,0-.387-1.559.835.835,0,0,0-.639.149l-1.627,1.2v-2.88h1.644a.835.835,0,0,0,0-1.67h-1.644v-1.946l.239-.036a7.156,7.156,0,1,0-8.1-7.1,7.1,7.1,0,0,0,6.077,7.032l.242.034v1.95h-1.643a.835.835,0,1,0,0,1.669h1.643v2.857l-1.616-1.106a.872.872,0,1,0-1.027,1.409Zm3.54-8.361a5.485,5.485,0,1,1,5.484-5.484A5.491,5.491,0,0,1,587.369,148.231Zm0-10.408a4.924,4.924,0,1,0,4.923,4.924A4.93,4.93,0,0,0,587.369,137.823Z"/><path class="f" d="M581.822,168.262l-12.638-.062a1.95,1.95,0,0,0-2.045,1.858v25.153a1.952,1.952,0,0,0,2.045,1.859l15.736.062a1.95,1.95,0,0,0,2.044-1.859l.062-22.427a1.639,1.639,0,0,0-.619-1.3l-3.036-2.726A2.377,2.377,0,0,0,581.822,168.262Z"/><path class="c" d="M584.114,180.962l-.062,11.833a1.93,1.93,0,0,1-1.92,1.92l-10.408-.062a1.93,1.93,0,0,1-1.921-1.92l.062-11.833a1.931,1.931,0,0,1,1.921-1.921l10.408.062A1.93,1.93,0,0,1,584.114,180.962Z"/><path class="d" d="M582.132,194.957l-10.409-.062a2.164,2.164,0,0,1-2.161-2.162l.062-11.834a2.164,2.164,0,0,1,2.162-2.161l10.409.062a2.172,2.172,0,0,1,2.161,2.162h0l-.062,11.833A2.164,2.164,0,0,1,582.132,194.957Zm-10.347-15.736a1.681,1.681,0,0,0-1.679,1.679l-.061,11.834a1.68,1.68,0,0,0,1.679,1.678l10.409.062a1.68,1.68,0,0,0,1.678-1.679l.062-11.834a1.7,1.7,0,0,0-1.692-1.679Z"/><path class="d" d="M579.282,185.168H574.76a1.583,1.583,0,0,1-1.543-1.542v-4.585a.242.242,0,0,1,.483,0v4.585a1.115,1.115,0,0,0,1.06,1.059h4.522a1.115,1.115,0,0,0,1.06-1.059v-4.585a.241.241,0,1,1,.482,0v4.585A1.582,1.582,0,0,1,579.282,185.168Z"/><path class="d" d="M580.583,194.957a.241.241,0,0,1-.241-.242v-4.584a1.116,1.116,0,0,0-1.06-1.06H574.76a1.116,1.116,0,0,0-1.06,1.06v4.584a.242.242,0,1,1-.483,0v-4.584a1.582,1.582,0,0,1,1.543-1.542h4.522a1.582,1.582,0,0,1,1.542,1.542v4.584A.241.241,0,0,1,580.583,194.957Z"/><path class="d" d="M575.007,189.071a.241.241,0,0,1-.241-.241v-3.965a.242.242,0,0,1,.483,0v3.965A.241.241,0,0,1,575.007,189.071Z"/><path class="d" d="M579.034,189.133a.241.241,0,0,1-.241-.241v-4.027a.241.241,0,0,1,.483,0v4.027A.241.241,0,0,1,579.034,189.133Z"/><path class="d" d="M576.99,194.957a.241.241,0,0,1-.241-.242v-5.823a.241.241,0,1,1,.482,0v5.823A.241.241,0,0,1,576.99,194.957Z"/><path class="d" d="M576.99,185.106h0a.24.24,0,0,1-.238-.244l.062-5.761a.241.241,0,0,1,.241-.239h0a.241.241,0,0,1,.239.244l-.062,5.762A.241.241,0,0,1,576.99,185.106Z"/><path class="d" d="M573.458,191.054h-3.593a.242.242,0,0,1,0-.483h3.593a.242.242,0,1,1,0,.483Z"/><path class="d" d="M584.114,191.116h-3.593a.242.242,0,0,1,0-.483h3.593a.242.242,0,1,1,0,.483Z"/><path class="d" d="M584.114,183.124h-3.593a.241.241,0,0,1,0-.483h3.593a.241.241,0,1,1,0,.483Z"/><path class="d" d="M573.52,183.124h-3.593a.241.241,0,0,1,0-.483h3.593a.241.241,0,1,1,0,.483Z"/><path class="m" d="M656.656,133.679a13.486,13.486,0,0,1,5.886-1.177,13.866,13.866,0,0,1,5.885,1.177.373.373,0,0,0,.248.062.594.594,0,0,0,.557-.372.614.614,0,0,0-.309-.805,15.049,15.049,0,0,0-6.381-1.3,14.854,14.854,0,0,0-6.382,1.3.615.615,0,0,0-.309.805A.657.657,0,0,0,656.656,133.679Z"/><path class="m" d="M654.426,138.387a11.365,11.365,0,0,1,8.178-3.531,11.124,11.124,0,0,1,8.177,3.531.6.6,0,0,0,.868,0,.6.6,0,0,0,0-.867,12.322,12.322,0,0,0-9.045-3.841,12.671,12.671,0,0,0-9.046,3.841.613.613,0,0,0,.868.867Z"/><path class="m" d="M662.6,136.157a12.42,12.42,0,0,0-2.6.31c-.372.124-.558.371-.434.743s.372.558.743.434a9.159,9.159,0,0,1,11.523,8.921.62.62,0,1,0,1.24,0A10.565,10.565,0,0,0,662.6,136.157Z"/><path class="m" d="M653.373,146.565a9.506,9.506,0,0,1,2.664-6.505,8.437,8.437,0,0,1,1.92-1.487.627.627,0,1,0-.681-1.053,11.256,11.256,0,0,0-2.169,1.673,10.692,10.692,0,0,0-3.035,7.31.585.585,0,0,0,.619.62h0A.517.517,0,0,0,653.373,146.565Z"/><path class="m" d="M655.851,146.751a6.831,6.831,0,0,1,1.982-4.894,6.763,6.763,0,0,1,9.913.371.615.615,0,0,0,.929-.8,7.958,7.958,0,0,0-11.647-.372,8.355,8.355,0,0,0-2.354,5.824,10.038,10.038,0,0,1-1.116,4.4l-.371.62a.685.685,0,0,0,.248.867c.123.062.185.124.309.124a.74.74,0,0,0,.558-.31l.372-.619A14.807,14.807,0,0,0,655.851,146.751Z"/><path class="m" d="M671.029,151.4a22.664,22.664,0,0,1-.434-4.522V146.5a7.991,7.991,0,0,0-.433-2.664.627.627,0,1,0-1.177.434,7.129,7.129,0,0,1,.371,2.292v.372a22.034,22.034,0,0,0,.5,4.77l.681,2.354a.746.746,0,0,0,.62.434.228.228,0,0,0,.186-.062.536.536,0,0,0,.372-.743Z"/><path class="m" d="M669.356,154.681a33.8,33.8,0,0,1-1.239-8.054,5.526,5.526,0,0,0-5.513-5.514,5.593,5.593,0,0,0-5.514,5.638,14.349,14.349,0,0,1-2.726,7.806.619.619,0,1,0,.991.743,15.422,15.422,0,0,0,2.912-8.549,4.336,4.336,0,1,1,8.673,0,31.007,31.007,0,0,0,1.3,8.425l.558,1.859a.746.746,0,0,0,.619.434.228.228,0,0,0,.186-.062.578.578,0,0,0,.372-.806Z"/><path class="m" d="M665.639,146.565a3.1,3.1,0,1,0-6.2,0,17.06,17.06,0,0,1-3.779,10.1.62.62,0,1,0,.991.744,18.381,18.381,0,0,0,4.027-10.842,1.859,1.859,0,1,1,3.717,0,22.429,22.429,0,0,1-4.77,13.134.674.674,0,0,0,.124.867.454.454,0,0,0,.371.124.765.765,0,0,0,.5-.248A23.045,23.045,0,0,0,665.639,146.565Z"/><path class="m" d="M662.294,149.663h.124a.6.6,0,0,0,.619-.5,13.1,13.1,0,0,0,.186-2.6.621.621,0,0,0-.619-.62.667.667,0,0,0-.62.62,11.072,11.072,0,0,1-.186,2.354A.6.6,0,0,0,662.294,149.663Z"/><path class="m" d="M661.984,150.964a.6.6,0,0,0-.743.371,19.759,19.759,0,0,1-3.841,7.187.675.675,0,0,0,.123.867.456.456,0,0,0,.372.124.765.765,0,0,0,.5-.248,22.067,22.067,0,0,0,4.027-7.62A.552.552,0,0,0,661.984,150.964Z"/><path class="m" d="M667.188,155.982c-.31-.868-.558-1.859-.619-1.859a.6.6,0,0,0-.558-.433.681.681,0,0,0-.62.371,36.3,36.3,0,0,1-2.973,5.7.619.619,0,0,0,.186.867.659.659,0,0,0,.371.124.632.632,0,0,0,.5-.31,35.023,35.023,0,0,0,2.354-4.4c.062.124.062.186.124.309l.743,2.355a.628.628,0,0,0,1.178-.434Z"/><path class="n" d="M691.12,175.975a.309.309,0,0,1-.309.371H665.6a.31.31,0,0,1-.31-.371l1.425-7.62a.532.532,0,0,1,.434-.372H689.2c.186,0,.434.186.434.372Z"/><path class="o" d="M689.448,195.3H666.9a.267.267,0,0,1-.248-.248V176.47a.266.266,0,0,1,.248-.247H689.51a.265.265,0,0,1,.247.247v18.586A.283.283,0,0,1,689.448,195.3Z"/><path class="p" d="M685.792,177.771h-15.3a1.375,1.375,0,0,1-1.363-1.363v-.062h18.028v.062A1.3,1.3,0,0,1,685.792,177.771Z"/><path class="n" d="M687.217,191.525a.978.978,0,0,1-.991.991H670.118a.979.979,0,0,1-.991-.991v-10.78a.979.979,0,0,1,.991-.991h16.108a.978.978,0,0,1,.991.991Z"/><circle class="q" cx="0.867" cy="0.867" r="0.867" transform="translate(677.305 180.683)"/><path class="r" d="M678.172,182.941a1.393,1.393,0,0,1-1.391-1.391.152.152,0,0,1,.3,0,1.087,1.087,0,1,0,2.175,0,.151.151,0,0,1,.3,0A1.393,1.393,0,0,1,678.172,182.941Z"/><path class="a" d="M691,194.994a1.031,1.031,0,0,1-1.053.991H666.525a.994.994,0,0,1-1.053-.991V177.4a1.033,1.033,0,0,1,1.053-.992h23.418A.994.994,0,0,1,691,177.4Z"/><g class="s"><rect class="t" width="0.31" height="12.7" transform="translate(669.127 179.816)"/></g><g class="s"><rect class="t" width="0.31" height="12.7" transform="translate(686.908 179.816)"/></g><g class="s"><rect class="u" width="18.028" height="0.372" transform="translate(669.127 179.816)"/></g><g class="s"><rect class="v" width="18.462" height="0.434" transform="translate(669.065 192.268)"/></g><path class="w" d="M671.729,193.321a.4.4,0,0,1-.371-.371v-.5a.993.993,0,0,1,.805-.991h.186a.953.953,0,0,1,.929.929v.558a.4.4,0,0,1-.372.371Z"/><path class="x" d="M672.287,191.525a.847.847,0,0,1,.867.867v.558a.292.292,0,0,1-.31.309h-1.115a.292.292,0,0,1-.31-.309v-.5a.868.868,0,0,1,.744-.867c.062-.062.062-.062.124-.062m0-.186H672.1a1.066,1.066,0,0,0-.867,1.053v.5a.422.422,0,0,0,.433.433h1.115a.423.423,0,0,0,.434-.433v-.558a.926.926,0,0,0-.929-.991Z"/><path class="w" d="M683.5,193.321a.4.4,0,0,1-.371-.371v-.5a.993.993,0,0,1,.8-.991h.186a.953.953,0,0,1,.929.929v.558a.4.4,0,0,1-.372.371Z"/><path class="x" d="M684.058,191.525a.847.847,0,0,1,.867.867v.558a.292.292,0,0,1-.31.309H683.5a.292.292,0,0,1-.31-.309v-.5a.868.868,0,0,1,.744-.867c0-.062.062-.062.124-.062m0-.186h-.186a1.066,1.066,0,0,0-.867,1.053v.5a.422.422,0,0,0,.433.433h1.115a.423.423,0,0,0,.434-.433v-.558a.926.926,0,0,0-.929-.991Z"/><rect class="y" width="10.036" height="0.304" transform="translate(673.154 192.364)"/><rect class="z" width="1.735" height="0.304" transform="translate(671.419 192.364)"/><rect class="z" width="1.735" height="0.304" transform="translate(683.19 192.364)"/><path class="d" d="M678.792,181.7a.152.152,0,0,1-.152-.152.467.467,0,0,0-.935,0,.152.152,0,0,1-.3,0,.771.771,0,0,1,1.543,0A.152.152,0,0,1,678.792,181.7Z"/><g class="aa"><rect class="ab" width="0.496" height="20.073" transform="translate(666.587 175.913)"/></g><g class="aa"><rect class="ab" width="0.496" height="20.073" transform="translate(689.262 175.913)"/></g><g class="aa"><rect class="ac" width="23.108" height="1.177" transform="translate(666.587 194.808)"/></g><path class="a" d="M691,175.417a.756.756,0,0,1-.8.929H666.153a.784.784,0,0,1-.8-.929l1.3-6.505a1.264,1.264,0,0,1,1.177-.929h20.692a1.262,1.262,0,0,1,1.177.929Z"/><path class="ad" d="M689.572,175.417a.738.738,0,0,1-.806.929H667.578a.784.784,0,0,1-.8-.929l.434-2.354a5.8,5.8,0,0,1,5.452-5.08h10.965a5.743,5.743,0,0,1,5.452,5.08Z"/><path class="a" d="M689.757,176.408H666.649l.62-3.345a5.8,5.8,0,0,1,5.451-5.08h10.966a5.744,5.744,0,0,1,5.452,5.08Z"/><g class="ae"><rect class="af" width="25.834" height="1.053" transform="translate(664.976 167.487)"/></g><g class="ae"><rect class="ag" width="27.817" height="1.487" transform="translate(664.543 175.541)"/></g><g class="ah"><rect class="ai" width="18.462" height="0.62" transform="translate(668.941 177.462)"/></g><g class="aj"><rect class="ak" width="18.896" height="1.053" transform="translate(668.446 167.487)"/></g><g class="aj"><rect class="al" width="27.817" height="1.487" transform="translate(664.543 175.541)"/></g><path class="p" d="M675.756,186.259a1.449,1.449,0,0,1,.434.434,1.316,1.316,0,0,1,.186.743,1.709,1.709,0,0,1-.186.8.968.968,0,0,1-.5.5,1.246,1.246,0,0,1-.681.186,1.146,1.146,0,0,1-1.053-.558,2.651,2.651,0,0,1-.31-1.487,3.353,3.353,0,0,1,.186-1.177,1.889,1.889,0,0,1,.557-.805,1.306,1.306,0,0,1,.806-.31,1.422,1.422,0,0,1,.867.248l-.248.372a1.2,1.2,0,0,0-.619-.186.671.671,0,0,0-.682.433,2.948,2.948,0,0,0-.31,1.116,1.117,1.117,0,0,1,.992-.558A2.211,2.211,0,0,1,675.756,186.259Zm-.186,1.92a1.317,1.317,0,0,0,.186-.743c0-.62-.248-.867-.681-.867a1.168,1.168,0,0,0-.5.124c-.124.123-.31.247-.372.433a2,2,0,0,0,.186.991.684.684,0,0,0,.62.31A.6.6,0,0,0,675.57,188.179Z"/><path class="p" d="M679.349,185.144a2.807,2.807,0,0,1,.372,1.61,2.947,2.947,0,0,1-.372,1.611,1.146,1.146,0,0,1-1.053.558,1.218,1.218,0,0,1-1.053-.558,2.808,2.808,0,0,1-.372-1.611,2.946,2.946,0,0,1,.372-1.61,1.273,1.273,0,0,1,2.106,0Zm-1.61.309a4.642,4.642,0,0,0,0,2.6.621.621,0,0,0,.619.372.755.755,0,0,0,.62-.372,3.184,3.184,0,0,0,.186-1.3,3.4,3.4,0,0,0-.186-1.3.7.7,0,0,0-1.239,0Z"/><path class="p" d="M682.013,184.772a1.449,1.449,0,0,1,.434.434,1,1,0,0,1,.186.557,1.651,1.651,0,0,1-.186.744,5.22,5.22,0,0,1-.5.743c-.247.248-.619.62-1.053,1.115h1.859l-.062.5h-2.416v-.434c.557-.557.929-.991,1.177-1.239a3.622,3.622,0,0,0,.495-.681,1.118,1.118,0,0,0,.124-.62.64.64,0,0,0-.681-.681.9.9,0,0,0-.434.124,1.966,1.966,0,0,0-.434.371l-.371-.309a4.006,4.006,0,0,1,.557-.5,1.25,1.25,0,0,1,.682-.186A.556.556,0,0,1,682.013,184.772Z"/><path class="am" d="M593.621,248.74a18.548,18.548,0,0,0-1.868,1.817c1.542,1.336,7.3,4.147,13.674,3.393,6.357-.772,6.854-2.845,6.854-2.845-.771-.72-2.776-2.142-2.776-2.142"/><path class="an" d="M593.621,248.74a12.122,12.122,0,0,1,2.844-1.645c1.628-.651,1.32-1.4,1.714-4.832,0,0-1.7-2.262-1.8-3.5a3.078,3.078,0,0,1-1.68-2.981c-.1-2.4.857-1.988.857-1.988a7.155,7.155,0,0,1,2.622-6.374c3.273-2.759,8.55.034,9.63,1.9a6.769,6.769,0,0,1,.908,5.363c-.5,1.748.446,3.462-1.011,6.272-1.456,2.827-2.245,3.187-3.53,3.7l.052,1.474a1.2,1.2,0,0,0,.736.839c.617.223,4.559,1.988,4.559,1.988-1.44.017-2.914,1.045-8.26,1.045s-7.642-1.268-7.642-1.268"/><path class="ao" d="M604.193,246.136a6.74,6.74,0,0,1-4.506-3.119c1.525,1.714,4.472,1.628,4.472,1.628Z"/><path class="ap" d="M595.54,233.8s1.439.36,1.748,2.553h.2l-.034-2.279Z"/><path class="aq" d="M604.93,246.975a44.69,44.69,0,0,1,4.558,1.988,26.764,26.764,0,0,1-8.259,1.045c-5.312,0-7.625-1.285-7.625-1.285a12.122,12.122,0,0,1,2.844-1.645s3.53,3.016,7.111,2.862c3.616-.137,1.371-2.965,1.371-2.965"/><path class="ar" d="M608.546,236.626a3.923,3.923,0,0,0-1.748-.48c-.908,0-2.416,0-2.416,2.416a8.616,8.616,0,0,0,.72,2.759"/><path class="as" d="M603.439,237.054a4.307,4.307,0,0,0-2.261-.908c-1.337,0-2.074.445-2.074,1.131a1.55,1.55,0,0,0,1.2,1.456"/><path class="at" d="M605.031,227.223c-.092.672-.657,6.2,3.649,7.629a6.779,6.779,0,0,0-.875-5.551A6.691,6.691,0,0,0,605.031,227.223Z"/><path class="ap" d="M595.54,233.8a7.155,7.155,0,0,1,2.622-6.374c3.273-2.759,8.55.034,9.63,1.9a7.991,7.991,0,0,1-3.6,4.472c-2.9,1.731-8.653,0-8.653,0"/><path class="am" d="M616.758,248.74a18.54,18.54,0,0,0-1.868,1.817c1.542,1.336,7.3,4.147,13.674,3.393,6.358-.772,6.855-2.845,6.855-2.845-.772-.72-2.776-2.142-2.776-2.142"/><path class="an" d="M616.758,248.74A12.148,12.148,0,0,1,619.6,247.1c1.628-.651,1.32-1.4,1.714-4.832,0,0-1.7-2.262-1.8-3.5a3.078,3.078,0,0,1-1.68-2.981c-.1-2.4.857-1.988.857-1.988a7.155,7.155,0,0,1,2.622-6.374c3.273-2.759,8.551.034,9.63,1.9a6.765,6.765,0,0,1,.908,5.363c-.5,1.748.446,3.462-1.011,6.272-1.456,2.827-2.244,3.187-3.53,3.7l.052,1.474a1.2,1.2,0,0,0,.737.839c.617.223,4.558,1.988,4.558,1.988-1.44.017-2.913,1.045-8.26,1.045s-7.642-1.268-7.642-1.268"/><path class="ao" d="M627.331,246.136a6.74,6.74,0,0,1-4.507-3.119c1.525,1.714,4.472,1.628,4.472,1.628Z"/><path class="ap" d="M618.677,233.8s1.44.36,1.748,2.553h.206l-.035-2.279Z"/><path class="aq" d="M628.067,246.975a44.69,44.69,0,0,1,4.558,1.988,26.765,26.765,0,0,1-8.259,1.045c-5.312,0-7.625-1.285-7.625-1.285a12.12,12.12,0,0,1,2.844-1.645s3.53,3.016,7.112,2.862c3.615-.137,1.37-2.965,1.37-2.965"/><path class="au" d="M631.683,236.626a3.917,3.917,0,0,0-1.748-.48c-.908,0-2.416,0-2.416,2.416a8.615,8.615,0,0,0,.72,2.759"/><path class="av" d="M626.577,237.054a4.307,4.307,0,0,0-2.262-.908c-1.337,0-2.074.445-2.074,1.131a1.55,1.55,0,0,0,1.2,1.456"/><path class="at" d="M628.169,227.223c-.093.672-.658,6.2,3.648,7.629a6.782,6.782,0,0,0-.874-5.551A6.7,6.7,0,0,0,628.169,227.223Z"/><path class="ap" d="M618.677,233.8a7.155,7.155,0,0,1,2.622-6.374c3.273-2.759,8.551.034,9.63,1.9a7.987,7.987,0,0,1-3.6,4.472c-2.9,1.731-8.654,0-8.654,0"/><path class="am" d="M640.951,248.74a18.54,18.54,0,0,0-1.868,1.817c1.542,1.336,7.3,4.147,13.674,3.393,6.358-.772,6.854-2.845,6.854-2.845-.771-.72-2.776-2.142-2.776-2.142"/><path class="an" d="M640.951,248.74a12.122,12.122,0,0,1,2.844-1.645c1.628-.651,1.32-1.4,1.714-4.832,0,0-1.7-2.262-1.8-3.5a3.078,3.078,0,0,1-1.68-2.981c-.1-2.4.857-1.988.857-1.988a7.155,7.155,0,0,1,2.622-6.374c3.273-2.759,8.551.034,9.63,1.9a6.769,6.769,0,0,1,.908,5.363c-.5,1.748.446,3.462-1.011,6.272-1.456,2.827-2.245,3.187-3.53,3.7l.052,1.474a1.2,1.2,0,0,0,.737.839c.616.223,4.558,1.988,4.558,1.988-1.44.017-2.913,1.045-8.26,1.045s-7.642-1.268-7.642-1.268"/><path class="ao" d="M651.523,246.136a6.74,6.74,0,0,1-4.506-3.119c1.525,1.714,4.472,1.628,4.472,1.628Z"/><path class="ap" d="M642.87,233.8s1.439.36,1.748,2.553h.205l-.034-2.279Z"/><path class="aq" d="M652.26,246.975a44.69,44.69,0,0,1,4.558,1.988,26.764,26.764,0,0,1-8.259,1.045c-5.312,0-7.625-1.285-7.625-1.285a12.122,12.122,0,0,1,2.844-1.645s3.53,3.016,7.111,2.862c3.616-.137,1.371-2.965,1.371-2.965"/><path class="ar" d="M655.876,236.626a3.923,3.923,0,0,0-1.748-.48c-.908,0-2.416,0-2.416,2.416a8.615,8.615,0,0,0,.72,2.759"/><path class="as" d="M650.769,237.054a4.3,4.3,0,0,0-2.261-.908c-1.337,0-2.074.445-2.074,1.131a1.55,1.55,0,0,0,1.2,1.456"/><path class="at" d="M652.361,227.223c-.092.672-.657,6.2,3.649,7.629a6.779,6.779,0,0,0-.875-5.551A6.692,6.692,0,0,0,652.361,227.223Z"/><path class="ap" d="M642.87,233.8a7.155,7.155,0,0,1,2.622-6.374c3.273-2.759,8.55.034,9.63,1.9a7.991,7.991,0,0,1-3.6,4.472c-2.9,1.731-8.653,0-8.653,0"/><path class="am" d="M581.606,256.091a18.546,18.546,0,0,0-1.868,1.817c1.543,1.336,7.3,4.147,13.675,3.393,6.357-.772,6.854-2.845,6.854-2.845-.771-.72-2.776-2.142-2.776-2.142"/><path class="an" d="M581.606,256.091a12.182,12.182,0,0,1,2.845-1.645c1.628-.651,1.319-1.4,1.713-4.832,0,0-1.7-2.262-1.8-3.5a3.077,3.077,0,0,1-1.679-2.981c-.1-2.4.856-1.988.856-1.988a7.155,7.155,0,0,1,2.622-6.374c3.273-2.759,8.551.034,9.63,1.9a6.77,6.77,0,0,1,.909,5.363c-.5,1.748.445,3.462-1.011,6.272-1.457,2.827-2.245,3.187-3.53,3.7l.051,1.474a1.2,1.2,0,0,0,.737.839c.617.223,4.558,1.988,4.558,1.988-1.439.017-2.913,1.045-8.259,1.045s-7.643-1.268-7.643-1.268"/><path class="ao" d="M592.179,253.487a6.744,6.744,0,0,1-4.507-3.119c1.525,1.714,4.472,1.628,4.472,1.628Z"/><path class="ap" d="M583.525,241.149s1.44.36,1.748,2.553h.206l-.035-2.279Z"/><path class="aq" d="M592.916,254.326a44.886,44.886,0,0,1,4.558,1.988,26.768,26.768,0,0,1-8.26,1.045c-5.312,0-7.625-1.285-7.625-1.285a12.143,12.143,0,0,1,2.845-1.645s3.529,3.016,7.111,2.862c3.615-.137,1.371-2.965,1.371-2.965"/><path class="aw" d="M596.531,243.977a3.918,3.918,0,0,0-1.748-.48c-.908,0-2.416,0-2.416,2.416a8.616,8.616,0,0,0,.72,2.759"/><path class="ax" d="M591.425,244.4a4.307,4.307,0,0,0-2.262-.908c-1.337,0-2.073.445-2.073,1.131a1.55,1.55,0,0,0,1.2,1.456"/><path class="at" d="M593.017,234.574c-.093.672-.658,6.2,3.648,7.629a6.778,6.778,0,0,0-.874-5.551A6.7,6.7,0,0,0,593.017,234.574Z"/><path class="ap" d="M583.525,241.149a7.155,7.155,0,0,1,2.622-6.374c3.273-2.759,8.551.034,9.63,1.9a7.987,7.987,0,0,1-3.6,4.472c-2.9,1.731-8.654,0-8.654,0"/><path class="am" d="M605.8,256.091a18.541,18.541,0,0,0-1.868,1.817c1.542,1.336,7.3,4.147,13.674,3.393,6.358-.772,6.855-2.845,6.855-2.845-.771-.72-2.776-2.142-2.776-2.142"/><path class="an" d="M605.8,256.091a12.182,12.182,0,0,1,2.845-1.645c1.627-.651,1.319-1.4,1.713-4.832,0,0-1.7-2.262-1.8-3.5a3.077,3.077,0,0,1-1.679-2.981c-.1-2.4.856-1.988.856-1.988a7.155,7.155,0,0,1,2.622-6.374c3.273-2.759,8.551.034,9.63,1.9a6.765,6.765,0,0,1,.908,5.363c-.5,1.748.446,3.462-1.011,6.272-1.456,2.827-2.244,3.187-3.529,3.7l.051,1.474a1.2,1.2,0,0,0,.737.839c.617.223,4.558,1.988,4.558,1.988-1.44.017-2.913,1.045-8.26,1.045s-7.642-1.268-7.642-1.268"/><path class="ao" d="M616.372,253.487a6.744,6.744,0,0,1-4.507-3.119c1.525,1.714,4.472,1.628,4.472,1.628Z"/><path class="ap" d="M607.718,241.149s1.44.36,1.748,2.553h.206l-.035-2.279Z"/><path class="aq" d="M617.108,254.326a44.785,44.785,0,0,1,4.559,1.988,26.775,26.775,0,0,1-8.26,1.045c-5.312,0-7.625-1.285-7.625-1.285a12.122,12.122,0,0,1,2.844-1.645s3.53,3.016,7.112,2.862c3.615-.137,1.37-2.965,1.37-2.965"/><path class="aw" d="M620.724,243.977a3.918,3.918,0,0,0-1.748-.48c-.908,0-2.416,0-2.416,2.416a8.615,8.615,0,0,0,.72,2.759"/><path class="ay" d="M615.618,244.4a4.307,4.307,0,0,0-2.262-.908c-1.337,0-2.074.445-2.074,1.131a1.55,1.55,0,0,0,1.2,1.456"/><path class="at" d="M617.21,234.574c-.093.672-.658,6.2,3.648,7.629a6.778,6.778,0,0,0-.874-5.551A6.7,6.7,0,0,0,617.21,234.574Z"/><path class="ap" d="M607.718,241.149a7.155,7.155,0,0,1,2.622-6.374c3.273-2.759,8.551.034,9.63,1.9a7.987,7.987,0,0,1-3.6,4.472c-2.9,1.731-8.654,0-8.654,0"/><path class="am" d="M629.992,256.091a18.541,18.541,0,0,0-1.868,1.817c1.542,1.336,7.3,4.147,13.674,3.393,6.358-.772,6.855-2.845,6.855-2.845-.772-.72-2.776-2.142-2.776-2.142"/><path class="an" d="M629.992,256.091a12.188,12.188,0,0,1,2.844-1.645c1.628-.651,1.32-1.4,1.714-4.832,0,0-1.7-2.262-1.8-3.5a3.078,3.078,0,0,1-1.68-2.981c-.1-2.4.857-1.988.857-1.988a7.155,7.155,0,0,1,2.622-6.374c3.273-2.759,8.551.034,9.63,1.9a6.765,6.765,0,0,1,.908,5.363c-.5,1.748.446,3.462-1.011,6.272-1.456,2.827-2.244,3.187-3.53,3.7l.052,1.474a1.2,1.2,0,0,0,.737.839c.616.223,4.558,1.988,4.558,1.988-1.44.017-2.913,1.045-8.26,1.045s-7.642-1.268-7.642-1.268"/><path class="ao" d="M640.565,253.487a6.74,6.74,0,0,1-4.507-3.119c1.525,1.714,4.472,1.628,4.472,1.628Z"/><path class="ap" d="M631.911,241.149s1.439.36,1.748,2.553h.206l-.035-2.279Z"/><path class="aq" d="M641.3,254.326a44.69,44.69,0,0,1,4.558,1.988,26.764,26.764,0,0,1-8.259,1.045c-5.312,0-7.625-1.285-7.625-1.285a12.122,12.122,0,0,1,2.844-1.645s3.53,3.016,7.112,2.862c3.615-.137,1.37-2.965,1.37-2.965"/><path class="az" d="M644.917,243.977a3.923,3.923,0,0,0-1.748-.48c-.908,0-2.416,0-2.416,2.416a8.615,8.615,0,0,0,.72,2.759"/><path class="ay" d="M639.811,244.4a4.307,4.307,0,0,0-2.262-.908c-1.337,0-2.074.445-2.074,1.131a1.55,1.55,0,0,0,1.2,1.456"/><path class="at" d="M641.4,234.574c-.093.672-.658,6.2,3.648,7.629a6.779,6.779,0,0,0-.875-5.551A6.694,6.694,0,0,0,641.4,234.574Z"/><path class="ap" d="M631.911,241.149a7.155,7.155,0,0,1,2.622-6.374c3.273-2.759,8.55.034,9.63,1.9a7.987,7.987,0,0,1-3.6,4.472c-2.9,1.731-8.654,0-8.654,0"/><path class="am" d="M654.185,256.091a18.541,18.541,0,0,0-1.868,1.817c1.542,1.336,7.3,4.147,13.674,3.393,6.357-.772,6.854-2.845,6.854-2.845-.771-.72-2.776-2.142-2.776-2.142"/><path class="an" d="M654.185,256.091a12.162,12.162,0,0,1,2.844-1.645c1.628-.651,1.32-1.4,1.714-4.832,0,0-1.7-2.262-1.8-3.5a3.078,3.078,0,0,1-1.68-2.981c-.1-2.4.857-1.988.857-1.988a7.155,7.155,0,0,1,2.622-6.374c3.273-2.759,8.55.034,9.63,1.9a6.769,6.769,0,0,1,.908,5.363c-.5,1.748.446,3.462-1.011,6.272-1.456,2.827-2.245,3.187-3.53,3.7l.052,1.474a1.2,1.2,0,0,0,.736.839c.617.223,4.559,1.988,4.559,1.988-1.44.017-2.913,1.045-8.26,1.045s-7.642-1.268-7.642-1.268"/><path class="ao" d="M664.757,253.487a6.74,6.74,0,0,1-4.506-3.119c1.525,1.714,4.472,1.628,4.472,1.628Z"/><path class="ap" d="M656.1,241.149s1.439.36,1.748,2.553h.205l-.034-2.279Z"/><path class="aq" d="M665.494,254.326a44.69,44.69,0,0,1,4.558,1.988,26.764,26.764,0,0,1-8.259,1.045c-5.312,0-7.625-1.285-7.625-1.285a12.12,12.12,0,0,1,2.844-1.645s3.53,3.016,7.111,2.862c3.616-.137,1.371-2.965,1.371-2.965"/><path class="ba" d="M669.11,243.977a3.923,3.923,0,0,0-1.748-.48c-.908,0-2.416,0-2.416,2.416a8.615,8.615,0,0,0,.72,2.759"/><path class="bb" d="M664,244.4a4.306,4.306,0,0,0-2.261-.908c-1.337,0-2.074.445-2.074,1.131a1.55,1.55,0,0,0,1.2,1.456"/><path class="at" d="M665.595,234.574c-.092.672-.657,6.2,3.649,7.629a6.779,6.779,0,0,0-.875-5.551A6.692,6.692,0,0,0,665.595,234.574Z"/><path class="ap" d="M656.1,241.149a7.155,7.155,0,0,1,2.622-6.374c3.273-2.759,8.55.034,9.63,1.9a7.991,7.991,0,0,1-3.6,4.472c-2.9,1.731-8.653,0-8.653,0"/><path class="am" d="M595.073,263.441a18.541,18.541,0,0,0-1.868,1.817c1.542,1.336,7.3,4.146,13.674,3.392,6.357-.771,6.854-2.844,6.854-2.844-.771-.72-2.776-2.142-2.776-2.142"/><path class="an" d="M595.073,263.441a12.122,12.122,0,0,1,2.844-1.645c1.628-.651,1.32-1.4,1.714-4.832,0,0-1.7-2.262-1.8-3.5a3.078,3.078,0,0,1-1.679-2.981c-.1-2.4.857-1.988.857-1.988a7.154,7.154,0,0,1,2.622-6.374c3.273-2.759,8.55.034,9.63,1.9a6.768,6.768,0,0,1,.908,5.363c-.5,1.748.446,3.461-1.011,6.272-1.456,2.827-2.245,3.187-3.53,3.7l.052,1.474a1.194,1.194,0,0,0,.736.839c.617.223,4.558,1.988,4.558,1.988-1.439.017-2.913,1.045-8.259,1.045s-7.642-1.268-7.642-1.268"/><path class="ao" d="M605.645,260.837a6.74,6.74,0,0,1-4.506-3.119c1.525,1.713,4.472,1.628,4.472,1.628Z"/><path class="ap" d="M596.992,248.5s1.439.36,1.748,2.553h.205l-.034-2.279Z"/><path class="aq" d="M606.382,261.676a44.691,44.691,0,0,1,4.558,1.988,26.764,26.764,0,0,1-8.259,1.045c-5.312,0-7.626-1.285-7.626-1.285a12.141,12.141,0,0,1,2.845-1.645s3.53,3.016,7.111,2.862c3.616-.137,1.371-2.965,1.371-2.965"/><path class="ar" d="M610,251.326a3.929,3.929,0,0,0-1.748-.479c-.908,0-2.416,0-2.416,2.416a8.625,8.625,0,0,0,.719,2.759"/><path class="bc" d="M604.891,251.755a4.307,4.307,0,0,0-2.262-.908c-1.336,0-2.073.445-2.073,1.131a1.55,1.55,0,0,0,1.2,1.456"/><path class="at" d="M606.483,241.924c-.093.672-.657,6.2,3.649,7.629a6.778,6.778,0,0,0-.875-5.551A6.692,6.692,0,0,0,606.483,241.924Z"/><path class="ap" d="M596.992,248.5a7.154,7.154,0,0,1,2.622-6.374c3.272-2.759,8.55.034,9.63,1.9a7.991,7.991,0,0,1-3.6,4.472c-2.9,1.731-8.653,0-8.653,0"/><path class="am" d="M619.265,263.441a18.588,18.588,0,0,0-1.867,1.817c1.542,1.336,7.3,4.146,13.674,3.392,6.357-.771,6.854-2.844,6.854-2.844-.771-.72-2.776-2.142-2.776-2.142"/><path class="an" d="M619.265,263.441a12.141,12.141,0,0,1,2.845-1.645c1.628-.651,1.319-1.4,1.714-4.832,0,0-1.7-2.262-1.8-3.5a3.078,3.078,0,0,1-1.679-2.981c-.1-2.4.857-1.988.857-1.988a7.154,7.154,0,0,1,2.622-6.374c3.272-2.759,8.55.034,9.63,1.9a6.768,6.768,0,0,1,.908,5.363c-.5,1.748.445,3.461-1.011,6.272-1.457,2.827-2.245,3.187-3.53,3.7l.051,1.474a1.2,1.2,0,0,0,.737.839c.617.223,4.558,1.988,4.558,1.988-1.439.017-2.913,1.045-8.259,1.045s-7.643-1.268-7.643-1.268"/><path class="ao" d="M629.838,260.837a6.744,6.744,0,0,1-4.507-3.119c1.526,1.713,4.473,1.628,4.473,1.628Z"/><path class="ap" d="M621.185,248.5s1.439.36,1.747,2.553h.206l-.034-2.279Z"/><path class="aq" d="M630.575,261.676a44.691,44.691,0,0,1,4.558,1.988,26.764,26.764,0,0,1-8.259,1.045c-5.312,0-7.626-1.285-7.626-1.285a12.143,12.143,0,0,1,2.845-1.645s3.53,3.016,7.111,2.862c3.616-.137,1.371-2.965,1.371-2.965"/><path class="bd" d="M634.191,251.326a3.929,3.929,0,0,0-1.748-.479c-.908,0-2.416,0-2.416,2.416a8.625,8.625,0,0,0,.719,2.759"/><path class="be" d="M629.084,251.755a4.307,4.307,0,0,0-2.262-.908c-1.336,0-2.073.445-2.073,1.131a1.55,1.55,0,0,0,1.2,1.456"/><path class="at" d="M630.676,241.924c-.093.672-.657,6.2,3.649,7.629A6.778,6.778,0,0,0,633.45,244,6.692,6.692,0,0,0,630.676,241.924Z"/><path class="ap" d="M621.185,248.5a7.155,7.155,0,0,1,2.621-6.374c3.273-2.759,8.551.034,9.631,1.9a7.991,7.991,0,0,1-3.6,4.472c-2.9,1.731-8.653,0-8.653,0"/><path class="am" d="M643.458,263.441a18.588,18.588,0,0,0-1.867,1.817c1.542,1.336,7.3,4.146,13.674,3.392,6.357-.771,6.854-2.844,6.854-2.844-.771-.72-2.776-2.142-2.776-2.142"/><path class="an" d="M643.458,263.441A12.141,12.141,0,0,1,646.3,261.8c1.628-.651,1.319-1.4,1.713-4.832,0,0-1.7-2.262-1.8-3.5a3.078,3.078,0,0,1-1.679-2.981c-.1-2.4.857-1.988.857-1.988a7.155,7.155,0,0,1,2.621-6.374c3.273-2.759,8.551.034,9.631,1.9a6.768,6.768,0,0,1,.908,5.363c-.5,1.748.445,3.461-1.011,6.272-1.457,2.827-2.245,3.187-3.53,3.7l.051,1.474a1.2,1.2,0,0,0,.737.839c.617.223,4.558,1.988,4.558,1.988-1.439.017-2.913,1.045-8.259,1.045s-7.643-1.268-7.643-1.268"/><path class="ao" d="M654.031,260.837a6.744,6.744,0,0,1-4.507-3.119c1.525,1.713,4.473,1.628,4.473,1.628Z"/><path class="ap" d="M645.378,248.5s1.439.36,1.747,2.553h.206l-.034-2.279Z"/><path class="aq" d="M654.768,261.676a44.691,44.691,0,0,1,4.558,1.988,26.764,26.764,0,0,1-8.259,1.045c-5.312,0-7.626-1.285-7.626-1.285a12.143,12.143,0,0,1,2.845-1.645s3.53,3.016,7.111,2.862c3.616-.137,1.371-2.965,1.371-2.965"/><path class="bf" d="M658.383,251.326a3.922,3.922,0,0,0-1.747-.479c-.909,0-2.417,0-2.417,2.416a8.615,8.615,0,0,0,.72,2.759"/><path class="bg" d="M653.277,251.755a4.307,4.307,0,0,0-2.262-.908c-1.336,0-2.073.445-2.073,1.131a1.55,1.55,0,0,0,1.2,1.456"/><path class="at" d="M654.869,241.924c-.093.672-.657,6.2,3.649,7.629a6.782,6.782,0,0,0-.875-5.551A6.692,6.692,0,0,0,654.869,241.924Z"/><path class="ap" d="M645.378,248.5A7.152,7.152,0,0,1,648,242.125c3.273-2.759,8.551.034,9.63,1.9a7.987,7.987,0,0,1-3.6,4.472c-2.9,1.731-8.653,0-8.653,0"/><line class="bh" y2="7.611" transform="translate(626.577 195.255)"/><circle class="bh" cx="2.066" cy="2.066" r="2.066" transform="translate(624.511 203.492)"/><path class="c" d="M612.661,163.054a4.964,4.964,0,1,0,0,9.928h27.832a4.964,4.964,0,0,0,0-9.928Z"/><circle class="d" cx="1.383" cy="1.383" r="1.383" transform="translate(611.277 166.553)"/><circle class="d" cx="1.383" cy="1.383" r="1.383" transform="translate(616.648 166.553)"/><circle class="d" cx="1.383" cy="1.383" r="1.383" transform="translate(622.019 166.553)"/><path class="c" d="M612.661,174.691a4.984,4.984,0,0,0-4.965,4.964,4.933,4.933,0,0,0,4.965,4.965h27.832a4.985,4.985,0,0,0,4.964-4.965,4.932,4.932,0,0,0-4.964-4.964Z"/><circle class="d" cx="1.383" cy="1.383" r="1.383" transform="translate(611.277 178.272)"/><circle class="d" cx="1.383" cy="1.383" r="1.383" transform="translate(616.648 178.272)"/><circle class="d" cx="1.383" cy="1.383" r="1.383" transform="translate(622.019 178.272)"/><path class="c" d="M612.661,186.329a4.984,4.984,0,0,0-4.965,4.964,4.933,4.933,0,0,0,4.965,4.964h27.832a4.984,4.984,0,0,0,4.964-4.964,4.932,4.932,0,0,0-4.964-4.964Z"/><circle class="d" cx="1.383" cy="1.383" r="1.383" transform="translate(611.277 189.909)"/><circle class="d" cx="1.383" cy="1.383" r="1.383" transform="translate(616.648 189.909)"/><circle class="d" cx="1.383" cy="1.383" r="1.383" transform="translate(622.019 189.909)"/><circle class="bi" cx="32.602" cy="32.602" r="32.602" transform="translate(593.975 150.04)"/></g></svg>