<svg xmlns="http://www.w3.org/2000/svg" width="188" height="212.104" viewBox="0 0 188 212.104"><defs><style>.a,.b{fill:none;stroke:#74b59b;stroke-linecap:round;stroke-miterlimit:10;stroke-width:1.5px;}.a{stroke-dasharray:0.5 4;}.c{fill:#62b597;}.d{fill:#fff;}.e{fill:#1a1818;}.f{fill:#919192;}.g{fill:#353536;}.h{fill:#cbb9b0;}.i{fill:#6f7070;}.j{fill:#161615;font-size:10px;font-family:WorkSans-Bold, Work Sans;font-weight:700;}</style></defs><g transform="translate(-1073 -4196)"><g transform="translate(170.17 3763.652)"><path class="a" d="M935.953,488.261v-18.78H921.5"/><line class="a" y2="20.576" transform="translate(942.08 510.579)"/><circle class="b" cx="2.129" cy="2.129" r="2.129" transform="translate(939.952 531.155)"/><line class="a" x2="44.378" transform="translate(944.274 533.284)"/><path class="a" d="M989.167,556.892v19.673H953.143"/><line class="a" y1="38.573" transform="translate(942.08 535.412)"/><path class="a" d="M946.854,488.067V476.005h100.56"/><line class="a" y1="44.055" transform="translate(995.682 466.911)"/><circle class="b" cx="2.129" cy="2.129" r="2.129" transform="translate(917.247 467.352)"/><line class="a" x1="26.253" y2="24.769" transform="translate(1010.002 487.164)"/><circle class="b" cx="2.129" cy="2.129" r="2.129" transform="translate(1006.454 510.966)"/><circle class="b" cx="2.129" cy="2.129" r="2.129" transform="translate(1035.717 483.66)"/><line class="a" y1="80.058" transform="translate(1051.412 478.253)"/><circle class="b" cx="2.129" cy="2.129" r="2.129" transform="translate(1049.413 558.311)"/><line class="a" y2="16.642" transform="translate(1012.84 599.947)"/><circle class="b" cx="2.129" cy="2.129" r="2.129" transform="translate(1010.711 617.04)"/><circle class="b" cx="2.129" cy="2.129" r="2.129" transform="translate(998.585 552.699)"/><circle class="b" cx="2.129" cy="2.129" r="2.129" transform="translate(987.039 552.699)"/><path class="a" d="M1060.636,524.318v-18.9h15.932"/><circle class="b" cx="2.129" cy="2.129" r="2.129" transform="translate(1074.44 503.29)"/><circle class="b" cx="2.129" cy="2.129" r="2.129" transform="translate(993.554 462.266)"/><circle class="b" cx="2.129" cy="2.129" r="2.129" transform="translate(993.554 510.966)"/><line class="a" y2="26.382" transform="translate(1000.713 556.956)"/><path class="a" d="M998.617,599.85H942.08V578.694"/><path class="c" d="M1047.413,531.542a3.95,3.95,0,0,0-3.934,3.935,3.908,3.908,0,0,0,3.934,3.934h22a3.95,3.95,0,0,0,3.934-3.934,3.909,3.909,0,0,0-3.934-3.935Z"/><circle class="d" cx="1.097" cy="1.097" r="1.097" transform="translate(1046.317 534.316)"/><circle class="d" cx="1.097" cy="1.097" r="1.097" transform="translate(1050.574 534.316)"/><circle class="d" cx="1.097" cy="1.097" r="1.097" transform="translate(1054.831 534.316)"/><path class="c" d="M1047.413,540.766a3.935,3.935,0,0,0,0,7.869h22a3.935,3.935,0,0,0,0-7.869Z"/><circle class="d" cx="1.097" cy="1.097" r="1.097" transform="translate(1046.317 543.604)"/><circle class="d" cx="1.097" cy="1.097" r="1.097" transform="translate(1050.574 543.604)"/><circle class="d" cx="1.097" cy="1.097" r="1.097" transform="translate(1054.831 543.604)"/><path class="c" d="M1047.413,522.254a3.95,3.95,0,0,0-3.934,3.934,3.908,3.908,0,0,0,3.934,3.935h22a3.95,3.95,0,0,0,3.934-3.935,3.908,3.908,0,0,0-3.934-3.934Z"/><circle class="d" cx="1.097" cy="1.097" r="1.097" transform="translate(1046.317 525.092)"/><circle class="d" cx="1.097" cy="1.097" r="1.097" transform="translate(1050.574 525.092)"/><circle class="d" cx="1.097" cy="1.097" r="1.097" transform="translate(1054.831 525.092)"/><path class="c" d="M931.115,485.423a3.934,3.934,0,1,0,0,7.869h22.06a3.934,3.934,0,1,0,0-7.869Z"/><circle class="d" cx="1.097" cy="1.097" r="1.097" transform="translate(930.018 488.196)"/><circle class="d" cx="1.097" cy="1.097" r="1.097" transform="translate(934.276 488.196)"/><circle class="d" cx="1.097" cy="1.097" r="1.097" transform="translate(938.533 488.196)"/><path class="c" d="M931.115,494.647a3.95,3.95,0,0,0-3.935,3.934,3.91,3.91,0,0,0,3.935,3.935h22.06a3.951,3.951,0,0,0,3.935-3.935,3.909,3.909,0,0,0-3.935-3.934Z"/><circle class="d" cx="1.097" cy="1.097" r="1.097" transform="translate(930.018 497.485)"/><circle class="d" cx="1.097" cy="1.097" r="1.097" transform="translate(934.276 497.485)"/><circle class="d" cx="1.097" cy="1.097" r="1.097" transform="translate(938.533 497.485)"/><path class="c" d="M931.115,503.871a3.95,3.95,0,0,0-3.935,3.934,3.91,3.91,0,0,0,3.935,3.935h22.06a3.951,3.951,0,0,0,3.935-3.935,3.909,3.909,0,0,0-3.935-3.934Z"/><circle class="d" cx="1.097" cy="1.097" r="1.097" transform="translate(930.018 506.709)"/><circle class="d" cx="1.097" cy="1.097" r="1.097" transform="translate(934.276 506.709)"/><circle class="d" cx="1.097" cy="1.097" r="1.097" transform="translate(938.533 506.709)"/><path class="c" d="M985.555,530.059a3.95,3.95,0,0,0-3.934,3.934,3.909,3.909,0,0,0,3.934,3.935h22a3.95,3.95,0,0,0,3.934-3.935,3.908,3.908,0,0,0-3.934-3.934Z"/><circle class="d" cx="1.097" cy="1.097" r="1.097" transform="translate(984.459 532.832)"/><circle class="d" cx="1.097" cy="1.097" r="1.097" transform="translate(988.716 532.832)"/><circle class="d" cx="1.097" cy="1.097" r="1.097" transform="translate(992.973 532.832)"/><path class="c" d="M985.555,539.282a3.935,3.935,0,0,0,0,7.87h22a3.935,3.935,0,0,0,0-7.87Z"/><circle class="d" cx="1.097" cy="1.097" r="1.097" transform="translate(984.459 542.121)"/><circle class="d" cx="1.097" cy="1.097" r="1.097" transform="translate(988.716 542.121)"/><circle class="d" cx="1.097" cy="1.097" r="1.097" transform="translate(992.973 542.121)"/><path class="c" d="M985.555,520.77a3.951,3.951,0,0,0-3.934,3.935,3.909,3.909,0,0,0,3.934,3.935h22a3.95,3.95,0,0,0,3.934-3.935,3.909,3.909,0,0,0-3.934-3.935Z"/><circle class="d" cx="1.097" cy="1.097" r="1.097" transform="translate(984.459 523.608)"/><circle class="d" cx="1.097" cy="1.097" r="1.097" transform="translate(988.716 523.608)"/><circle class="d" cx="1.097" cy="1.097" r="1.097" transform="translate(992.973 523.608)"/><path class="c" d="M995.456,586.565a3.951,3.951,0,0,0-3.934,3.935,3.908,3.908,0,0,0,3.934,3.934h22a3.95,3.95,0,0,0,3.934-3.934,3.909,3.909,0,0,0-3.934-3.935Z"/><circle class="d" cx="1.097" cy="1.097" r="1.097" transform="translate(994.36 589.339)"/><circle class="d" cx="1.097" cy="1.097" r="1.097" transform="translate(998.617 589.339)"/><circle class="d" cx="1.097" cy="1.097" r="1.097" transform="translate(1002.874 589.339)"/><path class="c" d="M995.456,595.789a3.935,3.935,0,0,0,0,7.869h22a3.935,3.935,0,0,0,0-7.869Z"/><circle class="d" cx="1.097" cy="1.097" r="1.097" transform="translate(994.36 598.627)"/><circle class="d" cx="1.097" cy="1.097" r="1.097" transform="translate(998.617 598.627)"/><circle class="d" cx="1.097" cy="1.097" r="1.097" transform="translate(1002.874 598.627)"/><path class="c" d="M995.456,577.277a3.95,3.95,0,0,0-3.934,3.934,3.909,3.909,0,0,0,3.934,3.935h22a3.95,3.95,0,0,0,3.934-3.935,3.908,3.908,0,0,0-3.934-3.934Z"/><circle class="d" cx="1.097" cy="1.097" r="1.097" transform="translate(994.36 580.115)"/><circle class="d" cx="1.097" cy="1.097" r="1.097" transform="translate(998.617 580.115)"/><circle class="d" cx="1.097" cy="1.097" r="1.097" transform="translate(1002.874 580.115)"/><path class="c" d="M1047.413,470.9a3.95,3.95,0,0,0-3.934,3.934,3.908,3.908,0,0,0,3.934,3.935h22a3.95,3.95,0,0,0,3.934-3.935,3.908,3.908,0,0,0-3.934-3.934Z"/><circle class="d" cx="1.097" cy="1.097" r="1.097" transform="translate(1046.317 473.673)"/><circle class="d" cx="1.097" cy="1.097" r="1.097" transform="translate(1050.574 473.673)"/><circle class="d" cx="1.097" cy="1.097" r="1.097" transform="translate(1054.831 473.673)"/><path class="c" d="M1047.413,480.124a3.935,3.935,0,0,0,0,7.869h22a3.935,3.935,0,0,0,0-7.869Z"/><circle class="d" cx="1.097" cy="1.097" r="1.097" transform="translate(1046.317 482.962)"/><circle class="d" cx="1.097" cy="1.097" r="1.097" transform="translate(1050.574 482.962)"/><circle class="d" cx="1.097" cy="1.097" r="1.097" transform="translate(1054.831 482.962)"/><path class="c" d="M1047.413,461.611a3.95,3.95,0,0,0-3.934,3.935,3.909,3.909,0,0,0,3.934,3.935h22a3.95,3.95,0,0,0,3.934-3.935,3.909,3.909,0,0,0-3.934-3.935Z"/><circle class="d" cx="1.097" cy="1.097" r="1.097" transform="translate(1046.317 464.45)"/><circle class="d" cx="1.097" cy="1.097" r="1.097" transform="translate(1050.574 464.45)"/><circle class="d" cx="1.097" cy="1.097" r="1.097" transform="translate(1054.831 464.45)"/><line class="a" x2="22.092" transform="translate(1020.386 581.5)"/><path class="e" d="M1013.213,456H977.12V433.8a1.254,1.254,0,0,1,1.267-1.267h33.558a1.255,1.255,0,0,1,1.268,1.267Z"/><path class="f" d="M1013.393,456.18H976.939V433.8a1.433,1.433,0,0,1,1.448-1.448h33.558a1.433,1.433,0,0,1,1.448,1.448Zm-36.093-.361h35.732V433.8a1.075,1.075,0,0,0-1.087-1.087H978.387A1.075,1.075,0,0,0,977.3,433.8Z"/><circle class="g" cx="0.355" cy="0.355" r="0.355" transform="translate(994.811 433.517)"/><rect class="h" width="32.494" height="18.959" transform="translate(978.919 435.139)"/><path class="f" d="M1015.925,457.14a1.353,1.353,0,0,1-1.344,1.343h-38.83a1.352,1.352,0,0,1-1.343-1.343V455.8h41.517Z"/><path class="i" d="M997.9,456.177a.4.4,0,0,1-.406.4h-4.664a.4.4,0,0,1-.4-.4v-.406h5.5v.406Z"/><path class="e" d="M1076.457,589.729h-36.093v-22.2a1.256,1.256,0,0,1,1.268-1.267h33.558a1.255,1.255,0,0,1,1.267,1.267Z"/><path class="f" d="M1076.638,589.909h-36.454V567.525a1.432,1.432,0,0,1,1.448-1.447h33.558a1.432,1.432,0,0,1,1.448,1.447Zm-36.093-.361h35.732V567.525a1.075,1.075,0,0,0-1.087-1.086h-33.558a1.075,1.075,0,0,0-1.087,1.086Z"/><circle class="g" cx="0.355" cy="0.355" r="0.355" transform="translate(1058.056 567.247)"/><rect class="h" width="32.494" height="18.959" transform="translate(1042.164 568.869)"/><path class="f" d="M1079.17,590.869a1.353,1.353,0,0,1-1.344,1.344H1039a1.353,1.353,0,0,1-1.344-1.344v-1.343h41.518Z"/><path class="i" d="M1061.148,589.906a.4.4,0,0,1-.4.406h-4.664a.4.4,0,0,1-.405-.406V589.5h5.5v.405Z"/><path class="e" d="M958,587.149H921.905v-22.2a1.256,1.256,0,0,1,1.268-1.267h33.558A1.255,1.255,0,0,1,958,564.945Z"/><path class="f" d="M958.179,587.329H921.725V564.945a1.433,1.433,0,0,1,1.448-1.448h33.558a1.433,1.433,0,0,1,1.448,1.448Zm-36.093-.361h35.732V564.945a1.075,1.075,0,0,0-1.087-1.087H923.173a1.075,1.075,0,0,0-1.087,1.087Z"/><circle class="g" cx="0.355" cy="0.355" r="0.355" transform="translate(939.597 564.666)"/><rect class="h" width="32.494" height="18.959" transform="translate(923.705 566.289)"/><path class="f" d="M960.71,588.289a1.352,1.352,0,0,1-1.343,1.343h-38.83a1.353,1.353,0,0,1-1.344-1.343v-1.343H960.71Z"/><path class="i" d="M942.689,587.326a.4.4,0,0,1-.405.406H937.62a.4.4,0,0,1-.406-.406v-.406h5.5v.406Z"/></g><text class="j" transform="translate(1073 4405.104)"><tspan x="0" y="0">DECENTRALISED STORAGE NETWORK</tspan></text></g></svg>