<svg xmlns="http://www.w3.org/2000/svg" xmlns:xlink="http://www.w3.org/1999/xlink" width="179.751" height="151.006" viewBox="0 0 179.751 151.006"><defs><style>.a,.am,.an{fill:none;}.b{fill:#3a8062;}.c{fill:#cbb9b0;}.d{fill:#fff;}.e{fill:#4a4744;}.f{fill:#68b699;}.g{fill:#5e412f;}.h{fill:#a77453;}.i{clip-path:url(#a);}.j{fill:#32271f;}.k{fill:#5d5652;}.l{fill:#392a22;}.m{fill:#a97552;}.n{fill:#7fb69b;}.o{fill:#74a58b;}.p{fill:#2b3c30;}.q{fill:#d7eae0;}.r{fill:#436b5d;}.s{clip-path:url(#c);}.t{fill:#618a74;}.u{fill:#afd6c2;}.v{fill:#496656;}.w{fill:#e89c00;}.x{fill:#bb7a00;}.y{fill:#395645;}.z{fill:#c37e00;}.aa{clip-path:url(#g);}.ab{fill:#638b74;}.ac{fill:#4d6555;}.ad{fill:#8cc0a2;}.ae{clip-path:url(#j);}.af{fill:#92c8aa;}.ag{fill:#4f705f;}.ah{clip-path:url(#l);}.ai{fill:#1d251e;}.aj{clip-path:url(#m);}.ak{fill:#9fcdb2;}.al{fill:#5a7868;}.am{stroke:#4e4d4d;stroke-linejoin:round;}.am,.an{stroke-linecap:round;stroke-width:1.5px;}.an{stroke:#74b59b;stroke-miterlimit:10;stroke-dasharray:0.5 4;}.ao{fill:#75b69b;}.ap{fill:#9e7054;}.aq{fill:#795644;}.ar{fill:#282928;}.as{fill:#5c8e77;}.at{fill:url(#o);}.au{fill:url(#p);}.av{fill:#232322;}.aw{fill:url(#q);}.ax{fill:url(#s);}.ay{fill:url(#u);}.az{fill:url(#v);}.ba{fill:url(#x);}.bb{fill:url(#y);}.bc{fill:url(#aa);}.bd{fill:url(#ab);}.be{fill:url(#ac);}.bf{fill:url(#ad);}.bg{fill:url(#ae);}.bh{fill:url(#af);}.bi{fill:url(#ak);}</style><clipPath id="a"><path class="a" d="M130.26,135.819s-.228,1.641.958,2.006l.456-.092-.092-1.914Z"/></clipPath><clipPath id="c"><rect class="a" width="17.749" height="12.522" rx="0.973" transform="translate(179.942 182.566)"/></clipPath><clipPath id="g"><path class="a" d="M199.879,197.823H177.754a.261.261,0,0,1-.243-.243V179.4a.261.261,0,0,1,.243-.243H199.94a.261.261,0,0,1,.243.243V197.58A.278.278,0,0,1,199.879,197.823Z"/></clipPath><clipPath id="j"><path class="a" d="M201.52,178.858a.3.3,0,0,1-.3.365h-24.74a.3.3,0,0,1-.3-.365l1.4-7.476a.522.522,0,0,1,.426-.365h21.639c.183,0,.426.182.426.365Z"/></clipPath><clipPath id="l"><path class="a" d="M196.293,180.621H181.279a1.349,1.349,0,0,1-1.337-1.337v-.061H197.63v.061A1.275,1.275,0,0,1,196.293,180.621Z"/></clipPath><clipPath id="m"><path class="a" d="M200,178.311a.724.724,0,0,1-.79.912H178.422a.77.77,0,0,1-.79-.912l.426-2.31a5.69,5.69,0,0,1,5.349-4.984h10.759A5.637,5.637,0,0,1,199.515,176Z"/></clipPath><linearGradient id="o" x1="0.663" y1="-10.456" x2="0.088" y2="-10.918" gradientUnits="objectBoundingBox"><stop offset="0" stop-color="#9e7054"/><stop offset="0.335" stop-color="#986b52"/><stop offset="0.782" stop-color="#855f49"/><stop offset="1" stop-color="#795644"/></linearGradient><linearGradient id="p" x1="0.58" y1="-21.31" x2="0.392" y2="-22.179" gradientUnits="objectBoundingBox"><stop offset="0" stop-color="#9e7054"/><stop offset="0.349" stop-color="#9a6d52"/><stop offset="0.682" stop-color="#8d644c"/><stop offset="1" stop-color="#795644"/></linearGradient><linearGradient id="q" x1="0.663" y1="-10.456" x2="0.088" y2="-10.918" xlink:href="#o"/><linearGradient id="s" x1="0.663" y1="-10.456" x2="0.088" y2="-10.918" xlink:href="#o"/><linearGradient id="u" x1="0.663" y1="-10.456" x2="0.088" y2="-10.918" xlink:href="#o"/><linearGradient id="v" x1="0.58" y1="-21.31" x2="0.392" y2="-22.179" xlink:href="#p"/><linearGradient id="x" x1="0.58" y1="-21.31" x2="0.392" y2="-22.179" xlink:href="#p"/><linearGradient id="y" x1="0.663" y1="-10.456" x2="0.088" y2="-10.918" xlink:href="#o"/><linearGradient id="aa" x1="0.663" y1="-10.456" x2="0.088" y2="-10.918" xlink:href="#o"/><linearGradient id="ab" x1="0.58" y1="-21.31" x2="0.392" y2="-22.178" xlink:href="#p"/><linearGradient id="ac" x1="0.663" y1="-10.456" x2="0.088" y2="-10.918" xlink:href="#o"/><linearGradient id="ad" x1="0.58" y1="-21.31" x2="0.392" y2="-22.178" xlink:href="#p"/><linearGradient id="ae" x1="0.663" y1="-10.456" x2="0.088" y2="-10.918" xlink:href="#o"/><linearGradient id="af" x1="0.58" y1="-21.31" x2="0.392" y2="-22.178" xlink:href="#p"/><linearGradient id="ak" x1="0.663" y1="-10.456" x2="0.088" y2="-10.918" xlink:href="#o"/></defs><g transform="translate(-202.218 -3918.684)"><g transform="translate(153.759 3795.507)"><path class="b" d="M134.622,132.112l-.729-1.945h1.459Z"/><path class="c" d="M148.359,130.167H124.41a1.376,1.376,0,0,0-1.4,1.4v14.588a1.376,1.376,0,0,0,1.4,1.4h23.949a1.376,1.376,0,0,0,1.4-1.4V131.565A1.376,1.376,0,0,0,148.359,130.167ZM137.9,132.6h-3.039a.608.608,0,0,1,0-1.216H137.9a.608.608,0,0,1,0,1.216Z"/><path class="b" d="M133.892,130.167h3.465l-2.492-6.018H131.4Z"/><rect class="d" width="0.243" height="8.388" transform="translate(135.959 135.212)"/><line class="a" x2="7.233" transform="translate(137.965 136.184)"/><path class="e" d="M146.049,139.677h-7.294a.211.211,0,0,1,0-.421h7.294a.211.211,0,0,1,0,.421Z"/><path class="e" d="M146.049,137.4h-7.294a.421.421,0,0,1,0-.841h7.294a.421.421,0,1,1,0,.841Z"/><path class="e" d="M146.049,141.014h-7.294a.21.21,0,1,1,0-.42h7.294a.21.21,0,1,1,0,.42Z"/><path class="e" d="M143.861,142.351h-5.106a.21.21,0,1,1,0-.42h5.106a.21.21,0,1,1,0,.42Z"/><path class="d" d="M148.359,147.239H124.41a1.014,1.014,0,0,1-1.025-1.025V131.626a1.015,1.015,0,0,1,1.025-1.026h23.949a1.015,1.015,0,0,1,1.025,1.026v14.588A1.014,1.014,0,0,1,148.359,147.239ZM124.41,130.706a.91.91,0,0,0-.92.92v14.588a.91.91,0,0,0,.92.92h23.949a.91.91,0,0,0,.92-.92V131.626a.91.91,0,0,0-.92-.92Z"/><path class="f" d="M138.026,132.112h-3.4l3.647-8.935h3.525Z"/><path class="g" d="M127.16,141.563a4.144,4.144,0,0,0-.5.5,5.505,5.505,0,0,0,3.647.912c1.687-.182,1.824-.775,1.824-.775-.228-.182-.73-.593-.73-.593"/><path class="h" d="M127.16,141.563a3.072,3.072,0,0,1,.775-.456c.411-.182.365-.365.456-1.277a3.027,3.027,0,0,1-.5-.911.815.815,0,0,1-.456-.775c-.046-.639.228-.547.228-.547a1.871,1.871,0,0,1,.684-1.687,1.942,1.942,0,0,1,2.553.5,1.794,1.794,0,0,1,.228,1.414c-.137.455.136.911-.274,1.686s-.593.866-.957,1v.411s.045.182.182.227c.182.046,1.231.548,1.231.548a10.958,10.958,0,0,1-2.188.273,4.588,4.588,0,0,1-1.961-.41"/><g class="i"><path class="j" d="M127.16,141.563a3.072,3.072,0,0,1,.775-.456c.411-.182.365-.365.456-1.277a3.027,3.027,0,0,1-.5-.911.815.815,0,0,1-.456-.775c-.046-.639.228-.547.228-.547a1.871,1.871,0,0,1,.684-1.687,1.942,1.942,0,0,1,2.553.5,1.794,1.794,0,0,1,.228,1.414c-.137.455.136.911-.274,1.686s-.593.866-.957,1v.411s.045.182.182.227a4.686,4.686,0,0,1,1.231.548,7.208,7.208,0,0,1-2.188.273,4.588,4.588,0,0,1-1.961-.41"/></g><g class="i"><path class="k" d="M130.032,140.879a1.747,1.747,0,0,1-1.185-.821,1.794,1.794,0,0,0,1.185.456Z"/></g><path class="l" d="M128.391,135.864a1.872,1.872,0,0,0-.684,1.687s.365.091.456.684h.046v-.547a2.649,2.649,0,0,0,1.778-.137,2.107,2.107,0,0,0,.957-1.185A1.942,1.942,0,0,0,128.391,135.864Z"/><path class="g" d="M130.215,141.107a6.409,6.409,0,0,1,1.231.547,7.212,7.212,0,0,1-2.189.273,4.465,4.465,0,0,1-2.051-.364,3.049,3.049,0,0,1,.775-.456,3.284,3.284,0,0,0,1.915.775c.911-.046.319-.775.319-.775"/><path class="m" d="M98.449,146.257a7.294,7.294,0,0,0-14.589,0,7.216,7.216,0,0,0,6.2,7.172v3.526H88.723a1.094,1.094,0,1,0,0,2.188H90.06v1.641a1.095,1.095,0,0,0,2.189,0v-1.641h1.337a1.094,1.094,0,1,0,0-2.188H92.249v-3.526A7.216,7.216,0,0,0,98.449,146.257Zm-12.34,0a5.106,5.106,0,1,1,5.106,5.106A5.137,5.137,0,0,1,86.109,146.257Z"/><path class="d" d="M91.155,162.154a1.371,1.371,0,0,1-1.37-1.37v-1.366H88.723a1.369,1.369,0,1,1,0-2.738h1.062v-3.015a7.57,7.57,0,1,1,2.739,0v3.015h1.062a1.369,1.369,0,0,1,0,2.738H92.524v1.366A1.371,1.371,0,0,1,91.155,162.154Zm-2.432-4.924a.819.819,0,0,0,0,1.638h1.613v1.916a.819.819,0,1,0,1.637,0v-1.916h1.613a.819.819,0,1,0,0-1.638H91.973v-4.04l.238-.033a7.019,7.019,0,1,0-2.113,0l.238.033v4.04Zm2.492-5.592a5.381,5.381,0,1,1,5.382-5.381A5.387,5.387,0,0,1,91.215,151.638Zm0-10.212a4.831,4.831,0,1,0,4.831,4.831A4.836,4.836,0,0,0,91.215,141.426Z"/><path class="m" d="M115.468,146.257a7.294,7.294,0,1,0-14.588,0,7.216,7.216,0,0,0,6.2,7.172v5.592l-1.155-.85a1.13,1.13,0,0,0-1.337,1.823l2.918,2.188a1.1,1.1,0,0,0,1.215,0l2.918-2.188a1.13,1.13,0,1,0-1.337-1.823l-1.155.85v-5.592A7.217,7.217,0,0,0,115.468,146.257Zm-12.339,0a5.106,5.106,0,1,1,5.106,5.106A5.137,5.137,0,0,1,103.129,146.257Z"/><path class="d" d="M108.114,162.64a1.445,1.445,0,0,1-.761-.229l-2.946-2.21a1.441,1.441,0,0,1-.282-1.953l.013-.016a1.442,1.442,0,0,1,1.952-.282l.715.527v-4.812a7.625,7.625,0,1,1,2.617,0v4.81l.716-.528a1.366,1.366,0,0,1,1.042-.248,1.439,1.439,0,0,1,.922.547,1.424,1.424,0,0,1-.3,1.966l-2.917,2.188A1.453,1.453,0,0,1,108.114,162.64Zm-3.352-2.86,2.909,2.182a.833.833,0,0,0,.9-.009l2.9-2.179a.847.847,0,0,0-.379-1.529.821.821,0,0,0-.628.146l-1.6,1.175v-6.378l.238-.031a6.919,6.919,0,0,0,6.083-6.9,7.019,7.019,0,1,0-8.075,6.9l.237.033v6.376l-1.593-1.174a.855.855,0,1,0-1,1.388Zm3.473-8.142a5.381,5.381,0,1,1,5.381-5.381A5.387,5.387,0,0,1,108.235,151.638Zm0-10.212a4.831,4.831,0,1,0,4.831,4.831A4.836,4.836,0,0,0,108.235,141.426Z"/><path class="m" d="M106.959,146.257a7.294,7.294,0,0,0-14.589,0,7.216,7.216,0,0,0,6.2,7.172v1.4H97.233a1.095,1.095,0,0,0,0,2.189H98.57v2.006l-1.155-.791a1.131,1.131,0,0,0-1.337,1.824L99,162.243a1.1,1.1,0,0,0,1.215,0l2.918-2.188a1.131,1.131,0,0,0-1.337-1.824l-1.155.851v-2.006h1.337a1.094,1.094,0,1,0,0-2.188h-1.337v-1.4A7.325,7.325,0,0,0,106.959,146.257Zm-12.34,0a5.106,5.106,0,1,1,5.106,5.106A5.137,5.137,0,0,1,94.619,146.257Z"/><path class="d" d="M99.6,162.7a1.448,1.448,0,0,1-.761-.229l-2.946-2.21a1.443,1.443,0,0,1-.282-1.953l.013-.016a1.443,1.443,0,0,1,1.953-.282l.714.489v-1.209H97.233a1.369,1.369,0,0,1,0-2.739h1.062v-.887a7.465,7.465,0,1,1,2.617.059v.889h1.062a1.369,1.369,0,1,1,0,2.739h-1.062v1.186l.717-.528a1.361,1.361,0,0,1,1.042-.248,1.439,1.439,0,0,1,.921.547,1.424,1.424,0,0,1-.3,1.966l-2.917,2.188A1.453,1.453,0,0,1,99.6,162.7Zm-3.352-2.86,2.909,2.182a.833.833,0,0,0,.9-.009l2.9-2.179a.847.847,0,0,0-.379-1.529.82.82,0,0,0-.628.145l-1.6,1.176V156.8h1.612a.819.819,0,1,0,0-1.638h-1.612v-1.91l.234-.035a7.021,7.021,0,1,0-7.95-6.961,6.968,6.968,0,0,0,5.962,6.9l.238.033V155.1H97.233a.819.819,0,1,0,0,1.637h1.613v2.8l-1.586-1.085a.856.856,0,1,0-1.008,1.383Zm3.473-8.2a5.381,5.381,0,1,1,5.381-5.381A5.387,5.387,0,0,1,99.725,151.638Zm0-10.212a4.831,4.831,0,1,0,4.831,4.831A4.835,4.835,0,0,0,99.725,141.426Z"/><path class="f" d="M94.283,171.29l-12.4-.06a1.913,1.913,0,0,0-2.006,1.823v24.679a1.914,1.914,0,0,0,2.006,1.823l15.439.061a1.913,1.913,0,0,0,2.006-1.824l.061-22a1.606,1.606,0,0,0-.608-1.277L95.8,171.838A2.336,2.336,0,0,0,94.283,171.29Z"/><path class="c" d="M96.532,183.751l-.061,11.61a1.894,1.894,0,0,1-1.884,1.884l-10.212-.06a1.894,1.894,0,0,1-1.884-1.885l.061-11.61a1.894,1.894,0,0,1,1.884-1.884l10.212.061A1.893,1.893,0,0,1,96.532,183.751Z"/><path class="d" d="M94.587,197.482l-10.213-.061a2.123,2.123,0,0,1-2.12-2.121l.061-11.611a2.124,2.124,0,0,1,2.121-2.12l10.213.061a2.13,2.13,0,0,1,2.12,2.121h0l-.061,11.61A2.123,2.123,0,0,1,94.587,197.482ZM84.435,182.043a1.65,1.65,0,0,0-1.647,1.648l-.06,11.611a1.649,1.649,0,0,0,1.647,1.646l10.213.061a1.649,1.649,0,0,0,1.647-1.648l.06-11.61a1.665,1.665,0,0,0-1.66-1.648Z"/><path class="d" d="M91.791,187.878H87.354a1.553,1.553,0,0,1-1.514-1.513v-4.5a.237.237,0,0,1,.474,0v4.5a1.1,1.1,0,0,0,1.04,1.04h4.437a1.1,1.1,0,0,0,1.04-1.04v-4.5a.237.237,0,1,1,.473,0v4.5A1.553,1.553,0,0,1,91.791,187.878Z"/><path class="d" d="M93.067,197.482a.237.237,0,0,1-.236-.237v-4.5a1.1,1.1,0,0,0-1.04-1.039H87.354a1.1,1.1,0,0,0-1.04,1.039v4.5a.237.237,0,0,1-.474,0v-4.5a1.553,1.553,0,0,1,1.514-1.513h4.437a1.553,1.553,0,0,1,1.513,1.513v4.5A.237.237,0,0,1,93.067,197.482Z"/><path class="d" d="M87.6,191.708a.237.237,0,0,1-.237-.237v-3.89a.237.237,0,1,1,.474,0v3.89A.237.237,0,0,1,87.6,191.708Z"/><path class="d" d="M91.548,191.768a.237.237,0,0,1-.237-.236v-3.951a.237.237,0,0,1,.474,0v3.951A.237.237,0,0,1,91.548,191.768Z"/><path class="d" d="M89.542,197.482a.237.237,0,0,1-.237-.237v-5.713a.237.237,0,1,1,.474,0v5.713A.237.237,0,0,1,89.542,197.482Z"/><path class="d" d="M89.542,187.818h0a.238.238,0,0,1-.235-.24l.061-5.653a.236.236,0,0,1,.237-.234h0a.238.238,0,0,1,.235.239l-.061,5.653A.238.238,0,0,1,89.542,187.818Z"/><path class="d" d="M86.077,193.653H82.552a.237.237,0,0,1,0-.474h3.525a.237.237,0,0,1,0,.474Z"/><path class="d" d="M96.532,193.714H93.007a.237.237,0,1,1,0-.474h3.525a.237.237,0,0,1,0,.474Z"/><path class="d" d="M96.532,185.872H93.007a.236.236,0,1,1,0-.473h3.525a.236.236,0,1,1,0,.473Z"/><path class="d" d="M86.138,185.872H82.613a.236.236,0,1,1,0-.473h3.525a.236.236,0,1,1,0,.473Z"/><path class="m" d="M167.706,137.36a13.242,13.242,0,0,1,5.775-1.155,13.617,13.617,0,0,1,5.774,1.155.365.365,0,0,0,.243.061.584.584,0,0,0,.547-.365.6.6,0,0,0-.3-.79,14.771,14.771,0,0,0-6.26-1.277,14.581,14.581,0,0,0-6.261,1.277.6.6,0,0,0-.3.79A.646.646,0,0,0,167.706,137.36Z"/><path class="m" d="M165.518,141.979a11.149,11.149,0,0,1,8.023-3.464,10.917,10.917,0,0,1,8.024,3.464.586.586,0,0,0,.851,0,.588.588,0,0,0,0-.851,12.091,12.091,0,0,0-8.875-3.768,12.429,12.429,0,0,0-8.874,3.768.6.6,0,0,0,.851.851Z"/><path class="m" d="M173.541,139.791a12.225,12.225,0,0,0-2.553.3c-.364.122-.547.365-.425.73s.365.547.729.425a9.146,9.146,0,0,1,2.249-.3A9.04,9.04,0,0,1,182.6,150a.608.608,0,0,0,1.216,0A10.366,10.366,0,0,0,173.541,139.791Z"/><path class="m" d="M164.484,150a9.329,9.329,0,0,1,2.614-6.382,8.259,8.259,0,0,1,1.885-1.459.616.616,0,0,0-.669-1.034,11.086,11.086,0,0,0-2.128,1.642,10.491,10.491,0,0,0-2.978,7.172.574.574,0,0,0,.608.608h0C164.241,150.672,164.484,150.368,164.484,150Z"/><path class="m" d="M166.916,150.185a6.7,6.7,0,0,1,1.945-4.8,6.635,6.635,0,0,1,9.725.365.6.6,0,1,0,.912-.79,7.807,7.807,0,0,0-11.427-.365,8.2,8.2,0,0,0-2.31,5.714,9.869,9.869,0,0,1-1.094,4.316l-.365.607a.673.673,0,0,0,.243.851c.122.061.183.122.3.122a.724.724,0,0,0,.547-.3l.365-.608A14.524,14.524,0,0,0,166.916,150.185Z"/><path class="m" d="M181.808,154.744a22.233,22.233,0,0,1-.425-4.437v-.365a7.848,7.848,0,0,0-.426-2.614.616.616,0,0,0-1.155.426,6.978,6.978,0,0,1,.365,2.249v.365a21.661,21.661,0,0,0,.486,4.68l.669,2.31a.73.73,0,0,0,.608.425.225.225,0,0,0,.182-.06.526.526,0,0,0,.365-.73Z"/><path class="m" d="M180.167,157.966a33.139,33.139,0,0,1-1.216-7.9,5.421,5.421,0,0,0-5.41-5.41,5.487,5.487,0,0,0-5.409,5.531,14.079,14.079,0,0,1-2.675,7.659.608.608,0,0,0,.973.73,15.134,15.134,0,0,0,2.856-8.389,4.255,4.255,0,1,1,8.51,0,30.4,30.4,0,0,0,1.277,8.267l.547,1.824a.73.73,0,0,0,.608.425.223.223,0,0,0,.182-.061.566.566,0,0,0,.365-.79Z"/><path class="m" d="M176.52,150a3.04,3.04,0,0,0-6.079,0,16.737,16.737,0,0,1-3.708,9.908.608.608,0,0,0,.973.729A18.031,18.031,0,0,0,171.657,150a1.824,1.824,0,1,1,3.647,0,22,22,0,0,1-4.68,12.886.662.662,0,0,0,.121.851.446.446,0,0,0,.365.122.752.752,0,0,0,.486-.243A22.61,22.61,0,0,0,176.52,150Z"/><path class="m" d="M173.237,153.042h.122a.592.592,0,0,0,.608-.486,12.855,12.855,0,0,0,.182-2.553.609.609,0,0,0-.608-.608.654.654,0,0,0-.608.608,10.869,10.869,0,0,1-.182,2.31A.588.588,0,0,0,173.237,153.042Z"/><path class="m" d="M172.933,154.319a.59.59,0,0,0-.729.364,19.355,19.355,0,0,1-3.769,7.051.663.663,0,0,0,.122.851.446.446,0,0,0,.365.122.754.754,0,0,0,.486-.243,21.621,21.621,0,0,0,3.951-7.477A.541.541,0,0,0,172.933,154.319Z"/><path class="m" d="M178.039,159.242c-.3-.851-.547-1.823-.607-1.823a.585.585,0,0,0-.548-.426.667.667,0,0,0-.607.365,35.65,35.65,0,0,1-2.918,5.592.608.608,0,0,0,.182.851.653.653,0,0,0,.365.122.62.62,0,0,0,.486-.3,34.276,34.276,0,0,0,2.31-4.316c.061.122.061.182.122.3l.729,2.31a.616.616,0,0,0,1.155-.426Z"/><path class="n" d="M201.52,178.858a.3.3,0,0,1-.3.365h-24.74a.3.3,0,0,1-.3-.365l1.4-7.476a.522.522,0,0,1,.426-.365h21.639c.183,0,.426.182.426.365Z"/><path class="o" d="M199.879,197.823H177.754a.261.261,0,0,1-.243-.243V179.344a.261.261,0,0,1,.243-.243H199.94a.261.261,0,0,1,.243.243V197.58A.278.278,0,0,1,199.879,197.823Z"/><path class="p" d="M196.293,180.621H181.279a1.349,1.349,0,0,1-1.337-1.337v-.061H197.63v.061A1.275,1.275,0,0,1,196.293,180.621Z"/><path class="n" d="M197.691,194.115a.96.96,0,0,1-.972.973h-15.8a.961.961,0,0,1-.973-.973V183.539a.96.96,0,0,1,.973-.973h15.8a.959.959,0,0,1,.972.973Z"/><circle class="q" cx="0.851" cy="0.851" r="0.851" transform="translate(187.966 183.478)"/><path class="r" d="M188.817,185.693a1.366,1.366,0,0,1-1.365-1.364.149.149,0,1,1,.3,0,1.066,1.066,0,0,0,2.133,0,.149.149,0,1,1,.3,0A1.366,1.366,0,0,1,188.817,185.693Z"/><path class="a" d="M201.4,197.519a1.013,1.013,0,0,1-1.033.973H177.389a.976.976,0,0,1-1.033-.973V180.256a1.012,1.012,0,0,1,1.033-.972h22.977a.975.975,0,0,1,1.033.972Z"/><g class="s"><rect class="t" width="0.304" height="12.461" transform="translate(179.942 182.627)"/></g><g class="s"><rect class="t" width="0.304" height="12.461" transform="translate(197.387 182.627)"/></g><g class="s"><rect class="u" width="17.688" height="0.365" transform="translate(179.942 182.627)"/></g><g class="s"><rect class="v" width="18.114" height="0.425" transform="translate(179.881 194.844)"/></g><path class="w" d="M182.495,195.878a.393.393,0,0,1-.365-.365v-.486a.977.977,0,0,1,.79-.973h.183a.936.936,0,0,1,.912.912v.547a.393.393,0,0,1-.365.365Z"/><path class="x" d="M183.042,194.115a.831.831,0,0,1,.851.851v.547a.288.288,0,0,1-.3.3h-1.094a.288.288,0,0,1-.3-.3v-.486a.852.852,0,0,1,.729-.851c.061-.061.061-.061.122-.061m0-.182h-.182a1.044,1.044,0,0,0-.851,1.033v.486a.416.416,0,0,0,.425.426h1.094a.416.416,0,0,0,.426-.426V194.9a.908.908,0,0,0-.912-.972Z"/><path class="w" d="M194.044,195.878a.393.393,0,0,1-.365-.365v-.486a.977.977,0,0,1,.79-.973h.183a.936.936,0,0,1,.912.912v.547a.393.393,0,0,1-.365.365Z"/><path class="x" d="M194.591,194.115a.831.831,0,0,1,.851.851v.547a.288.288,0,0,1-.3.3h-1.094a.288.288,0,0,1-.3-.3v-.486a.852.852,0,0,1,.729-.851c0-.061.061-.061.122-.061m0-.182h-.182a1.044,1.044,0,0,0-.851,1.033v.486a.416.416,0,0,0,.425.426h1.094a.416.416,0,0,0,.426-.426V194.9a.908.908,0,0,0-.912-.972Z"/><rect class="y" width="9.847" height="0.298" transform="translate(183.893 194.939)"/><rect class="z" width="1.702" height="0.298" transform="translate(182.191 194.939)"/><rect class="z" width="1.702" height="0.298" transform="translate(193.74 194.939)"/><path class="d" d="M189.424,184.478a.149.149,0,0,1-.149-.149.458.458,0,1,0-.917,0,.149.149,0,0,1-.3,0,.757.757,0,1,1,1.513,0A.149.149,0,0,1,189.424,184.478Z"/><g class="aa"><rect class="ab" width="0.486" height="19.694" transform="translate(177.45 178.797)"/></g><g class="aa"><rect class="ab" width="0.486" height="19.694" transform="translate(199.697 178.797)"/></g><g class="aa"><rect class="ac" width="22.673" height="1.155" transform="translate(177.45 197.337)"/></g><path class="a" d="M201.4,178.311a.743.743,0,0,1-.79.912H177.024a.77.77,0,0,1-.79-.912l1.277-6.382a1.237,1.237,0,0,1,1.155-.912h20.3a1.237,1.237,0,0,1,1.154.912Z"/><path class="ad" d="M200,178.311a.724.724,0,0,1-.79.912H178.422a.77.77,0,0,1-.79-.912l.426-2.31a5.69,5.69,0,0,1,5.349-4.984h10.759A5.637,5.637,0,0,1,199.515,176Z"/><path class="a" d="M200.183,179.284H177.511l.607-3.283a5.691,5.691,0,0,1,5.35-4.984h10.758A5.635,5.635,0,0,1,199.575,176Z"/><g class="ae"><rect class="af" width="25.347" height="1.033" transform="translate(175.869 170.531)"/></g><g class="ae"><rect class="ag" width="27.292" height="1.459" transform="translate(175.444 178.433)"/></g><g class="ah"><rect class="ai" width="18.114" height="0.608" transform="translate(179.76 180.317)"/></g><g class="aj"><rect class="ak" width="18.539" height="1.033" transform="translate(179.273 170.531)"/></g><g class="aj"><rect class="al" width="27.292" height="1.459" transform="translate(175.444 178.433)"/></g><path class="p" d="M186.446,188.948a1.427,1.427,0,0,1,.425.426,1.29,1.29,0,0,1,.183.729,1.676,1.676,0,0,1-.183.79.947.947,0,0,1-.486.487,1.227,1.227,0,0,1-.668.182,1.126,1.126,0,0,1-1.034-.547,2.607,2.607,0,0,1-.3-1.459,3.282,3.282,0,0,1,.183-1.155,1.844,1.844,0,0,1,.547-.79,1.281,1.281,0,0,1,.79-.3,1.4,1.4,0,0,1,.851.243l-.243.365a1.172,1.172,0,0,0-.608-.182.658.658,0,0,0-.669.425,2.9,2.9,0,0,0-.3,1.094,1.1,1.1,0,0,1,.973-.547A2.186,2.186,0,0,1,186.446,188.948Zm-.182,1.885a1.3,1.3,0,0,0,.182-.73c0-.608-.243-.851-.669-.851a1.144,1.144,0,0,0-.486.122c-.122.121-.3.243-.365.425a1.959,1.959,0,0,0,.183.973.671.671,0,0,0,.608.3A.594.594,0,0,0,186.264,190.833Z"/><path class="p" d="M189.971,187.854a2.753,2.753,0,0,1,.365,1.581,2.888,2.888,0,0,1-.365,1.58,1.125,1.125,0,0,1-1.033.547,1.193,1.193,0,0,1-1.033-.547,2.76,2.76,0,0,1-.365-1.58,2.9,2.9,0,0,1,.365-1.581,1.249,1.249,0,0,1,2.066,0Zm-1.58.3a4.567,4.567,0,0,0,0,2.553.611.611,0,0,0,.608.365.742.742,0,0,0,.608-.365,3.137,3.137,0,0,0,.182-1.276,3.348,3.348,0,0,0-.182-1.277.689.689,0,0,0-1.216,0Z"/><path class="p" d="M192.585,187.49a1.415,1.415,0,0,1,.426.425.984.984,0,0,1,.182.547,1.631,1.631,0,0,1-.182.73,5.057,5.057,0,0,1-.487.729c-.243.243-.607.608-1.033,1.094h1.824l-.061.486h-2.371v-.425c.547-.547.912-.973,1.155-1.216a3.592,3.592,0,0,0,.486-.668,1.1,1.1,0,0,0,.122-.608.627.627,0,0,0-.669-.669.873.873,0,0,0-.425.122,1.924,1.924,0,0,0-.426.364l-.364-.3a3.924,3.924,0,0,1,.547-.486,1.227,1.227,0,0,1,.668-.182A.546.546,0,0,1,192.585,187.49Z"/><line class="am" y2="7.468" transform="translate(137.775 197.799)"/><circle class="am" cx="2.027" cy="2.027" r="2.027" transform="translate(135.748 205.881)"/><path class="f" d="M124.122,166.205a4.87,4.87,0,1,0,0,9.741h27.307a4.87,4.87,0,0,0,0-9.741Z"/><circle class="d" cx="1.357" cy="1.357" r="1.357" transform="translate(122.764 169.638)"/><circle class="d" cx="1.357" cy="1.357" r="1.357" transform="translate(128.034 169.638)"/><circle class="d" cx="1.357" cy="1.357" r="1.357" transform="translate(133.304 169.638)"/><path class="f" d="M124.122,177.623a4.89,4.89,0,0,0-4.871,4.871,4.839,4.839,0,0,0,4.871,4.87h27.307a4.889,4.889,0,0,0,4.87-4.87,4.839,4.839,0,0,0-4.87-4.871Z"/><circle class="d" cx="1.357" cy="1.357" r="1.357" transform="translate(122.764 181.136)"/><circle class="d" cx="1.357" cy="1.357" r="1.357" transform="translate(128.034 181.136)"/><circle class="d" cx="1.357" cy="1.357" r="1.357" transform="translate(133.304 181.136)"/><path class="f" d="M124.122,189.041a4.89,4.89,0,0,0-4.871,4.87,4.84,4.84,0,0,0,4.871,4.871h27.307a4.89,4.89,0,0,0,4.87-4.871,4.839,4.839,0,0,0-4.87-4.87Z"/><circle class="d" cx="1.357" cy="1.357" r="1.357" transform="translate(122.764 192.554)"/><circle class="d" cx="1.357" cy="1.357" r="1.357" transform="translate(128.034 192.554)"/><circle class="d" cx="1.357" cy="1.357" r="1.357" transform="translate(133.304 192.554)"/><circle class="an" cx="31.987" cy="31.987" r="31.987" transform="translate(105.788 153.436)"/></g><g transform="translate(153.759 3795.507)"><path class="ao" d="M62.375,252.445a20.039,20.039,0,0,0-2.027,1.97c1.673,1.45,7.92,4.5,14.835,3.681,6.9-.836,7.436-3.086,7.436-3.086-.836-.781-3.011-2.323-3.011-2.323"/><path class="ap" d="M62.375,252.445a13.191,13.191,0,0,1,3.086-1.785c1.766-.706,1.431-1.524,1.859-5.242,0,0-1.841-2.454-1.952-3.793,0,0-1.729-.632-1.822-3.234-.112-2.6.929-2.157.929-2.157a7.763,7.763,0,0,1,2.845-6.915c3.55-2.993,9.276.037,10.447,2.063a7.343,7.343,0,0,1,.986,5.819c-.539,1.9.483,3.755-1.1,6.8-1.58,3.067-2.435,3.458-3.83,4.015l.056,1.6a1.3,1.3,0,0,0,.8.911c.67.242,4.945,2.157,4.945,2.157-1.561.018-3.16,1.134-8.96,1.134s-8.291-1.376-8.291-1.376"/><path class="aq" d="M73.845,249.619a7.311,7.311,0,0,1-4.889-3.383C70.61,248.1,73.808,248,73.808,248Z"/><path class="ar" d="M64.457,236.234s1.561.391,1.9,2.77h.223l-.037-2.472Z"/><path class="as" d="M74.644,250.53a48.625,48.625,0,0,1,4.945,2.157,29.027,29.027,0,0,1-8.96,1.134c-5.763,0-8.273-1.4-8.273-1.4a13.169,13.169,0,0,1,3.086-1.784s3.83,3.271,7.715,3.1c3.923-.149,1.487-3.216,1.487-3.216"/><path class="at" d="M78.567,239.3a4.255,4.255,0,0,0-1.9-.521c-.986,0-2.622,0-2.622,2.621a9.341,9.341,0,0,0,.781,2.993"/><path class="au" d="M73.027,239.766a4.673,4.673,0,0,0-2.454-.985c-1.45,0-2.249.483-2.249,1.227a1.681,1.681,0,0,0,1.3,1.58"/><path class="av" d="M74.754,229.1c-.1.729-.713,6.728,3.958,8.276a7.348,7.348,0,0,0-.949-6.021A7.261,7.261,0,0,0,74.754,229.1Z"/><path class="ar" d="M64.457,236.234a7.76,7.76,0,0,1,2.844-6.915c3.551-2.993,9.277.037,10.448,2.063a8.666,8.666,0,0,1-3.9,4.852c-3.142,1.878-9.388,0-9.388,0"/><path class="ao" d="M88.621,252.445a20.087,20.087,0,0,0-2.026,1.97c1.673,1.45,7.919,4.5,14.835,3.681,6.9-.836,7.436-3.086,7.436-3.086-.836-.781-3.012-2.323-3.012-2.323"/><path class="ap" d="M88.621,252.445a13.191,13.191,0,0,1,3.086-1.785c1.766-.706,1.432-1.524,1.859-5.242,0,0-1.84-2.454-1.952-3.793,0,0-1.729-.632-1.821-3.234-.112-2.6.929-2.157.929-2.157a7.763,7.763,0,0,1,2.844-6.915c3.551-2.993,9.277.037,10.448,2.063A7.342,7.342,0,0,1,105,237.2c-.539,1.9.484,3.755-1.1,6.8-1.58,3.067-2.435,3.458-3.829,4.015l.056,1.6a1.3,1.3,0,0,0,.8.911c.669.242,4.945,2.157,4.945,2.157-1.562.018-3.16,1.134-8.96,1.134s-8.292-1.376-8.292-1.376"/><path class="aq" d="M100.091,249.619a7.311,7.311,0,0,1-4.889-3.383c1.655,1.859,4.852,1.766,4.852,1.766Z"/><path class="ar" d="M90.7,236.234s1.562.391,1.9,2.77h.223l-.037-2.472Z"/><path class="as" d="M100.891,250.53a48.626,48.626,0,0,1,4.945,2.157,29.03,29.03,0,0,1-8.961,1.134c-5.763,0-8.272-1.4-8.272-1.4a13.169,13.169,0,0,1,3.086-1.784s3.829,3.271,7.715,3.1c3.922-.149,1.487-3.216,1.487-3.216"/><path class="aw" d="M104.813,239.3a4.249,4.249,0,0,0-1.9-.521c-.985,0-2.621,0-2.621,2.621a9.341,9.341,0,0,0,.781,2.993"/><path class="au" d="M99.274,239.766a4.673,4.673,0,0,0-2.454-.985c-1.45,0-2.25.483-2.25,1.227a1.682,1.682,0,0,0,1.3,1.58"/><path class="av" d="M101,229.1c-.1.729-.713,6.728,3.958,8.276a7.352,7.352,0,0,0-.949-6.021A7.261,7.261,0,0,0,101,229.1Z"/><path class="ar" d="M90.7,236.234a7.763,7.763,0,0,1,2.845-6.915c3.55-2.993,9.276.037,10.447,2.063a8.661,8.661,0,0,1-3.9,4.852c-3.141,1.878-9.388,0-9.388,0"/><path class="ao" d="M114.868,252.445a20.087,20.087,0,0,0-2.026,1.97c1.673,1.45,7.919,4.5,14.835,3.681,6.9-.836,7.436-3.086,7.436-3.086-.837-.781-3.012-2.323-3.012-2.323"/><path class="ap" d="M114.868,252.445a13.191,13.191,0,0,1,3.086-1.785c1.766-.706,1.431-1.524,1.859-5.242,0,0-1.84-2.454-1.952-3.793,0,0-1.729-.632-1.822-3.234-.111-2.6.93-2.157.93-2.157a7.76,7.76,0,0,1,2.844-6.915c3.551-2.993,9.276.037,10.448,2.063a7.346,7.346,0,0,1,.985,5.819c-.539,1.9.483,3.755-1.1,6.8-1.58,3.067-2.435,3.458-3.829,4.015l.055,1.6a1.3,1.3,0,0,0,.8.911c.669.242,4.945,2.157,4.945,2.157-1.562.018-3.161,1.134-8.961,1.134s-8.291-1.376-8.291-1.376"/><path class="aq" d="M126.338,249.619a7.311,7.311,0,0,1-4.889-3.383C123.1,248.1,126.3,248,126.3,248Z"/><path class="ar" d="M116.95,236.234s1.562.391,1.9,2.77h.223l-.037-2.472Z"/><path class="as" d="M127.138,250.53a48.626,48.626,0,0,1,4.945,2.157,29.038,29.038,0,0,1-8.961,1.134c-5.763,0-8.273-1.4-8.273-1.4a13.169,13.169,0,0,1,3.086-1.784s3.83,3.271,7.715,3.1c3.923-.149,1.488-3.216,1.488-3.216"/><path class="ax" d="M131.06,239.3a4.249,4.249,0,0,0-1.9-.521c-.985,0-2.621,0-2.621,2.621a9.351,9.351,0,0,0,.78,2.993"/><path class="au" d="M125.52,239.766a4.673,4.673,0,0,0-2.454-.985c-1.45,0-2.249.483-2.249,1.227a1.681,1.681,0,0,0,1.3,1.58"/><path class="av" d="M127.247,229.1c-.1.729-.713,6.728,3.959,8.276a7.355,7.355,0,0,0-.949-6.021A7.272,7.272,0,0,0,127.247,229.1Z"/><path class="ar" d="M116.95,236.234a7.763,7.763,0,0,1,2.844-6.915c3.551-2.993,9.277.037,10.448,2.063a8.666,8.666,0,0,1-3.9,4.852c-3.142,1.878-9.388,0-9.388,0"/><path class="ao" d="M141.115,252.445a20.04,20.04,0,0,0-2.027,1.97c1.673,1.45,7.92,4.5,14.835,3.681,6.9-.836,7.436-3.086,7.436-3.086-.836-.781-3.011-2.323-3.011-2.323"/><path class="ap" d="M141.115,252.445a13.191,13.191,0,0,1,3.086-1.785c1.766-.706,1.431-1.524,1.859-5.242,0,0-1.841-2.454-1.952-3.793,0,0-1.729-.632-1.822-3.234-.112-2.6.929-2.157.929-2.157a7.763,7.763,0,0,1,2.845-6.915c3.55-2.993,9.276.037,10.447,2.063a7.343,7.343,0,0,1,.986,5.819c-.54,1.9.483,3.755-1.1,6.8-1.58,3.067-2.436,3.458-3.83,4.015l.056,1.6a1.3,1.3,0,0,0,.8.911c.67.242,4.945,2.157,4.945,2.157-1.561.018-3.16,1.134-8.96,1.134s-8.291-1.376-8.291-1.376"/><path class="aq" d="M152.585,249.619a7.311,7.311,0,0,1-4.889-3.383c1.654,1.859,4.852,1.766,4.852,1.766Z"/><path class="ar" d="M143.2,236.234s1.561.391,1.9,2.77h.223l-.037-2.472Z"/><path class="as" d="M153.384,250.53a48.626,48.626,0,0,1,4.945,2.157,29.027,29.027,0,0,1-8.96,1.134c-5.763,0-8.273-1.4-8.273-1.4a13.169,13.169,0,0,1,3.086-1.784s3.83,3.271,7.715,3.1c3.922-.149,1.487-3.216,1.487-3.216"/><path class="ay" d="M157.307,239.3a4.256,4.256,0,0,0-1.9-.521c-.985,0-2.621,0-2.621,2.621a9.341,9.341,0,0,0,.781,2.993"/><path class="az" d="M151.767,239.766a4.673,4.673,0,0,0-2.454-.985c-1.45,0-2.25.483-2.25,1.227a1.682,1.682,0,0,0,1.3,1.58"/><path class="av" d="M153.494,229.1c-.1.729-.713,6.728,3.958,8.276a7.348,7.348,0,0,0-.949-6.021A7.261,7.261,0,0,0,153.494,229.1Z"/><path class="ar" d="M143.2,236.234a7.76,7.76,0,0,1,2.844-6.915c3.551-2.993,9.277.037,10.448,2.063a8.666,8.666,0,0,1-3.9,4.852c-3.142,1.878-9.388,0-9.388,0"/><path class="ao" d="M167.361,252.445a20.087,20.087,0,0,0-2.026,1.97c1.673,1.45,7.919,4.5,14.835,3.681,6.9-.836,7.436-3.086,7.436-3.086-.837-.781-3.012-2.323-3.012-2.323"/><path class="ap" d="M167.361,252.445a13.191,13.191,0,0,1,3.086-1.785c1.766-.706,1.432-1.524,1.859-5.242,0,0-1.84-2.454-1.952-3.793,0,0-1.729-.632-1.822-3.234-.111-2.6.93-2.157.93-2.157a7.763,7.763,0,0,1,2.844-6.915c3.551-2.993,9.277.037,10.448,2.063a7.342,7.342,0,0,1,.985,5.819c-.539,1.9.484,3.755-1.1,6.8-1.58,3.067-2.435,3.458-3.829,4.015l.056,1.6a1.3,1.3,0,0,0,.8.911c.669.242,4.945,2.157,4.945,2.157-1.562.018-3.16,1.134-8.961,1.134s-8.291-1.376-8.291-1.376"/><path class="aq" d="M178.831,249.619a7.311,7.311,0,0,1-4.889-3.383C175.6,248.1,178.794,248,178.794,248Z"/><path class="ar" d="M169.443,236.234s1.562.391,1.9,2.77h.223l-.038-2.472Z"/><path class="as" d="M179.631,250.53a48.626,48.626,0,0,1,4.945,2.157,29.038,29.038,0,0,1-8.961,1.134c-5.763,0-8.272-1.4-8.272-1.4a13.169,13.169,0,0,1,3.086-1.784s3.829,3.271,7.715,3.1c3.922-.149,1.487-3.216,1.487-3.216"/><path class="aw" d="M183.553,239.3a4.249,4.249,0,0,0-1.9-.521c-.985,0-2.621,0-2.621,2.621a9.341,9.341,0,0,0,.781,2.993"/><path class="ba" d="M178.013,239.766a4.672,4.672,0,0,0-2.453-.985c-1.45,0-2.25.483-2.25,1.227a1.681,1.681,0,0,0,1.3,1.58"/><path class="av" d="M179.741,229.1c-.1.729-.714,6.728,3.958,8.276a7.355,7.355,0,0,0-.949-6.021A7.261,7.261,0,0,0,179.741,229.1Z"/><path class="ar" d="M169.443,236.234a7.763,7.763,0,0,1,2.845-6.915c3.55-2.993,9.276.037,10.447,2.063a8.661,8.661,0,0,1-3.9,4.852c-3.141,1.878-9.388,0-9.388,0"/><path class="ao" d="M193.608,252.445a20.086,20.086,0,0,0-2.026,1.97c1.673,1.45,7.919,4.5,14.835,3.681,6.9-.836,7.436-3.086,7.436-3.086-.837-.781-3.012-2.323-3.012-2.323"/><path class="ap" d="M193.608,252.445a13.191,13.191,0,0,1,3.086-1.785c1.766-.706,1.431-1.524,1.859-5.242,0,0-1.841-2.454-1.952-3.793,0,0-1.729-.632-1.822-3.234-.111-2.6.93-2.157.93-2.157a7.76,7.76,0,0,1,2.844-6.915c3.551-2.993,9.276.037,10.448,2.063a7.346,7.346,0,0,1,.985,5.819c-.539,1.9.483,3.755-1.1,6.8-1.58,3.067-2.435,3.458-3.83,4.015l.056,1.6a1.3,1.3,0,0,0,.8.911c.669.242,4.945,2.157,4.945,2.157-1.562.018-3.161,1.134-8.961,1.134s-8.291-1.376-8.291-1.376"/><path class="aq" d="M205.078,249.619a7.311,7.311,0,0,1-4.889-3.383c1.654,1.859,4.852,1.766,4.852,1.766Z"/><path class="ar" d="M195.69,236.234s1.562.391,1.9,2.77h.223l-.037-2.472Z"/><path class="as" d="M205.877,250.53a48.433,48.433,0,0,1,4.945,2.157,29.027,29.027,0,0,1-8.96,1.134c-5.763,0-8.273-1.4-8.273-1.4a13.169,13.169,0,0,1,3.086-1.784s3.83,3.271,7.715,3.1c3.923-.149,1.487-3.216,1.487-3.216"/><path class="bb" d="M209.8,239.3a4.249,4.249,0,0,0-1.9-.521c-.986,0-2.621,0-2.621,2.621a9.351,9.351,0,0,0,.78,2.993"/><path class="au" d="M204.26,239.766a4.673,4.673,0,0,0-2.454-.985c-1.45,0-2.249.483-2.249,1.227a1.681,1.681,0,0,0,1.3,1.58"/><path class="av" d="M205.987,229.1c-.1.729-.713,6.728,3.959,8.276a7.355,7.355,0,0,0-.949-6.021A7.272,7.272,0,0,0,205.987,229.1Z"/><path class="ar" d="M195.69,236.234a7.763,7.763,0,0,1,2.844-6.915c3.551-2.993,9.277.037,10.448,2.063a8.666,8.666,0,0,1-3.9,4.852c-3.142,1.878-9.388,0-9.388,0"/><path class="ao" d="M50.485,260.42a20.084,20.084,0,0,0-2.026,1.97c1.673,1.451,7.92,4.5,14.835,3.681,6.9-.836,7.436-3.086,7.436-3.086-.836-.78-3.011-2.323-3.011-2.323"/><path class="ap" d="M50.485,260.42a13.191,13.191,0,0,1,3.086-1.785c1.766-.706,1.432-1.524,1.859-5.242,0,0-1.84-2.454-1.952-3.793,0,0-1.728-.632-1.821-3.234-.112-2.6.929-2.157.929-2.157a7.763,7.763,0,0,1,2.844-6.915c3.551-2.993,9.277.037,10.448,2.063a7.339,7.339,0,0,1,.985,5.819c-.539,1.9.484,3.755-1.1,6.8-1.581,3.067-2.436,3.458-3.83,4.015l.056,1.6a1.3,1.3,0,0,0,.8.911c.669.242,4.945,2.157,4.945,2.157-1.561.018-3.16,1.134-8.96,1.134s-8.292-1.376-8.292-1.376"/><path class="aq" d="M61.956,257.594a7.315,7.315,0,0,1-4.89-3.383c1.655,1.859,4.852,1.766,4.852,1.766Z"/><path class="ar" d="M52.568,244.209s1.561.391,1.9,2.77h.223l-.037-2.472Z"/><path class="as" d="M62.755,258.505a48.628,48.628,0,0,1,4.945,2.157,29.03,29.03,0,0,1-8.961,1.134c-5.762,0-8.272-1.395-8.272-1.395a13.168,13.168,0,0,1,3.086-1.784s3.829,3.272,7.715,3.1c3.922-.148,1.487-3.216,1.487-3.216"/><path class="bc" d="M66.678,247.277a4.256,4.256,0,0,0-1.9-.521c-.985,0-2.621,0-2.621,2.621a9.341,9.341,0,0,0,.781,2.993"/><path class="bd" d="M61.138,247.741a4.673,4.673,0,0,0-2.454-.985c-1.45,0-2.25.483-2.25,1.227a1.682,1.682,0,0,0,1.3,1.58"/><path class="av" d="M62.865,237.076c-.1.729-.713,6.728,3.958,8.277a7.35,7.35,0,0,0-.949-6.022A7.261,7.261,0,0,0,62.865,237.076Z"/><path class="ar" d="M52.568,244.209a7.76,7.76,0,0,1,2.844-6.915c3.551-2.993,9.276.037,10.448,2.063a8.666,8.666,0,0,1-3.9,4.852c-3.142,1.878-9.388,0-9.388,0"/><path class="ao" d="M76.732,260.42a20.084,20.084,0,0,0-2.026,1.97c1.673,1.451,7.919,4.5,14.835,3.681,6.9-.836,7.436-3.086,7.436-3.086-.837-.78-3.012-2.323-3.012-2.323"/><path class="ap" d="M76.732,260.42a13.191,13.191,0,0,1,3.086-1.785c1.766-.706,1.431-1.524,1.859-5.242,0,0-1.84-2.454-1.952-3.793,0,0-1.729-.632-1.822-3.234-.111-2.6.93-2.157.93-2.157a7.76,7.76,0,0,1,2.844-6.915c3.551-2.993,9.277.037,10.448,2.063a7.347,7.347,0,0,1,.985,5.819c-.539,1.9.483,3.755-1.1,6.8-1.58,3.067-2.435,3.458-3.829,4.015l.055,1.6a1.3,1.3,0,0,0,.8.911c.669.242,4.945,2.157,4.945,2.157-1.562.018-3.161,1.134-8.961,1.134s-8.291-1.376-8.291-1.376"/><path class="aq" d="M88.2,257.594a7.311,7.311,0,0,1-4.889-3.383c1.655,1.859,4.852,1.766,4.852,1.766Z"/><path class="ar" d="M78.814,244.209s1.562.391,1.9,2.77h.223l-.037-2.472Z"/><path class="as" d="M89,258.505a48.629,48.629,0,0,1,4.945,2.157,29.038,29.038,0,0,1-8.961,1.134c-5.763,0-8.273-1.395-8.273-1.395a13.168,13.168,0,0,1,3.086-1.784s3.83,3.272,7.715,3.1c3.923-.148,1.488-3.216,1.488-3.216"/><path class="be" d="M92.924,247.277a4.249,4.249,0,0,0-1.9-.521c-.985,0-2.621,0-2.621,2.621a9.341,9.341,0,0,0,.781,2.993"/><path class="bf" d="M87.384,247.741a4.673,4.673,0,0,0-2.454-.985c-1.45,0-2.249.483-2.249,1.227a1.681,1.681,0,0,0,1.3,1.58"/><path class="av" d="M89.111,237.076c-.1.729-.713,6.728,3.959,8.277a7.357,7.357,0,0,0-.949-6.022A7.265,7.265,0,0,0,89.111,237.076Z"/><path class="ar" d="M78.814,244.209a7.763,7.763,0,0,1,2.844-6.915c3.551-2.993,9.277.037,10.448,2.063a8.661,8.661,0,0,1-3.9,4.852c-3.142,1.878-9.388,0-9.388,0"/><path class="ao" d="M102.979,260.42a20.036,20.036,0,0,0-2.027,1.97c1.674,1.451,7.92,4.5,14.835,3.681,6.9-.836,7.436-3.086,7.436-3.086-.836-.78-3.011-2.323-3.011-2.323"/><path class="ap" d="M102.979,260.42a13.191,13.191,0,0,1,3.086-1.785c1.766-.706,1.431-1.524,1.859-5.242,0,0-1.841-2.454-1.952-3.793,0,0-1.729-.632-1.822-3.234-.112-2.6.929-2.157.929-2.157a7.763,7.763,0,0,1,2.845-6.915c3.55-2.993,9.276.037,10.447,2.063a7.344,7.344,0,0,1,.986,5.819c-.539,1.9.483,3.755-1.1,6.8-1.58,3.067-2.435,3.458-3.83,4.015l.056,1.6a1.3,1.3,0,0,0,.8.911c.67.242,4.945,2.157,4.945,2.157-1.561.018-3.16,1.134-8.96,1.134s-8.291-1.376-8.291-1.376"/><path class="aq" d="M114.449,257.594a7.311,7.311,0,0,1-4.889-3.383c1.654,1.859,4.852,1.766,4.852,1.766Z"/><path class="ar" d="M105.061,244.209s1.561.391,1.9,2.77h.223l-.037-2.472Z"/><path class="as" d="M115.248,258.505a48.532,48.532,0,0,1,4.945,2.157,29.027,29.027,0,0,1-8.96,1.134c-5.763,0-8.273-1.395-8.273-1.395a13.168,13.168,0,0,1,3.086-1.784s3.83,3.272,7.715,3.1c3.923-.148,1.487-3.216,1.487-3.216"/><path class="bg" d="M119.171,247.277a4.255,4.255,0,0,0-1.9-.521c-.986,0-2.622,0-2.622,2.621a9.341,9.341,0,0,0,.781,2.993"/><path class="bh" d="M113.631,247.741a4.673,4.673,0,0,0-2.454-.985c-1.45,0-2.249.483-2.249,1.227a1.681,1.681,0,0,0,1.3,1.58"/><path class="av" d="M115.358,237.076c-.1.729-.713,6.728,3.958,8.277a7.35,7.35,0,0,0-.949-6.022A7.26,7.26,0,0,0,115.358,237.076Z"/><path class="ar" d="M105.061,244.209a7.76,7.76,0,0,1,2.844-6.915c3.551-2.993,9.277.037,10.448,2.063a8.666,8.666,0,0,1-3.9,4.852c-3.142,1.878-9.388,0-9.388,0"/><path class="ao" d="M129.225,260.42a20.084,20.084,0,0,0-2.026,1.97c1.673,1.451,7.919,4.5,14.835,3.681,6.9-.836,7.436-3.086,7.436-3.086-.836-.78-3.012-2.323-3.012-2.323"/><path class="ap" d="M129.225,260.42a13.191,13.191,0,0,1,3.086-1.785c1.766-.706,1.432-1.524,1.859-5.242,0,0-1.84-2.454-1.952-3.793,0,0-1.729-.632-1.821-3.234-.112-2.6.929-2.157.929-2.157a7.763,7.763,0,0,1,2.844-6.915c3.551-2.993,9.277.037,10.448,2.063a7.343,7.343,0,0,1,.985,5.819c-.539,1.9.484,3.755-1.1,6.8-1.581,3.067-2.436,3.458-3.83,4.015l.056,1.6a1.3,1.3,0,0,0,.8.911c.669.242,4.945,2.157,4.945,2.157-1.561.018-3.16,1.134-8.96,1.134s-8.292-1.376-8.292-1.376"/><path class="aq" d="M140.7,257.594a7.312,7.312,0,0,1-4.89-3.383c1.655,1.859,4.852,1.766,4.852,1.766Z"/><path class="ar" d="M131.307,244.209s1.562.391,1.9,2.77h.223l-.037-2.472Z"/><path class="as" d="M141.495,258.505a48.629,48.629,0,0,1,4.945,2.157,29.03,29.03,0,0,1-8.961,1.134c-5.763,0-8.272-1.395-8.272-1.395a13.168,13.168,0,0,1,3.086-1.784s3.829,3.272,7.715,3.1c3.922-.148,1.487-3.216,1.487-3.216"/><path class="be" d="M145.417,247.277a4.249,4.249,0,0,0-1.9-.521c-.985,0-2.621,0-2.621,2.621a9.341,9.341,0,0,0,.781,2.993"/><path class="bh" d="M139.878,247.741a4.673,4.673,0,0,0-2.454-.985c-1.45,0-2.25.483-2.25,1.227a1.682,1.682,0,0,0,1.3,1.58"/><path class="av" d="M141.6,237.076c-.1.729-.713,6.728,3.958,8.277a7.353,7.353,0,0,0-.949-6.022A7.261,7.261,0,0,0,141.6,237.076Z"/><path class="ar" d="M131.307,244.209a7.762,7.762,0,0,1,2.845-6.915c3.551-2.993,9.276.037,10.447,2.063a8.661,8.661,0,0,1-3.9,4.852c-3.142,1.878-9.389,0-9.389,0"/><path class="ao" d="M155.472,260.42a20.085,20.085,0,0,0-2.026,1.97c1.673,1.451,7.919,4.5,14.835,3.681,6.9-.836,7.436-3.086,7.436-3.086-.837-.78-3.012-2.323-3.012-2.323"/><path class="ap" d="M155.472,260.42a13.191,13.191,0,0,1,3.086-1.785c1.766-.706,1.431-1.524,1.859-5.242,0,0-1.84-2.454-1.952-3.793,0,0-1.729-.632-1.822-3.234-.111-2.6.93-2.157.93-2.157a7.76,7.76,0,0,1,2.844-6.915c3.551-2.993,9.277.037,10.448,2.063a7.347,7.347,0,0,1,.985,5.819c-.539,1.9.483,3.755-1.1,6.8-1.58,3.067-2.435,3.458-3.829,4.015l.055,1.6a1.3,1.3,0,0,0,.8.911c.669.242,4.945,2.157,4.945,2.157-1.562.018-3.161,1.134-8.961,1.134s-8.291-1.376-8.291-1.376"/><path class="aq" d="M166.942,257.594a7.311,7.311,0,0,1-4.889-3.383c1.654,1.859,4.852,1.766,4.852,1.766Z"/><path class="ar" d="M157.554,244.209s1.562.391,1.9,2.77h.223l-.037-2.472Z"/><path class="as" d="M167.742,258.505a48.629,48.629,0,0,1,4.945,2.157,29.038,29.038,0,0,1-8.961,1.134c-5.763,0-8.273-1.395-8.273-1.395a13.168,13.168,0,0,1,3.086-1.784s3.83,3.272,7.715,3.1c3.923-.148,1.488-3.216,1.488-3.216"/><path class="bc" d="M171.664,247.277a4.249,4.249,0,0,0-1.9-.521c-.985,0-2.621,0-2.621,2.621a9.351,9.351,0,0,0,.78,2.993"/><path class="bd" d="M166.124,247.741a4.673,4.673,0,0,0-2.454-.985c-1.45,0-2.249.483-2.249,1.227a1.681,1.681,0,0,0,1.3,1.58"/><path class="av" d="M167.851,237.076c-.1.729-.713,6.728,3.959,8.277a7.357,7.357,0,0,0-.949-6.022A7.265,7.265,0,0,0,167.851,237.076Z"/><path class="ar" d="M157.554,244.209a7.763,7.763,0,0,1,2.844-6.915c3.551-2.993,9.277.037,10.448,2.063a8.661,8.661,0,0,1-3.9,4.852c-3.142,1.878-9.388,0-9.388,0"/><path class="ao" d="M181.719,260.42a20.036,20.036,0,0,0-2.027,1.97c1.673,1.451,7.92,4.5,14.835,3.681,6.9-.836,7.436-3.086,7.436-3.086-.836-.78-3.011-2.323-3.011-2.323"/><path class="ap" d="M181.719,260.42a13.191,13.191,0,0,1,3.086-1.785c1.766-.706,1.431-1.524,1.859-5.242,0,0-1.841-2.454-1.952-3.793,0,0-1.729-.632-1.822-3.234-.112-2.6.929-2.157.929-2.157a7.763,7.763,0,0,1,2.845-6.915c3.55-2.993,9.276.037,10.447,2.063a7.344,7.344,0,0,1,.986,5.819c-.539,1.9.483,3.755-1.1,6.8-1.58,3.067-2.436,3.458-3.83,4.015l.056,1.6a1.3,1.3,0,0,0,.8.911c.67.242,4.945,2.157,4.945,2.157-1.561.018-3.16,1.134-8.96,1.134s-8.291-1.376-8.291-1.376"/><path class="aq" d="M193.189,257.594a7.311,7.311,0,0,1-4.889-3.383c1.654,1.859,4.852,1.766,4.852,1.766Z"/><path class="ar" d="M183.8,244.209s1.561.391,1.9,2.77h.223l-.037-2.472Z"/><path class="as" d="M193.988,258.505a48.629,48.629,0,0,1,4.945,2.157,29.027,29.027,0,0,1-8.96,1.134c-5.763,0-8.273-1.395-8.273-1.395a13.168,13.168,0,0,1,3.086-1.784s3.83,3.272,7.715,3.1c3.923-.148,1.487-3.216,1.487-3.216"/><path class="bi" d="M197.911,247.277a4.255,4.255,0,0,0-1.9-.521c-.986,0-2.622,0-2.622,2.621a9.341,9.341,0,0,0,.781,2.993"/><path class="bh" d="M192.371,247.741a4.673,4.673,0,0,0-2.454-.985c-1.45,0-2.249.483-2.249,1.227a1.681,1.681,0,0,0,1.3,1.58"/><path class="av" d="M194.1,237.076c-.1.729-.713,6.728,3.958,8.277a7.35,7.35,0,0,0-.949-6.022A7.26,7.26,0,0,0,194.1,237.076Z"/><path class="ar" d="M183.8,244.209a7.76,7.76,0,0,1,2.844-6.915c3.551-2.993,9.277.037,10.448,2.063a8.666,8.666,0,0,1-3.9,4.852c-3.142,1.878-9.388,0-9.388,0"/><path class="ao" d="M207.965,260.42a20.085,20.085,0,0,0-2.026,1.97c1.673,1.451,7.919,4.5,14.835,3.681,6.9-.836,7.436-3.086,7.436-3.086-.837-.78-3.012-2.323-3.012-2.323"/><path class="ap" d="M207.965,260.42a13.191,13.191,0,0,1,3.086-1.785c1.766-.706,1.432-1.524,1.859-5.242,0,0-1.84-2.454-1.952-3.793,0,0-1.729-.632-1.822-3.234-.111-2.6.93-2.157.93-2.157a7.763,7.763,0,0,1,2.844-6.915c3.551-2.993,9.277.037,10.448,2.063a7.343,7.343,0,0,1,.985,5.819c-.539,1.9.484,3.755-1.1,6.8-1.58,3.067-2.435,3.458-3.829,4.015l.056,1.6a1.3,1.3,0,0,0,.8.911c.669.242,4.945,2.157,4.945,2.157-1.562.018-3.16,1.134-8.96,1.134s-8.292-1.376-8.292-1.376"/><path class="aq" d="M219.435,257.594a7.311,7.311,0,0,1-4.889-3.383c1.655,1.859,4.852,1.766,4.852,1.766Z"/><path class="ar" d="M210.047,244.209s1.562.391,1.9,2.77h.223l-.038-2.472Z"/><path class="as" d="M220.235,258.505a48.628,48.628,0,0,1,4.945,2.157,29.038,29.038,0,0,1-8.961,1.134c-5.763,0-8.272-1.395-8.272-1.395a13.168,13.168,0,0,1,3.086-1.784s3.829,3.272,7.715,3.1c3.922-.148,1.487-3.216,1.487-3.216"/><path class="be" d="M224.157,247.277a4.249,4.249,0,0,0-1.9-.521c-.985,0-2.621,0-2.621,2.621a9.341,9.341,0,0,0,.781,2.993"/><path class="bf" d="M218.617,247.741a4.668,4.668,0,0,0-2.453-.985c-1.45,0-2.25.483-2.25,1.227a1.681,1.681,0,0,0,1.3,1.58"/><path class="av" d="M220.345,237.076c-.1.729-.714,6.728,3.958,8.277a7.353,7.353,0,0,0-.949-6.022A7.261,7.261,0,0,0,220.345,237.076Z"/><path class="ar" d="M210.047,244.209a7.763,7.763,0,0,1,2.845-6.915c3.55-2.993,9.276.037,10.447,2.063a8.661,8.661,0,0,1-3.9,4.852c-3.141,1.878-9.388,0-9.388,0"/><path class="ao" d="M65.1,268.394a20.084,20.084,0,0,0-2.026,1.97c1.673,1.45,7.919,4.5,14.835,3.681,6.9-.836,7.436-3.086,7.436-3.086-.837-.781-3.012-2.324-3.012-2.324"/><path class="ap" d="M65.1,268.394a13.151,13.151,0,0,1,3.086-1.785c1.766-.706,1.432-1.524,1.859-5.242,0,0-1.84-2.454-1.952-3.793,0,0-1.729-.632-1.822-3.235-.111-2.6.93-2.156.93-2.156a7.762,7.762,0,0,1,2.844-6.916c3.551-2.993,9.277.038,10.448,2.064a7.346,7.346,0,0,1,.985,5.819c-.539,1.9.483,3.755-1.1,6.8-1.58,3.067-2.435,3.458-3.829,4.015l.055,1.6a1.3,1.3,0,0,0,.8.911c.669.242,4.945,2.156,4.945,2.156-1.562.019-3.161,1.134-8.961,1.134s-8.291-1.375-8.291-1.375"/><path class="aq" d="M76.565,265.568a7.315,7.315,0,0,1-4.889-3.383c1.655,1.859,4.852,1.766,4.852,1.766Z"/><path class="ar" d="M67.177,252.183s1.562.39,1.9,2.77H69.3l-.037-2.473Z"/><path class="as" d="M77.365,266.479a48.807,48.807,0,0,1,4.945,2.156,29.038,29.038,0,0,1-8.961,1.134c-5.763,0-8.272-1.394-8.272-1.394a13.171,13.171,0,0,1,3.085-1.785s3.83,3.272,7.715,3.105c3.923-.149,1.488-3.216,1.488-3.216"/><path class="aw" d="M81.287,255.25a4.255,4.255,0,0,0-1.9-.52c-.985,0-2.621,0-2.621,2.621a9.341,9.341,0,0,0,.781,2.993"/><path class="ba" d="M75.747,255.715a4.673,4.673,0,0,0-2.454-.985c-1.45,0-2.249.483-2.249,1.227a1.681,1.681,0,0,0,1.3,1.58"/><path class="av" d="M77.474,245.05c-.1.729-.713,6.728,3.959,8.276a7.358,7.358,0,0,0-.949-6.022A7.257,7.257,0,0,0,77.474,245.05Z"/><path class="ar" d="M67.177,252.183a7.764,7.764,0,0,1,2.845-6.916c3.55-2.993,9.276.038,10.447,2.064a8.664,8.664,0,0,1-3.9,4.852c-3.141,1.878-9.388,0-9.388,0"/><path class="ao" d="M91.342,268.394a20.036,20.036,0,0,0-2.027,1.97c1.674,1.45,7.92,4.5,14.835,3.681,6.9-.836,7.437-3.086,7.437-3.086-.837-.781-3.012-2.324-3.012-2.324"/><path class="ap" d="M91.342,268.394a13.151,13.151,0,0,1,3.086-1.785c1.766-.706,1.431-1.524,1.859-5.242,0,0-1.841-2.454-1.952-3.793,0,0-1.729-.632-1.822-3.235-.112-2.6.929-2.156.929-2.156a7.764,7.764,0,0,1,2.845-6.916c3.55-2.993,9.276.038,10.447,2.064a7.342,7.342,0,0,1,.986,5.819c-.539,1.9.483,3.755-1.1,6.8-1.58,3.067-2.435,3.458-3.83,4.015l.056,1.6a1.3,1.3,0,0,0,.8.911c.67.242,4.945,2.156,4.945,2.156-1.561.019-3.16,1.134-8.96,1.134s-8.291-1.375-8.291-1.375"/><path class="aq" d="M102.812,265.568a7.315,7.315,0,0,1-4.889-3.383c1.654,1.859,4.852,1.766,4.852,1.766Z"/><path class="ar" d="M93.424,252.183s1.561.39,1.9,2.77h.223l-.037-2.473Z"/><path class="as" d="M103.611,266.479a48.71,48.71,0,0,1,4.945,2.156,29.027,29.027,0,0,1-8.96,1.134c-5.763,0-8.273-1.394-8.273-1.394a13.191,13.191,0,0,1,3.086-1.785s3.83,3.272,7.715,3.105c3.923-.149,1.487-3.216,1.487-3.216"/><path class="at" d="M107.534,255.25a4.255,4.255,0,0,0-1.9-.52c-.986,0-2.622,0-2.622,2.621a9.341,9.341,0,0,0,.781,2.993"/><path class="au" d="M101.994,255.715a4.673,4.673,0,0,0-2.454-.985c-1.45,0-2.249.483-2.249,1.227a1.681,1.681,0,0,0,1.3,1.58"/><path class="av" d="M103.721,245.05c-.1.729-.713,6.728,3.958,8.276a7.354,7.354,0,0,0-.948-6.022A7.271,7.271,0,0,0,103.721,245.05Z"/><path class="ar" d="M93.424,252.183a7.762,7.762,0,0,1,2.844-6.916c3.551-2.993,9.277.038,10.448,2.064a8.669,8.669,0,0,1-3.9,4.852c-3.142,1.878-9.388,0-9.388,0"/><path class="ao" d="M117.588,268.394a20.084,20.084,0,0,0-2.026,1.97c1.673,1.45,7.919,4.5,14.835,3.681,6.9-.836,7.436-3.086,7.436-3.086-.836-.781-3.011-2.324-3.011-2.324"/><path class="ap" d="M117.588,268.394a13.151,13.151,0,0,1,3.086-1.785c1.766-.706,1.432-1.524,1.859-5.242,0,0-1.84-2.454-1.952-3.793,0,0-1.728-.632-1.821-3.235-.112-2.6.929-2.156.929-2.156a7.765,7.765,0,0,1,2.844-6.916c3.551-2.993,9.277.038,10.448,2.064a7.342,7.342,0,0,1,.985,5.819c-.539,1.9.484,3.755-1.1,6.8-1.581,3.067-2.436,3.458-3.83,4.015l.056,1.6a1.3,1.3,0,0,0,.8.911c.669.242,4.945,2.156,4.945,2.156-1.561.019-3.16,1.134-8.96,1.134s-8.292-1.375-8.292-1.375"/><path class="aq" d="M129.059,265.568a7.319,7.319,0,0,1-4.89-3.383c1.655,1.859,4.852,1.766,4.852,1.766Z"/><path class="ar" d="M119.67,252.183s1.562.39,1.9,2.77h.223l-.037-2.473Z"/><path class="as" d="M129.858,266.479a48.808,48.808,0,0,1,4.945,2.156,29.03,29.03,0,0,1-8.961,1.134c-5.763,0-8.272-1.394-8.272-1.394a13.191,13.191,0,0,1,3.086-1.785s3.829,3.272,7.715,3.105c3.922-.149,1.487-3.216,1.487-3.216"/><path class="aw" d="M133.78,255.25a4.255,4.255,0,0,0-1.9-.52c-.985,0-2.621,0-2.621,2.621a9.341,9.341,0,0,0,.781,2.993"/><path class="az" d="M128.241,255.715a4.673,4.673,0,0,0-2.454-.985c-1.45,0-2.25.483-2.25,1.227a1.682,1.682,0,0,0,1.3,1.58"/><path class="av" d="M129.968,245.05c-.1.729-.713,6.728,3.958,8.276a7.351,7.351,0,0,0-.949-6.022A7.26,7.26,0,0,0,129.968,245.05Z"/><path class="ar" d="M119.67,252.183a7.764,7.764,0,0,1,2.845-6.916c3.551-2.993,9.276.038,10.448,2.064a8.669,8.669,0,0,1-3.9,4.852c-3.142,1.878-9.389,0-9.389,0"/><path class="ao" d="M143.835,268.394a20.083,20.083,0,0,0-2.026,1.97c1.673,1.45,7.919,4.5,14.835,3.681,6.9-.836,7.436-3.086,7.436-3.086-.837-.781-3.012-2.324-3.012-2.324"/><path class="ap" d="M143.835,268.394a13.151,13.151,0,0,1,3.086-1.785c1.766-.706,1.431-1.524,1.859-5.242,0,0-1.84-2.454-1.952-3.793,0,0-1.729-.632-1.822-3.235-.111-2.6.93-2.156.93-2.156a7.762,7.762,0,0,1,2.844-6.916c3.551-2.993,9.277.038,10.448,2.064a7.346,7.346,0,0,1,.985,5.819c-.539,1.9.483,3.755-1.1,6.8-1.58,3.067-2.435,3.458-3.829,4.015l.055,1.6a1.3,1.3,0,0,0,.8.911c.669.242,4.945,2.156,4.945,2.156-1.562.019-3.161,1.134-8.961,1.134s-8.291-1.375-8.291-1.375"/><path class="aq" d="M155.3,265.568a7.315,7.315,0,0,1-4.889-3.383c1.654,1.859,4.852,1.766,4.852,1.766Z"/><path class="ar" d="M145.917,252.183s1.562.39,1.9,2.77h.223L148,252.48Z"/><path class="as" d="M156.1,266.479a48.808,48.808,0,0,1,4.945,2.156,29.038,29.038,0,0,1-8.961,1.134c-5.763,0-8.273-1.394-8.273-1.394a13.191,13.191,0,0,1,3.086-1.785s3.83,3.272,7.715,3.105c3.923-.149,1.488-3.216,1.488-3.216"/><path class="aw" d="M160.027,255.25a4.255,4.255,0,0,0-1.9-.52c-.985,0-2.621,0-2.621,2.621a9.351,9.351,0,0,0,.78,2.993"/><path class="az" d="M154.487,255.715a4.673,4.673,0,0,0-2.454-.985c-1.45,0-2.249.483-2.249,1.227a1.681,1.681,0,0,0,1.3,1.58"/><path class="av" d="M156.214,245.05c-.1.729-.713,6.728,3.959,8.276a7.358,7.358,0,0,0-.949-6.022A7.264,7.264,0,0,0,156.214,245.05Z"/><path class="ar" d="M145.917,252.183a7.765,7.765,0,0,1,2.844-6.916c3.551-2.993,9.277.038,10.448,2.064a8.664,8.664,0,0,1-3.9,4.852c-3.142,1.878-9.388,0-9.388,0"/><path class="ao" d="M170.082,268.394a20.037,20.037,0,0,0-2.027,1.97c1.673,1.45,7.92,4.5,14.835,3.681,6.9-.836,7.436-3.086,7.436-3.086-.836-.781-3.011-2.324-3.011-2.324"/><path class="ap" d="M170.082,268.394a13.151,13.151,0,0,1,3.086-1.785c1.766-.706,1.431-1.524,1.859-5.242,0,0-1.841-2.454-1.952-3.793,0,0-1.729-.632-1.822-3.235-.112-2.6.929-2.156.929-2.156a7.764,7.764,0,0,1,2.845-6.916c3.55-2.993,9.276.038,10.447,2.064a7.342,7.342,0,0,1,.986,5.819c-.539,1.9.483,3.755-1.1,6.8-1.58,3.067-2.435,3.458-3.83,4.015l.056,1.6a1.3,1.3,0,0,0,.8.911c.67.242,4.945,2.156,4.945,2.156-1.561.019-3.16,1.134-8.96,1.134s-8.291-1.375-8.291-1.375"/><path class="aq" d="M181.552,265.568a7.315,7.315,0,0,1-4.889-3.383c1.654,1.859,4.852,1.766,4.852,1.766Z"/><path class="ar" d="M172.164,252.183s1.561.39,1.9,2.77h.223l-.037-2.473Z"/><path class="as" d="M182.351,266.479a48.808,48.808,0,0,1,4.945,2.156,29.027,29.027,0,0,1-8.96,1.134c-5.763,0-8.273-1.394-8.273-1.394a13.191,13.191,0,0,1,3.086-1.785s3.83,3.272,7.715,3.105c3.923-.149,1.487-3.216,1.487-3.216"/><path class="at" d="M186.274,255.25a4.261,4.261,0,0,0-1.9-.52c-.986,0-2.622,0-2.622,2.621a9.341,9.341,0,0,0,.781,2.993"/><path class="au" d="M180.734,255.715a4.673,4.673,0,0,0-2.454-.985c-1.45,0-2.249.483-2.249,1.227a1.681,1.681,0,0,0,1.3,1.58"/><path class="av" d="M182.461,245.05c-.1.729-.713,6.728,3.958,8.276a7.351,7.351,0,0,0-.949-6.022A7.26,7.26,0,0,0,182.461,245.05Z"/><path class="ar" d="M172.164,252.183a7.762,7.762,0,0,1,2.844-6.916c3.551-2.993,9.277.038,10.448,2.064a8.669,8.669,0,0,1-3.9,4.852c-3.142,1.878-9.388,0-9.388,0"/><path class="ao" d="M196.328,268.394a20.083,20.083,0,0,0-2.026,1.97c1.673,1.45,7.919,4.5,14.835,3.681,6.9-.836,7.436-3.086,7.436-3.086-.836-.781-3.012-2.324-3.012-2.324"/><path class="ap" d="M196.328,268.394a13.151,13.151,0,0,1,3.086-1.785c1.766-.706,1.432-1.524,1.859-5.242,0,0-1.84-2.454-1.952-3.793,0,0-1.729-.632-1.822-3.235-.111-2.6.93-2.156.93-2.156a7.765,7.765,0,0,1,2.844-6.916c3.551-2.993,9.277.038,10.448,2.064a7.342,7.342,0,0,1,.985,5.819c-.539,1.9.484,3.755-1.1,6.8-1.58,3.067-2.435,3.458-3.829,4.015l.056,1.6a1.3,1.3,0,0,0,.8.911c.669.242,4.945,2.156,4.945,2.156-1.562.019-3.16,1.134-8.96,1.134s-8.292-1.375-8.292-1.375"/><path class="aq" d="M207.8,265.568a7.315,7.315,0,0,1-4.889-3.383c1.655,1.859,4.852,1.766,4.852,1.766Z"/><path class="ar" d="M198.41,252.183s1.562.39,1.9,2.77h.223l-.037-2.473Z"/><path class="as" d="M208.6,266.479a48.808,48.808,0,0,1,4.945,2.156,29.03,29.03,0,0,1-8.961,1.134c-5.763,0-8.272-1.394-8.272-1.394a13.191,13.191,0,0,1,3.086-1.785s3.829,3.272,7.715,3.105c3.922-.149,1.487-3.216,1.487-3.216"/><path class="aw" d="M212.52,255.25a4.255,4.255,0,0,0-1.9-.52c-.985,0-2.621,0-2.621,2.621a9.342,9.342,0,0,0,.781,2.993"/><path class="au" d="M206.981,255.715a4.673,4.673,0,0,0-2.454-.985c-1.45,0-2.25.483-2.25,1.227a1.681,1.681,0,0,0,1.3,1.58"/><path class="av" d="M208.708,245.05c-.1.729-.713,6.728,3.958,8.276a7.354,7.354,0,0,0-.949-6.022A7.26,7.26,0,0,0,208.708,245.05Z"/><path class="ar" d="M198.41,252.183a7.764,7.764,0,0,1,2.845-6.916c3.55-2.993,9.276.038,10.447,2.064a8.664,8.664,0,0,1-3.9,4.852c-3.141,1.878-9.388,0-9.388,0"/></g></g></svg>