<svg xmlns="http://www.w3.org/2000/svg" xmlns:xlink="http://www.w3.org/1999/xlink" width="123.993" height="149.553" viewBox="0 0 123.993 149.553"><defs><style>.a,.am,.an{fill:none;}.b{fill:#3a8062;}.c{fill:#cbb9b0;}.d{fill:#fff;}.e{fill:#4a4744;}.f{fill:#68b699;}.g{fill:#5e412f;}.h{fill:#a77453;}.i{clip-path:url(#a);}.j{fill:#32271f;}.k{fill:#5d5652;}.l{fill:#392a22;}.m{fill:#a97552;}.n{fill:#7fb69b;}.o{fill:#74a58b;}.p{fill:#2b3c30;}.q{fill:#d7eae0;}.r{fill:#436b5d;}.s{clip-path:url(#c);}.t{fill:#618a74;}.u{fill:#afd6c2;}.v{fill:#496656;}.w{fill:#e89c00;}.x{fill:#bb7a00;}.y{fill:#395645;}.z{fill:#c37e00;}.aa{clip-path:url(#g);}.ab{fill:#638b74;}.ac{fill:#4d6555;}.ad{fill:#8cc0a2;}.ae{clip-path:url(#j);}.af{fill:#92c8aa;}.ag{fill:#4f705f;}.ah{clip-path:url(#l);}.ai{fill:#1d251e;}.aj{clip-path:url(#m);}.ak{fill:#9fcdb2;}.al{fill:#5a7868;}.am{stroke:#4e4d4d;stroke-linejoin:round;}.am,.an{stroke-linecap:round;stroke-width:1.5px;}.an{stroke:#74b59b;stroke-miterlimit:10;stroke-dasharray:0.5 4;}.ao{fill:#75b69b;}.ap{fill:#9e7054;}.aq{fill:#795644;}.ar{fill:#282928;}.as{fill:#5c8e77;}.at{fill:url(#o);}.au{fill:url(#p);}.av{fill:#232322;}.aw{fill:url(#q);}.ax{fill:url(#r);}.ay{fill:url(#s);}.az{fill:url(#t);}.ba{fill:url(#x);}.bb{fill:url(#y);}.bc{fill:url(#z);}.bd{fill:url(#aa);}.be{fill:url(#ab);}.bf{fill:url(#ac);}.bg{fill:url(#af);}.bh{fill:url(#ag);}</style><clipPath id="a"><path class="a" d="M427.188,132.108s-.232,1.673.976,2.045l.464-.093-.093-1.952Z"/></clipPath><clipPath id="c"><rect class="a" width="18.09" height="12.762" rx="0.991" transform="translate(477.824 179.754)"/></clipPath><clipPath id="g"><path class="a" d="M498.145,195.3H475.594a.267.267,0,0,1-.248-.248V176.532a.267.267,0,0,1,.248-.248h22.613a.267.267,0,0,1,.248.248v18.524A.284.284,0,0,1,498.145,195.3Z"/></clipPath><clipPath id="j"><path class="a" d="M499.818,175.975a.31.31,0,0,1-.31.371H474.293a.31.31,0,0,1-.31-.371l1.425-7.62a.532.532,0,0,1,.434-.372H497.9c.186,0,.434.186.434.372Z"/></clipPath><clipPath id="l"><path class="a" d="M494.49,177.771h-15.3a1.375,1.375,0,0,1-1.363-1.363v-.062h18.029v.062A1.3,1.3,0,0,1,494.49,177.771Z"/></clipPath><clipPath id="m"><path class="a" d="M498.269,175.417a.738.738,0,0,1-.806.929H476.276a.784.784,0,0,1-.806-.929l.434-2.354a5.8,5.8,0,0,1,5.452-5.08h10.965a5.744,5.744,0,0,1,5.452,5.08Z"/></clipPath><linearGradient id="o" x1="0.663" y1="-11.394" x2="0.088" y2="-11.856" gradientUnits="objectBoundingBox"><stop offset="0" stop-color="#9e7054"/><stop offset="0.335" stop-color="#986b52"/><stop offset="0.782" stop-color="#855f49"/><stop offset="1" stop-color="#795644"/></linearGradient><linearGradient id="p" x1="0.58" y1="-23.192" x2="0.392" y2="-24.06" gradientUnits="objectBoundingBox"><stop offset="0" stop-color="#9e7054"/><stop offset="0.349" stop-color="#9a6d52"/><stop offset="0.682" stop-color="#8d644c"/><stop offset="1" stop-color="#795644"/></linearGradient><linearGradient id="q" x1="0.663" y1="-11.394" x2="0.088" y2="-11.856" xlink:href="#o"/><linearGradient id="r" x1="0.58" y1="-23.192" x2="0.392" y2="-24.06" xlink:href="#p"/><linearGradient id="s" x1="0.663" y1="-11.394" x2="0.088" y2="-11.856" xlink:href="#o"/><linearGradient id="t" x1="0.58" y1="-23.192" x2="0.392" y2="-24.06" xlink:href="#p"/><linearGradient id="x" x1="0.58" y1="-23.192" x2="0.392" y2="-24.06" xlink:href="#p"/><linearGradient id="y" x1="0.663" y1="-11.394" x2="0.088" y2="-11.856" xlink:href="#o"/><linearGradient id="z" x1="0.58" y1="-23.192" x2="0.392" y2="-24.06" xlink:href="#p"/><linearGradient id="aa" x1="0.663" y1="-11.394" x2="0.089" y2="-11.856" xlink:href="#o"/><linearGradient id="ab" x1="0.58" y1="-23.192" x2="0.392" y2="-24.06" xlink:href="#p"/><linearGradient id="ac" x1="0.663" y1="-11.394" x2="0.088" y2="-11.856" xlink:href="#o"/><linearGradient id="af" x1="0.58" y1="-23.192" x2="0.392" y2="-24.06" xlink:href="#p"/><linearGradient id="ag" x1="0.663" y1="-11.394" x2="0.088" y2="-11.856" xlink:href="#o"/></defs><g transform="translate(-529.596 -3914.73)"><g transform="translate(153.759 3795.507)"><path class="b" d="M431.633,128.33l-.743-1.982h1.487Z"/><path class="c" d="M445.634,126.347H421.225a1.4,1.4,0,0,0-1.425,1.425v14.869a1.4,1.4,0,0,0,1.425,1.425h24.409a1.4,1.4,0,0,0,1.425-1.425V127.772A1.4,1.4,0,0,0,445.634,126.347Zm-10.655,2.479h-3.1a.62.62,0,1,1,0-1.239h3.1a.62.62,0,0,1,0,1.239Z"/><path class="b" d="M430.89,126.347h3.531l-2.54-6.133H428.35Z"/><rect class="d" width="0.248" height="8.549" transform="translate(432.996 131.49)"/><line class="a" x2="7.372" transform="translate(435.04 132.481)"/><path class="e" d="M443.28,136.041h-7.434a.215.215,0,0,1,0-.429h7.434a.215.215,0,1,1,0,.429Z"/><path class="e" d="M443.28,133.715h-7.434a.428.428,0,1,1,0-.857h7.434a.428.428,0,1,1,0,.857Z"/><path class="e" d="M443.28,137.4h-7.434a.214.214,0,1,1,0-.428h7.434a.214.214,0,1,1,0,.428Z"/><path class="e" d="M441.05,138.766h-5.2a.214.214,0,1,1,0-.428h5.2a.214.214,0,1,1,0,.428Z"/><path class="d" d="M445.634,143.748H421.225a1.034,1.034,0,0,1-1.045-1.045V127.834a1.033,1.033,0,0,1,1.045-1.044h24.409a1.033,1.033,0,0,1,1.045,1.044V142.7A1.034,1.034,0,0,1,445.634,143.748ZM421.225,126.9a.927.927,0,0,0-.937.937V142.7a.927.927,0,0,0,.937.938h24.409a.928.928,0,0,0,.938-.938V127.834a.928.928,0,0,0-.938-.937Z"/><path class="f" d="M435.1,128.33h-3.469l3.717-9.107h3.593Z"/><path class="g" d="M424.028,137.963a4.221,4.221,0,0,0-.511.511,5.615,5.615,0,0,0,3.717.929c1.72-.186,1.859-.79,1.859-.79-.232-.186-.743-.6-.743-.6"/><path class="h" d="M424.028,137.963a3.141,3.141,0,0,1,.79-.465c.418-.186.372-.372.465-1.3a3.093,3.093,0,0,1-.511-.929.831.831,0,0,1-.465-.79c-.046-.651.232-.558.232-.558a1.908,1.908,0,0,1,.7-1.719,1.98,1.98,0,0,1,2.6.511,1.823,1.823,0,0,1,.233,1.441c-.14.464.139.929-.279,1.719s-.6.883-.976,1.022v.418s.047.186.186.232c.186.047,1.255.558,1.255.558a11.144,11.144,0,0,1-2.231.279,4.674,4.674,0,0,1-2-.418"/><g class="i"><path class="j" d="M424.028,137.963a3.141,3.141,0,0,1,.79-.465c.418-.186.372-.372.465-1.3a3.093,3.093,0,0,1-.511-.929.831.831,0,0,1-.465-.79c-.046-.651.232-.558.232-.558a1.908,1.908,0,0,1,.7-1.719,1.98,1.98,0,0,1,2.6.511,1.823,1.823,0,0,1,.233,1.441c-.14.464.139.929-.279,1.719s-.6.883-.976,1.022v.418s.047.186.186.232a4.778,4.778,0,0,1,1.255.558,7.333,7.333,0,0,1-2.231.279,4.674,4.674,0,0,1-2-.418"/></g><g class="i"><path class="k" d="M426.956,137.266a1.778,1.778,0,0,1-1.208-.837,1.828,1.828,0,0,0,1.208.465Z"/></g><path class="l" d="M425.283,132.155a1.905,1.905,0,0,0-.7,1.719s.372.093.465.7h.046v-.558a2.7,2.7,0,0,0,1.812-.139,2.151,2.151,0,0,0,.976-1.208A1.979,1.979,0,0,0,425.283,132.155Z"/><path class="g" d="M427.142,137.5a6.521,6.521,0,0,1,1.254.558,7.354,7.354,0,0,1-2.23.278,4.551,4.551,0,0,1-2.091-.371,3.118,3.118,0,0,1,.79-.465,3.344,3.344,0,0,0,1.951.79c.93-.047.326-.79.326-.79"/><path class="m" d="M394.765,142.747a7.435,7.435,0,1,0-14.869,0,7.354,7.354,0,0,0,6.319,7.31v3.593h-1.362a1.116,1.116,0,1,0,0,2.231h1.362v1.672a1.116,1.116,0,1,0,2.231,0v-1.672h1.363a1.116,1.116,0,0,0,0-2.231h-1.363v-3.593A7.354,7.354,0,0,0,394.765,142.747Zm-12.576,0a5.2,5.2,0,1,1,5.2,5.2A5.235,5.235,0,0,1,382.189,142.747Z"/><path class="d" d="M387.331,158.949a1.4,1.4,0,0,1-1.4-1.4v-1.392h-1.082a1.4,1.4,0,1,1,0-2.791h1.082V150.3a7.715,7.715,0,1,1,2.791,0v3.072h1.083a1.4,1.4,0,0,1,0,2.791h-1.083v1.392A1.4,1.4,0,0,1,387.331,158.949Zm-2.478-5.018a.835.835,0,1,0,0,1.669H386.5v1.953a.835.835,0,1,0,1.669,0V155.6h1.644a.835.835,0,0,0,0-1.669h-1.644v-4.118l.242-.034a7.154,7.154,0,1,0-2.153,0l.242.034v4.118Zm2.54-5.7a5.485,5.485,0,1,1,5.484-5.484A5.49,5.49,0,0,1,387.393,148.231Zm0-10.408a4.924,4.924,0,1,0,4.923,4.924A4.93,4.93,0,0,0,387.393,137.823Z"/><path class="m" d="M412.112,142.747a7.434,7.434,0,1,0-14.869,0,7.354,7.354,0,0,0,6.319,7.31v5.7l-1.177-.868a1.153,1.153,0,1,0-1.363,1.859l2.974,2.23a1.125,1.125,0,0,0,1.239,0l2.974-2.23a1.153,1.153,0,0,0-1.363-1.859l-1.177.868v-5.7A7.357,7.357,0,0,0,412.112,142.747Zm-12.577,0a5.2,5.2,0,1,1,5.2,5.2A5.235,5.235,0,0,1,399.535,142.747Z"/><path class="d" d="M404.615,159.445a1.482,1.482,0,0,1-.775-.233l-3-2.253a1.47,1.47,0,0,1-.287-1.99l.013-.016a1.469,1.469,0,0,1,1.99-.288l.729.537v-4.9a7.774,7.774,0,1,1,2.667,0v4.9l.73-.538a1.389,1.389,0,0,1,1.062-.253,1.467,1.467,0,0,1,.94.558,1.451,1.451,0,0,1-.3,2L405.4,159.2A1.485,1.485,0,0,1,404.615,159.445ZM401.2,156.53l2.965,2.224a.846.846,0,0,0,.915-.009l2.961-2.221a.864.864,0,0,0-.386-1.559.838.838,0,0,0-.64.149l-1.626,1.2v-6.5l.244-.033a7.051,7.051,0,0,0,6.2-7.032,7.154,7.154,0,1,0-8.23,7.032l.242.034v6.5l-1.624-1.2a.872.872,0,1,0-1.02,1.415Zm3.54-8.3a5.485,5.485,0,1,1,5.485-5.484A5.49,5.49,0,0,1,404.739,148.231Zm0-10.408a4.924,4.924,0,1,0,4.924,4.924A4.929,4.929,0,0,0,404.739,137.823Z"/><path class="m" d="M403.438,142.747a7.434,7.434,0,1,0-14.868,0,7.354,7.354,0,0,0,6.319,7.31v1.425h-1.363a1.115,1.115,0,0,0,0,2.23h1.363v2.045l-1.177-.806a1.153,1.153,0,0,0-1.363,1.859l2.974,2.23a1.125,1.125,0,0,0,1.239,0l2.973-2.23a1.153,1.153,0,0,0-1.363-1.859l-1.177.868v-2.045h1.363a1.115,1.115,0,0,0,0-2.23h-1.363v-1.425A7.465,7.465,0,0,0,403.438,142.747Zm-12.576,0a5.2,5.2,0,1,1,5.2,5.2A5.235,5.235,0,0,1,390.862,142.747Z"/><path class="d" d="M395.942,159.507a1.476,1.476,0,0,1-.775-.233l-3-2.253a1.469,1.469,0,0,1-.287-1.99l.013-.017a1.47,1.47,0,0,1,1.99-.287l.728.5v-1.232h-1.082a1.4,1.4,0,1,1,0-2.791h1.082v-.9a7.612,7.612,0,1,1,2.668.059v.907h1.082a1.4,1.4,0,1,1,0,2.791h-1.082v1.209l.73-.538a1.384,1.384,0,0,1,1.062-.253,1.424,1.424,0,0,1,.636,2.561l-2.974,2.231A1.485,1.485,0,0,1,395.942,159.507Zm-3.416-2.915,2.965,2.224a.846.846,0,0,0,.915-.009l2.961-2.221a.864.864,0,0,0-.386-1.559.837.837,0,0,0-.64.149l-1.626,1.2v-2.88h1.643a.835.835,0,0,0,0-1.67h-1.643v-1.946l.239-.036a7.156,7.156,0,1,0-8.1-7.1,7.1,7.1,0,0,0,6.077,7.032l.242.034v1.95h-1.643a.835.835,0,1,0,0,1.669h1.643v2.857l-1.616-1.106a.872.872,0,1,0-1.027,1.409Zm3.54-8.361a5.485,5.485,0,1,1,5.484-5.484A5.491,5.491,0,0,1,396.066,148.231Zm0-10.408a4.924,4.924,0,1,0,4.923,4.924A4.93,4.93,0,0,0,396.066,137.823Z"/><path class="f" d="M390.519,168.262l-12.638-.062a1.949,1.949,0,0,0-2.044,1.858v25.153a1.951,1.951,0,0,0,2.044,1.859l15.736.062a1.95,1.95,0,0,0,2.044-1.859l.062-22.427a1.639,1.639,0,0,0-.619-1.3l-3.036-2.726A2.378,2.378,0,0,0,390.519,168.262Z"/><path class="c" d="M392.812,180.962l-.062,11.833a1.93,1.93,0,0,1-1.921,1.92l-10.408-.062a1.93,1.93,0,0,1-1.92-1.92l.061-11.833a1.931,1.931,0,0,1,1.921-1.921l10.408.062A1.931,1.931,0,0,1,392.812,180.962Z"/><path class="d" d="M390.829,194.957,380.42,194.9a2.164,2.164,0,0,1-2.161-2.162l.062-11.834a2.164,2.164,0,0,1,2.162-2.161l10.409.062a2.172,2.172,0,0,1,2.161,2.162h0l-.062,11.833A2.164,2.164,0,0,1,390.829,194.957Zm-10.347-15.736A1.68,1.68,0,0,0,378.8,180.9l-.062,11.834a1.68,1.68,0,0,0,1.679,1.678l10.409.062a1.68,1.68,0,0,0,1.678-1.679l.062-11.834a1.7,1.7,0,0,0-1.692-1.679Z"/><path class="d" d="M387.979,185.168h-4.522a1.583,1.583,0,0,1-1.543-1.542v-4.585a.242.242,0,0,1,.483,0v4.585a1.115,1.115,0,0,0,1.06,1.059h4.522a1.115,1.115,0,0,0,1.06-1.059v-4.585a.242.242,0,0,1,.483,0v4.585A1.583,1.583,0,0,1,387.979,185.168Z"/><path class="d" d="M389.28,194.957a.241.241,0,0,1-.241-.242v-4.584a1.116,1.116,0,0,0-1.06-1.06h-4.522a1.116,1.116,0,0,0-1.06,1.06v4.584a.242.242,0,1,1-.483,0v-4.584a1.582,1.582,0,0,1,1.543-1.542h4.522a1.582,1.582,0,0,1,1.543,1.542v4.584A.242.242,0,0,1,389.28,194.957Z"/><path class="d" d="M383.7,189.071a.241.241,0,0,1-.242-.241v-3.965a.242.242,0,0,1,.483,0v3.965A.241.241,0,0,1,383.7,189.071Z"/><path class="d" d="M387.731,189.133a.241.241,0,0,1-.241-.241v-4.027a.242.242,0,0,1,.483,0v4.027A.241.241,0,0,1,387.731,189.133Z"/><path class="d" d="M385.687,194.957a.241.241,0,0,1-.241-.242v-5.823a.241.241,0,1,1,.482,0v5.823A.241.241,0,0,1,385.687,194.957Z"/><path class="d" d="M385.687,185.106h0a.24.24,0,0,1-.239-.244l.062-5.761a.241.241,0,0,1,.241-.239h0a.24.24,0,0,1,.238.244l-.062,5.762A.241.241,0,0,1,385.687,185.106Z"/><path class="d" d="M382.156,191.054h-3.594a.242.242,0,0,1,0-.483h3.594a.242.242,0,0,1,0,.483Z"/><path class="d" d="M392.811,191.116h-3.593a.242.242,0,0,1,0-.483h3.593a.242.242,0,1,1,0,.483Z"/><path class="d" d="M392.811,183.124h-3.593a.241.241,0,0,1,0-.483h3.593a.241.241,0,1,1,0,.483Z"/><path class="d" d="M382.218,183.124h-3.594a.241.241,0,0,1,0-.483h3.594a.241.241,0,0,1,0,.483Z"/><path class="m" d="M465.353,133.679a13.486,13.486,0,0,1,5.886-1.177,13.863,13.863,0,0,1,5.885,1.177.373.373,0,0,0,.248.062.6.6,0,0,0,.558-.372.614.614,0,0,0-.31-.805,15.05,15.05,0,0,0-6.381-1.3,14.849,14.849,0,0,0-6.381,1.3.614.614,0,0,0-.31.805A.657.657,0,0,0,465.353,133.679Z"/><path class="m" d="M463.123,138.387a11.365,11.365,0,0,1,8.178-3.531,11.124,11.124,0,0,1,8.177,3.531.6.6,0,0,0,.868,0,.6.6,0,0,0,0-.867,12.322,12.322,0,0,0-9.045-3.841,12.667,12.667,0,0,0-9.045,3.841.613.613,0,1,0,.867.867Z"/><path class="m" d="M471.3,136.157a12.42,12.42,0,0,0-2.6.31c-.372.124-.558.371-.434.743s.372.558.743.434a9.16,9.16,0,0,1,11.524,8.921.619.619,0,1,0,1.239,0A10.565,10.565,0,0,0,471.3,136.157Z"/><path class="m" d="M462.07,146.565a9.506,9.506,0,0,1,2.664-6.505,8.435,8.435,0,0,1,1.92-1.487.627.627,0,1,0-.681-1.053,11.257,11.257,0,0,0-2.169,1.673,10.692,10.692,0,0,0-3.035,7.31.585.585,0,0,0,.619.62h0A.517.517,0,0,0,462.07,146.565Z"/><path class="m" d="M464.548,146.751a6.831,6.831,0,0,1,1.982-4.894,6.763,6.763,0,0,1,9.913.371.615.615,0,0,0,.929-.8,7.959,7.959,0,0,0-11.647-.372,8.355,8.355,0,0,0-2.354,5.824,10.05,10.05,0,0,1-1.115,4.4l-.372.62a.685.685,0,0,0,.248.867c.124.062.186.124.309.124a.74.74,0,0,0,.558-.31l.372-.619A14.806,14.806,0,0,0,464.548,146.751Z"/><path class="m" d="M479.726,151.4a22.726,22.726,0,0,1-.433-4.522V146.5a7.993,7.993,0,0,0-.434-2.664.627.627,0,1,0-1.177.434,7.1,7.1,0,0,1,.372,2.292v.372a22.017,22.017,0,0,0,.5,4.77l.682,2.354a.745.745,0,0,0,.619.434.228.228,0,0,0,.186-.062.535.535,0,0,0,.372-.743Z"/><path class="m" d="M478.054,154.681a33.763,33.763,0,0,1-1.24-8.054,5.526,5.526,0,0,0-5.513-5.514,5.593,5.593,0,0,0-5.514,5.638,14.349,14.349,0,0,1-2.726,7.806.619.619,0,0,0,.991.743,15.422,15.422,0,0,0,2.912-8.549,4.337,4.337,0,1,1,8.673,0,31.009,31.009,0,0,0,1.3,8.425l.558,1.859a.746.746,0,0,0,.619.434.228.228,0,0,0,.186-.062.578.578,0,0,0,.372-.806Z"/><path class="m" d="M474.336,146.565a3.1,3.1,0,1,0-6.2,0,17.06,17.06,0,0,1-3.779,10.1.62.62,0,1,0,.991.744,18.381,18.381,0,0,0,4.027-10.842,1.858,1.858,0,1,1,3.717,0,22.429,22.429,0,0,1-4.77,13.134.674.674,0,0,0,.124.867.456.456,0,0,0,.372.124.765.765,0,0,0,.495-.248A23.045,23.045,0,0,0,474.336,146.565Z"/><path class="m" d="M470.991,149.663h.124a.6.6,0,0,0,.619-.5,13.1,13.1,0,0,0,.186-2.6.621.621,0,0,0-.619-.62.667.667,0,0,0-.62.62,11.073,11.073,0,0,1-.186,2.354A.6.6,0,0,0,470.991,149.663Z"/><path class="m" d="M470.681,150.964a.6.6,0,0,0-.743.371,19.758,19.758,0,0,1-3.841,7.187.674.674,0,0,0,.124.867.453.453,0,0,0,.371.124.765.765,0,0,0,.5-.248,22.066,22.066,0,0,0,4.027-7.62A.552.552,0,0,0,470.681,150.964Z"/><path class="m" d="M475.885,155.982c-.31-.868-.557-1.859-.619-1.859a.6.6,0,0,0-.558-.433.678.678,0,0,0-.619.371,36.244,36.244,0,0,1-2.974,5.7.619.619,0,0,0,.186.867.664.664,0,0,0,.371.124.632.632,0,0,0,.5-.31,34.892,34.892,0,0,0,2.354-4.4c.062.124.062.186.124.309l.744,2.355a.627.627,0,0,0,1.177-.434Z"/><path class="n" d="M499.818,175.975a.31.31,0,0,1-.31.371H474.293a.31.31,0,0,1-.31-.371l1.425-7.62a.532.532,0,0,1,.434-.372H497.9c.186,0,.434.186.434.372Z"/><path class="o" d="M498.145,195.3H475.594a.267.267,0,0,1-.248-.248V176.47a.266.266,0,0,1,.248-.247h22.613a.266.266,0,0,1,.248.247v18.586A.284.284,0,0,1,498.145,195.3Z"/><path class="p" d="M494.49,177.771h-15.3a1.375,1.375,0,0,1-1.363-1.363v-.062h18.029v.062A1.3,1.3,0,0,1,494.49,177.771Z"/><path class="n" d="M495.915,191.525a.979.979,0,0,1-.992.991H478.816a.979.979,0,0,1-.992-.991v-10.78a.979.979,0,0,1,.992-.991h16.107a.978.978,0,0,1,.992.991Z"/><circle class="q" cx="0.867" cy="0.867" r="0.867" transform="translate(486.002 180.683)"/><path class="r" d="M486.869,182.941a1.392,1.392,0,0,1-1.39-1.391.152.152,0,0,1,.3,0,1.087,1.087,0,1,0,2.175,0,.152.152,0,0,1,.3,0A1.393,1.393,0,0,1,486.869,182.941Z"/><path class="a" d="M499.694,194.994a1.032,1.032,0,0,1-1.054.991H475.222a.994.994,0,0,1-1.053-.991V177.4a1.033,1.033,0,0,1,1.053-.992H498.64a1,1,0,0,1,1.054.992Z"/><g class="s"><rect class="t" width="0.31" height="12.7" transform="translate(477.824 179.816)"/></g><g class="s"><rect class="t" width="0.31" height="12.7" transform="translate(495.605 179.816)"/></g><g class="s"><rect class="u" width="18.028" height="0.372" transform="translate(477.824 179.816)"/></g><g class="s"><rect class="v" width="18.462" height="0.434" transform="translate(477.762 192.268)"/></g><path class="w" d="M480.426,193.321a.4.4,0,0,1-.371-.371v-.5a.993.993,0,0,1,.8-.991h.186a.952.952,0,0,1,.929.929v.558a.4.4,0,0,1-.372.371Z"/><path class="x" d="M480.984,191.525a.847.847,0,0,1,.867.867v.558a.292.292,0,0,1-.309.309h-1.116a.292.292,0,0,1-.309-.309v-.5a.867.867,0,0,1,.743-.867c.062-.062.062-.062.124-.062m0-.186H480.8a1.066,1.066,0,0,0-.867,1.053v.5a.423.423,0,0,0,.433.433h1.116a.423.423,0,0,0,.433-.433v-.558a.925.925,0,0,0-.929-.991Z"/><path class="w" d="M492.2,193.321a.4.4,0,0,1-.371-.371v-.5a.993.993,0,0,1,.805-.991h.186a.952.952,0,0,1,.929.929v.558a.4.4,0,0,1-.372.371Z"/><path class="x" d="M492.755,191.525a.847.847,0,0,1,.867.867v.558a.292.292,0,0,1-.309.309H492.2a.292.292,0,0,1-.309-.309v-.5a.867.867,0,0,1,.743-.867c0-.062.062-.062.124-.062m0-.186h-.186a1.066,1.066,0,0,0-.867,1.053v.5a.423.423,0,0,0,.433.433h1.116a.423.423,0,0,0,.433-.433v-.558a.925.925,0,0,0-.929-.991Z"/><rect class="y" width="10.036" height="0.304" transform="translate(481.851 192.364)"/><rect class="z" width="1.735" height="0.304" transform="translate(480.117 192.364)"/><rect class="z" width="1.735" height="0.304" transform="translate(491.888 192.364)"/><path class="d" d="M487.489,181.7a.152.152,0,0,1-.152-.152.467.467,0,0,0-.935,0,.152.152,0,0,1-.3,0,.771.771,0,0,1,1.543,0A.152.152,0,0,1,487.489,181.7Z"/><g class="aa"><rect class="ab" width="0.496" height="20.073" transform="translate(475.284 175.913)"/></g><g class="aa"><rect class="ab" width="0.496" height="20.073" transform="translate(497.959 175.913)"/></g><g class="aa"><rect class="ac" width="23.108" height="1.177" transform="translate(475.284 194.808)"/></g><path class="a" d="M499.694,175.417a.757.757,0,0,1-.806.929H474.851a.784.784,0,0,1-.806-.929l1.3-6.505a1.264,1.264,0,0,1,1.177-.929h20.693a1.264,1.264,0,0,1,1.177.929Z"/><path class="ad" d="M498.269,175.417a.738.738,0,0,1-.806.929H476.276a.784.784,0,0,1-.806-.929l.434-2.354a5.8,5.8,0,0,1,5.452-5.08h10.965a5.744,5.744,0,0,1,5.452,5.08Z"/><path class="a" d="M498.455,176.408H475.346l.62-3.345a5.8,5.8,0,0,1,5.452-5.08h10.965a5.744,5.744,0,0,1,5.452,5.08Z"/><g class="ae"><rect class="af" width="25.834" height="1.053" transform="translate(473.674 167.487)"/></g><g class="ae"><rect class="ag" width="27.817" height="1.487" transform="translate(473.24 175.541)"/></g><g class="ah"><rect class="ai" width="18.462" height="0.62" transform="translate(477.639 177.462)"/></g><g class="aj"><rect class="ak" width="18.896" height="1.053" transform="translate(477.143 167.487)"/></g><g class="aj"><rect class="al" width="27.817" height="1.487" transform="translate(473.24 175.541)"/></g><path class="p" d="M484.453,186.259a1.448,1.448,0,0,1,.434.434,1.317,1.317,0,0,1,.186.743,1.709,1.709,0,0,1-.186.8.968.968,0,0,1-.5.5,1.246,1.246,0,0,1-.681.186,1.146,1.146,0,0,1-1.053-.558,2.652,2.652,0,0,1-.31-1.487,3.354,3.354,0,0,1,.186-1.177,1.9,1.9,0,0,1,.557-.805,1.306,1.306,0,0,1,.806-.31,1.422,1.422,0,0,1,.867.248l-.248.372a1.193,1.193,0,0,0-.619-.186.671.671,0,0,0-.682.433,2.949,2.949,0,0,0-.31,1.116,1.117,1.117,0,0,1,.992-.558A2.2,2.2,0,0,1,484.453,186.259Zm-.186,1.92a1.316,1.316,0,0,0,.186-.743c0-.62-.248-.867-.681-.867a1.168,1.168,0,0,0-.5.124c-.124.123-.31.247-.372.433a2,2,0,0,0,.186.991.684.684,0,0,0,.62.31A.6.6,0,0,0,484.267,188.179Z"/><path class="p" d="M488.047,185.144a2.815,2.815,0,0,1,.371,1.61,2.957,2.957,0,0,1-.371,1.611,1.148,1.148,0,0,1-1.054.558,1.218,1.218,0,0,1-1.053-.558,2.808,2.808,0,0,1-.372-1.611,2.946,2.946,0,0,1,.372-1.61,1.273,1.273,0,0,1,2.107,0Zm-1.611.309a4.643,4.643,0,0,0,0,2.6.622.622,0,0,0,.619.372.755.755,0,0,0,.62-.372,3.183,3.183,0,0,0,.186-1.3,3.4,3.4,0,0,0-.186-1.3.7.7,0,0,0-1.239,0Z"/><path class="p" d="M490.711,184.772a1.457,1.457,0,0,1,.433.434,1,1,0,0,1,.186.557,1.651,1.651,0,0,1-.186.744,5.3,5.3,0,0,1-.5.743c-.248.248-.62.62-1.054,1.115h1.859l-.062.5h-2.416v-.434c.557-.557.929-.991,1.177-1.239a3.68,3.68,0,0,0,.5-.681,1.126,1.126,0,0,0,.123-.62.639.639,0,0,0-.681-.681.9.9,0,0,0-.434.124,1.944,1.944,0,0,0-.433.371l-.372-.309a4.065,4.065,0,0,1,.557-.5,1.25,1.25,0,0,1,.682-.186A.558.558,0,0,1,490.711,184.772Z"/><line class="am" y2="7.611" transform="translate(434.847 195.28)"/><circle class="am" cx="2.066" cy="2.066" r="2.066" transform="translate(432.781 203.517)"/><path class="m" d="M420.931,163.078a4.965,4.965,0,0,0,0,9.929h27.832a4.965,4.965,0,0,0,0-9.929Z"/><circle class="d" cx="1.383" cy="1.383" r="1.383" transform="translate(419.548 166.578)"/><circle class="d" cx="1.383" cy="1.383" r="1.383" transform="translate(424.919 166.578)"/><circle class="d" cx="1.383" cy="1.383" r="1.383" transform="translate(430.29 166.578)"/><path class="m" d="M420.931,174.716a4.984,4.984,0,0,0-4.964,4.964,4.932,4.932,0,0,0,4.964,4.964h27.832a4.983,4.983,0,0,0,4.964-4.964,4.932,4.932,0,0,0-4.964-4.964Z"/><circle class="d" cx="1.383" cy="1.383" r="1.383" transform="translate(419.548 178.296)"/><circle class="d" cx="1.383" cy="1.383" r="1.383" transform="translate(424.919 178.296)"/><circle class="d" cx="1.383" cy="1.383" r="1.383" transform="translate(430.29 178.296)"/><path class="m" d="M420.931,186.353a4.984,4.984,0,0,0-4.964,4.964,4.932,4.932,0,0,0,4.964,4.964h27.832a4.983,4.983,0,0,0,4.964-4.964,4.932,4.932,0,0,0-4.964-4.964Z"/><circle class="d" cx="1.383" cy="1.383" r="1.383" transform="translate(419.548 189.934)"/><circle class="d" cx="1.383" cy="1.383" r="1.383" transform="translate(424.919 189.934)"/><circle class="d" cx="1.383" cy="1.383" r="1.383" transform="translate(430.29 189.934)"/><circle class="an" cx="32.602" cy="32.602" r="32.602" transform="translate(402.246 150.064)"/><path class="ao" d="M419.056,248.74a18.543,18.543,0,0,0-1.868,1.817c1.542,1.336,7.3,4.147,13.674,3.393,6.357-.772,6.854-2.845,6.854-2.845-.771-.72-2.776-2.142-2.776-2.142"/><path class="ap" d="M419.056,248.74A12.122,12.122,0,0,1,421.9,247.1c1.628-.651,1.32-1.4,1.714-4.832,0,0-1.7-2.262-1.8-3.5a3.078,3.078,0,0,1-1.679-2.981c-.1-2.4.857-1.988.857-1.988a7.155,7.155,0,0,1,2.622-6.374c3.273-2.759,8.55.034,9.63,1.9a6.769,6.769,0,0,1,.908,5.363c-.5,1.748.446,3.462-1.011,6.272-1.456,2.827-2.245,3.187-3.53,3.7l.052,1.474a1.193,1.193,0,0,0,.736.839c.617.223,4.558,1.988,4.558,1.988-1.439.017-2.913,1.045-8.259,1.045s-7.642-1.268-7.642-1.268"/><path class="aq" d="M429.628,246.136a6.74,6.74,0,0,1-4.506-3.119c1.525,1.714,4.472,1.628,4.472,1.628Z"/><path class="ar" d="M420.975,233.8s1.439.36,1.748,2.553h.205l-.034-2.279Z"/><path class="as" d="M430.365,246.975a44.69,44.69,0,0,1,4.558,1.988,26.764,26.764,0,0,1-8.259,1.045c-5.312,0-7.626-1.285-7.626-1.285a12.142,12.142,0,0,1,2.845-1.645s3.53,3.016,7.111,2.862c3.616-.137,1.371-2.965,1.371-2.965"/><path class="at" d="M433.981,236.626a3.923,3.923,0,0,0-1.748-.48c-.908,0-2.416,0-2.416,2.416a8.625,8.625,0,0,0,.719,2.759"/><path class="au" d="M428.874,237.054a4.307,4.307,0,0,0-2.262-.908c-1.336,0-2.073.445-2.073,1.131a1.55,1.55,0,0,0,1.2,1.456"/><path class="av" d="M430.466,227.223c-.093.672-.657,6.2,3.649,7.629a6.779,6.779,0,0,0-.875-5.551A6.692,6.692,0,0,0,430.466,227.223Z"/><path class="ar" d="M420.975,233.8a7.155,7.155,0,0,1,2.622-6.374c3.272-2.759,8.55.034,9.63,1.9a7.991,7.991,0,0,1-3.6,4.472c-2.9,1.731-8.653,0-8.653,0"/><path class="ao" d="M443.248,248.74a18.593,18.593,0,0,0-1.867,1.817c1.542,1.336,7.3,4.147,13.674,3.393,6.357-.772,6.854-2.845,6.854-2.845-.771-.72-2.776-2.142-2.776-2.142"/><path class="ap" d="M443.248,248.74a12.142,12.142,0,0,1,2.845-1.645c1.628-.651,1.319-1.4,1.714-4.832,0,0-1.7-2.262-1.8-3.5a3.078,3.078,0,0,1-1.679-2.981c-.1-2.4.857-1.988.857-1.988a7.155,7.155,0,0,1,2.622-6.374c3.272-2.759,8.55.034,9.63,1.9a6.769,6.769,0,0,1,.908,5.363c-.5,1.748.445,3.462-1.011,6.272-1.457,2.827-2.245,3.187-3.53,3.7l.051,1.474a1.2,1.2,0,0,0,.737.839c.617.223,4.558,1.988,4.558,1.988-1.439.017-2.913,1.045-8.259,1.045s-7.643-1.268-7.643-1.268"/><path class="aq" d="M453.821,246.136a6.744,6.744,0,0,1-4.507-3.119c1.526,1.714,4.473,1.628,4.473,1.628Z"/><path class="ar" d="M445.168,233.8s1.439.36,1.747,2.553h.206l-.034-2.279Z"/><path class="as" d="M454.558,246.975a44.693,44.693,0,0,1,4.558,1.988,26.764,26.764,0,0,1-8.259,1.045c-5.312,0-7.626-1.285-7.626-1.285a12.142,12.142,0,0,1,2.845-1.645s3.53,3.016,7.111,2.862c3.616-.137,1.371-2.965,1.371-2.965"/><path class="aw" d="M458.174,236.626a3.923,3.923,0,0,0-1.748-.48c-.908,0-2.416,0-2.416,2.416a8.625,8.625,0,0,0,.719,2.759"/><path class="ax" d="M453.067,237.054a4.307,4.307,0,0,0-2.262-.908c-1.336,0-2.073.445-2.073,1.131a1.55,1.55,0,0,0,1.2,1.456"/><path class="av" d="M454.659,227.223c-.093.672-.657,6.2,3.649,7.629a6.779,6.779,0,0,0-.875-5.551A6.692,6.692,0,0,0,454.659,227.223Z"/><path class="ar" d="M445.168,233.8a7.156,7.156,0,0,1,2.621-6.374c3.273-2.759,8.551.034,9.631,1.9a7.991,7.991,0,0,1-3.6,4.472c-2.9,1.731-8.653,0-8.653,0"/><path class="ao" d="M383.9,256.091a18.545,18.545,0,0,0-1.868,1.817c1.542,1.336,7.3,4.147,13.674,3.393,6.357-.772,6.854-2.845,6.854-2.845-.771-.72-2.776-2.142-2.776-2.142"/><path class="ap" d="M383.9,256.091a12.162,12.162,0,0,1,2.844-1.645c1.628-.651,1.32-1.4,1.714-4.832,0,0-1.7-2.262-1.8-3.5a3.078,3.078,0,0,1-1.68-2.981c-.1-2.4.857-1.988.857-1.988a7.155,7.155,0,0,1,2.622-6.374c3.273-2.759,8.551.034,9.63,1.9A6.769,6.769,0,0,1,399,242.04c-.5,1.748.446,3.462-1.011,6.272-1.456,2.827-2.245,3.187-3.53,3.7l.052,1.474a1.2,1.2,0,0,0,.737.839c.616.223,4.558,1.988,4.558,1.988-1.44.017-2.913,1.045-8.26,1.045s-7.642-1.268-7.642-1.268"/><path class="aq" d="M394.476,253.487a6.74,6.74,0,0,1-4.506-3.119c1.525,1.714,4.472,1.628,4.472,1.628Z"/><path class="ar" d="M385.823,241.149s1.439.36,1.748,2.553h.2l-.034-2.279Z"/><path class="as" d="M395.213,254.326a44.693,44.693,0,0,1,4.558,1.988,26.764,26.764,0,0,1-8.259,1.045c-5.312,0-7.625-1.285-7.625-1.285a12.122,12.122,0,0,1,2.844-1.645s3.53,3.016,7.111,2.862c3.616-.137,1.371-2.965,1.371-2.965"/><path class="ay" d="M398.829,243.977a3.923,3.923,0,0,0-1.748-.48c-.908,0-2.416,0-2.416,2.416a8.616,8.616,0,0,0,.72,2.759"/><path class="az" d="M393.722,244.4a4.3,4.3,0,0,0-2.261-.908c-1.337,0-2.074.445-2.074,1.131a1.55,1.55,0,0,0,1.2,1.456"/><path class="av" d="M395.314,234.574c-.092.672-.657,6.2,3.649,7.629a6.779,6.779,0,0,0-.875-5.551A6.692,6.692,0,0,0,395.314,234.574Z"/><path class="ar" d="M385.823,241.149a7.155,7.155,0,0,1,2.622-6.374c3.273-2.759,8.55.034,9.63,1.9a7.991,7.991,0,0,1-3.6,4.472c-2.9,1.731-8.653,0-8.653,0"/><path class="ao" d="M408.1,256.091a18.545,18.545,0,0,0-1.868,1.817c1.542,1.336,7.3,4.147,13.674,3.393,6.357-.772,6.854-2.845,6.854-2.845-.771-.72-2.776-2.142-2.776-2.142"/><path class="ap" d="M408.1,256.091a12.162,12.162,0,0,1,2.844-1.645c1.628-.651,1.32-1.4,1.714-4.832,0,0-1.7-2.262-1.8-3.5a3.078,3.078,0,0,1-1.68-2.981c-.1-2.4.857-1.988.857-1.988a7.155,7.155,0,0,1,2.622-6.374c3.273-2.759,8.55.034,9.63,1.9a6.769,6.769,0,0,1,.908,5.363c-.5,1.748.446,3.462-1.011,6.272-1.456,2.827-2.245,3.187-3.53,3.7l.052,1.474a1.2,1.2,0,0,0,.736.839c.617.223,4.558,1.988,4.558,1.988-1.439.017-2.913,1.045-8.259,1.045s-7.642-1.268-7.642-1.268"/><path class="aq" d="M418.669,253.487a6.74,6.74,0,0,1-4.506-3.119c1.525,1.714,4.472,1.628,4.472,1.628Z"/><path class="ar" d="M410.016,241.149s1.439.36,1.748,2.553h.2l-.034-2.279Z"/><path class="as" d="M419.406,254.326a44.69,44.69,0,0,1,4.558,1.988,26.764,26.764,0,0,1-8.259,1.045c-5.312,0-7.625-1.285-7.625-1.285a12.122,12.122,0,0,1,2.844-1.645s3.53,3.016,7.111,2.862c3.616-.137,1.371-2.965,1.371-2.965"/><path class="ay" d="M423.022,243.977a3.923,3.923,0,0,0-1.748-.48c-.908,0-2.416,0-2.416,2.416a8.616,8.616,0,0,0,.72,2.759"/><path class="az" d="M417.915,244.4a4.307,4.307,0,0,0-2.262-.908c-1.336,0-2.073.445-2.073,1.131a1.55,1.55,0,0,0,1.2,1.456"/><path class="av" d="M419.507,234.574c-.092.672-.657,6.2,3.649,7.629a6.779,6.779,0,0,0-.875-5.551A6.692,6.692,0,0,0,419.507,234.574Z"/><path class="ar" d="M410.016,241.149a7.155,7.155,0,0,1,2.622-6.374c3.272-2.759,8.55.034,9.63,1.9a7.991,7.991,0,0,1-3.6,4.472c-2.9,1.731-8.653,0-8.653,0"/><path class="ao" d="M432.29,256.091a18.544,18.544,0,0,0-1.868,1.817c1.542,1.336,7.3,4.147,13.674,3.393,6.357-.772,6.854-2.845,6.854-2.845-.771-.72-2.776-2.142-2.776-2.142"/><path class="ap" d="M432.29,256.091a12.162,12.162,0,0,1,2.844-1.645c1.628-.651,1.319-1.4,1.714-4.832,0,0-1.7-2.262-1.8-3.5a3.078,3.078,0,0,1-1.679-2.981c-.1-2.4.857-1.988.857-1.988a7.155,7.155,0,0,1,2.622-6.374c3.272-2.759,8.55.034,9.63,1.9a6.769,6.769,0,0,1,.908,5.363c-.5,1.748.446,3.462-1.011,6.272-1.457,2.827-2.245,3.187-3.53,3.7l.051,1.474a1.2,1.2,0,0,0,.737.839c.617.223,4.558,1.988,4.558,1.988-1.439.017-2.913,1.045-8.259,1.045s-7.642-1.268-7.642-1.268"/><path class="aq" d="M442.862,253.487a6.74,6.74,0,0,1-4.506-3.119c1.525,1.714,4.472,1.628,4.472,1.628Z"/><path class="ar" d="M434.209,241.149s1.439.36,1.748,2.553h.2l-.034-2.279Z"/><path class="as" d="M443.6,254.326a44.69,44.69,0,0,1,4.558,1.988,26.764,26.764,0,0,1-8.259,1.045c-5.312,0-7.626-1.285-7.626-1.285a12.142,12.142,0,0,1,2.845-1.645s3.53,3.016,7.111,2.862c3.616-.137,1.371-2.965,1.371-2.965"/><path class="ay" d="M447.215,243.977a3.923,3.923,0,0,0-1.748-.48c-.908,0-2.416,0-2.416,2.416a8.625,8.625,0,0,0,.719,2.759"/><path class="ba" d="M442.108,244.4a4.307,4.307,0,0,0-2.262-.908c-1.336,0-2.073.445-2.073,1.131a1.55,1.55,0,0,0,1.2,1.456"/><path class="av" d="M443.7,234.574c-.093.672-.657,6.2,3.649,7.629a6.779,6.779,0,0,0-.875-5.551A6.692,6.692,0,0,0,443.7,234.574Z"/><path class="ar" d="M434.209,241.149a7.156,7.156,0,0,1,2.621-6.374c3.273-2.759,8.551.034,9.631,1.9a7.991,7.991,0,0,1-3.6,4.472c-2.9,1.731-8.653,0-8.653,0"/><path class="ao" d="M456.482,256.091a18.592,18.592,0,0,0-1.867,1.817c1.542,1.336,7.3,4.147,13.674,3.393,6.357-.772,6.854-2.845,6.854-2.845-.771-.72-2.776-2.142-2.776-2.142"/><path class="ap" d="M456.482,256.091a12.183,12.183,0,0,1,2.845-1.645c1.628-.651,1.319-1.4,1.713-4.832,0,0-1.7-2.262-1.8-3.5a3.078,3.078,0,0,1-1.679-2.981c-.1-2.4.857-1.988.857-1.988a7.156,7.156,0,0,1,2.621-6.374c3.273-2.759,8.551.034,9.631,1.9a6.769,6.769,0,0,1,.908,5.363c-.5,1.748.445,3.462-1.011,6.272-1.457,2.827-2.245,3.187-3.53,3.7l.051,1.474a1.2,1.2,0,0,0,.737.839c.617.223,4.558,1.988,4.558,1.988-1.439.017-2.913,1.045-8.259,1.045s-7.643-1.268-7.643-1.268"/><path class="aq" d="M467.055,253.487a6.743,6.743,0,0,1-4.507-3.119c1.525,1.714,4.473,1.628,4.473,1.628Z"/><path class="ar" d="M458.4,241.149s1.439.36,1.747,2.553h.206l-.034-2.279Z"/><path class="as" d="M467.792,254.326a44.69,44.69,0,0,1,4.558,1.988,26.764,26.764,0,0,1-8.259,1.045c-5.312,0-7.626-1.285-7.626-1.285a12.142,12.142,0,0,1,2.845-1.645s3.53,3.016,7.111,2.862c3.616-.137,1.371-2.965,1.371-2.965"/><path class="bb" d="M471.407,243.977a3.916,3.916,0,0,0-1.747-.48c-.909,0-2.416,0-2.416,2.416a8.625,8.625,0,0,0,.719,2.759"/><path class="bc" d="M466.3,244.4a4.307,4.307,0,0,0-2.262-.908c-1.336,0-2.073.445-2.073,1.131a1.55,1.55,0,0,0,1.2,1.456"/><path class="av" d="M467.893,234.574c-.093.672-.657,6.2,3.649,7.629a6.782,6.782,0,0,0-.875-5.551A6.692,6.692,0,0,0,467.893,234.574Z"/><path class="ar" d="M458.4,241.149a7.153,7.153,0,0,1,2.621-6.374c3.273-2.759,8.551.034,9.631,1.9a7.991,7.991,0,0,1-3.6,4.472c-2.9,1.731-8.653,0-8.653,0"/><path class="ao" d="M397.37,263.441a18.464,18.464,0,0,0-1.867,1.817c1.542,1.336,7.3,4.146,13.674,3.392,6.357-.771,6.854-2.844,6.854-2.844-.771-.72-2.776-2.142-2.776-2.142"/><path class="ap" d="M397.37,263.441a12.142,12.142,0,0,1,2.845-1.645c1.628-.651,1.319-1.4,1.713-4.832,0,0-1.7-2.262-1.8-3.5a3.078,3.078,0,0,1-1.679-2.981c-.1-2.4.857-1.988.857-1.988a7.152,7.152,0,0,1,2.621-6.374c3.273-2.759,8.551.034,9.631,1.9a6.768,6.768,0,0,1,.908,5.363c-.5,1.748.445,3.461-1.011,6.272-1.457,2.827-2.245,3.187-3.53,3.7l.051,1.474a1.2,1.2,0,0,0,.737.839c.617.223,4.558,1.988,4.558,1.988-1.439.017-2.913,1.045-8.259,1.045s-7.643-1.268-7.643-1.268"/><path class="aq" d="M407.943,260.837a6.743,6.743,0,0,1-4.507-3.119c1.525,1.713,4.473,1.628,4.473,1.628Z"/><path class="ar" d="M399.289,248.5s1.44.36,1.748,2.553h.206l-.034-2.279Z"/><path class="as" d="M408.68,261.676a44.691,44.691,0,0,1,4.558,1.988,26.768,26.768,0,0,1-8.26,1.045c-5.312,0-7.625-1.285-7.625-1.285a12.142,12.142,0,0,1,2.845-1.645s3.53,3.016,7.111,2.862c3.616-.137,1.371-2.965,1.371-2.965"/><path class="bd" d="M412.3,251.326a3.922,3.922,0,0,0-1.747-.479c-.909,0-2.417,0-2.417,2.416a8.616,8.616,0,0,0,.72,2.759"/><path class="be" d="M407.189,251.755a4.307,4.307,0,0,0-2.262-.908c-1.337,0-2.073.445-2.073,1.131a1.55,1.55,0,0,0,1.2,1.456"/><path class="av" d="M408.781,241.924c-.093.672-.657,6.2,3.649,7.629a6.782,6.782,0,0,0-.875-5.551A6.692,6.692,0,0,0,408.781,241.924Z"/><path class="ar" d="M399.289,248.5a7.154,7.154,0,0,1,2.622-6.374c3.273-2.759,8.551.034,9.63,1.9a7.987,7.987,0,0,1-3.6,4.472c-2.9,1.731-8.654,0-8.654,0"/><path class="ao" d="M421.563,263.441a18.545,18.545,0,0,0-1.868,1.817c1.543,1.336,7.3,4.146,13.675,3.392,6.357-.771,6.854-2.844,6.854-2.844-.771-.72-2.776-2.142-2.776-2.142"/><path class="ap" d="M421.563,263.441a12.142,12.142,0,0,1,2.845-1.645c1.628-.651,1.319-1.4,1.713-4.832,0,0-1.7-2.262-1.8-3.5a3.077,3.077,0,0,1-1.679-2.981c-.1-2.4.856-1.988.856-1.988a7.154,7.154,0,0,1,2.622-6.374c3.273-2.759,8.551.034,9.63,1.9a6.765,6.765,0,0,1,.909,5.363c-.5,1.748.445,3.461-1.011,6.272-1.457,2.827-2.245,3.187-3.53,3.7l.051,1.474a1.2,1.2,0,0,0,.737.839c.617.223,4.558,1.988,4.558,1.988-1.439.017-2.913,1.045-8.259,1.045s-7.643-1.268-7.643-1.268"/><path class="aq" d="M432.136,260.837a6.744,6.744,0,0,1-4.507-3.119c1.525,1.713,4.473,1.628,4.473,1.628Z"/><path class="ar" d="M423.482,248.5s1.44.36,1.748,2.553h.206l-.034-2.279Z"/><path class="as" d="M432.873,261.676a44.788,44.788,0,0,1,4.558,1.988,26.768,26.768,0,0,1-8.26,1.045c-5.312,0-7.625-1.285-7.625-1.285a12.142,12.142,0,0,1,2.845-1.645s3.529,3.016,7.111,2.862c3.615-.137,1.371-2.965,1.371-2.965"/><path class="bf" d="M436.488,251.326a3.924,3.924,0,0,0-1.748-.479c-.908,0-2.416,0-2.416,2.416a8.616,8.616,0,0,0,.72,2.759"/><path class="be" d="M431.382,251.755a4.307,4.307,0,0,0-2.262-.908c-1.337,0-2.073.445-2.073,1.131a1.55,1.55,0,0,0,1.2,1.456"/><path class="av" d="M432.974,241.924c-.093.672-.657,6.2,3.648,7.629a6.778,6.778,0,0,0-.874-5.551A6.7,6.7,0,0,0,432.974,241.924Z"/><path class="ar" d="M423.482,248.5a7.154,7.154,0,0,1,2.622-6.374c3.273-2.759,8.551.034,9.63,1.9a7.987,7.987,0,0,1-3.6,4.472c-2.9,1.731-8.654,0-8.654,0"/><path class="ao" d="M445.756,263.441a18.544,18.544,0,0,0-1.868,1.817c1.542,1.336,7.3,4.146,13.674,3.392,6.358-.771,6.855-2.844,6.855-2.844-.771-.72-2.776-2.142-2.776-2.142"/><path class="ap" d="M445.756,263.441A12.141,12.141,0,0,1,448.6,261.8c1.627-.651,1.319-1.4,1.713-4.832,0,0-1.7-2.262-1.8-3.5a3.077,3.077,0,0,1-1.679-2.981c-.1-2.4.856-1.988.856-1.988a7.154,7.154,0,0,1,2.622-6.374c3.273-2.759,8.551.034,9.63,1.9a6.764,6.764,0,0,1,.908,5.363c-.5,1.748.446,3.461-1.011,6.272-1.456,2.827-2.244,3.187-3.529,3.7l.051,1.474a1.2,1.2,0,0,0,.737.839c.617.223,4.558,1.988,4.558,1.988-1.44.017-2.913,1.045-8.26,1.045s-7.642-1.268-7.642-1.268"/><path class="aq" d="M456.329,260.837a6.744,6.744,0,0,1-4.507-3.119c1.525,1.713,4.472,1.628,4.472,1.628Z"/><path class="ar" d="M447.675,248.5s1.44.36,1.748,2.553h.206l-.035-2.279Z"/><path class="as" d="M457.066,261.676a44.883,44.883,0,0,1,4.558,1.988,26.767,26.767,0,0,1-8.26,1.045c-5.312,0-7.625-1.285-7.625-1.285a12.147,12.147,0,0,1,2.844-1.645s3.53,3.016,7.112,2.862c3.615-.137,1.371-2.965,1.371-2.965"/><path class="bf" d="M460.681,251.326a3.923,3.923,0,0,0-1.748-.479c-.908,0-2.416,0-2.416,2.416a8.616,8.616,0,0,0,.72,2.759"/><path class="bg" d="M455.575,251.755a4.307,4.307,0,0,0-2.262-.908c-1.337,0-2.074.445-2.074,1.131a1.55,1.55,0,0,0,1.2,1.456"/><path class="av" d="M457.167,241.924c-.093.672-.658,6.2,3.648,7.629a6.778,6.778,0,0,0-.874-5.551A6.7,6.7,0,0,0,457.167,241.924Z"/><path class="ar" d="M447.675,248.5a7.154,7.154,0,0,1,2.622-6.374c3.273-2.759,8.551.034,9.63,1.9a7.987,7.987,0,0,1-3.6,4.472c-2.9,1.731-8.654,0-8.654,0"/><path class="ao" d="M469.949,263.441a18.544,18.544,0,0,0-1.868,1.817c1.542,1.336,7.3,4.146,13.674,3.392,6.358-.771,6.855-2.844,6.855-2.844-.772-.72-2.776-2.142-2.776-2.142"/><path class="ap" d="M469.949,263.441a12.147,12.147,0,0,1,2.844-1.645c1.628-.651,1.32-1.4,1.714-4.832,0,0-1.7-2.262-1.8-3.5a3.078,3.078,0,0,1-1.68-2.981c-.1-2.4.857-1.988.857-1.988a7.154,7.154,0,0,1,2.622-6.374c3.273-2.759,8.551.034,9.63,1.9a6.764,6.764,0,0,1,.908,5.363c-.5,1.748.446,3.461-1.011,6.272-1.456,2.827-2.244,3.187-3.53,3.7l.052,1.474a1.2,1.2,0,0,0,.737.839c.617.223,4.558,1.988,4.558,1.988-1.44.017-2.913,1.045-8.26,1.045s-7.642-1.268-7.642-1.268"/><path class="aq" d="M480.522,260.837a6.74,6.74,0,0,1-4.507-3.119c1.525,1.713,4.472,1.628,4.472,1.628Z"/><path class="ar" d="M471.868,248.5s1.439.36,1.748,2.553h.206l-.035-2.279Z"/><path class="as" d="M481.258,261.676a44.691,44.691,0,0,1,4.558,1.988,26.764,26.764,0,0,1-8.259,1.045c-5.312,0-7.625-1.285-7.625-1.285a12.122,12.122,0,0,1,2.844-1.645s3.53,3.016,7.112,2.862c3.615-.137,1.37-2.965,1.37-2.965"/><path class="bh" d="M484.874,251.326a3.929,3.929,0,0,0-1.748-.479c-.908,0-2.416,0-2.416,2.416a8.616,8.616,0,0,0,.72,2.759"/><path class="bg" d="M479.768,251.755a4.307,4.307,0,0,0-2.262-.908c-1.337,0-2.074.445-2.074,1.131a1.55,1.55,0,0,0,1.2,1.456"/><path class="av" d="M481.36,241.924c-.093.672-.658,6.2,3.648,7.629a6.781,6.781,0,0,0-.874-5.551A6.7,6.7,0,0,0,481.36,241.924Z"/><path class="ar" d="M471.868,248.5a7.154,7.154,0,0,1,2.622-6.374c3.273-2.759,8.55.034,9.63,1.9a7.987,7.987,0,0,1-3.6,4.472c-2.9,1.731-8.654,0-8.654,0"/></g></g></svg>