<svg id="Layer_1" data-name="Layer 1" xmlns="http://www.w3.org/2000/svg" xmlns:xlink="http://www.w3.org/1999/xlink" viewBox="0 0 478 416"><defs><style>.cls-1,.cls-81,.cls-83,.cls-87,.cls-89{fill:none;}.cls-2{fill:#7ebfab;}.cls-2,.cls-3{fill-rule:evenodd;}.cls-3{fill:#aadccd;}.cls-4{fill:#ac8368;}.cls-5{fill:#818282;}.cls-6{fill:#f3f3f3;}.cls-7{fill:#80c0aa;}.cls-8{fill:#b9b9ba;}.cls-9{fill:#f4f4f4;}.cls-10{fill:#fff;}.cls-11{fill:#69c3a9;}.cls-12{fill:#444546;}.cls-13{fill:#604332;}.cls-14{fill:#8a6955;}.cls-15{fill:#473025;}.cls-16{fill:#dcdcdc;}.cls-17{fill:#e4ab25;}.cls-18{fill:#a3a3a3;}.cls-19{fill:#686868;}.cls-20{fill:#7c7c7c;}.cls-21{fill:#ef5354;}.cls-22{fill:#b6b6b7;}.cls-23{fill:#353635;}.cls-24{fill:#2d2e2d;}.cls-25{fill:#81c1ab;}.cls-26{fill:#ad8468;}.cls-27{fill:#699e8a;}.cls-28{clip-path:url(#clip-path);}.cls-29{fill:#ac8367;}.cls-30{fill:#ab8267;}.cls-31{fill:#a98166;}.cls-32{fill:#a88066;}.cls-33{fill:#a77f65;}.cls-34{fill:#a67e64;}.cls-35{fill:#a57d64;}.cls-36{fill:#a47d63;}.cls-37{fill:#a37c63;}.cls-38{fill:#a27b62;}.cls-39{fill:#a17a61;}.cls-40{fill:#a07a61;}.cls-41{fill:#9f7960;}.cls-42{fill:#9d7860;}.cls-43{fill:#9c775f;}.cls-44{fill:#9b775f;}.cls-45{fill:#9a765e;}.cls-46{fill:#99755d;}.cls-47{fill:#98745d;}.cls-48{fill:#97745c;}.cls-49{fill:#96735c;}.cls-50{fill:#95725b;}.cls-51{fill:#94715a;}.cls-52{fill:#93705a;}.cls-53{fill:#926f59;}.cls-54{fill:#916e59;}.cls-55{fill:#906e58;}.cls-56{fill:#8e6d57;}.cls-57{fill:#8d6c57;}.cls-58{fill:#8c6b56;}.cls-59{fill:#8b6a56;}.cls-60{clip-path:url(#clip-path-2);}.cls-61{fill:#aa8267;}.cls-62{fill:#a88065;}.cls-63{fill:#a67f64;}.cls-64{fill:#a57e63;}.cls-65{fill:#a27c62;}.cls-66{fill:#a17b62;}.cls-67{fill:#9f7a60;}.cls-68{fill:#9e7960;}.cls-69{fill:#9d785f;}.cls-70{fill:#9c775e;}.cls-71{fill:#9b765e;}.cls-72{fill:#9a765d;}.cls-73{fill:#98745c;}.cls-74{fill:#97735c;}.cls-75{fill:#96725b;}.cls-76{fill:#95715b;}.cls-77{fill:#927059;}.cls-78{fill:#916f59;}.cls-79{fill:#8f6d58;}.cls-80{fill:#8e6c57;}.cls-81{stroke:#000;stroke-width:0.31px;}.cls-81,.cls-83,.cls-88{stroke-miterlimit:10;}.cls-82{fill:#231f20;}.cls-83{stroke:#231f20;stroke-width:0.61px;}.cls-84{fill:#d8d9d8;}.cls-85{clip-path:url(#clip-path-3);}.cls-86{opacity:0.2;}.cls-87{stroke:#8e8e8e;stroke-width:0.63px;}.cls-87,.cls-89{stroke-linecap:round;stroke-linejoin:round;}.cls-88{fill:#e7ac22;}.cls-88,.cls-89{stroke:#6b6b6b;stroke-width:0.3px;}.cls-90{fill:#a3a1a1;}.cls-91{fill:#828282;}</style><clipPath id="clip-path"><path class="cls-1" d="M224.13,199.14a6.87,6.87,0,0,0-3.06-.84c-1.6,0-4.24,0-4.24,4.24a15.18,15.18,0,0,0,1.26,4.84"/></clipPath><clipPath id="clip-path-2"><path class="cls-1" d="M215.17,199.89a7.55,7.55,0,0,0-4-1.59c-2.34,0-3.64.78-3.64,2a2.72,2.72,0,0,0,2.11,2.56"/></clipPath><clipPath id="clip-path-3"><rect class="cls-1" x="11.46" y="212.97" width="65.61" height="42.12" rx="2.59"/></clipPath></defs><g id="arrow-change"><path id="Path_2396" data-name="Path 2396" class="cls-2" d="M19.19,128.32a3,3,0,0,0,3.17-2.8,2.28,2.28,0,0,0,0-.37v-1s-.47-2.84,3.31-2.84l15.31.11v4a1.91,1.91,0,0,0,2.69,0l5.91-5.91a1.91,1.91,0,0,0,0-2.69l-5.92-6.26a1.91,1.91,0,0,0-2.69,0v4.24c-.37-.11-14.83-.17-14.83-.17-8.53,0-10.39,5.58-10.39,7.83v2.37a3.44,3.44,0,0,0,3.44,3.44Z"/><path id="Path_2397" data-name="Path 2397" class="cls-3" d="M46.69,128.42a3.29,3.29,0,0,0-3.45,3.11v2.33c-.1.82-1.48,1.36-3.5,1.36h-15v-3.58a1.91,1.91,0,0,0-2.69,0l-5.91,5.91a1.91,1.91,0,0,0,0,2.69L22,146.15a1.91,1.91,0,0,0,2.69,0h0V141.9h15c8.53,0,10.39-5.62,10.39-7.87v-2.37a3.29,3.29,0,0,0-3.31-3.25Z"/></g><path class="cls-4" d="M150.16,253.33a17.11,17.11,0,0,1,13.65,0,.35.35,0,0,0,.29.1,1,1,0,0,0,.66-.38.69.69,0,0,0-.38-1,18.36,18.36,0,0,0-7.39-1.52,16.71,16.71,0,0,0-7.4,1.52.78.78,0,0,0-.38,1A.77.77,0,0,0,150.16,253.33Z"/><path class="cls-4" d="M147.6,258.83a13.05,13.05,0,0,1,19,0,.69.69,0,0,0,.95,0,.75.75,0,0,0,0-1,14.43,14.43,0,0,0-20.86,0,.75.75,0,0,0,0,1A.63.63,0,0,0,147.6,258.83Z"/><path class="cls-4" d="M157,256.27a10.09,10.09,0,0,0-2.94.38.62.62,0,0,0-.48.85.63.63,0,0,0,.86.48,11.84,11.84,0,0,1,2.65-.38,10.7,10.7,0,0,1,10.71,10.71.72.72,0,0,0,.67.67.71.71,0,0,0,.66-.67A12.08,12.08,0,0,0,157,256.27Z"/><path class="cls-4" d="M146.37,268.31a10.77,10.77,0,0,1,3.12-7.49,10.42,10.42,0,0,1,2.28-1.7A.69.69,0,1,0,151,258a12.23,12.23,0,0,0-6.07,10.52.81.81,0,0,0,.67.76h0A1.1,1.1,0,0,0,146.37,268.31Z"/><path class="cls-4" d="M149.21,268.5a7.87,7.87,0,0,1,2.28-5.69,7.93,7.93,0,0,1,11.47.38.63.63,0,0,0,.95.1c.28-.29.38-.67.09-1a9.29,9.29,0,0,0-6.92-3.13,8.94,8.94,0,0,0-6.54,2.75,9.69,9.69,0,0,0-2.66,6.73,12.09,12.09,0,0,1-1.32,5.12l-.38.67a.65.65,0,0,0,.28.94c.1.1.19.1.38.1a.83.83,0,0,0,.66-.38l.38-.76A15.69,15.69,0,0,0,149.21,268.5Z"/><path class="cls-4" d="M166.75,273.91a23.11,23.11,0,0,1-.47-5.22v-.38a11.77,11.77,0,0,0-.48-3.13c-.09-.38-.47-.56-1-.47a.74.74,0,0,0-.47,1,8,8,0,0,1,.47,2.65v.38a27.15,27.15,0,0,0,.57,5.5l.76,2.66a.72.72,0,0,0,.67.47c.09,0,.09,0,.19-.09a.7.7,0,0,0,.47-.86Z"/><path class="cls-4" d="M164.85,277.7a36.35,36.35,0,0,1-1.42-9.39,6.35,6.35,0,0,0-6.35-6.35,6.45,6.45,0,0,0-6.35,6.54,16.1,16.1,0,0,1-3.13,9c-.19.38-.19.76.19.95s.76.19,1-.19a18.06,18.06,0,0,0,3.41-9.86,5,5,0,0,1,5-5,5.07,5.07,0,0,1,5,5,36.12,36.12,0,0,0,1.52,9.76l.66,2.09a.72.72,0,0,0,.66.47c.1,0,.1,0,.19-.09a.75.75,0,0,0,.48-.95Z"/><path class="cls-4" d="M160.59,268.31a3.61,3.61,0,0,0-7.21,0A19.76,19.76,0,0,1,149,280.07a.72.72,0,0,0,.1.95.7.7,0,0,0,.94-.1,20.94,20.94,0,0,0,4.65-12.61,2.09,2.09,0,0,1,4.17,0,25.94,25.94,0,0,1-5.5,15.17.71.71,0,0,0,.1.95.68.68,0,0,0,.47.19.81.81,0,0,0,.57-.28A26.49,26.49,0,0,0,160.59,268.31Z"/><path class="cls-4" d="M156.7,271.82h0c.47,0,.76-.19.76-.57a14,14,0,0,0,.19-2.94.71.71,0,0,0-1.42.1,11.36,11.36,0,0,1-.19,2.65A.67.67,0,0,0,156.7,271.82Z"/><path class="cls-4" d="M156.32,273.34a.67.67,0,0,0-.85.47,23.86,23.86,0,0,1-4.46,8.35.7.7,0,0,0,.1.94.68.68,0,0,0,.47.19.81.81,0,0,0,.57-.28,26.24,26.24,0,0,0,4.65-8.82A.72.72,0,0,0,156.32,273.34Z"/><path class="cls-4" d="M162.39,279.12c-.38-1-.66-2.08-.66-2.08a.72.72,0,0,0-.67-.48.71.71,0,0,0-.66.48,48.27,48.27,0,0,1-3.41,6.63.72.72,0,0,0,.18.95c.1.1.19.1.38.1a.59.59,0,0,0,.57-.38,39.32,39.32,0,0,0,2.75-5.12c.1.09.1.19.1.38l.85,2.65a.73.73,0,0,0,1,.47.72.72,0,0,0,.47-.94Z"/><path class="cls-5" d="M281.76,315.86h-.1a.7.7,0,0,1-.6-.8l6.64-43.9a.71.71,0,0,1,.7-.61h4.27a.72.72,0,0,1,.7.6l7,43.42a.71.71,0,1,1-1.4.23L292.06,272H289l-6.55,43.3A.7.7,0,0,1,281.76,315.86Z"/><path class="cls-5" d="M303.19,315.86H278.35a.71.71,0,0,1,0-1.42h24.84a.71.71,0,0,1,0,1.42Z"/><path class="cls-5" d="M281.76,315.86a.71.71,0,0,1-.41-1.29l8.25-5.77-6.16-4.35a.71.71,0,0,1-.3-.54.75.75,0,0,1,.24-.58l6.35-5.56-4.83-4.17a.74.74,0,0,1-.25-.53.72.72,0,0,1,.23-.53l4.67-4.37-3.33-2.92a.71.71,0,0,1,.47-1.24h7.59a.7.7,0,0,1,.66.45.68.68,0,0,1-.18.77l-3.1,2.91,5,4.39a.71.71,0,0,1,0,1.06l-4.75,4.17,6.45,5.57a.71.71,0,0,1,0,1.12l-6.22,4.35,7,4.92a.71.71,0,0,1-.82,1.16l-7.39-5.21-8.67,6.06A.69.69,0,0,1,281.76,315.86ZM285,303.81l5.85,4.12,5.89-4.12-5.92-5.11ZM286.43,293l4.38,3.78,4.29-3.76-4.48-3.94Zm2.14-7.61,2,1.77,1.89-1.77Z"/><path class="cls-5" d="M290.48,285.43a.71.71,0,0,1-.71-.71V261.49a.72.72,0,0,1,1.43,0v23.23A.71.71,0,0,1,290.48,285.43Z"/><circle class="cls-6" cx="290.39" cy="266.42" r="2.09"/><path class="cls-5" d="M290.39,269.21a2.8,2.8,0,1,1,2.8-2.79A2.8,2.8,0,0,1,290.39,269.21Zm0-4.17a1.38,1.38,0,1,0,1.38,1.38A1.38,1.38,0,0,0,290.39,265Z"/><path class="cls-7" d="M278.54,265.37a9.93,9.93,0,0,1,3.13-7.2l-1.14-1.23a11.34,11.34,0,0,0-3.6,8.43,11.9,11.9,0,0,0,3.6,8.44l1.14-1.23A9.93,9.93,0,0,1,278.54,265.37Z"/><path class="cls-7" d="M302.43,265.37a9.93,9.93,0,0,1-3.13,7.21l1.14,1.23a11.28,11.28,0,0,0,3.6-8.34,11.9,11.9,0,0,0-3.6-8.44l-1.14,1.23A9.57,9.57,0,0,1,302.43,265.37Z"/><path class="cls-7" d="M303.57,254.94l-1.14,1.14a12.81,12.81,0,0,1,4.08,9.29,12.48,12.48,0,0,1-4.08,9.3l1.14,1.23a14.34,14.34,0,0,0,0-21Z"/><path class="cls-7" d="M282.9,265.37a6.85,6.85,0,0,1,2.09-4.83l-1.14-1.23a8.24,8.24,0,0,0,0,12.13l1.14-1.23A6.86,6.86,0,0,1,282.9,265.37Z"/><path class="cls-7" d="M277.5,275.9l1.13-1.23a12.85,12.85,0,0,1-4.07-9.3,12.47,12.47,0,0,1,4.07-9.29l-1.13-1.23a14.54,14.54,0,0,0-4.56,10.43A14.29,14.29,0,0,0,277.5,275.9Z"/><path class="cls-7" d="M298.07,265.37a6.86,6.86,0,0,1-2.09,4.84l1.14,1.23a8.24,8.24,0,0,0,0-12.13L296,260.54A6.5,6.5,0,0,1,298.07,265.37Z"/><polygon class="cls-8" points="107.66 139.93 106.76 139.93 106.76 84.63 83.12 84.63 83.12 83.73 107.66 83.73 107.66 139.93"/><rect class="cls-8" x="115.76" y="172.74" width="0.9" height="30.25"/><circle class="cls-9" cx="116.21" cy="206.11" r="3.13"/><path class="cls-8" d="M116.21,209.7a3.59,3.59,0,1,1,3.59-3.59A3.59,3.59,0,0,1,116.21,209.7Zm0-6.26a2.68,2.68,0,1,0,2.68,2.67A2.68,2.68,0,0,0,116.21,203.44Z"/><rect class="cls-8" x="119.44" y="205.66" width="69.03" height="0.9"/><circle class="cls-9" cx="188.46" cy="206.11" r="3.13"/><path class="cls-8" d="M188.46,209.7a3.59,3.59,0,1,1,3.58-3.59A3.59,3.59,0,0,1,188.46,209.7Zm0-6.26a2.68,2.68,0,1,0,2.68,2.67A2.68,2.68,0,0,0,188.46,203.44Z"/><polygon class="cls-8" points="199.16 270.19 178.79 270.19 178.79 269.28 198.25 269.28 198.25 238.92 199.16 238.92 199.16 270.19"/><polygon class="cls-8" points="135.84 270.19 115.76 270.19 115.76 209.24 116.67 209.24 116.67 269.28 135.84 269.28 135.84 270.19"/><circle class="cls-9" cx="177.56" cy="269.74" r="3.13"/><path class="cls-8" d="M177.56,273.32a3.59,3.59,0,1,1,3.58-3.58A3.59,3.59,0,0,1,177.56,273.32Zm0-6.26a2.68,2.68,0,1,0,2.68,2.68A2.68,2.68,0,0,0,177.56,267.06Z"/><circle class="cls-9" cx="135.84" cy="269.74" r="3.13"/><path class="cls-8" d="M135.84,273.32a3.59,3.59,0,1,1,3.58-3.58A3.59,3.59,0,0,1,135.84,273.32Zm0-6.26a2.68,2.68,0,1,0,2.68,2.68A2.69,2.69,0,0,0,135.84,267.06Z"/><polygon class="cls-8" points="123.68 139.65 122.78 139.65 122.78 121.47 266.88 121.47 266.88 122.37 123.68 122.37 123.68 139.65"/><rect class="cls-8" x="207.83" y="107.6" width="0.9" height="57.08"/><circle class="cls-9" cx="83.12" cy="84.18" r="3.13"/><path class="cls-8" d="M83.12,87.76a3.58,3.58,0,1,1,3.58-3.58A3.58,3.58,0,0,1,83.12,87.76Zm0-6.25a2.68,2.68,0,1,0,2.68,2.67A2.68,2.68,0,0,0,83.12,81.51Z"/><line class="cls-9" x1="270.76" y1="135.48" x2="229.33" y2="174.73"/><rect class="cls-8" x="221.51" y="154.65" width="57.08" height="0.9" transform="translate(-38.14 214.49) rotate(-43.46)"/><circle class="cls-9" cx="227.24" cy="176.44" r="3.13"/><path class="cls-8" d="M227.24,180a3.58,3.58,0,1,1,3.58-3.58A3.59,3.59,0,0,1,227.24,180Zm0-6.26a2.68,2.68,0,1,0,2.68,2.68A2.68,2.68,0,0,0,227.24,173.76Z"/><circle class="cls-9" cx="270.26" cy="136.3" r="3.13"/><path class="cls-8" d="M270.26,139.88a3.58,3.58,0,1,1,3.58-3.58A3.58,3.58,0,0,1,270.26,139.88Zm0-6.26a2.68,2.68,0,1,0,2.67,2.68A2.68,2.68,0,0,0,270.26,133.62Z"/><line class="cls-9" x1="276.07" y1="284.34" x2="234.54" y2="323.5"/><rect class="cls-8" x="226.77" y="303.46" width="57.08" height="0.9" transform="translate(-138.93 257.87) rotate(-43.31)"/><circle class="cls-9" cx="236.63" cy="321.88" r="3.13"/><path class="cls-8" d="M236.63,325.46a3.58,3.58,0,1,1,3.58-3.58A3.58,3.58,0,0,1,236.63,325.46Zm0-6.25a2.68,2.68,0,1,0,2.68,2.67A2.68,2.68,0,0,0,236.63,319.21Z"/><circle class="cls-9" cx="273.61" cy="286.9" r="3.13"/><path class="cls-8" d="M273.61,290.48a3.58,3.58,0,1,1,3.58-3.58A3.58,3.58,0,0,1,273.61,290.48Zm0-6.26a2.68,2.68,0,1,0,2.67,2.68A2.68,2.68,0,0,0,273.61,284.22Z"/><rect class="cls-8" x="289.75" y="145.53" width="0.9" height="100.5"/><circle class="cls-9" cx="290.2" cy="142.4" r="3.13"/><path class="cls-8" d="M290.2,146a3.58,3.58,0,1,1,3.58-3.58A3.59,3.59,0,0,1,290.2,146Zm0-6.26a2.68,2.68,0,1,0,2.68,2.68A2.68,2.68,0,0,0,290.2,139.72Z"/><circle class="cls-9" cx="290.39" cy="246.03" r="3.13"/><path class="cls-8" d="M290.39,249.61A3.58,3.58,0,1,1,294,246,3.58,3.58,0,0,1,290.39,249.61Zm0-6.26a2.68,2.68,0,1,0,2.68,2.68A2.69,2.69,0,0,0,290.39,243.35Z"/><polygon class="cls-8" points="176.4 349.95 175.5 349.95 175.5 321.24 196.81 321.24 196.81 322.15 176.4 322.15 176.4 349.95"/><circle class="cls-9" cx="175.95" cy="349.95" r="3.13"/><path class="cls-8" d="M176,353.53a3.58,3.58,0,1,1,3.58-3.58A3.58,3.58,0,0,1,176,353.53Zm0-6.26a2.68,2.68,0,1,0,2.68,2.68A2.68,2.68,0,0,0,176,347.27Z"/><circle class="cls-9" cx="215.68" cy="237.78" r="3.13"/><path class="cls-8" d="M215.68,241.36a3.58,3.58,0,1,1,3.58-3.58A3.58,3.58,0,0,1,215.68,241.36Zm0-6.25a2.68,2.68,0,1,0,2.67,2.67A2.68,2.68,0,0,0,215.68,235.11Z"/><circle class="cls-9" cx="198.7" cy="237.78" r="3.13"/><path class="cls-8" d="M198.7,241.36a3.58,3.58,0,1,1,3.58-3.58A3.58,3.58,0,0,1,198.7,241.36Zm0-6.25a2.68,2.68,0,1,0,2.68,2.67A2.68,2.68,0,0,0,198.7,235.11Z"/><polygon class="cls-8" points="305.16 192.94 304.25 192.94 304.25 164.7 328.13 164.7 328.13 165.61 305.16 165.61 305.16 192.94"/><circle class="cls-9" cx="328.13" cy="165.15" r="3.13"/><path class="cls-8" d="M328.13,168.74a3.59,3.59,0,1,1,3.58-3.59A3.58,3.58,0,0,1,328.13,168.74Zm0-6.26a2.68,2.68,0,1,0,2.67,2.67A2.68,2.68,0,0,0,328.13,162.48Z"/><circle class="cls-9" cx="208" cy="121.92" r="3.13"/><path class="cls-8" d="M208,125.5a3.58,3.58,0,1,1,3.58-3.58A3.58,3.58,0,0,1,208,125.5Zm0-6.26a2.68,2.68,0,1,0,2.67,2.68A2.68,2.68,0,0,0,208,119.24Z"/><circle class="cls-9" cx="270.19" cy="121.92" r="3.13"/><path class="cls-8" d="M270.19,125.5a3.58,3.58,0,1,1,3.58-3.58A3.59,3.59,0,0,1,270.19,125.5Zm0-6.26a2.68,2.68,0,1,0,2.68,2.68A2.68,2.68,0,0,0,270.19,119.24Z"/><circle class="cls-9" cx="123.23" cy="122.68" r="3.13"/><path class="cls-8" d="M123.23,126.26a3.58,3.58,0,1,1,3.58-3.58A3.59,3.59,0,0,1,123.23,126.26Zm0-6.26a2.68,2.68,0,1,0,2.68,2.68A2.68,2.68,0,0,0,123.23,120Z"/><circle class="cls-9" cx="116.21" cy="269.74" r="3.13"/><path class="cls-8" d="M116.21,273.32a3.59,3.59,0,1,1,3.59-3.58A3.59,3.59,0,0,1,116.21,273.32Zm0-6.26a2.68,2.68,0,1,0,2.68,2.68A2.68,2.68,0,0,0,116.21,267.06Z"/><circle class="cls-9" cx="175.95" cy="321.88" r="3.13"/><path class="cls-8" d="M176,325.46a3.58,3.58,0,1,1,3.58-3.58A3.58,3.58,0,0,1,176,325.46Zm0-6.25a2.68,2.68,0,1,0,2.68,2.67A2.68,2.68,0,0,0,176,319.21Z"/><circle class="cls-9" cx="208.28" cy="104.85" r="3.13"/><path class="cls-8" d="M208.28,108.43a3.58,3.58,0,1,1,3.58-3.58A3.58,3.58,0,0,1,208.28,108.43Zm0-6.26a2.68,2.68,0,1,0,2.68,2.68A2.69,2.69,0,0,0,208.28,102.17Z"/><circle class="cls-9" cx="208.28" cy="167.43" r="3.13"/><path class="cls-8" d="M208.28,171a3.58,3.58,0,1,1,3.58-3.58A3.59,3.59,0,0,1,208.28,171Zm0-6.26a2.68,2.68,0,1,0,2.68,2.68A2.68,2.68,0,0,0,208.28,164.75Z"/><rect class="cls-8" x="215.22" y="240.91" width="0.9" height="42.86"/><polygon class="cls-8" points="196.81 304.42 115.76 304.42 115.76 272.86 116.67 272.86 116.67 303.51 196.81 303.51 196.81 304.42"/><circle class="cls-9" cx="215.68" cy="282.82" r="3.13"/><path class="cls-8" d="M215.68,286.4a3.58,3.58,0,1,1,3.58-3.58A3.59,3.59,0,0,1,215.68,286.4Zm0-6.26a2.68,2.68,0,1,0,2.67,2.68A2.68,2.68,0,0,0,215.68,280.14Z"/><circle class="cls-9" cx="194.63" cy="303.96" r="3.13"/><path class="cls-8" d="M194.63,307.54a3.58,3.58,0,1,1,3.58-3.58A3.58,3.58,0,0,1,194.63,307.54Zm0-6.25A2.68,2.68,0,1,0,197.3,304,2.68,2.68,0,0,0,194.63,301.29Z"/><circle class="cls-9" cx="194.63" cy="321.69" r="3.13"/><path class="cls-8" d="M194.63,325.27a3.58,3.58,0,1,1,3.58-3.58A3.58,3.58,0,0,1,194.63,325.27Zm0-6.25a2.68,2.68,0,1,0,2.67,2.67A2.68,2.68,0,0,0,194.63,319Z"/><rect class="cls-10" x="286.22" y="199.19" width="5.59" height="25.41"/><path class="cls-11" d="M284.32,203.55a5.8,5.8,0,0,0-5.78,5.79,5.74,5.74,0,0,0,5.78,5.78h32.33a5.81,5.81,0,0,0,5.79-5.78,5.75,5.75,0,0,0-5.79-5.79Z"/><circle class="cls-10" cx="284.32" cy="209.24" r="1.61"/><circle class="cls-10" cx="290.58" cy="209.24" r="1.61"/><circle class="cls-10" cx="296.84" cy="209.24" r="1.61"/><path class="cls-11" d="M284.32,217.11a5.79,5.79,0,0,0,0,11.57h32.33a5.79,5.79,0,1,0,0-11.57Z"/><circle class="cls-10" cx="284.32" cy="222.9" r="1.61"/><circle class="cls-10" cx="290.58" cy="222.9" r="1.61"/><circle class="cls-10" cx="296.84" cy="222.9" r="1.61"/><path class="cls-11" d="M284.32,189.9a5.79,5.79,0,0,0,0,11.57h32.33a5.81,5.81,0,0,0,5.79-5.79,5.75,5.75,0,0,0-5.79-5.78Z"/><circle class="cls-10" cx="284.32" cy="195.68" r="1.61"/><circle class="cls-10" cx="290.58" cy="195.68" r="1.61"/><circle class="cls-10" cx="296.84" cy="195.68" r="1.61"/><path class="cls-11" d="M100.1,135.76a5.79,5.79,0,1,0,0,11.57h32.42a5.79,5.79,0,1,0,0-11.57Z"/><circle class="cls-10" cx="100.1" cy="141.45" r="1.61"/><circle class="cls-10" cx="106.35" cy="141.45" r="1.61"/><circle class="cls-10" cx="112.61" cy="141.45" r="1.61"/><path class="cls-11" d="M100.1,149.32a5.81,5.81,0,0,0-5.79,5.78,5.75,5.75,0,0,0,5.79,5.79h32.42a5.81,5.81,0,0,0,5.79-5.79,5.75,5.75,0,0,0-5.79-5.78Z"/><circle class="cls-10" cx="100.1" cy="155.1" r="1.61"/><circle class="cls-10" cx="106.35" cy="155.1" r="1.61"/><circle class="cls-10" cx="112.61" cy="155.1" r="1.61"/><path class="cls-11" d="M100.1,162.88a5.81,5.81,0,0,0-5.79,5.78,5.75,5.75,0,0,0,5.79,5.79h32.42a5.81,5.81,0,0,0,5.79-5.79,5.75,5.75,0,0,0-5.79-5.78Z"/><circle class="cls-10" cx="100.1" cy="168.66" r="1.61"/><circle class="cls-10" cx="106.35" cy="168.66" r="1.61"/><circle class="cls-10" cx="112.61" cy="168.66" r="1.61"/><path d="M223.83,336.11H207a3.65,3.65,0,0,1-3.7-3.7v-38.5a3.65,3.65,0,0,1,3.7-3.69h16.88a3.64,3.64,0,0,1,3.7,3.69v38.5A3.77,3.77,0,0,1,223.83,336.11Z"/><rect class="cls-7" x="205.91" y="294.1" width="18.87" height="36.6"/><circle class="cls-12" cx="215.3" cy="333.26" r="1.14"/><rect class="cls-12" x="212.64" y="291.92" width="5.4" height="0.47"/><path class="cls-10" d="M213.59,315.82a.91.91,0,0,1-.68-.3l-2.19-2.27a.95.95,0,1,1,1.37-1.31l1.56,1.62,5.67-5a.95.95,0,0,1,1.25,1.42l-6.35,5.6A1,1,0,0,1,213.59,315.82Z"/><path class="cls-13" d="M223.83,94.9c.09.19.09.28-.1.28H195.67c-.19,0-.28-.09-.1-.28L198.8,91a.68.68,0,0,1,.57-.29s4.36.29,10.33.29S220,90.72,220,90.72a.69.69,0,0,1,.57.29Z"/><rect class="cls-13" x="205.1" y="70.25" width="14.98" height="12.42" transform="translate(86.53 263.94) rotate(-75.87)"/><path class="cls-14" d="M216.43,87.79,204,84.66a1.36,1.36,0,0,1-.94-1.52h0a1.36,1.36,0,0,1,1.51-1L217,85.32a1.35,1.35,0,0,1,.95,1.52h0A1.21,1.21,0,0,1,216.43,87.79Z"/><path class="cls-14" d="M220.7,70.81l-12.42-3.13a1.36,1.36,0,0,1-.95-1.51h0a1.36,1.36,0,0,1,1.52-1l12.42,3.13a1.37,1.37,0,0,1,.95,1.52h0A1.28,1.28,0,0,1,220.7,70.81Z"/><rect class="cls-14" x="213.31" y="66.51" width="0.47" height="12.42" transform="translate(90.88 262.04) rotate(-75.87)"/><rect class="cls-14" x="211.5" y="73.92" width="0.47" height="12.42" transform="translate(82.33 265.89) rotate(-75.87)"/><rect class="cls-13" x="209.07" y="70.27" width="7.21" height="12.42" transform="translate(86.57 264.04) rotate(-75.87)"/><path class="cls-15" d="M219.09,80.2l-.85-.19.94-3.89.86.19a.55.55,0,0,1,.38.67l-.67,2.84A.54.54,0,0,1,219.09,80.2Z"/><path class="cls-14" d="M243.17,82.38l-21.33-5,.09-.48a.69.69,0,0,0-1.32-.38l-.86,3.42a.69.69,0,0,0,.48.85.68.68,0,0,0,.85-.48l.09-.56,21.15,5.68a1.63,1.63,0,0,0,2-1.23C244.59,83.52,244,82.67,243.17,82.38Z"/><rect class="cls-16" x="280.67" y="103.9" width="20.01" height="31.29" rx="1.34"/><path class="cls-17" d="M290.67,106a1.47,1.47,0,1,0,1.47,1.47A1.46,1.46,0,0,0,290.67,106Zm.87,1.43a1.14,1.14,0,0,0-.12-.53,2.06,2.06,0,0,1,.58.53Zm-.08,0h-.75v-.75a1.45,1.45,0,0,1,.6.16A1.23,1.23,0,0,1,291.46,107.44Zm-.75-.83v-.48a2.43,2.43,0,0,1,.53.6A1.06,1.06,0,0,0,290.71,106.61Zm-.07,0a1.61,1.61,0,0,0-.56.12,2.33,2.33,0,0,1,.56-.63Zm0,.08v.75h-.77a1.13,1.13,0,0,1,.16-.58A1.08,1.08,0,0,1,290.64,106.69Zm-.85.75h-.46a2.41,2.41,0,0,1,.58-.53A1.08,1.08,0,0,0,289.79,107.44Zm0,.07a1.47,1.47,0,0,0,.12.55,2.07,2.07,0,0,1-.6-.55Zm.08,0h.77v.77a1.45,1.45,0,0,1-.6-.16A1.08,1.08,0,0,1,289.87,107.51Zm.77.85v.46a2.06,2.06,0,0,1-.53-.58A1.06,1.06,0,0,0,290.64,108.36Zm.07,0a1.32,1.32,0,0,0,.51-.1,2.24,2.24,0,0,1-.51.56Zm0-.08v-.77h.75a1.3,1.3,0,0,1-.17.61A1.08,1.08,0,0,1,290.71,108.28Zm.83-.77H292a2.07,2.07,0,0,1-.61.55A1.31,1.31,0,0,0,291.54,107.51Zm.52-.15a2.3,2.3,0,0,0-.69-.58,2,2,0,0,0-.56-.68A1.38,1.38,0,0,1,292.06,107.36Zm-1.54-1.26a2,2,0,0,0-.56.69,2.26,2.26,0,0,0-.67.55A1.38,1.38,0,0,1,290.52,106.1Zm-1.23,1.53a2.27,2.27,0,0,0,.69.56,2.15,2.15,0,0,0,.56.67A1.4,1.4,0,0,1,289.29,107.63Zm1.5,1.23a2.06,2.06,0,0,0,.57-.67,2.09,2.09,0,0,0,.7-.58A1.39,1.39,0,0,1,290.79,108.86Z"/><path class="cls-17" d="M290.67,105.74a1.74,1.74,0,1,0,1.74,1.74A1.75,1.75,0,0,0,290.67,105.74Zm0,3.41a1.67,1.67,0,1,1,1.68-1.67A1.67,1.67,0,0,1,290.67,109.15Z"/><rect class="cls-18" x="287.07" y="109.71" width="7.21" height="0.31"/><rect class="cls-18" x="285.73" y="110.4" width="9.9" height="0.31"/><rect class="cls-19" x="281.91" y="112.98" width="8.73" height="0.74"/><rect class="cls-19" x="281.91" y="114.08" width="7.42" height="0.74"/><rect class="cls-18" x="281.91" y="123.97" width="6.29" height="0.5"/><rect class="cls-18" x="281.91" y="125.54" width="4.17" height="0.5"/><rect class="cls-18" x="281.91" y="127.1" width="5.34" height="0.5"/><rect class="cls-20" x="289.21" y="123.97" width="6.26" height="0.5"/><rect class="cls-20" x="289.21" y="125.54" width="9.16" height="0.5"/><rect class="cls-20" x="289.21" y="127.1" width="9.16" height="0.5"/><path class="cls-21" d="M292.74,130.13a.68.68,0,0,0-.68.57c-.06.19.25.28.31.08s.42-.48.59-.27,0,.6,0,.75a1.47,1.47,0,0,1-.87.82c-.19.07-.11.38.08.31a1.71,1.71,0,0,0,1.18-1.82C293.24,130.23,293.08,130.12,292.74,130.13Z"/><path class="cls-21" d="M294.19,130.69c0-.2-.31-.2-.32,0a1,1,0,0,1,0,.3c0,.06-.07.25-.13.26s-.05-.44,0-.51-.3-.21-.32,0-.1.86.36.84S294.18,131,294.19,130.69Z"/><path class="cls-21" d="M294.53,131.31a2.17,2.17,0,0,1,.16-.56,1.67,1.67,0,0,1,.08.2.16.16,0,0,0,.26.07l.24-.24c.16.11.31-.06.5-.19a1.22,1.22,0,0,1,.27.37c.09.18.37,0,.27-.16s-.25-.47-.45-.54-.49.16-.46.21a.16.16,0,0,0-.25,0l-.17.18a.6.6,0,0,0-.16-.22.17.17,0,0,0-.2,0,.57.57,0,0,0-.11.11.16.16,0,0,0-.32,0l0,.79C294.23,131.44,294.49,131.49,294.53,131.31Z"/><path class="cls-21" d="M295.89,130a5.09,5.09,0,0,1-.24-.95c0-.2-.34-.11-.31.09a5,5,0,0,0,.25.94C295.66,130.24,296,130.16,295.89,130Z"/><path class="cls-21" d="M297.91,131c-1.32.33-2.65.66-4,1a.16.16,0,0,0,.09.3c1.32-.34,2.64-.68,4-1C298.2,131.21,298.11,130.91,297.91,131Z"/><path class="cls-22" d="M300.2,134.77H281.15V104.33H300.2Zm-19-.1h18.87V104.43H281.24Z"/><rect class="cls-10" x="291.92" y="113.92" width="6.59" height="7.96"/><path class="cls-19" d="M292.78,121.18a5,5,0,0,0-.54.53,5.93,5.93,0,0,0,4,1c1.84-.23,2-.83,2-.83-.23-.2-.81-.62-.81-.62"/><path class="cls-18" d="M292.78,121.18a3.47,3.47,0,0,1,.82-.48c.48-.19.39-.41.5-1.4a3,3,0,0,1-.52-1,.91.91,0,0,1-.49-.87c0-.69.25-.57.25-.57a2.07,2.07,0,0,1,.76-1.85c.95-.8,2.48,0,2.79.55a1.94,1.94,0,0,1,.26,1.56c-.14.5.13,1-.29,1.81s-.65.93-1,1.08v.42a.38.38,0,0,0,.22.25c.18.06,1.32.57,1.32.57a11.14,11.14,0,0,1-2.4.31,5,5,0,0,1-2.21-.37"/><path class="cls-23" d="M293.34,116.85s.41.1.5.74h.06v-.66Z"/><path class="cls-24" d="M296.09,114.94c0,.2-.19,1.8,1.05,2.21a1.91,1.91,0,0,0-.25-1.6A1.94,1.94,0,0,0,296.09,114.94Z"/><path class="cls-23" d="M293.34,116.85a2.07,2.07,0,0,1,.76-1.85c.94-.8,2.47,0,2.79.55a2.31,2.31,0,0,1-1.05,1.3,4,4,0,0,1-2.5,0"/><path class="cls-25" d="M197.94,220.4a32.61,32.61,0,0,0-3.28,3.19c2.71,2.35,12.81,7.28,24,6s12-5,12-5c-1.35-1.26-4.87-3.75-4.87-3.75"/><path class="cls-26" d="M197.94,220.4a21.2,21.2,0,0,1,5-2.88c2.86-1.15,2.32-2.47,3-8.48,0,0-3-4-3.16-6.14,0,0-2.8-1-2.95-5.23s1.51-3.49,1.51-3.49a12.54,12.54,0,0,1,4.6-11.19c5.74-4.84,15,.06,16.9,3.34s2.47,6.35,1.59,9.41.79,6.08-1.77,11-3.94,5.59-6.2,6.5l.09,2.58a2.13,2.13,0,0,0,1.3,1.48c1.08.39,8,3.49,8,3.49-2.53,0-5.11,1.83-14.5,1.83s-13.41-2.23-13.41-2.23"/><path class="cls-14" d="M216.49,215.83c-6-1.5-7.91-5.47-7.91-5.47,2.68,3,7.85,2.86,7.85,2.86Z"/><path class="cls-23" d="M201.31,194.18s2.52.63,3.06,4.48h.37l-.06-4Z"/><path class="cls-27" d="M217.79,217.31a77.5,77.5,0,0,1,8,3.49s-5.11,1.83-14.5,1.83-13.38-2.26-13.38-2.26a21.2,21.2,0,0,1,5-2.88s6.2,5.29,12.48,5,2.41-5.2,2.41-5.2"/><g class="cls-28"><polygon class="cls-26" points="218.11 207.38 224.13 201.36 224.13 207.38 218.11 207.38"/><polygon class="cls-26" points="217.64 207.38 224.13 200.89 224.13 201.36 218.11 207.38 217.64 207.38"/><polygon class="cls-29" points="217.44 207.38 217.31 207.25 224.13 200.42 224.13 200.89 217.64 207.38 217.44 207.38"/><polygon class="cls-30" points="217.31 207.25 217.07 207.01 224.13 199.95 224.13 200.42 217.31 207.25"/><polygon class="cls-31" points="217.07 207.01 216.84 206.78 224.13 199.48 224.13 199.95 217.07 207.01"/><polygon class="cls-32" points="216.84 206.78 216.82 206.76 216.82 206.32 224.13 199.02 224.13 199.48 216.84 206.78"/><polygon class="cls-33" points="216.82 205.86 224.13 198.55 224.13 199.02 216.82 206.32 216.82 205.86"/><polygon class="cls-33" points="216.82 205.65 224.05 198.42 224.13 198.5 224.13 198.55 216.82 205.86 216.82 205.65"/><polygon class="cls-34" points="216.82 205.44 223.95 198.31 224.05 198.42 216.82 205.65 216.82 205.44"/><polygon class="cls-35" points="216.82 205.23 223.76 198.3 223.94 198.3 223.95 198.31 216.82 205.44 216.82 205.23"/><polygon class="cls-36" points="216.82 205.02 223.55 198.3 223.76 198.3 216.82 205.23 216.82 205.02"/><polygon class="cls-37" points="216.82 204.81 223.34 198.3 223.55 198.3 216.82 205.02 216.82 204.81"/><polygon class="cls-38" points="216.82 204.6 223.13 198.3 223.34 198.3 216.82 204.81 216.82 204.6"/><polygon class="cls-39" points="216.82 204.39 222.92 198.3 223.13 198.3 216.82 204.6 216.82 204.39"/><polygon class="cls-40" points="216.82 204.19 222.71 198.3 222.92 198.3 216.82 204.39 216.82 204.19"/><polygon class="cls-41" points="216.82 203.98 222.5 198.3 222.71 198.3 216.82 204.19 216.82 203.98"/><polygon class="cls-42" points="216.82 203.77 222.29 198.3 222.5 198.3 216.82 203.98 216.82 203.77"/><polygon class="cls-43" points="216.82 203.56 222.08 198.3 222.29 198.3 216.82 203.77 216.82 203.56"/><polygon class="cls-44" points="216.82 203.35 221.88 198.3 222.08 198.3 216.82 203.56 216.82 203.35"/><polygon class="cls-45" points="216.82 203.14 221.67 198.3 221.88 198.3 216.82 203.35 216.82 203.14"/><polygon class="cls-46" points="216.82 202.93 221.46 198.3 221.67 198.3 216.82 203.14 216.82 202.93"/><polygon class="cls-47" points="216.82 202.72 221.25 198.3 221.46 198.3 216.82 202.93 216.82 202.72"/><polygon class="cls-48" points="216.82 202.51 221.04 198.3 221.25 198.3 216.82 202.72 216.82 202.51"/><polygon class="cls-49" points="216.82 202.3 220.83 198.3 221.04 198.3 216.82 202.51 216.82 202.3"/><polygon class="cls-50" points="216.82 202.09 220.62 198.3 220.83 198.3 216.82 202.3 216.82 202.09"/><polygon class="cls-50" points="216.82 201.93 220.46 198.3 220.62 198.3 216.82 202.09 216.82 201.93"/><polygon class="cls-51" points="216.82 201.76 220.29 198.3 220.46 198.3 216.82 201.93 216.82 201.76"/><polygon class="cls-52" points="216.82 201.6 220.12 198.3 220.29 198.3 216.82 201.76 216.82 201.6"/><polygon class="cls-53" points="216.82 201.43 219.96 198.3 220.12 198.3 216.82 201.6 216.82 201.43"/><polygon class="cls-54" points="216.82 201.26 219.79 198.3 219.96 198.3 216.82 201.43 216.82 201.26"/><polygon class="cls-55" points="216.82 201.1 219.63 198.3 219.79 198.3 216.82 201.26 216.82 201.1"/><polygon class="cls-56" points="216.82 200.93 219.46 198.3 219.63 198.3 216.82 201.1 216.82 200.93"/><polygon class="cls-57" points="216.82 200.77 219.29 198.3 219.46 198.3 216.82 200.93 216.82 200.77"/><polygon class="cls-58" points="216.82 200.6 219.13 198.3 219.29 198.3 216.82 200.77 216.82 200.6"/><polygon class="cls-59" points="216.82 200.44 218.96 198.3 219.13 198.3 216.82 200.6 216.82 200.44"/><polygon class="cls-14" points="216.82 200.27 218.79 198.3 218.96 198.3 216.82 200.44 216.82 200.27"/><polygon class="cls-14" points="218.79 198.3 216.82 200.27 216.82 198.3 218.79 198.3"/></g><g class="cls-60"><polygon class="cls-26" points="209.69 202.84 215.17 200.85 215.17 202.84 209.69 202.84"/><polygon class="cls-26" points="208.62 202.84 215.17 200.46 215.17 200.85 209.69 202.84 208.62 202.84"/><polygon class="cls-29" points="207.56 202.84 215.17 200.07 215.17 200.46 208.62 202.84 207.56 202.84 207.56 202.84"/><polygon class="cls-61" points="207.56 202.45 215.17 199.68 215.17 200.07 207.56 202.84 207.56 202.45"/><polygon class="cls-31" points="207.56 202.06 215.17 199.29 215.17 199.68 207.56 202.45 207.56 202.06"/><polygon class="cls-31" points="207.56 201.93 215.17 199.16 215.17 199.29 207.56 202.06 207.56 201.93"/><polygon class="cls-62" points="207.56 201.81 215.17 199.04 215.17 199.16 207.56 201.93 207.56 201.81"/><polygon class="cls-33" points="207.56 201.69 215.17 198.92 215.17 199.04 207.56 201.81 207.56 201.69"/><polygon class="cls-63" points="207.56 201.56 215.17 198.79 215.17 198.92 207.56 201.69 207.56 201.56"/><polygon class="cls-64" points="207.56 201.44 215.17 198.67 215.17 198.79 207.56 201.56 207.56 201.44"/><polygon class="cls-36" points="207.56 201.31 215.16 198.55 215.17 198.56 215.17 198.67 207.56 201.44 207.56 201.31"/><polygon class="cls-65" points="207.56 201.19 215.13 198.44 215.16 198.55 207.56 201.31 207.56 201.19"/><polygon class="cls-66" points="207.56 201.06 215.09 198.33 215.13 198.44 207.56 201.19 207.56 201.06"/><polygon class="cls-40" points="207.56 200.94 214.82 198.3 215.08 198.3 215.09 198.33 207.56 201.06 207.56 200.94"/><polygon class="cls-67" points="207.56 200.82 214.48 198.3 214.82 198.3 207.56 200.94 207.56 200.82"/><polygon class="cls-68" points="207.56 200.69 214.14 198.3 214.48 198.3 207.56 200.82 207.56 200.69"/><polygon class="cls-69" points="207.56 200.57 213.8 198.3 214.14 198.3 207.56 200.69 207.56 200.57"/><polygon class="cls-69" points="207.56 200.49 213.59 198.3 213.8 198.3 207.56 200.57 207.56 200.49"/><polygon class="cls-70" points="207.56 200.42 213.39 198.3 213.59 198.3 207.56 200.49 207.56 200.42"/><polygon class="cls-71" points="207.56 200.34 213.18 198.3 213.39 198.3 207.56 200.42 207.56 200.34"/><polygon class="cls-72" points="207.56 200.27 212.98 198.3 213.18 198.3 207.56 200.34 207.56 200.27"/><polygon class="cls-46" points="207.56 200.19 212.77 198.3 212.98 198.3 207.56 200.27 207.56 200.19"/><polygon class="cls-73" points="207.56 200.12 212.56 198.3 212.77 198.3 207.56 200.19 207.56 200.12"/><polygon class="cls-74" points="207.56 200.04 212.36 198.3 212.56 198.3 207.56 200.12 207.56 200.04"/><polygon class="cls-75" points="207.56 199.97 212.16 198.3 212.36 198.3 207.56 200.04 207.56 199.97"/><polygon class="cls-76" points="207.56 199.9 211.95 198.3 212.16 198.3 207.56 199.97 207.56 199.9"/><polygon class="cls-51" points="207.56 199.82 211.74 198.3 211.95 198.3 207.56 199.9 207.56 199.82"/><polygon class="cls-77" points="207.56 199.75 211.54 198.3 211.74 198.3 207.56 199.82 207.56 199.75"/><polygon class="cls-78" points="207.56 199.67 211.33 198.3 211.54 198.3 207.56 199.75 207.56 199.67"/><polygon class="cls-55" points="207.56 199.6 211.13 198.3 211.33 198.3 207.56 199.67 207.56 199.6"/><polygon class="cls-79" points="207.56 199.52 210.92 198.3 211.13 198.3 207.56 199.6 207.56 199.52"/><polygon class="cls-80" points="207.56 199.45 210.72 198.3 210.92 198.3 207.56 199.52 207.56 199.45"/><polygon class="cls-57" points="207.56 199.37 210.51 198.3 210.72 198.3 207.56 199.45 207.56 199.37"/><polygon class="cls-58" points="207.56 199.3 210.31 198.3 210.51 198.3 207.56 199.37 207.56 199.3"/><polygon class="cls-59" points="207.56 199.22 210.1 198.3 210.31 198.3 207.56 199.3 207.56 199.22"/><polygon class="cls-14" points="207.56 199.15 209.9 198.3 210.1 198.3 207.56 199.22 207.56 199.15"/><polygon class="cls-14" points="209.9 198.3 207.56 199.15 207.56 198.3 209.9 198.3"/></g><path class="cls-24" d="M218,182.64c-.17,1.18-1.16,10.88,6.4,13.39,1-3.16.4-6.33-1.54-9.74C222.09,185,220.28,183.79,218,182.64Z"/><path class="cls-23" d="M201.31,194.18a12.54,12.54,0,0,1,4.6-11.19c5.74-4.84,15,.06,16.9,3.34a14,14,0,0,1-6.32,7.85c-5.08,3-15.18,0-15.18,0"/><rect class="cls-81" x="11.46" y="260.73" width="65.61" height="13.12"/><path class="cls-82" d="M16.35,269.43l.91-1.68L15.58,267l.46-1.22,1.83.46.15-1.83h1.22l.16,2,1.83-.45.46,1.22L20,267.9l.91,1.68-1.06.76L18.63,269l-1.37,1.37Z"/><path class="cls-82" d="M23.67,269.43l.92-1.68L22.91,267l.45-1.22,1.84.46.15-1.83h1.22l.15,2,1.83-.45.46,1.22-1.68.76.92,1.68-1.07.76L26,269l-1.37,1.37Z"/><path class="cls-82" d="M31,269.43l.92-1.68L30.23,267l.46-1.22,1.83.46.15-1.83h1.22l.16,2,1.83-.45.45,1.22-1.67.76.91,1.68-1.07.76L33.28,269l-1.37,1.37Z"/><path class="cls-82" d="M38.47,269.43l.92-1.68L37.71,267l.46-1.22,1.83.46.15-1.83h1.22l.15,2,1.83-.45.46,1.22-1.68.76.92,1.68-1.07.76L40.76,269l-1.37,1.37Z"/><path class="cls-82" d="M45.8,269.43l.91-1.68L45,267l.46-1.22,1.83.46.15-1.83h1.22l.16,2,1.83-.45.46,1.22-1.68.76.91,1.68-1.06.76L48.08,269l-1.37,1.37Z"/><path class="cls-82" d="M53.12,269.43l.92-1.68L52.36,267l.45-1.22,1.84.46.15-1.83H56l.15,2,1.83-.45.46,1.22-1.68.76.92,1.68-1.07.76L55.41,269,54,270.34Z"/><circle class="cls-82" cx="69.29" cy="273.85" r="4.27"/><path class="cls-83" d="M69.29,275.83h0A2.33,2.33,0,0,1,67,273.55v-4.73a2.33,2.33,0,0,1,2.28-2.29h0a2.34,2.34,0,0,1,2.29,2.29v4.73A2.33,2.33,0,0,1,69.29,275.83Z"/><circle class="cls-10" cx="69.29" cy="273.85" r="0.92"/><rect class="cls-10" x="68.84" y="274" width="0.76" height="2.29"/><path class="cls-84" d="M14.06,255.08a2.67,2.67,0,0,1-2.6-2.59V215.56a2.67,2.67,0,0,1,2.6-2.59H74.48a2.67,2.67,0,0,1,2.6,2.59v36.93a2.67,2.67,0,0,1-2.6,2.59Z"/><g class="cls-85"><g class="cls-86"><circle class="cls-87" cx="81.04" cy="232.65" r="16.78"/><line class="cls-87" x1="81.04" y1="215.87" x2="81.04" y2="249.59"/><path class="cls-87" d="M80.74,215.87c-12.82,9.76-12.82,23.95,0,33.57"/><path class="cls-87" d="M81.2,215.87c12.81,9.76,12.81,23.95,0,33.57"/><path class="cls-87" d="M64.11,233c9.76,12.81,24,12.81,33.57,0"/><path class="cls-87" d="M64.11,232.5c9.76-12.82,24-12.82,33.57,0"/><line class="cls-87" x1="64.26" y1="232.65" x2="97.83" y2="232.65"/></g></g><path class="cls-88" d="M69.45,227.77v9.92A2.41,2.41,0,0,1,67,240.13H58.46A2.41,2.41,0,0,1,56,237.69v-9.92a2.41,2.41,0,0,1,2.44-2.44H67A2.5,2.5,0,0,1,69.45,227.77Z"/><path class="cls-89" d="M65.94,225.48v4.27A1.2,1.2,0,0,1,64.72,231H60.44a1.2,1.2,0,0,1-1.22-1.22v-4.27"/><path class="cls-89" d="M59.38,240.28V236a1.2,1.2,0,0,1,1.22-1.22h4.27A1.2,1.2,0,0,1,66.09,236v4.27"/><line class="cls-89" x1="60.75" y1="234.79" x2="60.75" y2="230.97"/><line class="cls-89" x1="64.56" y1="230.97" x2="64.56" y2="234.79"/><line class="cls-89" x1="62.73" y1="240.28" x2="62.73" y2="234.79"/><line class="cls-89" x1="62.73" y1="230.97" x2="62.73" y2="225.48"/><line class="cls-89" x1="59.38" y1="236.62" x2="56.17" y2="236.62"/><line class="cls-89" x1="69.45" y1="236.62" x2="65.94" y2="236.62"/><line class="cls-89" x1="65.94" y1="229.14" x2="69.45" y2="229.14"/><line class="cls-89" x1="56.17" y1="229.14" x2="59.38" y2="229.14"/><rect class="cls-27" x="14.67" y="225.48" width="31.28" height="2.9"/><rect class="cls-27" x="14.67" y="235.55" width="0.76" height="4.27"/><rect class="cls-27" x="16.04" y="235.55" width="2.44" height="4.27"/><rect class="cls-27" x="18.79" y="235.55" width="3.97" height="4.27"/><rect class="cls-27" x="23.21" y="235.55" width="1.83" height="4.27"/><rect class="cls-27" x="25.65" y="235.55" width="0.92" height="4.27"/><rect class="cls-27" x="27.03" y="235.55" width="5.04" height="4.27"/><rect class="cls-27" x="32.37" y="235.55" width="3.2" height="4.27"/><rect class="cls-27" x="36.03" y="235.55" width="0.61" height="4.27"/><rect class="cls-90" x="11.62" y="248.06" width="65.46" height="1.22"/><path class="cls-91" d="M15.89,220.14a.93.93,0,0,1-.61-.15c-.16-.16-.31-.16-.46-.31l.3-.3.31.3c.15,0,.31.15.46.15a.58.58,0,0,0,.46-.15c.15-.15.15-.15.15-.3s0-.16-.15-.31a.57.57,0,0,0-.31-.15h-.3a.8.8,0,0,1-.62-.31.55.55,0,0,1-.15-.45v-.31c0-.15.15-.15.15-.31.16,0,.16-.15.31-.15h.46a.58.58,0,0,1,.46.15.33.33,0,0,1,.3.31l-.3.31c0-.16-.16-.16-.31-.16s-.15-.15-.3-.15-.31,0-.31.15-.15.16-.15.31,0,.15.15.3a.52.52,0,0,0,.31.16H16a.78.78,0,0,1,.61.3.57.57,0,0,1,.15.46v.3c0,.16-.15.16-.15.31s-.15.15-.3.15A.58.58,0,0,0,15.89,220.14Z"/><path class="cls-91" d="M21.53,218h0l-.3.46-.61,1.07L20,218.46l-.15-.46h0v2.14H19.4v-2.75h.46l.76,1.38h0l.76-1.38h.46v2.75h-.46V218Z"/><path class="cls-91" d="M26.42,220.14l-.31-.76H25l-.3.76h-.46l.92-2.75h.61l.91,2.75Zm-.61-2.29h0l-.46,1.22h.76Z"/><path class="cls-91" d="M29.93,220.14h-.46v-2.75h1.22c.3,0,.46,0,.61.15s.15.31.15.62a.55.55,0,0,1-.15.45,1,1,0,0,1-.46.31l.61,1.07H31l-.61-1.07h-.61v1.22Zm.61-1.53c.15,0,.15,0,.3-.15a.52.52,0,0,0,.15-.3V218c0-.15,0-.15-.15-.3a.51.51,0,0,0-.3-.16h-.77v.92h.77Z"/><path class="cls-91" d="M35,217.85v2.29H34.5v-2.29h-.76v-.46h2v.46Z"/><path class="cls-91" d="M42.44,220.14a1.11,1.11,0,0,1-.76-.31,1.71,1.71,0,0,1-.31-1.06.92.92,0,0,1,.15-.61c0-.16.16-.31.16-.46s.15-.16.3-.31a.57.57,0,0,1,.46-.15c.3,0,.46,0,.61.15s.3.31.3.46l-.3.15a.52.52,0,0,0-.15-.3.53.53,0,0,0-.77,0c-.15.15-.15.3-.15.61v.46c0,.3,0,.45.15.61a.58.58,0,0,0,.46.15.57.57,0,0,0,.46-.15c.15-.16.15-.16.15-.31l.31.15c-.16.16-.16.31-.31.46A.82.82,0,0,1,42.44,220.14Z"/><path class="cls-91" d="M47.63,220.14l-.31-.76H46.25l-.3.76h-.46l.92-2.75H47l.91,2.75Zm-.77-2.29h0l-.45,1.22h.76Z"/><path class="cls-91" d="M51,220.14h-.45v-2.75h1.22c.3,0,.45,0,.61.15s.15.31.15.62a.55.55,0,0,1-.15.45,1.18,1.18,0,0,1-.46.31l.61,1.07h-.46l-.61-1.07h-.61l.15,1.22Zm.77-1.53c.15,0,.15,0,.3-.15a.52.52,0,0,0,.15-.3V218c0-.15,0-.15-.15-.3a.51.51,0,0,0-.3-.16H51v.92h.77Z"/><path class="cls-91" d="M55.26,217.39h.91a.57.57,0,0,1,.46.15c.15.16.3.16.3.31.16.15.16.31.31.46s.15.3.15.61,0,.46-.15.61-.15.3-.31.46l-.3.3a.57.57,0,0,1-.46.15h-.91Zm.91,2.29a.57.57,0,0,0,.46-.15c.15-.15.15-.31.15-.61v-.46c0-.3,0-.46-.15-.61a.57.57,0,0,0-.46-.15h-.46v2Z"/></svg>