<svg id="Layer_1" data-name="Layer 1" xmlns="http://www.w3.org/2000/svg" xmlns:xlink="http://www.w3.org/1999/xlink" viewBox="0 0 480 416"><defs><style>.cls-1{fill:none;}.cls-2{fill:#40927a;}.cls-3{fill:#cbbdb5;}.cls-4{fill:#fff;}.cls-5{fill:#555654;}.cls-6{fill:#69c3a9;}.cls-7{fill:#674f3f;}.cls-8{fill:#ab8268;}.cls-9{clip-path:url(#clip-path);}.cls-10{fill:#382e27;}.cls-11{fill:#686563;}.cls-12{fill:#3f332b;}.cls-13{fill:#ac8368;}.cls-14{fill:#eee;}.cls-15{fill:#80bfa9;}.cls-16{fill:#7ab09b;}.cls-17{fill:#2e493e;}.cls-18{fill:#d1eae0;}.cls-19{fill:#4f7c70;}.cls-20{clip-path:url(#clip-path-3);}.cls-21{fill:#6b9786;}.cls-22{fill:#abdac8;}.cls-23{fill:#557769;}.cls-24{fill:#e6ab23;}.cls-25{fill:#bc8a2c;}.cls-26{fill:#426758;}.cls-27{fill:#c48f2c;}.cls-28{clip-path:url(#clip-path-7);}.cls-29{fill:#6d9885;}.cls-30{fill:#597568;}.cls-31{fill:#8bc7ae;}.cls-32{clip-path:url(#clip-path-10);}.cls-33{fill:#8fcfb6;}.cls-34{fill:#5b8072;}.cls-35{clip-path:url(#clip-path-12);}.cls-36{fill:#1a2d26;}.cls-37{clip-path:url(#clip-path-13);}.cls-38{fill:#9cd3bc;}.cls-39{fill:#66877a;}.cls-40{fill:#fcfbe9;}.cls-41{fill:#dcdcdc;}.cls-42{fill:#80c0aa;}.cls-43{fill:#49695d;}.cls-44{fill:#7ab19c;}.cls-45{fill:#699d89;}.cls-46{fill:#a29f9f;}.cls-47{fill:#ef5555;}.cls-48{fill:#83593c;}.cls-49{fill:#395047;}.cls-50{fill:#5a8072;}.cls-51{clip-path:url(#clip-path-15);}.cls-52{fill:#17211d;}.cls-53{fill:#1c2621;}.cls-54{fill:#61907e;}.cls-55{fill:#e5e6e6;}.cls-56{clip-path:url(#clip-path-17);}.cls-57{fill:#686868;}.cls-58{fill:#a3a3a3;}.cls-59{clip-path:url(#clip-path-18);}.cls-60{fill:#2d2d2d;}.cls-61{fill:#353535;}.cls-62{fill:#e4ab25;}.cls-63{fill:#7c7c7c;}.cls-64{fill:#ef5354;}.cls-65{fill:#b6b6b7;}.cls-66{fill:#d6d6d6;}.cls-67{clip-path:url(#clip-path-19);}.cls-68{opacity:0.2;}.cls-69{fill:#8c8c8c;}.cls-70{fill:#6b6b6b;}.cls-71{fill:#a09e9f;}.cls-72{fill:#81c1ab;}.cls-73{fill:#ad8468;}.cls-74{fill:#8a6955;}.cls-75{fill:#353635;}.cls-76{fill:#699e8a;}.cls-77{fill:url(#linear-gradient);}.cls-78{fill:url(#linear-gradient-2);}.cls-79{fill:#2d2e2d;}</style><clipPath id="clip-path"><path class="cls-1" d="M336.56,101.82s-.42,3.07,1.8,3.76l.85-.18-.17-3.58Z"/></clipPath><clipPath id="clip-path-3"><rect class="cls-1" x="295.56" y="162.27" width="33.22" height="23.44" rx="1.82"/></clipPath><clipPath id="clip-path-7"><path class="cls-1" d="M332.88,190.83H291.47a.49.49,0,0,1-.46-.46v-34a.49.49,0,0,1,.46-.46H333a.49.49,0,0,1,.46.46v34A.52.52,0,0,1,332.88,190.83Z"/></clipPath><clipPath id="clip-path-10"><path class="cls-1" d="M336,155.33a.57.57,0,0,1-.57.68h-46.3c-.34,0-.69-.34-.57-.68l2.62-14a1,1,0,0,1,.79-.68h40.5c.35,0,.8.34.8.68Z"/></clipPath><clipPath id="clip-path-12"><path class="cls-1" d="M326.17,158.63h-28.1a2.53,2.53,0,0,1-2.51-2.5V156h33.11v.12A2.39,2.39,0,0,1,326.17,158.63Z"/></clipPath><clipPath id="clip-path-13"><path class="cls-1" d="M333.11,154.31a1.36,1.36,0,0,1-1.48,1.7H292.72a1.43,1.43,0,0,1-1.48-1.7L292,150c.91-5.35,5.11-9.33,10-9.33h20.13c4.9,0,9.11,3.86,10,9.33Z"/></clipPath><clipPath id="clip-path-15"><path class="cls-1" d="M448.78,256.46s-.41,3.25,1.86,4.06l1-.17-.16-3.89Z"/></clipPath><clipPath id="clip-path-17"><rect class="cls-1" x="188.14" y="257.1" width="11.68" height="14.1"/></clipPath><clipPath id="clip-path-18"><path class="cls-1" d="M195.59,259.2s-.39,3.14,1.81,3.84l.9-.13-.17-3.71Z"/></clipPath><clipPath id="clip-path-19"><rect class="cls-1" x="281.41" y="241.05" width="75.63" height="48.4" rx="2.86"/></clipPath><linearGradient id="linear-gradient" x1="452.54" y1="51.69" x2="446.16" y2="45.31" gradientTransform="translate(0 62.11)" gradientUnits="userSpaceOnUse"><stop offset="0" stop-color="#ad8468"/><stop offset="0.33" stop-color="#a77f65"/><stop offset="0.78" stop-color="#95725b"/><stop offset="1" stop-color="#8a6955"/></linearGradient><linearGradient id="linear-gradient-2" x1="437.82" y1="48.94" x2="435.64" y2="42.95" gradientTransform="translate(0 62.11)" gradientUnits="userSpaceOnUse"><stop offset="0" stop-color="#ad8468"/><stop offset="0.35" stop-color="#a98166"/><stop offset="0.68" stop-color="#9d785f"/><stop offset="1" stop-color="#8a6955"/></linearGradient></defs><polygon class="cls-2" points="344.73 94.88 343.36 91.24 346.09 91.24 344.73 94.88"/><path class="cls-3" d="M370.44,91.24H325.61A2.58,2.58,0,0,0,323,93.86v27.3a2.58,2.58,0,0,0,2.61,2.62h44.83a2.58,2.58,0,0,0,2.62-2.62V93.86A2.58,2.58,0,0,0,370.44,91.24Zm-19.57,4.55h-5.69a1.14,1.14,0,0,1,0-2.27h5.69a1.14,1.14,0,1,1,0,2.27Z"/><polygon class="cls-2" points="343.36 91.24 349.85 91.24 345.18 79.98 338.7 79.98 343.36 91.24"/><rect class="cls-4" x="347.23" y="100.68" width="0.46" height="15.7"/><path class="cls-5" d="M366.12,109H352.46a.39.39,0,0,1,0-.78h13.66a.39.39,0,1,1,0,.78Z"/><path class="cls-5" d="M366.12,104.77H352.46a.79.79,0,0,1,0-1.57h13.66a.79.79,0,0,1,0,1.57Z"/><path class="cls-5" d="M366.12,111.55H352.46a.4.4,0,0,1-.39-.4.39.39,0,0,1,.39-.39h13.66a.39.39,0,0,1,.39.39A.4.4,0,0,1,366.12,111.55Z"/><path class="cls-5" d="M362,114.05h-9.56a.4.4,0,0,1,0-.79H362a.4.4,0,0,1,0,.79Z"/><path class="cls-4" d="M370.44,123.2H325.61a1.9,1.9,0,0,1-1.91-1.92V94a1.9,1.9,0,0,1,1.91-1.92h44.83A1.9,1.9,0,0,1,372.36,94v27.31A1.9,1.9,0,0,1,370.44,123.2ZM325.61,92.25A1.71,1.71,0,0,0,323.89,94v27.31a1.71,1.71,0,0,0,1.72,1.72h44.83a1.7,1.7,0,0,0,1.72-1.72V94a1.7,1.7,0,0,0-1.72-1.72Z"/><polygon class="cls-6" points="351.1 94.88 344.73 94.88 351.55 78.16 358.15 78.16 351.1 94.88"/><path class="cls-7" d="M330.76,112.57a8.42,8.42,0,0,0-.94.94,10.34,10.34,0,0,0,6.83,1.71c3.16-.34,3.41-1.45,3.41-1.45l-1.36-1.11"/><path class="cls-8" d="M330.76,112.57a5.81,5.81,0,0,1,1.45-.85c.77-.34.69-.68.86-2.39a5.57,5.57,0,0,1-.94-1.71,1.52,1.52,0,0,1-.86-1.45c-.08-1.19.43-1,.43-1A3.51,3.51,0,0,1,333,102c1.62-1.36,4.27,0,4.78.94a3.39,3.39,0,0,1,.43,2.65c-.26.85.25,1.7-.52,3.15s-1.11,1.62-1.79,1.88v.77s.09.34.34.42,2.31,1,2.31,1a20.64,20.64,0,0,1-4.1.51,8.66,8.66,0,0,1-3.67-.77"/><g class="cls-9"><path class="cls-10" d="M330.76,112.57a5.81,5.81,0,0,1,1.45-.85c.77-.34.69-.68.86-2.39a5.57,5.57,0,0,1-.94-1.71,1.52,1.52,0,0,1-.86-1.45c-.08-1.19.43-1,.43-1A3.51,3.51,0,0,1,333,102c1.62-1.36,4.27,0,4.78.94a3.39,3.39,0,0,1,.43,2.65c-.26.85.25,1.7-.52,3.15s-1.11,1.62-1.79,1.88v.77s.09.34.34.42a8.82,8.82,0,0,1,2.31,1,13.53,13.53,0,0,1-4.1.51,8.66,8.66,0,0,1-3.67-.77"/></g><g class="cls-9"><path class="cls-11" d="M336.14,111.29a3.24,3.24,0,0,1-2.22-1.53,3.37,3.37,0,0,0,2.22.85Z"/></g><path class="cls-12" d="M333.07,101.91a3.46,3.46,0,0,0-1.28,3.15s.68.17.85,1.28h.08v-1c.94.17,2.48.34,3.33-.26a3.93,3.93,0,0,0,1.79-2.22C337.33,101.91,334.69,100.54,333.07,101.91Z"/><path class="cls-7" d="M336.48,111.72a12,12,0,0,1,2.3,1,13.49,13.49,0,0,1-4.09.51,8.35,8.35,0,0,1-3.84-.68,5.58,5.58,0,0,1,1.45-.85,6.17,6.17,0,0,0,3.58,1.45c1.71-.09.6-1.45.6-1.45"/><path class="cls-13" d="M279.36,94.5a13.65,13.65,0,0,0-27.3,0,13.49,13.49,0,0,0,11.6,13.42v6.6h-2.5a2,2,0,0,0,0,4.1h2.5v3.07a2,2,0,0,0,4.1,0v-3.07h2.5a2,2,0,1,0,0-4.1h-2.5v-6.6A13.49,13.49,0,0,0,279.36,94.5Zm-23.09,0a9.56,9.56,0,1,1,9.55,9.56A9.62,9.62,0,0,1,256.27,94.5Z"/><path class="cls-14" d="M265.71,124.25a2.56,2.56,0,0,1-2.56-2.56v-2.56h-2a2.56,2.56,0,0,1,0-5.12h2v-5.64a14.17,14.17,0,1,1,5.12,0V114h2a2.56,2.56,0,1,1,0,5.12h-2v2.56A2.56,2.56,0,0,1,265.71,124.25ZM261.16,115a1.53,1.53,0,0,0,0,3.06h3v3.59a1.53,1.53,0,0,0,3.06,0V118.1h3a1.53,1.53,0,1,0,0-3.06h-3v-7.56l.45-.07a13.14,13.14,0,1,0-4,0l.45.07V115Zm4.66-10.47A10.07,10.07,0,1,1,275.9,94.5,10.08,10.08,0,0,1,265.82,104.57Zm0-19.11a9,9,0,1,0,9.05,9A9,9,0,0,0,265.82,85.46Z"/><path class="cls-13" d="M311.22,94.5a13.66,13.66,0,0,0-27.31,0,13.5,13.5,0,0,0,11.61,13.42v10.47l-2.16-1.59a2.12,2.12,0,0,0-2.51,3.41l5.47,4.1a2.15,2.15,0,0,0,1.13.34,2.18,2.18,0,0,0,1.14-.34l5.46-4.1a2.11,2.11,0,1,0-2.5-3.41l-2.16,1.59V107.92A13.51,13.51,0,0,0,311.22,94.5Zm-23.1,0a9.56,9.56,0,1,1,9.56,9.56A9.62,9.62,0,0,1,288.12,94.5Z"/><path class="cls-14" d="M297.45,125.16a2.74,2.74,0,0,1-1.42-.42l-5.52-4.14a2.7,2.7,0,0,1-.52-3.66l0,0a2.7,2.7,0,0,1,3.66-.52l1.33,1v-9A14.14,14.14,0,1,1,311.73,94.5a14,14,0,0,1-11.83,13.87v9l1.34-1a2.63,2.63,0,1,1,3.12,4.24l-5.46,4.1A2.74,2.74,0,0,1,297.45,125.16Zm-6.27-5.35,5.44,4.09a1.8,1.8,0,0,0,.83.23,1.71,1.71,0,0,0,.85-.25l5.44-4.08a1.6,1.6,0,0,0-1.88-2.59l-3,2.2V107.47l.45-.06A12.94,12.94,0,0,0,310.7,94.5a13.14,13.14,0,1,0-15.11,12.91l.44.07v11.93l-3-2.2a1.6,1.6,0,1,0-1.87,2.6Zm6.5-15.24A10.07,10.07,0,1,1,307.75,94.5,10.08,10.08,0,0,1,297.68,104.57Zm0-19.11a9,9,0,1,0,9,9A9,9,0,0,0,297.68,85.46Z"/><path class="cls-13" d="M295.29,94.5a13.65,13.65,0,0,0-27.3,0,13.49,13.49,0,0,0,11.6,13.42v2.62h-2.5a2,2,0,1,0,0,4.1h2.5v3.75l-2.16-1.48a2.12,2.12,0,0,0-2.5,3.42l5.46,4.09a2.06,2.06,0,0,0,2.27,0l5.46-4.09a2.12,2.12,0,0,0-2.5-3.42l-2.16,1.6v-3.76H286a2,2,0,1,0,0-4.09h-2.5V108A13.71,13.71,0,0,0,295.29,94.5Zm-23.09,0a9.56,9.56,0,1,1,9.55,9.56A9.62,9.62,0,0,1,272.2,94.5Z"/><path class="cls-14" d="M281.52,125.28a2.75,2.75,0,0,1-1.42-.43l-5.51-4.14a2.68,2.68,0,0,1-.53-3.65l0,0a2.71,2.71,0,0,1,3.66-.53l1.34.92v-2.27h-2a2.56,2.56,0,1,1,0-5.12h2v-1.66a14,14,0,1,1,4.89.11v1.66h2a2.57,2.57,0,0,1,0,5.13h-2v2.22l1.35-1a2.55,2.55,0,0,1,1.95-.47,2.71,2.71,0,0,1,1.72,1,2.57,2.57,0,0,1,.47,2,2.73,2.73,0,0,1-1,1.73L283,124.83A2.72,2.72,0,0,1,281.52,125.28Zm-6.27-5.35L280.7,124a1.67,1.67,0,0,0,.82.24,1.7,1.7,0,0,0,.86-.26l5.43-4.08a1.64,1.64,0,0,0,.63-1.06,1.53,1.53,0,0,0-.27-1.17,1.69,1.69,0,0,0-1.07-.63,1.54,1.54,0,0,0-1.17.27l-3,2.2v-5.28h3a1.54,1.54,0,0,0,0-3.07h-3v-3.58l.44-.06a13.14,13.14,0,1,0-14.88-13,13,13,0,0,0,11.16,12.91l.45.07v3.58h-3a1.53,1.53,0,1,0,0,3.06h3v5.25l-3-2a1.6,1.6,0,1,0-1.89,2.59Zm6.5-15.36A10.07,10.07,0,1,1,291.82,94.5,10.08,10.08,0,0,1,281.75,104.57Zm0-19.11a9,9,0,1,0,9,9A9,9,0,0,0,281.75,85.46Z"/><path class="cls-6" d="M227,78.38l-23.21-.11A3.57,3.57,0,0,0,200,81.68v46.19a3.58,3.58,0,0,0,3.75,3.41l28.9.12a3.59,3.59,0,0,0,3.76-3.42l.11-41.18a3,3,0,0,0-1.14-2.39l-5.57-5A4.39,4.39,0,0,0,227,78.38Z"/><path class="cls-3" d="M231.2,101.7l-.11,21.73a3.54,3.54,0,0,1-3.53,3.53l-19.11-.11a3.56,3.56,0,0,1-3.53-3.53l.12-21.73a3.54,3.54,0,0,1,3.52-3.53l19.12.12A3.54,3.54,0,0,1,231.2,101.7Z"/><path class="cls-4" d="M227.56,127.4l-19.11-.11a4,4,0,0,1-4-4l.11-21.73a4,4,0,0,1,4-4l19.12.11a4,4,0,0,1,4,4h0l-.12,21.73A4,4,0,0,1,227.56,127.4Zm-19-28.89a3.08,3.08,0,0,0-3.08,3.08l-.11,21.73a3.08,3.08,0,0,0,3.08,3.08l19.12.12a3.1,3.1,0,0,0,3.08-3.09l.11-21.73a3.11,3.11,0,0,0-3.11-3.08Z"/><path class="cls-4" d="M222.33,109.43H214a2.92,2.92,0,0,1-2.83-2.84V98.18a.45.45,0,1,1,.89,0v8.41a2,2,0,0,0,1.94,2h8.31a2.05,2.05,0,0,0,1.95-2V98.18a.44.44,0,0,1,.44-.45.45.45,0,0,1,.44.45v8.41A2.91,2.91,0,0,1,222.33,109.43Z"/><path class="cls-4" d="M224.72,127.4a.44.44,0,0,1-.44-.44v-8.42a2.06,2.06,0,0,0-1.95-2H214a2,2,0,0,0-1.94,2V127a.45.45,0,0,1-.89,0v-8.42a2.91,2.91,0,0,1,2.83-2.83h8.31a2.9,2.9,0,0,1,2.83,2.83V127A.44.44,0,0,1,224.72,127.4Z"/><path class="cls-4" d="M214.48,116.59a.43.43,0,0,1-.44-.44v-7.28a.44.44,0,0,1,.44-.44.44.44,0,0,1,.44.44v7.28A.44.44,0,0,1,214.48,116.59Z"/><path class="cls-4" d="M221.87,116.71a.44.44,0,0,1-.44-.44v-7.4a.45.45,0,0,1,.89,0v7.4A.45.45,0,0,1,221.87,116.71Z"/><path class="cls-4" d="M218.12,127.4a.44.44,0,0,1-.44-.44V116.27a.44.44,0,0,1,.44-.45.45.45,0,0,1,.44.45V127A.44.44,0,0,1,218.12,127.4Z"/><path class="cls-4" d="M218.12,109.31h0a.43.43,0,0,1-.43-.44l.11-10.59a.44.44,0,0,1,.44-.43h0a.44.44,0,0,1,.44.44l-.12,10.59A.44.44,0,0,1,218.12,109.31Z"/><path class="cls-4" d="M211.63,120.24H205a.45.45,0,1,1,0-.89h6.59a.45.45,0,1,1,0,.89Z"/><path class="cls-4" d="M231.2,120.35h-6.6a.45.45,0,0,1,0-.89h6.6a.45.45,0,1,1,0,.89Z"/><path class="cls-4" d="M231.2,105.67h-6.6a.44.44,0,0,1-.44-.44.44.44,0,0,1,.44-.44h6.6a.44.44,0,0,1,.45.44A.45.45,0,0,1,231.2,105.67Z"/><path class="cls-4" d="M211.75,105.67h-6.6a.44.44,0,0,1-.44-.44.44.44,0,0,1,.44-.44h6.6a.44.44,0,0,1,.44.44A.44.44,0,0,1,211.75,105.67Z"/><path class="cls-13" d="M243.37,144.57a24.74,24.74,0,0,1,10.8-2.16A25.43,25.43,0,0,1,265,144.57a.67.67,0,0,0,.46.12,1.1,1.1,0,0,0,1-.69,1.12,1.12,0,0,0-.57-1.47,27.52,27.52,0,0,0-11.72-2.39,27.16,27.16,0,0,0-11.71,2.39,1.12,1.12,0,0,0-.57,1.47A1.2,1.2,0,0,0,243.37,144.57Z"/><path class="cls-13" d="M239.27,153.22a20.87,20.87,0,0,1,15-6.48,20.44,20.44,0,0,1,15,6.48,1.18,1.18,0,0,0,.79.34,1.22,1.22,0,0,0,.8-.34,1.11,1.11,0,0,0,0-1.59,22.61,22.61,0,0,0-16.61-7.06,23.27,23.27,0,0,0-16.61,7.06,1.12,1.12,0,0,0,1.59,1.59Z"/><path class="cls-13" d="M254.29,149.12a22.94,22.94,0,0,0-4.78.57c-.68.23-1,.69-.8,1.37s.69,1,1.37.8a16.64,16.64,0,0,1,4.21-.57,16.92,16.92,0,0,1,17,17,1.14,1.14,0,0,0,2.28,0A19.41,19.41,0,0,0,254.29,149.12Z"/><path class="cls-13" d="M237.34,168.24a17.46,17.46,0,0,1,4.89-12,15.25,15.25,0,0,1,3.53-2.73,1.15,1.15,0,1,0-1.26-1.93,20.24,20.24,0,0,0-4,3.07A19.6,19.6,0,0,0,235,168.12a1.07,1.07,0,0,0,1.13,1.14h0A1,1,0,0,0,237.34,168.24Z"/><path class="cls-13" d="M241.89,168.58a12.56,12.56,0,0,1,3.64-9,12.42,12.42,0,0,1,18.2.68,1.13,1.13,0,1,0,1.71-1.47,14.62,14.62,0,0,0-21.39-.69,15.36,15.36,0,0,0-4.32,10.7,18.51,18.51,0,0,1-2,8.07L237,178a1.28,1.28,0,0,0,.46,1.6c.23.11.34.22.57.22a1.32,1.32,0,0,0,1-.57l.69-1.13A27.33,27.33,0,0,0,241.89,168.58Z"/><path class="cls-13" d="M269.76,177.11a41.9,41.9,0,0,1-.8-8.3v-.69a14.68,14.68,0,0,0-.79-4.89,1.15,1.15,0,0,0-2.16.8,13.17,13.17,0,0,1,.68,4.21v.68a40.3,40.3,0,0,0,.91,8.76l1.25,4.32a1.36,1.36,0,0,0,1.14.8.42.42,0,0,0,.34-.11,1,1,0,0,0,.68-1.37Z"/><path class="cls-13" d="M266.69,183.14a62.42,62.42,0,0,1-2.28-14.79,10.14,10.14,0,0,0-10.12-10.12,10.27,10.27,0,0,0-10.13,10.35,26.36,26.36,0,0,1-5,14.33,1.14,1.14,0,1,0,1.82,1.37,28.35,28.35,0,0,0,5.34-15.7,8,8,0,0,1,15.93,0,57.32,57.32,0,0,0,2.39,15.47l1,3.42a1.36,1.36,0,0,0,1.13.79.41.41,0,0,0,.34-.11,1.07,1.07,0,0,0,.69-1.48Z"/><path class="cls-13" d="M259.86,168.24a5.69,5.69,0,1,0-11.37,0c0,.34.22,9.21-6.94,18.54a1.24,1.24,0,0,0,.22,1.6,1.26,1.26,0,0,0,1.6-.23c7.62-9.9,7.39-19.57,7.39-19.91a3.42,3.42,0,0,1,6.83,0c0,1.25,0,12.63-8.76,24.12a1.24,1.24,0,0,0,.22,1.59.84.84,0,0,0,.69.23,1.41,1.41,0,0,0,.91-.46A42.28,42.28,0,0,0,259.86,168.24Z"/><path class="cls-13" d="M253.72,173.93H254a1.1,1.1,0,0,0,1.13-.91,24.12,24.12,0,0,0,.35-4.78,1.15,1.15,0,0,0-1.14-1.14,1.23,1.23,0,0,0-1.14,1.14,20.69,20.69,0,0,1-.34,4.32A1.11,1.11,0,0,0,253.72,173.93Z"/><path class="cls-13" d="M253.15,176.32a1.09,1.09,0,0,0-1.36.68,36.39,36.39,0,0,1-7.06,13.2,1.23,1.23,0,0,0,.23,1.59.83.83,0,0,0,.68.23,1.41,1.41,0,0,0,.91-.46,40.53,40.53,0,0,0,7.4-14A1,1,0,0,0,253.15,176.32Z"/><path class="cls-13" d="M262.71,185.53c-.57-1.59-1-3.41-1.14-3.41a1.09,1.09,0,0,0-1-.8,1.26,1.26,0,0,0-1.14.68A67.15,67.15,0,0,1,254,192.47a1.13,1.13,0,0,0,.34,1.59,1,1,0,0,0,1.59-.34,63.76,63.76,0,0,0,4.32-8.07c.12.22.12.34.23.56l1.37,4.33a1.15,1.15,0,0,0,2.16-.8Z"/><path class="cls-15" d="M336,155.33a.57.57,0,0,1-.57.68h-46.3c-.34,0-.69-.34-.57-.68l2.62-14a1,1,0,0,1,.79-.68h40.5c.35,0,.8.34.8.68Z"/><path class="cls-16" d="M332.88,190.83H291.47a.49.49,0,0,1-.46-.46V156.24a.49.49,0,0,1,.46-.45H333a.49.49,0,0,1,.46.45v34.13A.52.52,0,0,1,332.88,190.83Z"/><path class="cls-17" d="M326.17,158.63h-28.1a2.53,2.53,0,0,1-2.51-2.5V156h33.11v.12A2.39,2.39,0,0,1,326.17,158.63Z"/><path class="cls-15" d="M328.78,183.89a1.8,1.8,0,0,1-1.82,1.82H297.38a1.8,1.8,0,0,1-1.82-1.82v-19.8a1.8,1.8,0,0,1,1.82-1.82H327a1.8,1.8,0,0,1,1.82,1.82Z"/><circle class="cls-18" cx="312.17" cy="165.57" r="1.59"/><path class="cls-19" d="M312.17,168.13a2.56,2.56,0,0,1-2.55-2.56.28.28,0,0,1,.28-.28.29.29,0,0,1,.28.28,2,2,0,1,0,4,0,.28.28,0,0,1,.28-.28.29.29,0,0,1,.28.28A2.56,2.56,0,0,1,312.17,168.13Z"/><path class="cls-1" d="M335.72,190.26a1.9,1.9,0,0,1-1.93,1.82h-43a1.83,1.83,0,0,1-1.93-1.82V158a1.9,1.9,0,0,1,1.93-1.82h43a1.82,1.82,0,0,1,1.93,1.82Z"/><g class="cls-20"><rect class="cls-21" x="295.56" y="162.39" width="0.57" height="23.32"/></g><g class="cls-20"><rect class="cls-21" x="328.21" y="162.39" width="0.57" height="23.32"/></g><g class="cls-20"><rect class="cls-22" x="295.56" y="162.39" width="33.11" height="0.68"/></g><g class="cls-20"><rect class="cls-23" x="295.45" y="185.25" width="33.9" height="0.8"/></g><path class="cls-24" d="M300.34,187.19a.73.73,0,0,1-.68-.68v-.91a1.82,1.82,0,0,1,1.48-1.82h.34a1.74,1.74,0,0,1,1.7,1.7v1a.73.73,0,0,1-.68.68Z"/><path class="cls-25" d="M301.36,183.89a1.56,1.56,0,0,1,1.6,1.59v1a.53.53,0,0,1-.57.56h-2.05a.53.53,0,0,1-.57-.56v-.91a1.61,1.61,0,0,1,1.37-1.6c.11-.11.11-.11.22-.11m0-.34H301a2,2,0,0,0-1.59,1.93v.91a.78.78,0,0,0,.8.8h2a.78.78,0,0,0,.8-.8v-1a1.7,1.7,0,0,0-1.71-1.82Z"/><path class="cls-24" d="M322,187.19a.74.74,0,0,1-.69-.68v-.91a1.82,1.82,0,0,1,1.48-1.82h.34a1.75,1.75,0,0,1,1.71,1.7v1a.73.73,0,0,1-.68.68Z"/><path class="cls-25" d="M323,183.89a1.55,1.55,0,0,1,1.59,1.59v1a.53.53,0,0,1-.57.56h-2a.53.53,0,0,1-.57-.56v-.91a1.61,1.61,0,0,1,1.36-1.6c0-.11.12-.11.23-.11m0-.34h-.34a2,2,0,0,0-1.59,1.93v.91a.78.78,0,0,0,.79.8h2.05a.78.78,0,0,0,.8-.8v-1a1.71,1.71,0,0,0-1.71-1.82Z"/><rect class="cls-26" x="302.96" y="185.43" width="18.43" height="0.56"/><rect class="cls-27" x="299.77" y="185.43" width="3.19" height="0.56"/><rect class="cls-27" x="321.39" y="185.43" width="3.19" height="0.56"/><path class="cls-4" d="M313.31,165.85a.28.28,0,0,1-.28-.28.86.86,0,0,0-1.72,0,.28.28,0,1,1-.55,0,1.42,1.42,0,0,1,2.83,0A.28.28,0,0,1,313.31,165.85Z"/><g class="cls-28"><rect class="cls-29" x="290.9" y="155.22" width="0.91" height="36.86"/></g><g class="cls-28"><rect class="cls-29" x="332.54" y="155.22" width="0.91" height="36.86"/></g><g class="cls-28"><rect class="cls-30" x="290.9" y="189.92" width="42.44" height="2.16"/></g><path class="cls-1" d="M335.72,154.31a1.38,1.38,0,0,1-1.48,1.7H290.1a1.44,1.44,0,0,1-1.48-1.7L291,142.36a2.32,2.32,0,0,1,2.16-1.7h38a2.3,2.3,0,0,1,2.16,1.7Z"/><path class="cls-31" d="M333.11,154.31a1.36,1.36,0,0,1-1.48,1.7H292.72a1.43,1.43,0,0,1-1.48-1.7L292,150c.91-5.35,5.11-9.33,10-9.33h20.13c4.9,0,9.11,3.86,10,9.33Z"/><path class="cls-1" d="M333.45,156.13H291l1.14-6.14c.91-5.35,5.12-9.33,10-9.33H322.3c4.89,0,9.1,3.86,10,9.33Z"/><g class="cls-32"><rect class="cls-33" x="287.94" y="139.75" width="47.44" height="1.93"/></g><g class="cls-32"><rect class="cls-34" x="287.14" y="154.54" width="51.08" height="2.73"/></g><g class="cls-35"><rect class="cls-36" x="295.22" y="158.06" width="33.9" height="1.14"/></g><g class="cls-37"><rect class="cls-38" x="294.31" y="139.75" width="34.7" height="1.93"/></g><g class="cls-37"><rect class="cls-39" x="287.14" y="154.54" width="51.08" height="2.73"/></g><path class="cls-17" d="M307.74,174.22a2.7,2.7,0,0,1,.79.79,2.44,2.44,0,0,1,.34,1.37,3.13,3.13,0,0,1-.34,1.48,1.79,1.79,0,0,1-.91.91,2.25,2.25,0,0,1-1.25.34,2.1,2.1,0,0,1-1.93-1,4.86,4.86,0,0,1-.57-2.73,6.14,6.14,0,0,1,.34-2.17,3.54,3.54,0,0,1,1-1.47,2.36,2.36,0,0,1,1.48-.57,2.6,2.6,0,0,1,1.59.45l-.45.68a2.27,2.27,0,0,0-1.14-.34,1.23,1.23,0,0,0-1.25.8,5.55,5.55,0,0,0-.57,2,2.05,2.05,0,0,1,1.82-1A4.41,4.41,0,0,1,307.74,174.22Zm-.35,3.53a2.44,2.44,0,0,0,.35-1.37c0-1.14-.46-1.59-1.26-1.59a2.22,2.22,0,0,0-.91.22,2.52,2.52,0,0,0-.68.8,3.75,3.75,0,0,0,.34,1.82,1.26,1.26,0,0,0,1.14.57A1.09,1.09,0,0,0,307.39,177.75Z"/><path class="cls-17" d="M314.33,172.17a5.11,5.11,0,0,1,.69,3,5.4,5.4,0,0,1-.69,3,2.1,2.1,0,0,1-1.93,1,2.22,2.22,0,0,1-1.93-1,5.15,5.15,0,0,1-.69-3,5.38,5.38,0,0,1,.69-3,2.34,2.34,0,0,1,3.86,0Zm-2.95.57a8.57,8.57,0,0,0,0,4.78,1.14,1.14,0,0,0,1.13.68,1.39,1.39,0,0,0,1.14-.68,5.83,5.83,0,0,0,.34-2.39,6.2,6.2,0,0,0-.34-2.39,1.14,1.14,0,0,0-1.14-.68A1.12,1.12,0,0,0,311.38,172.74Z"/><path class="cls-17" d="M319.23,171.49a2.59,2.59,0,0,1,.79.79,1.86,1.86,0,0,1,.34,1,3,3,0,0,1-.34,1.36,9,9,0,0,1-.91,1.37c-.45.45-1.13,1.14-1.93,2.05h3.41l-.11.91H316v-.8c1-1,1.71-1.82,2.16-2.28a6.11,6.11,0,0,0,.91-1.25,2,2,0,0,0,.23-1.13,1.25,1.25,0,0,0-.34-.91,1.29,1.29,0,0,0-.91-.35,1.71,1.71,0,0,0-.8.23,3.73,3.73,0,0,0-.79.68l-.69-.56a6.47,6.47,0,0,1,1-.91,2.26,2.26,0,0,1,1.25-.35A1,1,0,0,1,319.23,171.49Z"/><rect class="cls-40" x="403.15" y="236.97" width="55.81" height="6.83"/><polygon class="cls-41" points="459.39 242.7 458.69 242.7 458.69 237.32 403.5 237.32 403.5 239.84 402.8 239.84 402.8 236.62 459.39 236.62 459.39 242.7"/><rect class="cls-40" x="455.67" y="244.05" width="8.6" height="78.32"/><polygon class="cls-41" points="464.54 322.72 457.02 322.72 457.02 322.02 463.84 322.02 463.84 244.4 460.48 244.4 460.48 243.7 464.54 243.7 464.54 322.72"/><path class="cls-42" d="M457.61,324.14H400.2V242h57.41a4,4,0,0,1,4,4v74.19a4,4,0,0,1-4,4"/><path class="cls-43" d="M413.94,265.63h-6.49a1.52,1.52,0,1,1,0-3h6.49a1.52,1.52,0,1,1,0,3"/><path class="cls-43" d="M413.94,302.89h-6.49a1.52,1.52,0,1,1,0-3h6.49a1.51,1.51,0,0,1,1.52,1.52,1.46,1.46,0,0,1-1.52,1.51"/><rect class="cls-40" x="401.8" y="239.08" width="55.81" height="2.95"/><polygon class="cls-41" points="457.96 242.03 457.26 242.03 457.26 239.43 402.15 239.43 402.15 242.03 401.45 242.03 401.45 238.73 457.96 238.73 457.96 242.03"/><path class="cls-44" d="M447.07,242h10.54a4,4,0,0,1,4,4v10.62Z"/><path class="cls-44" d="M447.07,324.14h10.54a4,4,0,0,0,4-4V309.55Z"/><rect class="cls-45" x="440.41" y="274.39" width="13.32" height="0.7"/><rect class="cls-45" x="440.41" y="276.49" width="13.32" height="0.7"/><rect class="cls-45" x="440.41" y="278.68" width="13.32" height="0.7"/><rect class="cls-45" x="440.41" y="280.79" width="8.26" height="0.7"/><rect class="cls-43" x="400.2" y="242.03" width="1.6" height="82.11"/><rect class="cls-45" x="401.8" y="242.03" width="1.6" height="82.11"/><path class="cls-46" d="M403.49,264.7h-4.55a.57.57,0,0,1-.59-.59.58.58,0,0,1,.59-.59h4.55a.58.58,0,0,1,.59.59.57.57,0,0,1-.59.59"/><path class="cls-46" d="M403.49,302.05h-4.55a.59.59,0,0,1,0-1.18h4.55a.59.59,0,1,1,0,1.18"/><rect class="cls-47" x="461.57" y="254.5" width="4.22" height="4.47"/><rect class="cls-48" x="440.41" y="287.63" width="13.99" height="3.2"/><path class="cls-49" d="M442.53,268.07a8.88,8.88,0,0,0-1,1,10.8,10.8,0,0,0,7.31,1.79c3.41-.41,3.65-1.55,3.65-1.55a16.46,16.46,0,0,0-1.46-1.13"/><path class="cls-50" d="M442.53,268.07a5.32,5.32,0,0,1,1.54-.9c.89-.32.73-.73.89-2.59a6.22,6.22,0,0,1-1-1.87,1.76,1.76,0,0,1-.9-1.62c-.08-1.3.49-1.06.49-1.06a3.93,3.93,0,0,1,1.38-3.41c1.79-1.46,4.63,0,5.2,1.06a3.65,3.65,0,0,1,.48,2.84c-.24.89.25,1.86-.56,3.41s-1.22,1.7-1.87,1.94v.82a.8.8,0,0,0,.4.48c.33.08,2.44,1.06,2.44,1.06a22.21,22.21,0,0,1-4.47.57,10.46,10.46,0,0,1-4.05-.73"/><g class="cls-51"><path class="cls-52" d="M442.53,268.07a5.32,5.32,0,0,1,1.54-.9c.89-.32.73-.73.89-2.59a6.22,6.22,0,0,1-1-1.87,1.76,1.76,0,0,1-.9-1.62c-.08-1.3.49-1.06.49-1.06a3.93,3.93,0,0,1,1.38-3.41c1.79-1.46,4.63,0,5.2,1.06a3.65,3.65,0,0,1,.48,2.84c-.24.89.25,1.86-.56,3.41s-1.22,1.7-1.87,1.94v.82a.8.8,0,0,0,.4.48,9.86,9.86,0,0,1,2.44,1.06,14.1,14.1,0,0,1-4.47.57,10.46,10.46,0,0,1-4.05-.73"/></g><g class="cls-51"><path class="cls-11" d="M448.21,266.61a3.68,3.68,0,0,1-2.44-1.71,3.77,3.77,0,0,0,2.44.89Z"/></g><path class="cls-53" d="M445,256.62a3.65,3.65,0,0,0-1.38,3.41s.73.16,1,1.38h.09v-1.14a6.18,6.18,0,0,0,3.65-.24,4.39,4.39,0,0,0,1.95-2.44C449.59,256.62,446.75,255.08,445,256.62Z"/><path class="cls-49" d="M448.61,267.09a13.31,13.31,0,0,1,2.44,1.06,14.1,14.1,0,0,1-4.47.57,8.46,8.46,0,0,1-4.05-.73,5.32,5.32,0,0,1,1.54-.9,6.41,6.41,0,0,0,3.81,1.54c1.95,0,.73-1.54.73-1.54"/><path class="cls-54" d="M259.23,312.65H216.54V241.89h42.69a10.48,10.48,0,0,1,10.42,10.42v50.08A10.23,10.23,0,0,1,259.23,312.65Z"/><path class="cls-42" d="M258.56,311.81H215.87V241.05h42.69A10.48,10.48,0,0,1,269,251.47v50.08A10.45,10.45,0,0,1,258.56,311.81Z"/><path class="cls-55" d="M218.39,311.62a.2.2,0,0,1-.2-.2V309a.2.2,0,0,1,.4,0v2.43A.2.2,0,0,1,218.39,311.62Zm0-4.85a.21.21,0,0,1-.2-.21v-2.42a.2.2,0,1,1,.4,0v2.42A.21.21,0,0,1,218.39,306.77Zm0-4.86a.2.2,0,0,1-.2-.2v-2.43a.2.2,0,0,1,.4,0v2.43A.2.2,0,0,1,218.39,301.91Zm0-4.85a.2.2,0,0,1-.2-.2v-2.43a.2.2,0,0,1,.4,0v2.43A.2.2,0,0,1,218.39,297.06Zm0-4.85a.2.2,0,0,1-.2-.21v-2.42a.2.2,0,0,1,.4,0V292A.2.2,0,0,1,218.39,292.21Zm0-4.86a.2.2,0,0,1-.2-.2v-2.42a.2.2,0,1,1,.4,0v2.42A.2.2,0,0,1,218.39,287.35Zm0-4.85a.2.2,0,0,1-.2-.2v-2.43a.2.2,0,0,1,.4,0v2.43A.2.2,0,0,1,218.39,282.5Zm0-4.85a.2.2,0,0,1-.2-.2V275a.2.2,0,0,1,.4,0v2.43A.2.2,0,0,1,218.39,277.65Zm0-4.85a.2.2,0,0,1-.2-.21v-2.42a.2.2,0,0,1,.4,0v2.42A.2.2,0,0,1,218.39,272.8Zm0-4.86a.2.2,0,0,1-.2-.2v-2.43a.2.2,0,0,1,.4,0v2.43A.2.2,0,0,1,218.39,267.94Zm0-4.85a.2.2,0,0,1-.2-.2v-2.43a.2.2,0,0,1,.4,0v2.43A.2.2,0,0,1,218.39,263.09Zm0-4.85a.2.2,0,0,1-.2-.2v-2.43a.2.2,0,1,1,.4,0V258A.2.2,0,0,1,218.39,258.24Zm0-4.85a.21.21,0,0,1-.2-.21v-2.42a.2.2,0,1,1,.4,0v2.42A.21.21,0,0,1,218.39,253.39Zm0-4.86a.2.2,0,0,1-.2-.2V245.9a.2.2,0,0,1,.4,0v2.43A.2.2,0,0,1,218.39,248.53Zm0-4.85a.2.2,0,0,1-.2-.2v-2.43a.2.2,0,1,1,.4,0v2.43A.2.2,0,0,1,218.39,243.68Z"/><path class="cls-54" d="M242.76,288.68a14.52,14.52,0,1,1,14.52-14.52A14.53,14.53,0,0,1,242.76,288.68Zm0-28.23a13.71,13.71,0,1,0,13.71,13.71A13.73,13.73,0,0,0,242.76,260.45Z"/><rect class="cls-54" x="242.35" y="260.04" width="0.81" height="28.23"/><path class="cls-54" d="M242.18,288.43c-5.28-4-8.2-9-8.23-14.22s2.9-10.41,8.23-14.49l.49.64c-5.13,3.93-7.94,8.84-7.91,13.85s2.83,9.77,7.9,13.58Z"/><path class="cls-54" d="M243.17,288.43l-.49-.64c5.08-3.81,7.88-8.63,7.91-13.58s-2.79-9.92-7.91-13.85l.49-.64c5.33,4.08,8.25,9.23,8.23,14.49S248.45,284.47,243.17,288.43Z"/><path class="cls-54" d="M242.74,283c-5.24,0-10.36-2.92-14.42-8.23l.64-.49c3.91,5.1,8.8,7.91,13.78,7.91h.06c5,0,9.78-2.83,13.58-7.91l.65.49c-4,5.28-9,8.2-14.22,8.23Z"/><path class="cls-54" d="M229,274.24l-.64-.49c4.06-5.31,9.18-8.23,14.42-8.23h.07c5.21,0,10.26,3,14.22,8.23l-.65.48c-3.8-5.07-8.62-7.88-13.58-7.9h-.06C237.76,266.33,232.87,269.14,229,274.24Z"/><rect class="cls-54" x="228.81" y="273.76" width="28.07" height="0.81"/><path class="cls-54" d="M242.76,291.37A17.21,17.21,0,1,1,260,274.16,17.23,17.23,0,0,1,242.76,291.37Zm0-33.61a16.4,16.4,0,1,0,16.4,16.4A16.42,16.42,0,0,0,242.76,257.76Z"/><rect class="cls-45" x="229.31" y="296.18" width="27.39" height="2.18"/><rect class="cls-45" x="235.7" y="299.87" width="14.79" height="2.18"/><polygon class="cls-54" points="216.03 311.81 216.88 312.65 216.88 311.81 216.03 311.81"/><rect class="cls-41" x="168.21" y="241.02" width="35.46" height="55.46" rx="1.34"/><rect class="cls-4" x="188.14" y="257.1" width="11.68" height="14.1"/><g class="cls-56"><path class="cls-57" d="M189.68,270.24a9.5,9.5,0,0,0-1,.93,10.39,10.39,0,0,0,7,1.74c3.27-.39,3.51-1.46,3.51-1.46-.39-.37-1.42-1.09-1.42-1.09"/><path class="cls-58" d="M189.68,270.24a5.92,5.92,0,0,1,1.45-.85c.83-.33.67-.72.87-2.47a5.18,5.18,0,0,1-.91-1.79,1.58,1.58,0,0,1-.86-1.53c0-1.22.43-1,.43-1a3.65,3.65,0,0,1,1.34-3.27c1.69-1.41,4.38,0,4.93,1a3.41,3.41,0,0,1,.47,2.74c-.25.89.22,1.77-.52,3.22s-1.15,1.63-1.81,1.9l0,.75a.6.6,0,0,0,.37.43c.32.12,2.34,1,2.34,1a20.42,20.42,0,0,1-4.23.54,8.66,8.66,0,0,1-3.9-.66"/><g class="cls-59"><path class="cls-60" d="M189.68,270.24a5.92,5.92,0,0,1,1.45-.85c.83-.33.67-.72.87-2.47a5.18,5.18,0,0,1-.91-1.79,1.58,1.58,0,0,1-.86-1.53c0-1.22.43-1,.43-1a3.65,3.65,0,0,1,1.34-3.27c1.69-1.41,4.38,0,4.93,1a3.41,3.41,0,0,1,.47,2.74c-.25.89.22,1.77-.52,3.22s-1.15,1.63-1.81,1.9l0,.75a.6.6,0,0,0,.37.43,11.47,11.47,0,0,1,2.34,1,13.66,13.66,0,0,1-4.23.54,8.66,8.66,0,0,1-3.9-.66"/><path class="cls-11" d="M195.1,268.91a3.49,3.49,0,0,1-2.32-1.59,3.32,3.32,0,0,0,2.29.84Z"/></g><path class="cls-61" d="M192,259.32a3.65,3.65,0,0,0-1.34,3.27s.74.18.9,1.3h.1v-1.07a5.51,5.51,0,0,0,3.45-.23,4.11,4.11,0,0,0,1.83-2.29C196.38,259.34,193.69,257.91,192,259.32Z"/><path class="cls-57" d="M195.47,269.34a23,23,0,0,1,2.34,1,13.66,13.66,0,0,1-4.23.54,8.66,8.66,0,0,1-3.9-.66,5.92,5.92,0,0,1,1.45-.85,6.26,6.26,0,0,0,3.65,1.47c1.83-.08.69-1.52.69-1.52"/></g><path class="cls-62" d="M185.94,244.75a2.6,2.6,0,1,0,2.6,2.6A2.6,2.6,0,0,0,185.94,244.75Zm1.54,2.54a2.17,2.17,0,0,0-.21-.94,4.09,4.09,0,0,1,1,.94Zm-.15,0H186V246a2.68,2.68,0,0,1,1.06.27A2.26,2.26,0,0,1,187.33,247.29ZM186,245.81V245a4.78,4.78,0,0,1,.94,1.06A2,2,0,0,0,186,245.81Zm-.12,0a2.93,2.93,0,0,0-1,.21,4.86,4.86,0,0,1,1-1.12Zm0,.15v1.33h-1.36a2.14,2.14,0,0,1,.27-1A2,2,0,0,1,185.88,246Zm-1.51,1.33h-.82a4.33,4.33,0,0,1,1-.94A2.08,2.08,0,0,0,184.37,247.29Zm0,.12a2.68,2.68,0,0,0,.21,1,3.35,3.35,0,0,1-1.06-1Zm.15,0h1.36v1.36a2.6,2.6,0,0,1-1.06-.27A2,2,0,0,1,184.52,247.41Zm1.36,1.51v.82a3.61,3.61,0,0,1-.94-1A1.94,1.94,0,0,0,185.88,248.92Zm.12,0a2.5,2.5,0,0,0,.91-.18,4.26,4.26,0,0,1-.91,1Zm0-.15v-1.36h1.33a2.38,2.38,0,0,1-.3,1.09A2.06,2.06,0,0,1,186,248.77Zm1.48-1.36h.85a3.62,3.62,0,0,1-1.09,1A2.21,2.21,0,0,0,187.48,247.41Zm.91-.27a4.4,4.4,0,0,0-1.21-1,3.82,3.82,0,0,0-1-1.21A2.46,2.46,0,0,1,188.39,247.14Zm-2.72-2.24a3.49,3.49,0,0,0-1,1.24,3.91,3.91,0,0,0-1.18,1A2.48,2.48,0,0,1,185.67,244.9Zm-2.18,2.72a4.07,4.07,0,0,0,1.21,1,3.89,3.89,0,0,0,1,1.18A2.48,2.48,0,0,1,183.49,247.62Zm2.66,2.18a9.06,9.06,0,0,1,2.24-2.21A2.46,2.46,0,0,1,186.15,249.8Z"/><path class="cls-62" d="M185.94,244.27a3.08,3.08,0,1,0,3.08,3.08A3.1,3.1,0,0,0,185.94,244.27Zm0,6a3,3,0,1,1,3-3A3,3,0,0,1,185.94,250.31Z"/><rect class="cls-58" x="179.55" y="251.31" width="12.77" height="0.56"/><rect class="cls-58" x="177.17" y="252.53" width="17.54" height="0.56"/><rect class="cls-57" x="170.4" y="257.1" width="15.48" height="1.31"/><rect class="cls-57" x="170.4" y="259.06" width="13.15" height="1.31"/><rect class="cls-58" x="170.4" y="276.59" width="11.15" height="0.89"/><rect class="cls-58" x="170.4" y="279.37" width="7.4" height="0.89"/><rect class="cls-58" x="170.4" y="282.14" width="9.47" height="0.89"/><rect class="cls-63" x="183.34" y="276.59" width="11.1" height="0.89"/><rect class="cls-63" x="183.34" y="279.37" width="16.24" height="0.89"/><rect class="cls-63" x="183.34" y="282.14" width="16.24" height="0.89"/><path class="cls-64" d="M189.61,287.5a1.2,1.2,0,0,0-1.21,1c-.11.35.44.5.55.15s.73-.86,1-.48,0,1.07-.09,1.33a2.59,2.59,0,0,1-1.54,1.45c-.34.13-.19.67.15.54a3,3,0,0,0,2.08-3.22C190.49,287.69,190.2,287.49,189.61,287.5Z"/><path class="cls-64" d="M192.17,288.51c0-.37-.54-.36-.56,0a2.25,2.25,0,0,1-.08.52c0,.1-.12.44-.23.47s-.08-.78-.07-.92c0-.36-.54-.36-.57,0,0,.51-.17,1.54.64,1.5S192.15,289,192.17,288.51Z"/><path class="cls-64" d="M192.78,289.59a3.38,3.38,0,0,1,.28-1,3.17,3.17,0,0,1,.13.36.28.28,0,0,0,.47.12l.42-.43c.3.2.56-.1.89-.33a2,2,0,0,1,.47.65.28.28,0,0,0,.49-.28c-.16-.3-.45-.84-.8-.95-.17-.05-.87.28-.81.36a.28.28,0,0,0-.44-.05c-.11.1-.21.21-.31.32a1,1,0,0,0-.29-.41.29.29,0,0,0-.34,0,1,1,0,0,0-.21.19c0-.33-.57-.33-.55,0s0,.93,0,1.39C192.24,289.82,192.71,289.92,192.78,289.59Z"/><path class="cls-64" d="M195.19,287.22a9.65,9.65,0,0,1-.44-1.68c-.06-.35-.6-.2-.54.15a8.84,8.84,0,0,0,.44,1.68C194.77,287.71,195.31,287.56,195.19,287.22Z"/><path class="cls-64" d="M198.77,289q-3.53.86-7,1.78a.28.28,0,0,0,.15.54c2.34-.61,4.69-1.21,7-1.78C199.27,289.43,199.12,288.88,198.77,289Z"/><path class="cls-65" d="M202.83,295.72H169.05V241.78h33.78Zm-33.61-.16h33.44V241.94H169.22Z"/><path class="cls-66" d="M284.27,289.45a3,3,0,0,1-2.86-2.85V243.91a3,3,0,0,1,2.86-2.86h69.92a3,3,0,0,1,2.85,2.86V286.6a2.94,2.94,0,0,1-2.85,2.85Z"/><g class="cls-67"><g class="cls-68"><path class="cls-69" d="M361.58,283.79a20.05,20.05,0,1,1,20.05-20.05A20.07,20.07,0,0,1,361.58,283.79Zm0-39a18.94,18.94,0,1,0,18.94,18.94A19,19,0,0,0,361.58,244.8Z"/><path class="cls-69" d="M361.58,283.63a.56.56,0,0,1-.56-.56V244.24a.56.56,0,0,1,1.12,0v38.83A.56.56,0,0,1,361.58,283.63Z"/><path class="cls-69" d="M361.08,283.63a.54.54,0,0,1-.34-.12c-7.3-5.55-11.31-12.6-11.31-19.85s4-14.31,11.31-19.86a.56.56,0,0,1,.67.89c-7,5.34-10.87,12.07-10.87,19s3.86,13.63,10.87,19a.56.56,0,0,1,.11.79A.57.57,0,0,1,361.08,283.63Z"/><path class="cls-69" d="M361.75,283.63a.56.56,0,0,1-.34-1c7-5.33,10.87-12.07,10.87-19s-3.86-13.63-10.87-19a.57.57,0,0,1-.11-.78.56.56,0,0,1,.79-.11c7.29,5.55,11.31,12.61,11.31,19.86s-4,14.3-11.31,19.85A.54.54,0,0,1,361.75,283.63Z"/><path class="cls-69" d="M361.5,275.56c-7.25,0-14.31-4-19.86-11.31a.56.56,0,1,1,.89-.68c5.34,7,12.07,10.87,19,10.87s13.63-3.86,19-10.87a.56.56,0,1,1,.89.68C375.8,271.54,368.75,275.56,361.5,275.56Z"/><path class="cls-69" d="M380.91,264a.55.55,0,0,1-.45-.22c-5.33-7-12.07-10.87-19-10.87s-13.63,3.86-19,10.87a.56.56,0,0,1-.78.11.55.55,0,0,1-.11-.78c5.55-7.3,12.61-11.32,19.86-11.32h0c7.25,0,14.3,4,19.85,11.32a.56.56,0,0,1-.1.78A.62.62,0,0,1,380.91,264Z"/><path class="cls-69" d="M381.08,264.3h-39a.56.56,0,0,1,0-1.12h39a.56.56,0,0,1,0,1.12Z"/></g></g><path class="cls-24" d="M348.14,259v9.42a3.81,3.81,0,0,1-3.87,3.86h-7.9a3.8,3.8,0,0,1-3.86-3.86V259a3.8,3.8,0,0,1,3.86-3.86h7.9A3.92,3.92,0,0,1,348.14,259Z"/><path class="cls-70" d="M344.27,272.57h-7.9a4.08,4.08,0,0,1-4.13-4.12V259a4.08,4.08,0,0,1,4.13-4.12h7.9A4.18,4.18,0,0,1,348.4,259v9.42A4.08,4.08,0,0,1,344.27,272.57Zm-7.9-17.14a3.52,3.52,0,0,0-3.6,3.6v9.42a3.52,3.52,0,0,0,3.6,3.6h7.9a3.52,3.52,0,0,0,3.6-3.6V259a3.65,3.65,0,0,0-3.6-3.6Z"/><path class="cls-70" d="M342.93,261.82h-4.88a1.59,1.59,0,0,1-1.61-1.61v-5a.27.27,0,0,1,.53,0v5a1.06,1.06,0,0,0,1.08,1.08h4.88a1.06,1.06,0,0,0,1.08-1.08v-5a.25.25,0,0,1,.26-.26.26.26,0,0,1,.26.26v5A1.59,1.59,0,0,1,342.93,261.82Z"/><path class="cls-70" d="M344.1,272.57a.26.26,0,0,1-.26-.26v-5a1.06,1.06,0,0,0-1.08-1.08h-4.88a1.06,1.06,0,0,0-1.08,1.08v5a.26.26,0,0,1-.26.26.25.25,0,0,1-.26-.26v-5a1.59,1.59,0,0,1,1.6-1.61h4.88a1.59,1.59,0,0,1,1.6,1.61v5A.25.25,0,0,1,344.1,272.57Z"/><path class="cls-70" d="M338.22,266.19a.26.26,0,0,1-.26-.27v-4.36a.26.26,0,0,1,.26-.27.27.27,0,0,1,.26.27v4.36A.27.27,0,0,1,338.22,266.19Z"/><path class="cls-70" d="M342.59,266.19a.26.26,0,0,1-.26-.27v-4.36a.26.26,0,0,1,.26-.27.27.27,0,0,1,.26.27v4.36A.27.27,0,0,1,342.59,266.19Z"/><path class="cls-70" d="M340.4,272.57a.26.26,0,0,1-.26-.26v-6.39a.27.27,0,0,1,.53,0v6.39A.26.26,0,0,1,340.4,272.57Z"/><path class="cls-70" d="M340.4,261.82a.26.26,0,0,1-.26-.26v-6.39a.27.27,0,0,1,.53,0v6.39A.27.27,0,0,1,340.4,261.82Z"/><path class="cls-70" d="M336.54,268.37h-3.87a.26.26,0,0,1-.26-.26.26.26,0,0,1,.26-.26h3.87a.26.26,0,0,1,.26.26A.26.26,0,0,1,336.54,268.37Z"/><path class="cls-70" d="M348.14,268.37h-3.87a.26.26,0,0,1-.26-.26.25.25,0,0,1,.26-.26h3.87a.26.26,0,0,1,.26.26A.26.26,0,0,1,348.14,268.37Z"/><path class="cls-70" d="M348.14,259.63h-3.87a.26.26,0,0,1,0-.52h3.87a.26.26,0,0,1,0,.52Z"/><path class="cls-70" d="M336.54,259.63h-3.87a.26.26,0,1,1,0-.52h3.87a.26.26,0,1,1,0,.52Z"/><rect class="cls-45" x="284.94" y="255.17" width="36.13" height="3.36"/><rect class="cls-45" x="284.94" y="266.93" width="0.84" height="4.87"/><rect class="cls-45" x="286.45" y="266.93" width="2.69" height="4.87"/><rect class="cls-45" x="289.82" y="266.93" width="4.54" height="4.87"/><rect class="cls-45" x="294.86" y="266.93" width="2.18" height="4.87"/><rect class="cls-45" x="297.72" y="266.93" width="1.01" height="4.87"/><rect class="cls-45" x="299.23" y="266.93" width="5.71" height="4.87"/><rect class="cls-45" x="305.28" y="266.93" width="3.87" height="4.87"/><rect class="cls-45" x="309.65" y="266.93" width="0.67" height="4.87"/><rect class="cls-71" x="281.41" y="281.22" width="75.63" height="1.51"/><path class="cls-71" d="M286.45,249.12c-.33,0-.5,0-.67-.17s-.33-.17-.5-.34l.33-.33.34.33c.17,0,.34.17.51.17a.61.61,0,0,0,.5-.17c.17-.16.17-.16.17-.33s0-.17-.17-.34a.59.59,0,0,0-.34-.17h-.33a.88.88,0,0,1-.68-.33c-.16-.17-.16-.34-.16-.67v-.34c0-.17.16-.17.16-.34s.17-.17.34-.17h.5a1,1,0,0,1,.68.17c.17,0,.33.17.5.34l-.33.34c0-.17-.17-.17-.34-.17s-.34-.17-.51-.17-.33,0-.33.17c-.17,0-.17.17-.17.33s0,.17.17.34.17.17.33.17h.34a.87.87,0,0,1,.67.33c.17.17.17.34.17.68v.33c0,.17-.17.17-.17.34-.16,0-.16.17-.33.17A1.29,1.29,0,0,0,286.45,249.12Z"/><path class="cls-71" d="M293.18,246.6h0l-.34.5-.67,1.18-.67-1.18-.17-.5h0V249h-.51v-3.19h.68l.84,1.51h0l.84-1.51h.5V249h-.5Z"/><path class="cls-71" d="M299.06,249.12l-.34-.84h-1.17l-.34.84h-.5l1-3.2h.67l1,3.2Zm-.84-2.69h0l-.5,1.34h.84Z"/><path class="cls-71" d="M303.26,249.12h-.5v-3.2h1.34c.34,0,.51,0,.67.34.17.17.17.34.17.67a.62.62,0,0,1-.17.51c-.16.17-.33.17-.5.33l.67,1.35h-.5l-.67-1.18h-.68v1.18Zm.84-1.68c.17,0,.17,0,.34-.17a.59.59,0,0,0,.17-.34v-.16c0-.17,0-.17-.17-.34a.59.59,0,0,0-.34-.17h-.84v1h.84Z"/><path class="cls-71" d="M309.31,246.43v2.69h-.5v-2.69h-1v-.51h2.35v.51Z"/><path class="cls-71" d="M318.39,249.12a1.23,1.23,0,0,1-1.35-1.51c0-.34,0-.51.17-.68,0-.16.17-.33.34-.5l.33-.34c.17,0,.34-.17.51-.17.33,0,.5,0,.67.17l.5.51-.5.17a.59.59,0,0,0-.17-.34.6.6,0,0,0-.5-.17c-.17,0-.51,0-.51.17-.16.17-.16.34-.16.67v.51c0,.33,0,.5.16.67a.62.62,0,0,0,.51.17.6.6,0,0,0,.5-.17l.34-.34.33.17c-.16.17-.16.34-.5.5C318.89,249.12,318.72,249.12,318.39,249.12Z"/><path class="cls-71" d="M324.61,249.12l-.34-.84h-1.18l-.33.84h-.51l1-3.2h.67l1,3.2Zm-.84-2.69h0l-.51,1.34h.84Z"/><path class="cls-71" d="M328.81,249.12h-.51v-3.2h1.35c.33,0,.5,0,.67.34.17.17.17.34.17.67a.62.62,0,0,1-.17.51c-.17.17-.34.17-.5.33l.67,1.35H330l-.67-1.18h-.67v1.18Zm.84-1.68c.17,0,.17,0,.33-.17a.59.59,0,0,0,.17-.34v-.16c0-.17,0-.17-.17-.34a.55.55,0,0,0-.33-.17h-.84v1h.84Z"/><path class="cls-71" d="M334,245.92h1.17a.62.62,0,0,1,.51.17.36.36,0,0,1,.33.34c.17.17.17.34.34.5,0,.17.17.51.17.68,0,.33,0,.5-.17.67s-.17.33-.34.5-.33.17-.33.34c-.17,0-.34.17-.51.17H334Zm1,2.69a.64.64,0,0,0,.5-.16c.17-.17.17-.34.17-.68v-.5c0-.34,0-.5-.17-.67a.61.61,0,0,0-.5-.17h-.68v2.18Z"/><path class="cls-72" d="M416.5,139a49.16,49.16,0,0,0-5,4.84c4.11,3.56,19.46,11,36.45,9s18.27-7.58,18.27-7.58c-2.06-1.92-7.4-5.71-7.4-5.71"/><path class="cls-73" d="M416.5,139a32.38,32.38,0,0,1,7.58-4.39c4.34-1.73,3.52-3.74,4.57-12.88,0,0-4.52-6-4.8-9.32,0,0-4.24-1.55-4.47-7.94s2.28-5.3,2.28-5.3a19.05,19.05,0,0,1,7-17c8.72-7.36,22.79.09,25.67,5.07s3.74,9.63,2.42,14.29,1.19,9.23-2.7,16.72-6,8.5-9.41,9.87l.14,3.92a3.19,3.19,0,0,0,2,2.24c1.64.6,12.14,5.3,12.14,5.3-3.83,0-7.76,2.79-22,2.79S416.5,139,416.5,139"/><path class="cls-74" d="M444.68,132c-9.13-2.28-12-8.31-12-8.31,4.06,4.57,11.92,4.34,11.92,4.34Z"/><path class="cls-75" d="M421.61,99.16s3.84,1,4.66,6.8h.55l-.09-6.07Z"/><path class="cls-76" d="M446.64,134.28a119.68,119.68,0,0,1,12.15,5.3s-7.76,2.79-22,2.79-20.33-3.43-20.33-3.43a32.36,32.36,0,0,1,7.59-4.38s9.4,8,18.95,7.62,3.65-7.9,3.65-7.9"/><path class="cls-77" d="M456.28,106.69a10.49,10.49,0,0,0-4.66-1.27c-2.42,0-6.44,0-6.44,6.44,0,3.06,1.92,7.35,1.92,7.35"/><path class="cls-78" d="M442.67,107.84s-3-2.42-6-2.42c-3.56,0-5.53,1.18-5.53,3,0,3.15,3.2,3.88,3.2,3.88"/><path class="cls-79" d="M446.91,81.63c-.24,1.8-1.75,16.53,9.73,20.34,1.5-4.8.6-9.62-2.33-14.8C453.18,85.24,450.43,83.38,446.91,81.63Z"/><path class="cls-75" d="M421.61,99.16a19.08,19.08,0,0,1,7-17c8.73-7.36,22.79.09,25.67,5.07a21.3,21.3,0,0,1-9.59,11.92c-7.72,4.61-23.07,0-23.07,0"/></svg>