<svg id="Layer_1" data-name="Layer 1" xmlns="http://www.w3.org/2000/svg" xmlns:xlink="http://www.w3.org/1999/xlink" viewBox="0 0 482 416"><defs><style>.cls-1,.cls-11,.cls-16,.cls-21,.cls-22,.cls-30,.cls-38,.cls-39,.cls-40,.cls-43,.cls-52,.cls-54{fill:none;}.cls-12,.cls-2{fill:#231f20;}.cls-2{stroke:#a2a2a3;stroke-width:1.42px;}.cls-11,.cls-16,.cls-2,.cls-21,.cls-30,.cls-40,.cls-43,.cls-54{stroke-miterlimit:10;}.cls-3{fill:#444445;}.cls-4{fill:#80c0aa;}.cls-5{fill:#a2a2a3;}.cls-23,.cls-6{fill:#fff;}.cls-7{fill:#d7d7d7;}.cls-8{fill:#ef5253;}.cls-9{fill:#e7ab22;}.cls-10{fill:#9fcb3a;}.cls-11{stroke:#595a5a;stroke-width:0.36px;}.cls-13{fill:#818282;}.cls-14{fill:#3f4040;}.cls-15{fill:#4f4f4f;}.cls-16{stroke:#707171;stroke-width:0.27px;}.cls-17{clip-path:url(#clip-path);}.cls-18{fill:#d94a52;}.cls-19{fill:#f6adb7;}.cls-20{fill:#ad8468;}.cls-21{stroke:#80c0aa;stroke-width:1.07px;stroke-dasharray:0.11 3.25;}.cls-21,.cls-22,.cls-23,.cls-38,.cls-52{stroke-linecap:round;}.cls-22,.cls-23{stroke:#828282;stroke-width:3.32px;}.cls-22,.cls-23,.cls-38,.cls-39{stroke-linejoin:round;}.cls-24{fill:#80c1ab;}.cls-25{fill:#d36c71;}.cls-26{clip-path:url(#clip-path-2);}.cls-27{fill:#d1d0cf;}.cls-28{fill:#dbdbda;}.cls-29{fill:#d1d1d1;}.cls-30{stroke:#b4b4b5;}.cls-31{fill:#838383;}.cls-32{clip-path:url(#clip-path-6);}.cls-33{fill:#595a5a;}.cls-34{fill:#727373;}.cls-35{fill:#545757;}.cls-36{fill:#383a3a;}.cls-37{fill:#92c5b0;}.cls-38,.cls-39{stroke:#779887;stroke-width:0.5px;}.cls-40{stroke:#727373;stroke-width:0.34px;}.cls-41{fill:#bc831e;}.cls-42{fill:#edeced;}.cls-43{stroke:#838383;}.cls-44{fill:#c1c1c1;}.cls-45{fill:#d6d6d6;}.cls-46{fill:#8a8a8a;}.cls-47{fill:#363636;}.cls-48{clip-path:url(#clip-path-7);}.cls-49{fill:#2e2e2e;}.cls-50{fill:#686868;}.cls-51{fill:#9e9e9e;}.cls-52,.cls-54{stroke:#81c1ab;}.cls-52{stroke-miterlimit:10;stroke-width:0.75px;}.cls-53{clip-path:url(#clip-path-9);}.cls-54{stroke-width:3px;}.cls-55{clip-path:url(#clip-path-11);}.cls-56{fill:#81c1ab;}.cls-57{clip-path:url(#clip-path-13);}.cls-58{clip-path:url(#clip-path-15);}</style><clipPath id="clip-path"><path class="cls-1" d="M393.52,298.21h-4.7a7.82,7.82,0,0,1-7.14-5.62,47.36,47.36,0,0,1,0-16.79,7.81,7.81,0,0,1,7.14-5.63h4.7a7.8,7.8,0,0,1,7.14,5.63,46.9,46.9,0,0,1,0,16.79C400,295.78,396.46,298.21,393.52,298.21Z"/></clipPath><clipPath id="clip-path-2"><circle class="cls-1" cx="83.51" cy="227.1" r="26.82"/></clipPath><clipPath id="clip-path-6"><rect class="cls-1" x="58.23" y="264.46" width="54.96" height="51.07" rx="6.23"/></clipPath><clipPath id="clip-path-7"><path class="cls-1" d="M77.74,81.58s-2,16.3,9.41,20l4.7-.68-.91-19.28-13.2,0Z"/></clipPath><clipPath id="clip-path-9"><path class="cls-1" d="M163.23,81.35s-2.07,16.35,9.43,20.06l4.72-.68-.91-19.34-13.24,0Z"/></clipPath><clipPath id="clip-path-11"><path class="cls-1" d="M248.68,81.35s-2.06,16.35,9.44,20.06l4.72-.68-.92-19.34-13.24,0Z"/></clipPath><clipPath id="clip-path-13"><path class="cls-1" d="M332.3,81.35s-2.06,16.35,9.44,20.07l4.72-.69-.92-19.34-13.24,0Z"/></clipPath><clipPath id="clip-path-15"><path class="cls-1" d="M419.6,81.35S417.53,97.7,429,101.42l4.71-.69-.91-19.34Z"/></clipPath></defs><path class="cls-2" d="M363,283.94H243.41V210.4a4.16,4.16,0,0,1,4.2-4.2H358.76a4.15,4.15,0,0,1,4.2,4.2Z"/><circle class="cls-3" cx="303.19" cy="210.65" r="1.18"/><rect class="cls-4" x="249.37" y="214.84" width="107.63" height="62.8"/><path class="cls-5" d="M372,287.72a4.49,4.49,0,0,1-4.45,4.45H238.88a4.48,4.48,0,0,1-4.45-4.45v-4.45H372Z"/><path class="cls-6" d="M334.84,269.75H271.45a4.16,4.16,0,0,1-4.2-4.2V226.09a4.15,4.15,0,0,1,4.2-4.19h63.39a4.14,4.14,0,0,1,4.19,4.19v39.46A4.15,4.15,0,0,1,334.84,269.75Z"/><path class="cls-7" d="M339,227.19v-2.27a3,3,0,0,0-3-3H270.28a3,3,0,0,0-3,3v2.27Z"/><circle class="cls-8" cx="270.19" cy="224.58" r="0.92"/><circle class="cls-9" cx="273.21" cy="224.58" r="0.92"/><circle class="cls-10" cx="275.98" cy="224.58" r="0.92"/><rect class="cls-11" x="285.22" y="239.28" width="35.85" height="4.2"/><rect class="cls-11" x="285.22" y="246.66" width="35.85" height="4.2"/><path class="cls-12" d="M286.9,249.43l.25-.5-.5-.25.08-.34.59.09.08-.59h.42l.09.59.58-.09.09.34-.51.25.34.5-.34.26-.42-.42-.42.42Z"/><path class="cls-12" d="M289.17,249.43l.25-.5-.51-.25.09-.34.58.09.09-.59h.42l.08.59.59-.09.08.34-.5.25.34.5-.34.26-.42-.42-.42.42Z"/><path class="cls-12" d="M291.35,249.43l.25-.5-.5-.25.08-.34.59.09.08-.59h.42l.09.59.58-.09.09.34-.51.25.34.5-.34.26-.42-.42-.42.42Z"/><path class="cls-12" d="M293.61,249.43l.26-.5-.51-.25.09-.34.58.09.09-.59h.42l.08.59.59-.09.08.34-.5.25.34.5-.34.26-.42-.42-.42.42Z"/><path class="cls-12" d="M295.88,249.43l.25-.5-.5-.25.08-.34.59.09.09-.59h.42l.08.59.59-.09.08.34-.5.25.33.5-.33.26-.42-.42-.42.42Z"/><path class="cls-12" d="M298.15,249.43l.25-.5-.5-.25.08-.34.59.09.08-.59h.42l.09.59.58-.09.09.34-.51.25.34.5-.34.26-.42-.42-.42.42Z"/><path class="cls-13" d="M312.25,284.53a1.32,1.32,0,0,1-1.34,1.34H295.46a1.33,1.33,0,0,1-1.34-1.34v-1.35h18.22v1.35Z"/><path class="cls-12" d="M396.46,257H378a4.16,4.16,0,0,1-4.2-4.2V210.4a4.16,4.16,0,0,1,4.2-4.2h18.47a4.16,4.16,0,0,1,4.2,4.2v42.39A4.16,4.16,0,0,1,396.46,257Z"/><rect class="cls-4" x="376.81" y="210.65" width="20.9" height="40.38"/><circle class="cls-3" cx="387.23" cy="253.88" r="1.18"/><rect class="cls-3" x="384.29" y="208.13" width="5.96" height="0.59"/><path class="cls-12" d="M379.33,219.29c0-1.17.59-1.84,1.35-1.84s1.34.67,1.34,1.84-.59,1.85-1.34,1.85S379.33,220.47,379.33,219.29Zm2.19,0c0-.84-.26-1.25-.76-1.25s-.75.41-.75,1.25.25,1.26.75,1.26S381.52,220.05,381.52,219.29Z"/><path class="cls-12" d="M383.7,218h-1.09v-.51h2.85V218h-1.09v3h-.59v-3Z"/><path class="cls-12" d="M386.05,217.53h1.18c.75,0,1.34.25,1.34,1.09a1.2,1.2,0,0,1-1.34,1.18h-.51v1.26h-.59v-3.53Zm1.09,1.68c.5,0,.76-.17.76-.67s-.26-.59-.76-.59h-.5v1.26Z"/><rect class="cls-6" x="379.5" y="223.41" width="3.27" height="4.28"/><rect class="cls-6" x="383.62" y="223.41" width="3.27" height="4.28"/><rect class="cls-6" x="387.64" y="223.41" width="3.27" height="4.28"/><rect class="cls-6" x="391.67" y="223.41" width="3.27" height="4.28"/><path class="cls-14" d="M393.52,298.21h-4.7a7.82,7.82,0,0,1-7.14-5.62,47.36,47.36,0,0,1,0-16.79,7.81,7.81,0,0,1,7.14-5.63h4.7a7.8,7.8,0,0,1,7.14,5.63,46.9,46.9,0,0,1,0,16.79C400,295.78,396.46,298.21,393.52,298.21Z"/><path class="cls-15" d="M391.51,290h-.67a5.42,5.42,0,0,1-5.38-5.38v-7.72a5.42,5.42,0,0,1,5.38-5.38h.67a5.41,5.41,0,0,1,5.37,5.38v7.72A5.41,5.41,0,0,1,391.51,290Z"/><path class="cls-16" d="M391.17,289.23a5,5,0,0,1-4.95-5v-7a5,5,0,1,1,9.9,0v7A5,5,0,0,1,391.17,289.23Z"/><g class="cls-17"><path class="cls-15" d="M379.08,296h-.67a5.4,5.4,0,0,1-5.37-5.37V280a5.41,5.41,0,0,1,5.37-5.37h.67a5.41,5.41,0,0,1,5.37,5.37v10.67A5.4,5.4,0,0,1,379.08,296Z"/><path class="cls-15" d="M403.93,296h-.75a5.41,5.41,0,0,1-5.38-5.37V280a5.42,5.42,0,0,1,5.38-5.37h.67a5.41,5.41,0,0,1,5.37,5.37v10.67A5.28,5.28,0,0,1,403.93,296Z"/></g><path class="cls-14" d="M387.31,283v-5.8a3.9,3.9,0,0,1,3.86-3.86h0a3.9,3.9,0,0,1,3.86,3.86V283Z"/><line class="cls-16" x1="387.31" y1="283.94" x2="394.95" y2="283.94"/><line class="cls-16" x1="388.23" y1="284.86" x2="394.03" y2="284.86"/><line class="cls-16" x1="388.99" y1="285.79" x2="393.27" y2="285.79"/><line class="cls-16" x1="389.91" y1="286.71" x2="392.43" y2="286.71"/><path class="cls-8" d="M388.32,281.67v-4.28a2.8,2.8,0,0,1,2.77-2.77h0a2.8,2.8,0,0,1,2.77,2.77v4.28Z"/><path class="cls-14" d="M388.32,281.67a4.24,4.24,0,0,1,2.77-1.09,3.94,3.94,0,0,1,2.77,1.09Z"/><circle class="cls-18" cx="391.17" cy="275.96" r="1.01"/><circle class="cls-19" cx="391.17" cy="275.96" r="0.34"/><path class="cls-20" d="M403.76,292.17V297a.63.63,0,1,0,1.26,0V294c0-2.18,3.87-2.43,4,.51-.25,1.93-.42,3.86-.58,5.79-.68,8.06-.93,15.37-10.92,15.37-11.92.08-11.67-10.83-11.67-19.57,0-2.85.17-3.86,2.94-5.2a.58.58,0,0,0,.34-.59V278.48c0-2.6,4-2.6,4,0v19a.63.63,0,1,0,1.26-.09v-7.89c0-2.1,4-2.35,4,.59v4.78a.63.63,0,1,0,1.25,0v-3.19c.09-2.26,4.12-2.26,4,.51Z"/><path class="cls-14" d="M391.84,269.58a.17.17,0,1,1,0-.33h.67l-.08-.93h-.59a.17.17,0,1,1,0-.33h.51l-.09-.92h-.42a.19.19,0,0,1-.17-.17.18.18,0,0,1,.17-.17h.42l-.08-.5h-2l-.08.5h.42a.18.18,0,0,1,.17.17.19.19,0,0,1-.17.17h-.42L390,268h.5a.17.17,0,1,1,0,.33h-.59l-.08.93h.67a.17.17,0,1,1,0,.33h-.76l-.08.59h2.94l-.09-.59Z"/><path class="cls-14" d="M391.59,266.48h-.92V262.7a.4.4,0,0,1,.42-.42h.08a.4.4,0,0,1,.42.42Z"/><circle class="cls-21" cx="391.17" cy="278.15" r="11.67"/><polyline class="cls-22" points="139.36 321.07 152.44 234.34 160.89 234.34 174.76 320.18"/><line class="cls-22" x1="132.6" y1="321.07" x2="181.7" y2="321.07"/><polyline class="cls-22" points="139.36 321.07 171.21 298.83 146.48 277.39 164.09 260.94 149.06 260.94 167.82 277.39 143.45 298.83 172.63 319.38"/><line class="cls-22" x1="156.53" y1="260.94" x2="156.53" y2="215.04"/><circle class="cls-23" cx="156.35" cy="224.82" r="4.09"/><path class="cls-24" d="M133,222.69a19.39,19.39,0,0,1,6.22-14.23L137,206.05a22.29,22.29,0,0,0-7.12,16.64A23.63,23.63,0,0,0,137,239.32l2.22-2.4A19.28,19.28,0,0,1,133,222.69Z"/><path class="cls-24" d="M180.19,222.69A19.4,19.4,0,0,1,174,236.92l2.23,2.4a22.19,22.19,0,0,0,7.11-16.45,23.46,23.46,0,0,0-7.11-16.64l-2.23,2.4A19,19,0,0,1,180.19,222.69Z"/><path class="cls-24" d="M182.41,202.14l-2.22,2.22a25.29,25.29,0,0,1,8.09,18.33A24.45,24.45,0,0,1,180.19,241l2.22,2.4a28.18,28.18,0,0,0,0-41.27Z"/><path class="cls-24" d="M141.58,222.69a13.56,13.56,0,0,1,4.1-9.52l-2.23-2.4a16.36,16.36,0,0,0,0,24l2.23-2.41A14.16,14.16,0,0,1,141.58,222.69Z"/><path class="cls-24" d="M130.91,243.5l2.22-2.4A25.27,25.27,0,0,1,125,222.78a24.48,24.48,0,0,1,8.09-18.33l-2.22-2.4a28.75,28.75,0,0,0-9,20.64A28.2,28.2,0,0,0,130.91,243.5Z"/><path class="cls-24" d="M171.56,222.69a13.63,13.63,0,0,1-4.09,9.52l2.22,2.4a16.36,16.36,0,0,0,0-24l-2.22,2.4A13.59,13.59,0,0,1,171.56,222.69Z"/><circle class="cls-7" cx="83.51" cy="227.1" r="26.82"/><path class="cls-25" d="M97.47,224.73a.57.57,0,0,0-.59-.59H87.06a.58.58,0,0,1-.59-.6v-9.81a.57.57,0,0,0-.59-.59H81.31a.57.57,0,0,0-.59.59v9.81a.59.59,0,0,1-.6.6H70.31a.57.57,0,0,0-.59.59v4.57a.57.57,0,0,0,.59.59h9.81a.58.58,0,0,1,.6.59v9.82a.57.57,0,0,0,.59.59h4.57a.57.57,0,0,0,.59-.59v-9.73a.57.57,0,0,1,.59-.59h9.82a.58.58,0,0,0,.59-.6Z"/><g class="cls-26"><ellipse class="cls-27" cx="83.51" cy="254.43" rx="26.82" ry="9.22"/></g><g class="cls-26"><ellipse class="cls-28" cx="83.51" cy="200.87" rx="26.82" ry="9.22"/></g><g class="cls-26"><ellipse class="cls-29" cx="110.33" cy="227.69" rx="9.22" ry="26.82"/></g><g class="cls-26"><ellipse class="cls-29" cx="56.77" cy="227.69" rx="9.22" ry="26.82"/></g><path class="cls-30" d="M83.51,249.52c-8,0-15-1.86-17.77-4.65-6.18-6.18-6.18-29.45,0-35.54,2.79-2.79,9.81-4.66,17.77-4.66s15,1.87,17.77,4.66,4.65,9.81,4.65,17.77-1.86,15-4.65,17.77S91.46,249.52,83.51,249.52Z"/><rect class="cls-31" x="58.23" y="264.46" width="54.96" height="51.07" rx="6.23"/><g class="cls-32"><rect class="cls-33" x="55.29" y="314.25" width="60.29" height="2.98"/><rect class="cls-5" x="55.29" y="262.7" width="60.29" height="2.98"/><rect class="cls-34" x="55.29" y="262.7" width="5.41" height="54.16"/><rect class="cls-34" x="110.57" y="262.7" width="5.41" height="54.16"/></g><rect class="cls-35" x="64.87" y="305.86" width="41.11" height="4.31" rx="1.98"/><rect class="cls-36" x="66.23" y="307.73" width="38.39" height="0.58"/><path class="cls-37" d="M69.66,307.73h31.53a2.74,2.74,0,0,1,2.74,2.74v10.12a0,0,0,0,1,0,0h-37a0,0,0,0,1,0,0V310.46A2.74,2.74,0,0,1,69.66,307.73Z" transform="translate(170.85 628.31) rotate(180)"/><path class="cls-38" d="M102.56,319.68a.38.38,0,0,0,.38-.38v-4.22l-4.6,4.6Z"/><path class="cls-38" d="M68.13,319.68a.38.38,0,0,1-.38-.38v-4.22l4.6,4.6Z"/><polyline class="cls-38" points="94.98 316.38 95.67 317.23 75.02 317.23 75.71 316.38"/><polyline class="cls-38" points="75.71 316.38 75.02 315.53 95.67 315.53 94.98 316.38"/><circle class="cls-38" cx="74.19" cy="316.43" r="0.47"/><circle class="cls-38" cx="96.58" cy="316.43" r="0.47"/><polyline class="cls-39" points="102.94 307.73 102.94 313.62 96.88 319.68 73.81 319.68 67.75 313.62 67.75 307.73"/><path class="cls-37" d="M100.2,270.5H104a1.7,1.7,0,0,1,1.7,1.7v0a1.7,1.7,0,0,1-1.7,1.7H100.2a.69.69,0,0,1-.69-.69v-2A.69.69,0,0,1,100.2,270.5Z"/><path class="cls-9" d="M100.2,277.27H104a1.7,1.7,0,0,1,1.7,1.7v0a1.7,1.7,0,0,1-1.7,1.7H100.2a.69.69,0,0,1-.69-.69v-2a.69.69,0,0,1,.69-.69Z"/><path class="cls-25" d="M100.2,284H104a1.7,1.7,0,0,1,1.7,1.7v0a1.7,1.7,0,0,1-1.7,1.7H100.2a.69.69,0,0,1-.69-.69v-2A.69.69,0,0,1,100.2,284Z"/><line class="cls-40" x1="100.06" y1="275.66" x2="104.64" y2="275.66"/><line class="cls-40" x1="100.06" y1="282.32" x2="104.64" y2="282.32"/><rect class="cls-35" x="89.44" y="292.64" width="16.54" height="3.06" rx="1.29"/><rect class="cls-36" x="90.06" y="293.88" width="15.36" height="0.28"/><path class="cls-9" d="M91.17,294.17h13.15a0,0,0,0,1,0,0v8.08a.69.69,0,0,1-.69.69H91.86a.69.69,0,0,1-.69-.69v-8.08A0,0,0,0,1,91.17,294.17Z"/><rect class="cls-41" x="92.78" y="294.16" width="0.38" height="8.78"/><rect class="cls-41" x="93.44" y="294.16" width="0.38" height="8.78"/><rect class="cls-41" x="94.1" y="294.16" width="0.38" height="8.78"/><circle class="cls-41" cx="93.63" cy="299.66" r="1.5"/><rect class="cls-42" x="64.5" y="270.5" width="31.35" height="16.94" rx="1.77"/><rect class="cls-35" x="64.5" y="292.64" width="21.5" height="9.4" rx="1.57"/><line class="cls-43" x1="71.65" y1="291.77" x2="71.65" y2="302.94"/><line class="cls-43" x1="78.78" y1="292.26" x2="78.78" y2="303.43"/><line class="cls-43" x1="87.92" y1="295.73" x2="63.74" y2="295.73"/><line class="cls-43" x1="87.07" y1="298.98" x2="62.9" y2="298.98"/><rect class="cls-36" x="100.06" y="294.02" width="2.56" height="8.91"/><g id="Group_2455" data-name="Group 2455"><g id="Group_2453" data-name="Group 2453"><path id="Path_2321" data-name="Path 2321" class="cls-44" d="M47,139a48.42,48.42,0,0,0-5,4.84c4.11,3.56,19.46,11,36.44,9s18.27-7.58,18.27-7.58c-2-1.92-7.4-5.71-7.4-5.71"/><path id="Path_2322" data-name="Path 2322" class="cls-45" d="M47,139a32,32,0,0,1,7.58-4.39c4.34-1.73,3.52-3.74,4.57-12.88,0,0-4.52-6-4.8-9.32,0,0-4.25-1.55-4.47-7.94s2.28-5.3,2.28-5.3a19.05,19.05,0,0,1,7-17c8.72-7.36,22.79.09,25.66,5.06s3.75,9.64,2.43,14.3,1.18,9.23-2.7,16.72-6,8.49-9.41,9.86l.14,3.93a3.2,3.2,0,0,0,2,2.24c1.65.59,12.15,5.3,12.15,5.3-3.84,0-7.76,2.78-22,2.78S47,139,47,139"/><path id="Path_2323" data-name="Path 2323" class="cls-46" d="M75.14,132c-9.14-2.28-12-8.31-12-8.31,4.06,4.57,11.92,4.34,11.92,4.34Z"/><path id="Path_2324" data-name="Path 2324" class="cls-47" d="M52.07,99.16s3.84,1,4.66,6.81h.55l-.09-6.08Z"/><g id="Group_2452" data-name="Group 2452"><g id="Group_2446" data-name="Group 2446"><g id="Group_2445" data-name="Group 2445"><g id="Group_2444" data-name="Group 2444"><g id="Group_2443" data-name="Group 2443"><g class="cls-48"><g id="Group_2442" data-name="Group 2442"><path id="Path_2325" data-name="Path 2325" class="cls-49" d="M47,139a32,32,0,0,1,7.58-4.39c4.34-1.73,3.52-3.74,4.57-12.88,0,0-4.52-6-4.8-9.32,0,0-4.25-1.55-4.47-7.94s2.28-5.3,2.28-5.3a19.05,19.05,0,0,1,7-17c8.72-7.35,22.79.09,25.66,5.07s3.75,9.63,2.43,14.29,1.18,9.23-2.7,16.72-6,8.49-9.41,9.86l.14,3.93a3.2,3.2,0,0,0,2,2.24c1.65.59,9.59,3.24,12.15,5.3,0,0-7.76,2.78-22,2.78S47,139,47,139"/></g></g></g></g></g></g><g id="Group_2451" data-name="Group 2451"><g id="Group_2450" data-name="Group 2450"><g id="Group_2449" data-name="Group 2449"><g id="Group_2448" data-name="Group 2448"><g class="cls-48"><g id="Group_2447" data-name="Group 2447"><path id="Path_2327" data-name="Path 2327" class="cls-50" d="M75.14,132c-9.14-2.28-12-8.31-12-8.31,4.06,4.57,11.92,4.34,11.92,4.34Z"/></g></g></g></g></g></g></g><path id="Path_2329" data-name="Path 2329" class="cls-47" d="M52.07,99.16a19.08,19.08,0,0,1,7-17c8.72-7.35,22.79.09,25.67,5.07a21.33,21.33,0,0,1-9.59,11.92c-7.72,4.61-23.07,0-23.07,0"/><path id="Path_2330" data-name="Path 2330" class="cls-51" d="M77.1,134.28a119.68,119.68,0,0,1,12.15,5.3s-7.76,2.79-22,2.79-20.33-3.43-20.33-3.43a32.24,32.24,0,0,1,7.59-4.38s9.4,8,19,7.63,3.65-7.9,3.65-7.9"/></g><g id="Group_2454" data-name="Group 2454"><ellipse id="Ellipse_316" data-name="Ellipse 316" class="cls-52" cx="75.31" cy="110.72" rx="21.47" ry="14.89" transform="matrix(0.15, -0.99, 0.99, 0.15, -45.52, 168.44)"/><ellipse id="Ellipse_317" data-name="Ellipse 317" class="cls-52" cx="75.31" cy="110.72" rx="17.82" ry="12.35" transform="translate(-45.52 168.44) rotate(-81.31)"/><ellipse id="Ellipse_318" data-name="Ellipse 318" class="cls-52" cx="75.31" cy="110.72" rx="14.17" ry="9.82" transform="matrix(0.15, -0.99, 0.99, 0.15, -45.52, 168.44)"/><ellipse id="Ellipse_319" data-name="Ellipse 319" class="cls-52" cx="75.31" cy="110.72" rx="10.51" ry="7.29" transform="translate(-45.52 168.44) rotate(-81.31)"/><ellipse id="Ellipse_320" data-name="Ellipse 320" class="cls-52" cx="75.31" cy="110.72" rx="6.86" ry="4.75" transform="translate(-45.52 168.44) rotate(-81.31)"/><ellipse id="Ellipse_321" data-name="Ellipse 321" class="cls-52" cx="75.31" cy="110.72" rx="3.21" ry="2.22" transform="matrix(0.15, -0.99, 0.99, 0.15, -45.52, 168.44)"/></g></g><g id="Group_2535" data-name="Group 2535"><g id="Group_2533" data-name="Group 2533"><g id="Group_2532" data-name="Group 2532"><path id="Path_2398" data-name="Path 2398" class="cls-44" d="M132.34,138.94a49.76,49.76,0,0,0-5,4.86c4.12,3.57,19.52,11.09,36.56,9.07s18.33-7.61,18.33-7.61c-2.06-1.92-7.42-5.72-7.42-5.72"/><path id="Path_2399" data-name="Path 2399" class="cls-45" d="M132.34,138.94a33,33,0,0,1,7.61-4.4c4.35-1.74,3.53-3.75,4.58-12.92,0,0-4.54-6.05-4.81-9.35,0,0-4.26-1.56-4.49-8S137.52,99,137.52,99a19.15,19.15,0,0,1,7-17c8.75-7.37,22.86.1,25.75,5.09s3.76,9.67,2.43,14.34,1.19,9.26-2.71,16.77-6,8.52-9.43,9.9l.13,3.94a3.2,3.2,0,0,0,2,2.24c1.65.6,12.19,5.32,12.19,5.32-3.85.05-7.79,2.79-22.08,2.79s-20.44-3.39-20.44-3.39"/><path id="Path_2400" data-name="Path 2400" class="cls-46" d="M160.61,132c-9.16-2.29-12.05-8.34-12.05-8.34,4.08,4.58,12,4.35,12,4.35Z"/><path id="Path_2401" data-name="Path 2401" class="cls-47" d="M137.47,99s3.85,1,4.68,6.82h.55l-.09-6.09Z"/><g id="Group_2531" data-name="Group 2531"><g id="Group_2525" data-name="Group 2525"><g id="Group_2524" data-name="Group 2524"><g id="Group_2523" data-name="Group 2523"><g id="Group_2522" data-name="Group 2522"><g class="cls-53"><g id="Group_2521" data-name="Group 2521"><path id="Path_2402" data-name="Path 2402" class="cls-49" d="M132.34,138.94a33,33,0,0,1,7.61-4.4c4.35-1.74,3.53-3.75,4.58-12.92,0,0-4.54-6.05-4.81-9.35,0,0-4.26-1.56-4.49-8S137.52,99,137.52,99a19.15,19.15,0,0,1,7-17c8.75-7.37,22.86.1,25.75,5.09s3.76,9.67,2.43,14.34,1.19,9.26-2.71,16.77-6,8.52-9.43,9.9l.13,3.94a3.2,3.2,0,0,0,2,2.24c1.65.6,9.63,3.26,12.19,5.32,0,0-7.79,2.79-22.08,2.79s-20.44-3.39-20.44-3.39"/></g></g></g></g></g></g><g id="Group_2530" data-name="Group 2530"><g id="Group_2529" data-name="Group 2529"><g id="Group_2528" data-name="Group 2528"><g id="Group_2527" data-name="Group 2527"><g class="cls-53"><g id="Group_2526" data-name="Group 2526"><path id="Path_2404" data-name="Path 2404" class="cls-50" d="M160.61,132c-9.16-2.3-12.05-8.34-12.05-8.34,4.08,4.58,12,4.35,12,4.35Z"/></g></g></g></g></g></g></g><path id="Path_2406" data-name="Path 2406" class="cls-47" d="M137.47,99a19.15,19.15,0,0,1,7-17c8.76-7.38,22.87.09,25.75,5.09a21.35,21.35,0,0,1-9.62,12c-7.74,4.62-23.14,0-23.14,0"/><path id="Path_2407" data-name="Path 2407" class="cls-51" d="M162.58,134.22a119.3,119.3,0,0,1,12.19,5.32s-7.79,2.79-22.08,2.79-20.39-3.43-20.39-3.43a32,32,0,0,1,7.6-4.4s9.44,8.06,19,7.65,3.66-7.93,3.66-7.93"/></g></g><g id="Group_2534" data-name="Group 2534"><circle id="Ellipse_367" data-name="Ellipse 367" class="cls-54" cx="169.59" cy="112.09" r="7.09"/><line id="Line_76" data-name="Line 76" class="cls-54" x1="173.75" y1="117.82" x2="180.27" y2="124.33"/></g></g><g id="Group_2550" data-name="Group 2550"><g id="Group_2549" data-name="Group 2549"><g id="Group_2548" data-name="Group 2548"><path id="Path_2408" data-name="Path 2408" class="cls-44" d="M217.8,138.94a48.82,48.82,0,0,0-5,4.86c4.13,3.57,19.52,11.09,36.57,9.07s18.33-7.61,18.33-7.61c-2.07-1.92-7.43-5.72-7.43-5.72"/><path id="Path_2409" data-name="Path 2409" class="cls-45" d="M217.8,138.94a32.59,32.59,0,0,1,7.61-4.4c4.35-1.74,3.52-3.76,4.58-12.92,0,0-4.54-6.05-4.81-9.35,0,0-4.27-1.56-4.49-8S223,99,223,99a19.15,19.15,0,0,1,7-17c8.75-7.37,22.86.1,25.75,5.09s3.75,9.67,2.43,14.34,1.19,9.26-2.71,16.77-6,8.52-9.44,9.9l.14,3.94a3.18,3.18,0,0,0,2,2.24c1.65.6,12.19,5.32,12.19,5.32-3.85,0-7.79,2.79-22.09,2.79s-20.43-3.39-20.43-3.39"/><path id="Path_2410" data-name="Path 2410" class="cls-46" d="M246.07,132c-9.16-2.3-12-8.34-12-8.34,4.08,4.58,12,4.35,12,4.35Z"/><path id="Path_2411" data-name="Path 2411" class="cls-47" d="M222.93,99s3.85,1,4.67,6.82h.55l-.09-6.09Z"/><g id="Group_2547" data-name="Group 2547"><g id="Group_2541" data-name="Group 2541"><g id="Group_2540" data-name="Group 2540"><g id="Group_2539" data-name="Group 2539"><g id="Group_2538" data-name="Group 2538"><g class="cls-55"><g id="Group_2537" data-name="Group 2537"><path id="Path_2412" data-name="Path 2412" class="cls-49" d="M217.8,138.94a32.59,32.59,0,0,1,7.61-4.4c4.35-1.74,3.52-3.76,4.58-12.92,0,0-4.54-6.05-4.81-9.35,0,0-4.27-1.56-4.49-8S223,99,223,99a19.15,19.15,0,0,1,7-17c8.75-7.37,22.86.1,25.75,5.09s3.75,9.67,2.43,14.34,1.19,9.26-2.71,16.77-6,8.52-9.44,9.9l.14,3.94a3.18,3.18,0,0,0,2,2.24c1.65.6,9.62,3.26,12.19,5.32,0,0-7.79,2.79-22.09,2.79s-20.43-3.39-20.43-3.39"/></g></g></g></g></g></g><g id="Group_2546" data-name="Group 2546"><g id="Group_2545" data-name="Group 2545"><g id="Group_2544" data-name="Group 2544"><g id="Group_2543" data-name="Group 2543"><g class="cls-55"><g id="Group_2542" data-name="Group 2542"><path id="Path_2414" data-name="Path 2414" class="cls-50" d="M246.07,132c-9.16-2.3-12-8.34-12-8.34,4.08,4.58,12,4.35,12,4.35Z"/></g></g></g></g></g></g></g><path id="Path_2416" data-name="Path 2416" class="cls-47" d="M222.93,99a19.15,19.15,0,0,1,7-17c8.75-7.38,22.87.09,25.75,5.09a21.35,21.35,0,0,1-9.62,12c-7.74,4.62-23.14,0-23.14,0"/><path id="Path_2417" data-name="Path 2417" class="cls-51" d="M248,134.22a119.3,119.3,0,0,1,12.19,5.32s-7.79,2.79-22.09,2.79-20.39-3.44-20.39-3.44a32.61,32.61,0,0,1,7.61-4.39s9.44,8.06,19,7.65,3.67-7.93,3.67-7.93"/></g></g><g id="thumbs-up-solid"><path id="Path_2408-2" data-name="Path 2408-2" class="cls-56" d="M258.73,108.91a29.38,29.38,0,0,1-2.69-5.58.72.72,0,0,0-.94-.42.37.37,0,0,0-.14.07,2,2,0,0,0-1,1.64v6.09h-5.11a1,1,0,0,0-1,1v0a18.26,18.26,0,0,0,.9,5.08A12.44,12.44,0,0,0,251,121a1,1,0,0,0,.74.33h3.88c1.27,0,3.52-1,5.33-2a.94.94,0,0,0,.49-.85v-6.83a.93.93,0,0,0-.52-.84A6.69,6.69,0,0,1,258.73,108.91Z"/><path id="Path_2409-2" data-name="Path 2409-2" class="cls-56" d="M263.33,109.46a.63.63,0,0,0-.63.62h0v10a.63.63,0,0,0,.63.62h3.52a.85.85,0,0,0,.85-.85h0v-9.53a.85.85,0,0,0-.85-.85h-3.52Z"/></g></g><g id="Group_2598" data-name="Group 2598"><g id="Group_2597" data-name="Group 2597"><g id="Group_2596" data-name="Group 2596"><path id="Path_2454" data-name="Path 2454" class="cls-44" d="M301.42,138.94a48.82,48.82,0,0,0-5,4.86c4.13,3.57,19.52,11.09,36.57,9.07s18.33-7.61,18.33-7.61c-2.07-1.92-7.43-5.72-7.43-5.72"/><path id="Path_2455" data-name="Path 2455" class="cls-45" d="M301.42,138.94a32.73,32.73,0,0,1,7.6-4.4c4.36-1.74,3.53-3.75,4.59-12.92,0,0-4.54-6.05-4.81-9.35,0,0-4.27-1.56-4.49-8S306.6,99,306.6,99a19.15,19.15,0,0,1,7-17c8.75-7.37,22.86.1,25.75,5.09s3.75,9.67,2.42,14.34,1.2,9.26-2.7,16.77-6,8.52-9.44,9.9l.14,3.94a3.18,3.18,0,0,0,2,2.24c1.65.6,12.19,5.32,12.19,5.32-3.85.05-7.79,2.8-22.09,2.8s-20.43-3.4-20.43-3.4"/><path id="Path_2456" data-name="Path 2456" class="cls-46" d="M329.69,132c-9.16-2.29-12.05-8.34-12.05-8.34,4.08,4.58,12,4.35,12,4.35Z"/><path id="Path_2457" data-name="Path 2457" class="cls-47" d="M306.55,99s3.85,1,4.67,6.82h.55l-.09-6.09Z"/><g id="Group_2595" data-name="Group 2595"><g id="Group_2589" data-name="Group 2589"><g id="Group_2588" data-name="Group 2588"><g id="Group_2587" data-name="Group 2587"><g id="Group_2586" data-name="Group 2586"><g class="cls-57"><g id="Group_2585" data-name="Group 2585"><path id="Path_2458" data-name="Path 2458" class="cls-49" d="M301.42,138.94a32.73,32.73,0,0,1,7.6-4.4c4.36-1.74,3.53-3.75,4.59-12.92,0,0-4.54-6.05-4.81-9.35,0,0-4.27-1.56-4.49-8S306.6,99,306.6,99a19.15,19.15,0,0,1,7-17c8.75-7.37,22.86.1,25.75,5.09s3.75,9.67,2.42,14.34,1.2,9.26-2.7,16.77-6,8.52-9.44,9.9l.14,3.94a3.18,3.18,0,0,0,2,2.24c1.65.6,9.62,3.26,12.19,5.32,0,0-7.79,2.8-22.09,2.8s-20.43-3.4-20.43-3.4"/></g></g></g></g></g></g><g id="Group_2594" data-name="Group 2594"><g id="Group_2593" data-name="Group 2593"><g id="Group_2592" data-name="Group 2592"><g id="Group_2591" data-name="Group 2591"><g class="cls-57"><g id="Group_2590" data-name="Group 2590"><path id="Path_2460" data-name="Path 2460" class="cls-50" d="M329.69,132c-9.16-2.29-12.05-8.34-12.05-8.34,4.08,4.58,12,4.35,12,4.35Z"/></g></g></g></g></g></g></g><path id="Path_2462" data-name="Path 2462" class="cls-47" d="M306.55,99a19.15,19.15,0,0,1,7-17c8.75-7.38,22.87.09,25.75,5.09a21.35,21.35,0,0,1-9.62,12c-7.74,4.62-23.14,0-23.14,0"/><path id="Path_2463" data-name="Path 2463" class="cls-51" d="M331.66,134.22a119.3,119.3,0,0,1,12.19,5.32s-7.79,2.79-22.09,2.79-20.39-3.43-20.39-3.43a32.3,32.3,0,0,1,7.61-4.4s9.44,8.06,19,7.65,3.67-7.93,3.67-7.93"/></g></g><path id="key" class="cls-56" d="M348.75,103.25a6.24,6.24,0,0,0-6.05,4.68H332.16v2.65h1.45v5h2.65v-5h1.25v3.48h2.66v-3.48h2.42a6.25,6.25,0,1,0,6.15-7.33Zm0,2.89a3.35,3.35,0,0,1,3.35,3.35h0a3.36,3.36,0,1,1-3.35-3.35Z"/></g><g id="Group_2613" data-name="Group 2613"><g id="Group_2612" data-name="Group 2612"><g id="Group_2611" data-name="Group 2611"><path id="Path_2468" data-name="Path 2468" class="cls-44" d="M388.71,138.94a49.76,49.76,0,0,0-5,4.86c4.12,3.57,19.52,11.09,36.56,9.07s18.33-7.61,18.33-7.61c-2.06-1.92-7.42-5.72-7.42-5.72"/><path id="Path_2469" data-name="Path 2469" class="cls-45" d="M388.71,138.94a33,33,0,0,1,7.61-4.4c4.35-1.74,3.53-3.75,4.58-12.92,0,0-4.54-6.05-4.81-9.35,0,0-4.26-1.55-4.49-8S393.89,99,393.89,99a19.15,19.15,0,0,1,7-17c8.75-7.37,22.86.1,25.75,5.09s3.76,9.67,2.43,14.34,1.19,9.26-2.71,16.77-6,8.52-9.43,9.9l.13,3.94a3.2,3.2,0,0,0,2,2.24c1.65.6,12.19,5.32,12.19,5.32-3.85.05-7.79,2.79-22.08,2.79s-20.44-3.39-20.44-3.39"/><path id="Path_2470" data-name="Path 2470" class="cls-46" d="M417,132c-9.16-2.29-12.05-8.34-12.05-8.34,4.08,4.58,12,4.35,12,4.35Z"/><path id="Path_2471" data-name="Path 2471" class="cls-47" d="M393.84,99s3.85,1,4.68,6.82h.55L399,99.72Z"/><g id="Group_2610" data-name="Group 2610"><g id="Group_2604" data-name="Group 2604"><g id="Group_2603" data-name="Group 2603"><g id="Group_2602" data-name="Group 2602"><g id="Group_2601" data-name="Group 2601"><g class="cls-58"><g id="Group_2600" data-name="Group 2600"><path id="Path_2472" data-name="Path 2472" class="cls-49" d="M388.71,138.94a33,33,0,0,1,7.61-4.4c4.35-1.74,3.53-3.75,4.58-12.92,0,0-4.54-6.05-4.81-9.35,0,0-4.26-1.55-4.49-8S393.89,99,393.89,99a19.15,19.15,0,0,1,7-17c8.75-7.37,22.86.1,25.75,5.09s3.76,9.67,2.43,14.34,1.19,9.26-2.71,16.77-6,8.52-9.43,9.9l.13,3.94a3.2,3.2,0,0,0,2,2.24c1.65.6,9.63,3.26,12.19,5.32,0,0-7.79,2.79-22.08,2.79s-20.44-3.39-20.44-3.39"/></g></g></g></g></g></g><g id="Group_2609" data-name="Group 2609"><g id="Group_2608" data-name="Group 2608"><g id="Group_2607" data-name="Group 2607"><g id="Group_2606" data-name="Group 2606"><g class="cls-58"><g id="Group_2605" data-name="Group 2605"><path id="Path_2474" data-name="Path 2474" class="cls-50" d="M417,132c-9.16-2.29-12.05-8.34-12.05-8.34,4.08,4.58,12,4.35,12,4.35Z"/></g></g></g></g></g></g></g><path id="Path_2476" data-name="Path 2476" class="cls-47" d="M393.84,99a19.14,19.14,0,0,1,7-17c8.75-7.37,22.86.1,25.75,5.09A21.4,21.4,0,0,1,417,99c-7.74,4.62-23.14,0-23.14,0"/><path id="Path_2477" data-name="Path 2477" class="cls-51" d="M419,134.22a119.3,119.3,0,0,1,12.19,5.32s-7.79,2.79-22.08,2.79-20.39-3.43-20.39-3.43a32,32,0,0,1,7.6-4.4s9.44,8.06,19,7.65,3.66-7.93,3.66-7.93"/></g></g><path id="pen" class="cls-56" d="M416.37,122.32h0a.65.65,0,0,1,0-.91l1.4-1.42h0a.65.65,0,0,1,.93,0,.66.66,0,0,1,0,.94l-1.42,1.4h0a.63.63,0,0,1-.9,0h0ZM420,120l-1.34-1.33,1.35-3.29a.73.73,0,0,1,.26-.17.51.51,0,0,0,.15.28l2.75,2.75a.55.55,0,0,0,.28.15,1.06,1.06,0,0,1-.17.26Zm1.92-4.92h0a1.14,1.14,0,0,1,0-1.62h0l8.63-8.61h-1.91l-5.27,5.26,0,0a.65.65,0,1,1-.9-.93l5.47-5.5a.65.65,0,0,1,.6-.16h3.33l1.05-1a1.1,1.1,0,0,1,.71-.33,1.2,1.2,0,0,1,.76.2l1.38-1.38a.7.7,0,0,1,1,0l1,1a.7.7,0,0,1,0,1l-1.38,1.38a1.18,1.18,0,0,1,.2.75,1.07,1.07,0,0,1-.33.71l-11,11a1.22,1.22,0,0,1-1.65,0Z"/></g></svg>