<svg id="Layer_1" data-name="Layer 1" xmlns="http://www.w3.org/2000/svg" xmlns:xlink="http://www.w3.org/1999/xlink" viewBox="0 0 480 416"><defs><style>.cls-1{fill:none;}.cls-2{fill:#40927a;}.cls-3{fill:#cbbdb5;}.cls-4{fill:#fff;}.cls-5{fill:#555654;}.cls-6{fill:#69c3a9;}.cls-7{fill:#674f3f;}.cls-8{fill:#ab8268;}.cls-9{clip-path:url(#clip-path);}.cls-10{fill:#382e27;}.cls-11{fill:#686563;}.cls-12{fill:#3f332b;}.cls-13{fill:#ac8368;}.cls-14{fill:#eee;}.cls-15{fill:#80bfa9;}.cls-16{fill:#7ab09b;}.cls-17{fill:#2e493e;}.cls-18{fill:#d1eae0;}.cls-19{fill:#4f7c70;}.cls-20{clip-path:url(#clip-path-3);}.cls-21{fill:#6b9786;}.cls-22{fill:#abdac8;}.cls-23{fill:#557769;}.cls-24{fill:#e6ab23;}.cls-25{fill:#bc8a2c;}.cls-26{fill:#426758;}.cls-27{fill:#c48f2c;}.cls-28{clip-path:url(#clip-path-7);}.cls-29{fill:#6d9885;}.cls-30{fill:#597568;}.cls-31{fill:#8bc7ae;}.cls-32{clip-path:url(#clip-path-10);}.cls-33{fill:#8fcfb6;}.cls-34{fill:#5b8072;}.cls-35{clip-path:url(#clip-path-12);}.cls-36{fill:#1a2d26;}.cls-37{clip-path:url(#clip-path-13);}.cls-38{fill:#9cd3bc;}.cls-39{fill:#66877a;}.cls-40{fill:#fcfbe9;}.cls-41{fill:#dcdcdc;}.cls-42{fill:#80c0aa;}.cls-43{fill:#49695d;}.cls-44{fill:#7ab19c;}.cls-45{fill:#699d89;}.cls-46{fill:#a29f9f;}.cls-47{fill:#ef5555;}.cls-48{fill:#83593c;}.cls-49{fill:#395047;}.cls-50{fill:#5a8072;}.cls-51{clip-path:url(#clip-path-15);}.cls-52{fill:#17211d;}.cls-53{fill:#1c2621;}.cls-54{fill:#61907e;}.cls-55{fill:#e5e6e6;}.cls-56{clip-path:url(#clip-path-17);}.cls-57{fill:#686868;}.cls-58{fill:#a3a3a3;}.cls-59{clip-path:url(#clip-path-18);}.cls-60{fill:#2d2d2d;}.cls-61{fill:#353535;}.cls-62{fill:#e4ab25;}.cls-63{fill:#7c7c7c;}.cls-64{fill:#ef5354;}.cls-65{fill:#b6b6b7;}.cls-66{fill:#d6d6d6;}.cls-67{clip-path:url(#clip-path-19);}.cls-68{opacity:0.2;}.cls-69{fill:#8c8c8c;}.cls-70{fill:#6b6b6b;}.cls-71{fill:#a09e9f;}.cls-72{fill:#81c1ab;}.cls-73{fill:#ad8468;}.cls-74{fill:#8a6955;}.cls-75{fill:#353635;}.cls-76{fill:#699e8a;}.cls-77{fill:url(#linear-gradient);}.cls-78{fill:url(#linear-gradient-2);}.cls-79{fill:#2d2e2d;}</style><clipPath id="clip-path"><path class="cls-1" d="M271.43,59.28s-.65,4.64,2.7,5.67l1.29-.26-.26-5.41Z"/></clipPath><clipPath id="clip-path-3"><rect class="cls-1" x="209.52" y="150.56" width="50.16" height="35.39" rx="2.75"/></clipPath><clipPath id="clip-path-7"><path class="cls-1" d="M265.86,193.68H203.33a.74.74,0,0,1-.68-.69V141.63a.73.73,0,0,1,.68-.69H266a.73.73,0,0,1,.69.69V193A.79.79,0,0,1,265.86,193.68Z"/></clipPath><clipPath id="clip-path-10"><path class="cls-1" d="M270.5,140.08a.86.86,0,0,1-.86,1H199.73a.85.85,0,0,1-.86-1L202.82,119a1.47,1.47,0,0,1,1.2-1h61.16c.51,0,1.2.52,1.2,1Z"/></clipPath><clipPath id="clip-path-12"><path class="cls-1" d="M255.73,145.06H213.3a3.82,3.82,0,0,1-3.78-3.78v-.17h50v.17A3.61,3.61,0,0,1,255.73,145.06Z"/></clipPath><clipPath id="clip-path-13"><path class="cls-1" d="M266.21,138.53a2.05,2.05,0,0,1-2.24,2.58H205.22a2.18,2.18,0,0,1-2.23-2.58l1.2-6.52c1.38-8.08,7.73-14.09,15.12-14.09h30.4c7.39,0,13.75,5.84,15.12,14.09Z"/></clipPath><clipPath id="clip-path-15"><path class="cls-1" d="M440.86,292.77s-.62,4.9,2.82,6.13l1.47-.25-.25-5.88Z"/></clipPath><clipPath id="clip-path-17"><rect class="cls-1" x="47.33" y="293.74" width="17.63" height="21.29"/></clipPath><clipPath id="clip-path-18"><path class="cls-1" d="M58.57,296.92s-.59,4.73,2.73,5.79l1.37-.2-.27-5.59Z"/></clipPath><clipPath id="clip-path-19"><rect class="cls-1" x="188.15" y="269.51" width="114.19" height="73.08" rx="4.31"/></clipPath><linearGradient id="linear-gradient" x1="446.54" y1="15.26" x2="436.91" y2="5.63" gradientTransform="translate(0 62.11)" gradientUnits="userSpaceOnUse"><stop offset="0" stop-color="#ad8468"/><stop offset="0.33" stop-color="#a77f65"/><stop offset="0.78" stop-color="#95725b"/><stop offset="1" stop-color="#8a6955"/></linearGradient><linearGradient id="linear-gradient-2" x1="424.31" y1="11.11" x2="421.02" y2="2.06" gradientTransform="translate(0 62.11)" gradientUnits="userSpaceOnUse"><stop offset="0" stop-color="#ad8468"/><stop offset="0.35" stop-color="#a98166"/><stop offset="0.68" stop-color="#9d785f"/><stop offset="1" stop-color="#8a6955"/></linearGradient></defs><polygon class="cls-2" points="283.75 48.81 281.69 43.31 285.81 43.31 283.75 48.81"/><path class="cls-3" d="M322.58,43.31H254.89a3.89,3.89,0,0,0-3.95,3.95V88.49a3.89,3.89,0,0,0,3.95,4h67.69a3.89,3.89,0,0,0,3.95-4V47.26A3.89,3.89,0,0,0,322.58,43.31ZM293,50.18h-8.59a1.72,1.72,0,1,1,0-3.44H293a1.72,1.72,0,1,1,0,3.44Z"/><polygon class="cls-2" points="281.69 43.31 291.48 43.31 284.44 26.3 274.65 26.3 281.69 43.31"/><rect class="cls-4" x="287.53" y="57.57" width="0.69" height="23.71"/><path class="cls-5" d="M316.05,70.19H295.43a.6.6,0,0,1-.59-.6.59.59,0,0,1,.59-.59h20.62a.58.58,0,0,1,.59.59A.59.59,0,0,1,316.05,70.19Z"/><path class="cls-5" d="M316.05,63.74H295.43a1.19,1.19,0,0,1,0-2.38h20.62a1.19,1.19,0,0,1,0,2.38Z"/><path class="cls-5" d="M316.05,74H295.43a.6.6,0,0,1-.59-.6.59.59,0,0,1,.59-.59h20.62a.58.58,0,0,1,.59.59A.59.59,0,0,1,316.05,74Z"/><path class="cls-5" d="M309.86,77.74H295.43a.59.59,0,0,1,0-1.18h14.43a.59.59,0,1,1,0,1.18Z"/><path class="cls-4" d="M322.58,91.56H254.89a2.87,2.87,0,0,1-2.89-2.9V47.43a2.87,2.87,0,0,1,2.89-2.9h67.69a2.87,2.87,0,0,1,2.89,2.9V88.66A2.87,2.87,0,0,1,322.58,91.56ZM254.89,44.83a2.58,2.58,0,0,0-2.6,2.6V88.66a2.58,2.58,0,0,0,2.6,2.6h67.69a2.58,2.58,0,0,0,2.6-2.6V47.43a2.58,2.58,0,0,0-2.6-2.6Z"/><polygon class="cls-6" points="293.37 48.81 283.75 48.81 294.06 23.55 304.02 23.55 293.37 48.81"/><path class="cls-7" d="M262.67,75.52a11.31,11.31,0,0,0-1.42,1.41c1.16,1,5.54,3.1,10.31,2.58s5.15-2.19,5.15-2.19l-2.06-1.68"/><path class="cls-8" d="M262.67,75.52a8.42,8.42,0,0,1,2.19-1.29c1.16-.52,1-1,1.28-3.61A8.58,8.58,0,0,1,264.73,68a2.29,2.29,0,0,1-1.29-2.19c-.13-1.8.64-1.54.64-1.54A5.3,5.3,0,0,1,266,59.54c2.44-2.06,6.44,0,7.21,1.42a5.08,5.08,0,0,1,.65,4c-.39,1.29.38,2.58-.78,4.77s-1.67,2.45-2.7,2.83v1.16s.13.52.51.65,3.48,1.54,3.48,1.54c-1,0-2.19.78-6.18.78a12.91,12.91,0,0,1-5.54-1.16"/><g class="cls-9"><path class="cls-10" d="M262.67,75.52a8.42,8.42,0,0,1,2.19-1.29c1.16-.52,1-1,1.28-3.61A8.58,8.58,0,0,1,264.73,68a2.29,2.29,0,0,1-1.29-2.19c-.13-1.8.64-1.54.64-1.54A5.3,5.3,0,0,1,266,59.54c2.44-2.06,6.44,0,7.21,1.42a5.08,5.08,0,0,1,.65,4c-.39,1.29.38,2.58-.78,4.77s-1.67,2.45-2.7,2.83v1.16s.13.52.51.65a13.19,13.19,0,0,1,3.48,1.54,20.15,20.15,0,0,1-6.18.78,12.91,12.91,0,0,1-5.54-1.16"/></g><g class="cls-9"><path class="cls-11" d="M270.78,73.58a4.94,4.94,0,0,1-3.35-2.32,5.07,5.07,0,0,0,3.35,1.29Z"/></g><path class="cls-12" d="M266.14,59.41a5.31,5.31,0,0,0-1.93,4.77s1,.26,1.29,1.93h.13V64.56c1.42.26,3.74.52,5-.38a6,6,0,0,0,2.71-3.35C272.59,59.41,268.59,57.35,266.14,59.41Z"/><path class="cls-7" d="M271.3,74.23a18.57,18.57,0,0,1,3.48,1.54,20.19,20.19,0,0,1-6.19.78c-4,0-5.79-1-5.79-1A8.42,8.42,0,0,1,265,74.23s2.7,2.32,5.41,2.19.9-2.19.9-2.19"/><path class="cls-13" d="M185.06,48.23a20.62,20.62,0,1,0-41.23,0A20.4,20.4,0,0,0,161.35,68.5v10h-3.78a3.1,3.1,0,0,0,0,6.19h3.78v4.63a3.1,3.1,0,1,0,6.19,0V84.65h3.78a3.1,3.1,0,0,0,0-6.19h-3.78v-10A20.4,20.4,0,0,0,185.06,48.23Zm-34.87,0a14.43,14.43,0,1,1,14.43,14.43A14.51,14.51,0,0,1,150.19,48.23Z"/><path class="cls-14" d="M164.44,93.15a3.87,3.87,0,0,1-3.87-3.87V85.42h-3a3.87,3.87,0,0,1,0-7.74h3V69.17a21.4,21.4,0,1,1,7.74,0v8.51h3a3.87,3.87,0,1,1,0,7.74h-3v3.86A3.87,3.87,0,0,1,164.44,93.15Zm-6.87-13.91a2.32,2.32,0,0,0,0,4.63h4.56v5.41a2.32,2.32,0,1,0,4.63,0V83.87h4.56a2.32,2.32,0,0,0,0-4.63h-4.56V67.82l.67-.09a19.84,19.84,0,1,0-6,0l.67.09V79.24Zm7.05-15.8a15.21,15.21,0,1,1,15.2-15.21A15.23,15.23,0,0,1,164.62,63.44Zm0-28.86a13.65,13.65,0,1,0,13.65,13.65A13.67,13.67,0,0,0,164.62,34.58Z"/><path class="cls-13" d="M233.16,48.23a20.62,20.62,0,1,0-41.23,0A20.4,20.4,0,0,0,209.45,68.5V84.3l-3.26-2.4a3.19,3.19,0,1,0-3.78,5.15l8.24,6.19a3.16,3.16,0,0,0,3.44,0l8.25-6.19a3.19,3.19,0,0,0-3.78-5.15l-3.27,2.4V68.5A20.4,20.4,0,0,0,233.16,48.23Zm-34.87,0a14.43,14.43,0,1,1,14.43,14.43A14.51,14.51,0,0,1,198.29,48.23Z"/><path class="cls-14" d="M212.37,94.53a4.08,4.08,0,0,1-2.15-.65l-8.32-6.24a4.07,4.07,0,0,1-.8-5.52l0-.05a4.06,4.06,0,0,1,5.51-.79l2,1.48V69.17a21.57,21.57,0,1,1,7.4,0V82.76l2-1.49a4,4,0,0,1,4.7,6.4l-8.24,6.19A4.16,4.16,0,0,1,212.37,94.53Zm-9.47-8.08,8.22,6.16a2.54,2.54,0,0,0,1.25.36,2.62,2.62,0,0,0,1.29-.38l8.21-6.16A2.42,2.42,0,1,0,219,82.52l-4.51,3.32v-18l.68-.09a19.56,19.56,0,0,0,17.19-19.5,19.84,19.84,0,1,0-22.82,19.5l.67.09v18l-4.5-3.32a2.42,2.42,0,1,0-2.83,3.93Zm9.82-23a15.21,15.21,0,1,1,15.2-15.21A15.23,15.23,0,0,1,212.72,63.44Zm0-28.86a13.65,13.65,0,1,0,13.65,13.65A13.67,13.67,0,0,0,212.72,34.58Z"/><path class="cls-13" d="M209.11,48.23a20.62,20.62,0,1,0-41.23,0A20.4,20.4,0,0,0,185.4,68.5v4h-3.78a3.09,3.09,0,0,0,0,6.18h3.78V84.3l-3.26-2.23a3.19,3.19,0,1,0-3.78,5.15l8.24,6.19a3.16,3.16,0,0,0,3.44,0l8.25-6.19a3.19,3.19,0,0,0-3.78-5.15l-3.27,2.4V78.81H195a3.1,3.1,0,0,0,0-6.19h-3.78v-4A20.7,20.7,0,0,0,209.11,48.23Zm-34.87,0a14.43,14.43,0,1,1,14.43,14.43A14.51,14.51,0,0,1,174.24,48.23Z"/><path class="cls-14" d="M188.32,94.7a4.16,4.16,0,0,1-2.15-.64l-8.32-6.25a4.07,4.07,0,0,1-.8-5.52l0-.05a4.07,4.07,0,0,1,5.51-.79l2,1.38V79.41h-3a3.87,3.87,0,0,1,0-7.74h3v-2.5a21.12,21.12,0,1,1,7.4.16v2.51h3a3.87,3.87,0,1,1,0,7.74h-3v3.36l2-1.5a3.84,3.84,0,0,1,2.94-.7,4.07,4.07,0,0,1,2.6,1.55,3.84,3.84,0,0,1,.71,2.95,4.12,4.12,0,0,1-1.55,2.61L190.51,94A4.16,4.16,0,0,1,188.32,94.7Zm-9.47-8.08,8.22,6.17a2.34,2.34,0,0,0,2.54,0l8.21-6.16a2.47,2.47,0,0,0,.94-1.6,2.31,2.31,0,0,0-.41-1.78,2.51,2.51,0,0,0-1.6-.94,2.29,2.29,0,0,0-1.78.41L190.46,86V78H195a2.32,2.32,0,1,0,0-4.63h-4.56V68l.67-.1a19.84,19.84,0,1,0-22.47-19.67,19.69,19.69,0,0,0,16.85,19.5l.67.09v5.41h-4.56a2.32,2.32,0,0,0,0,4.63h4.56v7.92l-4.48-3.07a2.42,2.42,0,1,0-2.85,3.91Zm9.82-23.18a15.21,15.21,0,1,1,15.2-15.21A15.23,15.23,0,0,1,188.67,63.44Zm0-28.86a13.65,13.65,0,1,0,13.65,13.65A13.67,13.67,0,0,0,188.67,34.58Z"/><path class="cls-6" d="M106,23.89l-35-.17a5.41,5.41,0,0,0-5.67,5.15V98.61a5.42,5.42,0,0,0,5.67,5.16l43.63.17a5.4,5.4,0,0,0,5.67-5.15l.18-62.19A4.56,4.56,0,0,0,118.7,33l-8.42-7.56A6.59,6.59,0,0,0,106,23.89Z"/><path class="cls-3" d="M112.34,59.1l-.17,32.82a5.35,5.35,0,0,1-5.33,5.32L78,97.07a5.35,5.35,0,0,1-5.32-5.33l.17-32.81a5.35,5.35,0,0,1,5.33-5.32l28.86.17A5.34,5.34,0,0,1,112.34,59.1Z"/><path class="cls-4" d="M106.84,97.91,78,97.74a6,6,0,0,1-6-6l.17-32.81a6,6,0,0,1,6-6l28.86.17a6,6,0,0,1,6,6h0l-.17,32.81A6,6,0,0,1,106.84,97.91ZM78.15,54.28a4.66,4.66,0,0,0-4.65,4.65l-.17,32.82A4.66,4.66,0,0,0,78,96.4l28.87.17a4.66,4.66,0,0,0,4.65-4.65l.17-32.82A4.7,4.7,0,0,0,107,54.45Z"/><path class="cls-4" d="M98.94,70.77H86.4a4.38,4.38,0,0,1-4.27-4.28V53.78a.66.66,0,0,1,.66-.67.67.67,0,0,1,.67.67V66.49a3.1,3.1,0,0,0,2.94,2.94H98.94a3.1,3.1,0,0,0,2.94-2.94V53.78a.67.67,0,1,1,1.34,0V66.49A4.39,4.39,0,0,1,98.94,70.77Z"/><path class="cls-4" d="M102.55,97.91a.67.67,0,0,1-.67-.67V84.53a3.1,3.1,0,0,0-2.94-2.94H86.4a3.1,3.1,0,0,0-2.94,2.94V97.24a.67.67,0,0,1-.67.67.66.66,0,0,1-.66-.67V84.53a4.38,4.38,0,0,1,4.27-4.28H98.94a4.39,4.39,0,0,1,4.28,4.28V97.24A.67.67,0,0,1,102.55,97.91Z"/><path class="cls-4" d="M87.09,81.59a.67.67,0,0,1-.67-.67v-11a.67.67,0,0,1,1.34,0v11A.67.67,0,0,1,87.09,81.59Z"/><path class="cls-4" d="M98.26,81.76a.67.67,0,0,1-.67-.67V69.93a.67.67,0,1,1,1.33,0V81.09A.67.67,0,0,1,98.26,81.76Z"/><path class="cls-4" d="M92.59,97.91a.67.67,0,0,1-.67-.67V81.09a.67.67,0,0,1,1.34,0V97.24A.67.67,0,0,1,92.59,97.91Z"/><path class="cls-4" d="M92.59,70.6h0a.67.67,0,0,1-.66-.68l.17-16a.67.67,0,0,1,.67-.66h0a.68.68,0,0,1,.66.68l-.17,16A.68.68,0,0,1,92.59,70.6Z"/><path class="cls-4" d="M82.79,87.09h-10a.67.67,0,0,1,0-1.34h10a.67.67,0,1,1,0,1.34Z"/><path class="cls-4" d="M112.34,87.26h-10a.67.67,0,0,1,0-1.34h10a.67.67,0,0,1,0,1.34Z"/><path class="cls-4" d="M112.34,65.1h-10a.67.67,0,1,1,0-1.34h10a.67.67,0,0,1,0,1.34Z"/><path class="cls-4" d="M83,65.1H73a.67.67,0,1,1,0-1.34H83a.67.67,0,0,1,0,1.34Z"/><path class="cls-13" d="M130.71,123.84A37.28,37.28,0,0,1,147,120.57a38.38,38.38,0,0,1,16.32,3.27,1,1,0,0,0,.68.17,1.67,1.67,0,0,0,1.55-1,1.72,1.72,0,0,0-.86-2.24,41.82,41.82,0,0,0-17.69-3.6,41.3,41.3,0,0,0-17.7,3.6,1.72,1.72,0,0,0-.86,2.24A1.84,1.84,0,0,0,130.71,123.84Z"/><path class="cls-13" d="M124.52,136.89c6.36-6.35,14.09-9.79,22.68-9.79a30.81,30.81,0,0,1,22.67,9.79,1.66,1.66,0,0,0,2.41,0,1.67,1.67,0,0,0,0-2.4,34.13,34.13,0,0,0-25.08-10.65,35.13,35.13,0,0,0-25.08,10.65,1.7,1.7,0,1,0,2.4,2.4Z"/><path class="cls-13" d="M147.2,130.71a34.22,34.22,0,0,0-7.22.86c-1,.34-1.54,1-1.2,2.06s1,1.54,2.06,1.2a25.4,25.4,0,0,1,31.95,24.74,1.72,1.72,0,0,0,3.44,0A29.29,29.29,0,0,0,147.2,130.71Z"/><path class="cls-13" d="M121.6,159.57a26.36,26.36,0,0,1,7.39-18,23.33,23.33,0,0,1,5.32-4.12,1.74,1.74,0,1,0-1.89-2.92,31.49,31.49,0,0,0-6,4.63A29.74,29.74,0,0,0,118,159.4a1.62,1.62,0,0,0,1.72,1.71h0C120.91,161.46,121.6,160.6,121.6,159.57Z"/><path class="cls-13" d="M128.47,160.08a19,19,0,0,1,5.5-13.57,18.75,18.75,0,0,1,27.49,1,1.7,1.7,0,1,0,2.57-2.23,22.06,22.06,0,0,0-32.29-1,23.13,23.13,0,0,0-6.53,16.15,27.84,27.84,0,0,1-3.09,12.19l-1,1.72a1.9,1.9,0,0,0,.68,2.41c.35.17.52.34.86.34a2,2,0,0,0,1.55-.86l1-1.72C127.27,169.19,128.47,164.38,128.47,160.08Z"/><path class="cls-13" d="M170.56,173a63,63,0,0,1-1.2-12.54v-1a22.14,22.14,0,0,0-1.21-7.39,1.74,1.74,0,1,0-3.26,1.2,19.62,19.62,0,0,1,1,6.36v1a60.79,60.79,0,0,0,1.38,13.23l1.89,6.52a2.06,2.06,0,0,0,1.71,1.21.61.61,0,0,0,.52-.18,1.48,1.48,0,0,0,1-2.06Z"/><path class="cls-13" d="M165.92,182.07c-2.75-8.76-3.26-18.72-3.43-22.33a15.33,15.33,0,0,0-15.29-15.29,15.51,15.51,0,0,0-15.29,15.63c0,1.72-.35,11.34-7.56,21.65a1.72,1.72,0,0,0,2.75,2.06c7.56-11,8.07-20.79,8.07-23.71a12,12,0,0,1,24.05,0c.17,5,.69,14.6,3.61,23.37l1.55,5.15a2.05,2.05,0,0,0,1.71,1.2.63.63,0,0,0,.52-.17,1.6,1.6,0,0,0,1-2.23Z"/><path class="cls-13" d="M155.61,159.57a8.59,8.59,0,1,0-17.17,0c0,.51.34,13.91-10.48,28a1.72,1.72,0,0,0,2.75,2.06c11.51-14.95,11.16-29.55,11.16-30.06a5.16,5.16,0,1,1,10.31,0c0,1.89,0,19.07-13.23,36.42a1.87,1.87,0,0,0,.35,2.4,1.26,1.26,0,0,0,1,.34,2.12,2.12,0,0,0,1.37-.68C155.79,180,155.61,161.63,155.61,159.57Z"/><path class="cls-13" d="M146.34,168.16h.34a1.68,1.68,0,0,0,1.72-1.38,36.28,36.28,0,0,0,.52-7.21,1.72,1.72,0,0,0-1.72-1.72,1.85,1.85,0,0,0-1.72,1.72,30.68,30.68,0,0,1-.52,6.52A1.67,1.67,0,0,0,146.34,168.16Z"/><path class="cls-13" d="M145.48,171.76a1.67,1.67,0,0,0-2.06,1,54.69,54.69,0,0,1-10.65,19.93,1.87,1.87,0,0,0,.34,2.41,1.27,1.27,0,0,0,1,.34,2.11,2.11,0,0,0,1.38-.69,61.07,61.07,0,0,0,11.16-21.13A1.54,1.54,0,0,0,145.48,171.76Z"/><path class="cls-13" d="M159.91,185.68c-.86-2.41-1.55-5.16-1.72-5.16a1.65,1.65,0,0,0-1.54-1.2,1.9,1.9,0,0,0-1.72,1,100.47,100.47,0,0,1-8.25,15.81,1.72,1.72,0,0,0,.52,2.4,1.83,1.83,0,0,0,1,.35,1.76,1.76,0,0,0,1.37-.86,96.87,96.87,0,0,0,6.53-12.2c.17.34.17.52.34.86l2.07,6.53A1.74,1.74,0,1,0,161.8,192Z"/><path class="cls-15" d="M270.5,140.08a.86.86,0,0,1-.86,1H199.73a.85.85,0,0,1-.86-1L202.82,119a1.47,1.47,0,0,1,1.2-1h61.16c.51,0,1.2.52,1.2,1Z"/><path class="cls-16" d="M265.86,193.68H203.33a.74.74,0,0,1-.68-.69V141.45a.73.73,0,0,1,.68-.68H266a.73.73,0,0,1,.69.68V193A.79.79,0,0,1,265.86,193.68Z"/><path class="cls-17" d="M255.73,145.06H213.3a3.82,3.82,0,0,1-3.78-3.78v-.17h50v.17A3.61,3.61,0,0,1,255.73,145.06Z"/><path class="cls-15" d="M259.68,183.2a2.72,2.72,0,0,1-2.75,2.75H212.27a2.72,2.72,0,0,1-2.75-2.75V153.31a2.71,2.71,0,0,1,2.75-2.75h44.66a2.71,2.71,0,0,1,2.75,2.75Z"/><circle class="cls-18" cx="234.6" cy="155.54" r="2.4"/><path class="cls-19" d="M234.6,159.4a3.86,3.86,0,0,1-3.86-3.86.42.42,0,0,1,.84,0,3,3,0,1,0,6,0,.42.42,0,0,1,.42-.42.42.42,0,0,1,.42.42A3.86,3.86,0,0,1,234.6,159.4Z"/><path class="cls-1" d="M270.16,192.82a2.87,2.87,0,0,1-2.92,2.75H202.3a2.76,2.76,0,0,1-2.92-2.75V144a2.87,2.87,0,0,1,2.92-2.75h64.94a2.77,2.77,0,0,1,2.92,2.75Z"/><g class="cls-20"><rect class="cls-21" x="209.52" y="150.73" width="0.86" height="35.22"/></g><g class="cls-20"><rect class="cls-21" x="258.82" y="150.73" width="0.86" height="35.22"/></g><g class="cls-20"><rect class="cls-22" x="209.52" y="150.73" width="49.99" height="1.03"/></g><g class="cls-20"><rect class="cls-23" x="209.35" y="185.26" width="51.19" height="1.2"/></g><path class="cls-24" d="M216.73,188.18a1.12,1.12,0,0,1-1-1v-1.38a2.75,2.75,0,0,1,2.23-2.74h.52A2.64,2.64,0,0,1,221,185.6v1.55a1.12,1.12,0,0,1-1,1Z"/><path class="cls-25" d="M218.28,183.2a2.35,2.35,0,0,1,2.4,2.4v1.55a.81.81,0,0,1-.86.86h-3.09a.82.82,0,0,1-.86-.86v-1.38a2.41,2.41,0,0,1,2.06-2.4c.18-.17.18-.17.35-.17m0-.52h-.52a3,3,0,0,0-2.4,2.92V187a1.17,1.17,0,0,0,1.2,1.2h3.09a1.18,1.18,0,0,0,1.21-1.2v-1.55a2.58,2.58,0,0,0-2.58-2.75Z"/><path class="cls-24" d="M249.37,188.18a1.12,1.12,0,0,1-1-1v-1.38a2.75,2.75,0,0,1,2.23-2.74h.52a2.64,2.64,0,0,1,2.58,2.57v1.55a1.12,1.12,0,0,1-1,1Z"/><path class="cls-25" d="M250.92,183.2a2.35,2.35,0,0,1,2.4,2.4v1.55a.81.81,0,0,1-.86.86h-3.09a.82.82,0,0,1-.86-.86v-1.38a2.41,2.41,0,0,1,2.06-2.4c0-.17.18-.17.35-.17m0-.52h-.52a3,3,0,0,0-2.4,2.92V187a1.17,1.17,0,0,0,1.2,1.2h3.09a1.17,1.17,0,0,0,1.2-1.2v-1.55a2.56,2.56,0,0,0-2.57-2.75Z"/><rect class="cls-26" x="220.68" y="185.53" width="27.83" height="0.84"/><rect class="cls-27" x="215.87" y="185.53" width="4.81" height="0.84"/><rect class="cls-27" x="248.51" y="185.53" width="4.81" height="0.84"/><path class="cls-4" d="M236.32,156a.42.42,0,0,1-.43-.42,1.3,1.3,0,1,0-2.59,0,.42.42,0,0,1-.84,0,2.14,2.14,0,0,1,4.28,0A.42.42,0,0,1,236.32,156Z"/><g class="cls-28"><rect class="cls-29" x="202.47" y="139.91" width="1.37" height="55.66"/></g><g class="cls-28"><rect class="cls-29" x="265.35" y="139.91" width="1.37" height="55.66"/></g><g class="cls-28"><rect class="cls-30" x="202.47" y="192.3" width="64.08" height="3.26"/></g><path class="cls-1" d="M270.16,138.53a2.1,2.1,0,0,1-2.24,2.58H201.27a2.18,2.18,0,0,1-2.23-2.58l3.61-18a3.49,3.49,0,0,1,3.26-2.58h57.38a3.5,3.5,0,0,1,3.26,2.58Z"/><path class="cls-31" d="M266.21,138.53a2.05,2.05,0,0,1-2.24,2.58H205.22a2.18,2.18,0,0,1-2.23-2.58l1.2-6.52c1.38-8.08,7.73-14.09,15.12-14.09h30.4c7.39,0,13.75,5.84,15.12,14.09Z"/><path class="cls-1" d="M266.72,141.28H202.65l1.71-9.27c1.38-8.08,7.73-14.09,15.12-14.09h30.41c7.38,0,13.74,5.84,15.11,14.09Z"/><g class="cls-32"><rect class="cls-33" x="198.01" y="116.55" width="71.63" height="2.92"/></g><g class="cls-32"><rect class="cls-34" x="196.81" y="138.88" width="77.13" height="4.12"/></g><g class="cls-35"><rect class="cls-36" x="209" y="144.2" width="51.19" height="1.72"/></g><g class="cls-37"><rect class="cls-38" x="207.63" y="116.55" width="52.39" height="2.92"/></g><g class="cls-37"><rect class="cls-39" x="196.81" y="138.88" width="77.13" height="4.12"/></g><path class="cls-17" d="M227.9,168.6a3.93,3.93,0,0,1,1.2,1.2,3.67,3.67,0,0,1,.52,2.06,4.76,4.76,0,0,1-.52,2.23,2.71,2.71,0,0,1-1.37,1.38,3.52,3.52,0,0,1-1.89.51,3.16,3.16,0,0,1-2.92-1.54,7.36,7.36,0,0,1-.86-4.13,9.38,9.38,0,0,1,.51-3.26,5.22,5.22,0,0,1,1.55-2.23,3.59,3.59,0,0,1,2.23-.86,3.93,3.93,0,0,1,2.41.69l-.69,1a3.27,3.27,0,0,0-1.72-.52,1.86,1.86,0,0,0-1.89,1.2,8.43,8.43,0,0,0-.86,3.1,3.09,3.09,0,0,1,2.75-1.55A5.86,5.86,0,0,1,227.9,168.6Zm-.52,5.32a3.59,3.59,0,0,0,.52-2.06c0-1.72-.69-2.4-1.89-2.4a3.3,3.3,0,0,0-1.38.34,3.63,3.63,0,0,0-1,1.2,5.61,5.61,0,0,0,.52,2.75,1.89,1.89,0,0,0,1.72.86A1.66,1.66,0,0,0,227.38,173.92Z"/><path class="cls-17" d="M237.86,165.5a7.81,7.81,0,0,1,1,4.47,8.17,8.17,0,0,1-1,4.47,3.18,3.18,0,0,1-2.92,1.54,3.38,3.38,0,0,1-2.92-1.54,7.79,7.79,0,0,1-1-4.47,8.19,8.19,0,0,1,1-4.47,3.54,3.54,0,0,1,5.84,0Zm-4.46.86a12.79,12.79,0,0,0,0,7.22,1.71,1.71,0,0,0,1.71,1,2.08,2.08,0,0,0,1.72-1,8.91,8.91,0,0,0,.52-3.61,9.49,9.49,0,0,0-.52-3.61,1.94,1.94,0,0,0-3.43,0Z"/><path class="cls-17" d="M245.25,164.47a4.07,4.07,0,0,1,1.2,1.21,2.79,2.79,0,0,1,.52,1.54,4.59,4.59,0,0,1-.52,2.06,13.89,13.89,0,0,1-1.37,2.06c-.69.69-1.72,1.72-2.92,3.1h5.15l-.17,1.37h-6.7v-1.2c1.54-1.55,2.58-2.75,3.26-3.44a10,10,0,0,0,1.38-1.89,3.1,3.1,0,0,0,.34-1.71,1.77,1.77,0,0,0-1.89-1.89,2.5,2.5,0,0,0-1.2.34,5.31,5.31,0,0,0-1.2,1l-1-.86a11.81,11.81,0,0,1,1.55-1.37,3.42,3.42,0,0,1,1.89-.52A1.56,1.56,0,0,1,245.25,164.47Z"/><rect class="cls-40" x="371.97" y="263.34" width="84.27" height="10.31"/><polygon class="cls-41" points="456.89 272 455.83 272 455.83 263.87 372.5 263.87 372.5 267.67 371.44 267.67 371.44 262.81 456.89 262.81 456.89 272"/><rect class="cls-40" x="451.27" y="274.04" width="12.98" height="118.25"/><polygon class="cls-41" points="464.65 392.82 453.31 392.82 453.31 391.76 463.6 391.76 463.6 274.57 458.52 274.57 458.52 273.51 464.65 273.51 464.65 392.82"/><path class="cls-42" d="M454.2,395H367.51V271H454.2a6.06,6.06,0,0,1,6,6V389a6,6,0,0,1-6,6"/><path class="cls-43" d="M388.26,306.62h-9.8a2.29,2.29,0,1,1,0-4.58h9.8a2.29,2.29,0,1,1,0,4.58"/><path class="cls-43" d="M388.26,362.88h-9.8a2.29,2.29,0,1,1,0-4.58h9.8a2.28,2.28,0,0,1,2.29,2.29,2.21,2.21,0,0,1-2.29,2.29"/><rect class="cls-40" x="369.93" y="266.53" width="84.27" height="4.46"/><polygon class="cls-41" points="454.73 270.98 453.67 270.98 453.67 267.06 370.46 267.06 370.46 270.98 369.4 270.98 369.4 266 454.73 266 454.73 270.98"/><path class="cls-44" d="M438.28,271H454.2a6.06,6.06,0,0,1,6,6v16Z"/><path class="cls-44" d="M438.28,395H454.2a6.06,6.06,0,0,0,6-6v-16Z"/><rect class="cls-45" x="428.23" y="319.84" width="20.11" height="1.06"/><rect class="cls-45" x="428.23" y="323.02" width="20.11" height="1.06"/><rect class="cls-45" x="428.23" y="326.33" width="20.11" height="1.06"/><rect class="cls-45" x="428.23" y="329.51" width="12.47" height="1.06"/><rect class="cls-43" x="367.51" y="270.98" width="2.42" height="123.98"/><rect class="cls-45" x="369.93" y="270.98" width="2.42" height="123.98"/><path class="cls-46" d="M372.48,305.22H365.6a.89.89,0,1,1,0-1.78h6.88a.89.89,0,0,1,0,1.78"/><path class="cls-46" d="M372.48,361.61H365.6a.89.89,0,1,1,0-1.78h6.88a.89.89,0,1,1,0,1.78"/><rect class="cls-47" x="460.18" y="289.82" width="6.36" height="6.75"/><rect class="cls-48" x="428.23" y="339.84" width="21.13" height="4.84"/><path class="cls-49" d="M431.42,310.3a13.12,13.12,0,0,0-1.47,1.47c1.22,1.1,5.88,3.31,11,2.7s5.52-2.33,5.52-2.33a22.81,22.81,0,0,0-2.21-1.72"/><path class="cls-50" d="M431.42,310.3a8.14,8.14,0,0,1,2.33-1.35c1.35-.49,1.1-1.1,1.35-3.92a9.53,9.53,0,0,1-1.48-2.82,2.65,2.65,0,0,1-1.34-2.45c-.13-2,.73-1.6.73-1.6A5.89,5.89,0,0,1,435.1,293c2.69-2.21,7,0,7.84,1.59a5.55,5.55,0,0,1,.74,4.29c-.37,1.35.36,2.82-.86,5.15S441,306.62,440,307v1.23a1.2,1.2,0,0,0,.61.73c.49.12,3.68,1.59,3.68,1.59-1.23,0-2.33.86-6.74.86a15.94,15.94,0,0,1-6.13-1.1"/><g class="cls-51"><path class="cls-52" d="M431.42,310.3a8.14,8.14,0,0,1,2.33-1.35c1.35-.49,1.1-1.1,1.35-3.92a9.53,9.53,0,0,1-1.48-2.82,2.65,2.65,0,0,1-1.34-2.45c-.13-2,.73-1.6.73-1.6A5.89,5.89,0,0,1,435.1,293c2.69-2.21,7,0,7.84,1.59a5.55,5.55,0,0,1,.74,4.29c-.37,1.35.36,2.82-.86,5.15S441,306.62,440,307v1.23a1.2,1.2,0,0,0,.61.73,15.25,15.25,0,0,1,3.68,1.59,21.31,21.31,0,0,1-6.74.86,15.94,15.94,0,0,1-6.13-1.1"/></g><g class="cls-51"><path class="cls-11" d="M440,308.09a5.52,5.52,0,0,1-3.68-2.57c1.23,1.35,3.68,1.35,3.68,1.35Z"/></g><path class="cls-53" d="M435.1,293a5.52,5.52,0,0,0-2.09,5.14s1.11.25,1.47,2.09h.13v-1.72c1.59.25,3.92.49,5.51-.37a6.57,6.57,0,0,0,2.94-3.67C442.08,293,437.79,290.69,435.1,293Z"/><path class="cls-49" d="M440.61,308.83a20.71,20.71,0,0,1,3.68,1.59,21.31,21.31,0,0,1-6.74.86c-4.29,0-6.13-1.1-6.13-1.1a8.14,8.14,0,0,1,2.33-1.35s2.82,2.45,5.76,2.33,1.1-2.33,1.1-2.33"/><path class="cls-54" d="M154.66,377.61H90.2V270.78h64.46a15.81,15.81,0,0,1,15.73,15.73v75.62C170.64,370.51,163.54,377.61,154.66,377.61Z"/><path class="cls-42" d="M153.64,376.34H89.19V269.51h64.45a15.8,15.8,0,0,1,15.73,15.73v75.62A15.75,15.75,0,0,1,153.64,376.34Z"/><path class="cls-55" d="M93,376.06a.3.3,0,0,1-.3-.31v-3.66a.3.3,0,0,1,.3-.31.31.31,0,0,1,.31.31v3.66A.31.31,0,0,1,93,376.06Zm0-7.33a.3.3,0,0,1-.3-.31v-3.66a.29.29,0,0,1,.3-.3.3.3,0,0,1,.31.3v3.66A.31.31,0,0,1,93,368.73Zm0-7.33a.29.29,0,0,1-.3-.3v-3.67a.3.3,0,0,1,.3-.3.31.31,0,0,1,.31.3v3.67A.3.3,0,0,1,93,361.4Zm0-7.32a.3.3,0,0,1-.3-.31v-3.66a.3.3,0,0,1,.3-.31.31.31,0,0,1,.31.31v3.66A.31.31,0,0,1,93,354.08Zm0-7.33a.3.3,0,0,1-.3-.31v-3.66a.3.3,0,0,1,.3-.31.31.31,0,0,1,.31.31v3.66A.31.31,0,0,1,93,346.75Zm0-7.33a.3.3,0,0,1-.3-.3v-3.67a.29.29,0,0,1,.3-.3.3.3,0,0,1,.31.3v3.67A.31.31,0,0,1,93,339.42Zm0-7.33a.29.29,0,0,1-.3-.3v-3.66a.3.3,0,0,1,.3-.31.31.31,0,0,1,.31.31v3.66A.3.3,0,0,1,93,332.09Zm0-7.32a.3.3,0,0,1-.3-.31V320.8a.3.3,0,0,1,.3-.31.31.31,0,0,1,.31.31v3.66A.31.31,0,0,1,93,324.77Zm0-7.33a.3.3,0,0,1-.3-.31v-3.66a.29.29,0,0,1,.3-.3.3.3,0,0,1,.31.3v3.66A.31.31,0,0,1,93,317.44Zm0-7.33a.29.29,0,0,1-.3-.3v-3.67a.29.29,0,0,1,.3-.3.3.3,0,0,1,.31.3v3.67A.3.3,0,0,1,93,310.11Zm0-7.32a.3.3,0,0,1-.3-.31v-3.66a.3.3,0,0,1,.3-.31.31.31,0,0,1,.31.31v3.66A.31.31,0,0,1,93,302.79Zm0-7.33a.3.3,0,0,1-.3-.31v-3.66a.3.3,0,0,1,.3-.31.31.31,0,0,1,.31.31v3.66A.31.31,0,0,1,93,295.46Zm0-7.33a.3.3,0,0,1-.3-.3v-3.67a.29.29,0,0,1,.3-.3.3.3,0,0,1,.31.3v3.67A.31.31,0,0,1,93,288.13Zm0-7.33a.29.29,0,0,1-.3-.3v-3.67a.3.3,0,0,1,.3-.3.31.31,0,0,1,.31.3v3.67A.3.3,0,0,1,93,280.8Zm0-7.32a.3.3,0,0,1-.3-.31v-3.66a.3.3,0,0,1,.3-.31.31.31,0,0,1,.31.31v3.66A.31.31,0,0,1,93,273.48Z"/><path class="cls-54" d="M129.79,341.43a21.93,21.93,0,1,1,21.92-21.93A22,22,0,0,1,129.79,341.43Zm0-42.64a20.71,20.71,0,1,0,20.7,20.71A20.73,20.73,0,0,0,129.79,298.79Z"/><rect class="cls-54" x="129.18" y="298.18" width="1.22" height="42.63"/><path class="cls-54" d="M128.91,341.05c-8-6-12.38-13.61-12.42-21.48s4.37-15.71,12.42-21.87l.74,1c-7.74,5.92-12,13.34-11.94,20.9s4.28,14.76,11.94,20.5Z"/><path class="cls-54" d="M130.41,341.05l-.73-1c7.66-5.74,11.89-13,11.93-20.5s-4.2-15-11.94-20.9l.74-1c8.05,6.16,12.46,13.93,12.42,21.87S138.38,335.07,130.41,341.05Z"/><path class="cls-54" d="M129.76,332.8c-7.91,0-15.64-4.41-21.77-12.42l1-.74c5.89,7.7,13.28,11.94,20.8,11.94h.1c7.47,0,14.76-4.28,20.5-11.94l1,.73c-6,8-13.61,12.39-21.48,12.43Z"/><path class="cls-54" d="M109,319.62l-1-.75c6.13-8,13.86-12.42,21.77-12.42h.1c7.87,0,15.5,4.46,21.48,12.43l-1,.73c-5.74-7.66-13-11.9-20.5-11.93h-.1C122.24,307.68,114.85,311.91,109,319.62Z"/><rect class="cls-54" x="108.73" y="318.89" width="42.38" height="1.22"/><path class="cls-54" d="M129.79,345.49a26,26,0,1,1,26-26A26,26,0,0,1,129.79,345.49Zm0-50.76a24.77,24.77,0,1,0,24.76,24.77A24.8,24.8,0,0,0,129.79,294.73Z"/><rect class="cls-45" x="109.49" y="352.74" width="41.36" height="3.3"/><rect class="cls-45" x="119.13" y="358.32" width="22.33" height="3.3"/><polygon class="cls-54" points="89.44 376.34 90.71 377.61 90.71 376.34 89.44 376.34"/><rect class="cls-41" x="17.22" y="269.46" width="53.54" height="83.74" rx="1.34"/><rect class="cls-4" x="47.33" y="293.74" width="17.63" height="21.29"/><g class="cls-56"><path class="cls-57" d="M49.64,313.58A13.35,13.35,0,0,0,48.2,315a15.68,15.68,0,0,0,10.57,2.63c4.93-.59,5.3-2.2,5.3-2.2-.59-.56-2.15-1.65-2.15-1.65"/><path class="cls-58" d="M49.64,313.58a9.15,9.15,0,0,1,2.19-1.28c1.25-.5,1-1.09,1.33-3.74a7.94,7.94,0,0,1-1.39-2.7,2.38,2.38,0,0,1-1.3-2.3c-.07-1.85.66-1.53.66-1.53a5.53,5.53,0,0,1,2-4.94c2.53-2.13,6.61,0,7.44,1.48a5.2,5.2,0,0,1,.7,4.14c-.38,1.35.33,2.67-.79,4.86s-1.74,2.47-2.73,2.86l0,1.14a.94.94,0,0,0,.57.65c.47.18,3.53,1.54,3.53,1.54-1.11,0-2.26.81-6.38.81s-5.9-1-5.9-1"/><g class="cls-59"><path class="cls-60" d="M49.64,313.58a9.15,9.15,0,0,1,2.19-1.28c1.25-.5,1-1.09,1.33-3.74a7.94,7.94,0,0,1-1.39-2.7,2.38,2.38,0,0,1-1.3-2.3c-.07-1.85.66-1.53.66-1.53a5.53,5.53,0,0,1,2-4.94c2.53-2.13,6.61,0,7.44,1.48a5.2,5.2,0,0,1,.7,4.14c-.38,1.35.33,2.67-.79,4.86s-1.74,2.47-2.73,2.86l0,1.14a.94.94,0,0,0,.57.65,17.78,17.78,0,0,1,3.53,1.54,20.69,20.69,0,0,1-6.38.81c-4.12,0-5.9-1-5.9-1"/><path class="cls-11" d="M57.82,311.57a5.23,5.23,0,0,1-3.49-2.4,5,5,0,0,0,3.45,1.26Z"/></g><path class="cls-61" d="M53.16,297.09a5.53,5.53,0,0,0-2,4.94s1.11.27,1.35,2h.16l0-1.63c1.5.28,3.8.5,5.21-.34a6.19,6.19,0,0,0,2.78-3.46C59.77,297.12,55.69,295,53.16,297.09Z"/><path class="cls-57" d="M58.39,312.22a34.72,34.72,0,0,1,3.53,1.54,20.69,20.69,0,0,1-6.38.81c-4.12,0-5.9-1-5.9-1a9.15,9.15,0,0,1,2.19-1.28s2.74,2.34,5.51,2.22,1-2.3,1-2.3"/></g><path class="cls-62" d="M44,275.1A3.93,3.93,0,1,0,47.92,279,3.92,3.92,0,0,0,44,275.1Zm2.33,3.83a3.19,3.19,0,0,0-.32-1.42,5.57,5.57,0,0,1,1.55,1.42Zm-.23,0h-2v-2a3.91,3.91,0,0,1,1.59.41A3.26,3.26,0,0,1,46.09,278.93Zm-2-2.24v-1.27A6.43,6.43,0,0,1,45.5,277,2.9,2.9,0,0,0,44.09,276.69Zm-.19,0a4.49,4.49,0,0,0-1.5.32,7.24,7.24,0,0,1,1.5-1.69Zm0,.23v2h-2a3.18,3.18,0,0,1,.41-1.55A3,3,0,0,1,43.9,276.92Zm-2.28,2H40.39a6.64,6.64,0,0,1,1.55-1.42A3.07,3.07,0,0,0,41.62,278.93Zm0,.18a4,4,0,0,0,.32,1.46,5.36,5.36,0,0,1-1.6-1.46Zm.23,0h2v2.06a4.07,4.07,0,0,1-1.59-.41A3,3,0,0,1,41.85,279.11Zm2,2.28v1.24a5.69,5.69,0,0,1-1.41-1.56A2.9,2.9,0,0,0,43.9,281.39Zm.19,0a3.75,3.75,0,0,0,1.37-.27,6.24,6.24,0,0,1-1.37,1.51Zm0-.22v-2.06h2a3.65,3.65,0,0,1-.45,1.65A3.1,3.1,0,0,1,44.09,281.17Zm2.23-2.06H47.6A5.42,5.42,0,0,1,46,280.57,3.25,3.25,0,0,0,46.32,279.11Zm1.37-.41a6.49,6.49,0,0,0-1.82-1.55,5.65,5.65,0,0,0-1.51-1.83A3.71,3.71,0,0,1,47.69,278.7Zm-4.11-3.38a5.29,5.29,0,0,0-1.5,1.88,5.71,5.71,0,0,0-1.78,1.46A3.74,3.74,0,0,1,43.58,275.32Zm-3.28,4.11a6.46,6.46,0,0,0,1.82,1.51,6.05,6.05,0,0,0,1.51,1.78A3.73,3.73,0,0,1,40.3,279.43Zm4,3.29a5.38,5.38,0,0,0,1.51-1.78,5.52,5.52,0,0,0,1.87-1.55A3.7,3.7,0,0,1,44.31,282.72Z"/><path class="cls-62" d="M44,274.37A4.66,4.66,0,1,0,48.65,279,4.67,4.67,0,0,0,44,274.37Zm0,9.12A4.47,4.47,0,1,1,48.47,279,4.47,4.47,0,0,1,44,283.49Z"/><rect class="cls-58" x="34.35" y="285" width="19.29" height="0.84"/><rect class="cls-58" x="30.75" y="286.83" width="26.49" height="0.84"/><rect class="cls-57" x="20.53" y="293.74" width="23.38" height="1.98"/><rect class="cls-57" x="20.53" y="296.69" width="19.86" height="1.98"/><rect class="cls-58" x="20.53" y="323.17" width="16.83" height="1.35"/><rect class="cls-58" x="20.53" y="327.36" width="11.17" height="1.35"/><rect class="cls-58" x="20.53" y="331.55" width="14.3" height="1.35"/><rect class="cls-63" x="40.07" y="323.17" width="16.75" height="1.35"/><rect class="cls-63" x="40.07" y="327.36" width="24.52" height="1.35"/><rect class="cls-63" x="40.07" y="331.55" width="24.52" height="1.35"/><path class="cls-64" d="M49.53,339.64a1.81,1.81,0,0,0-1.81,1.53c-.17.52.65.75.82.22s1.11-1.29,1.58-.72c.34.41,0,1.62-.15,2a3.88,3.88,0,0,1-2.33,2.19c-.5.19-.28,1,.23.82A4.57,4.57,0,0,0,51,340.82C50.87,339.93,50.43,339.62,49.53,339.64Z"/><path class="cls-64" d="M53.41,341.16c0-.55-.83-.54-.85,0a3.6,3.6,0,0,1-.12.8c0,.14-.18.65-.35.69-.32.09-.13-1.17-.11-1.37.05-.55-.8-.55-.85,0-.07.76-.26,2.31,1,2.25C53.1,343.48,53.38,341.93,53.41,341.16Z"/><path class="cls-64" d="M54.32,342.8a6.32,6.32,0,0,1,.42-1.5,3.42,3.42,0,0,1,.21.55.43.43,0,0,0,.71.18c.21-.21.42-.43.62-.65.46.3.85-.16,1.36-.5a3.36,3.36,0,0,1,.71,1c.26.48,1,.06.73-.43s-.67-1.26-1.2-1.42c-.27-.09-1.31.42-1.23.54a.43.43,0,0,0-.67-.08l-.46.48a1.66,1.66,0,0,0-.44-.62.44.44,0,0,0-.51-.06,1.18,1.18,0,0,0-.31.28c-.07-.5-.86-.49-.84,0,0,.7,0,1.4.07,2.1C53.5,343.15,54.22,343.29,54.32,342.8Z"/><path class="cls-64" d="M58,339.22a15.68,15.68,0,0,1-.66-2.53c-.09-.54-.91-.31-.82.22a15.8,15.8,0,0,0,.66,2.54C57.33,340,58.15,339.74,58,339.22Z"/><path class="cls-64" d="M63.37,341.86q-5.32,1.29-10.63,2.68a.43.43,0,0,0,.23.82q5.3-1.38,10.63-2.68C64.13,342.55,63.9,341.73,63.37,341.86Z"/><path class="cls-65" d="M69.5,352.06h-51V270.6h51Zm-50.75-.25H69.24v-81H18.75Z"/><path class="cls-66" d="M192.47,342.59a4.45,4.45,0,0,1-4.32-4.31V273.82a4.45,4.45,0,0,1,4.32-4.31H298a4.45,4.45,0,0,1,4.32,4.31v64.46a4.45,4.45,0,0,1-4.32,4.31Z"/><g class="cls-67"><g class="cls-68"><path class="cls-69" d="M309.2,334.05a30.28,30.28,0,1,1,30.28-30.28A30.32,30.32,0,0,1,309.2,334.05Zm0-58.88a28.6,28.6,0,1,0,28.59,28.6A28.63,28.63,0,0,0,309.2,275.17Z"/><path class="cls-69" d="M309.2,333.79a.84.84,0,0,1-.84-.84V274.33a.84.84,0,1,1,1.68,0V333A.85.85,0,0,1,309.2,333.79Z"/><path class="cls-69" d="M308.44,333.79a.8.8,0,0,1-.51-.17c-11-8.39-17.08-19-17.08-30s6.06-21.6,17.08-30a.84.84,0,1,1,1,1.34c-10.59,8.06-16.42,18.23-16.42,28.64s5.83,20.58,16.42,28.64a.84.84,0,0,1-.51,1.51Z"/><path class="cls-69" d="M309.45,333.79a.84.84,0,0,1-.51-1.51c10.59-8.06,16.42-18.23,16.42-28.64s-5.83-20.58-16.42-28.64a.84.84,0,0,1,1-1.34c11,8.38,17.08,19,17.08,30s-6.06,21.59-17.08,30A.8.8,0,0,1,309.45,333.79Z"/><path class="cls-69" d="M309.07,321.61c-10.95,0-21.59-6.07-30-17.08a.84.84,0,1,1,1.34-1c8.06,10.59,18.23,16.42,28.64,16.42s20.58-5.83,28.64-16.42a.84.84,0,0,1,1.34,1C330.67,315.54,320,321.61,309.07,321.61Z"/><path class="cls-69" d="M338.38,304.1a.84.84,0,0,1-.67-.33c-8.06-10.59-18.23-16.42-28.64-16.42s-20.58,5.83-28.64,16.42a.84.84,0,1,1-1.34-1c8.39-11,19-17.08,30-17.08h0c10.95,0,21.6,6.06,30,17.08a.84.84,0,0,1-.16,1.18A.87.87,0,0,1,338.38,304.1Z"/><path class="cls-69" d="M338.64,304.61H279.76a.85.85,0,0,1,0-1.69h58.88a.85.85,0,0,1,0,1.69Z"/></g></g><path class="cls-24" d="M288.9,296.66v14.21a5.75,5.75,0,0,1-5.84,5.84H271.13a5.74,5.74,0,0,1-5.83-5.84V296.66a5.74,5.74,0,0,1,5.83-5.84h11.93A5.91,5.91,0,0,1,288.9,296.66Z"/><path class="cls-70" d="M283.06,317.11H271.13a6.17,6.17,0,0,1-6.23-6.24V296.66a6.16,6.16,0,0,1,6.23-6.23h11.93a6.32,6.32,0,0,1,6.24,6.23v14.21A6.17,6.17,0,0,1,283.06,317.11Zm-11.93-25.89a5.31,5.31,0,0,0-5.43,5.44v14.21a5.31,5.31,0,0,0,5.43,5.44h11.93a5.32,5.32,0,0,0,5.44-5.44V296.66a5.51,5.51,0,0,0-5.44-5.44Z"/><path class="cls-70" d="M281,300.86h-7.36a2.4,2.4,0,0,1-2.43-2.42v-7.62a.4.4,0,0,1,.8,0v7.62a1.6,1.6,0,0,0,1.63,1.63H281a1.6,1.6,0,0,0,1.63-1.63v-7.62a.4.4,0,0,1,.8,0v7.62A2.4,2.4,0,0,1,281,300.86Z"/><path class="cls-70" d="M282.81,317.11a.4.4,0,0,1-.4-.4v-7.62a1.6,1.6,0,0,0-1.63-1.63h-7.36a1.6,1.6,0,0,0-1.63,1.63v7.62a.4.4,0,0,1-.8,0v-7.62a2.4,2.4,0,0,1,2.43-2.42h7.36a2.39,2.39,0,0,1,2.42,2.42v7.62A.39.39,0,0,1,282.81,317.11Z"/><path class="cls-70" d="M273.93,307.46a.4.4,0,0,1-.4-.4v-6.59a.4.4,0,0,1,.4-.4.39.39,0,0,1,.39.4v6.59A.39.39,0,0,1,273.93,307.46Z"/><path class="cls-70" d="M280.52,307.46a.39.39,0,0,1-.39-.4v-6.59a.39.39,0,0,1,.39-.4.4.4,0,0,1,.4.4v6.59A.4.4,0,0,1,280.52,307.46Z"/><path class="cls-70" d="M277.22,317.11a.39.39,0,0,1-.39-.4v-9.65a.39.39,0,0,1,.39-.39.4.4,0,0,1,.4.39v9.65A.4.4,0,0,1,277.22,317.11Z"/><path class="cls-70" d="M277.22,300.86a.38.38,0,0,1-.39-.39v-9.65a.38.38,0,0,1,.39-.39.39.39,0,0,1,.4.39v9.65A.39.39,0,0,1,277.22,300.86Z"/><path class="cls-70" d="M271.39,310.76h-5.84a.4.4,0,0,1-.4-.4.39.39,0,0,1,.4-.39h5.84a.39.39,0,0,1,.4.39A.4.4,0,0,1,271.39,310.76Z"/><path class="cls-70" d="M288.9,310.76h-5.84a.4.4,0,0,1-.4-.4.39.39,0,0,1,.4-.39h5.84a.39.39,0,0,1,.4.39A.4.4,0,0,1,288.9,310.76Z"/><path class="cls-70" d="M288.9,297.57h-5.84a.4.4,0,0,1,0-.8h5.84a.4.4,0,1,1,0,.8Z"/><path class="cls-70" d="M271.39,297.57h-5.84a.4.4,0,0,1,0-.8h5.84a.4.4,0,1,1,0,.8Z"/><rect class="cls-45" x="193.48" y="290.82" width="54.56" height="5.08"/><rect class="cls-45" x="193.48" y="308.59" width="1.27" height="7.36"/><rect class="cls-45" x="195.77" y="308.59" width="4.06" height="7.36"/><rect class="cls-45" x="200.84" y="308.59" width="6.85" height="7.36"/><rect class="cls-45" x="208.45" y="308.59" width="3.3" height="7.36"/><rect class="cls-45" x="212.77" y="308.59" width="1.52" height="7.36"/><rect class="cls-45" x="215.05" y="308.59" width="8.63" height="7.36"/><rect class="cls-45" x="224.19" y="308.59" width="5.84" height="7.36"/><rect class="cls-45" x="230.79" y="308.59" width="1.02" height="7.36"/><rect class="cls-71" x="188.15" y="330.16" width="114.19" height="2.28"/><path class="cls-71" d="M195.77,281.69c-.51,0-.76,0-1-.26s-.51-.25-.76-.5l.51-.51.51.51c.25,0,.5.25.76.25a1,1,0,0,0,.76-.25c.25-.26.25-.26.25-.51s0-.25-.25-.51a.92.92,0,0,0-.51-.25h-.51a1.31,1.31,0,0,1-1-.51c-.26-.25-.26-.51-.26-1v-.51c0-.26.26-.26.26-.51s.25-.25.51-.25h.76a1.53,1.53,0,0,1,1,.25c.26,0,.51.25.76.51l-.5.51c0-.26-.26-.26-.51-.26s-.51-.25-.76-.25-.51,0-.51.25c-.26,0-.26.26-.26.51s0,.25.26.51.25.25.51.25h.5a1.3,1.3,0,0,1,1,.51c.25.25.25.51.25,1v.51c0,.25-.25.25-.25.51-.25,0-.25.25-.51.25A1.94,1.94,0,0,0,195.77,281.69Z"/><path class="cls-71" d="M205.92,277.88h0l-.51.76-1,1.78-1-1.78-.25-.76h0v3.55h-.77v-4.82h1l1.27,2.29h0l1.27-2.29h.76v4.82h-.76Z"/><path class="cls-71" d="M214.8,281.69l-.51-1.27h-1.78l-.5,1.27h-.76l1.52-4.82h1l1.53,4.82Zm-1.27-4.06h0l-.76,2H214Z"/><path class="cls-71" d="M221.14,281.69h-.76v-4.82h2c.51,0,.76,0,1,.5.25.26.25.51.25,1a.94.94,0,0,1-.25.76c-.26.25-.51.25-.76.51l1,2h-.76l-1-1.78h-1v1.78Zm1.27-2.54c.26,0,.26,0,.51-.25a.92.92,0,0,0,.25-.51v-.25c0-.26,0-.26-.25-.51a.87.87,0,0,0-.51-.26h-1.27v1.53h1.27Z"/><path class="cls-71" d="M230.28,277.63v4.06h-.76v-4.06H228v-.76h3.56v.76Z"/><path class="cls-71" d="M244,281.69a3.65,3.65,0,0,1-1.52-.51,3.7,3.7,0,0,1-.51-1.78c0-.5,0-.76.26-1,0-.25.25-.51.5-.76l.51-.51c.25,0,.51-.25.76-.25.51,0,.76,0,1,.25l.76.76-.76.26a.87.87,0,0,0-.26-.51.91.91,0,0,0-.76-.26c-.25,0-.76,0-.76.26-.25.25-.25.51-.25,1v.76c0,.51,0,.77.25,1a.94.94,0,0,0,.76.25.93.93,0,0,0,.76-.25l.51-.51.51.26c-.26.25-.26.5-.76.76C244.74,281.69,244.49,281.69,244,281.69Z"/><path class="cls-71" d="M253.37,281.69l-.51-1.27h-1.77l-.51,1.27h-.76l1.52-4.82h1l1.52,4.82Zm-1.27-4.06h0l-.76,2h1.27Z"/><path class="cls-71" d="M259.71,281.69H259v-4.82h2c.51,0,.76,0,1,.5.25.26.25.51.25,1a.94.94,0,0,1-.25.76c-.25.25-.51.25-.76.51l1,2h-.76l-1-1.78h-1v1.78Zm1.27-2.54c.26,0,.26,0,.51-.25a.92.92,0,0,0,.25-.51v-.25c0-.26,0-.26-.25-.51a.87.87,0,0,0-.51-.26h-1.27v1.53H261Z"/><path class="cls-71" d="M267.58,276.87h1.78a.94.94,0,0,1,.76.25.55.55,0,0,1,.51.51c.25.25.25.51.5.76,0,.25.26.76.26,1,0,.51,0,.77-.26,1s-.25.51-.5.76-.51.25-.51.51c-.25,0-.51.25-.76.25h-1.78Zm1.52,4.06a.94.94,0,0,0,.77-.26c.25-.25.25-.5.25-1v-.76c0-.51,0-.76-.25-1a1,1,0,0,0-.77-.25h-1v3.3Z"/><path class="cls-72" d="M392.12,115.4a74.76,74.76,0,0,0-7.52,7.31c6.21,5.38,29.38,16.69,55,13.65s27.58-11.44,27.58-11.44c-3.1-2.9-11.17-8.62-11.17-8.62"/><path class="cls-73" d="M392.12,115.4a48.93,48.93,0,0,1,11.45-6.62c6.55-2.62,5.31-5.66,6.9-19.45,0,0-6.83-9.1-7.25-14.07,0,0-6.41-2.34-6.75-12s3.44-8,3.44-8-2.62-14.55,10.56-25.65,34.41.14,38.75,7.65,5.66,14.56,3.66,21.59,1.79,13.93-4.07,25.24-9,12.83-14.21,14.9l.21,5.93a4.82,4.82,0,0,0,3,3.38c2.48.89,18.34,8,18.34,8-5.79.07-11.72,4.2-33.24,4.2s-30.76-5.1-30.76-5.1"/><path class="cls-74" d="M434.67,104.92c-13.79-3.45-18.14-12.55-18.14-12.55,6.14,6.89,18,6.55,18,6.55Z"/><path class="cls-75" d="M399.85,55.26s5.79,1.45,7,10.28h.83l-.14-9.17Z"/><path class="cls-76" d="M437.64,108.3a178,178,0,0,1,18.34,8s-11.72,4.2-33.24,4.2-30.69-5.17-30.69-5.17a48.93,48.93,0,0,1,11.45-6.62s14.21,12.14,28.62,11.52,5.52-11.93,5.52-11.93"/><path class="cls-77" d="M452.19,66.64a15.79,15.79,0,0,0-7-1.93c-3.65,0-9.72,0-9.72,9.73,0,4.62,2.9,11.1,2.9,11.1"/><path class="cls-78" d="M431.64,68.37s-4.55-3.66-9.11-3.66c-5.38,0-8.34,1.79-8.34,4.55,0,4.76,4.83,5.86,4.83,5.86"/><path class="cls-79" d="M438,28.8c-.37,2.71-2.64,25,14.69,30.7,2.26-7.25.91-14.52-3.52-22.33C447.5,34.24,443.36,31.43,438,28.8Z"/><path class="cls-75" d="M399.85,55.26s-2.63-14.55,10.55-25.65,34.41.14,38.75,7.65a32.09,32.09,0,0,1-14.48,18c-11.65,7-34.82,0-34.82,0"/></svg>