<svg id="Layer_1" data-name="Layer 1" xmlns="http://www.w3.org/2000/svg" xmlns:xlink="http://www.w3.org/1999/xlink" viewBox="0 0 478 416"><defs><style>.cls-1,.cls-81,.cls-83,.cls-87,.cls-89{fill:none;}.cls-2{fill:#7ebfab;}.cls-2,.cls-3{fill-rule:evenodd;}.cls-3{fill:#aadccd;}.cls-4{fill:#ac8368;}.cls-5{fill:#818282;}.cls-6{fill:#f3f3f3;}.cls-7{fill:#80c0aa;}.cls-8{fill:#b9b9ba;}.cls-9{fill:#f4f4f4;}.cls-10{fill:#fff;}.cls-11{fill:#69c3a9;}.cls-12{fill:#444546;}.cls-13{fill:#604332;}.cls-14{fill:#8a6955;}.cls-15{fill:#473025;}.cls-16{fill:#dcdcdc;}.cls-17{fill:#e4ab25;}.cls-18{fill:#a3a3a3;}.cls-19{fill:#686868;}.cls-20{fill:#7c7c7c;}.cls-21{fill:#ef5354;}.cls-22{fill:#b6b6b7;}.cls-23{fill:#353635;}.cls-24{fill:#2d2e2d;}.cls-25{fill:#81c1ab;}.cls-26{fill:#ad8468;}.cls-27{fill:#699e8a;}.cls-28{clip-path:url(#clip-path);}.cls-29{fill:#ac8367;}.cls-30{fill:#ab8267;}.cls-31{fill:#a98166;}.cls-32{fill:#a88066;}.cls-33{fill:#a77f65;}.cls-34{fill:#a67e64;}.cls-35{fill:#a57d64;}.cls-36{fill:#a47d63;}.cls-37{fill:#a37c63;}.cls-38{fill:#a27b62;}.cls-39{fill:#a17a61;}.cls-40{fill:#a07a61;}.cls-41{fill:#9f7960;}.cls-42{fill:#9d7860;}.cls-43{fill:#9c775f;}.cls-44{fill:#9b775f;}.cls-45{fill:#9a765e;}.cls-46{fill:#99755d;}.cls-47{fill:#98745d;}.cls-48{fill:#97745c;}.cls-49{fill:#96735c;}.cls-50{fill:#95725b;}.cls-51{fill:#94715a;}.cls-52{fill:#93705a;}.cls-53{fill:#926f59;}.cls-54{fill:#916e59;}.cls-55{fill:#906e58;}.cls-56{fill:#8e6d57;}.cls-57{fill:#8d6c57;}.cls-58{fill:#8c6b56;}.cls-59{fill:#8b6a56;}.cls-60{clip-path:url(#clip-path-2);}.cls-61{fill:#aa8267;}.cls-62{fill:#a88065;}.cls-63{fill:#a67f64;}.cls-64{fill:#a57e63;}.cls-65{fill:#a27c62;}.cls-66{fill:#a17b62;}.cls-67{fill:#9f7a60;}.cls-68{fill:#9e7960;}.cls-69{fill:#9d785f;}.cls-70{fill:#9c775e;}.cls-71{fill:#9b765e;}.cls-72{fill:#9a765d;}.cls-73{fill:#98745c;}.cls-74{fill:#97735c;}.cls-75{fill:#96725b;}.cls-76{fill:#95715b;}.cls-77{fill:#927059;}.cls-78{fill:#916f59;}.cls-79{fill:#8f6d58;}.cls-80{fill:#8e6c57;}.cls-81{stroke:#000;stroke-width:0.31px;}.cls-81,.cls-83,.cls-88{stroke-miterlimit:10;}.cls-82{fill:#231f20;}.cls-83{stroke:#231f20;stroke-width:0.61px;}.cls-84{fill:#d8d9d8;}.cls-85{clip-path:url(#clip-path-3);}.cls-86{opacity:0.2;}.cls-87{stroke:#8e8e8e;stroke-width:0.63px;}.cls-87,.cls-89{stroke-linecap:round;stroke-linejoin:round;}.cls-88{fill:#e7ac22;}.cls-88,.cls-89{stroke:#6b6b6b;stroke-width:0.3px;}.cls-90{fill:#a3a1a1;}.cls-91{fill:#828282;}</style><clipPath id="clip-path"><path class="cls-1" d="M313.43,194.89a9.71,9.71,0,0,0-4.32-1.18c-2.24,0-5.95,0-5.95,5.95,0,2.84,1.77,6.81,1.77,6.81"/></clipPath><clipPath id="clip-path-2"><path class="cls-1" d="M300.83,195.94s-2.79-2.23-5.58-2.23c-3.29,0-5.11,1.09-5.11,2.78a3.83,3.83,0,0,0,3,3.6"/></clipPath><clipPath id="clip-path-3"><rect class="cls-1" x="14.58" y="214.32" width="92.2" height="59.18" rx="3.65"/></clipPath></defs><g id="arrow-change"><path id="Path_2396" data-name="Path 2396" class="cls-2" d="M25.45,95.38a4.21,4.21,0,0,0,4.45-3.94,4.51,4.51,0,0,0,0-.52v-1.4s-.66-4,4.65-4l21.52.14v5.69a2.67,2.67,0,0,0,3.77,0l8.32-8.31a2.7,2.7,0,0,0,0-3.78l-8.32-8.8a2.68,2.68,0,0,0-3.78,0v6c-.52-.15-20.84-.24-20.84-.24-12,0-14.61,7.84-14.61,11v3.33a4.85,4.85,0,0,0,4.85,4.85Z"/><path id="Path_2397" data-name="Path 2397" class="cls-3" d="M64.08,95.51a4.62,4.62,0,0,0-4.84,4.37v3.28c-.14,1.15-2.08,1.9-4.92,1.9H33.2v-5a2.68,2.68,0,0,0-3.78,0l-8.31,8.31a2.7,2.7,0,0,0,0,3.78l8.31,8.31a2.67,2.67,0,0,0,3.77,0h0v-6H54.32c12,0,14.6-7.89,14.6-11v-3.33a4.61,4.61,0,0,0-4.66-4.57Z"/></g><path class="cls-4" d="M209.48,271a24,24,0,0,1,19.18,0,.51.51,0,0,0,.4.13,1.35,1.35,0,0,0,.93-.53,1,1,0,0,0-.53-1.34,25.86,25.86,0,0,0-10.39-2.13,23.45,23.45,0,0,0-10.39,2.13,1,1,0,1,0,.8,1.74Z"/><path class="cls-4" d="M205.88,278.76a18.36,18.36,0,0,1,26.65,0,1,1,0,0,0,1.33,0,1,1,0,0,0,0-1.46,20.28,20.28,0,0,0-29.31,0,1,1,0,0,0,0,1.46A.88.88,0,0,0,205.88,278.76Z"/><path class="cls-4" d="M219.07,275.17a14,14,0,0,0-4.13.53,1,1,0,1,0,.53,1.86,17.21,17.21,0,0,1,3.73-.53,15,15,0,0,1,15.06,15.06.93.93,0,0,0,1.86,0A17,17,0,0,0,219.07,275.17Z"/><path class="cls-4" d="M204.15,292.09a15.18,15.18,0,0,1,4.39-10.53,14.72,14.72,0,0,1,3.2-2.4,1,1,0,1,0-1.06-1.6,17.67,17.67,0,0,0-3.6,2.8,17.37,17.37,0,0,0-4.93,12,1.13,1.13,0,0,0,.93,1.07h0A1.54,1.54,0,0,0,204.15,292.09Z"/><path class="cls-4" d="M208.14,292.35a11.06,11.06,0,0,1,3.2-8,11.13,11.13,0,0,1,16.12.53.95.95,0,1,0,1.47-1.2,13.08,13.08,0,0,0-9.73-4.39,12.59,12.59,0,0,0-9.19,3.86,13.62,13.62,0,0,0-3.73,9.46,16.94,16.94,0,0,1-1.87,7.19l-.53.94a.92.92,0,0,0,.4,1.33c.13.13.27.13.53.13a1.16,1.16,0,0,0,.94-.53l.53-1.07A22.2,22.2,0,0,0,208.14,292.35Z"/><path class="cls-4" d="M232.79,300a32.41,32.41,0,0,1-.66-7.33v-.53a16.77,16.77,0,0,0-.67-4.4,1.05,1.05,0,1,0-2,.67,11.52,11.52,0,0,1,.67,3.73v.53a37.5,37.5,0,0,0,.8,7.73l1.06,3.73a1,1,0,0,0,.94.66c.13,0,.13,0,.26-.13a1,1,0,0,0,.67-1.2Z"/><path class="cls-4" d="M230.13,305.28a50.59,50.59,0,0,1-2-13.19,8.93,8.93,0,0,0-8.93-8.93,9.07,9.07,0,0,0-8.92,9.19,22.58,22.58,0,0,1-4.4,12.66c-.27.53-.27,1.07.27,1.33s1.06.27,1.33-.26a25.37,25.37,0,0,0,4.79-13.86,7,7,0,0,1,7.07-7.06,7.11,7.11,0,0,1,7.06,7.06,51.36,51.36,0,0,0,2.13,13.72l.93,2.93a1,1,0,0,0,.93.67c.14,0,.14,0,.27-.13a1.05,1.05,0,0,0,.67-1.34Z"/><path class="cls-4" d="M224.13,292.09a5.06,5.06,0,1,0-10.12,0c0,.26.26,8.12-6.13,16.52a.94.94,0,1,0,1.46,1.2c6.8-8.8,6.53-17.32,6.53-17.72a2.93,2.93,0,0,1,5.86,0A36.48,36.48,0,0,1,214,313.4a1,1,0,0,0,.13,1.34,1,1,0,0,0,.67.26,1.16,1.16,0,0,0,.8-.4C224.13,303.94,224.13,293.29,224.13,292.09Z"/><path class="cls-4" d="M218.67,297h0c.67,0,1.07-.27,1.07-.8a18.75,18.75,0,0,0,.26-4.13,1,1,0,1,0-2,.13,15.3,15.3,0,0,1-.26,3.73A.94.94,0,0,0,218.67,297Z"/><path class="cls-4" d="M218.14,299.15a1,1,0,0,0-1.2.66,33.5,33.5,0,0,1-6.26,11.73,1,1,0,0,0,.13,1.33,1,1,0,0,0,.67.27,1.16,1.16,0,0,0,.79-.4,36.72,36.72,0,0,0,6.53-12.39A1,1,0,0,0,218.14,299.15Z"/><path class="cls-4" d="M226.66,307.28c-.53-1.47-.93-2.94-.93-2.94a1,1,0,0,0-1.86,0,67.79,67.79,0,0,1-4.8,9.33,1,1,0,0,0,.27,1.33c.13.14.26.14.53.14a.83.83,0,0,0,.8-.54,54.57,54.57,0,0,0,3.86-7.19c.14.13.14.27.14.53l1.19,3.73a1.05,1.05,0,0,0,1.34.67,1,1,0,0,0,.66-1.33Z"/><path class="cls-5" d="M394.4,358.9h-.15a1,1,0,0,1-.83-1.14l9.32-61.68a1,1,0,0,1,1-.85h6a1,1,0,0,1,1,.84l9.86,61a1,1,0,0,1-2,.32l-9.73-60.18h-4.28l-9.2,60.83A1,1,0,0,1,394.4,358.9Z"/><path class="cls-5" d="M424.51,358.9h-34.9a1,1,0,1,1,0-2h34.9a1,1,0,1,1,0,2Z"/><path class="cls-5" d="M394.4,358.9a1,1,0,0,1-.57-1.81L405.42,349l-8.66-6.11a1,1,0,0,1-.42-.76,1,1,0,0,1,.34-.8l8.92-7.82-6.79-5.86a1,1,0,0,1,0-1.49l6.56-6.14-4.67-4.1a1,1,0,0,1,.66-1.75H412a1,1,0,0,1,.68,1.73L408.31,320l7,6.16a1,1,0,0,1,0,1.5l-6.67,5.85,9.06,7.83a1,1,0,0,1-.08,1.58L408.89,349l9.8,6.91a1,1,0,0,1-1.15,1.63l-10.38-7.32L395,358.72A1,1,0,0,1,394.4,358.9ZM399,342l8.21,5.8,8.27-5.79-8.31-7.18Zm2-15.13,6.15,5.32,6-5.29-6.29-5.54Zm3-10.7,2.82,2.49,2.66-2.49Z"/><path class="cls-5" d="M406.66,316.13a1,1,0,0,1-1-1V282.49a1,1,0,0,1,2,0v32.65A1,1,0,0,1,406.66,316.13Z"/><circle class="cls-6" cx="406.53" cy="289.42" r="2.93"/><path class="cls-5" d="M406.53,293.35a3.93,3.93,0,1,1,3.93-3.93A3.93,3.93,0,0,1,406.53,293.35Zm0-5.86a1.94,1.94,0,1,0,1.93,1.93A1.94,1.94,0,0,0,406.53,287.49Z"/><path class="cls-7" d="M389.87,288a14,14,0,0,1,4.4-10.13l-1.6-1.73A16,16,0,0,0,387.61,288a16.72,16.72,0,0,0,5.06,11.85l1.6-1.73A14,14,0,0,1,389.87,288Z"/><path class="cls-7" d="M423.45,288a14,14,0,0,1-4.4,10.12l1.6,1.73a15.87,15.87,0,0,0,5.06-11.72,16.76,16.76,0,0,0-5.06-11.86l-1.6,1.73A13.45,13.45,0,0,1,423.45,288Z"/><path class="cls-7" d="M425.05,273.3l-1.6,1.6A18,18,0,0,1,429.18,288,17.54,17.54,0,0,1,423.45,301l1.6,1.74a20.16,20.16,0,0,0,0-29.45Z"/><path class="cls-7" d="M396,288a9.69,9.69,0,0,1,2.93-6.8l-1.6-1.73a11.61,11.61,0,0,0,0,17.05l1.6-1.73A9.68,9.68,0,0,1,396,288Z"/><path class="cls-7" d="M388.41,302.75,390,301A18,18,0,0,1,384.28,288,17.5,17.5,0,0,1,390,274.9l-1.6-1.73a20.41,20.41,0,0,0-6.4,14.65A20.09,20.09,0,0,0,388.41,302.75Z"/><path class="cls-7" d="M417.32,288a9.68,9.68,0,0,1-2.93,6.79l1.6,1.73a11.61,11.61,0,0,0,0-17.05l-1.6,1.73A9.17,9.17,0,0,1,417.32,288Z"/><polygon class="cls-8" points="149.76 111.69 148.49 111.69 148.49 33.98 115.28 33.98 115.28 32.72 149.76 32.72 149.76 111.69"/><rect class="cls-8" x="161.15" y="157.79" width="1.27" height="42.5"/><circle class="cls-9" cx="161.78" cy="204.69" r="4.4"/><path class="cls-8" d="M161.78,209.72a5,5,0,1,1,5-5A5,5,0,0,1,161.78,209.72Zm0-8.8a3.77,3.77,0,1,0,3.76,3.77A3.77,3.77,0,0,0,161.78,200.92Z"/><rect class="cls-8" x="166.31" y="204.05" width="96.99" height="1.27"/><circle class="cls-9" cx="263.3" cy="204.69" r="4.4"/><path class="cls-8" d="M263.3,209.72a5,5,0,1,1,5-5A5,5,0,0,1,263.3,209.72Zm0-8.8a3.77,3.77,0,1,0,3.76,3.77A3.77,3.77,0,0,0,263.3,200.92Z"/><polygon class="cls-8" points="278.33 294.72 249.71 294.72 249.71 293.45 277.06 293.45 277.06 250.78 278.33 250.78 278.33 294.72"/><polygon class="cls-8" points="189.36 294.72 161.15 294.72 161.15 209.08 162.41 209.08 162.41 293.45 189.36 293.45 189.36 294.72"/><circle class="cls-9" cx="247.98" cy="294.09" r="4.4"/><path class="cls-8" d="M248,299.12a5,5,0,1,1,5-5A5,5,0,0,1,248,299.12Zm0-8.8a3.77,3.77,0,1,0,3.76,3.77A3.77,3.77,0,0,0,248,290.32Z"/><circle class="cls-9" cx="189.36" cy="294.09" r="4.4"/><path class="cls-8" d="M189.36,299.12a5,5,0,1,1,5-5A5,5,0,0,1,189.36,299.12Zm0-8.8a3.77,3.77,0,1,0,3.76,3.77A3.76,3.76,0,0,0,189.36,290.32Z"/><polygon class="cls-8" points="172.27 111.29 171 111.29 171 85.74 373.49 85.74 373.49 87.01 172.27 87.01 172.27 111.29"/><rect class="cls-8" x="290.51" y="66.26" width="1.27" height="80.21"/><circle class="cls-9" cx="115.28" cy="33.35" r="4.4"/><path class="cls-8" d="M115.28,38.38a5,5,0,1,1,5-5A5,5,0,0,1,115.28,38.38Zm0-8.79A3.76,3.76,0,1,0,119,33.35,3.77,3.77,0,0,0,115.28,29.59Z"/><line class="cls-9" x1="378.95" y1="105.43" x2="320.73" y2="160.59"/><rect class="cls-8" x="309.74" y="132.37" width="80.2" height="1.27" transform="translate(4.4 277.07) rotate(-43.46)"/><circle class="cls-9" cx="317.79" cy="162.99" r="4.4"/><path class="cls-8" d="M317.79,168a5,5,0,1,1,5-5A5,5,0,0,1,317.79,168Zm0-8.8a3.77,3.77,0,1,0,3.77,3.77A3.77,3.77,0,0,0,317.79,159.22Z"/><circle class="cls-9" cx="378.24" cy="106.58" r="4.4"/><path class="cls-8" d="M378.24,111.62a5,5,0,1,1,5-5A5,5,0,0,1,378.24,111.62Zm0-8.8a3.77,3.77,0,1,0,3.76,3.76A3.76,3.76,0,0,0,378.24,102.82Z"/><line class="cls-9" x1="386.41" y1="314.6" x2="328.05" y2="369.63"/><rect class="cls-8" x="317.13" y="341.48" width="80.21" height="1.27" transform="translate(-137.38 338.18) rotate(-43.31)"/><circle class="cls-9" cx="330.98" cy="367.36" r="4.4"/><path class="cls-8" d="M331,372.39a5,5,0,1,1,5-5A5,5,0,0,1,331,372.39Zm0-8.79a3.76,3.76,0,1,0,3.77,3.76A3.77,3.77,0,0,0,331,363.6Z"/><circle class="cls-9" cx="382.94" cy="318.2" r="4.4"/><path class="cls-8" d="M382.94,323.23a5,5,0,1,1,5-5A5,5,0,0,1,382.94,323.23Zm0-8.79a3.76,3.76,0,1,0,3.77,3.76A3.77,3.77,0,0,0,382.94,314.44Z"/><rect class="cls-8" x="405.63" y="119.55" width="1.27" height="141.23"/><circle class="cls-9" cx="406.26" cy="115.15" r="4.4"/><path class="cls-8" d="M406.26,120.19a5,5,0,1,1,5-5A5,5,0,0,1,406.26,120.19Zm0-8.8a3.77,3.77,0,1,0,3.76,3.76A3.77,3.77,0,0,0,406.26,111.39Z"/><circle class="cls-9" cx="406.53" cy="260.78" r="4.4"/><path class="cls-8" d="M406.53,265.81a5,5,0,1,1,5-5A5,5,0,0,1,406.53,265.81Zm0-8.79a3.76,3.76,0,1,0,3.76,3.76A3.76,3.76,0,0,0,406.53,257Z"/><polygon class="cls-8" points="246.35 406.8 245.08 406.8 245.08 366.46 275.03 366.46 275.03 367.73 246.35 367.73 246.35 406.8"/><circle class="cls-9" cx="245.72" cy="406.8" r="4.4"/><path class="cls-8" d="M245.72,411.83a5,5,0,1,1,5-5A5,5,0,0,1,245.72,411.83Zm0-8.79a3.76,3.76,0,1,0,3.76,3.76A3.77,3.77,0,0,0,245.72,403Z"/><circle class="cls-9" cx="301.54" cy="249.19" r="4.4"/><path class="cls-8" d="M301.54,254.22a5,5,0,1,1,5-5A5,5,0,0,1,301.54,254.22Zm0-8.8a3.77,3.77,0,1,0,3.76,3.77A3.77,3.77,0,0,0,301.54,245.42Z"/><circle class="cls-9" cx="277.69" cy="249.19" r="4.4"/><path class="cls-8" d="M277.69,254.22a5,5,0,1,1,5-5A5,5,0,0,1,277.69,254.22Zm0-8.8a3.77,3.77,0,1,0,3.76,3.77A3.77,3.77,0,0,0,277.69,245.42Z"/><polygon class="cls-8" points="427.28 186.17 426.01 186.17 426.01 146.5 459.55 146.5 459.55 147.76 427.28 147.76 427.28 186.17"/><circle class="cls-9" cx="459.55" cy="147.13" r="4.4"/><path class="cls-8" d="M459.55,152.16a5,5,0,1,1,5-5A5,5,0,0,1,459.55,152.16Zm0-8.79a3.76,3.76,0,1,0,3.76,3.76A3.77,3.77,0,0,0,459.55,143.37Z"/><circle class="cls-9" cx="290.75" cy="86.38" r="4.4"/><path class="cls-8" d="M290.75,91.41a5,5,0,1,1,5-5A5,5,0,0,1,290.75,91.41Zm0-8.8a3.77,3.77,0,1,0,3.76,3.77A3.76,3.76,0,0,0,290.75,82.61Z"/><circle class="cls-9" cx="378.15" cy="86.38" r="4.4"/><path class="cls-8" d="M378.15,91.41a5,5,0,1,1,5-5A5,5,0,0,1,378.15,91.41Zm0-8.8a3.77,3.77,0,1,0,3.76,3.77A3.76,3.76,0,0,0,378.15,82.61Z"/><circle class="cls-9" cx="171.64" cy="87.44" r="4.4"/><path class="cls-8" d="M171.64,92.47a5,5,0,1,1,5-5A5,5,0,0,1,171.64,92.47Zm0-8.79a3.76,3.76,0,1,0,3.76,3.76A3.76,3.76,0,0,0,171.64,83.68Z"/><circle class="cls-9" cx="161.78" cy="294.09" r="4.4"/><path class="cls-8" d="M161.78,299.12a5,5,0,1,1,5-5A5,5,0,0,1,161.78,299.12Zm0-8.8a3.77,3.77,0,1,0,3.76,3.77A3.77,3.77,0,0,0,161.78,290.32Z"/><circle class="cls-9" cx="245.72" cy="367.36" r="4.4"/><path class="cls-8" d="M245.72,372.39a5,5,0,1,1,5-5A5,5,0,0,1,245.72,372.39Zm0-8.79a3.76,3.76,0,1,0,3.76,3.76A3.77,3.77,0,0,0,245.72,363.6Z"/><circle class="cls-9" cx="291.15" cy="62.4" r="4.4"/><path class="cls-8" d="M291.15,67.43a5,5,0,1,1,5-5A5,5,0,0,1,291.15,67.43Zm0-8.8a3.77,3.77,0,1,0,3.76,3.77A3.76,3.76,0,0,0,291.15,58.63Z"/><circle class="cls-9" cx="291.15" cy="150.33" r="4.4"/><path class="cls-8" d="M291.15,155.36a5,5,0,1,1,5-5A5,5,0,0,1,291.15,155.36Zm0-8.79a3.76,3.76,0,1,0,3.76,3.76A3.76,3.76,0,0,0,291.15,146.57Z"/><rect class="cls-8" x="300.91" y="253.58" width="1.27" height="60.22"/><polygon class="cls-8" points="275.03 342.82 161.15 342.82 161.15 298.48 162.41 298.48 162.41 341.55 275.03 341.55 275.03 342.82"/><circle class="cls-9" cx="301.54" cy="312.47" r="4.4"/><path class="cls-8" d="M301.54,317.5a5,5,0,1,1,5-5A5,5,0,0,1,301.54,317.5Zm0-8.79a3.76,3.76,0,1,0,3.76,3.76A3.77,3.77,0,0,0,301.54,308.71Z"/><circle class="cls-9" cx="271.96" cy="342.18" r="4.4"/><path class="cls-8" d="M272,347.21a5,5,0,1,1,5-5A5,5,0,0,1,272,347.21Zm0-8.79a3.76,3.76,0,1,0,3.76,3.76A3.77,3.77,0,0,0,272,338.42Z"/><circle class="cls-9" cx="271.96" cy="367.1" r="4.4"/><path class="cls-8" d="M272,372.13a5,5,0,1,1,5-5A5,5,0,0,1,272,372.13Zm0-8.8a3.77,3.77,0,1,0,3.76,3.77A3.77,3.77,0,0,0,272,363.33Z"/><rect class="cls-10" x="400.66" y="194.96" width="7.86" height="35.71"/><path class="cls-11" d="M398,201.09a8.16,8.16,0,0,0-8.13,8.13,8.07,8.07,0,0,0,8.13,8.12h45.43a8.13,8.13,0,1,0,0-16.25Z"/><circle class="cls-10" cx="398" cy="209.08" r="2.26"/><circle class="cls-10" cx="406.79" cy="209.08" r="2.26"/><circle class="cls-10" cx="415.59" cy="209.08" r="2.26"/><path class="cls-11" d="M398,220.14a8.13,8.13,0,1,0,0,16.26h45.43a8.13,8.13,0,0,0,0-16.26Z"/><circle class="cls-10" cx="398" cy="228.27" r="2.26"/><circle class="cls-10" cx="406.79" cy="228.27" r="2.26"/><circle class="cls-10" cx="415.59" cy="228.27" r="2.26"/><path class="cls-11" d="M398,181.9a8.16,8.16,0,0,0-8.13,8.13,8.08,8.08,0,0,0,8.13,8.13h45.43a8.16,8.16,0,0,0,8.13-8.13,8.08,8.08,0,0,0-8.13-8.13Z"/><circle class="cls-10" cx="398" cy="190.03" r="2.26"/><circle class="cls-10" cx="406.79" cy="190.03" r="2.26"/><circle class="cls-10" cx="415.59" cy="190.03" r="2.26"/><path class="cls-11" d="M139.13,105.83a8.13,8.13,0,1,0,0,16.25H184.7a8.13,8.13,0,0,0,0-16.25Z"/><circle class="cls-10" cx="139.13" cy="113.82" r="2.26"/><circle class="cls-10" cx="147.92" cy="113.82" r="2.26"/><circle class="cls-10" cx="156.72" cy="113.82" r="2.26"/><path class="cls-11" d="M139.13,124.88A8.16,8.16,0,0,0,131,133a8.08,8.08,0,0,0,8.13,8.13H184.7a8.16,8.16,0,0,0,8.12-8.13,8.07,8.07,0,0,0-8.12-8.13Z"/><circle class="cls-10" cx="139.13" cy="133.01" r="2.26"/><circle class="cls-10" cx="147.92" cy="133.01" r="2.26"/><circle class="cls-10" cx="156.72" cy="133.01" r="2.26"/><path class="cls-11" d="M139.13,143.93a8.16,8.16,0,0,0-8.13,8.13,8.08,8.08,0,0,0,8.13,8.13H184.7a8.16,8.16,0,0,0,8.12-8.13,8.07,8.07,0,0,0-8.12-8.13Z"/><circle class="cls-10" cx="139.13" cy="152.06" r="2.26"/><circle class="cls-10" cx="147.92" cy="152.06" r="2.26"/><circle class="cls-10" cx="156.72" cy="152.06" r="2.26"/><path d="M313,387.35H289.28a5.12,5.12,0,0,1-5.19-5.2V328.06a5.12,5.12,0,0,1,5.19-5.2H313a5.12,5.12,0,0,1,5.19,5.2v54.09A5.29,5.29,0,0,1,313,387.35Z"/><rect class="cls-7" x="287.82" y="328.33" width="26.51" height="51.43"/><circle class="cls-12" cx="301.01" cy="383.35" r="1.6"/><rect class="cls-12" x="297.28" y="325.26" width="7.59" height="0.67"/><path class="cls-10" d="M298.61,358.84a1.33,1.33,0,0,1-1-.41l-3.07-3.2a1.34,1.34,0,0,1,1.93-1.85l2.18,2.28,8-7a1.33,1.33,0,0,1,1.76,2l-8.93,7.86A1.3,1.3,0,0,1,298.61,358.84Z"/><path class="cls-13" d="M313,48.41c.13.26.13.4-.14.4H273.43c-.27,0-.4-.14-.13-.4l4.53-5.47a1,1,0,0,1,.79-.4s6.13.4,14.53.4,14.52-.4,14.52-.4a1,1,0,0,1,.8.4Z"/><rect class="cls-13" x="286.68" y="13.77" width="21.05" height="17.45" transform="translate(202.8 305.21) rotate(-75.87)"/><path class="cls-14" d="M302.61,38.41,285.15,34a1.92,1.92,0,0,1-1.33-2.14h0A1.92,1.92,0,0,1,286,30.55L303.41,35a1.92,1.92,0,0,1,1.33,2.13h0A1.69,1.69,0,0,1,302.61,38.41Z"/><path class="cls-14" d="M308.6,14.56l-17.45-4.39A1.91,1.91,0,0,1,289.82,8h0A1.9,1.9,0,0,1,292,6.7l17.45,4.4a1.91,1.91,0,0,1,1.33,2.13h0A1.78,1.78,0,0,1,308.6,14.56Z"/><rect class="cls-14" x="298.21" y="8.52" width="0.67" height="17.45" transform="translate(208.92 302.54) rotate(-75.87)"/><rect class="cls-14" x="295.68" y="18.93" width="0.67" height="17.45" transform="translate(196.9 307.95) rotate(-75.87)"/><rect class="cls-13" x="292.26" y="13.8" width="10.13" height="17.45" transform="translate(202.87 305.35) rotate(-75.87)"/><path class="cls-15" d="M306.34,27.75l-1.2-.26L306.47,22l1.2.26a.75.75,0,0,1,.53.93l-.93,4A.75.75,0,0,1,306.34,27.75Z"/><path class="cls-14" d="M340.18,30.82l-30-7.06.13-.67a1,1,0,1,0-1.86-.53l-1.2,4.8a1,1,0,0,0,1.86.53l.14-.8,29.71,8a2.3,2.3,0,0,0,2.8-1.73C342.18,32.42,341.38,31.22,340.18,30.82Z"/><rect class="cls-16" x="392.87" y="61.06" width="28.11" height="43.97" rx="1.34"/><path class="cls-17" d="M406.93,64A2.06,2.06,0,1,0,409,66.08,2.06,2.06,0,0,0,406.93,64Zm1.22,2a1.69,1.69,0,0,0-.17-.74,3,3,0,0,1,.82.74ZM408,66H407V65a2.06,2.06,0,0,1,.84.22A1.66,1.66,0,0,1,408,66ZM407,64.86v-.67a3.22,3.22,0,0,1,.75.84A1.56,1.56,0,0,0,407,64.86Zm-.09,0a2.24,2.24,0,0,0-.79.17,3.78,3.78,0,0,1,.79-.89Zm0,.12v1H405.8a1.59,1.59,0,0,1,.22-.81A1.53,1.53,0,0,1,406.88,65Zm-1.2,1H405a3.34,3.34,0,0,1,.82-.74A1.61,1.61,0,0,0,405.68,66Zm0,.1a2.05,2.05,0,0,0,.17.77,2.77,2.77,0,0,1-.84-.77Zm.12,0h1.08v1.08A2.06,2.06,0,0,1,406,67,1.53,1.53,0,0,1,405.8,66.13Zm1.08,1.2V68a2.83,2.83,0,0,1-.74-.82A1.52,1.52,0,0,0,406.88,67.33Zm.09,0a2,2,0,0,0,.72-.14A3.11,3.11,0,0,1,407,68Zm0-.12V66.13H408a1.89,1.89,0,0,1-.24.86A1.55,1.55,0,0,1,407,67.21Zm1.18-1.08h.67a2.8,2.8,0,0,1-.86.77A1.75,1.75,0,0,0,408.15,66.13Zm.72-.21a3.44,3.44,0,0,0-1-.82,2.91,2.91,0,0,0-.79-1A2,2,0,0,1,408.87,65.92Zm-2.16-1.78a2.78,2.78,0,0,0-.79,1,3,3,0,0,0-.93.77A2,2,0,0,1,406.71,64.14ZM405,66.3a3.23,3.23,0,0,0,.95.79,3.13,3.13,0,0,0,.8.93A1.94,1.94,0,0,1,405,66.3Zm2.1,1.72a2.87,2.87,0,0,0,.8-.93,3,3,0,0,0,1-.82A1.94,1.94,0,0,1,407.09,68Z"/><path class="cls-17" d="M406.93,63.64a2.45,2.45,0,1,0,2.44,2.44A2.45,2.45,0,0,0,406.93,63.64Zm0,4.79a2.35,2.35,0,1,1,2.35-2.35A2.35,2.35,0,0,1,406.93,68.43Z"/><rect class="cls-18" x="401.86" y="69.22" width="10.13" height="0.44"/><rect class="cls-18" x="399.97" y="70.19" width="13.91" height="0.44"/><rect class="cls-19" x="394.61" y="73.81" width="12.27" height="1.04"/><rect class="cls-19" x="394.61" y="75.36" width="10.43" height="1.04"/><rect class="cls-18" x="394.61" y="89.26" width="8.84" height="0.71"/><rect class="cls-18" x="394.61" y="91.46" width="5.87" height="0.71"/><rect class="cls-18" x="394.61" y="93.66" width="7.51" height="0.71"/><rect class="cls-20" x="404.87" y="89.26" width="8.8" height="0.71"/><rect class="cls-20" x="404.87" y="91.46" width="12.87" height="0.71"/><rect class="cls-20" x="404.87" y="93.66" width="12.87" height="0.71"/><path class="cls-21" d="M409.83,97.91a1,1,0,0,0-.95.8.22.22,0,0,0,.43.12c.08-.24.58-.68.83-.38s0,.85-.08,1.06a2,2,0,0,1-1.22,1.14c-.26.1-.15.54.12.43a2.37,2.37,0,0,0,1.65-2.55C410.54,98.06,410.31,97.9,409.83,97.91Z"/><path class="cls-21" d="M411.87,98.71c0-.29-.43-.29-.45,0a1.52,1.52,0,0,1-.06.42c0,.07-.09.34-.19.36s-.06-.61-.05-.72c0-.29-.42-.29-.45,0s-.14,1.22.51,1.18S411.86,99.11,411.87,98.71Z"/><path class="cls-21" d="M412.35,99.57a2.86,2.86,0,0,1,.22-.79,2.12,2.12,0,0,1,.11.29.23.23,0,0,0,.37.1l.33-.35c.24.16.44-.08.71-.26a1.71,1.71,0,0,1,.37.52c.14.25.52,0,.39-.23s-.36-.66-.63-.75-.69.22-.65.29a.22.22,0,0,0-.35,0l-.24.26a.89.89,0,0,0-.23-.33.23.23,0,0,0-.27,0,.61.61,0,0,0-.17.15.22.22,0,0,0-.44,0c0,.37,0,.73,0,1.1S412.29,99.83,412.35,99.57Z"/><path class="cls-21" d="M414.26,97.69a7.66,7.66,0,0,1-.35-1.33c0-.28-.47-.16-.43.12a7.9,7.9,0,0,0,.35,1.33C413.93,98.08,414.36,98,414.26,97.69Z"/><path class="cls-21" d="M417.1,99.07q-2.79.69-5.58,1.41a.22.22,0,0,0,.12.43q2.78-.72,5.58-1.41C417.5,99.44,417.38,99,417.1,99.07Z"/><path class="cls-22" d="M420.32,104.43H393.54V61.66h26.78Zm-26.65-.13h26.51V61.8H393.67Z"/><rect class="cls-10" x="408.68" y="75.14" width="9.26" height="11.18"/><path class="cls-19" d="M409.89,85.34a7,7,0,0,0-.77.74,8.32,8.32,0,0,0,5.57,1.38c2.59-.32,2.79-1.16,2.79-1.16-.31-.29-1.13-.87-1.13-.87"/><path class="cls-18" d="M409.89,85.34a4.66,4.66,0,0,1,1.15-.67c.67-.27.54-.58.7-2a4.23,4.23,0,0,1-.73-1.42,1.27,1.27,0,0,1-.69-1.22c0-1,.35-.81.35-.81a2.92,2.92,0,0,1,1.07-2.59c1.33-1.13,3.48,0,3.92.77a2.74,2.74,0,0,1,.37,2.19c-.2.71.18,1.4-.41,2.55s-.91,1.3-1.44,1.51l0,.6a.49.49,0,0,0,.3.34c.26.09,1.86.81,1.86.81a17.2,17.2,0,0,1-3.36.42,7,7,0,0,1-3.11-.51"/><path class="cls-23" d="M410.67,79.25s.58.15.71,1h.08v-.93Z"/><path class="cls-24" d="M414.53,76.58c0,.27-.27,2.52,1.49,3.1a2.75,2.75,0,0,0-.36-2.26A2.69,2.69,0,0,0,414.53,76.58Z"/><path class="cls-23" d="M410.67,79.25a2.89,2.89,0,0,1,1.06-2.59c1.34-1.13,3.49,0,3.93.77a3.24,3.24,0,0,1-1.47,1.82c-1.18.71-3.52,0-3.52,0"/><path class="cls-25" d="M276.62,224.77a45,45,0,0,0-4.61,4.48c3.8,3.29,18,10.22,33.72,8.36s16.91-7,16.91-7c-1.9-1.78-6.85-5.28-6.85-5.28"/><path class="cls-26" d="M276.62,224.77a30.08,30.08,0,0,1,7-4.06c4-1.61,3.26-3.47,4.23-11.92,0,0-4.19-5.58-4.44-8.62,0,0-3.93-1.44-4.14-7.35s2.11-4.9,2.11-4.9a17.68,17.68,0,0,1,6.47-15.73c8.07-6.8,21.09.09,23.75,4.7s3.46,8.91,2.24,13.22,1.1,8.54-2.5,15.47-5.53,7.86-8.7,9.13l.13,3.63a2.94,2.94,0,0,0,1.81,2.07c1.52.55,11.24,4.91,11.24,4.91-3.55,0-7.18,2.57-20.37,2.57s-18.84-3.12-18.84-3.12"/><path class="cls-14" d="M302.69,218.34c-8.45-2.11-11.11-7.69-11.11-7.69,3.76,4.23,11,4,11,4Z"/><path class="cls-23" d="M281.35,187.92s3.55.88,4.31,6.29h.51l-.09-5.62Z"/><path class="cls-27" d="M304.51,220.41a109.64,109.64,0,0,1,11.24,4.91s-7.18,2.57-20.37,2.57-18.81-3.17-18.81-3.17a29.79,29.79,0,0,1,7-4.05s8.71,7.44,17.54,7.05,3.38-7.31,3.38-7.31"/><g class="cls-28"><polygon class="cls-26" points="304.96 206.47 313.43 198 313.43 206.47 304.96 206.47"/><polygon class="cls-26" points="304.3 206.47 313.43 197.34 313.43 198 304.96 206.47 304.3 206.47"/><polygon class="cls-29" points="304.03 206.47 303.83 206.28 313.43 196.69 313.43 197.34 304.3 206.47 304.03 206.47"/><polygon class="cls-30" points="303.83 206.28 303.51 205.95 313.43 196.03 313.43 196.69 303.83 206.28"/><polygon class="cls-31" points="303.51 205.95 303.18 205.62 313.43 195.37 313.43 196.03 303.51 205.95"/><polygon class="cls-32" points="303.18 205.62 303.16 205.6 303.16 204.98 313.43 194.71 313.43 195.37 303.18 205.62"/><polygon class="cls-33" points="303.16 204.32 313.43 194.06 313.43 194.71 303.16 204.98 303.16 204.32"/><polygon class="cls-33" points="303.16 204.03 313.31 193.87 313.43 193.98 313.43 194.06 303.16 204.32 303.16 204.03"/><polygon class="cls-34" points="303.16 203.74 313.17 193.73 313.31 193.87 303.16 204.03 303.16 203.74"/><polygon class="cls-35" points="303.16 203.44 312.89 193.71 313.15 193.71 313.17 193.73 303.16 203.74 303.16 203.44"/><polygon class="cls-36" points="303.16 203.15 312.6 193.71 312.89 193.71 303.16 203.44 303.16 203.15"/><polygon class="cls-37" points="303.16 202.86 312.31 193.71 312.6 193.71 303.16 203.15 303.16 202.86"/><polygon class="cls-38" points="303.16 202.56 312.01 193.71 312.31 193.71 303.16 202.86 303.16 202.56"/><polygon class="cls-39" points="303.16 202.27 311.72 193.71 312.01 193.71 303.16 202.56 303.16 202.27"/><polygon class="cls-40" points="303.16 201.97 311.43 193.71 311.72 193.71 303.16 202.27 303.16 201.97"/><polygon class="cls-41" points="303.16 201.68 311.13 193.71 311.43 193.71 303.16 201.97 303.16 201.68"/><polygon class="cls-42" points="303.16 201.39 310.84 193.71 311.13 193.71 303.16 201.68 303.16 201.39"/><polygon class="cls-43" points="303.16 201.09 310.55 193.71 310.84 193.71 303.16 201.39 303.16 201.09"/><polygon class="cls-44" points="303.16 200.8 310.25 193.71 310.55 193.71 303.16 201.09 303.16 200.8"/><polygon class="cls-45" points="303.16 200.51 309.96 193.71 310.25 193.71 303.16 200.8 303.16 200.51"/><polygon class="cls-46" points="303.16 200.21 309.67 193.71 309.96 193.71 303.16 200.51 303.16 200.21"/><polygon class="cls-47" points="303.16 199.92 309.37 193.71 309.67 193.71 303.16 200.21 303.16 199.92"/><polygon class="cls-48" points="303.16 199.63 309.08 193.71 309.37 193.71 303.16 199.92 303.16 199.63"/><polygon class="cls-49" points="303.16 199.33 308.78 193.71 309.08 193.71 303.16 199.63 303.16 199.33"/><polygon class="cls-50" points="303.16 199.04 308.49 193.71 308.78 193.71 303.16 199.33 303.16 199.04"/><polygon class="cls-50" points="303.16 198.81 308.26 193.71 308.49 193.71 303.16 199.04 303.16 198.81"/><polygon class="cls-51" points="303.16 198.57 308.02 193.71 308.26 193.71 303.16 198.81 303.16 198.57"/><polygon class="cls-52" points="303.16 198.34 307.79 193.71 308.02 193.71 303.16 198.57 303.16 198.34"/><polygon class="cls-53" points="303.16 198.11 307.56 193.71 307.79 193.71 303.16 198.34 303.16 198.11"/><polygon class="cls-54" points="303.16 197.87 307.32 193.71 307.56 193.71 303.16 198.11 303.16 197.87"/><polygon class="cls-55" points="303.16 197.64 307.09 193.71 307.32 193.71 303.16 197.87 303.16 197.64"/><polygon class="cls-56" points="303.16 197.41 306.86 193.71 307.09 193.71 303.16 197.64 303.16 197.41"/><polygon class="cls-57" points="303.16 197.17 306.62 193.71 306.86 193.71 303.16 197.41 303.16 197.17"/><polygon class="cls-58" points="303.16 196.94 306.39 193.71 306.62 193.71 303.16 197.17 303.16 196.94"/><polygon class="cls-59" points="303.16 196.71 306.16 193.71 306.39 193.71 303.16 196.94 303.16 196.71"/><polygon class="cls-14" points="303.16 196.47 305.92 193.71 306.16 193.71 303.16 196.71 303.16 196.47"/><polygon class="cls-14" points="305.92 193.71 303.16 196.47 303.16 193.71 305.92 193.71"/></g><g class="cls-60"><polygon class="cls-26" points="293.13 200.09 300.83 197.28 300.83 200.09 293.13 200.09"/><polygon class="cls-26" points="291.63 200.09 300.83 196.74 300.83 197.28 293.13 200.09 291.63 200.09"/><polygon class="cls-29" points="290.14 200.08 300.83 196.19 300.83 196.74 291.63 200.09 290.14 200.09 290.14 200.08"/><polygon class="cls-61" points="290.14 199.53 300.83 195.64 300.83 196.19 290.14 200.08 290.14 199.53"/><polygon class="cls-31" points="290.14 198.99 300.83 195.09 300.83 195.64 290.14 199.53 290.14 198.99"/><polygon class="cls-31" points="290.14 198.81 300.83 194.92 300.83 195.09 290.14 198.99 290.14 198.81"/><polygon class="cls-62" points="290.14 198.64 300.83 194.75 300.83 194.92 290.14 198.81 290.14 198.64"/><polygon class="cls-33" points="290.14 198.46 300.83 194.57 300.83 194.75 290.14 198.64 290.14 198.46"/><polygon class="cls-63" points="290.14 198.29 300.83 194.4 300.83 194.57 290.14 198.46 290.14 198.29"/><polygon class="cls-64" points="290.14 198.11 300.83 194.22 300.83 194.4 290.14 198.29 290.14 198.11"/><polygon class="cls-36" points="290.14 197.94 300.82 194.05 300.83 194.07 300.83 194.22 290.14 198.11 290.14 197.94"/><polygon class="cls-65" points="290.14 197.76 300.77 193.9 300.82 194.05 290.14 197.94 290.14 197.76"/><polygon class="cls-66" points="290.14 197.59 300.71 193.74 300.77 193.9 290.14 197.76 290.14 197.59"/><polygon class="cls-40" points="290.14 197.42 300.34 193.71 300.7 193.71 300.71 193.74 290.14 197.59 290.14 197.42"/><polygon class="cls-67" points="290.14 197.24 299.86 193.71 300.34 193.71 290.14 197.42 290.14 197.24"/><polygon class="cls-68" points="290.14 197.07 299.38 193.71 299.86 193.71 290.14 197.24 290.14 197.07"/><polygon class="cls-69" points="290.14 196.89 298.9 193.71 299.38 193.71 290.14 197.07 290.14 196.89"/><polygon class="cls-69" points="290.14 196.79 298.61 193.71 298.9 193.71 290.14 196.89 290.14 196.79"/><polygon class="cls-70" points="290.14 196.68 298.32 193.71 298.61 193.71 290.14 196.79 290.14 196.68"/><polygon class="cls-71" points="290.14 196.58 298.04 193.71 298.32 193.71 290.14 196.68 290.14 196.58"/><polygon class="cls-72" points="290.14 196.47 297.75 193.71 298.04 193.71 290.14 196.58 290.14 196.47"/><polygon class="cls-46" points="290.14 196.37 297.46 193.71 297.75 193.71 290.14 196.47 290.14 196.37"/><polygon class="cls-73" points="290.14 196.26 297.17 193.71 297.46 193.71 290.14 196.37 290.14 196.26"/><polygon class="cls-74" points="290.14 196.16 296.88 193.71 297.17 193.71 290.14 196.26 290.14 196.16"/><polygon class="cls-75" points="290.14 196.05 296.59 193.71 296.88 193.71 290.14 196.16 290.14 196.05"/><polygon class="cls-76" points="290.14 195.95 296.3 193.71 296.59 193.71 290.14 196.05 290.14 195.95"/><polygon class="cls-51" points="290.14 195.84 296.02 193.71 296.3 193.71 290.14 195.95 290.14 195.84"/><polygon class="cls-77" points="290.14 195.74 295.73 193.71 296.02 193.71 290.14 195.84 290.14 195.74"/><polygon class="cls-78" points="290.14 195.63 295.44 193.71 295.73 193.71 290.14 195.74 290.14 195.63"/><polygon class="cls-55" points="290.14 195.53 295.15 193.71 295.44 193.71 290.14 195.63 290.14 195.53"/><polygon class="cls-79" points="290.14 195.42 294.86 193.71 295.15 193.71 290.14 195.53 290.14 195.42"/><polygon class="cls-80" points="290.14 195.32 294.57 193.71 294.86 193.71 290.14 195.42 290.14 195.32"/><polygon class="cls-57" points="290.14 195.21 294.29 193.71 294.57 193.71 290.14 195.32 290.14 195.21"/><polygon class="cls-58" points="290.14 195.11 294 193.71 294.29 193.71 290.14 195.21 290.14 195.11"/><polygon class="cls-59" points="290.14 195 293.71 193.71 294 193.71 290.14 195.11 290.14 195"/><polygon class="cls-14" points="290.14 194.9 293.42 193.71 293.71 193.71 290.14 195 290.14 194.9"/><polygon class="cls-14" points="293.42 193.71 290.14 194.9 290.14 193.71 293.42 193.71"/></g><path class="cls-24" d="M304.76,171.7c-.23,1.66-1.62,15.3,9,18.81,1.38-4.44.56-8.89-2.16-13.68C310.56,175,308,173.31,304.76,171.7Z"/><path class="cls-23" d="M281.35,187.92a17.65,17.65,0,0,1,6.47-15.73c8.07-6.8,21.08.09,23.75,4.7a19.7,19.7,0,0,1-8.88,11c-7.14,4.26-21.34,0-21.34,0"/><rect class="cls-81" x="14.58" y="281.43" width="92.2" height="18.44"/><path class="cls-82" d="M21.45,293.65l1.28-2.36-2.36-1.07L21,288.5l2.57.65.21-2.58h1.72l.21,2.79,2.58-.64.64,1.71-2.36,1.08,1.29,2.35-1.5,1.08L24.66,293l-1.93,1.93Z"/><path class="cls-82" d="M31.74,293.65,33,291.29l-2.35-1.07.64-1.72,2.57.65.22-2.58h1.71l.22,2.79,2.57-.64.64,1.71-2.36,1.08,1.29,2.35-1.5,1.08L35,293,33,294.94Z"/><path class="cls-82" d="M42,293.65l1.29-2.36L41,290.22l.64-1.72,2.57.65.22-2.58H46.1l.22,2.79,2.57-.64.64,1.71-2.35,1.08,1.28,2.35L47,294.94,45.25,293l-1.93,1.93Z"/><path class="cls-82" d="M52.54,293.65l1.28-2.36-2.36-1.07.65-1.72,2.57.65.22-2.58h1.71l.21,2.79,2.58-.64.64,1.71-2.36,1.08L59,293.86l-1.5,1.08L55.75,293l-1.93,1.93Z"/><path class="cls-82" d="M62.83,293.65l1.29-2.36-2.36-1.07.64-1.72,2.57.65.22-2.58H66.9l.22,2.79,2.57-.64.64,1.71L68,291.51l1.29,2.35-1.5,1.08L66,293l-1.92,1.93Z"/><path class="cls-82" d="M73.12,293.65l1.29-2.36-2.36-1.07.64-1.72,2.57.65.22-2.58h1.71l.22,2.79,2.57-.64.65,1.71-2.36,1.08,1.28,2.35-1.5,1.08L76.34,293l-1.93,1.93Z"/><circle class="cls-82" cx="95.85" cy="299.87" r="6"/><path class="cls-83" d="M95.85,302.66h0a3.3,3.3,0,0,1-3.22-3.22v-6.65a3.3,3.3,0,0,1,3.22-3.21h0a3.3,3.3,0,0,1,3.22,3.21v6.65A3.31,3.31,0,0,1,95.85,302.66Z"/><circle class="cls-10" cx="95.85" cy="299.87" r="1.29"/><rect class="cls-10" x="95.21" y="300.08" width="1.07" height="3.22"/><path class="cls-84" d="M18.23,273.49a3.76,3.76,0,0,1-3.65-3.64V218a3.76,3.76,0,0,1,3.65-3.64h84.91a3.75,3.75,0,0,1,3.64,3.64v51.89a3.75,3.75,0,0,1-3.64,3.64Z"/><g class="cls-85"><g class="cls-86"><circle class="cls-87" cx="112.36" cy="241.98" r="23.59"/><line class="cls-87" x1="112.36" y1="218.39" x2="112.36" y2="265.78"/><path class="cls-87" d="M111.93,218.39c-18,13.72-18,33.66,0,47.17"/><path class="cls-87" d="M112.57,218.39c18,13.72,18,33.66,0,47.17"/><path class="cls-87" d="M88.56,242.4c13.72,18,33.66,18,47.17,0"/><path class="cls-87" d="M88.56,241.76c13.72-18,33.66-18,47.17,0"/><line class="cls-87" x1="88.77" y1="241.98" x2="135.94" y2="241.98"/></g></g><path class="cls-88" d="M96.06,235.11v13.94a3.39,3.39,0,0,1-3.43,3.43h-12a3.39,3.39,0,0,1-3.44-3.43V235.11a3.39,3.39,0,0,1,3.44-3.43h12A3.53,3.53,0,0,1,96.06,235.11Z"/><path class="cls-89" d="M91.13,231.9v6a1.69,1.69,0,0,1-1.71,1.72h-6a1.7,1.7,0,0,1-1.71-1.72v-6"/><path class="cls-89" d="M81.91,252.7v-6A1.7,1.7,0,0,1,83.63,245h6a1.69,1.69,0,0,1,1.72,1.71v6"/><line class="cls-89" x1="83.84" y1="244.98" x2="83.84" y2="239.62"/><line class="cls-89" x1="89.2" y1="239.62" x2="89.2" y2="244.98"/><line class="cls-89" x1="86.63" y1="252.7" x2="86.63" y2="244.98"/><line class="cls-89" x1="86.63" y1="239.62" x2="86.63" y2="231.9"/><line class="cls-89" x1="81.91" y1="247.55" x2="77.41" y2="247.55"/><line class="cls-89" x1="96.06" y1="247.55" x2="91.13" y2="247.55"/><line class="cls-89" x1="91.13" y1="237.04" x2="96.06" y2="237.04"/><line class="cls-89" x1="77.41" y1="237.04" x2="81.91" y2="237.04"/><rect class="cls-27" x="19.09" y="231.9" width="43.96" height="4.07"/><rect class="cls-27" x="19.09" y="246.05" width="1.07" height="6"/><rect class="cls-27" x="21.02" y="246.05" width="3.43" height="6"/><rect class="cls-27" x="24.88" y="246.05" width="5.57" height="6"/><rect class="cls-27" x="31.1" y="246.05" width="2.57" height="6"/><rect class="cls-27" x="34.53" y="246.05" width="1.29" height="6"/><rect class="cls-27" x="36.46" y="246.05" width="7.08" height="6"/><rect class="cls-27" x="43.96" y="246.05" width="4.5" height="6"/><rect class="cls-27" x="49.11" y="246.05" width="0.86" height="6"/><rect class="cls-90" x="14.8" y="263.63" width="91.99" height="1.72"/><path class="cls-91" d="M20.8,224.39a1.29,1.29,0,0,1-.85-.21c-.22-.22-.43-.22-.65-.43l.43-.43.43.43c.21,0,.43.21.64.21a.81.81,0,0,0,.65-.21c.21-.21.21-.21.21-.43s0-.21-.21-.43a.78.78,0,0,0-.43-.21h-.43a1.14,1.14,0,0,1-.86-.43.8.8,0,0,1-.21-.64v-.43c0-.22.21-.22.21-.43.22,0,.22-.22.43-.22h.64a.79.79,0,0,1,.65.22.45.45,0,0,1,.42.43l-.42.43c0-.22-.22-.22-.43-.22s-.22-.21-.43-.21-.43,0-.43.21-.21.22-.21.43,0,.21.21.43a.74.74,0,0,0,.43.21H21a1.1,1.1,0,0,1,.85.43.79.79,0,0,1,.22.65V224c0,.22-.22.22-.22.43-.21,0-.21.22-.42.22A.79.79,0,0,0,20.8,224.39Z"/><path class="cls-91" d="M28.74,221.39h0l-.43.64-.86,1.51L26.59,222l-.21-.64h0v3h-.65v-3.86h.65l1.07,1.93h0l1.07-1.93h.65v3.86h-.65v-3Z"/><path class="cls-91" d="M35.6,224.39l-.43-1.07h-1.5l-.43,1.07H32.6l1.28-3.86h.86L36,224.39Zm-.86-3.21h0l-.64,1.71h1.07Z"/><path class="cls-91" d="M40.53,224.39h-.64v-3.86H41.6c.43,0,.64,0,.86.22s.21.43.21.86a.8.8,0,0,1-.21.64,1.89,1.89,0,0,1-.64.43l.85,1.5H42l-.86-1.5h-.86v1.71Zm.86-2.14c.21,0,.21,0,.43-.22a.73.73,0,0,0,.21-.42v-.22c0-.21,0-.21-.21-.43a.78.78,0,0,0-.43-.21H40.31V222h1.08Z"/><path class="cls-91" d="M47.61,221.18v3.21H47v-3.21H45.89v-.65h2.79v.65Z"/><path class="cls-91" d="M58.11,224.39A1.59,1.59,0,0,1,57,224a2.5,2.5,0,0,1-.43-1.5,1.29,1.29,0,0,1,.21-.85c0-.22.22-.43.22-.65s.21-.21.43-.43a.79.79,0,0,1,.64-.21c.43,0,.64,0,.86.21s.43.43.43.65l-.43.21a.77.77,0,0,0-.22-.43.73.73,0,0,0-.42-.21.81.81,0,0,0-.65.21c-.21.22-.21.43-.21.86v.64c0,.43,0,.65.21.86a.79.79,0,0,0,.65.22.78.78,0,0,0,.64-.22c.21-.21.21-.21.21-.43l.43.22c-.21.21-.21.43-.43.64A1.16,1.16,0,0,1,58.11,224.39Z"/><path class="cls-91" d="M65.4,224.39,65,223.32h-1.5L63,224.39H62.4l1.29-3.86h.85l1.29,3.86Zm-1.07-3.21h0l-.64,1.71h1.07Z"/><path class="cls-91" d="M70.12,224.39h-.64v-3.86h1.71c.43,0,.64,0,.86.22s.21.43.21.86a.8.8,0,0,1-.21.64,1.89,1.89,0,0,1-.64.43l.85,1.5h-.64l-.86-1.5H69.9l.22,1.71Zm1.07-2.14c.22,0,.22,0,.43-.22a.73.73,0,0,0,.21-.42v-.22c0-.21,0-.21-.21-.43a.74.74,0,0,0-.43-.21H70.12V222h1.07Z"/><path class="cls-91" d="M76.12,220.53h1.29a.77.77,0,0,1,.64.22c.22.21.43.21.43.43.22.21.22.43.43.64,0,.21.21.43.21.86s0,.64-.21.86c0,.21-.21.42-.43.64l-.43.43a.79.79,0,0,1-.64.21H76.12Zm1.29,3.22a.79.79,0,0,0,.64-.21c.22-.22.22-.43.22-.86V222c0-.42,0-.64-.22-.85a.77.77,0,0,0-.64-.22h-.64v2.79Z"/></svg>