<svg id="Layer_1" data-name="Layer 1" xmlns="http://www.w3.org/2000/svg" xmlns:xlink="http://www.w3.org/1999/xlink" viewBox="0 0 482 416"><defs><style>.cls-1,.cls-11,.cls-16,.cls-21,.cls-22,.cls-30,.cls-38,.cls-39,.cls-40,.cls-43,.cls-52,.cls-54{fill:none;}.cls-12,.cls-2{fill:#231f20;}.cls-2{stroke:#a2a2a3;stroke-width:1.42px;}.cls-11,.cls-16,.cls-2,.cls-21,.cls-30,.cls-40,.cls-43,.cls-54{stroke-miterlimit:10;}.cls-3{fill:#444445;}.cls-4{fill:#80c0aa;}.cls-5{fill:#a2a2a3;}.cls-23,.cls-6{fill:#fff;}.cls-7{fill:#d7d7d7;}.cls-8{fill:#ef5253;}.cls-9{fill:#e7ab22;}.cls-10{fill:#9fcb3a;}.cls-11{stroke:#595a5a;stroke-width:0.36px;}.cls-13{fill:#818282;}.cls-14{fill:#3f4040;}.cls-15{fill:#4f4f4f;}.cls-16{stroke:#707171;stroke-width:0.27px;}.cls-17{clip-path:url(#clip-path);}.cls-18{fill:#d94a52;}.cls-19{fill:#f6adb7;}.cls-20{fill:#ad8468;}.cls-21{stroke:#80c0aa;stroke-width:1.07px;stroke-dasharray:0.11 3.25;}.cls-21,.cls-22,.cls-23,.cls-38,.cls-52{stroke-linecap:round;}.cls-22,.cls-23{stroke:#828282;stroke-width:3.32px;}.cls-22,.cls-23,.cls-38,.cls-39{stroke-linejoin:round;}.cls-24{fill:#80c1ab;}.cls-25{fill:#d36c71;}.cls-26{clip-path:url(#clip-path-2);}.cls-27{fill:#d1d0cf;}.cls-28{fill:#dbdbda;}.cls-29{fill:#d1d1d1;}.cls-30{stroke:#b4b4b5;}.cls-31{fill:#838383;}.cls-32{clip-path:url(#clip-path-6);}.cls-33{fill:#595a5a;}.cls-34{fill:#727373;}.cls-35{fill:#545757;}.cls-36{fill:#383a3a;}.cls-37{fill:#92c5b0;}.cls-38,.cls-39{stroke:#779887;stroke-width:0.5px;}.cls-40{stroke:#727373;stroke-width:0.34px;}.cls-41{fill:#bc831e;}.cls-42{fill:#edeced;}.cls-43{stroke:#838383;}.cls-44{fill:#c1c1c1;}.cls-45{fill:#d6d6d6;}.cls-46{fill:#8a8a8a;}.cls-47{fill:#363636;}.cls-48{clip-path:url(#clip-path-7);}.cls-49{fill:#2e2e2e;}.cls-50{fill:#686868;}.cls-51{fill:#9e9e9e;}.cls-52,.cls-54{stroke:#81c1ab;}.cls-52{stroke-miterlimit:10;stroke-width:0.75px;}.cls-53{clip-path:url(#clip-path-9);}.cls-54{stroke-width:3px;}.cls-55{clip-path:url(#clip-path-11);}.cls-56{fill:#81c1ab;}.cls-57{clip-path:url(#clip-path-13);}.cls-58{clip-path:url(#clip-path-15);}</style><clipPath id="clip-path"><path class="cls-1" d="M394.23,306.26h-4.7a7.79,7.79,0,0,1-7.14-5.63,46.9,46.9,0,0,1,0-16.79,7.78,7.78,0,0,1,7.14-5.62h4.7a7.78,7.78,0,0,1,7.13,5.62,46.9,46.9,0,0,1,0,16.79C400.69,303.82,397.17,306.26,394.23,306.26Z"/></clipPath><clipPath id="clip-path-2"><circle class="cls-1" cx="84.21" cy="235.14" r="26.82"/></clipPath><clipPath id="clip-path-6"><rect class="cls-1" x="58.94" y="272.5" width="54.96" height="51.07" rx="6.23"/></clipPath><clipPath id="clip-path-7"><path class="cls-1" d="M78.45,89.62s-2.06,16.31,9.41,20l4.7-.69-.92-19.27-13.2,0Z"/></clipPath><clipPath id="clip-path-9"><path class="cls-1" d="M163.93,89.39s-2.06,16.36,9.44,20.07l4.72-.69-.92-19.33-13.24,0Z"/></clipPath><clipPath id="clip-path-11"><path class="cls-1" d="M249.39,89.39s-2.06,16.36,9.44,20.07l4.72-.69-.92-19.33-13.24,0Z"/></clipPath><clipPath id="clip-path-13"><path class="cls-1" d="M333,89.39s-2.07,16.36,9.44,20.07l4.71-.69-.91-19.33-13.24,0Z"/></clipPath><clipPath id="clip-path-15"><path class="cls-1" d="M420.3,89.39s-2.06,16.36,9.44,20.07l4.72-.69-.92-19.33Z"/></clipPath></defs><path class="cls-2" d="M363.67,292H244.11V218.44a4.16,4.16,0,0,1,4.2-4.2H359.47a4.16,4.16,0,0,1,4.2,4.2Z"/><circle class="cls-3" cx="303.89" cy="218.69" r="1.18"/><rect class="cls-4" x="250.08" y="222.89" width="107.63" height="62.8"/><path class="cls-5" d="M372.65,295.76a4.47,4.47,0,0,1-4.45,4.45H239.58a4.48,4.48,0,0,1-4.45-4.45v-4.45H372.65Z"/><path class="cls-6" d="M335.54,277.8H272.16a4.16,4.16,0,0,1-4.2-4.2V234.14a4.16,4.16,0,0,1,4.2-4.2h63.38a4.16,4.16,0,0,1,4.2,4.2V273.6A4.16,4.16,0,0,1,335.54,277.8Z"/><path class="cls-7" d="M339.74,235.23V233a3,3,0,0,0-3-3H271a3,3,0,0,0-3,3v2.27Z"/><circle class="cls-8" cx="270.9" cy="232.63" r="0.92"/><circle class="cls-9" cx="273.92" cy="232.63" r="0.92"/><circle class="cls-10" cx="276.69" cy="232.63" r="0.92"/><rect class="cls-11" x="285.92" y="247.32" width="35.85" height="4.2"/><rect class="cls-11" x="285.92" y="254.71" width="35.85" height="4.2"/><path class="cls-12" d="M287.6,257.48l.26-.51-.51-.25.09-.33.58.08.09-.59h.42l.08.59.59-.08.08.33-.5.25.33.51-.33.25-.42-.42-.42.42Z"/><path class="cls-12" d="M289.87,257.48l.25-.51-.5-.25.08-.33.59.08.08-.59h.42l.09.59.59-.08.08.33-.5.25.33.51-.33.25-.42-.42-.42.42Z"/><path class="cls-12" d="M292.05,257.48l.26-.51-.51-.25.09-.33.58.08.09-.59H293l.08.59.59-.08.08.33-.5.25.33.51-.33.25-.42-.42-.42.42Z"/><path class="cls-12" d="M294.32,257.48l.25-.51-.5-.25.08-.33.59.08.08-.59h.42l.09.59.59-.08.08.33-.5.25.33.51-.33.25-.42-.42-.42.42Z"/><path class="cls-12" d="M296.59,257.48l.25-.51-.5-.25.08-.33.59.08.08-.59h.42l.08.59.59-.08.09.33-.51.25.34.51-.34.25-.42-.42-.42.42Z"/><path class="cls-12" d="M298.85,257.48l.26-.51-.51-.25.09-.33.58.08.09-.59h.42l.08.59.59-.08.08.33-.5.25.34.51-.34.25-.42-.42-.42.42Z"/><path class="cls-13" d="M313,292.57a1.33,1.33,0,0,1-1.34,1.35H296.17a1.33,1.33,0,0,1-1.35-1.35v-1.34H313v1.34Z"/><path class="cls-12" d="M397.17,265H378.7a4.15,4.15,0,0,1-4.2-4.19v-42.4a4.16,4.16,0,0,1,4.2-4.2h18.47a4.15,4.15,0,0,1,4.19,4.2v42.4A4.14,4.14,0,0,1,397.17,265Z"/><rect class="cls-4" x="377.52" y="218.69" width="20.9" height="40.38"/><circle class="cls-3" cx="387.93" cy="261.93" r="1.18"/><rect class="cls-3" x="384.99" y="216.17" width="5.96" height="0.59"/><path class="cls-12" d="M380,227.34c0-1.18.59-1.85,1.34-1.85s1.35.67,1.35,1.85-.59,1.85-1.35,1.85S380,228.51,380,227.34Zm2.18,0q0-1.26-.75-1.26c-.51,0-.76.42-.76,1.26s.25,1.26.76,1.26S382.22,228.09,382.22,227.34Z"/><path class="cls-12" d="M384.4,226.08h-1.09v-.5h2.86v.5h-1.09v3h-.59v-3Z"/><path class="cls-12" d="M386.76,225.58h1.17c.76,0,1.34.25,1.34,1.09a1.19,1.19,0,0,1-1.34,1.17h-.5v1.26h-.59v-3.52Zm1.09,1.67c.5,0,.75-.16.75-.67s-.25-.58-.75-.58h-.51v1.25Z"/><rect class="cls-6" x="380.21" y="231.45" width="3.27" height="4.28"/><rect class="cls-6" x="384.32" y="231.45" width="3.27" height="4.28"/><rect class="cls-6" x="388.35" y="231.45" width="3.27" height="4.28"/><rect class="cls-6" x="392.38" y="231.45" width="3.27" height="4.28"/><path class="cls-14" d="M394.23,306.26h-4.7a7.79,7.79,0,0,1-7.14-5.63,46.9,46.9,0,0,1,0-16.79,7.78,7.78,0,0,1,7.14-5.62h4.7a7.78,7.78,0,0,1,7.13,5.62,46.9,46.9,0,0,1,0,16.79C400.69,303.82,397.17,306.26,394.23,306.26Z"/><path class="cls-15" d="M392.21,298h-.67a5.41,5.41,0,0,1-5.37-5.37v-7.73a5.4,5.4,0,0,1,5.37-5.37h.67a5.41,5.41,0,0,1,5.38,5.37v7.73A5.42,5.42,0,0,1,392.21,298Z"/><path class="cls-16" d="M391.88,297.27a5,5,0,0,1-5-4.95v-7a5,5,0,0,1,9.91,0v7A5,5,0,0,1,391.88,297.27Z"/><g class="cls-17"><path class="cls-15" d="M379.79,304.07h-.67a5.41,5.41,0,0,1-5.38-5.37V288a5.41,5.41,0,0,1,5.38-5.37h.67a5.4,5.4,0,0,1,5.37,5.37V298.7A5.4,5.4,0,0,1,379.79,304.07Z"/><path class="cls-15" d="M404.64,304.07h-.76a5.4,5.4,0,0,1-5.37-5.37V288a5.4,5.4,0,0,1,5.37-5.37h.67a5.41,5.41,0,0,1,5.38,5.37V298.7A5.28,5.28,0,0,1,404.64,304.07Z"/></g><path class="cls-14" d="M388,291.06v-5.79a3.91,3.91,0,0,1,3.87-3.86h0a3.9,3.9,0,0,1,3.86,3.86v5.79Z"/><line class="cls-16" x1="388.01" y1="291.98" x2="395.65" y2="291.98"/><line class="cls-16" x1="388.94" y1="292.91" x2="394.73" y2="292.91"/><line class="cls-16" x1="389.69" y1="293.83" x2="393.98" y2="293.83"/><line class="cls-16" x1="390.62" y1="294.75" x2="393.14" y2="294.75"/><path class="cls-8" d="M389,289.72v-4.28a2.79,2.79,0,0,1,2.77-2.77h0a2.79,2.79,0,0,1,2.77,2.77v4.28Z"/><path class="cls-14" d="M389,289.72a4.29,4.29,0,0,1,2.77-1.09,3.94,3.94,0,0,1,2.77,1.09Z"/><circle class="cls-18" cx="391.88" cy="284.01" r="1.01"/><circle class="cls-19" cx="391.88" cy="284.01" r="0.34"/><path class="cls-20" d="M404.47,300.21V305a.63.63,0,0,0,1.26,0v-2.94c0-2.18,3.86-2.44,4,.5-.25,1.93-.42,3.86-.59,5.8-.67,8.06-.92,15.36-10.91,15.36-11.92.08-11.67-10.83-11.67-19.56,0-2.86.17-3.86,2.94-5.21a.55.55,0,0,0,.33-.59V286.53a2,2,0,0,1,4,0v19a.63.63,0,1,0,1.26-.08v-7.89c0-2.1,4-2.36,4,.58v4.79a.63.63,0,1,0,1.26,0v-3.19c.08-2.27,4.11-2.27,4,.5Z"/><path class="cls-14" d="M392.55,277.63a.17.17,0,1,1,0-.34h.67l-.08-.92h-.59a.17.17,0,0,1,0-.34h.5l-.08-.92h-.42a.18.18,0,0,1-.17-.17.18.18,0,0,1,.17-.17H393l-.09-.5h-2l-.08.5h.41a.18.18,0,0,1,.17.17.18.18,0,0,1-.17.17h-.41l-.09.92h.5a.17.17,0,0,1,0,.34h-.58l-.09.92h.67a.17.17,0,0,1,0,.34h-.75l-.08.59h2.93l-.08-.59Z"/><path class="cls-14" d="M392.3,274.52h-.93v-3.78a.4.4,0,0,1,.42-.42h.09a.4.4,0,0,1,.42.42Z"/><circle class="cls-21" cx="391.88" cy="286.19" r="11.67"/><polyline class="cls-22" points="140.07 329.11 153.14 242.38 161.59 242.38 175.47 328.22"/><line class="cls-22" x1="133.31" y1="329.11" x2="182.41" y2="329.11"/><polyline class="cls-22" points="140.07 329.11 171.91 306.88 147.18 285.44 164.79 268.98 149.76 268.98 168.53 285.44 144.16 306.88 173.33 327.42"/><line class="cls-22" x1="157.23" y1="268.98" x2="157.23" y2="223.08"/><circle class="cls-23" cx="157.06" cy="232.87" r="4.09"/><path class="cls-24" d="M133.66,230.73a19.4,19.4,0,0,1,6.23-14.23l-2.23-2.4a22.29,22.29,0,0,0-7.11,16.63,23.62,23.62,0,0,0,7.11,16.64l2.23-2.41A19.22,19.22,0,0,1,133.66,230.73Z"/><path class="cls-24" d="M180.9,230.73A19.4,19.4,0,0,1,174.67,245l2.22,2.41A22.18,22.18,0,0,0,184,230.91a23.46,23.46,0,0,0-7.12-16.63l-2.22,2.4A19.07,19.07,0,0,1,180.9,230.73Z"/><path class="cls-24" d="M183.12,210.18l-2.22,2.23A25.27,25.27,0,0,1,189,230.73a24.48,24.48,0,0,1-8.09,18.33l2.22,2.4a28.21,28.21,0,0,0,0-41.28Z"/><path class="cls-24" d="M142.29,230.73a13.63,13.63,0,0,1,4.09-9.52l-2.22-2.4a16.36,16.36,0,0,0,0,24l2.22-2.4A14.2,14.2,0,0,1,142.29,230.73Z"/><path class="cls-24" d="M131.62,251.55l2.22-2.4a25.3,25.3,0,0,1-8.1-18.33,24.46,24.46,0,0,1,8.1-18.32l-2.22-2.4a28.74,28.74,0,0,0-9,20.63A28.19,28.19,0,0,0,131.62,251.55Z"/><path class="cls-24" d="M172.27,230.73a13.56,13.56,0,0,1-4.1,9.52l2.23,2.4a16.36,16.36,0,0,0,0-24L168.17,221A13.6,13.6,0,0,1,172.27,230.73Z"/><circle class="cls-7" cx="84.21" cy="235.14" r="26.82"/><path class="cls-25" d="M98.18,232.77a.58.58,0,0,0-.6-.59H87.77a.57.57,0,0,1-.59-.59v-9.82a.58.58,0,0,0-.6-.59H82a.58.58,0,0,0-.59.59v9.82a.57.57,0,0,1-.59.59H71a.58.58,0,0,0-.59.59v4.57a.58.58,0,0,0,.59.59h9.82a.58.58,0,0,1,.59.6v9.81a.59.59,0,0,0,.59.6h4.57a.59.59,0,0,0,.6-.6v-9.73a.57.57,0,0,1,.59-.59h9.81a.58.58,0,0,0,.6-.59Z"/><g class="cls-26"><ellipse class="cls-27" cx="84.21" cy="262.47" rx="26.82" ry="9.22"/></g><g class="cls-26"><ellipse class="cls-28" cx="84.21" cy="208.91" rx="26.82" ry="9.22"/></g><g class="cls-26"><ellipse class="cls-29" cx="111.04" cy="235.73" rx="9.22" ry="26.82"/></g><g class="cls-26"><ellipse class="cls-29" cx="57.47" cy="235.73" rx="9.22" ry="26.82"/></g><path class="cls-30" d="M84.21,257.57c-7.95,0-15-1.87-17.77-4.66-6.17-6.17-6.17-29.45,0-35.54,2.8-2.79,9.82-4.65,17.77-4.65s15,1.86,17.77,4.65,4.66,9.82,4.66,17.77-1.86,15-4.66,17.77S92.17,257.57,84.21,257.57Z"/><rect class="cls-31" x="58.94" y="272.5" width="54.96" height="51.07" rx="6.23"/><g class="cls-32"><rect class="cls-33" x="56" y="322.3" width="60.29" height="2.98"/><rect class="cls-5" x="56" y="270.75" width="60.29" height="2.98"/><rect class="cls-34" x="56" y="270.75" width="5.41" height="54.16"/><rect class="cls-34" x="111.27" y="270.75" width="5.41" height="54.16"/></g><rect class="cls-35" x="65.58" y="313.91" width="41.11" height="4.31" rx="1.98"/><rect class="cls-36" x="66.94" y="315.77" width="38.39" height="0.58"/><path class="cls-37" d="M70.37,315.77H101.9a2.74,2.74,0,0,1,2.74,2.74v10.12a0,0,0,0,1,0,0h-37a0,0,0,0,1,0,0V318.51A2.74,2.74,0,0,1,70.37,315.77Z" transform="translate(172.26 644.4) rotate(180)"/><path class="cls-38" d="M103.27,327.72a.38.38,0,0,0,.38-.38v-4.22l-4.6,4.6Z"/><path class="cls-38" d="M68.84,327.72a.38.38,0,0,1-.38-.38v-4.22l4.6,4.6Z"/><polyline class="cls-38" points="95.69 324.42 96.38 325.27 75.72 325.27 76.42 324.42"/><polyline class="cls-38" points="76.42 324.42 75.72 323.58 96.38 323.58 95.69 324.42"/><circle class="cls-38" cx="74.89" cy="324.47" r="0.47"/><circle class="cls-38" cx="97.28" cy="324.47" r="0.47"/><polyline class="cls-39" points="103.65 315.77 103.65 321.66 97.58 327.72 74.52 327.72 68.46 321.66 68.46 315.77"/><path class="cls-37" d="M100.9,278.54h3.84a1.7,1.7,0,0,1,1.7,1.7v0a1.7,1.7,0,0,1-1.7,1.7H100.9a.69.69,0,0,1-.69-.69v-2A.69.69,0,0,1,100.9,278.54Z"/><path class="cls-9" d="M100.9,285.31h3.84a1.7,1.7,0,0,1,1.7,1.7v0a1.7,1.7,0,0,1-1.7,1.7H100.9a.69.69,0,0,1-.69-.69v-2a.69.69,0,0,1,.69-.69Z"/><path class="cls-25" d="M100.9,292.08h3.84a1.7,1.7,0,0,1,1.7,1.7v0a1.7,1.7,0,0,1-1.7,1.7H100.9a.69.69,0,0,1-.69-.69v-2a.69.69,0,0,1,.69-.69Z"/><line class="cls-40" x1="100.77" y1="283.7" x2="105.34" y2="283.7"/><line class="cls-40" x1="100.77" y1="290.37" x2="105.34" y2="290.37"/><rect class="cls-35" x="90.14" y="300.68" width="16.54" height="3.06" rx="1.29"/><rect class="cls-36" x="90.77" y="301.93" width="15.36" height="0.28"/><path class="cls-9" d="M91.88,302.21H105a0,0,0,0,1,0,0v8.08a.69.69,0,0,1-.69.69H92.57a.69.69,0,0,1-.69-.69v-8.08a0,0,0,0,1,0,0Z"/><rect class="cls-41" x="93.49" y="302.2" width="0.38" height="8.78"/><rect class="cls-41" x="94.14" y="302.2" width="0.38" height="8.78"/><rect class="cls-41" x="94.8" y="302.2" width="0.38" height="8.78"/><circle class="cls-41" cx="94.34" cy="307.7" r="1.5"/><rect class="cls-42" x="65.2" y="278.54" width="31.35" height="16.94" rx="1.77"/><rect class="cls-35" x="65.2" y="300.68" width="21.5" height="9.4" rx="1.57"/><line class="cls-43" x1="72.36" y1="299.81" x2="72.36" y2="310.98"/><line class="cls-43" x1="79.48" y1="300.31" x2="79.48" y2="311.48"/><line class="cls-43" x1="88.62" y1="303.77" x2="64.45" y2="303.77"/><line class="cls-43" x1="87.78" y1="307.02" x2="63.6" y2="307.02"/><rect class="cls-36" x="100.77" y="302.07" width="2.56" height="8.91"/><g id="Group_2455" data-name="Group 2455"><g id="Group_2453" data-name="Group 2453"><path id="Path_2321" data-name="Path 2321" class="cls-44" d="M47.66,147a49.38,49.38,0,0,0-5,4.84c4.11,3.56,19.45,11.06,36.44,9s18.27-7.59,18.27-7.59c-2.06-1.91-7.4-5.7-7.4-5.7"/><path id="Path_2322" data-name="Path 2322" class="cls-45" d="M47.66,147a32.38,32.38,0,0,1,7.58-4.38c4.34-1.74,3.52-3.75,4.57-12.88,0,0-4.52-6-4.79-9.32,0,0-4.25-1.55-4.48-8s2.28-5.3,2.28-5.3a19.09,19.09,0,0,1,7-17c8.73-7.35,22.79.09,25.67,5.07s3.75,9.64,2.42,14.29,1.19,9.23-2.69,16.72-6,8.5-9.41,9.87l.13,3.92a3.18,3.18,0,0,0,2,2.24c1.64.6,12.15,5.3,12.15,5.3-3.84,0-7.77,2.79-22,2.79S47.66,147,47.66,147"/><path id="Path_2323" data-name="Path 2323" class="cls-46" d="M75.84,140.09c-9.13-2.28-12-8.31-12-8.31,4.07,4.56,11.92,4.33,11.92,4.33Z"/><path id="Path_2324" data-name="Path 2324" class="cls-47" d="M52.78,107.2s3.84,1,4.66,6.81H58l-.1-6.07Z"/><g id="Group_2452" data-name="Group 2452"><g id="Group_2446" data-name="Group 2446"><g id="Group_2445" data-name="Group 2445"><g id="Group_2444" data-name="Group 2444"><g id="Group_2443" data-name="Group 2443"><g class="cls-48"><g id="Group_2442" data-name="Group 2442"><path id="Path_2325" data-name="Path 2325" class="cls-49" d="M47.66,147a32.38,32.38,0,0,1,7.58-4.38c4.34-1.74,3.52-3.75,4.57-12.88,0,0-4.52-6-4.79-9.32,0,0-4.25-1.55-4.48-8s2.28-5.3,2.28-5.3a19.09,19.09,0,0,1,7-17c8.73-7.35,22.79.09,25.67,5.07s3.75,9.64,2.42,14.3,1.19,9.22-2.69,16.71-6,8.5-9.41,9.87l.13,3.92a3.18,3.18,0,0,0,2,2.24c1.64.6,9.59,3.25,12.15,5.3,0,0-7.77,2.79-22,2.79S47.66,147,47.66,147"/></g></g></g></g></g></g><g id="Group_2451" data-name="Group 2451"><g id="Group_2450" data-name="Group 2450"><g id="Group_2449" data-name="Group 2449"><g id="Group_2448" data-name="Group 2448"><g class="cls-48"><g id="Group_2447" data-name="Group 2447"><path id="Path_2327" data-name="Path 2327" class="cls-50" d="M75.84,140.09c-9.13-2.28-12-8.31-12-8.31,4.07,4.56,11.92,4.33,11.92,4.33Z"/></g></g></g></g></g></g></g><path id="Path_2329" data-name="Path 2329" class="cls-47" d="M52.78,107.2a19.06,19.06,0,0,1,7-17c8.72-7.35,22.79.1,25.66,5.07a21.25,21.25,0,0,1-9.59,11.92c-7.72,4.61-23.06,0-23.06,0"/><path id="Path_2330" data-name="Path 2330" class="cls-51" d="M77.81,142.33A118.39,118.39,0,0,1,90,147.63s-7.77,2.78-22,2.78S47.62,147,47.62,147a32.42,32.42,0,0,1,7.58-4.39s9.41,8,19,7.63,3.65-7.9,3.65-7.9"/></g><g id="Group_2454" data-name="Group 2454"><ellipse id="Ellipse_316" data-name="Ellipse 316" class="cls-52" cx="76.01" cy="118.77" rx="21.47" ry="14.89" transform="translate(-52.88 175.97) rotate(-81.31)"/><ellipse id="Ellipse_317" data-name="Ellipse 317" class="cls-52" cx="76.01" cy="118.77" rx="17.82" ry="12.35" transform="translate(-52.88 175.97) rotate(-81.31)"/><ellipse id="Ellipse_318" data-name="Ellipse 318" class="cls-52" cx="76.01" cy="118.77" rx="14.17" ry="9.82" transform="translate(-52.88 175.96) rotate(-81.31)"/><ellipse id="Ellipse_319" data-name="Ellipse 319" class="cls-52" cx="76.01" cy="118.77" rx="10.51" ry="7.29" transform="translate(-52.88 175.96) rotate(-81.31)"/><ellipse id="Ellipse_320" data-name="Ellipse 320" class="cls-52" cx="76.01" cy="118.77" rx="6.86" ry="4.75" transform="translate(-52.88 175.97) rotate(-81.31)"/><ellipse id="Ellipse_321" data-name="Ellipse 321" class="cls-52" cx="76.01" cy="118.77" rx="3.21" ry="2.22" transform="translate(-52.87 175.96) rotate(-81.31)"/></g></g><g id="Group_2535" data-name="Group 2535"><g id="Group_2533" data-name="Group 2533"><g id="Group_2532" data-name="Group 2532"><path id="Path_2398" data-name="Path 2398" class="cls-44" d="M133.05,147a48.72,48.72,0,0,0-5,4.85c4.13,3.58,19.52,11.09,36.57,9.07s18.32-7.6,18.32-7.6c-2.06-1.93-7.42-5.73-7.42-5.73"/><path id="Path_2399" data-name="Path 2399" class="cls-45" d="M133.05,147a32,32,0,0,1,7.6-4.4c4.36-1.75,3.53-3.76,4.59-12.92,0,0-4.54-6-4.82-9.35,0,0-4.26-1.56-4.49-8s2.29-5.32,2.29-5.32a19.12,19.12,0,0,1,7-17c8.75-7.38,22.86.09,25.75,5.08s3.75,9.67,2.42,14.35,1.2,9.25-2.7,16.77-6,8.52-9.44,9.89l.14,3.94a3.19,3.19,0,0,0,2,2.25c1.65.59,12.19,5.31,12.19,5.31-3.85,0-7.79,2.8-22.09,2.8S133.05,147,133.05,147"/><path id="Path_2400" data-name="Path 2400" class="cls-46" d="M161.32,140c-9.17-2.29-12-8.34-12-8.34,4.08,4.58,12,4.35,12,4.35Z"/><path id="Path_2401" data-name="Path 2401" class="cls-47" d="M138.18,107s3.85,1,4.67,6.83h.55l-.09-6.1Z"/><g id="Group_2531" data-name="Group 2531"><g id="Group_2525" data-name="Group 2525"><g id="Group_2524" data-name="Group 2524"><g id="Group_2523" data-name="Group 2523"><g id="Group_2522" data-name="Group 2522"><g class="cls-53"><g id="Group_2521" data-name="Group 2521"><path id="Path_2402" data-name="Path 2402" class="cls-49" d="M133.05,147a32,32,0,0,1,7.6-4.4c4.36-1.75,3.53-3.76,4.59-12.92,0,0-4.54-6-4.82-9.35,0,0-4.26-1.56-4.49-8s2.29-5.32,2.29-5.32a19.12,19.12,0,0,1,7-17c8.75-7.38,22.86.09,25.75,5.08s3.75,9.67,2.42,14.35,1.2,9.25-2.7,16.77-6,8.52-9.44,9.89l.14,3.94a3.19,3.19,0,0,0,2,2.25c1.65.59,9.62,3.25,12.19,5.31,0,0-7.79,2.8-22.09,2.8S133.05,147,133.05,147"/></g></g></g></g></g></g><g id="Group_2530" data-name="Group 2530"><g id="Group_2529" data-name="Group 2529"><g id="Group_2528" data-name="Group 2528"><g id="Group_2527" data-name="Group 2527"><g class="cls-53"><g id="Group_2526" data-name="Group 2526"><path id="Path_2404" data-name="Path 2404" class="cls-50" d="M161.32,140c-9.17-2.29-12-8.34-12-8.34,4.08,4.58,12,4.35,12,4.35Z"/></g></g></g></g></g></g></g><path id="Path_2406" data-name="Path 2406" class="cls-47" d="M138.18,107a19.12,19.12,0,0,1,7-17c8.75-7.38,22.86.09,25.75,5.08a21.35,21.35,0,0,1-9.62,12c-7.74,4.63-23.14,0-23.14,0"/><path id="Path_2407" data-name="Path 2407" class="cls-51" d="M163.29,142.27a119.82,119.82,0,0,1,12.19,5.31s-7.79,2.8-22.09,2.8S133,146.94,133,146.94a33,33,0,0,1,7.61-4.4s9.44,8.06,19,7.65,3.67-7.92,3.67-7.92"/></g></g><g id="Group_2534" data-name="Group 2534"><circle id="Ellipse_367" data-name="Ellipse 367" class="cls-54" cx="170.29" cy="120.13" r="7.09"/><line id="Line_76" data-name="Line 76" class="cls-54" x1="174.46" y1="125.86" x2="180.97" y2="132.37"/></g></g><g id="Group_2550" data-name="Group 2550"><g id="Group_2549" data-name="Group 2549"><g id="Group_2548" data-name="Group 2548"><path id="Path_2408" data-name="Path 2408" class="cls-44" d="M218.5,147a50.77,50.77,0,0,0-5,4.85c4.12,3.58,19.52,11.09,36.56,9.07s18.33-7.6,18.33-7.6c-2.06-1.93-7.42-5.73-7.42-5.73"/><path id="Path_2409" data-name="Path 2409" class="cls-45" d="M218.5,147a32.61,32.61,0,0,1,7.61-4.39c4.35-1.75,3.53-3.76,4.58-12.93,0,0-4.53-6-4.81-9.34,0,0-4.26-1.56-4.49-8s2.29-5.32,2.29-5.32a19.12,19.12,0,0,1,7-17c8.75-7.38,22.87.09,25.75,5.08s3.76,9.67,2.43,14.35,1.19,9.25-2.7,16.77-6,8.52-9.44,9.89l.14,3.94a3.19,3.19,0,0,0,2,2.25c1.65.59,12.18,5.31,12.18,5.31-3.84,0-7.78,2.8-22.08,2.8S218.5,147,218.5,147"/><path id="Path_2410" data-name="Path 2410" class="cls-46" d="M246.78,140c-9.17-2.29-12.06-8.34-12.06-8.34,4.08,4.58,12,4.35,12,4.35Z"/><path id="Path_2411" data-name="Path 2411" class="cls-47" d="M223.64,107s3.84,1,4.67,6.83h.55l-.09-6.1Z"/><g id="Group_2547" data-name="Group 2547"><g id="Group_2541" data-name="Group 2541"><g id="Group_2540" data-name="Group 2540"><g id="Group_2539" data-name="Group 2539"><g id="Group_2538" data-name="Group 2538"><g class="cls-55"><g id="Group_2537" data-name="Group 2537"><path id="Path_2412" data-name="Path 2412" class="cls-49" d="M218.5,147a32.61,32.61,0,0,1,7.61-4.39c4.35-1.75,3.53-3.76,4.58-12.93,0,0-4.53-6-4.81-9.34,0,0-4.26-1.56-4.49-8s2.29-5.32,2.29-5.32a19.12,19.12,0,0,1,7-17c8.75-7.38,22.87.09,25.75,5.08s3.76,9.67,2.43,14.35,1.19,9.25-2.7,16.77-6,8.52-9.44,9.89l.14,3.94a3.19,3.19,0,0,0,2,2.25c1.65.59,9.62,3.25,12.18,5.31,0,0-7.78,2.8-22.08,2.8S218.5,147,218.5,147"/></g></g></g></g></g></g><g id="Group_2546" data-name="Group 2546"><g id="Group_2545" data-name="Group 2545"><g id="Group_2544" data-name="Group 2544"><g id="Group_2543" data-name="Group 2543"><g class="cls-55"><g id="Group_2542" data-name="Group 2542"><path id="Path_2414" data-name="Path 2414" class="cls-50" d="M246.78,140c-9.17-2.29-12.06-8.34-12.06-8.34,4.08,4.58,12,4.35,12,4.35Z"/></g></g></g></g></g></g></g><path id="Path_2416" data-name="Path 2416" class="cls-47" d="M223.64,107a19.12,19.12,0,0,1,7-17c8.75-7.38,22.86.09,25.75,5.08a21.43,21.43,0,0,1-9.62,12c-7.75,4.63-23.14,0-23.14,0"/><path id="Path_2417" data-name="Path 2417" class="cls-51" d="M248.75,142.27a119.81,119.81,0,0,1,12.18,5.31s-7.79,2.8-22.08,2.8-20.39-3.44-20.39-3.44a32,32,0,0,1,7.6-4.4s9.44,8.06,19,7.65,3.67-7.93,3.67-7.93"/></g></g><g id="thumbs-up-solid"><path id="Path_2408-2" data-name="Path 2408-2" class="cls-56" d="M259.43,117a29.32,29.32,0,0,1-2.68-5.58.75.75,0,0,0-.95-.42l-.13.07a2,2,0,0,0-1,1.64v6.09h-5.1a1,1,0,0,0-1,1v0a18.76,18.76,0,0,0,.89,5.09,12.57,12.57,0,0,0,2.24,4.19,1,1,0,0,0,.75.34h3.87c1.28,0,3.53-1,5.33-2a1,1,0,0,0,.5-.86v-6.83a1,1,0,0,0-.53-.83A6.84,6.84,0,0,1,259.43,117Z"/><path id="Path_2409-2" data-name="Path 2409-2" class="cls-56" d="M264,117.5a.63.63,0,0,0-.62.63h0v10a.62.62,0,0,0,.62.62h3.52a.85.85,0,0,0,.85-.84h0v-9.54a.85.85,0,0,0-.85-.85H264Z"/></g></g><g id="Group_2598" data-name="Group 2598"><g id="Group_2597" data-name="Group 2597"><g id="Group_2596" data-name="Group 2596"><path id="Path_2454" data-name="Path 2454" class="cls-44" d="M302.12,147a50.77,50.77,0,0,0-5,4.85c4.12,3.58,19.52,11.09,36.56,9.07s18.33-7.6,18.33-7.6c-2.06-1.93-7.42-5.73-7.42-5.73"/><path id="Path_2455" data-name="Path 2455" class="cls-45" d="M302.12,147a32.3,32.3,0,0,1,7.61-4.4c4.35-1.74,3.53-3.76,4.58-12.92,0,0-4.53-6-4.81-9.35,0,0-4.26-1.56-4.49-8S307.3,107,307.3,107a19.13,19.13,0,0,1,7-17c8.75-7.38,22.87.09,25.75,5.08s3.76,9.67,2.43,14.35,1.19,9.25-2.7,16.77-6,8.52-9.44,9.89l.14,3.94a3.19,3.19,0,0,0,2,2.25c1.65.59,12.18,5.31,12.18,5.31-3.84,0-7.78,2.8-22.08,2.8S302.12,147,302.12,147"/><path id="Path_2456" data-name="Path 2456" class="cls-46" d="M330.4,140c-9.17-2.29-12.06-8.34-12.06-8.34,4.08,4.58,12,4.35,12,4.35Z"/><path id="Path_2457" data-name="Path 2457" class="cls-47" d="M307.26,107s3.85,1,4.67,6.83h.55l-.09-6.1Z"/><g id="Group_2595" data-name="Group 2595"><g id="Group_2589" data-name="Group 2589"><g id="Group_2588" data-name="Group 2588"><g id="Group_2587" data-name="Group 2587"><g id="Group_2586" data-name="Group 2586"><g class="cls-57"><g id="Group_2585" data-name="Group 2585"><path id="Path_2458" data-name="Path 2458" class="cls-49" d="M302.12,147a32.3,32.3,0,0,1,7.61-4.4c4.35-1.74,3.53-3.76,4.58-12.92,0,0-4.53-6-4.81-9.35,0,0-4.26-1.56-4.49-8S307.3,107,307.3,107a19.13,19.13,0,0,1,7-17c8.75-7.38,22.87.09,25.75,5.08s3.76,9.67,2.43,14.35,1.19,9.25-2.7,16.77-6,8.52-9.44,9.89l.14,3.94a3.19,3.19,0,0,0,2,2.25c1.65.59,9.62,3.25,12.18,5.31,0,0-7.78,2.8-22.08,2.8S302.12,147,302.12,147"/></g></g></g></g></g></g><g id="Group_2594" data-name="Group 2594"><g id="Group_2593" data-name="Group 2593"><g id="Group_2592" data-name="Group 2592"><g id="Group_2591" data-name="Group 2591"><g class="cls-57"><g id="Group_2590" data-name="Group 2590"><path id="Path_2460" data-name="Path 2460" class="cls-50" d="M330.4,140c-9.17-2.29-12.06-8.34-12.06-8.34,4.08,4.58,12,4.35,12,4.35Z"/></g></g></g></g></g></g></g><path id="Path_2462" data-name="Path 2462" class="cls-47" d="M307.26,107a19.09,19.09,0,0,1,7-17c8.75-7.38,22.86.09,25.75,5.08a21.43,21.43,0,0,1-9.62,12c-7.75,4.63-23.14,0-23.14,0"/><path id="Path_2463" data-name="Path 2463" class="cls-51" d="M332.36,142.27a118.86,118.86,0,0,1,12.19,5.31s-7.79,2.8-22.08,2.8-20.39-3.44-20.39-3.44a32.73,32.73,0,0,1,7.6-4.4s9.44,8.06,19,7.65,3.66-7.92,3.66-7.92"/></g></g><path id="key" class="cls-56" d="M349.45,111.29A6.27,6.27,0,0,0,343.4,116H332.86v2.66h1.45v5H337v-5h1.25v3.47h2.65v-3.47h2.43a6.25,6.25,0,1,0,6.15-7.34Zm0,2.89a3.35,3.35,0,0,1,3.36,3.36h0a3.36,3.36,0,1,1-3.36-3.36Z"/></g><g id="Group_2613" data-name="Group 2613"><g id="Group_2612" data-name="Group 2612"><g id="Group_2611" data-name="Group 2611"><path id="Path_2468" data-name="Path 2468" class="cls-44" d="M389.42,147a49.79,49.79,0,0,0-5,4.85c4.13,3.58,19.52,11.09,36.57,9.07s18.32-7.6,18.32-7.6c-2.06-1.93-7.42-5.73-7.42-5.73"/><path id="Path_2469" data-name="Path 2469" class="cls-45" d="M389.42,147a32,32,0,0,1,7.6-4.4c4.36-1.75,3.53-3.76,4.59-12.92,0,0-4.54-6-4.82-9.35,0,0-4.26-1.56-4.49-8s2.29-5.32,2.29-5.32a19.12,19.12,0,0,1,7-17c8.75-7.38,22.86.09,25.75,5.08s3.75,9.67,2.42,14.35,1.2,9.25-2.7,16.77-6,8.52-9.44,9.89l.14,3.94a3.21,3.21,0,0,0,2,2.25c1.65.59,12.19,5.31,12.19,5.31-3.85,0-7.79,2.8-22.09,2.8S389.42,147,389.42,147"/><path id="Path_2470" data-name="Path 2470" class="cls-46" d="M417.69,140c-9.16-2.29-12.05-8.34-12.05-8.34,4.08,4.58,12,4.35,12,4.35Z"/><path id="Path_2471" data-name="Path 2471" class="cls-47" d="M394.55,107s3.85,1,4.67,6.83h.55l-.09-6.1Z"/><g id="Group_2610" data-name="Group 2610"><g id="Group_2604" data-name="Group 2604"><g id="Group_2603" data-name="Group 2603"><g id="Group_2602" data-name="Group 2602"><g id="Group_2601" data-name="Group 2601"><g class="cls-58"><g id="Group_2600" data-name="Group 2600"><path id="Path_2472" data-name="Path 2472" class="cls-49" d="M389.42,147a32,32,0,0,1,7.6-4.4c4.36-1.75,3.53-3.76,4.59-12.92,0,0-4.54-6-4.82-9.35,0,0-4.26-1.56-4.49-8s2.29-5.32,2.29-5.32a19.12,19.12,0,0,1,7-17c8.75-7.38,22.86.09,25.75,5.08s3.75,9.67,2.42,14.35,1.2,9.25-2.7,16.77-6,8.52-9.44,9.89l.14,3.94a3.21,3.21,0,0,0,2,2.25c1.65.59,9.62,3.25,12.19,5.31,0,0-7.79,2.8-22.09,2.8S389.42,147,389.42,147"/></g></g></g></g></g></g><g id="Group_2609" data-name="Group 2609"><g id="Group_2608" data-name="Group 2608"><g id="Group_2607" data-name="Group 2607"><g id="Group_2606" data-name="Group 2606"><g class="cls-58"><g id="Group_2605" data-name="Group 2605"><path id="Path_2474" data-name="Path 2474" class="cls-50" d="M417.69,140c-9.16-2.29-12.05-8.34-12.05-8.34,4.08,4.58,12,4.35,12,4.35Z"/></g></g></g></g></g></g></g><path id="Path_2476" data-name="Path 2476" class="cls-47" d="M394.55,107a19.12,19.12,0,0,1,7-17c8.75-7.38,22.86.09,25.75,5.08a21.31,21.31,0,0,1-9.62,12c-7.75,4.63-23.14,0-23.14,0"/><path id="Path_2477" data-name="Path 2477" class="cls-51" d="M419.66,142.27a118.86,118.86,0,0,1,12.19,5.31s-7.79,2.8-22.09,2.8-20.39-3.44-20.39-3.44a33,33,0,0,1,7.61-4.4s9.44,8.06,19,7.65,3.67-7.92,3.67-7.92"/></g></g><path id="pen" class="cls-56" d="M417.07,130.37h0a.63.63,0,0,1,0-.9l1.4-1.42h0a.66.66,0,1,1,.94.93l-1.42,1.4h0a.64.64,0,0,1-.9,0Zm3.65-2.31-1.34-1.34,1.36-3.29a.85.85,0,0,1,.25-.17.63.63,0,0,0,.15.28l2.76,2.76a.69.69,0,0,0,.28.15,1.38,1.38,0,0,1-.17.25Zm1.93-4.92h0a1.15,1.15,0,0,1,0-1.63h0l8.63-8.61h-1.91l-5.28,5.26,0,0a.64.64,0,0,1-.89-.93l5.47-5.49a.62.62,0,0,1,.59-.17h3.33l1.06-1a1.13,1.13,0,0,1,1.46-.12l1.38-1.38a.69.69,0,0,1,1,0l1,1a.69.69,0,0,1,0,1L437,112.35a1.2,1.2,0,0,1,.2.76,1.12,1.12,0,0,1-.33.71l-11,11a1.24,1.24,0,0,1-1.65,0Z"/></g></svg>