<svg xmlns="http://www.w3.org/2000/svg" width="75" height="75" viewBox="0 0 75 75">
  <g id="Group_2880" data-name="Group 2880" transform="translate(-1374 -4560)">
    <circle id="Ellipse_373" data-name="Ellipse 373" cx="37.5" cy="37.5" r="37.5" transform="translate(1374 4560)" fill="#fff"/>
    <path id="finger-print-outline" d="M40.055,7.475a1.12,1.12,0,0,1-.57-.154A27.494,27.494,0,0,0,25.7,3.7,27.51,27.51,0,0,0,11.9,7.321,1.231,1.231,0,0,1,10.218,6.8a1.328,1.328,0,0,1,.5-1.747,30.5,30.5,0,0,1,29.912-.023,1.286,1.286,0,0,1,.52,1.723,1.211,1.211,0,0,1-1.089.719ZM4.62,20.972A1.257,1.257,0,0,1,3.9,20.74a1.313,1.313,0,0,1-.3-1.8,25.89,25.89,0,0,1,9.286-8.407,27.654,27.654,0,0,1,25.529-.026,26.007,26.007,0,0,1,9.286,8.355,1.316,1.316,0,0,1-.3,1.8,1.207,1.207,0,0,1-1.734-.308A23.515,23.515,0,0,0,37.281,12.8a25.23,25.23,0,0,0-23.276.026,23.8,23.8,0,0,0-8.419,7.605A1.071,1.071,0,0,1,4.62,20.972ZM20.1,52.007a1.143,1.143,0,0,1-.867-.385,26.006,26.006,0,0,1-4.977-6.79,23.464,23.464,0,0,1-2.6-11.158,14.019,14.019,0,0,1,28.035,0,1.239,1.239,0,1,1-2.476,0,11.545,11.545,0,0,0-23.084,0,20.772,20.772,0,0,0,2.3,9.9,24.354,24.354,0,0,0,4.581,6.222,1.357,1.357,0,0,1,0,1.821,1.333,1.333,0,0,1-.917.395ZM37.853,47.25a12.98,12.98,0,0,1-7.677-2.288,13.829,13.829,0,0,1-5.891-11.286,1.24,1.24,0,1,1,2.477,0,11.17,11.17,0,0,0,4.8,9.153,10.563,10.563,0,0,0,6.291,1.821,15.791,15.791,0,0,0,2.572-.257,1.238,1.238,0,0,1,1.435,1.054,1.277,1.277,0,0,1-1.015,1.492,16.312,16.312,0,0,1-2.994.308Zm-4.977,5.293a1.392,1.392,0,0,1-.321-.052,19.421,19.421,0,0,1-14.586-18.82,7.627,7.627,0,0,1,15.253,0,5.154,5.154,0,0,0,10.3,0A17.77,17.77,0,0,0,25.57,16.112,18.012,18.012,0,0,0,9.2,26.473a17.1,17.1,0,0,0-1.461,7.2A26.425,26.425,0,0,0,9.4,42.953,1.269,1.269,0,0,1,8.682,44.6a1.214,1.214,0,0,1-1.584-.75A29.608,29.608,0,0,1,5.289,33.671a19.945,19.945,0,0,1,1.683-8.33A20.471,20.471,0,0,1,46,33.644a7.627,7.627,0,0,1-15.253,0,5.153,5.153,0,0,0-10.3,0,16.515,16.515,0,0,0,4.631,11.6,16.752,16.752,0,0,0,8.1,4.756,1.282,1.282,0,0,1,.867,1.568,1.22,1.22,0,0,1-1.164.981Z" transform="translate(1386.505 4569.828)" fill="#7ebfab"/>
  </g>
</svg>
