<svg xmlns="http://www.w3.org/2000/svg" width="75" height="75" viewBox="0 0 75 75">
  <g id="Group_2885" data-name="Group 2885" transform="translate(-1846.104 -4065.451)">
    <circle id="Ellipse_9" data-name="Ellipse 9" cx="37.5" cy="37.5" r="37.5" transform="translate(1846.104 4065.451)" fill="#fff"/>
    <g id="Group_2804" data-name="Group 2804" transform="translate(1879.797 4077)">
      <g id="Rectangle_536" data-name="Rectangle 536" transform="translate(-0.797)" fill="none" stroke="#7ebfab" stroke-linecap="round" stroke-linejoin="round" stroke-width="4">
        <rect width="29" height="14" stroke="none"/>
        <rect x="2" y="2" width="25" height="10" fill="none"/>
      </g>
      <g id="Rectangle_537" data-name="Rectangle 537" transform="translate(-0.797 11)" fill="none" stroke="#7ebfab" stroke-linecap="round" stroke-linejoin="round" stroke-width="4">
        <rect width="29" height="13" stroke="none"/>
        <rect x="2" y="2" width="25" height="9" fill="none"/>
      </g>
      <g id="Rectangle_538" data-name="Rectangle 538" transform="translate(-0.797 21)" fill="none" stroke="#7ebfab" stroke-linecap="round" stroke-linejoin="round" stroke-width="4">
        <rect width="29" height="14" stroke="none"/>
        <rect x="2" y="2" width="25" height="10" fill="none"/>
      </g>
    </g>
    <path id="finger-print-outline" d="M25.023,4.873a.661.661,0,0,1-.336-.091,16.227,16.227,0,0,0-8.139-2.139,16.236,16.236,0,0,0-8.14,2.139.727.727,0,0,1-.994-.306.784.784,0,0,1,.293-1.031A18,18,0,0,1,25.36,3.431a.759.759,0,0,1,.307,1.017.715.715,0,0,1-.643.424ZM4.109,12.838a.742.742,0,0,1-.423-.137.775.775,0,0,1-.175-1.062,15.28,15.28,0,0,1,5.48-4.961,16.321,16.321,0,0,1,15.067-.015,15.349,15.349,0,0,1,5.48,4.931.777.777,0,0,1-.175,1.062.712.712,0,0,1-1.023-.182,13.878,13.878,0,0,0-4.954-4.461,14.89,14.89,0,0,0-13.737.015A14.048,14.048,0,0,0,4.68,12.517.632.632,0,0,1,4.109,12.838Zm9.134,18.316a.674.674,0,0,1-.512-.227A15.348,15.348,0,0,1,9.795,26.92a13.848,13.848,0,0,1-1.534-6.585,8.274,8.274,0,0,1,16.546,0,.731.731,0,1,1-1.461,0,6.814,6.814,0,0,0-13.624,0,12.259,12.259,0,0,0,1.359,5.842,14.373,14.373,0,0,0,2.7,3.672.8.8,0,0,1,0,1.074.787.787,0,0,1-.541.233Zm10.479-2.807A7.66,7.66,0,0,1,19.192,27a8.162,8.162,0,0,1-3.477-6.661.732.732,0,1,1,1.462,0,6.592,6.592,0,0,0,2.835,5.4,6.234,6.234,0,0,0,3.713,1.074,9.32,9.32,0,0,0,1.518-.152.731.731,0,0,1,.847.622.753.753,0,0,1-.6.88,9.627,9.627,0,0,1-1.767.182Zm-2.937,3.124a.822.822,0,0,1-.19-.031,11.462,11.462,0,0,1-8.608-11.107,4.5,4.5,0,0,1,9,0,3.042,3.042,0,0,0,6.08,0A10.488,10.488,0,0,0,16.474,9.97a10.63,10.63,0,0,0-9.659,6.115,10.09,10.09,0,0,0-.862,4.248,15.6,15.6,0,0,0,.978,5.478.749.749,0,0,1-.423.971.717.717,0,0,1-.935-.442A17.474,17.474,0,0,1,4.5,20.333,11.771,11.771,0,0,1,5.5,15.417a12.082,12.082,0,0,1,23.031,4.9,4.5,4.5,0,0,1-9,0,3.041,3.041,0,0,0-6.079,0,9.747,9.747,0,0,0,2.733,6.843,9.887,9.887,0,0,0,4.779,2.807.756.756,0,0,1,.512.925.72.72,0,0,1-.687.579Z" transform="translate(1850.527 4096.875)" fill="#7ebfab" stroke="#7ebfab" stroke-width="1"/>
  </g>
</svg>
