<svg id="Group_3443" data-name="Group 3443" xmlns="http://www.w3.org/2000/svg" width="93.91" height="62.042" viewBox="0 0 93.91 62.042">
  <path id="Path_2926" data-name="Path 2926" d="M245.106,113.166a3.892,3.892,0,0,1-3.882,3.88H155.077a3.892,3.892,0,0,1-3.88-3.88V96.381h93.909Z" transform="translate(-151.197 -55.005)" fill="#61b498"/>
  <g id="Group_3440" data-name="Group 3440" transform="translate(0 0)">
    <path id="Path_2927" data-name="Path 2927" d="M151.2,85.323V68.538a3.892,3.892,0,0,1,3.88-3.88h86.148a3.892,3.892,0,0,1,3.882,3.88V85.323Z" transform="translate(-151.197 -64.658)" fill="#fca333"/>
  </g>
  <rect id="Rectangle_692" data-name="Rectangle 692" width="93.91" height="20.711" transform="translate(0 20.665)" fill="#f2f1f1"/>
  <g id="Group_3442" data-name="Group 3442" transform="translate(38.258 22.46)">
    <g id="Group_3441" data-name="Group 3441">
      <path id="Path_2928" data-name="Path 2928" d="M189.226,89.053a1.522,1.522,0,1,0,1.522,1.522A1.522,1.522,0,0,0,189.226,89.053Zm0-7.175a8.7,8.7,0,1,0,8.7,8.7A8.7,8.7,0,0,0,189.226,81.878Zm7.595,9.151a.542.542,0,0,0-.14,1.073c-.027.138-.061.274-.1.407l-3.942-1.328-1.546-.213a2.047,2.047,0,0,1-.053.2l1.444.591,4.079.819c-.038.136-.077.269-.121.4a.542.542,0,0,0-.415,1c-.063.124-.129.247-.2.368l-3.462-2.3-1.44-.605a1.891,1.891,0,0,1-.1.18l1.243.944L195.8,94.41c-.07.121-.143.24-.22.356a.542.542,0,0,0-.66.858c-.093.1-.189.206-.287.305l-2.747-3.12-1.235-.959A1.732,1.732,0,0,1,190.5,92l.957,1.234,3.12,2.747c-.1.1-.2.194-.3.287a.542.542,0,0,0-.858.66c-.116.077-.235.15-.356.22l-1.847-3.725-.944-1.244a1.863,1.863,0,0,1-.179.1l.605,1.44,2.3,3.462c-.121.069-.244.136-.369.2a.542.542,0,0,0-1,.415c-.132.044-.266.085-.4.121l-.819-4.077-.591-1.445a2.047,2.047,0,0,1-.2.055l.211,1.546,1.329,3.94c-.134.037-.269.069-.407.1a.541.541,0,0,0-1.073.138c-.138.008-.278.013-.419.014l.263-4.15-.2-1.551c-.034,0-.068.005-.1.005s-.069,0-.1-.005l-.2,1.551.263,4.15c-.14,0-.279-.005-.417-.014a.542.542,0,0,0-1.075-.138q-.205-.043-.407-.1l1.329-3.94.211-1.547a2.041,2.041,0,0,1-.2-.053l-.59,1.445-.82,4.077c-.134-.037-.267-.077-.4-.121a.542.542,0,0,0-1-.415c-.125-.063-.247-.129-.368-.2l2.3-3.462.605-1.44a1.739,1.739,0,0,1-.18-.1l-.944,1.244-1.847,3.725c-.12-.07-.239-.143-.355-.22a.542.542,0,0,0-.86-.66c-.1-.093-.2-.188-.3-.287l3.12-2.747L187.949,92a1.932,1.932,0,0,1-.146-.146l-1.235.959-2.747,3.12c-.1-.1-.194-.2-.287-.305a.542.542,0,0,0-.66-.858c-.077-.116-.149-.235-.219-.356l3.725-1.846,1.243-.944c-.037-.059-.072-.119-.1-.18l-1.44.605-3.462,2.3c-.069-.121-.136-.244-.2-.368a.542.542,0,0,0-.415-1c-.043-.132-.083-.265-.121-.4l4.079-.819,1.445-.591a1.734,1.734,0,0,1-.055-.2l-1.546.211-3.942,1.329c-.035-.134-.068-.269-.1-.407a.541.541,0,0,0-.138-1.073c-.009-.138-.013-.278-.014-.419l4.15.265,1.551-.2c0-.034-.005-.068-.005-.1s0-.069.005-.1l-1.551-.2-4.15.265c0-.141.005-.28.014-.419a.542.542,0,0,0,.138-1.075c.027-.137.061-.273.1-.407l3.942,1.33,1.546.211a1.756,1.756,0,0,1,.055-.2l-1.445-.59-4.079-.819c.038-.136.078-.269.121-.4a.542.542,0,0,0,.415-1c.063-.125.129-.247.2-.368l3.462,2.3,1.44.605a2.023,2.023,0,0,1,.1-.18l-1.244-.944-3.725-1.846c.07-.121.142-.24.219-.356a.542.542,0,0,0,.66-.86c.093-.1.189-.2.287-.3l2.747,3.12,1.235.957c.047-.051.1-.1.146-.146l-.957-1.235-3.12-2.747c.1-.1.2-.194.3-.287a.542.542,0,0,0,.86-.66q.174-.113.356-.219l1.846,3.725.944,1.244a1.74,1.74,0,0,1,.18-.1l-.605-1.44-2.3-3.462c.12-.069.243-.137.368-.2a.541.541,0,0,0,1-.413c.132-.044.266-.085.4-.121l.82,4.077.59,1.445a2.046,2.046,0,0,1,.2-.055l-.211-1.546-1.329-3.94q.2-.055.407-.1a.542.542,0,0,0,1.075-.138c.138-.009.278-.013.419-.014l-.265,4.15.2,1.551c.034,0,.068-.005.1-.005s.069,0,.1.005l.2-1.551-.263-4.15c.141,0,.28.005.419.014a.541.541,0,0,0,1.073.138c.138.029.273.061.407.1l-1.329,3.94L189.62,88.7a2.045,2.045,0,0,1,.2.055l.591-1.445.819-4.077c.134.037.269.077.4.121a.542.542,0,0,0,1,.413c.125.063.248.13.369.2l-2.3,3.462-.605,1.44a1.865,1.865,0,0,1,.179.1l.944-1.244L193.061,84c.121.07.24.143.356.22a.542.542,0,0,0,.858.66c.1.093.206.188.3.287l-3.12,2.747-.957,1.234a1.945,1.945,0,0,1,.146.147l1.235-.959,2.747-3.12c.1.1.194.2.287.305a.542.542,0,0,0,.66.858c.077.116.15.235.22.356l-3.726,1.846-1.243.944a2.067,2.067,0,0,1,.1.18l1.44-.605,3.462-2.3c.069.121.136.244.2.369a.542.542,0,0,0,.415,1c.044.132.085.265.121.4l-4.077.819-1.445.59a1.978,1.978,0,0,1,.053.2l1.546-.211,3.942-1.33c.035.134.069.27.1.408a.542.542,0,0,0,.14,1.073c.008.138.013.278.013.419l-4.15-.265-1.55.2c0,.034.005.068.005.1s0,.069-.005.1l1.55.2,4.15-.265C196.833,90.751,196.829,90.891,196.821,91.029Z" transform="translate(-180.529 -81.878)" fill="#415aa3"/>
    </g>
  </g>
</svg>
