<svg xmlns="http://www.w3.org/2000/svg" width="86.964" height="86.965" viewBox="0 0 86.964 86.965"><defs><style>.a{fill:#333;}.b{fill:#fff;}.c{fill:#5fbda4;}</style></defs><g transform="translate(-222 -980)"><g transform="translate(222 980)"><g transform="translate(0 0)"><path class="a" d="M0,0A43.482,43.482,0,0,0,43.482-43.483,43.482,43.482,0,0,0,0-86.965,43.482,43.482,0,0,0-43.482-43.483,43.482,43.482,0,0,0,0,0" transform="translate(43.482 86.965)"/></g></g><g transform="translate(19332.061 337.033)"><path class="b" d="M-196.456,10.78a2.692,2.692,0,0,0-2.7,2.7V63.184a2.691,2.691,0,0,0,2.7,2.7h35.45a2.691,2.691,0,0,0,2.7-2.7V13.477a2.692,2.692,0,0,0-2.7-2.7Z" transform="translate(-18887.848 648.118)"/><rect class="a" width="26.01" height="2.601" rx="1.3" transform="translate(-19079.582 676.873)"/><rect class="a" width="26.01" height="2.601" rx="1.3" transform="translate(-19079.582 684.82)"/><rect class="a" width="26.01" height="2.601" rx="1.3" transform="translate(-19079.582 692.768)"/><rect class="a" width="14.835" height="2.601" rx="1.3" transform="translate(-19068.408 700.715)"/><path class="c" d="M-170.626,11.121V24.16l4.015-4.015,4.091,4.091V11.121Z" transform="translate(-18909.102 647.864)"/></g></g></svg>