<svg xmlns="http://www.w3.org/2000/svg" width="86.965" height="86.965" viewBox="0 0 86.965 86.965"><defs><style>.a{fill:#333;}.b{fill:#eee;}.c{fill:#5fbda4;}</style></defs><g transform="translate(-1130 -980)"><g transform="translate(1130 980)"><g transform="translate(0 0)"><path class="a" d="M0,0A43.482,43.482,0,0,0,43.482-43.483,43.482,43.482,0,0,0,0-86.965,43.483,43.483,0,0,0-43.483-43.483,43.483,43.483,0,0,0,0,0" transform="translate(43.483 86.965)"/></g></g><g transform="translate(369.807 648.888)"><path class="b" d="M818.429,366.7l-10.3-10.3-11.944,11.957,10.3,10.289Z" transform="translate(-6.677 -5.161)"/><path class="b" d="M825.972,380.839l-5.349,5.361,27.6,27.594,5.36-5.348Z" transform="translate(-16.283 -14.766)"/><path class="b" d="M795.339,393.5a2.675,2.675,0,0,0,3.706,0l1.655-1.644a2.637,2.637,0,0,0,0-3.7l-11.537-11.536a2.628,2.628,0,0,0-3.717,0l-1.643,1.643a2.616,2.616,0,0,0,0,3.7Z" transform="translate(-1.509 -12.805)"/><path class="b" d="M827.919,360.922a2.675,2.675,0,0,0,3.706,0l1.655-1.644a2.66,2.66,0,0,0,0-3.716l-11.537-11.525a2.628,2.628,0,0,0-3.716,0l-1.643,1.643a2.616,2.616,0,0,0,0,3.7Z" transform="translate(-14.314)"/><path class="c" d="M780.779,433.5l-1.584,4.079h35.938l-1.586-4.079Z" transform="translate(0 -35.464)"/><path class="c" d="M786.26,428.93c-.28.14-1.1.559-1.1.559h28.911l-1.317-.559a14.6,14.6,0,0,0-5.676-1.188H791.934A13.508,13.508,0,0,0,786.26,428.93Z" transform="translate(-2.346 -33.201)"/></g></g></svg>