<svg height="86.965" viewBox="0 0 86.964 86.965" width="86.964" xmlns="http://www.w3.org/2000/svg"><path d="m0 0a43.482 43.482 0 0 0 43.482-43.483 43.482 43.482 0 0 0 -43.482-43.482 43.482 43.482 0 0 0 -43.482 43.482 43.482 43.482 0 0 0 43.482 43.483" fill="#333" transform="translate(43.482 86.965)"/><path d="m515.2 319.611v1.512a7.838 7.838 0 0 1 -.066 1.058 9.817 9.817 0 0 1 -.366 1.662 9.589 9.589 0 0 1 -1.662 3.141c-.122.15-.248.3-.382.438l-.438.477a3.024 3.024 0 0 1 -2.217.992h-.693a3.03 3.03 0 0 1 -2.216-.992l-.438-.477a5.475 5.475 0 0 1 -.376-.438 9.517 9.517 0 0 1 -1.241-2.005 9.419 9.419 0 0 1 -.8-2.82 7.113 7.113 0 0 1 -.072-1.019v-1.5a5.62 5.62 0 0 1 .2-1.518 5.5 5.5 0 0 1 10.57 0 5.228 5.228 0 0 1 .197 1.489z" fill="#eee" transform="translate(-466.239 -306.918)"/><path d="m504.86 364.205a4.586 4.586 0 0 0 -.831-.288l-3.152-1.135a.228.228 0 0 0 0-.1l-.554-1.4a.488.488 0 0 0 -.709-.233l-2.006 1.208-1.385.814-1.357-.814-2.011-1.219a.488.488 0 0 0 -.668.171.5.5 0 0 0 -.035.074l-.554 1.4a.234.234 0 0 0 0 .1l-3.18 1.136a4.609 4.609 0 0 0 -.831.288 4.82 4.82 0 0 0 -2.836 4.393v5.745a1.375 1.375 0 0 0 .4.975 2.63 2.63 0 0 0 .975.4 37.168 37.168 0 0 0 10.094 1.464 34.04 34.04 0 0 0 11.054-1.825 1.376 1.376 0 0 0 .42-.985v-5.774a4.82 4.82 0 0 0 -2.834-4.395z" fill="#eee" transform="translate(-452.75 -339.34)"/><path d="m431.716 366.923a24.614 24.614 0 0 1 15.976-20.192" fill="none" stroke="#76baa5" stroke-linecap="round" stroke-miterlimit="10" stroke-width="2" transform="translate(-412.703 -328.659)"/><path d="m501.679 511.082a24.626 24.626 0 0 1 -23.694 0" fill="none" stroke="#76baa5" stroke-linecap="round" stroke-miterlimit="10" stroke-width="2" transform="translate(-446.4 -448.358)"/><path d="m552.662 346.732a24.613 24.613 0 0 1 15.974 20.168" fill="none" stroke="#76baa5" stroke-linecap="round" stroke-miterlimit="10" stroke-width="2" transform="translate(-500.789 -328.659)"/><g fill="#eee"><path d="m425.313 434.944v1.512a7.8 7.8 0 0 1 -.066 1.058 9.824 9.824 0 0 1 -.366 1.662 9.6 9.6 0 0 1 -1.662 3.141c-.121.15-.248.3-.382.438l-.438.476a3.024 3.024 0 0 1 -2.216.992h-.693a3.031 3.031 0 0 1 -2.216-.992l-.438-.476a5.669 5.669 0 0 1 -.376-.438 9.531 9.531 0 0 1 -1.241-2.006 9.42 9.42 0 0 1 -.8-2.82 7.108 7.108 0 0 1 -.072-1.019v-1.5a5.626 5.626 0 0 1 .205-1.518 5.5 5.5 0 0 1 10.57 0 5.228 5.228 0 0 1 .191 1.49z" transform="translate(-398.349 -393.468)"/><path d="m414.97 479.538a4.591 4.591 0 0 0 -.831-.288l-3.152-1.135a.228.228 0 0 0 0-.1l-.554-1.4a.489.489 0 0 0 -.709-.233l-2.006 1.208-1.385.814-1.357-.814-2.011-1.219a.488.488 0 0 0 -.668.17.5.5 0 0 0 -.035.074l-.554 1.4a.239.239 0 0 0 0 .1l-3.18 1.136a4.611 4.611 0 0 0 -.831.288 4.82 4.82 0 0 0 -2.836 4.393v5.745a1.375 1.375 0 0 0 .4.975 2.625 2.625 0 0 0 .975.4 37.171 37.171 0 0 0 10.094 1.464 34.041 34.041 0 0 0 11.054-1.825 1.376 1.376 0 0 0 .419-.985v-5.778a4.82 4.82 0 0 0 -2.833-4.39z" transform="translate(-384.859 -425.89)"/><path d="m605.093 434.944v1.512a7.867 7.867 0 0 1 -.067 1.058 9.8 9.8 0 0 1 -.366 1.662 9.6 9.6 0 0 1 -1.66 3.141c-.122.15-.248.3-.382.438l-.438.476a3.024 3.024 0 0 1 -2.216.992h-.693a3.031 3.031 0 0 1 -2.217-.992l-.438-.476a5.645 5.645 0 0 1 -.377-.438 9.537 9.537 0 0 1 -1.239-2.005 9.42 9.42 0 0 1 -.8-2.82 7.113 7.113 0 0 1 -.072-1.019v-1.5a5.618 5.618 0 0 1 .2-1.518 5.5 5.5 0 0 1 10.57 0 5.228 5.228 0 0 1 .195 1.489z" transform="translate(-534.13 -393.468)"/><path d="m594.75 479.538a4.6 4.6 0 0 0 -.831-.288l-3.152-1.135a.23.23 0 0 0 0-.1l-.554-1.4a.488.488 0 0 0 -.709-.233l-2.006 1.208-1.385.814-1.357-.814-2.011-1.219a.488.488 0 0 0 -.668.17.5.5 0 0 0 -.036.074l-.554 1.4a.229.229 0 0 0 0 .1l-3.18 1.136a4.608 4.608 0 0 0 -.831.288 4.82 4.82 0 0 0 -2.836 4.393v5.745a1.374 1.374 0 0 0 .4.975 2.626 2.626 0 0 0 .976.4 37.168 37.168 0 0 0 10.094 1.464 34.043 34.043 0 0 0 11.054-1.825 1.376 1.376 0 0 0 .42-.985v-5.778a4.82 4.82 0 0 0 -2.834-4.39z" transform="translate(-520.64 -425.89)"/></g></svg>