<svg xmlns="http://www.w3.org/2000/svg" width="86.964" height="86.965" viewBox="0 0 86.964 86.965"><defs><style>.a{fill:#333;}.b{fill:#eee;}.c{fill:#5fbda4;}</style></defs><g transform="translate(-449 -980)"><g transform="translate(449 980)"><g transform="translate(0 0)"><path class="a" d="M0,0A43.482,43.482,0,0,0,43.482-43.482,43.482,43.482,0,0,0,0-86.965,43.482,43.482,0,0,0-43.482-43.482,43.482,43.482,0,0,0,0,0" transform="translate(43.482 86.965)"/></g></g><g transform="translate(880.865 962.182)"><path class="b" d="M-367.933,40.565v2.608A13.552,13.552,0,0,1-368.048,45a16.947,16.947,0,0,1-.631,2.867,16.556,16.556,0,0,1-2.867,5.418c-.21.258-.429.516-.659.755l-.755.822a5.216,5.216,0,0,1-3.823,1.711h-1.195a5.229,5.229,0,0,1-3.823-1.711l-.755-.822a9.544,9.544,0,0,1-.65-.755,16.451,16.451,0,0,1-2.141-3.46,16.251,16.251,0,0,1-1.376-4.864,12.259,12.259,0,0,1-.124-1.758v-2.58A9.694,9.694,0,0,1-386.494,38a9.48,9.48,0,0,1,11.716-6.518A9.48,9.48,0,0,1-368.26,38,9.017,9.017,0,0,1-367.933,40.565Z" transform="translate(-18.61 0)"/><g transform="translate(-381.486 65.873)"><g transform="translate(0)"><path class="c" d="M-294.246,142.408a4.923,4.923,0,0,0,.045-.817,1.344,1.344,0,0,1-.363-.182l-1.679-1.135a1.6,1.6,0,0,1-.408-2.224l1.135-1.679a1.985,1.985,0,0,1,.272-.318,13.656,13.656,0,0,0-2.406-3.631c-.136.045-.227.091-.363.136l-2,.363a1.638,1.638,0,0,1-1.907-1.271l-.363-2a1.26,1.26,0,0,1-.045-.408,14.341,14.341,0,0,0-3.4-.817,4.958,4.958,0,0,0-.817-.045,1.344,1.344,0,0,1-.181.363l-1.135,1.725a1.655,1.655,0,0,1-2.224.454l-1.725-1.135a1.99,1.99,0,0,1-.318-.272,12.759,12.759,0,0,0-3.586,2.406c.045.136.091.227.136.363l.363,2a1.638,1.638,0,0,1-1.271,1.907l-2,.363a1.25,1.25,0,0,1-.408.045,14.352,14.352,0,0,0-.817,3.4,4.964,4.964,0,0,0-.045.817,1.366,1.366,0,0,1,.363.182l1.679,1.135a1.655,1.655,0,0,1,.454,2.224l-1.135,1.679a1.959,1.959,0,0,1-.272.318,13.673,13.673,0,0,0,2.406,3.631c.136-.045.227-.091.363-.136l2-.363A1.638,1.638,0,0,1-312,150.761l.363,2a1.252,1.252,0,0,1,.045.408,14.333,14.333,0,0,0,3.4.817,4.923,4.923,0,0,0,.817.045,1.372,1.372,0,0,1,.182-.363l1.135-1.679a1.655,1.655,0,0,1,2.224-.454l1.679,1.135a1.974,1.974,0,0,1,.318.272,12.748,12.748,0,0,0,3.587-2.406c-.045-.136-.091-.227-.136-.363l-.408-2a1.638,1.638,0,0,1,1.271-1.907l2-.408a1.272,1.272,0,0,1,.408-.045A11.723,11.723,0,0,0-294.246,142.408Zm-6.945,2.68a6.994,6.994,0,0,1-9.715,1.862,7,7,0,0,1-1.861-9.715,6.994,6.994,0,0,1,9.715-1.861h0a7,7,0,0,1,1.861,9.713Z" transform="translate(319.759 -128.38)"/></g></g><g transform="translate(-398.416 76.867)"><g transform="translate(0)"><path class="c" d="M-350.526,168.316c0-.182.045-.363.045-.545-.091-.045-.182-.045-.227-.136l-1.089-.726a1.036,1.036,0,0,1-.282-1.438l.01-.015.726-1.089a.356.356,0,0,1,.181-.18,8.161,8.161,0,0,0-1.543-2.36c-.091.045-.182.045-.227.091l-1.362.227a1.048,1.048,0,0,1-1.226-.817l-.272-1.316v-.272a8.869,8.869,0,0,0-2.224-.545c-.182,0-.363-.045-.545-.045-.045.091-.045.182-.136.227l-.726,1.089a1.036,1.036,0,0,1-1.438.282l-.015-.01-1.089-.726a.354.354,0,0,1-.182-.182,8.167,8.167,0,0,0-2.36,1.543c.045.091.045.182.091.227l.272,1.316a1.048,1.048,0,0,1-.817,1.226l-1.316.272h-.272a8.873,8.873,0,0,0-.545,2.224c0,.182-.045.363-.045.545.091.045.182.045.227.136l1.089.726a1.036,1.036,0,0,1,.282,1.438l-.01.014-.726,1.089a.354.354,0,0,1-.182.182,8.163,8.163,0,0,0,1.543,2.36c.091-.045.182-.045.227-.091l1.316-.272a1.048,1.048,0,0,1,1.226.817l.272,1.316v.272a8.857,8.857,0,0,0,2.224.545c.181,0,.363.045.545.045a.609.609,0,0,1,.136-.227l.726-1.089a1.037,1.037,0,0,1,1.438-.282l.014.01,1.089.726a.354.354,0,0,1,.181.182,8.156,8.156,0,0,0,2.361-1.543c-.045-.091-.045-.182-.091-.227l-.272-1.316a1.048,1.048,0,0,1,.817-1.226l1.316-.272h.272A6.4,6.4,0,0,0-350.526,168.316Zm-4.538,1.771a4.576,4.576,0,0,1-6.355,1.226,4.577,4.577,0,0,1-1.226-6.355,4.577,4.577,0,0,1,6.355-1.226,4.589,4.589,0,0,1,1.224,6.355Z" transform="translate(367.14 -159.148)"/></g></g><g transform="translate(-415.805 57.582)"><path class="b" d="M-377.307,117.373c-.045-.136-.091-.227-.136-.363.3-.286.615-.554.94-.809a8.311,8.311,0,0,0-4.611-5.45,7.9,7.9,0,0,0-1.434-.5l-5.437-1.959a.387.387,0,0,0,0-.172l-.956-2.408a.841.841,0,0,0-1.094-.467.9.9,0,0,0-.129.065l-3.46,2.084-2.389,1.4-2.341-1.4-3.469-2.1a.842.842,0,0,0-1.153.294h0a.878.878,0,0,0-.061.126l-.956,2.408a.4.4,0,0,0,0,.172l-5.486,1.959a7.971,7.971,0,0,0-1.434.5,8.315,8.315,0,0,0-4.893,7.578v9.91a2.38,2.38,0,0,0,2.38,2.38h2.265c.048,0,6.142.007,13.043.014a8.906,8.906,0,0,1,.292-.906h.272l1.316-.272a1.048,1.048,0,0,0,.817-1.226l-.272-1.316c-.045-.045-.045-.136-.091-.227a8.169,8.169,0,0,1,2.36-1.543.354.354,0,0,0,.182.182l1.089.726.015.01a1.036,1.036,0,0,0,1.438-.282l.726-1.089c.091-.045.091-.136.136-.227.182,0,.363.045.545.045a8.869,8.869,0,0,1,2.224.545v.272l.272,1.316a1.048,1.048,0,0,0,1.226.817l1.362-.227c.045-.045.136-.045.227-.091a8.161,8.161,0,0,1,1.543,2.36.355.355,0,0,0-.181.18l-.647.972,3.46.007.818-1.211a1.655,1.655,0,0,0-.454-2.224l-1.679-1.135a1.366,1.366,0,0,0-.363-.182,4.96,4.96,0,0,1,.045-.817,14.349,14.349,0,0,1,.817-3.4,1.25,1.25,0,0,0,.408-.045l2-.363a1.638,1.638,0,0,0,1.271-1.907Z" transform="translate(415.805 -105.176)"/></g></g></g></svg>