<svg xmlns="http://www.w3.org/2000/svg" width="86.964" height="86.965" viewBox="0 0 86.964 86.965"><defs><style>.a{fill:#333;}.b{fill:#eee;fill-rule:evenodd;}.c{fill:#5fbda4;}</style></defs><g transform="translate(-903 -980)"><g transform="translate(903 980)"><g transform="translate(0 0)"><path class="a" d="M0,0A43.482,43.482,0,0,0,43.482-43.483,43.482,43.482,0,0,0,0-86.965,43.482,43.482,0,0,0-43.482-43.483,43.482,43.482,0,0,0,0,0" transform="translate(43.482 86.965)"/></g></g><g transform="translate(926 995)"><path class="b" d="M7.479,0H41.41V44.876H7.479A4.892,4.892,0,0,0,2.736,48.89a4.886,4.886,0,0,0,4.743,4.2H41.41V56H7.479A7.513,7.513,0,0,1,0,48.525V7.479A7.4,7.4,0,0,1,7.479,0ZM9.851,5.29H36.667V17.513H9.851Z"/></g><path class="c" d="M0-4H28V13H0Z" transform="translate(935 1004)"/></g></svg>