<svg xmlns="http://www.w3.org/2000/svg" width="75" height="75" viewBox="0 0 75 75">
  <g id="Group_4092" data-name="Group 4092" transform="translate(-385.39 -338.918)">
    <g id="Group_4091" data-name="Group 4091">
      <g id="Group_4089" data-name="Group 4089">
        <path id="Path_3381" data-name="Path 3381" d="M426.664,344.614a1.587,1.587,0,0,0-1.588-1.587H409.2a1.587,1.587,0,0,0-1.588,1.587v17.462h19.05Z" fill="#040506"/>
        <path id="Path_3382" data-name="Path 3382" d="M442.371,356.6a1.593,1.593,0,0,0-1.42-.878H429.839v6.35h1.587a1.588,1.588,0,1,1,0,3.175H402.852a1.588,1.588,0,1,1,0-3.175h1.587v-6.35H393.327a1.592,1.592,0,0,0-1.42.878l-6.517,15h63.5Z" fill="#57b093"/>
        <path id="Path_3383" data-name="Path 3383" d="M385.39,404.938a1.585,1.585,0,0,0,1.585,1.587H447.3a1.585,1.585,0,0,0,1.587-1.585V374.776h-63.5Z" fill="#57b093"/>
      </g>
      <g id="Group_4090" data-name="Group 4090">
        <path id="Path_3384" data-name="Path 3384" d="M460.2,407.766l-16.188-26.981a1.349,1.349,0,0,0-2.314,0l-16.188,26.981a1.349,1.349,0,0,0,1.157,2.043H459.04a1.349,1.349,0,0,0,1.157-2.043Zm-16-4.7a1.349,1.349,0,0,1-2.7,0v-1.349a1.349,1.349,0,0,1,2.7,0Zm0-5.4a1.349,1.349,0,0,1-2.7,0v-6.745a1.349,1.349,0,0,1,2.7,0Z" fill="#040506"/>
      </g>
    </g>
    <rect id="Rectangle_847" data-name="Rectangle 847" width="75" height="75" transform="translate(385.39 338.918)" fill="none"/>
  </g>
</svg>
