<svg xmlns="http://www.w3.org/2000/svg" xmlns:xlink="http://www.w3.org/1999/xlink" width="75" height="75" viewBox="0 0 75 75">
  <defs>
    <clipPath id="clip-path">
      <path id="Path_3355" data-name="Path 3355" d="M402.65,271.666s-.585,4.639,2.677,5.692l1.338-.2-.26-5.484Z" fill="none"/>
    </clipPath>
  </defs>
  <g id="Group_4046" data-name="Group 4046" transform="translate(-382.36 -242.887)">
    <g id="Group_4045" data-name="Group 4045">
      <g id="Group_4033" data-name="Group 4033">
        <path id="Path_3349" data-name="Path 3349" d="M453.44,256.012H386.281a3.858,3.858,0,0,0-3.921,3.921v40.909a3.857,3.857,0,0,0,3.921,3.92H453.44a3.856,3.856,0,0,0,3.92-3.92V259.933A3.857,3.857,0,0,0,453.44,256.012Zm-29.318,6.819H415.6a1.705,1.705,0,0,1,0-3.41h8.523a1.705,1.705,0,0,1,0,3.41Z" fill="#57b093"/>
      </g>
      <g id="Group_4034" data-name="Group 4034">
        <rect id="Rectangle_836" data-name="Rectangle 836" width="0.682" height="23.523" transform="translate(418.667 270.16)" fill="#fff"/>
      </g>
      <g id="Group_4039" data-name="Group 4039">
        <g id="Group_4035" data-name="Group 4035">
          <path id="Path_3350" data-name="Path 3350" d="M446.963,282.681H426.508a.589.589,0,0,1,0-1.179h20.455a.589.589,0,1,1,0,1.179Z" fill="#040506"/>
        </g>
        <g id="Group_4036" data-name="Group 4036">
          <path id="Path_3351" data-name="Path 3351" d="M446.963,276.283H426.508a1.179,1.179,0,0,1,0-2.359h20.455a1.179,1.179,0,0,1,0,2.359Z" fill="#040506"/>
        </g>
        <g id="Group_4037" data-name="Group 4037">
          <path id="Path_3352" data-name="Path 3352" d="M446.963,286.431H426.508a.589.589,0,0,1,0-1.179h20.455a.589.589,0,1,1,0,1.179Z" fill="#040506"/>
        </g>
        <g id="Group_4038" data-name="Group 4038">
          <path id="Path_3353" data-name="Path 3353" d="M440.827,290.181H426.508a.589.589,0,0,1,0-1.179h14.319a.589.589,0,0,1,0,1.179Z" fill="#040506"/>
        </g>
      </g>
      <g id="Group_4040" data-name="Group 4040">
        <path id="Path_3354" data-name="Path 3354" d="M453.44,303.887H386.281a2.845,2.845,0,0,1-2.875-2.875V260.1a2.844,2.844,0,0,1,2.875-2.874H453.44a2.844,2.844,0,0,1,2.875,2.874v40.909A2.845,2.845,0,0,1,453.44,303.887Zm-67.159-46.364a2.553,2.553,0,0,0-2.58,2.58v40.909a2.552,2.552,0,0,0,2.58,2.58H453.44a2.552,2.552,0,0,0,2.58-2.58V260.1a2.553,2.553,0,0,0-2.58-2.58Z" fill="#fff"/>
      </g>
      <g id="Group_2533" data-name="Group 2533">
        <g id="Group_2532" data-name="Group 2532">
          <path id="Path_2398" data-name="Path 2398" d="M393.891,288a14.071,14.071,0,0,0-1.417,1.378,15.439,15.439,0,0,0,10.37,2.573c4.821-.584,5.2-2.157,5.2-2.157-.585-.545-2.1-1.624-2.1-1.624" fill="#b5b4b4"/>
          <path id="Path_2399" data-name="Path 2399" d="M393.891,288a9.173,9.173,0,0,1,2.157-1.248c1.234-.494,1-1.066,1.3-3.665a7.936,7.936,0,0,1-1.365-2.65,2.337,2.337,0,0,1-1.273-2.261c-.078-1.819.65-1.507.65-1.507a5.426,5.426,0,0,1,1.988-4.834c2.482-2.093,6.485.025,7.3,1.442a5.132,5.132,0,0,1,.689,4.068c-.377,1.325.338,2.624-.766,4.756s-1.7,2.417-2.676,2.807l.038,1.118a.908.908,0,0,0,.559.637c.468.17,3.457,1.508,3.457,1.508-1.092.013-2.209.792-6.264.792s-5.8-.961-5.8-.961" fill="#cdcdcd"/>
          <path id="Path_2400" data-name="Path 2400" d="M401.908,286.025a5.111,5.111,0,0,1-3.417-2.364,4.916,4.916,0,0,0,3.391,1.234Z" fill="#777"/>
          <path id="Path_2401" data-name="Path 2401" d="M395.346,276.669s1.091.273,1.326,1.936h.156l-.026-1.728Z" fill="#292929"/>
          <g id="Group_2531" data-name="Group 2531">
            <g id="Group_2525" data-name="Group 2525">
              <g id="Group_2524" data-name="Group 2524">
                <g id="Group_2523" data-name="Group 2523">
                  <g id="Group_2522" data-name="Group 2522">
                    <g id="Group_3981" data-name="Group 3981">
                      <g id="Group_4042" data-name="Group 4042">
                        <g id="Group_4041" data-name="Group 4041" clip-path="url(#clip-path)">
                          <g id="Group_3980" data-name="Group 3980">
                            <g id="Group_2521" data-name="Group 2521">
                              <path id="Path_2402" data-name="Path 2402" d="M393.891,288a9.173,9.173,0,0,1,2.157-1.248c1.234-.494,1-1.066,1.3-3.665a7.936,7.936,0,0,1-1.365-2.65,2.337,2.337,0,0,1-1.273-2.261c-.078-1.819.65-1.507.65-1.507a5.427,5.427,0,0,1,1.988-4.834c2.482-2.093,6.485.025,7.3,1.442a5.132,5.132,0,0,1,.689,4.068c-.377,1.325.338,2.624-.766,4.756s-1.7,2.417-2.676,2.807l.038,1.118a.908.908,0,0,0,.559.637,17.1,17.1,0,0,1,3.457,1.508,20.31,20.31,0,0,1-6.264.792c-4.055,0-5.8-.961-5.8-.961" fill="#232323"/>
                            </g>
                          </g>
                        </g>
                      </g>
                    </g>
                  </g>
                </g>
              </g>
            </g>
            <g id="Group_2530" data-name="Group 2530">
              <g id="Group_2529" data-name="Group 2529">
                <g id="Group_2528" data-name="Group 2528">
                  <g id="Group_2527" data-name="Group 2527">
                    <g id="Group_3983" data-name="Group 3983">
                      <g id="Group_4044" data-name="Group 4044">
                        <g id="Group_4043" data-name="Group 4043" clip-path="url(#clip-path)">
                          <g id="Group_3982" data-name="Group 3982">
                            <g id="Group_2526" data-name="Group 2526">
                              <path id="Path_2404" data-name="Path 2404" d="M401.908,286.025a5.11,5.11,0,0,1-3.417-2.365,4.914,4.914,0,0,0,3.391,1.235Z" fill="#565656"/>
                            </g>
                          </g>
                        </g>
                      </g>
                    </g>
                  </g>
                </g>
              </g>
            </g>
          </g>
          <path id="Path_2406" data-name="Path 2406" d="M395.346,276.669a5.428,5.428,0,0,1,1.988-4.834c2.482-2.092,6.485.026,7.3,1.442a6.054,6.054,0,0,1-2.729,3.392c-2.195,1.312-6.562,0-6.562,0" fill="#292929"/>
          <path id="Path_2407" data-name="Path 2407" d="M402.467,286.662a33.872,33.872,0,0,1,3.457,1.508,20.307,20.307,0,0,1-6.263.792c-4.028,0-5.783-.974-5.783-.974a9.193,9.193,0,0,1,2.157-1.248s2.677,2.287,5.393,2.17c2.742-.1,1.039-2.248,1.039-2.248" fill="#8d8c8c"/>
        </g>
      </g>
    </g>
    <rect id="Rectangle_837" data-name="Rectangle 837" width="75" height="75" transform="translate(382.36 242.887)" fill="none"/>
  </g>
</svg>
