<svg xmlns="http://www.w3.org/2000/svg" width="75" height="75" viewBox="0 0 75 75">
  <g id="Group_4088" data-name="Group 4088" transform="translate(-667.55 -243.76)">
    <g id="Group_4087" data-name="Group 4087">
      <g id="Group_4081" data-name="Group 4081">
        <g id="Group_4073" data-name="Group 4073">
          <g id="Group_4068" data-name="Group 4068">
            <path id="Path_3369" data-name="Path 3369" d="M703.848,318.76a.979.979,0,0,1-.132-.009.875.875,0,0,1-.733-.995l8.159-53.963a.872.872,0,0,1,.863-.743h5.245a.873.873,0,0,1,.862.734l8.625,53.381a.873.873,0,0,1-1.724.279L716.506,264.8h-3.749l-8.047,53.221A.873.873,0,0,1,703.848,318.76Z" fill="#292929"/>
          </g>
          <g id="Group_4069" data-name="Group 4069">
            <path id="Path_3370" data-name="Path 3370" d="M730.187,318.76H699.651a.873.873,0,1,1,0-1.746h30.536a.873.873,0,1,1,0,1.746Z" fill="#292929"/>
          </g>
          <g id="Group_4070" data-name="Group 4070">
            <path id="Path_3371" data-name="Path 3371" d="M703.847,318.76a.873.873,0,0,1-.5-1.589l10.139-7.1-7.578-5.343a.874.874,0,0,1-.072-1.37l7.8-6.844-5.934-5.126a.871.871,0,0,1-.026-1.3l5.735-5.37-4.084-3.594a.873.873,0,0,1,.577-1.529h9.324a.873.873,0,0,1,.6,1.511l-3.815,3.572,6.126,5.392a.872.872,0,0,1,0,1.312l-5.838,5.12,7.931,6.85a.872.872,0,0,1-.07,1.376l-7.638,5.346,8.573,6.045a.874.874,0,1,1-1.007,1.428L715,311.144,704.347,318.6A.872.872,0,0,1,703.847,318.76Zm3.973-14.817,7.186,5.067,7.235-5.065-7.267-6.275Zm1.761-13.239,5.384,4.65,5.274-4.625-5.508-4.846Zm2.641-9.357,2.473,2.177,2.325-2.177Z" fill="#292929"/>
          </g>
          <g id="Group_4071" data-name="Group 4071">
            <path id="Path_3372" data-name="Path 3372" d="M714.569,281.347a.873.873,0,0,1-.873-.873V251.919a.874.874,0,0,1,1.747,0v28.555A.873.873,0,0,1,714.569,281.347Z" fill="#292929"/>
          </g>
          <g id="Group_4072" data-name="Group 4072">
            <circle id="Ellipse_516" data-name="Ellipse 516" cx="2.564" cy="2.564" r="2.564" transform="translate(711.889 255.415)" fill="#f7f8f9"/>
            <path id="Path_3373" data-name="Path 3373" d="M714.453,261.417a3.437,3.437,0,1,1,3.437-3.437A3.441,3.441,0,0,1,714.453,261.417Zm0-5.128a1.691,1.691,0,1,0,1.69,1.691A1.692,1.692,0,0,0,714.453,256.289Z" fill="#292929"/>
          </g>
        </g>
        <g id="Group_4080" data-name="Group 4080">
          <g id="Group_4074" data-name="Group 4074">
            <path id="Path_3374" data-name="Path 3374" d="M699.884,256.7a12.226,12.226,0,0,1,3.846-8.857l-1.4-1.516A13.979,13.979,0,0,0,697.9,256.7a14.633,14.633,0,0,0,4.429,10.374l1.4-1.516A12.227,12.227,0,0,1,699.884,256.7Z" fill="#57b093"/>
          </g>
          <g id="Group_4075" data-name="Group 4075">
            <path id="Path_3375" data-name="Path 3375" d="M729.255,256.7a12.227,12.227,0,0,1-3.846,8.858l1.4,1.516a13.911,13.911,0,0,0,4.429-10.257,14.629,14.629,0,0,0-4.429-10.373l-1.4,1.515A11.771,11.771,0,0,1,729.255,256.7Z" fill="#57b093"/>
          </g>
          <g id="Group_4076" data-name="Group 4076">
            <path id="Path_3376" data-name="Path 3376" d="M730.653,243.877l-1.4,1.4a15.758,15.758,0,0,1,5.011,11.422,15.318,15.318,0,0,1-5.011,11.422l1.4,1.516a17.62,17.62,0,0,0,0-25.758Z" fill="#57b093"/>
          </g>
          <g id="Group_4077" data-name="Group 4077">
            <path id="Path_3377" data-name="Path 3377" d="M705.245,256.7a8.469,8.469,0,0,1,2.564-5.944l-1.4-1.515a10.156,10.156,0,0,0,0,14.919l1.4-1.515A8.47,8.47,0,0,1,705.245,256.7Z" fill="#57b093"/>
          </g>
          <g id="Group_4078" data-name="Group 4078">
            <path id="Path_3378" data-name="Path 3378" d="M698.6,269.635l1.4-1.515a15.758,15.758,0,0,1-5.011-11.422A15.322,15.322,0,0,1,700,245.276l-1.4-1.516a17.888,17.888,0,0,0-5.595,12.821A17.572,17.572,0,0,0,698.6,269.635Z" fill="#57b093"/>
          </g>
          <g id="Group_4079" data-name="Group 4079">
            <path id="Path_3379" data-name="Path 3379" d="M723.893,256.7a8.47,8.47,0,0,1-2.564,5.945l1.4,1.515a10.158,10.158,0,0,0,0-14.919l-1.4,1.515A8.01,8.01,0,0,1,723.893,256.7Z" fill="#57b093"/>
          </g>
        </g>
      </g>
      <g id="Group_4086" data-name="Group 4086">
        <g id="Group_4082" data-name="Group 4082">
          <path id="Path_3380" data-name="Path 3380" d="M692.1,314.491H677.131a3.231,3.231,0,0,1-3.279-3.279V277.077a3.23,3.23,0,0,1,3.279-3.279H692.1a3.23,3.23,0,0,1,3.279,3.279v34.135A3.339,3.339,0,0,1,692.1,314.491Z" fill="#040506"/>
        </g>
        <g id="Group_4083" data-name="Group 4083">
          <rect id="Rectangle_844" data-name="Rectangle 844" width="16.731" height="32.453" transform="translate(676.206 277.245)" fill="#57b093"/>
        </g>
        <g id="Group_4084" data-name="Group 4084">
          <circle id="Ellipse_517" data-name="Ellipse 517" cx="1.009" cy="1.009" r="1.009" transform="translate(683.521 310.959)" fill="#353637"/>
        </g>
        <g id="Group_4085" data-name="Group 4085">
          <rect id="Rectangle_845" data-name="Rectangle 845" width="4.792" height="0.42" transform="translate(682.175 275.311)" fill="#353637"/>
        </g>
      </g>
    </g>
    <rect id="Rectangle_846" data-name="Rectangle 846" width="75" height="75" transform="translate(667.55 243.76)" fill="none"/>
  </g>
</svg>
