<svg xmlns="http://www.w3.org/2000/svg" width="75" height="75" viewBox="0 0 75 75">
  <g id="Group_4095" data-name="Group 4095" transform="translate(-481.636 -338.489)">
    <g id="Group_4094" data-name="Group 4094">
      <path id="Path_3385" data-name="Path 3385" d="M496.235,385.627h38.3a2.946,2.946,0,1,0,0-5.892h-38.3a2.946,2.946,0,0,0,0,5.892Z" fill="#57b093"/>
      <path id="Path_3386" data-name="Path 3386" d="M496.235,390.046v8.839a1.473,1.473,0,0,0,2.946,0v-8.839a1.473,1.473,0,0,0-2.946,0Z" fill="#57b093"/>
      <path id="Path_3387" data-name="Path 3387" d="M502.127,390.046v8.839a1.473,1.473,0,0,0,2.947,0v-8.839a1.473,1.473,0,0,0-2.947,0Z" fill="#57b093"/>
      <path id="Path_3388" data-name="Path 3388" d="M508.02,390.046v8.839a1.473,1.473,0,0,0,2.946,0v-8.839a1.473,1.473,0,0,0-2.946,0Z" fill="#57b093"/>
      <path id="Path_3389" data-name="Path 3389" d="M513.912,390.046v8.839a1.473,1.473,0,1,0,2.946,0v-8.839a1.473,1.473,0,1,0-2.946,0Z" fill="#57b093"/>
      <path id="Path_3390" data-name="Path 3390" d="M519.8,390.046v8.839a1.473,1.473,0,0,0,2.947,0v-8.839a1.473,1.473,0,0,0-2.947,0Z" fill="#57b093"/>
      <path id="Path_3391" data-name="Path 3391" d="M516.858,359.112v-8.839h14.731l-5.892-5.892,5.892-5.892h-16.2a1.391,1.391,0,0,0-1.473,1.473v19.15c-10.017.589-17.677,8.249-17.677,17.677h38.3C534.535,367.361,526.875,359.995,516.858,359.112Z" fill="#57b093"/>
      <path id="Path_3392" data-name="Path 3392" d="M524.044,403.3H496.235a2.783,2.783,0,0,0-2.946,2.946V409.2h34.916Z" fill="#57b093"/>
      <g id="Group_4093" data-name="Group 4093">
        <path id="Path_3393" data-name="Path 3393" d="M544.982,390.943a.92.92,0,0,0-.183-.6,12.105,12.105,0,0,0-3.648-1.937,21.61,21.61,0,0,0-6.175-1.143l-.246-.011c0-.008-.256.013-.256.006a6.009,6.009,0,0,0-.984-.036c-.72.011-.72.011-1.244.012a23.521,23.521,0,0,0-5.454.86,13.748,13.748,0,0,0-4.444,2.105.813.813,0,0,0-.359.746c.017,2.077.007,4.154.009,6.231a15.973,15.973,0,0,0,5.782,12.568,26.973,26.973,0,0,0,5.39,3.576l.282.149a.067.067,0,0,0,.074.006c.13-.072.206-.117.285-.158A25.7,25.7,0,0,0,539.9,409.1a15.718,15.718,0,0,0,4.8-8.742,22.137,22.137,0,0,0,.283-4.034C544.973,394.465,544.976,392.806,544.982,390.943Zm-1.708,5.984a18.816,18.816,0,0,1-.24,3.435,13.4,13.4,0,0,1-4.087,7.444,21.873,21.873,0,0,1-5.185,3.591c-.067.035-.132.073-.242.134a.056.056,0,0,1-.063,0l-.241-.127a23.009,23.009,0,0,1-4.589-3.045,13.6,13.6,0,0,1-4.924-10.7c0-1.769.007-3.538-.007-5.306a.692.692,0,0,1,.306-.636,11.7,11.7,0,0,1,3.784-1.791,19.936,19.936,0,0,1,4.644-.733c.446,0,.446,0,1.059-.01a5.237,5.237,0,0,1,.838.03c0,.006.218-.011.218-.005l.21.01a18.394,18.394,0,0,1,5.258.973,10.293,10.293,0,0,1,3.106,1.649.787.787,0,0,1,.157.507C543.27,393.927,543.267,395.34,543.274,396.927Z" fill="#040506"/>
        <path id="Path_3394" data-name="Path 3394" d="M542.435,392.337a9.584,9.584,0,0,0-2.885-1.533,17.115,17.115,0,0,0-4.885-.9l-.2-.009c0-.006-.2.011-.2.005a4.834,4.834,0,0,0-.778-.028c-.569.009-.569.009-.984.009a18.637,18.637,0,0,0-4.315.681,10.853,10.853,0,0,0-3.515,1.665.643.643,0,0,0-.284.59c.013,1.643.005,3.286.007,4.93a12.632,12.632,0,0,0,4.574,9.941,21.375,21.375,0,0,0,4.264,2.83l.223.117a.051.051,0,0,0,.059,0c.1-.056.163-.092.225-.124a20.339,20.339,0,0,0,4.816-3.337,12.44,12.44,0,0,0,3.8-6.915,17.494,17.494,0,0,0,.224-3.192c-.007-1.474,0-2.786,0-4.26A.728.728,0,0,0,542.435,392.337Z" fill="#040506"/>
      </g>
    </g>
    <rect id="Rectangle_848" data-name="Rectangle 848" width="75" height="75" transform="translate(481.636 338.489)" fill="none"/>
  </g>
</svg>
