<svg xmlns="http://www.w3.org/2000/svg" width="75" height="75" viewBox="0 0 75 75">
  <g id="Group_4112" data-name="Group 4112" transform="translate(-663.965 -337.659)">
    <g id="Group_4111" data-name="Group 4111">
      <path id="Path_3401" data-name="Path 3401" d="M684.527,361.284V342.045a4.386,4.386,0,0,1,4.386-4.386h45.015a4.386,4.386,0,0,1,4.386,4.386v66.228a4.386,4.386,0,0,1-4.386,4.386H688.913a4.386,4.386,0,0,1-4.386-4.386v-18.8" fill="#57b093"/>
      <g id="Group_4105" data-name="Group 4105">
        <path id="Path_3402" data-name="Path 3402" d="M729.474,367.38h-36.7a.469.469,0,0,1,0-.937h36.7a.469.469,0,1,1,0,.937Z" fill="#fff"/>
      </g>
      <g id="Group_4106" data-name="Group 4106">
        <path id="Path_3403" data-name="Path 3403" d="M729.474,373.4h-36.7a.469.469,0,0,1,0-.937h36.7a.469.469,0,1,1,0,.937Z" fill="#fff"/>
      </g>
      <g id="Group_4107" data-name="Group 4107">
        <path id="Path_3404" data-name="Path 3404" d="M707.553,398.053h-14.78a.469.469,0,0,1,0-.937h14.78a.469.469,0,1,1,0,.937Z" fill="#fff"/>
      </g>
      <g id="Group_4108" data-name="Group 4108">
        <path id="Path_3405" data-name="Path 3405" d="M721.908,405.811a8.61,8.61,0,1,1,8.61-8.61A8.62,8.62,0,0,1,721.908,405.811Zm0-16.456a7.846,7.846,0,1,0,7.846,7.846A7.855,7.855,0,0,0,721.908,389.355Z" fill="#fff"/>
      </g>
      <g id="Group_4109" data-name="Group 4109">
        <path id="Path_3406" data-name="Path 3406" d="M721.908,403.4a6.2,6.2,0,1,1,6.2-6.2A6.208,6.208,0,0,1,721.908,403.4Zm0-11.637a5.436,5.436,0,1,0,5.436,5.437A5.443,5.443,0,0,0,721.908,391.764Z" fill="#fff"/>
      </g>
      <g id="Group_4110" data-name="Group 4110">
        <path id="Path_3407" data-name="Path 3407" d="M728.991,350.926a.324.324,0,0,0-.332-.332h-5.5a.324.324,0,0,1-.332-.332v-5.5a.324.324,0,0,0-.332-.332h-2.561a.324.324,0,0,0-.332.332v5.5a.325.325,0,0,1-.333.332h-5.5a.324.324,0,0,0-.332.332v2.561a.324.324,0,0,0,.332.332h5.5a.325.325,0,0,1,.333.332v5.5a.324.324,0,0,0,.332.332h2.561a.324.324,0,0,0,.332-.332V354.2a.324.324,0,0,1,.332-.332h5.5a.325.325,0,0,0,.332-.332Z" fill="#fff"/>
      </g>
      <path id="Path_3408" data-name="Path 3408" d="M705.517,369.362c-.273-.865-.926-1.427-1.462-1.258-.437.138-.657.726-.575,1.4l-5.228.995a13.546,13.546,0,0,0-1.353-2.551l2.2-2.063c.25.233.553.316.735.182.224-.165.19-.6-.078-.96s-.67-.523-.891-.359c-.186.134-.2.449-.043.756L696.2,367a13.8,13.8,0,0,0-2.508-2.4l2.261-4.825c.64.25,1.263.181,1.505-.208.294-.476-.086-1.25-.856-1.725s-1.63-.48-1.929,0c-.242.389-.025.977.48,1.439l-3.32,4.16a13.647,13.647,0,0,0-2.807-1.09l.3-3c.341.013.622-.125.674-.346.061-.272-.25-.571-.692-.67s-.847.047-.908.32c-.047.225.152.467.467.6l-.99,2.846a13.653,13.653,0,0,0-2.538-.2l-1.12-5.2c.662-.191,1.116-.619,1.073-1.077-.052-.558-.826-.943-1.73-.856s-1.591.6-1.535,1.163c.043.458.571.8,1.254.856l-.125,5.323a13.622,13.622,0,0,0-3.032.891l-1.6-2.547c.277-.2.415-.48.316-.688-.121-.25-.549-.3-.956-.1s-.64.557-.518.808c.1.208.4.277.735.186l.964,2.85a13.751,13.751,0,0,0-2.227,1.474l-4.112-3.39c.4-.558.489-1.176.169-1.509-.39-.406-1.233-.225-1.886.4s-.869,1.462-.48,1.868c.316.333.943.268,1.514-.108l3.208,4.25a13.8,13.8,0,0,0-1.332,1.752l-2.763-1.2c.117-.324.074-.631-.125-.748-.242-.139-.623.06-.848.454s-.216.821.026.96c.2.116.489,0,.714-.26l2.408,1.812a13.711,13.711,0,0,0-1.349,3.883l-5.327.086c-.056-.683-.393-1.21-.847-1.258-.558-.056-1.081.627-1.176,1.531s.285,1.677.843,1.734c.458.047.89-.407,1.085-1.064l5.193,1.15a13.658,13.658,0,0,0,.056,1.626c.039.424.1.839.178,1.245l-2.837,1.021c-.138-.316-.38-.511-.6-.459-.273.065-.411.472-.307.913s.406.743.679.683c.224-.052.354-.333.341-.679l2.992-.333a13.594,13.594,0,0,0,.766,2.08l-4.294,3.152c-.441-.527-1.02-.761-1.418-.536-.489.277-.519,1.137-.074,1.924s1.2,1.2,1.691.925c.4-.225.493-.847.268-1.5l4.908-2.062a13.782,13.782,0,0,0,2.412,2.719l-1.582,2.565c-.3-.16-.614-.16-.757.017-.173.22-.026.623.324.9s.783.328.956.112c.143-.177.069-.484-.156-.744l2.136-2.127a13.684,13.684,0,0,0,3,1.652l-.943,5.245c-.683-.078-1.267.151-1.4.588-.164.536.407,1.184,1.272,1.448s1.7.043,1.863-.493c.134-.441-.225-.951-.834-1.271l2.136-4.86a13.616,13.616,0,0,0,2.456.316l.367,2.992c-.337.065-.579.259-.579.488,0,.281.367.506.821.5s.817-.229.817-.51c0-.23-.246-.42-.583-.48l.341-3c.212-.008.428-.026.64-.043a13.8,13.8,0,0,0,3.641-.852l2.862,4.493c-.553.406-.83.968-.626,1.383.242.506,1.1.593,1.915.2s1.28-1.12,1.033-1.626c-.2-.415-.812-.549-1.474-.367l-1.734-5.029a13.543,13.543,0,0,0,1.972-1.4l2.287,1.958c-.2.273-.255.584-.1.753.19.2.614.125.942-.182s.446-.722.26-.925c-.156-.169-.467-.143-.757.039l-1.768-2.439a13.749,13.749,0,0,0,2.3-3.066l5.085,1.592c-.16.665-.009,1.275.41,1.461.51.229,1.224-.255,1.6-1.081s.255-1.682-.255-1.911c-.42-.186-.973.1-1.362.67l-4.571-2.728a13.837,13.837,0,0,0,.74-3.3l3.005-.191c.043.342.225.6.454.61.281.013.523-.337.549-.791s-.182-.831-.463-.844c-.229-.012-.436.221-.514.558l-2.971-.532a13.527,13.527,0,0,0-.06-1.448,13.918,13.918,0,0,0-.281-1.751l4.855-2.188c.325.605.839.96,1.276.821C705.577,371.066,705.789,370.227,705.517,369.362Z" fill="#040506"/>
    </g>
    <rect id="Rectangle_852" data-name="Rectangle 852" width="75" height="75" transform="translate(663.965 337.659)" fill="none"/>
  </g>
</svg>
