<svg xmlns="http://www.w3.org/2000/svg" width="75" height="75" viewBox="0 0 75 75">
  <g id="Group_4067" data-name="Group 4067" transform="translate(-572.355 -242.887)">
    <g id="Group_4066" data-name="Group 4066">
      <g id="Group_4065" data-name="Group 4065">
        <path id="Path_3367" data-name="Path 3367" d="M609.855,304.762,589.022,287.6V242.887h41.667v44.75Zm25-35.916v15.333l10.292-8.333Zm-62.5,10.458v35.5l21.584-17.75Zm53.459,17.75,21.541,17.75V279.3Zm-40.959-28.208-10.291,6.875,10.291,8.333Zm26.334,40.25a2.169,2.169,0,0,1-2.667,0l-11.167-9.334-22.166,18.125h69.333l-22.167-18.166Z" fill="#57b093"/>
      </g>
      <path id="Path_3368" data-name="Path 3368" d="M616.967,282.734l-9.131-12.123H601.41v-2.229h9.056c3.046,0,4.883-1.772,4.946-4.752h-14v-2.154h13.978a4.5,4.5,0,0,0-4.883-4.292h-9.1v-2.228h20.644v2.228h-6.363a6.2,6.2,0,0,1,2.064,4.292h4.3v2.154h-4.267c-.2,4.2-2.864,6.834-7.043,6.975l9.21,12.129Z" fill="#040506"/>
    </g>
    <rect id="Rectangle_843" data-name="Rectangle 843" width="75" height="75" transform="translate(572.355 242.887)" fill="none"/>
  </g>
</svg>
