<svg xmlns="http://www.w3.org/2000/svg" width="75" height="75" viewBox="0 0 75 75">
  <g id="Group_4064" data-name="Group 4064" transform="translate(-477.125 -242.887)">
    <g id="Group_4063" data-name="Group 4063">
      <g id="Group_4047" data-name="Group 4047">
        <path id="Path_3357" data-name="Path 3357" d="M531.827,317.887H487.235V243.976h44.592a10.94,10.94,0,0,1,10.885,10.885v52.317A10.679,10.679,0,0,1,531.827,317.887Z" fill="#57816a"/>
      </g>
      <g id="Group_4048" data-name="Group 4048">
        <path id="Path_3358" data-name="Path 3358" d="M531.125,317.01H486.532V243.1h44.593a10.94,10.94,0,0,1,10.885,10.885V306.3A10.905,10.905,0,0,1,531.125,317.01Z" fill="#57b093"/>
      </g>
      <g id="Group_4049" data-name="Group 4049">
        <path id="Path_3359" data-name="Path 3359" d="M489.166,316.812a.21.21,0,0,1-.211-.211v-2.535a.211.211,0,0,1,.422,0V316.6A.211.211,0,0,1,489.166,316.812Zm0-5.069a.211.211,0,0,1-.211-.211V309a.211.211,0,0,1,.422,0v2.535A.212.212,0,0,1,489.166,311.743Zm0-5.069a.211.211,0,0,1-.211-.211v-2.535a.211.211,0,0,1,.422,0v2.535A.212.212,0,0,1,489.166,306.674Zm0-5.069a.211.211,0,0,1-.211-.211v-2.535a.211.211,0,0,1,.422,0v2.535A.212.212,0,0,1,489.166,301.605Zm0-5.069a.211.211,0,0,1-.211-.212V293.79a.211.211,0,0,1,.422,0v2.534A.212.212,0,0,1,489.166,296.536Zm0-5.07a.21.21,0,0,1-.211-.211v-2.534a.211.211,0,0,1,.422,0v2.534A.211.211,0,0,1,489.166,291.466Zm0-5.069a.21.21,0,0,1-.211-.211v-2.534a.211.211,0,1,1,.422,0v2.534A.211.211,0,0,1,489.166,286.4Zm0-5.069a.211.211,0,0,1-.211-.211v-2.535a.211.211,0,0,1,.422,0v2.535A.212.212,0,0,1,489.166,281.328Zm0-5.069a.21.21,0,0,1-.211-.211v-2.535a.211.211,0,0,1,.422,0v2.535A.211.211,0,0,1,489.166,276.259Zm0-5.069a.211.211,0,0,1-.211-.211v-2.535a.211.211,0,0,1,.422,0v2.535A.212.212,0,0,1,489.166,271.19Zm0-5.069a.211.211,0,0,1-.211-.211v-2.535a.211.211,0,0,1,.422,0v2.535A.212.212,0,0,1,489.166,266.121Zm0-5.069a.211.211,0,0,1-.211-.211v-2.535a.211.211,0,0,1,.422,0v2.535A.212.212,0,0,1,489.166,261.052Zm0-5.069a.211.211,0,0,1-.211-.212v-2.534a.211.211,0,0,1,.422,0v2.534A.212.212,0,0,1,489.166,255.983Zm0-5.07a.21.21,0,0,1-.211-.211v-2.534a.211.211,0,1,1,.422,0V250.7A.211.211,0,0,1,489.166,250.913Zm0-5.069a.21.21,0,0,1-.211-.211V243.1a.211.211,0,1,1,.422,0v2.534A.211.211,0,0,1,489.166,245.844Z" fill="#e8e9eb"/>
      </g>
      <g id="Group_4058" data-name="Group 4058">
        <g id="Group_4050" data-name="Group 4050">
          <path id="Path_3360" data-name="Path 3360" d="M514.622,292.853a15.169,15.169,0,1,1,15.17-15.169A15.186,15.186,0,0,1,514.622,292.853Zm0-29.494a14.325,14.325,0,1,0,14.325,14.325A14.342,14.342,0,0,0,514.622,263.359Z" fill="#fff"/>
        </g>
        <g id="Group_4051" data-name="Group 4051">
          <rect id="Rectangle_838" data-name="Rectangle 838" width="0.845" height="29.494" transform="translate(514.2 262.937)" fill="#fff"/>
        </g>
        <g id="Group_4056" data-name="Group 4056">
          <g id="Group_4052" data-name="Group 4052">
            <path id="Path_3361" data-name="Path 3361" d="M514.017,292.593c-5.515-4.137-8.568-9.413-8.6-14.857-.027-5.5,3.024-10.872,8.592-15.135l.514.671c-5.353,4.1-8.287,9.234-8.262,14.459.026,5.174,2.959,10.212,8.258,14.187Z" fill="#fff"/>
          </g>
          <g id="Group_4053" data-name="Group 4053">
            <path id="Path_3362" data-name="Path 3362" d="M515.051,292.593l-.507-.675c5.3-3.975,8.232-9.013,8.258-14.187.026-5.225-2.908-10.36-8.261-14.459l.513-.671c5.569,4.263,8.62,9.638,8.593,15.135C523.62,283.18,520.567,288.456,515.051,292.593Z" fill="#fff"/>
          </g>
          <g id="Group_4054" data-name="Group 4054">
            <path id="Path_3363" data-name="Path 3363" d="M514.6,286.884c-5.471,0-10.817-3.049-15.062-8.592l.671-.514c4.081,5.33,9.189,8.261,14.391,8.261h.069c5.173-.025,10.211-2.958,14.186-8.258l.676.508c-4.137,5.515-9.414,8.568-14.858,8.6Z" fill="#fff"/>
          </g>
          <g id="Group_4055" data-name="Group 4055">
            <path id="Path_3364" data-name="Path 3364" d="M500.21,277.765l-.671-.513c4.245-5.544,9.591-8.593,15.062-8.593h.073c5.444.027,10.721,3.08,14.858,8.6l-.676.507c-3.975-5.3-9.013-8.232-14.186-8.258H514.6C509.4,269.5,504.291,272.435,500.21,277.765Z" fill="#fff"/>
          </g>
        </g>
        <g id="Group_4057" data-name="Group 4057">
          <rect id="Rectangle_839" data-name="Rectangle 839" width="29.319" height="0.845" transform="translate(500.051 277.262)" fill="#fff"/>
        </g>
      </g>
      <g id="Group_4059" data-name="Group 4059">
        <path id="Path_3365" data-name="Path 3365" d="M514.622,295.662A17.979,17.979,0,1,1,532.6,277.684,18,18,0,0,1,514.622,295.662Zm0-35.112a17.134,17.134,0,1,0,17.134,17.134A17.154,17.154,0,0,0,514.622,260.55Z" fill="#fff"/>
      </g>
      <g id="Group_4060" data-name="Group 4060">
        <rect id="Rectangle_840" data-name="Rectangle 840" width="28.616" height="2.282" transform="translate(500.577 300.682)" fill="#040506"/>
      </g>
      <g id="Group_4061" data-name="Group 4061">
        <rect id="Rectangle_841" data-name="Rectangle 841" width="15.449" height="2.282" transform="translate(507.249 304.545)" fill="#040506"/>
      </g>
      <g id="Group_4062" data-name="Group 4062">
        <path id="Path_3366" data-name="Path 3366" d="M486.708,317.01l.878.878v-.878Z" fill="#57816a"/>
      </g>
    </g>
    <rect id="Rectangle_842" data-name="Rectangle 842" width="75" height="75" transform="translate(477.124 242.887)" fill="none"/>
  </g>
</svg>
