<svg xmlns="http://www.w3.org/2000/svg" width="75" height="75" viewBox="0 0 75 75">
  <g id="Group_2844" data-name="Group 2844" transform="translate(-688 -3505)">
    <rect id="Rectangle_542" data-name="Rectangle 542" width="75" height="75" transform="translate(688 3505)" fill="none"/>
    <g id="Group_2287" data-name="Group 2287" transform="translate(-50 -6.234)">
      <g id="Group_2285" data-name="Group 2285" transform="translate(784.249 3531.234)">
        <line id="Line_19" data-name="Line 19" y2="5.776" transform="translate(14.327 24.435)" fill="none" stroke="#4e4d4d" stroke-linecap="round" stroke-linejoin="round" stroke-width="1.5"/>
        <ellipse id="Ellipse_64" data-name="Ellipse 64" cx="1.568" cy="1.568" rx="1.568" ry="1.568" transform="translate(12.759 30.686)" fill="none" stroke="#4e4d4d" stroke-linecap="round" stroke-linejoin="round" stroke-width="1.5"/>
        <g id="Group_534" data-name="Group 534" transform="translate(0 0)">
          <path id="Path_331" data-name="Path 331" d="M-636.881-220.288a3.782,3.782,0,0,0-3.767,3.767,3.782,3.782,0,0,0,3.767,3.767h21.12a3.781,3.781,0,0,0,3.767-3.767,3.782,3.782,0,0,0-3.767-3.767Z" transform="translate(640.648 220.288)" fill="#d6d6d8"/>
          <ellipse id="Ellipse_65" data-name="Ellipse 65" cx="1.05" cy="1.05" rx="1.05" ry="1.05" transform="translate(2.717 2.655)" fill="#fff"/>
          <ellipse id="Ellipse_66" data-name="Ellipse 66" cx="1.05" cy="1.05" rx="1.05" ry="1.05" transform="translate(6.793 2.655)" fill="#fff"/>
          <ellipse id="Ellipse_67" data-name="Ellipse 67" cx="1.05" cy="1.05" rx="1.05" ry="1.05" transform="translate(10.869 2.655)" fill="#fff"/>
        </g>
        <g id="Group_535" data-name="Group 535" transform="translate(0 8.831)">
          <path id="Path_332" data-name="Path 332" d="M-636.881-203.961a3.782,3.782,0,0,0-3.767,3.767,3.743,3.743,0,0,0,3.767,3.767h21.12a3.782,3.782,0,0,0,3.767-3.767,3.742,3.742,0,0,0-3.767-3.767Z" transform="translate(640.648 203.961)" fill="#d6d6d8"/>
          <ellipse id="Ellipse_68" data-name="Ellipse 68" cx="1.05" cy="1.05" rx="1.05" ry="1.05" transform="translate(2.717 2.717)" fill="#fff"/>
          <ellipse id="Ellipse_69" data-name="Ellipse 69" cx="1.05" cy="1.05" rx="1.05" ry="1.05" transform="translate(6.793 2.717)" fill="#fff"/>
          <ellipse id="Ellipse_70" data-name="Ellipse 70" cx="1.05" cy="1.05" rx="1.05" ry="1.05" transform="translate(10.869 2.717)" fill="#fff"/>
        </g>
        <g id="Group_536" data-name="Group 536" transform="translate(0 17.662)">
          <path id="Path_333" data-name="Path 333" d="M-636.881-187.634a3.782,3.782,0,0,0-3.767,3.767,3.743,3.743,0,0,0,3.767,3.767h21.12a3.782,3.782,0,0,0,3.767-3.767,3.742,3.742,0,0,0-3.767-3.767Z" transform="translate(640.648 187.634)" fill="#d6d6d8"/>
          <ellipse id="Ellipse_71" data-name="Ellipse 71" cx="1.05" cy="1.05" rx="1.05" ry="1.05" transform="translate(2.717 2.717)" fill="#fff"/>
          <ellipse id="Ellipse_72" data-name="Ellipse 72" cx="1.05" cy="1.05" rx="1.05" ry="1.05" transform="translate(6.793 2.717)" fill="#fff"/>
          <ellipse id="Ellipse_73" data-name="Ellipse 73" cx="1.05" cy="1.05" rx="1.05" ry="1.05" transform="translate(10.869 2.717)" fill="#fff"/>
        </g>
      </g>
      <g id="Group_2286" data-name="Group 2286" transform="translate(738 3531.234)">
        <line id="Line_19-2" data-name="Line 19" y2="5.776" transform="translate(14.327 24.435)" fill="none" stroke="#4e4d4d" stroke-linecap="round" stroke-linejoin="round" stroke-width="1.5"/>
        <ellipse id="Ellipse_64-2" data-name="Ellipse 64" cx="1.568" cy="1.568" rx="1.568" ry="1.568" transform="translate(12.759 30.686)" fill="none" stroke="#4e4d4d" stroke-linecap="round" stroke-linejoin="round" stroke-width="1.5"/>
        <g id="Group_534-2" data-name="Group 534" transform="translate(0 0)">
          <path id="Path_331-2" data-name="Path 331" d="M-636.881-220.288a3.782,3.782,0,0,0-3.767,3.767,3.782,3.782,0,0,0,3.767,3.767h21.12a3.781,3.781,0,0,0,3.767-3.767,3.782,3.782,0,0,0-3.767-3.767Z" transform="translate(640.648 220.288)" fill="#d6d6d8"/>
          <ellipse id="Ellipse_65-2" data-name="Ellipse 65" cx="1.05" cy="1.05" rx="1.05" ry="1.05" transform="translate(2.717 2.655)" fill="#fff"/>
          <ellipse id="Ellipse_66-2" data-name="Ellipse 66" cx="1.05" cy="1.05" rx="1.05" ry="1.05" transform="translate(6.793 2.655)" fill="#fff"/>
          <ellipse id="Ellipse_67-2" data-name="Ellipse 67" cx="1.05" cy="1.05" rx="1.05" ry="1.05" transform="translate(10.869 2.655)" fill="#fff"/>
        </g>
        <g id="Group_535-2" data-name="Group 535" transform="translate(0 8.831)">
          <path id="Path_332-2" data-name="Path 332" d="M-636.881-203.961a3.782,3.782,0,0,0-3.767,3.767,3.743,3.743,0,0,0,3.767,3.767h21.12a3.782,3.782,0,0,0,3.767-3.767,3.742,3.742,0,0,0-3.767-3.767Z" transform="translate(640.648 203.961)" fill="#d6d6d8"/>
          <ellipse id="Ellipse_68-2" data-name="Ellipse 68" cx="1.05" cy="1.05" rx="1.05" ry="1.05" transform="translate(2.717 2.717)" fill="#fff"/>
          <ellipse id="Ellipse_69-2" data-name="Ellipse 69" cx="1.05" cy="1.05" rx="1.05" ry="1.05" transform="translate(6.793 2.717)" fill="#fff"/>
          <ellipse id="Ellipse_70-2" data-name="Ellipse 70" cx="1.05" cy="1.05" rx="1.05" ry="1.05" transform="translate(10.869 2.717)" fill="#fff"/>
        </g>
        <g id="Group_536-2" data-name="Group 536" transform="translate(0 17.662)">
          <path id="Path_333-2" data-name="Path 333" d="M-636.881-187.634a3.782,3.782,0,0,0-3.767,3.767,3.743,3.743,0,0,0,3.767,3.767h21.12a3.782,3.782,0,0,0,3.767-3.767,3.742,3.742,0,0,0-3.767-3.767Z" transform="translate(640.648 187.634)" fill="#d6d6d8"/>
          <ellipse id="Ellipse_71-2" data-name="Ellipse 71" cx="1.05" cy="1.05" rx="1.05" ry="1.05" transform="translate(2.717 2.717)" fill="#fff"/>
          <ellipse id="Ellipse_72-2" data-name="Ellipse 72" cx="1.05" cy="1.05" rx="1.05" ry="1.05" transform="translate(6.793 2.717)" fill="#fff"/>
          <ellipse id="Ellipse_73-2" data-name="Ellipse 73" cx="1.05" cy="1.05" rx="1.05" ry="1.05" transform="translate(10.869 2.717)" fill="#fff"/>
        </g>
      </g>
      <g id="Group_2284" data-name="Group 2284" transform="translate(756.92 3533.849)">
        <line id="Line_19-3" data-name="Line 19" y2="7.483" transform="translate(18.562 31.658)" fill="none" stroke="#4e4d4d" stroke-linecap="round" stroke-linejoin="round" stroke-width="1.5"/>
        <circle id="Ellipse_64-3" data-name="Ellipse 64" cx="2.031" cy="2.031" r="2.031" transform="translate(16.531 39.755)" fill="none" stroke="#4e4d4d" stroke-linecap="round" stroke-linejoin="round" stroke-width="1.5"/>
        <g id="Group_534-3" data-name="Group 534" transform="translate(0 0)">
          <path id="Path_331-3" data-name="Path 331" d="M-635.767-220.288a4.9,4.9,0,0,0-4.881,4.881,4.9,4.9,0,0,0,4.881,4.88h27.362a4.9,4.9,0,0,0,4.88-4.88,4.9,4.9,0,0,0-4.88-4.881Z" transform="translate(640.648 220.288)" fill="#68b699"/>
          <circle id="Ellipse_65-3" data-name="Ellipse 65" cx="1.36" cy="1.36" r="1.36" transform="translate(3.521 3.44)" fill="#fff"/>
          <circle id="Ellipse_66-3" data-name="Ellipse 66" cx="1.36" cy="1.36" r="1.36" transform="translate(8.801 3.44)" fill="#fff"/>
          <circle id="Ellipse_67-3" data-name="Ellipse 67" cx="1.36" cy="1.36" r="1.36" transform="translate(14.081 3.44)" fill="#fff"/>
        </g>
        <g id="Group_535-3" data-name="Group 535" transform="translate(0 11.441)">
          <path id="Path_332-3" data-name="Path 332" d="M-635.767-203.961a4.9,4.9,0,0,0-4.881,4.881,4.849,4.849,0,0,0,4.881,4.88h27.362a4.9,4.9,0,0,0,4.88-4.88,4.849,4.849,0,0,0-4.88-4.881Z" transform="translate(640.648 203.961)" fill="#68b699"/>
          <circle id="Ellipse_68-3" data-name="Ellipse 68" cx="1.36" cy="1.36" r="1.36" transform="translate(3.521 3.52)" fill="#fff"/>
          <circle id="Ellipse_69-3" data-name="Ellipse 69" cx="1.36" cy="1.36" r="1.36" transform="translate(8.801 3.52)" fill="#fff"/>
          <circle id="Ellipse_70-3" data-name="Ellipse 70" cx="1.36" cy="1.36" r="1.36" transform="translate(14.081 3.52)" fill="#fff"/>
        </g>
        <g id="Group_536-3" data-name="Group 536" transform="translate(0 22.882)">
          <path id="Path_333-3" data-name="Path 333" d="M-635.767-187.634a4.9,4.9,0,0,0-4.881,4.881,4.849,4.849,0,0,0,4.881,4.88h27.362a4.9,4.9,0,0,0,4.88-4.88,4.849,4.849,0,0,0-4.88-4.881Z" transform="translate(640.648 187.634)" fill="#68b699"/>
          <circle id="Ellipse_71-3" data-name="Ellipse 71" cx="1.36" cy="1.36" r="1.36" transform="translate(3.521 3.52)" fill="#fff"/>
          <circle id="Ellipse_72-3" data-name="Ellipse 72" cx="1.36" cy="1.36" r="1.36" transform="translate(8.801 3.52)" fill="#fff"/>
          <circle id="Ellipse_73-3" data-name="Ellipse 73" cx="1.36" cy="1.36" r="1.36" transform="translate(14.081 3.52)" fill="#fff"/>
        </g>
      </g>
    </g>
  </g>
</svg>
