<svg xmlns="http://www.w3.org/2000/svg" width="106.891" height="67.012" viewBox="0 0 106.891 67.012"><defs><style>.a{fill:none;stroke:#4e4d4d;stroke-linecap:round;stroke-linejoin:round;stroke-width:1.5px;}.b{fill:#d6d6d8;}.c{fill:#fff;}.d{fill:#68b699;}</style></defs><g transform="translate(-738 -3531.234)"><g transform="translate(804 3531.234)"><line class="a" y2="8.242" transform="translate(20.446 34.871)"/><ellipse class="a" cx="2.237" cy="2.237" rx="2.237" ry="2.237" transform="translate(18.209 43.791)"/><g transform="translate(0 0)"><path class="b" d="M-635.272-220.288a5.4,5.4,0,0,0-5.376,5.376,5.4,5.4,0,0,0,5.376,5.375h30.14a5.4,5.4,0,0,0,5.375-5.375,5.4,5.4,0,0,0-5.375-5.376Z" transform="translate(640.648 220.288)"/><ellipse class="c" cx="1.498" cy="1.498" rx="1.498" ry="1.498" transform="translate(3.878 3.789)"/><ellipse class="c" cx="1.498" cy="1.498" rx="1.498" ry="1.498" transform="translate(9.694 3.789)"/><ellipse class="c" cx="1.498" cy="1.498" rx="1.498" ry="1.498" transform="translate(15.511 3.789)"/></g><g transform="translate(0 12.602)"><path class="b" d="M-635.272-203.961a5.4,5.4,0,0,0-5.376,5.376,5.341,5.341,0,0,0,5.376,5.375h30.14a5.4,5.4,0,0,0,5.375-5.375,5.341,5.341,0,0,0-5.375-5.376Z" transform="translate(640.648 203.961)"/><ellipse class="c" cx="1.498" cy="1.498" rx="1.498" ry="1.498" transform="translate(3.878 3.877)"/><ellipse class="c" cx="1.498" cy="1.498" rx="1.498" ry="1.498" transform="translate(9.694 3.877)"/><ellipse class="c" cx="1.498" cy="1.498" rx="1.498" ry="1.498" transform="translate(15.511 3.877)"/></g><g transform="translate(0 25.204)"><path class="b" d="M-635.272-187.634a5.4,5.4,0,0,0-5.376,5.376,5.341,5.341,0,0,0,5.376,5.375h30.14a5.4,5.4,0,0,0,5.375-5.375,5.341,5.341,0,0,0-5.375-5.376Z" transform="translate(640.648 187.634)"/><ellipse class="c" cx="1.498" cy="1.498" rx="1.498" ry="1.498" transform="translate(3.878 3.877)"/><ellipse class="c" cx="1.498" cy="1.498" rx="1.498" ry="1.498" transform="translate(9.694 3.877)"/><ellipse class="c" cx="1.498" cy="1.498" rx="1.498" ry="1.498" transform="translate(15.511 3.877)"/></g></g><g transform="translate(738 3531.234)"><line class="a" y2="8.242" transform="translate(20.446 34.871)"/><ellipse class="a" cx="2.237" cy="2.237" rx="2.237" ry="2.237" transform="translate(18.209 43.791)"/><g transform="translate(0 0)"><path class="b" d="M-635.272-220.288a5.4,5.4,0,0,0-5.376,5.376,5.4,5.4,0,0,0,5.376,5.375h30.14a5.4,5.4,0,0,0,5.375-5.375,5.4,5.4,0,0,0-5.375-5.376Z" transform="translate(640.648 220.288)"/><ellipse class="c" cx="1.498" cy="1.498" rx="1.498" ry="1.498" transform="translate(3.878 3.789)"/><ellipse class="c" cx="1.498" cy="1.498" rx="1.498" ry="1.498" transform="translate(9.694 3.789)"/><ellipse class="c" cx="1.498" cy="1.498" rx="1.498" ry="1.498" transform="translate(15.511 3.789)"/></g><g transform="translate(0 12.602)"><path class="b" d="M-635.272-203.961a5.4,5.4,0,0,0-5.376,5.376,5.341,5.341,0,0,0,5.376,5.375h30.14a5.4,5.4,0,0,0,5.375-5.375,5.341,5.341,0,0,0-5.375-5.376Z" transform="translate(640.648 203.961)"/><ellipse class="c" cx="1.498" cy="1.498" rx="1.498" ry="1.498" transform="translate(3.878 3.877)"/><ellipse class="c" cx="1.498" cy="1.498" rx="1.498" ry="1.498" transform="translate(9.694 3.877)"/><ellipse class="c" cx="1.498" cy="1.498" rx="1.498" ry="1.498" transform="translate(15.511 3.877)"/></g><g transform="translate(0 25.204)"><path class="b" d="M-635.272-187.634a5.4,5.4,0,0,0-5.376,5.376,5.341,5.341,0,0,0,5.376,5.375h30.14a5.4,5.4,0,0,0,5.375-5.375,5.341,5.341,0,0,0-5.375-5.376Z" transform="translate(640.648 187.634)"/><ellipse class="c" cx="1.498" cy="1.498" rx="1.498" ry="1.498" transform="translate(3.878 3.877)"/><ellipse class="c" cx="1.498" cy="1.498" rx="1.498" ry="1.498" transform="translate(9.694 3.877)"/><ellipse class="c" cx="1.498" cy="1.498" rx="1.498" ry="1.498" transform="translate(15.511 3.877)"/></g></g><g transform="translate(1405.648 3755.253)"><line class="a" y2="10.678" transform="translate(-614.159 -175.11)"/><circle class="a" cx="2.899" cy="2.899" r="2.899" transform="translate(-617.058 -163.554)"/><path class="d" d="M-633.683-220.288a6.993,6.993,0,0,0-6.965,6.965,6.993,6.993,0,0,0,6.965,6.964h39.048a6.991,6.991,0,0,0,6.964-6.964,6.992,6.992,0,0,0-6.964-6.965Z"/><circle class="c" cx="1.941" cy="1.941" r="1.941" transform="translate(-635.624 -215.379)"/><circle class="c" cx="1.941" cy="1.941" r="1.941" transform="translate(-628.088 -215.379)"/><circle class="c" cx="1.941" cy="1.941" r="1.941" transform="translate(-620.553 -215.379)"/><path class="d" d="M-633.683-203.961A6.993,6.993,0,0,0-640.648-197a6.92,6.92,0,0,0,6.965,6.964h39.048A6.992,6.992,0,0,0-587.671-197a6.919,6.919,0,0,0-6.964-6.965Z"/><circle class="c" cx="1.941" cy="1.941" r="1.941" transform="translate(-635.624 -198.937)"/><circle class="c" cx="1.941" cy="1.941" r="1.941" transform="translate(-628.088 -198.937)"/><circle class="c" cx="1.941" cy="1.941" r="1.941" transform="translate(-620.553 -198.937)"/><path class="d" d="M-633.683-187.634a6.993,6.993,0,0,0-6.965,6.965,6.92,6.92,0,0,0,6.965,6.964h39.048a6.992,6.992,0,0,0,6.964-6.964,6.919,6.919,0,0,0-6.964-6.965Z"/><circle class="c" cx="1.941" cy="1.941" r="1.941" transform="translate(-635.624 -182.61)"/><circle class="c" cx="1.941" cy="1.941" r="1.941" transform="translate(-628.088 -182.61)"/><circle class="c" cx="1.941" cy="1.941" r="1.941" transform="translate(-620.553 -182.61)"/></g></g></svg>