<svg xmlns="http://www.w3.org/2000/svg" xmlns:xlink="http://www.w3.org/1999/xlink" width="51.202" height="69.367" viewBox="0 0 51.202 69.367"><defs><style>.a{fill:#75b69b;}.b{fill:#9e7054;}.c{fill:#795644;}.d{fill:#282928;}.e{fill:#5c8e77;}.f{fill:url(#a);}.g{fill:url(#b);}.h{fill:#232322;}</style><linearGradient id="a" x1="0.663" y1="-4.204" x2="0.088" y2="-4.667" gradientUnits="objectBoundingBox"><stop offset="0" stop-color="#9e7054"/><stop offset="0.335" stop-color="#986b52"/><stop offset="0.782" stop-color="#855f49"/><stop offset="1" stop-color="#795644"/></linearGradient><linearGradient id="b" x1="0.58" y1="-8.807" x2="0.392" y2="-9.675" gradientUnits="objectBoundingBox"><stop offset="0" stop-color="#9e7054"/><stop offset="0.349" stop-color="#9a6d52"/><stop offset="0.682" stop-color="#8d644c"/><stop offset="1" stop-color="#795644"/></linearGradient></defs><g transform="translate(-352.16 -508.079)"><path class="a" d="M356.818,564.138a46.085,46.085,0,0,0-4.658,4.53c3.846,3.334,18.207,10.343,34.106,8.463,15.857-1.924,17.1-7.095,17.1-7.095-1.923-1.795-6.924-5.343-6.924-5.343"/><path class="b" d="M356.818,564.138a30.29,30.29,0,0,1,7.1-4.1c4.06-1.624,3.291-3.5,4.274-12.053,0,0-4.231-5.642-4.488-8.719,0,0-3.974-1.453-4.188-7.437-.257-5.983,2.137-4.958,2.137-4.958a17.847,17.847,0,0,1,6.539-15.9c8.164-6.881,21.327.085,24.02,4.744,2.65,4.659,3.505,9.018,2.265,13.378s1.112,8.633-2.521,15.643c-3.633,7.052-5.6,7.949-8.8,9.232l.128,3.675a2.989,2.989,0,0,0,1.838,2.1c1.539.555,11.369,4.957,11.369,4.957-3.59.043-7.266,2.608-20.6,2.608s-19.062-3.163-19.062-3.163"/><path class="c" d="M383.189,557.641c-8.548-2.137-11.241-7.778-11.241-7.778,3.8,4.274,11.155,4.06,11.155,4.06Z"/><path class="d" d="M361.605,526.868s3.59.9,4.36,6.369h.513l-.086-5.685Z"/><path class="e" d="M385.027,559.736a111.561,111.561,0,0,1,11.369,4.957s-7.266,2.608-20.6,2.608c-13.25,0-19.019-3.206-19.019-3.206a30.271,30.271,0,0,1,7.094-4.1s8.8,7.522,17.738,7.138c9.018-.342,3.419-7.394,3.419-7.394"/><path class="f" d="M394.045,533.92a9.788,9.788,0,0,0-4.36-1.2c-2.265,0-6.026,0-6.026,6.026,0,2.864,1.8,6.881,1.8,6.881"/><path class="g" d="M381.308,534.989s-2.82-2.265-5.641-2.265c-3.334,0-5.172,1.111-5.172,2.821a3.867,3.867,0,0,0,2.992,3.633"/><path class="h" d="M385.279,510.469c-.231,1.676-1.639,15.469,9.1,19.028,1.4-4.493.566-9-2.182-13.845C391.142,513.842,388.574,512.1,385.279,510.469Z"/><path class="d" d="M361.605,526.868a17.847,17.847,0,0,1,6.539-15.9c8.164-6.881,21.328.086,24.02,4.744a19.918,19.918,0,0,1-8.975,11.155c-7.223,4.317-21.584,0-21.584,0"/></g></svg>