<svg xmlns="http://www.w3.org/2000/svg" width="114.422" height="30.526" viewBox="0 0 114.422 30.526"><defs><style>.a{fill:#100f0c;}.b{fill:#201c1a;}.c{fill:#5fbda4;}.d{fill:#fff;}</style></defs><g transform="translate(-477.665 -518.855)"><g transform="translate(477.665 518.855)"><path class="a" d="M592.087,542.39H477.665V518.855H592.087Zm-113.61-.813h112.8v-21.91h-112.8Z" transform="translate(-477.665 -518.855)"/><g transform="translate(7.54 6.746)"><path class="b" d="M481.8,530.091l1.585-2.907-2.907-1.322.794-2.113,3.169.794.263-3.172h2.116l.263,3.435,3.172-.791.791,2.113-2.907,1.319,1.587,2.907-1.85,1.322-2.113-2.378-2.379,2.378Z" transform="translate(-480.477 -521.371)"/><g transform="translate(12.683)"><path class="b" d="M486.526,530.091l1.585-2.907-2.9-1.322L486,523.75l3.169.794.266-3.172h2.113l.266,3.435,3.169-.791.794,2.113-2.907,1.319,1.585,2.907-1.85,1.322-2.113-2.378-2.378,2.378Z" transform="translate(-485.207 -521.371)"/></g><g transform="translate(25.364)"><path class="b" d="M491.258,530.091l1.585-2.907-2.907-1.322.794-2.113,3.17.794.266-3.172h2.113l.263,3.435,3.172-.791.791,2.113-2.907,1.319,1.588,2.907-1.85,1.322-2.113-2.378-2.379,2.378Z" transform="translate(-489.936 -521.371)"/></g><g transform="translate(38.31)"><path class="b" d="M496.086,530.091l1.585-2.907-2.907-1.322.794-2.113,3.169.794.266-3.172h2.113l.263,3.435,3.172-.791.791,2.113-2.9,1.319,1.585,2.907-1.85,1.322-2.113-2.378-2.378,2.378Z" transform="translate(-494.764 -521.371)"/></g><g transform="translate(50.993)"><path class="b" d="M500.813,530.091l1.588-2.907-2.907-1.322.791-2.113,3.172.794.263-3.172h2.113l.266,3.435,3.169-.791.794,2.113-2.907,1.319,1.585,2.907-1.847,1.322-2.116-2.378-2.376,2.378Z" transform="translate(-499.494 -521.371)"/></g><g transform="translate(63.674)"><path class="b" d="M505.545,530.091l1.585-2.907-2.907-1.322.794-2.113,3.169.794.266-3.172h2.113l.266,3.435,3.169-.791.794,2.113-2.907,1.319,1.585,2.907-1.85,1.322-2.113-2.378-2.379,2.378Z" transform="translate(-504.223 -521.371)"/></g></g><g transform="translate(93.144 15.73)"><circle class="c" cx="7.398" cy="7.398" r="7.398"/></g><g transform="translate(95.768 9.634)"><path class="c" d="M518.153,540.188a4.9,4.9,0,0,1-4.773-4.776v-8.189a4.774,4.774,0,1,1,9.549,0v8.189A4.9,4.9,0,0,1,518.153,540.188Zm0-16.118A3.235,3.235,0,0,0,515,527.224v8.189a3.152,3.152,0,0,0,6.3,0v-8.189A3.238,3.238,0,0,0,518.153,524.07Z" transform="translate(-513.38 -522.448)"/></g><g transform="translate(98.956 21.543)"><circle class="d" cx="1.585" cy="1.585" r="1.585"/></g><g transform="translate(99.749 23.657)"><rect class="d" width="1.321" height="3.963"/></g></g></g></svg>