<svg xmlns="http://www.w3.org/2000/svg" width="75.224" height="75" viewBox="0 0 75.224 75">
  <g id="Group_2843" data-name="Group 2843" transform="translate(-456.776 -3505)">
    <rect id="Rectangle_541" data-name="Rectangle 541" width="75" height="75" transform="translate(457 3505)" fill="none"/>
    <g id="Group_2283" data-name="Group 2283" transform="translate(-20.889 3013.266)">
      <g id="Group_1608" data-name="Group 1608" transform="translate(477.665 518.855)">
        <g id="Group_1603" data-name="Group 1603">
          <g id="Group_1595" data-name="Group 1595">
            <path id="Path_1348" data-name="Path 1348" d="M552.665,535.3h-75V518.855h75Zm-74.468-.568h73.935V519.423H478.2Z" transform="translate(-477.665 -518.855)" fill="#100f0c"/>
          </g>
          <g id="Group_1602" data-name="Group 1602" transform="translate(5.128 4.812)">
            <g id="Group_1596" data-name="Group 1596">
              <path id="Path_1349" data-name="Path 1349" d="M481.376,527.3l1.078-1.977-1.977-.9.54-1.437,2.155.54.179-2.157h1.439l.179,2.336,2.157-.538.538,1.437-1.977.9,1.079,1.977-1.258.9-1.437-1.617-1.617,1.617Z" transform="translate(-480.477 -521.371)" fill="#201c1a"/>
            </g>
            <g id="Group_1597" data-name="Group 1597" transform="translate(8.625)">
              <path id="Path_1350" data-name="Path 1350" d="M486.1,527.3l1.078-1.977-1.975-.9.538-1.437,2.155.54.181-2.157h1.437l.181,2.336,2.155-.538.54,1.437-1.977.9,1.078,1.977-1.258.9-1.437-1.617-1.617,1.617Z" transform="translate(-485.207 -521.371)" fill="#201c1a"/>
            </g>
            <g id="Group_1598" data-name="Group 1598" transform="translate(17.248)">
              <path id="Path_1351" data-name="Path 1351" d="M490.835,527.3l1.078-1.977-1.977-.9.54-1.437,2.155.54.181-2.157h1.437l.179,2.336,2.157-.538.538,1.437-1.977.9,1.08,1.977-1.258.9-1.437-1.617-1.618,1.617Z" transform="translate(-489.936 -521.371)" fill="#201c1a"/>
            </g>
            <g id="Group_1599" data-name="Group 1599" transform="translate(26.052)">
              <path id="Path_1352" data-name="Path 1352" d="M495.663,527.3l1.078-1.977-1.977-.9.54-1.437,2.155.54.181-2.157h1.437l.179,2.336,2.157-.538.538,1.437-1.975.9,1.078,1.977-1.258.9-1.437-1.617-1.617,1.617Z" transform="translate(-494.764 -521.371)" fill="#201c1a"/>
            </g>
            <g id="Group_1600" data-name="Group 1600" transform="translate(34.677)">
              <path id="Path_1353" data-name="Path 1353" d="M500.391,527.3l1.08-1.977-1.977-.9.538-1.437,2.157.54.179-2.157H503.8l.181,2.336,2.155-.538.54,1.437-1.977.9,1.078,1.977-1.256.9-1.439-1.617-1.615,1.617Z" transform="translate(-499.494 -521.371)" fill="#201c1a"/>
            </g>
            <g id="Group_1601" data-name="Group 1601" transform="translate(43.3)">
              <path id="Path_1354" data-name="Path 1354" d="M505.122,527.3l1.078-1.977-1.977-.9.54-1.437,2.155.54.181-2.157h1.437l.181,2.336,2.155-.538.54,1.437-1.977.9,1.078,1.977-1.258.9-1.437-1.617-1.617,1.617Z" transform="translate(-504.223 -521.371)" fill="#201c1a"/>
            </g>
          </g>
        </g>
        <g id="Group_1604" data-name="Group 1604" transform="translate(60.53 11.136)">
          <circle id="Ellipse_236" data-name="Ellipse 236" cx="5.031" cy="5.031" r="5.031" fill="#5fbda4"/>
        </g>
        <g id="Group_1605" data-name="Group 1605" transform="translate(62.314 6.991)">
          <path id="Path_1355" data-name="Path 1355" d="M516.626,534.512a3.332,3.332,0,0,1-3.246-3.248V525.7a3.247,3.247,0,1,1,6.493,0v5.569A3.332,3.332,0,0,1,516.626,534.512Zm0-10.961a2.2,2.2,0,0,0-2.143,2.144v5.569a2.143,2.143,0,0,0,4.287,0V525.7A2.2,2.2,0,0,0,516.626,523.551Z" transform="translate(-513.38 -522.448)" fill="#5fbda4"/>
        </g>
        <g id="Group_1606" data-name="Group 1606" transform="translate(64.483 14.996)">
          <circle id="Ellipse_237" data-name="Ellipse 237" cx="1.078" cy="1.078" r="1.078" fill="#fff"/>
        </g>
        <g id="Group_1607" data-name="Group 1607" transform="translate(65.022 16.526)">
          <rect id="Rectangle_256" data-name="Rectangle 256" width="0.898" height="2.695" fill="#fff"/>
        </g>
      </g>
    </g>
  </g>
</svg>
