<svg xmlns="http://www.w3.org/2000/svg" xmlns:xlink="http://www.w3.org/1999/xlink" width="172.721" height="181.824" viewBox="0 0 172.721 181.824"><defs><style>.a{fill:none;stroke:#4e4d4d;stroke-linecap:round;stroke-linejoin:round;}.b{fill:#eee;}.c{fill:#5fbda4;}.d{fill:#75b69b;}.e{fill:#9e7054;}.f{fill:#795644;}.g{fill:#282928;}.h{fill:#5c8e77;}.i{fill:url(#a);}.j{fill:url(#b);}.k{fill:#232322;}</style><linearGradient id="a" x1="0.663" y1="-4.204" x2="0.088" y2="-4.667" gradientUnits="objectBoundingBox"><stop offset="0" stop-color="#9e7054"/><stop offset="0.335" stop-color="#986b52"/><stop offset="0.782" stop-color="#855f49"/><stop offset="1" stop-color="#795644"/></linearGradient><linearGradient id="b" x1="0.58" y1="-8.807" x2="0.392" y2="-9.675" gradientUnits="objectBoundingBox"><stop offset="0" stop-color="#9e7054"/><stop offset="0.349" stop-color="#9a6d52"/><stop offset="0.682" stop-color="#8d644c"/><stop offset="1" stop-color="#795644"/></linearGradient></defs><g transform="translate(0 40.958)"><g transform="translate(21.539 19.535)"><g transform="translate(16.558 31.642)"><line class="a" y2="9.096" transform="translate(1.039)"/><ellipse class="a" cx="1.039" cy="1.039" rx="1.039" ry="1.039" transform="translate(0 9.271)"/></g><g transform="translate(0 29.553)"><line class="a" x1="5.234" y2="5.595" transform="translate(2.343 0)"/><circle class="a" cx="1.039" cy="1.039" r="1.039" transform="translate(1.469 4.93) rotate(45)"/></g><g transform="translate(28.05 29.553)"><line class="a" x2="5.234" y2="5.595" transform="translate(0)"/><circle class="a" cx="1.039" cy="1.039" r="1.039" transform="translate(7.577 6.399) rotate(135)"/></g><g transform="translate(16.558 0)"><line class="a" y1="9.095" transform="translate(1.039 2.254)"/><ellipse class="a" cx="1.039" cy="1.039" rx="1.039" ry="1.039"/></g><g transform="translate(0 4.568)"><line class="a" x1="5.234" y1="5.595" transform="translate(2.343 2.273)"/><circle class="a" cx="1.039" cy="1.039" r="1.039" transform="translate(0 1.469) rotate(-45)"/></g><g transform="translate(28.05 4.568)"><line class="a" y1="5.595" x2="5.234" transform="translate(0 2.273)"/><circle class="a" cx="1.039" cy="1.039" r="1.039" transform="translate(6.108 2.938) rotate(-135)"/></g><g transform="translate(982.13 199.665)"><g transform="translate(-973.869 -186.338)"><path class="b" d="M-971.438-186.338a2.441,2.441,0,0,0-2.431,2.431,2.441,2.441,0,0,0,2.431,2.431h13.63a2.441,2.441,0,0,0,2.431-2.431,2.441,2.441,0,0,0-2.431-2.431Z" transform="translate(973.869 186.338)"/><circle class="c" cx="0.678" cy="0.678" r="0.678" transform="translate(1.754 1.714)"/><circle class="c" cx="0.678" cy="0.678" r="0.678" transform="translate(4.384 1.714)"/><circle class="c" cx="0.678" cy="0.678" r="0.678" transform="translate(7.015 1.714)"/></g><g transform="translate(-973.869 -180.639)"><path class="b" d="M-971.438-171.206a2.441,2.441,0,0,0-2.431,2.431,2.415,2.415,0,0,0,2.431,2.431h13.63a2.441,2.441,0,0,0,2.431-2.431,2.415,2.415,0,0,0-2.431-2.431Z" transform="translate(973.869 171.206)"/><circle class="c" cx="0.678" cy="0.678" r="0.678" transform="translate(1.754 1.754)"/><circle class="c" cx="0.678" cy="0.678" r="0.678" transform="translate(4.384 1.754)"/><circle class="c" cx="0.678" cy="0.678" r="0.678" transform="translate(7.015 1.754)"/></g><g transform="translate(-973.869 -174.94)"><path class="b" d="M-971.438-156.074a2.441,2.441,0,0,0-2.431,2.431,2.415,2.415,0,0,0,2.431,2.431h13.63a2.441,2.441,0,0,0,2.431-2.431,2.415,2.415,0,0,0-2.431-2.431Z" transform="translate(973.869 156.074)"/><circle class="c" cx="0.678" cy="0.678" r="0.678" transform="translate(1.754 1.754)"/><circle class="c" cx="0.678" cy="0.678" r="0.678" transform="translate(4.384 1.754)"/><circle class="c" cx="0.678" cy="0.678" r="0.678" transform="translate(7.015 1.754)"/></g></g></g><g transform="translate(33.019 0)"><path class="d" d="M353.288,564.138a11.155,11.155,0,0,0-1.128,1.1,12.3,12.3,0,0,0,8.26,2.049c3.84-.466,4.14-1.718,4.14-1.718-.466-.435-1.677-1.294-1.677-1.294" transform="translate(-352.16 -550.562)"/><path class="e" d="M356.818,521.655a7.335,7.335,0,0,1,1.718-.994c.983-.393.8-.849,1.035-2.919a6.326,6.326,0,0,1-1.087-2.112,1.86,1.86,0,0,1-1.014-1.8c-.062-1.449.518-1.2.518-1.2a4.322,4.322,0,0,1,1.584-3.85c1.977-1.666,5.165.021,5.817,1.149a4.088,4.088,0,0,1,.549,3.24c-.3,1.056.269,2.091-.611,3.789s-1.356,1.925-2.132,2.236l.031.89a.724.724,0,0,0,.445.507c.373.134,2.753,1.2,2.753,1.2a24.216,24.216,0,0,1-4.989.632,10.375,10.375,0,0,1-4.616-.766" transform="translate(-355.69 -508.079)"/><path class="f" d="M374.67,551.747a4.072,4.072,0,0,1-2.722-1.884,3.915,3.915,0,0,0,2.7.983Z" transform="translate(-367.156 -539.744)"/><path class="g" d="M361.605,526.868s.869.217,1.056,1.542h.124l-.021-1.377Z" transform="translate(-359.318 -522.318)"/><path class="h" d="M363.618,559.736a26.951,26.951,0,0,1,2.753,1.2,16.16,16.16,0,0,1-4.989.632,10.283,10.283,0,0,1-4.606-.776,7.337,7.337,0,0,1,1.718-.994,7.384,7.384,0,0,0,4.3,1.729c2.184-.083.828-1.791.828-1.791" transform="translate(-355.658 -547.226)"/><path class="i" d="M386.174,533.014a2.37,2.37,0,0,0-1.056-.29c-.549,0-1.459,0-1.459,1.459a5.2,5.2,0,0,0,.435,1.666" transform="translate(-376.031 -526.755)"/><path class="j" d="M373.114,533.272a2.6,2.6,0,0,0-1.366-.548c-.807,0-1.253.269-1.253.683a.937.937,0,0,0,.725.88" transform="translate(-366.055 -526.755)"/><path class="k" d="M385.138,510.469c-.056.406-.4,3.746,2.2,4.608a4.1,4.1,0,0,0-.528-3.353A4.045,4.045,0,0,0,385.138,510.469Z" transform="translate(-377.118 -509.89)"/><path class="g" d="M361.505,512.629a4.322,4.322,0,0,1,1.584-3.85c1.977-1.666,5.165.021,5.817,1.149a4.824,4.824,0,0,1-2.174,2.7c-1.749,1.046-5.227,0-5.227,0" transform="translate(-359.218 -508.079)"/></g><g transform="translate(58.103 8.515)"><path class="d" d="M353.288,564.138a11.155,11.155,0,0,0-1.128,1.1,12.3,12.3,0,0,0,8.26,2.049c3.84-.466,4.14-1.718,4.14-1.718-.466-.435-1.677-1.294-1.677-1.294" transform="translate(-352.16 -550.562)"/><path class="e" d="M356.818,521.655a7.335,7.335,0,0,1,1.718-.994c.983-.393.8-.849,1.035-2.919a6.326,6.326,0,0,1-1.087-2.112,1.86,1.86,0,0,1-1.014-1.8c-.062-1.449.518-1.2.518-1.2a4.322,4.322,0,0,1,1.584-3.85c1.977-1.666,5.165.021,5.817,1.149a4.088,4.088,0,0,1,.549,3.24c-.3,1.056.269,2.091-.611,3.789s-1.356,1.925-2.132,2.236l.031.89a.724.724,0,0,0,.445.507c.373.134,2.753,1.2,2.753,1.2a24.216,24.216,0,0,1-4.989.632,10.375,10.375,0,0,1-4.616-.766" transform="translate(-355.69 -508.079)"/><path class="f" d="M374.67,551.747a4.072,4.072,0,0,1-2.722-1.884,3.915,3.915,0,0,0,2.7.983Z" transform="translate(-367.156 -539.744)"/><path class="g" d="M361.605,526.868s.869.217,1.056,1.542h.124l-.021-1.377Z" transform="translate(-359.318 -522.318)"/><path class="h" d="M363.618,559.736a26.951,26.951,0,0,1,2.753,1.2,16.16,16.16,0,0,1-4.989.632,10.283,10.283,0,0,1-4.606-.776,7.337,7.337,0,0,1,1.718-.994,7.384,7.384,0,0,0,4.3,1.729c2.184-.083.828-1.791.828-1.791" transform="translate(-355.658 -547.226)"/><path class="i" d="M386.174,533.014a2.37,2.37,0,0,0-1.056-.29c-.549,0-1.459,0-1.459,1.459a5.2,5.2,0,0,0,.435,1.666" transform="translate(-376.031 -526.755)"/><path class="j" d="M373.114,533.272a2.6,2.6,0,0,0-1.366-.548c-.807,0-1.253.269-1.253.683a.937.937,0,0,0,.725.88" transform="translate(-366.055 -526.755)"/><path class="k" d="M385.138,510.469c-.056.406-.4,3.746,2.2,4.608a4.1,4.1,0,0,0-.528-3.353A4.045,4.045,0,0,0,385.138,510.469Z" transform="translate(-377.118 -509.89)"/><path class="g" d="M361.505,512.629a4.322,4.322,0,0,1,1.584-3.85c1.977-1.666,5.165.021,5.817,1.149a4.824,4.824,0,0,1-2.174,2.7c-1.749,1.046-5.227,0-5.227,0" transform="translate(-359.218 -508.079)"/></g><g transform="translate(66.118 32.558)"><path class="d" d="M353.288,564.138a11.155,11.155,0,0,0-1.128,1.1,12.3,12.3,0,0,0,8.26,2.049c3.84-.466,4.14-1.718,4.14-1.718-.466-.435-1.677-1.294-1.677-1.294" transform="translate(-352.16 -550.562)"/><path class="e" d="M356.818,521.655a7.335,7.335,0,0,1,1.718-.994c.983-.393.8-.849,1.035-2.919a6.326,6.326,0,0,1-1.087-2.112,1.86,1.86,0,0,1-1.014-1.8c-.062-1.449.518-1.2.518-1.2a4.322,4.322,0,0,1,1.584-3.85c1.977-1.666,5.165.021,5.817,1.149a4.088,4.088,0,0,1,.549,3.24c-.3,1.056.269,2.091-.611,3.789s-1.356,1.925-2.132,2.236l.031.89a.724.724,0,0,0,.445.507c.373.134,2.753,1.2,2.753,1.2a24.216,24.216,0,0,1-4.989.632,10.375,10.375,0,0,1-4.616-.766" transform="translate(-355.69 -508.079)"/><path class="f" d="M374.67,551.747a4.072,4.072,0,0,1-2.722-1.884,3.915,3.915,0,0,0,2.7.983Z" transform="translate(-367.156 -539.744)"/><path class="g" d="M361.605,526.868s.869.217,1.056,1.542h.124l-.021-1.377Z" transform="translate(-359.318 -522.318)"/><path class="h" d="M363.618,559.736a26.951,26.951,0,0,1,2.753,1.2,16.16,16.16,0,0,1-4.989.632,10.283,10.283,0,0,1-4.606-.776,7.337,7.337,0,0,1,1.718-.994,7.384,7.384,0,0,0,4.3,1.729c2.184-.083.828-1.791.828-1.791" transform="translate(-355.658 -547.226)"/><path class="i" d="M386.174,533.014a2.37,2.37,0,0,0-1.056-.29c-.549,0-1.459,0-1.459,1.459a5.2,5.2,0,0,0,.435,1.666" transform="translate(-376.031 -526.755)"/><path class="j" d="M373.114,533.272a2.6,2.6,0,0,0-1.366-.548c-.807,0-1.253.269-1.253.683a.937.937,0,0,0,.725.88" transform="translate(-366.055 -526.755)"/><path class="k" d="M385.138,510.469c-.056.406-.4,3.746,2.2,4.608a4.1,4.1,0,0,0-.528-3.353A4.045,4.045,0,0,0,385.138,510.469Z" transform="translate(-377.118 -509.89)"/><path class="g" d="M361.505,512.629a4.322,4.322,0,0,1,1.584-3.85c1.977-1.666,5.165.021,5.817,1.149a4.824,4.824,0,0,1-2.174,2.7c-1.749,1.046-5.227,0-5.227,0" transform="translate(-359.218 -508.079)"/></g><g transform="translate(8.014 8.515)"><path class="d" d="M353.288,564.138a11.155,11.155,0,0,0-1.128,1.1,12.3,12.3,0,0,0,8.26,2.049c3.84-.466,4.14-1.718,4.14-1.718-.466-.435-1.677-1.294-1.677-1.294" transform="translate(-352.16 -550.562)"/><path class="e" d="M356.818,521.655a7.335,7.335,0,0,1,1.718-.994c.983-.393.8-.849,1.035-2.919a6.326,6.326,0,0,1-1.087-2.112,1.86,1.86,0,0,1-1.014-1.8c-.062-1.449.518-1.2.518-1.2a4.322,4.322,0,0,1,1.584-3.85c1.977-1.666,5.165.021,5.817,1.149a4.088,4.088,0,0,1,.549,3.24c-.3,1.056.269,2.091-.611,3.789s-1.356,1.925-2.132,2.236l.031.89a.724.724,0,0,0,.445.507c.373.134,2.753,1.2,2.753,1.2a24.216,24.216,0,0,1-4.989.632,10.375,10.375,0,0,1-4.616-.766" transform="translate(-355.69 -508.079)"/><path class="f" d="M374.67,551.747a4.072,4.072,0,0,1-2.722-1.884,3.915,3.915,0,0,0,2.7.983Z" transform="translate(-367.156 -539.744)"/><path class="g" d="M361.605,526.868s.869.217,1.056,1.542h.124l-.021-1.377Z" transform="translate(-359.318 -522.318)"/><path class="h" d="M363.618,559.736a26.951,26.951,0,0,1,2.753,1.2,16.16,16.16,0,0,1-4.989.632,10.283,10.283,0,0,1-4.606-.776,7.337,7.337,0,0,1,1.718-.994,7.384,7.384,0,0,0,4.3,1.729c2.184-.083.828-1.791.828-1.791" transform="translate(-355.658 -547.226)"/><path class="i" d="M386.174,533.014a2.37,2.37,0,0,0-1.056-.29c-.549,0-1.459,0-1.459,1.459a5.2,5.2,0,0,0,.435,1.666" transform="translate(-376.031 -526.755)"/><path class="j" d="M373.114,533.272a2.6,2.6,0,0,0-1.366-.548c-.807,0-1.253.269-1.253.683a.937.937,0,0,0,.725.88" transform="translate(-366.055 -526.755)"/><path class="k" d="M385.138,510.469c-.056.406-.4,3.746,2.2,4.608a4.1,4.1,0,0,0-.528-3.353A4.045,4.045,0,0,0,385.138,510.469Z" transform="translate(-377.118 -509.89)"/><path class="g" d="M361.505,512.629a4.322,4.322,0,0,1,1.584-3.85c1.977-1.666,5.165.021,5.817,1.149a4.824,4.824,0,0,1-2.174,2.7c-1.749,1.046-5.227,0-5.227,0" transform="translate(-359.218 -508.079)"/></g><g transform="translate(0 32.558)"><path class="d" d="M353.288,564.138a11.155,11.155,0,0,0-1.128,1.1,12.3,12.3,0,0,0,8.26,2.049c3.84-.466,4.14-1.718,4.14-1.718-.466-.435-1.677-1.294-1.677-1.294" transform="translate(-352.16 -550.562)"/><path class="e" d="M356.818,521.655a7.335,7.335,0,0,1,1.718-.994c.983-.393.8-.849,1.035-2.919a6.326,6.326,0,0,1-1.087-2.112,1.86,1.86,0,0,1-1.014-1.8c-.062-1.449.518-1.2.518-1.2a4.322,4.322,0,0,1,1.584-3.85c1.977-1.666,5.165.021,5.817,1.149a4.088,4.088,0,0,1,.549,3.24c-.3,1.056.269,2.091-.611,3.789s-1.356,1.925-2.132,2.236l.031.89a.724.724,0,0,0,.445.507c.373.134,2.753,1.2,2.753,1.2a24.216,24.216,0,0,1-4.989.632,10.375,10.375,0,0,1-4.616-.766" transform="translate(-355.69 -508.079)"/><path class="f" d="M374.67,551.747a4.072,4.072,0,0,1-2.722-1.884,3.915,3.915,0,0,0,2.7.983Z" transform="translate(-367.156 -539.744)"/><path class="g" d="M361.605,526.868s.869.217,1.056,1.542h.124l-.021-1.377Z" transform="translate(-359.318 -522.318)"/><path class="h" d="M363.618,559.736a26.951,26.951,0,0,1,2.753,1.2,16.16,16.16,0,0,1-4.989.632,10.283,10.283,0,0,1-4.606-.776,7.337,7.337,0,0,1,1.718-.994,7.384,7.384,0,0,0,4.3,1.729c2.184-.083.828-1.791.828-1.791" transform="translate(-355.658 -547.226)"/><path class="i" d="M386.174,533.014a2.37,2.37,0,0,0-1.056-.29c-.549,0-1.459,0-1.459,1.459a5.2,5.2,0,0,0,.435,1.666" transform="translate(-376.031 -526.755)"/><path class="j" d="M373.114,533.272a2.6,2.6,0,0,0-1.366-.548c-.807,0-1.253.269-1.253.683a.937.937,0,0,0,.725.88" transform="translate(-366.055 -526.755)"/><path class="k" d="M385.138,510.469c-.056.406-.4,3.746,2.2,4.608a4.1,4.1,0,0,0-.528-3.353A4.045,4.045,0,0,0,385.138,510.469Z" transform="translate(-377.118 -509.89)"/><path class="g" d="M361.505,512.629a4.322,4.322,0,0,1,1.584-3.85c1.977-1.666,5.165.021,5.817,1.149a4.824,4.824,0,0,1-2.174,2.7c-1.749,1.046-5.227,0-5.227,0" transform="translate(-359.218 -508.079)"/></g><g transform="translate(33.019 65.116)"><path class="d" d="M353.288,564.138a11.155,11.155,0,0,0-1.128,1.1,12.3,12.3,0,0,0,8.26,2.049c3.84-.466,4.14-1.718,4.14-1.718-.466-.435-1.677-1.294-1.677-1.294" transform="translate(-352.16 -550.562)"/><path class="e" d="M356.818,521.655a7.335,7.335,0,0,1,1.718-.994c.983-.393.8-.849,1.035-2.919a6.326,6.326,0,0,1-1.087-2.112,1.86,1.86,0,0,1-1.014-1.8c-.062-1.449.518-1.2.518-1.2a4.322,4.322,0,0,1,1.584-3.85c1.977-1.666,5.165.021,5.817,1.149a4.088,4.088,0,0,1,.549,3.24c-.3,1.056.269,2.091-.611,3.789s-1.356,1.925-2.132,2.236l.031.89a.724.724,0,0,0,.445.507c.373.134,2.753,1.2,2.753,1.2a24.216,24.216,0,0,1-4.989.632,10.375,10.375,0,0,1-4.616-.766" transform="translate(-355.69 -508.079)"/><path class="f" d="M374.67,551.747a4.072,4.072,0,0,1-2.722-1.884,3.915,3.915,0,0,0,2.7.983Z" transform="translate(-367.156 -539.744)"/><path class="g" d="M361.605,526.868s.869.217,1.056,1.542h.124l-.021-1.377Z" transform="translate(-359.318 -522.318)"/><path class="h" d="M363.618,559.736a26.951,26.951,0,0,1,2.753,1.2,16.16,16.16,0,0,1-4.989.632,10.283,10.283,0,0,1-4.606-.776,7.337,7.337,0,0,1,1.718-.994,7.384,7.384,0,0,0,4.3,1.729c2.184-.083.828-1.791.828-1.791" transform="translate(-355.658 -547.226)"/><path class="i" d="M386.174,533.014a2.37,2.37,0,0,0-1.056-.29c-.549,0-1.459,0-1.459,1.459a5.2,5.2,0,0,0,.435,1.666" transform="translate(-376.031 -526.755)"/><path class="j" d="M373.114,533.272a2.6,2.6,0,0,0-1.366-.548c-.807,0-1.253.269-1.253.683a.937.937,0,0,0,.725.88" transform="translate(-366.055 -526.755)"/><path class="k" d="M385.138,510.469c-.056.406-.4,3.746,2.2,4.608a4.1,4.1,0,0,0-.528-3.353A4.045,4.045,0,0,0,385.138,510.469Z" transform="translate(-377.118 -509.89)"/><path class="g" d="M361.505,512.629a4.322,4.322,0,0,1,1.584-3.85c1.977-1.666,5.165.021,5.817,1.149a4.824,4.824,0,0,1-2.174,2.7c-1.749,1.046-5.227,0-5.227,0" transform="translate(-359.218 -508.079)"/></g><g transform="translate(8.014 54.598)"><path class="d" d="M353.288,564.138a11.155,11.155,0,0,0-1.128,1.1,12.3,12.3,0,0,0,8.26,2.049c3.84-.466,4.14-1.718,4.14-1.718-.466-.435-1.677-1.294-1.677-1.294" transform="translate(-352.16 -550.562)"/><path class="e" d="M356.818,521.655a7.335,7.335,0,0,1,1.718-.994c.983-.393.8-.849,1.035-2.919a6.326,6.326,0,0,1-1.087-2.112,1.86,1.86,0,0,1-1.014-1.8c-.062-1.449.518-1.2.518-1.2a4.322,4.322,0,0,1,1.584-3.85c1.977-1.666,5.165.021,5.817,1.149a4.088,4.088,0,0,1,.549,3.24c-.3,1.056.269,2.091-.611,3.789s-1.356,1.925-2.132,2.236l.031.89a.724.724,0,0,0,.445.507c.373.134,2.753,1.2,2.753,1.2a24.216,24.216,0,0,1-4.989.632,10.375,10.375,0,0,1-4.616-.766" transform="translate(-355.69 -508.079)"/><path class="f" d="M374.67,551.747a4.072,4.072,0,0,1-2.722-1.884,3.915,3.915,0,0,0,2.7.983Z" transform="translate(-367.156 -539.744)"/><path class="g" d="M361.605,526.868s.869.217,1.056,1.542h.124l-.021-1.377Z" transform="translate(-359.318 -522.318)"/><path class="h" d="M363.618,559.736a26.951,26.951,0,0,1,2.753,1.2,16.16,16.16,0,0,1-4.989.632,10.283,10.283,0,0,1-4.606-.776,7.337,7.337,0,0,1,1.718-.994,7.384,7.384,0,0,0,4.3,1.729c2.184-.083.828-1.791.828-1.791" transform="translate(-355.658 -547.226)"/><path class="i" d="M386.174,533.014a2.37,2.37,0,0,0-1.056-.29c-.549,0-1.459,0-1.459,1.459a5.2,5.2,0,0,0,.435,1.666" transform="translate(-376.031 -526.755)"/><path class="j" d="M373.114,533.272a2.6,2.6,0,0,0-1.366-.548c-.807,0-1.253.269-1.253.683a.937.937,0,0,0,.725.88" transform="translate(-366.055 -526.755)"/><path class="k" d="M385.138,510.469c-.056.406-.4,3.746,2.2,4.608a4.1,4.1,0,0,0-.528-3.353A4.045,4.045,0,0,0,385.138,510.469Z" transform="translate(-377.118 -509.89)"/><path class="g" d="M361.505,512.629a4.322,4.322,0,0,1,1.584-3.85c1.977-1.666,5.165.021,5.817,1.149a4.824,4.824,0,0,1-2.174,2.7c-1.749,1.046-5.227,0-5.227,0" transform="translate(-359.218 -508.079)"/></g><g transform="translate(58.103 54.597)"><path class="d" d="M353.288,564.138a11.155,11.155,0,0,0-1.128,1.1,12.3,12.3,0,0,0,8.26,2.049c3.84-.466,4.14-1.718,4.14-1.718-.466-.435-1.677-1.294-1.677-1.294" transform="translate(-352.16 -550.562)"/><path class="e" d="M356.818,521.655a7.335,7.335,0,0,1,1.718-.994c.983-.393.8-.849,1.035-2.919a6.326,6.326,0,0,1-1.087-2.112,1.86,1.86,0,0,1-1.014-1.8c-.062-1.449.518-1.2.518-1.2a4.322,4.322,0,0,1,1.584-3.85c1.977-1.666,5.165.021,5.817,1.149a4.088,4.088,0,0,1,.549,3.24c-.3,1.056.269,2.091-.611,3.789s-1.356,1.925-2.132,2.236l.031.89a.724.724,0,0,0,.445.507c.373.134,2.753,1.2,2.753,1.2a24.216,24.216,0,0,1-4.989.632,10.375,10.375,0,0,1-4.616-.766" transform="translate(-355.69 -508.079)"/><path class="f" d="M374.67,551.747a4.072,4.072,0,0,1-2.722-1.884,3.915,3.915,0,0,0,2.7.983Z" transform="translate(-367.156 -539.744)"/><path class="g" d="M361.605,526.868s.869.217,1.056,1.542h.124l-.021-1.377Z" transform="translate(-359.318 -522.318)"/><path class="h" d="M363.618,559.736a26.951,26.951,0,0,1,2.753,1.2,16.16,16.16,0,0,1-4.989.632,10.283,10.283,0,0,1-4.606-.776,7.337,7.337,0,0,1,1.718-.994,7.384,7.384,0,0,0,4.3,1.729c2.184-.083.828-1.791.828-1.791" transform="translate(-355.658 -547.226)"/><path class="i" d="M386.174,533.014a2.37,2.37,0,0,0-1.056-.29c-.549,0-1.459,0-1.459,1.459a5.2,5.2,0,0,0,.435,1.666" transform="translate(-376.031 -526.755)"/><path class="j" d="M373.114,533.272a2.6,2.6,0,0,0-1.366-.548c-.807,0-1.253.269-1.253.683a.937.937,0,0,0,.725.88" transform="translate(-366.055 -526.755)"/><path class="k" d="M385.138,510.469c-.056.406-.4,3.746,2.2,4.608a4.1,4.1,0,0,0-.528-3.353A4.045,4.045,0,0,0,385.138,510.469Z" transform="translate(-377.118 -509.89)"/><path class="g" d="M361.505,512.629a4.322,4.322,0,0,1,1.584-3.85c1.977-1.666,5.165.021,5.817,1.149a4.824,4.824,0,0,1-2.174,2.7c-1.749,1.046-5.227,0-5.227,0" transform="translate(-359.218 -508.079)"/></g></g><g transform="translate(85.269 99.908)"><g transform="translate(21.539 19.535)"><g transform="translate(16.558 31.642)"><line class="a" y2="9.096" transform="translate(1.039)"/><ellipse class="a" cx="1.039" cy="1.039" rx="1.039" ry="1.039" transform="translate(0 9.271)"/></g><g transform="translate(0 29.553)"><line class="a" x1="5.234" y2="5.595" transform="translate(2.343 0)"/><circle class="a" cx="1.039" cy="1.039" r="1.039" transform="translate(1.469 4.93) rotate(45)"/></g><g transform="translate(28.05 29.553)"><line class="a" x2="5.234" y2="5.595" transform="translate(0)"/><circle class="a" cx="1.039" cy="1.039" r="1.039" transform="translate(7.577 6.399) rotate(135)"/></g><g transform="translate(16.558 0)"><line class="a" y1="9.095" transform="translate(1.039 2.254)"/><ellipse class="a" cx="1.039" cy="1.039" rx="1.039" ry="1.039"/></g><g transform="translate(0 4.568)"><line class="a" x1="5.234" y1="5.595" transform="translate(2.343 2.273)"/><circle class="a" cx="1.039" cy="1.039" r="1.039" transform="translate(0 1.469) rotate(-45)"/></g><g transform="translate(28.05 4.568)"><line class="a" y1="5.595" x2="5.234" transform="translate(0 2.273)"/><circle class="a" cx="1.039" cy="1.039" r="1.039" transform="translate(6.108 2.938) rotate(-135)"/></g><g transform="translate(981.86 199.715)"><g transform="translate(-973.869 -186.338)"><path class="b" d="M-971.438-186.338a2.441,2.441,0,0,0-2.431,2.431,2.441,2.441,0,0,0,2.431,2.431h13.63a2.441,2.441,0,0,0,2.431-2.431,2.441,2.441,0,0,0-2.431-2.431Z" transform="translate(973.869 186.338)"/><circle class="c" cx="0.678" cy="0.678" r="0.678" transform="translate(1.754 1.714)"/><circle class="c" cx="0.678" cy="0.678" r="0.678" transform="translate(4.384 1.714)"/><circle class="c" cx="0.678" cy="0.678" r="0.678" transform="translate(7.015 1.714)"/></g><g transform="translate(-973.869 -180.639)"><path class="b" d="M-971.438-171.206a2.441,2.441,0,0,0-2.431,2.431,2.415,2.415,0,0,0,2.431,2.431h13.63a2.441,2.441,0,0,0,2.431-2.431,2.415,2.415,0,0,0-2.431-2.431Z" transform="translate(973.869 171.206)"/><circle class="c" cx="0.678" cy="0.678" r="0.678" transform="translate(1.754 1.754)"/><circle class="c" cx="0.678" cy="0.678" r="0.678" transform="translate(4.384 1.754)"/><circle class="c" cx="0.678" cy="0.678" r="0.678" transform="translate(7.015 1.754)"/></g><g transform="translate(-973.869 -174.94)"><path class="b" d="M-971.438-156.074a2.441,2.441,0,0,0-2.431,2.431,2.415,2.415,0,0,0,2.431,2.431h13.63a2.441,2.441,0,0,0,2.431-2.431,2.415,2.415,0,0,0-2.431-2.431Z" transform="translate(973.869 156.074)"/><circle class="c" cx="0.678" cy="0.678" r="0.678" transform="translate(1.754 1.754)"/><circle class="c" cx="0.678" cy="0.678" r="0.678" transform="translate(4.384 1.754)"/><circle class="c" cx="0.678" cy="0.678" r="0.678" transform="translate(7.015 1.754)"/></g></g></g><g transform="translate(33.019)"><path class="d" d="M353.288,564.138a11.155,11.155,0,0,0-1.128,1.1,12.3,12.3,0,0,0,8.26,2.049c3.84-.466,4.14-1.718,4.14-1.718-.466-.435-1.677-1.294-1.677-1.294" transform="translate(-352.16 -550.562)"/><path class="e" d="M356.818,521.655a7.335,7.335,0,0,1,1.718-.994c.983-.393.8-.849,1.035-2.919a6.326,6.326,0,0,1-1.087-2.112,1.86,1.86,0,0,1-1.014-1.8c-.062-1.449.518-1.2.518-1.2a4.322,4.322,0,0,1,1.584-3.85c1.977-1.666,5.165.021,5.817,1.149a4.088,4.088,0,0,1,.549,3.24c-.3,1.056.269,2.091-.611,3.789s-1.356,1.925-2.132,2.236l.031.89a.724.724,0,0,0,.445.507c.373.134,2.753,1.2,2.753,1.2a24.216,24.216,0,0,1-4.989.632,10.375,10.375,0,0,1-4.616-.766" transform="translate(-355.69 -508.079)"/><path class="f" d="M374.67,551.747a4.072,4.072,0,0,1-2.722-1.884,3.915,3.915,0,0,0,2.7.983Z" transform="translate(-367.156 -539.744)"/><path class="g" d="M361.605,526.868s.869.217,1.056,1.542h.124l-.021-1.377Z" transform="translate(-359.318 -522.318)"/><path class="h" d="M363.618,559.736a26.951,26.951,0,0,1,2.753,1.2,16.16,16.16,0,0,1-4.989.632,10.283,10.283,0,0,1-4.606-.776,7.337,7.337,0,0,1,1.718-.994,7.384,7.384,0,0,0,4.3,1.729c2.184-.083.828-1.791.828-1.791" transform="translate(-355.658 -547.226)"/><path class="i" d="M386.174,533.014a2.37,2.37,0,0,0-1.056-.29c-.549,0-1.459,0-1.459,1.459a5.2,5.2,0,0,0,.435,1.666" transform="translate(-376.031 -526.755)"/><path class="j" d="M373.114,533.272a2.6,2.6,0,0,0-1.366-.548c-.807,0-1.253.269-1.253.683a.937.937,0,0,0,.725.88" transform="translate(-366.055 -526.755)"/><path class="k" d="M385.138,510.469c-.056.406-.4,3.746,2.2,4.608a4.1,4.1,0,0,0-.528-3.353A4.045,4.045,0,0,0,385.138,510.469Z" transform="translate(-377.118 -509.89)"/><path class="g" d="M361.505,512.629a4.322,4.322,0,0,1,1.584-3.85c1.977-1.666,5.165.021,5.817,1.149a4.824,4.824,0,0,1-2.174,2.7c-1.749,1.046-5.227,0-5.227,0" transform="translate(-359.218 -508.079)"/></g><g transform="translate(58.103 8.515)"><path class="d" d="M353.288,564.138a11.155,11.155,0,0,0-1.128,1.1,12.3,12.3,0,0,0,8.26,2.049c3.84-.466,4.14-1.718,4.14-1.718-.466-.435-1.677-1.294-1.677-1.294" transform="translate(-352.16 -550.562)"/><path class="e" d="M356.818,521.655a7.335,7.335,0,0,1,1.718-.994c.983-.393.8-.849,1.035-2.919a6.326,6.326,0,0,1-1.087-2.112,1.86,1.86,0,0,1-1.014-1.8c-.062-1.449.518-1.2.518-1.2a4.322,4.322,0,0,1,1.584-3.85c1.977-1.666,5.165.021,5.817,1.149a4.088,4.088,0,0,1,.549,3.24c-.3,1.056.269,2.091-.611,3.789s-1.356,1.925-2.132,2.236l.031.89a.724.724,0,0,0,.445.507c.373.134,2.753,1.2,2.753,1.2a24.216,24.216,0,0,1-4.989.632,10.375,10.375,0,0,1-4.616-.766" transform="translate(-355.69 -508.079)"/><path class="f" d="M374.67,551.747a4.072,4.072,0,0,1-2.722-1.884,3.915,3.915,0,0,0,2.7.983Z" transform="translate(-367.156 -539.744)"/><path class="g" d="M361.605,526.868s.869.217,1.056,1.542h.124l-.021-1.377Z" transform="translate(-359.318 -522.318)"/><path class="h" d="M363.618,559.736a26.951,26.951,0,0,1,2.753,1.2,16.16,16.16,0,0,1-4.989.632,10.283,10.283,0,0,1-4.606-.776,7.337,7.337,0,0,1,1.718-.994,7.384,7.384,0,0,0,4.3,1.729c2.184-.083.828-1.791.828-1.791" transform="translate(-355.658 -547.226)"/><path class="i" d="M386.174,533.014a2.37,2.37,0,0,0-1.056-.29c-.549,0-1.459,0-1.459,1.459a5.2,5.2,0,0,0,.435,1.666" transform="translate(-376.031 -526.755)"/><path class="j" d="M373.114,533.272a2.6,2.6,0,0,0-1.366-.548c-.807,0-1.253.269-1.253.683a.937.937,0,0,0,.725.88" transform="translate(-366.055 -526.755)"/><path class="k" d="M385.138,510.469c-.056.406-.4,3.746,2.2,4.608a4.1,4.1,0,0,0-.528-3.353A4.045,4.045,0,0,0,385.138,510.469Z" transform="translate(-377.118 -509.89)"/><path class="g" d="M361.505,512.629a4.322,4.322,0,0,1,1.584-3.85c1.977-1.666,5.165.021,5.817,1.149a4.824,4.824,0,0,1-2.174,2.7c-1.749,1.046-5.227,0-5.227,0" transform="translate(-359.218 -508.079)"/></g><g transform="translate(66.118 32.558)"><path class="d" d="M353.288,564.138a11.155,11.155,0,0,0-1.128,1.1,12.3,12.3,0,0,0,8.26,2.049c3.84-.466,4.14-1.718,4.14-1.718-.466-.435-1.677-1.294-1.677-1.294" transform="translate(-352.16 -550.562)"/><path class="e" d="M356.818,521.655a7.335,7.335,0,0,1,1.718-.994c.983-.393.8-.849,1.035-2.919a6.326,6.326,0,0,1-1.087-2.112,1.86,1.86,0,0,1-1.014-1.8c-.062-1.449.518-1.2.518-1.2a4.322,4.322,0,0,1,1.584-3.85c1.977-1.666,5.165.021,5.817,1.149a4.088,4.088,0,0,1,.549,3.24c-.3,1.056.269,2.091-.611,3.789s-1.356,1.925-2.132,2.236l.031.89a.724.724,0,0,0,.445.507c.373.134,2.753,1.2,2.753,1.2a24.216,24.216,0,0,1-4.989.632,10.375,10.375,0,0,1-4.616-.766" transform="translate(-355.69 -508.079)"/><path class="f" d="M374.67,551.747a4.072,4.072,0,0,1-2.722-1.884,3.915,3.915,0,0,0,2.7.983Z" transform="translate(-367.156 -539.744)"/><path class="g" d="M361.605,526.868s.869.217,1.056,1.542h.124l-.021-1.377Z" transform="translate(-359.318 -522.318)"/><path class="h" d="M363.618,559.736a26.951,26.951,0,0,1,2.753,1.2,16.16,16.16,0,0,1-4.989.632,10.283,10.283,0,0,1-4.606-.776,7.337,7.337,0,0,1,1.718-.994,7.384,7.384,0,0,0,4.3,1.729c2.184-.083.828-1.791.828-1.791" transform="translate(-355.658 -547.226)"/><path class="i" d="M386.174,533.014a2.37,2.37,0,0,0-1.056-.29c-.549,0-1.459,0-1.459,1.459a5.2,5.2,0,0,0,.435,1.666" transform="translate(-376.031 -526.755)"/><path class="j" d="M373.114,533.272a2.6,2.6,0,0,0-1.366-.548c-.807,0-1.253.269-1.253.683a.937.937,0,0,0,.725.88" transform="translate(-366.055 -526.755)"/><path class="k" d="M385.138,510.469c-.056.406-.4,3.746,2.2,4.608a4.1,4.1,0,0,0-.528-3.353A4.045,4.045,0,0,0,385.138,510.469Z" transform="translate(-377.118 -509.89)"/><path class="g" d="M361.505,512.629a4.322,4.322,0,0,1,1.584-3.85c1.977-1.666,5.165.021,5.817,1.149a4.824,4.824,0,0,1-2.174,2.7c-1.749,1.046-5.227,0-5.227,0" transform="translate(-359.218 -508.079)"/></g><g transform="translate(8.014 8.515)"><path class="d" d="M353.288,564.138a11.155,11.155,0,0,0-1.128,1.1,12.3,12.3,0,0,0,8.26,2.049c3.84-.466,4.14-1.718,4.14-1.718-.466-.435-1.677-1.294-1.677-1.294" transform="translate(-352.16 -550.562)"/><path class="e" d="M356.818,521.655a7.335,7.335,0,0,1,1.718-.994c.983-.393.8-.849,1.035-2.919a6.326,6.326,0,0,1-1.087-2.112,1.86,1.86,0,0,1-1.014-1.8c-.062-1.449.518-1.2.518-1.2a4.322,4.322,0,0,1,1.584-3.85c1.977-1.666,5.165.021,5.817,1.149a4.088,4.088,0,0,1,.549,3.24c-.3,1.056.269,2.091-.611,3.789s-1.356,1.925-2.132,2.236l.031.89a.724.724,0,0,0,.445.507c.373.134,2.753,1.2,2.753,1.2a24.216,24.216,0,0,1-4.989.632,10.375,10.375,0,0,1-4.616-.766" transform="translate(-355.69 -508.079)"/><path class="f" d="M374.67,551.747a4.072,4.072,0,0,1-2.722-1.884,3.915,3.915,0,0,0,2.7.983Z" transform="translate(-367.156 -539.744)"/><path class="g" d="M361.605,526.868s.869.217,1.056,1.542h.124l-.021-1.377Z" transform="translate(-359.318 -522.318)"/><path class="h" d="M363.618,559.736a26.951,26.951,0,0,1,2.753,1.2,16.16,16.16,0,0,1-4.989.632,10.283,10.283,0,0,1-4.606-.776,7.337,7.337,0,0,1,1.718-.994,7.384,7.384,0,0,0,4.3,1.729c2.184-.083.828-1.791.828-1.791" transform="translate(-355.658 -547.226)"/><path class="i" d="M386.174,533.014a2.37,2.37,0,0,0-1.056-.29c-.549,0-1.459,0-1.459,1.459a5.2,5.2,0,0,0,.435,1.666" transform="translate(-376.031 -526.755)"/><path class="j" d="M373.114,533.272a2.6,2.6,0,0,0-1.366-.548c-.807,0-1.253.269-1.253.683a.937.937,0,0,0,.725.88" transform="translate(-366.055 -526.755)"/><path class="k" d="M385.138,510.469c-.056.406-.4,3.746,2.2,4.608a4.1,4.1,0,0,0-.528-3.353A4.045,4.045,0,0,0,385.138,510.469Z" transform="translate(-377.118 -509.89)"/><path class="g" d="M361.505,512.629a4.322,4.322,0,0,1,1.584-3.85c1.977-1.666,5.165.021,5.817,1.149a4.824,4.824,0,0,1-2.174,2.7c-1.749,1.046-5.227,0-5.227,0" transform="translate(-359.218 -508.079)"/></g><g transform="translate(0 32.558)"><path class="d" d="M353.288,564.138a11.155,11.155,0,0,0-1.128,1.1,12.3,12.3,0,0,0,8.26,2.049c3.84-.466,4.14-1.718,4.14-1.718-.466-.435-1.677-1.294-1.677-1.294" transform="translate(-352.16 -550.562)"/><path class="e" d="M356.818,521.655a7.335,7.335,0,0,1,1.718-.994c.983-.393.8-.849,1.035-2.919a6.326,6.326,0,0,1-1.087-2.112,1.86,1.86,0,0,1-1.014-1.8c-.062-1.449.518-1.2.518-1.2a4.322,4.322,0,0,1,1.584-3.85c1.977-1.666,5.165.021,5.817,1.149a4.088,4.088,0,0,1,.549,3.24c-.3,1.056.269,2.091-.611,3.789s-1.356,1.925-2.132,2.236l.031.89a.724.724,0,0,0,.445.507c.373.134,2.753,1.2,2.753,1.2a24.216,24.216,0,0,1-4.989.632,10.375,10.375,0,0,1-4.616-.766" transform="translate(-355.69 -508.079)"/><path class="f" d="M374.67,551.747a4.072,4.072,0,0,1-2.722-1.884,3.915,3.915,0,0,0,2.7.983Z" transform="translate(-367.156 -539.744)"/><path class="g" d="M361.605,526.868s.869.217,1.056,1.542h.124l-.021-1.377Z" transform="translate(-359.318 -522.318)"/><path class="h" d="M363.618,559.736a26.951,26.951,0,0,1,2.753,1.2,16.16,16.16,0,0,1-4.989.632,10.283,10.283,0,0,1-4.606-.776,7.337,7.337,0,0,1,1.718-.994,7.384,7.384,0,0,0,4.3,1.729c2.184-.083.828-1.791.828-1.791" transform="translate(-355.658 -547.226)"/><path class="i" d="M386.174,533.014a2.37,2.37,0,0,0-1.056-.29c-.549,0-1.459,0-1.459,1.459a5.2,5.2,0,0,0,.435,1.666" transform="translate(-376.031 -526.755)"/><path class="j" d="M373.114,533.272a2.6,2.6,0,0,0-1.366-.548c-.807,0-1.253.269-1.253.683a.937.937,0,0,0,.725.88" transform="translate(-366.055 -526.755)"/><path class="k" d="M385.138,510.469c-.056.406-.4,3.746,2.2,4.608a4.1,4.1,0,0,0-.528-3.353A4.045,4.045,0,0,0,385.138,510.469Z" transform="translate(-377.118 -509.89)"/><path class="g" d="M361.505,512.629a4.322,4.322,0,0,1,1.584-3.85c1.977-1.666,5.165.021,5.817,1.149a4.824,4.824,0,0,1-2.174,2.7c-1.749,1.046-5.227,0-5.227,0" transform="translate(-359.218 -508.079)"/></g><g transform="translate(33.019 65.116)"><path class="d" d="M353.288,564.138a11.155,11.155,0,0,0-1.128,1.1,12.3,12.3,0,0,0,8.26,2.049c3.84-.466,4.14-1.718,4.14-1.718-.466-.435-1.677-1.294-1.677-1.294" transform="translate(-352.16 -550.562)"/><path class="e" d="M356.818,521.655a7.335,7.335,0,0,1,1.718-.994c.983-.393.8-.849,1.035-2.919a6.326,6.326,0,0,1-1.087-2.112,1.86,1.86,0,0,1-1.014-1.8c-.062-1.449.518-1.2.518-1.2a4.322,4.322,0,0,1,1.584-3.85c1.977-1.666,5.165.021,5.817,1.149a4.088,4.088,0,0,1,.549,3.24c-.3,1.056.269,2.091-.611,3.789s-1.356,1.925-2.132,2.236l.031.89a.724.724,0,0,0,.445.507c.373.134,2.753,1.2,2.753,1.2a24.216,24.216,0,0,1-4.989.632,10.375,10.375,0,0,1-4.616-.766" transform="translate(-355.69 -508.079)"/><path class="f" d="M374.67,551.747a4.072,4.072,0,0,1-2.722-1.884,3.915,3.915,0,0,0,2.7.983Z" transform="translate(-367.156 -539.744)"/><path class="g" d="M361.605,526.868s.869.217,1.056,1.542h.124l-.021-1.377Z" transform="translate(-359.318 -522.318)"/><path class="h" d="M363.618,559.736a26.951,26.951,0,0,1,2.753,1.2,16.16,16.16,0,0,1-4.989.632,10.283,10.283,0,0,1-4.606-.776,7.337,7.337,0,0,1,1.718-.994,7.384,7.384,0,0,0,4.3,1.729c2.184-.083.828-1.791.828-1.791" transform="translate(-355.658 -547.226)"/><path class="i" d="M386.174,533.014a2.37,2.37,0,0,0-1.056-.29c-.549,0-1.459,0-1.459,1.459a5.2,5.2,0,0,0,.435,1.666" transform="translate(-376.031 -526.755)"/><path class="j" d="M373.114,533.272a2.6,2.6,0,0,0-1.366-.548c-.807,0-1.253.269-1.253.683a.937.937,0,0,0,.725.88" transform="translate(-366.055 -526.755)"/><path class="k" d="M385.138,510.469c-.056.406-.4,3.746,2.2,4.608a4.1,4.1,0,0,0-.528-3.353A4.045,4.045,0,0,0,385.138,510.469Z" transform="translate(-377.118 -509.89)"/><path class="g" d="M361.505,512.629a4.322,4.322,0,0,1,1.584-3.85c1.977-1.666,5.165.021,5.817,1.149a4.824,4.824,0,0,1-2.174,2.7c-1.749,1.046-5.227,0-5.227,0" transform="translate(-359.218 -508.079)"/></g><g transform="translate(8.014 54.598)"><path class="d" d="M353.288,564.138a11.155,11.155,0,0,0-1.128,1.1,12.3,12.3,0,0,0,8.26,2.049c3.84-.466,4.14-1.718,4.14-1.718-.466-.435-1.677-1.294-1.677-1.294" transform="translate(-352.16 -550.562)"/><path class="e" d="M356.818,521.655a7.335,7.335,0,0,1,1.718-.994c.983-.393.8-.849,1.035-2.919a6.326,6.326,0,0,1-1.087-2.112,1.86,1.86,0,0,1-1.014-1.8c-.062-1.449.518-1.2.518-1.2a4.322,4.322,0,0,1,1.584-3.85c1.977-1.666,5.165.021,5.817,1.149a4.088,4.088,0,0,1,.549,3.24c-.3,1.056.269,2.091-.611,3.789s-1.356,1.925-2.132,2.236l.031.89a.724.724,0,0,0,.445.507c.373.134,2.753,1.2,2.753,1.2a24.216,24.216,0,0,1-4.989.632,10.375,10.375,0,0,1-4.616-.766" transform="translate(-355.69 -508.079)"/><path class="f" d="M374.67,551.747a4.072,4.072,0,0,1-2.722-1.884,3.915,3.915,0,0,0,2.7.983Z" transform="translate(-367.156 -539.744)"/><path class="g" d="M361.605,526.868s.869.217,1.056,1.542h.124l-.021-1.377Z" transform="translate(-359.318 -522.318)"/><path class="h" d="M363.618,559.736a26.951,26.951,0,0,1,2.753,1.2,16.16,16.16,0,0,1-4.989.632,10.283,10.283,0,0,1-4.606-.776,7.337,7.337,0,0,1,1.718-.994,7.384,7.384,0,0,0,4.3,1.729c2.184-.083.828-1.791.828-1.791" transform="translate(-355.658 -547.226)"/><path class="i" d="M386.174,533.014a2.37,2.37,0,0,0-1.056-.29c-.549,0-1.459,0-1.459,1.459a5.2,5.2,0,0,0,.435,1.666" transform="translate(-376.031 -526.755)"/><path class="j" d="M373.114,533.272a2.6,2.6,0,0,0-1.366-.548c-.807,0-1.253.269-1.253.683a.937.937,0,0,0,.725.88" transform="translate(-366.055 -526.755)"/><path class="k" d="M385.138,510.469c-.056.406-.4,3.746,2.2,4.608a4.1,4.1,0,0,0-.528-3.353A4.045,4.045,0,0,0,385.138,510.469Z" transform="translate(-377.118 -509.89)"/><path class="g" d="M361.505,512.629a4.322,4.322,0,0,1,1.584-3.85c1.977-1.666,5.165.021,5.817,1.149a4.824,4.824,0,0,1-2.174,2.7c-1.749,1.046-5.227,0-5.227,0" transform="translate(-359.218 -508.079)"/></g><g transform="translate(58.103 54.597)"><path class="d" d="M353.288,564.138a11.155,11.155,0,0,0-1.128,1.1,12.3,12.3,0,0,0,8.26,2.049c3.84-.466,4.14-1.718,4.14-1.718-.466-.435-1.677-1.294-1.677-1.294" transform="translate(-352.16 -550.562)"/><path class="e" d="M356.818,521.655a7.335,7.335,0,0,1,1.718-.994c.983-.393.8-.849,1.035-2.919a6.326,6.326,0,0,1-1.087-2.112,1.86,1.86,0,0,1-1.014-1.8c-.062-1.449.518-1.2.518-1.2a4.322,4.322,0,0,1,1.584-3.85c1.977-1.666,5.165.021,5.817,1.149a4.088,4.088,0,0,1,.549,3.24c-.3,1.056.269,2.091-.611,3.789s-1.356,1.925-2.132,2.236l.031.89a.724.724,0,0,0,.445.507c.373.134,2.753,1.2,2.753,1.2a24.216,24.216,0,0,1-4.989.632,10.375,10.375,0,0,1-4.616-.766" transform="translate(-355.69 -508.079)"/><path class="f" d="M374.67,551.747a4.072,4.072,0,0,1-2.722-1.884,3.915,3.915,0,0,0,2.7.983Z" transform="translate(-367.156 -539.744)"/><path class="g" d="M361.605,526.868s.869.217,1.056,1.542h.124l-.021-1.377Z" transform="translate(-359.318 -522.318)"/><path class="h" d="M363.618,559.736a26.951,26.951,0,0,1,2.753,1.2,16.16,16.16,0,0,1-4.989.632,10.283,10.283,0,0,1-4.606-.776,7.337,7.337,0,0,1,1.718-.994,7.384,7.384,0,0,0,4.3,1.729c2.184-.083.828-1.791.828-1.791" transform="translate(-355.658 -547.226)"/><path class="i" d="M386.174,533.014a2.37,2.37,0,0,0-1.056-.29c-.549,0-1.459,0-1.459,1.459a5.2,5.2,0,0,0,.435,1.666" transform="translate(-376.031 -526.755)"/><path class="j" d="M373.114,533.272a2.6,2.6,0,0,0-1.366-.548c-.807,0-1.253.269-1.253.683a.937.937,0,0,0,.725.88" transform="translate(-366.055 -526.755)"/><path class="k" d="M385.138,510.469c-.056.406-.4,3.746,2.2,4.608a4.1,4.1,0,0,0-.528-3.353A4.045,4.045,0,0,0,385.138,510.469Z" transform="translate(-377.118 -509.89)"/><path class="g" d="M361.505,512.629a4.322,4.322,0,0,1,1.584-3.85c1.977-1.666,5.165.021,5.817,1.149a4.824,4.824,0,0,1-2.174,2.7c-1.749,1.046-5.227,0-5.227,0" transform="translate(-359.218 -508.079)"/></g></g><g transform="translate(94.203 0)"><g transform="translate(21.539 19.535)"><g transform="translate(16.558 31.642)"><line class="a" y2="9.096" transform="translate(1.039)"/><ellipse class="a" cx="1.039" cy="1.039" rx="1.039" ry="1.039" transform="translate(0 9.271)"/></g><g transform="translate(0 29.553)"><line class="a" x1="5.234" y2="5.595" transform="translate(2.343 0)"/><circle class="a" cx="1.039" cy="1.039" r="1.039" transform="translate(1.469 4.93) rotate(45)"/></g><g transform="translate(28.05 29.553)"><line class="a" x2="5.234" y2="5.595" transform="translate(0)"/><circle class="a" cx="1.039" cy="1.039" r="1.039" transform="translate(7.577 6.399) rotate(135)"/></g><g transform="translate(16.558 0)"><line class="a" y1="9.095" transform="translate(1.039 2.254)"/><ellipse class="a" cx="1.039" cy="1.039" rx="1.039" ry="1.039"/></g><g transform="translate(0 4.568)"><line class="a" x1="5.234" y1="5.595" transform="translate(2.343 2.273)"/><circle class="a" cx="1.039" cy="1.039" r="1.039" transform="translate(0 1.469) rotate(-45)"/></g><g transform="translate(28.05 4.568)"><line class="a" y1="5.595" x2="5.234" transform="translate(0 2.273)"/><circle class="a" cx="1.039" cy="1.039" r="1.039" transform="translate(6.108 2.938) rotate(-135)"/></g><g transform="translate(982.927 199.623)"><g transform="translate(-973.869 -186.338)"><path class="b" d="M-971.438-186.338a2.441,2.441,0,0,0-2.431,2.431,2.441,2.441,0,0,0,2.431,2.431h13.63a2.441,2.441,0,0,0,2.431-2.431,2.441,2.441,0,0,0-2.431-2.431Z" transform="translate(973.869 186.338)"/><circle class="c" cx="0.678" cy="0.678" r="0.678" transform="translate(1.754 1.714)"/><circle class="c" cx="0.678" cy="0.678" r="0.678" transform="translate(4.384 1.714)"/><circle class="c" cx="0.678" cy="0.678" r="0.678" transform="translate(7.015 1.714)"/></g><g transform="translate(-973.869 -180.639)"><path class="b" d="M-971.438-171.206a2.441,2.441,0,0,0-2.431,2.431,2.415,2.415,0,0,0,2.431,2.431h13.63a2.441,2.441,0,0,0,2.431-2.431,2.415,2.415,0,0,0-2.431-2.431Z" transform="translate(973.869 171.206)"/><circle class="c" cx="0.678" cy="0.678" r="0.678" transform="translate(1.754 1.754)"/><circle class="c" cx="0.678" cy="0.678" r="0.678" transform="translate(4.384 1.754)"/><circle class="c" cx="0.678" cy="0.678" r="0.678" transform="translate(7.015 1.754)"/></g><g transform="translate(-973.869 -174.94)"><path class="b" d="M-971.438-156.074a2.441,2.441,0,0,0-2.431,2.431,2.415,2.415,0,0,0,2.431,2.431h13.63a2.441,2.441,0,0,0,2.431-2.431,2.415,2.415,0,0,0-2.431-2.431Z" transform="translate(973.869 156.074)"/><circle class="c" cx="0.678" cy="0.678" r="0.678" transform="translate(1.754 1.754)"/><circle class="c" cx="0.678" cy="0.678" r="0.678" transform="translate(4.384 1.754)"/><circle class="c" cx="0.678" cy="0.678" r="0.678" transform="translate(7.015 1.754)"/></g></g></g><g transform="translate(33.019 0)"><path class="d" d="M353.288,564.138a11.155,11.155,0,0,0-1.128,1.1,12.3,12.3,0,0,0,8.26,2.049c3.84-.466,4.14-1.718,4.14-1.718-.466-.435-1.677-1.294-1.677-1.294" transform="translate(-352.16 -550.562)"/><path class="e" d="M356.818,521.655a7.335,7.335,0,0,1,1.718-.994c.983-.393.8-.849,1.035-2.919a6.326,6.326,0,0,1-1.087-2.112,1.86,1.86,0,0,1-1.014-1.8c-.062-1.449.518-1.2.518-1.2a4.322,4.322,0,0,1,1.584-3.85c1.977-1.666,5.165.021,5.817,1.149a4.088,4.088,0,0,1,.549,3.24c-.3,1.056.269,2.091-.611,3.789s-1.356,1.925-2.132,2.236l.031.89a.724.724,0,0,0,.445.507c.373.134,2.753,1.2,2.753,1.2a24.216,24.216,0,0,1-4.989.632,10.375,10.375,0,0,1-4.616-.766" transform="translate(-355.69 -508.079)"/><path class="f" d="M374.67,551.747a4.072,4.072,0,0,1-2.722-1.884,3.915,3.915,0,0,0,2.7.983Z" transform="translate(-367.156 -539.744)"/><path class="g" d="M361.605,526.868s.869.217,1.056,1.542h.124l-.021-1.377Z" transform="translate(-359.318 -522.318)"/><path class="h" d="M363.618,559.736a26.951,26.951,0,0,1,2.753,1.2,16.16,16.16,0,0,1-4.989.632,10.283,10.283,0,0,1-4.606-.776,7.337,7.337,0,0,1,1.718-.994,7.384,7.384,0,0,0,4.3,1.729c2.184-.083.828-1.791.828-1.791" transform="translate(-355.658 -547.226)"/><path class="i" d="M386.174,533.014a2.37,2.37,0,0,0-1.056-.29c-.549,0-1.459,0-1.459,1.459a5.2,5.2,0,0,0,.435,1.666" transform="translate(-376.031 -526.755)"/><path class="j" d="M373.114,533.272a2.6,2.6,0,0,0-1.366-.548c-.807,0-1.253.269-1.253.683a.937.937,0,0,0,.725.88" transform="translate(-366.055 -526.755)"/><path class="k" d="M385.138,510.469c-.056.406-.4,3.746,2.2,4.608a4.1,4.1,0,0,0-.528-3.353A4.045,4.045,0,0,0,385.138,510.469Z" transform="translate(-377.118 -509.89)"/><path class="g" d="M361.505,512.629a4.322,4.322,0,0,1,1.584-3.85c1.977-1.666,5.165.021,5.817,1.149a4.824,4.824,0,0,1-2.174,2.7c-1.749,1.046-5.227,0-5.227,0" transform="translate(-359.218 -508.079)"/></g><g transform="translate(58.103 8.515)"><path class="d" d="M353.288,564.138a11.155,11.155,0,0,0-1.128,1.1,12.3,12.3,0,0,0,8.26,2.049c3.84-.466,4.14-1.718,4.14-1.718-.466-.435-1.677-1.294-1.677-1.294" transform="translate(-352.16 -550.562)"/><path class="e" d="M356.818,521.655a7.335,7.335,0,0,1,1.718-.994c.983-.393.8-.849,1.035-2.919a6.326,6.326,0,0,1-1.087-2.112,1.86,1.86,0,0,1-1.014-1.8c-.062-1.449.518-1.2.518-1.2a4.322,4.322,0,0,1,1.584-3.85c1.977-1.666,5.165.021,5.817,1.149a4.088,4.088,0,0,1,.549,3.24c-.3,1.056.269,2.091-.611,3.789s-1.356,1.925-2.132,2.236l.031.89a.724.724,0,0,0,.445.507c.373.134,2.753,1.2,2.753,1.2a24.216,24.216,0,0,1-4.989.632,10.375,10.375,0,0,1-4.616-.766" transform="translate(-355.69 -508.079)"/><path class="f" d="M374.67,551.747a4.072,4.072,0,0,1-2.722-1.884,3.915,3.915,0,0,0,2.7.983Z" transform="translate(-367.156 -539.744)"/><path class="g" d="M361.605,526.868s.869.217,1.056,1.542h.124l-.021-1.377Z" transform="translate(-359.318 -522.318)"/><path class="h" d="M363.618,559.736a26.951,26.951,0,0,1,2.753,1.2,16.16,16.16,0,0,1-4.989.632,10.283,10.283,0,0,1-4.606-.776,7.337,7.337,0,0,1,1.718-.994,7.384,7.384,0,0,0,4.3,1.729c2.184-.083.828-1.791.828-1.791" transform="translate(-355.658 -547.226)"/><path class="i" d="M386.174,533.014a2.37,2.37,0,0,0-1.056-.29c-.549,0-1.459,0-1.459,1.459a5.2,5.2,0,0,0,.435,1.666" transform="translate(-376.031 -526.755)"/><path class="j" d="M373.114,533.272a2.6,2.6,0,0,0-1.366-.548c-.807,0-1.253.269-1.253.683a.937.937,0,0,0,.725.88" transform="translate(-366.055 -526.755)"/><path class="k" d="M385.138,510.469c-.056.406-.4,3.746,2.2,4.608a4.1,4.1,0,0,0-.528-3.353A4.045,4.045,0,0,0,385.138,510.469Z" transform="translate(-377.118 -509.89)"/><path class="g" d="M361.505,512.629a4.322,4.322,0,0,1,1.584-3.85c1.977-1.666,5.165.021,5.817,1.149a4.824,4.824,0,0,1-2.174,2.7c-1.749,1.046-5.227,0-5.227,0" transform="translate(-359.218 -508.079)"/></g><g transform="translate(66.118 32.558)"><path class="d" d="M353.288,564.138a11.155,11.155,0,0,0-1.128,1.1,12.3,12.3,0,0,0,8.26,2.049c3.84-.466,4.14-1.718,4.14-1.718-.466-.435-1.677-1.294-1.677-1.294" transform="translate(-352.16 -550.562)"/><path class="e" d="M356.818,521.655a7.335,7.335,0,0,1,1.718-.994c.983-.393.8-.849,1.035-2.919a6.326,6.326,0,0,1-1.087-2.112,1.86,1.86,0,0,1-1.014-1.8c-.062-1.449.518-1.2.518-1.2a4.322,4.322,0,0,1,1.584-3.85c1.977-1.666,5.165.021,5.817,1.149a4.088,4.088,0,0,1,.549,3.24c-.3,1.056.269,2.091-.611,3.789s-1.356,1.925-2.132,2.236l.031.89a.724.724,0,0,0,.445.507c.373.134,2.753,1.2,2.753,1.2a24.216,24.216,0,0,1-4.989.632,10.375,10.375,0,0,1-4.616-.766" transform="translate(-355.69 -508.079)"/><path class="f" d="M374.67,551.747a4.072,4.072,0,0,1-2.722-1.884,3.915,3.915,0,0,0,2.7.983Z" transform="translate(-367.156 -539.744)"/><path class="g" d="M361.605,526.868s.869.217,1.056,1.542h.124l-.021-1.377Z" transform="translate(-359.318 -522.318)"/><path class="h" d="M363.618,559.736a26.951,26.951,0,0,1,2.753,1.2,16.16,16.16,0,0,1-4.989.632,10.283,10.283,0,0,1-4.606-.776,7.337,7.337,0,0,1,1.718-.994,7.384,7.384,0,0,0,4.3,1.729c2.184-.083.828-1.791.828-1.791" transform="translate(-355.658 -547.226)"/><path class="i" d="M386.174,533.014a2.37,2.37,0,0,0-1.056-.29c-.549,0-1.459,0-1.459,1.459a5.2,5.2,0,0,0,.435,1.666" transform="translate(-376.031 -526.755)"/><path class="j" d="M373.114,533.272a2.6,2.6,0,0,0-1.366-.548c-.807,0-1.253.269-1.253.683a.937.937,0,0,0,.725.88" transform="translate(-366.055 -526.755)"/><path class="k" d="M385.138,510.469c-.056.406-.4,3.746,2.2,4.608a4.1,4.1,0,0,0-.528-3.353A4.045,4.045,0,0,0,385.138,510.469Z" transform="translate(-377.118 -509.89)"/><path class="g" d="M361.505,512.629a4.322,4.322,0,0,1,1.584-3.85c1.977-1.666,5.165.021,5.817,1.149a4.824,4.824,0,0,1-2.174,2.7c-1.749,1.046-5.227,0-5.227,0" transform="translate(-359.218 -508.079)"/></g><g transform="translate(8.014 8.515)"><path class="d" d="M353.288,564.138a11.155,11.155,0,0,0-1.128,1.1,12.3,12.3,0,0,0,8.26,2.049c3.84-.466,4.14-1.718,4.14-1.718-.466-.435-1.677-1.294-1.677-1.294" transform="translate(-352.16 -550.562)"/><path class="e" d="M356.818,521.655a7.335,7.335,0,0,1,1.718-.994c.983-.393.8-.849,1.035-2.919a6.326,6.326,0,0,1-1.087-2.112,1.86,1.86,0,0,1-1.014-1.8c-.062-1.449.518-1.2.518-1.2a4.322,4.322,0,0,1,1.584-3.85c1.977-1.666,5.165.021,5.817,1.149a4.088,4.088,0,0,1,.549,3.24c-.3,1.056.269,2.091-.611,3.789s-1.356,1.925-2.132,2.236l.031.89a.724.724,0,0,0,.445.507c.373.134,2.753,1.2,2.753,1.2a24.216,24.216,0,0,1-4.989.632,10.375,10.375,0,0,1-4.616-.766" transform="translate(-355.69 -508.079)"/><path class="f" d="M374.67,551.747a4.072,4.072,0,0,1-2.722-1.884,3.915,3.915,0,0,0,2.7.983Z" transform="translate(-367.156 -539.744)"/><path class="g" d="M361.605,526.868s.869.217,1.056,1.542h.124l-.021-1.377Z" transform="translate(-359.318 -522.318)"/><path class="h" d="M363.618,559.736a26.951,26.951,0,0,1,2.753,1.2,16.16,16.16,0,0,1-4.989.632,10.283,10.283,0,0,1-4.606-.776,7.337,7.337,0,0,1,1.718-.994,7.384,7.384,0,0,0,4.3,1.729c2.184-.083.828-1.791.828-1.791" transform="translate(-355.658 -547.226)"/><path class="i" d="M386.174,533.014a2.37,2.37,0,0,0-1.056-.29c-.549,0-1.459,0-1.459,1.459a5.2,5.2,0,0,0,.435,1.666" transform="translate(-376.031 -526.755)"/><path class="j" d="M373.114,533.272a2.6,2.6,0,0,0-1.366-.548c-.807,0-1.253.269-1.253.683a.937.937,0,0,0,.725.88" transform="translate(-366.055 -526.755)"/><path class="k" d="M385.138,510.469c-.056.406-.4,3.746,2.2,4.608a4.1,4.1,0,0,0-.528-3.353A4.045,4.045,0,0,0,385.138,510.469Z" transform="translate(-377.118 -509.89)"/><path class="g" d="M361.505,512.629a4.322,4.322,0,0,1,1.584-3.85c1.977-1.666,5.165.021,5.817,1.149a4.824,4.824,0,0,1-2.174,2.7c-1.749,1.046-5.227,0-5.227,0" transform="translate(-359.218 -508.079)"/></g><g transform="translate(0 32.558)"><path class="d" d="M353.288,564.138a11.155,11.155,0,0,0-1.128,1.1,12.3,12.3,0,0,0,8.26,2.049c3.84-.466,4.14-1.718,4.14-1.718-.466-.435-1.677-1.294-1.677-1.294" transform="translate(-352.16 -550.562)"/><path class="e" d="M356.818,521.655a7.335,7.335,0,0,1,1.718-.994c.983-.393.8-.849,1.035-2.919a6.326,6.326,0,0,1-1.087-2.112,1.86,1.86,0,0,1-1.014-1.8c-.062-1.449.518-1.2.518-1.2a4.322,4.322,0,0,1,1.584-3.85c1.977-1.666,5.165.021,5.817,1.149a4.088,4.088,0,0,1,.549,3.24c-.3,1.056.269,2.091-.611,3.789s-1.356,1.925-2.132,2.236l.031.89a.724.724,0,0,0,.445.507c.373.134,2.753,1.2,2.753,1.2a24.216,24.216,0,0,1-4.989.632,10.375,10.375,0,0,1-4.616-.766" transform="translate(-355.69 -508.079)"/><path class="f" d="M374.67,551.747a4.072,4.072,0,0,1-2.722-1.884,3.915,3.915,0,0,0,2.7.983Z" transform="translate(-367.156 -539.744)"/><path class="g" d="M361.605,526.868s.869.217,1.056,1.542h.124l-.021-1.377Z" transform="translate(-359.318 -522.318)"/><path class="h" d="M363.618,559.736a26.951,26.951,0,0,1,2.753,1.2,16.16,16.16,0,0,1-4.989.632,10.283,10.283,0,0,1-4.606-.776,7.337,7.337,0,0,1,1.718-.994,7.384,7.384,0,0,0,4.3,1.729c2.184-.083.828-1.791.828-1.791" transform="translate(-355.658 -547.226)"/><path class="i" d="M386.174,533.014a2.37,2.37,0,0,0-1.056-.29c-.549,0-1.459,0-1.459,1.459a5.2,5.2,0,0,0,.435,1.666" transform="translate(-376.031 -526.755)"/><path class="j" d="M373.114,533.272a2.6,2.6,0,0,0-1.366-.548c-.807,0-1.253.269-1.253.683a.937.937,0,0,0,.725.88" transform="translate(-366.055 -526.755)"/><path class="k" d="M385.138,510.469c-.056.406-.4,3.746,2.2,4.608a4.1,4.1,0,0,0-.528-3.353A4.045,4.045,0,0,0,385.138,510.469Z" transform="translate(-377.118 -509.89)"/><path class="g" d="M361.505,512.629a4.322,4.322,0,0,1,1.584-3.85c1.977-1.666,5.165.021,5.817,1.149a4.824,4.824,0,0,1-2.174,2.7c-1.749,1.046-5.227,0-5.227,0" transform="translate(-359.218 -508.079)"/></g><g transform="translate(33.019 65.116)"><path class="d" d="M353.288,564.138a11.155,11.155,0,0,0-1.128,1.1,12.3,12.3,0,0,0,8.26,2.049c3.84-.466,4.14-1.718,4.14-1.718-.466-.435-1.677-1.294-1.677-1.294" transform="translate(-352.16 -550.562)"/><path class="e" d="M356.818,521.655a7.335,7.335,0,0,1,1.718-.994c.983-.393.8-.849,1.035-2.919a6.326,6.326,0,0,1-1.087-2.112,1.86,1.86,0,0,1-1.014-1.8c-.062-1.449.518-1.2.518-1.2a4.322,4.322,0,0,1,1.584-3.85c1.977-1.666,5.165.021,5.817,1.149a4.088,4.088,0,0,1,.549,3.24c-.3,1.056.269,2.091-.611,3.789s-1.356,1.925-2.132,2.236l.031.89a.724.724,0,0,0,.445.507c.373.134,2.753,1.2,2.753,1.2a24.216,24.216,0,0,1-4.989.632,10.375,10.375,0,0,1-4.616-.766" transform="translate(-355.69 -508.079)"/><path class="f" d="M374.67,551.747a4.072,4.072,0,0,1-2.722-1.884,3.915,3.915,0,0,0,2.7.983Z" transform="translate(-367.156 -539.744)"/><path class="g" d="M361.605,526.868s.869.217,1.056,1.542h.124l-.021-1.377Z" transform="translate(-359.318 -522.318)"/><path class="h" d="M363.618,559.736a26.951,26.951,0,0,1,2.753,1.2,16.16,16.16,0,0,1-4.989.632,10.283,10.283,0,0,1-4.606-.776,7.337,7.337,0,0,1,1.718-.994,7.384,7.384,0,0,0,4.3,1.729c2.184-.083.828-1.791.828-1.791" transform="translate(-355.658 -547.226)"/><path class="i" d="M386.174,533.014a2.37,2.37,0,0,0-1.056-.29c-.549,0-1.459,0-1.459,1.459a5.2,5.2,0,0,0,.435,1.666" transform="translate(-376.031 -526.755)"/><path class="j" d="M373.114,533.272a2.6,2.6,0,0,0-1.366-.548c-.807,0-1.253.269-1.253.683a.937.937,0,0,0,.725.88" transform="translate(-366.055 -526.755)"/><path class="k" d="M385.138,510.469c-.056.406-.4,3.746,2.2,4.608a4.1,4.1,0,0,0-.528-3.353A4.045,4.045,0,0,0,385.138,510.469Z" transform="translate(-377.118 -509.89)"/><path class="g" d="M361.505,512.629a4.322,4.322,0,0,1,1.584-3.85c1.977-1.666,5.165.021,5.817,1.149a4.824,4.824,0,0,1-2.174,2.7c-1.749,1.046-5.227,0-5.227,0" transform="translate(-359.218 -508.079)"/></g><g transform="translate(8.014 54.598)"><path class="d" d="M353.288,564.138a11.155,11.155,0,0,0-1.128,1.1,12.3,12.3,0,0,0,8.26,2.049c3.84-.466,4.14-1.718,4.14-1.718-.466-.435-1.677-1.294-1.677-1.294" transform="translate(-352.16 -550.562)"/><path class="e" d="M356.818,521.655a7.335,7.335,0,0,1,1.718-.994c.983-.393.8-.849,1.035-2.919a6.326,6.326,0,0,1-1.087-2.112,1.86,1.86,0,0,1-1.014-1.8c-.062-1.449.518-1.2.518-1.2a4.322,4.322,0,0,1,1.584-3.85c1.977-1.666,5.165.021,5.817,1.149a4.088,4.088,0,0,1,.549,3.24c-.3,1.056.269,2.091-.611,3.789s-1.356,1.925-2.132,2.236l.031.89a.724.724,0,0,0,.445.507c.373.134,2.753,1.2,2.753,1.2a24.216,24.216,0,0,1-4.989.632,10.375,10.375,0,0,1-4.616-.766" transform="translate(-355.69 -508.079)"/><path class="f" d="M374.67,551.747a4.072,4.072,0,0,1-2.722-1.884,3.915,3.915,0,0,0,2.7.983Z" transform="translate(-367.156 -539.744)"/><path class="g" d="M361.605,526.868s.869.217,1.056,1.542h.124l-.021-1.377Z" transform="translate(-359.318 -522.318)"/><path class="h" d="M363.618,559.736a26.951,26.951,0,0,1,2.753,1.2,16.16,16.16,0,0,1-4.989.632,10.283,10.283,0,0,1-4.606-.776,7.337,7.337,0,0,1,1.718-.994,7.384,7.384,0,0,0,4.3,1.729c2.184-.083.828-1.791.828-1.791" transform="translate(-355.658 -547.226)"/><path class="i" d="M386.174,533.014a2.37,2.37,0,0,0-1.056-.29c-.549,0-1.459,0-1.459,1.459a5.2,5.2,0,0,0,.435,1.666" transform="translate(-376.031 -526.755)"/><path class="j" d="M373.114,533.272a2.6,2.6,0,0,0-1.366-.548c-.807,0-1.253.269-1.253.683a.937.937,0,0,0,.725.88" transform="translate(-366.055 -526.755)"/><path class="k" d="M385.138,510.469c-.056.406-.4,3.746,2.2,4.608a4.1,4.1,0,0,0-.528-3.353A4.045,4.045,0,0,0,385.138,510.469Z" transform="translate(-377.118 -509.89)"/><path class="g" d="M361.505,512.629a4.322,4.322,0,0,1,1.584-3.85c1.977-1.666,5.165.021,5.817,1.149a4.824,4.824,0,0,1-2.174,2.7c-1.749,1.046-5.227,0-5.227,0" transform="translate(-359.218 -508.079)"/></g><g transform="translate(58.103 54.597)"><path class="d" d="M353.288,564.138a11.155,11.155,0,0,0-1.128,1.1,12.3,12.3,0,0,0,8.26,2.049c3.84-.466,4.14-1.718,4.14-1.718-.466-.435-1.677-1.294-1.677-1.294" transform="translate(-352.16 -550.562)"/><path class="e" d="M356.818,521.655a7.335,7.335,0,0,1,1.718-.994c.983-.393.8-.849,1.035-2.919a6.326,6.326,0,0,1-1.087-2.112,1.86,1.86,0,0,1-1.014-1.8c-.062-1.449.518-1.2.518-1.2a4.322,4.322,0,0,1,1.584-3.85c1.977-1.666,5.165.021,5.817,1.149a4.088,4.088,0,0,1,.549,3.24c-.3,1.056.269,2.091-.611,3.789s-1.356,1.925-2.132,2.236l.031.89a.724.724,0,0,0,.445.507c.373.134,2.753,1.2,2.753,1.2a24.216,24.216,0,0,1-4.989.632,10.375,10.375,0,0,1-4.616-.766" transform="translate(-355.69 -508.079)"/><path class="f" d="M374.67,551.747a4.072,4.072,0,0,1-2.722-1.884,3.915,3.915,0,0,0,2.7.983Z" transform="translate(-367.156 -539.744)"/><path class="g" d="M361.605,526.868s.869.217,1.056,1.542h.124l-.021-1.377Z" transform="translate(-359.318 -522.318)"/><path class="h" d="M363.618,559.736a26.951,26.951,0,0,1,2.753,1.2,16.16,16.16,0,0,1-4.989.632,10.283,10.283,0,0,1-4.606-.776,7.337,7.337,0,0,1,1.718-.994,7.384,7.384,0,0,0,4.3,1.729c2.184-.083.828-1.791.828-1.791" transform="translate(-355.658 -547.226)"/><path class="i" d="M386.174,533.014a2.37,2.37,0,0,0-1.056-.29c-.549,0-1.459,0-1.459,1.459a5.2,5.2,0,0,0,.435,1.666" transform="translate(-376.031 -526.755)"/><path class="j" d="M373.114,533.272a2.6,2.6,0,0,0-1.366-.548c-.807,0-1.253.269-1.253.683a.937.937,0,0,0,.725.88" transform="translate(-366.055 -526.755)"/><path class="k" d="M385.138,510.469c-.056.406-.4,3.746,2.2,4.608a4.1,4.1,0,0,0-.528-3.353A4.045,4.045,0,0,0,385.138,510.469Z" transform="translate(-377.118 -509.89)"/><path class="g" d="M361.505,512.629a4.322,4.322,0,0,1,1.584-3.85c1.977-1.666,5.165.021,5.817,1.149a4.824,4.824,0,0,1-2.174,2.7c-1.749,1.046-5.227,0-5.227,0" transform="translate(-359.218 -508.079)"/></g></g></svg>