<svg xmlns="http://www.w3.org/2000/svg" width="75" height="75" viewBox="0 0 75 75">
  <g id="Group_3999" data-name="Group 3999" transform="translate(-1680.104 -4065.451)">
    <circle id="Ellipse_315" data-name="Ellipse 315" cx="36.777" cy="36.777" r="36.777" transform="translate(1680.104 4065.451)" fill="#fff"/>
    <g id="Group_2884" data-name="Group 2884" transform="translate(1681 4066)">
      <rect id="Rectangle_555" data-name="Rectangle 555" width="74.104" height="74.451" transform="translate(0)" fill="none"/>
      <g id="card-outline" transform="translate(12.556 18.722)">
        <path id="Path_2502" data-name="Path 2502" d="M9.938,6.75H45.563a6.563,6.563,0,0,1,6.562,6.563V37.688a6.563,6.563,0,0,1-6.562,6.562H9.938a6.563,6.563,0,0,1-6.563-6.562V13.313A6.563,6.563,0,0,1,9.938,6.75Z" transform="translate(-3.375 -6.75)" fill="none" stroke="#7ebfab" stroke-linecap="round" stroke-linejoin="round" stroke-width="4"/>
        <path id="Path_2503" data-name="Path 2503" d="M3.375,13.5h48.75" transform="translate(-3.375 -2.25)" fill="none" stroke="#7ebfab" stroke-linejoin="round" stroke-width="4.219"/>
        <path id="Path_2504" data-name="Path 2504" d="M9,21.094h5.625v2.343H9Z" transform="translate(0.375 2.813)" fill="none" stroke="#7ebfab" stroke-linejoin="round" stroke-width="4.219"/>
      </g>
      <path id="finger-print-outline" d="M14.152,2.991a.329.329,0,0,1-.167-.045,8.242,8.242,0,0,0-8.1,0,.362.362,0,0,1-.5-.152.39.39,0,0,1,.146-.513,8.961,8.961,0,0,1,8.789-.007.378.378,0,0,1,.153.506.356.356,0,0,1-.32.211ZM3.74,6.957a.369.369,0,0,1-.211-.068.386.386,0,0,1-.087-.529A7.607,7.607,0,0,1,6.17,3.89a8.126,8.126,0,0,1,7.5-.008A7.642,7.642,0,0,1,16.4,6.337a.387.387,0,0,1-.087.529.355.355,0,0,1-.509-.09,6.909,6.909,0,0,0-2.467-2.221A7.413,7.413,0,0,0,6.5,4.562,6.994,6.994,0,0,0,4.024,6.8.315.315,0,0,1,3.74,6.957Zm4.548,9.119a.336.336,0,0,1-.255-.113,7.641,7.641,0,0,1-1.462-2,6.894,6.894,0,0,1-.764-3.279,4.119,4.119,0,0,1,8.238,0,.364.364,0,1,1-.727,0,3.392,3.392,0,0,0-6.783,0A6.1,6.1,0,0,0,7.211,13.6a7.156,7.156,0,0,0,1.346,1.828.4.4,0,0,1,0,.535.392.392,0,0,1-.269.116Zm5.217-1.4a3.814,3.814,0,0,1-2.256-.672A4.063,4.063,0,0,1,9.518,10.69a.364.364,0,1,1,.728,0,3.282,3.282,0,0,0,1.411,2.69,3.1,3.1,0,0,0,1.848.535,4.64,4.64,0,0,0,.756-.076.364.364,0,0,1,.422.31.375.375,0,0,1-.3.438,4.793,4.793,0,0,1-.88.09Zm-1.462,1.555a.409.409,0,0,1-.094-.015,5.707,5.707,0,0,1-4.286-5.53,2.241,2.241,0,0,1,4.482,0,1.514,1.514,0,0,0,3.027,0A5.221,5.221,0,0,0,9.9,5.529,5.292,5.292,0,0,0,5.086,8.573a5.024,5.024,0,0,0-.429,2.115,7.764,7.764,0,0,0,.487,2.727.373.373,0,0,1-.211.483.357.357,0,0,1-.466-.22,8.7,8.7,0,0,1-.531-2.99A5.861,5.861,0,0,1,4.431,8.24,6.015,6.015,0,0,1,15.9,10.68a2.241,2.241,0,0,1-4.482,0,1.514,1.514,0,0,0-3.027,0A4.853,4.853,0,0,0,9.75,14.086a4.922,4.922,0,0,0,2.379,1.4.377.377,0,0,1,.255.461.359.359,0,0,1-.342.288Z" transform="translate(36.663 34.545)" fill="#7ebfab"/>
    </g>
  </g>
</svg>
