<svg xmlns="http://www.w3.org/2000/svg" width="75" height="75" viewBox="0 0 75 75">
  <g id="Group_2881" data-name="Group 2881" transform="translate(-1417 -4479)">
    <circle id="Ellipse_374" data-name="Ellipse 374" cx="37.5" cy="37.5" r="37.5" transform="translate(1417 4479)" fill="#fff"/>
    <path id="document-blank" d="M40.269,14.672,28.358,2.761a1.546,1.546,0,0,0-1.19-.511H10.153a3.414,3.414,0,0,0-3.4,3.4V46.489a3.414,3.414,0,0,0,3.4,3.4H37.377a3.414,3.414,0,0,0,3.4-3.4V15.862a1.546,1.546,0,0,0-.51-1.19Zm-13.1-8.338L36.7,15.862H27.168ZM37.377,46.489H10.153V5.653H23.765V15.862a3.414,3.414,0,0,0,3.4,3.4H37.377Z" transform="translate(1432.188 4489.795)" fill="#7ebfab"/>
  </g>
</svg>
