<svg xmlns="http://www.w3.org/2000/svg" xmlns:xlink="http://www.w3.org/1999/xlink" width="156.756" height="163.539" viewBox="0 0 156.756 163.539"><defs><style>.a{fill:#eee;}.b{fill:#5fbda4;}.c{fill:none;stroke:#4e4d4d;stroke-linecap:round;stroke-linejoin:round;stroke-width:1.5px;}.d{fill:#75b69b;}.e{fill:#9e7054;}.f{fill:#795644;}.g{fill:#282928;}.h{fill:#5c8e77;}.i{fill:url(#a);}.j{fill:url(#b);}.k{fill:#232322;}</style><linearGradient id="a" x1="0.663" y1="-4.204" x2="0.088" y2="-4.667" gradientUnits="objectBoundingBox"><stop offset="0" stop-color="#9e7054"/><stop offset="0.335" stop-color="#986b52"/><stop offset="0.782" stop-color="#855f49"/><stop offset="1" stop-color="#795644"/></linearGradient><linearGradient id="b" x1="0.58" y1="-8.807" x2="0.392" y2="-9.675" gradientUnits="objectBoundingBox"><stop offset="0" stop-color="#9e7054"/><stop offset="0.349" stop-color="#9a6d52"/><stop offset="0.682" stop-color="#8d644c"/><stop offset="1" stop-color="#795644"/></linearGradient></defs><g transform="translate(-125 -4070)"><g transform="translate(0.18 -0.329)"><g transform="translate(1157.869 4321.338)"><g transform="translate(-973.869 -186.338)"><path class="a" d="M-968.886-186.338a5,5,0,0,0-4.983,4.983,5,5,0,0,0,4.983,4.983h27.938a5,5,0,0,0,4.983-4.983,5,5,0,0,0-4.983-4.983Z" transform="translate(973.869 186.338)"/><circle class="b" cx="1.389" cy="1.389" r="1.389" transform="translate(3.594 3.513)"/><circle class="b" cx="1.389" cy="1.389" r="1.389" transform="translate(8.986 3.513)"/><circle class="b" cx="1.389" cy="1.389" r="1.389" transform="translate(14.378 3.513)"/></g><g transform="translate(-973.869 -174.656)"><path class="a" d="M-968.886-171.206a5,5,0,0,0-4.983,4.983,4.951,4.951,0,0,0,4.983,4.983h27.938a5,5,0,0,0,4.983-4.983,4.951,4.951,0,0,0-4.983-4.983Z" transform="translate(973.869 171.206)"/><circle class="b" cx="1.389" cy="1.389" r="1.389" transform="translate(3.594 3.594)"/><circle class="b" cx="1.389" cy="1.389" r="1.389" transform="translate(8.986 3.594)"/><circle class="b" cx="1.389" cy="1.389" r="1.389" transform="translate(14.378 3.594)"/></g><g transform="translate(-973.869 -162.975)"><path class="a" d="M-968.886-156.074a5,5,0,0,0-4.983,4.983,4.951,4.951,0,0,0,4.983,4.983h27.938a5,5,0,0,0,4.983-4.983,4.951,4.951,0,0,0-4.983-4.983Z" transform="translate(973.869 156.074)"/><circle class="b" cx="1.389" cy="1.389" r="1.389" transform="translate(3.594 3.595)"/><circle class="b" cx="1.389" cy="1.389" r="1.389" transform="translate(8.986 3.595)"/><circle class="b" cx="1.389" cy="1.389" r="1.389" transform="translate(14.378 3.595)"/></g></g><g transform="translate(0 6)"><line class="c" y2="18.16" transform="translate(202.953 4166.5)"/><circle class="c" cx="2.074" cy="2.074" r="2.074" transform="translate(200.879 4185.009)"/></g><g transform="translate(0 6)"><line class="c" x1="10.449" y2="11.171" transform="translate(172.5 4162.329)"/><circle class="c" cx="2.074" cy="2.074" r="2.074" transform="translate(170.756 4172.171) rotate(45)"/></g><g transform="translate(223.822 4168.329)"><line class="c" x2="10.45" y2="11.171" transform="translate(0)"/><circle class="c" cx="2.074" cy="2.074" r="2.074" transform="translate(15.127 12.775) rotate(135)"/></g><g transform="translate(0 6)"><line class="c" y1="18.157" transform="translate(202.953 4107.829)"/><ellipse class="c" cx="2.074" cy="2.074" rx="2.074" ry="2.074" transform="translate(200.879 4103.329)"/></g><g transform="translate(167.822 4118.449)"><line class="c" x1="10.449" y1="11.171" transform="translate(4.677 4.537)"/><circle class="c" cx="2.074" cy="2.074" r="2.074" transform="translate(0 2.933) rotate(-45)"/></g><g transform="translate(223.822 4118.448)"><line class="c" y1="11.171" x2="10.45" transform="translate(0 4.537)"/><circle class="c" cx="2.074" cy="2.074" r="2.074" transform="translate(12.194 5.866) rotate(-135)"/></g></g><g transform="translate(-161.24 3561.921)"><path class="d" d="M354.412,564.138a22.277,22.277,0,0,0-2.252,2.19c1.859,1.612,8.8,5,16.49,4.092,7.667-.93,8.266-3.43,8.266-3.43-.93-.868-3.348-2.583-3.348-2.583" transform="translate(0 -28.955)"/><path class="e" d="M356.818,535.183a14.646,14.646,0,0,1,3.43-1.984c1.963-.785,1.591-1.695,2.066-5.828,0,0-2.046-2.728-2.17-4.216,0,0-1.921-.7-2.025-3.6-.124-2.893,1.033-2.4,1.033-2.4a8.629,8.629,0,0,1,3.162-7.687c3.947-3.327,10.312.041,11.614,2.294a8.162,8.162,0,0,1,1.1,6.468c-.6,2.108.538,4.174-1.219,7.563-1.757,3.41-2.707,3.843-4.257,4.464l.062,1.777a1.445,1.445,0,0,0,.889,1.013c.744.268,5.5,2.4,5.5,2.4-1.736.021-3.513,1.261-9.961,1.261s-9.216-1.529-9.216-1.529" transform="translate(-2.406)"/><path class="f" d="M377.383,553.624c-4.133-1.033-5.435-3.761-5.435-3.761,1.839,2.066,5.393,1.963,5.393,1.963Z" transform="translate(-10.221 -21.582)"/><path class="g" d="M361.605,526.868s1.736.434,2.108,3.079h.248l-.042-2.749Z" transform="translate(-4.878 -9.705)"/><path class="h" d="M370.435,559.736a53.947,53.947,0,0,1,5.5,2.4,32.26,32.26,0,0,1-9.961,1.261c-6.406,0-9.2-1.55-9.2-1.55a14.637,14.637,0,0,1,3.43-1.984s4.257,3.637,8.576,3.451c4.36-.165,1.653-3.575,1.653-3.575" transform="translate(-2.384 -26.681)"/><path class="i" d="M388.681,533.3a4.732,4.732,0,0,0-2.108-.578c-1.1,0-2.914,0-2.914,2.914a10.388,10.388,0,0,0,.868,3.327" transform="translate(-16.269 -12.729)"/><path class="j" d="M375.723,533.819a5.191,5.191,0,0,0-2.727-1.1c-1.612,0-2.5.537-2.5,1.364a1.87,1.87,0,0,0,1.447,1.757" transform="translate(-9.47 -12.729)"/><path class="k" d="M385.183,510.469c-.112.81-.792,7.479,4.4,9.2a8.176,8.176,0,0,0-1.055-6.694A8.074,8.074,0,0,0,385.183,510.469Z" transform="translate(-17.01 -1.235)"/><path class="g" d="M361.537,517.163a8.629,8.629,0,0,1,3.162-7.687c3.947-3.327,10.312.042,11.614,2.294a9.63,9.63,0,0,1-4.339,5.393c-3.492,2.087-10.436,0-10.436,0" transform="translate(-4.81 0)"/></g><g transform="translate(-111.16 3578.921)"><path class="d" d="M354.412,564.138a22.277,22.277,0,0,0-2.252,2.19c1.859,1.612,8.8,5,16.49,4.092,7.667-.93,8.266-3.43,8.266-3.43-.93-.868-3.348-2.583-3.348-2.583" transform="translate(0 -28.955)"/><path class="e" d="M356.818,535.183a14.646,14.646,0,0,1,3.43-1.984c1.963-.785,1.591-1.695,2.066-5.828,0,0-2.046-2.728-2.17-4.216,0,0-1.921-.7-2.025-3.6-.124-2.893,1.033-2.4,1.033-2.4a8.629,8.629,0,0,1,3.162-7.687c3.947-3.327,10.312.041,11.614,2.294a8.162,8.162,0,0,1,1.1,6.468c-.6,2.108.538,4.174-1.219,7.563-1.757,3.41-2.707,3.843-4.257,4.464l.062,1.777a1.445,1.445,0,0,0,.889,1.013c.744.268,5.5,2.4,5.5,2.4-1.736.021-3.513,1.261-9.961,1.261s-9.216-1.529-9.216-1.529" transform="translate(-2.406)"/><path class="f" d="M377.383,553.624c-4.133-1.033-5.435-3.761-5.435-3.761,1.839,2.066,5.393,1.963,5.393,1.963Z" transform="translate(-10.221 -21.582)"/><path class="g" d="M361.605,526.868s1.736.434,2.108,3.079h.248l-.042-2.749Z" transform="translate(-4.878 -9.705)"/><path class="h" d="M370.435,559.736a53.947,53.947,0,0,1,5.5,2.4,32.26,32.26,0,0,1-9.961,1.261c-6.406,0-9.2-1.55-9.2-1.55a14.637,14.637,0,0,1,3.43-1.984s4.257,3.637,8.576,3.451c4.36-.165,1.653-3.575,1.653-3.575" transform="translate(-2.384 -26.681)"/><path class="i" d="M388.681,533.3a4.732,4.732,0,0,0-2.108-.578c-1.1,0-2.914,0-2.914,2.914a10.388,10.388,0,0,0,.868,3.327" transform="translate(-16.269 -12.729)"/><path class="j" d="M375.723,533.819a5.191,5.191,0,0,0-2.727-1.1c-1.612,0-2.5.537-2.5,1.364a1.87,1.87,0,0,0,1.447,1.757" transform="translate(-9.47 -12.729)"/><path class="k" d="M385.183,510.469c-.112.81-.792,7.479,4.4,9.2a8.176,8.176,0,0,0-1.055-6.694A8.074,8.074,0,0,0,385.183,510.469Z" transform="translate(-17.01 -1.235)"/><path class="g" d="M361.537,517.163a8.629,8.629,0,0,1,3.162-7.687c3.947-3.327,10.312.042,11.614,2.294a9.63,9.63,0,0,1-4.339,5.393c-3.492,2.087-10.436,0-10.436,0" transform="translate(-4.81 0)"/></g><g transform="translate(-95.16 3626.921)"><path class="d" d="M354.412,564.138a22.277,22.277,0,0,0-2.252,2.19c1.859,1.612,8.8,5,16.49,4.092,7.667-.93,8.266-3.43,8.266-3.43-.93-.868-3.348-2.583-3.348-2.583" transform="translate(0 -28.955)"/><path class="e" d="M356.818,535.183a14.646,14.646,0,0,1,3.43-1.984c1.963-.785,1.591-1.695,2.066-5.828,0,0-2.046-2.728-2.17-4.216,0,0-1.921-.7-2.025-3.6-.124-2.893,1.033-2.4,1.033-2.4a8.629,8.629,0,0,1,3.162-7.687c3.947-3.327,10.312.041,11.614,2.294a8.162,8.162,0,0,1,1.1,6.468c-.6,2.108.538,4.174-1.219,7.563-1.757,3.41-2.707,3.843-4.257,4.464l.062,1.777a1.445,1.445,0,0,0,.889,1.013c.744.268,5.5,2.4,5.5,2.4-1.736.021-3.513,1.261-9.961,1.261s-9.216-1.529-9.216-1.529" transform="translate(-2.406)"/><path class="f" d="M377.383,553.624c-4.133-1.033-5.435-3.761-5.435-3.761,1.839,2.066,5.393,1.963,5.393,1.963Z" transform="translate(-10.221 -21.582)"/><path class="g" d="M361.605,526.868s1.736.434,2.108,3.079h.248l-.042-2.749Z" transform="translate(-4.878 -9.705)"/><path class="h" d="M370.435,559.736a53.947,53.947,0,0,1,5.5,2.4,32.26,32.26,0,0,1-9.961,1.261c-6.406,0-9.2-1.55-9.2-1.55a14.637,14.637,0,0,1,3.43-1.984s4.257,3.637,8.576,3.451c4.36-.165,1.653-3.575,1.653-3.575" transform="translate(-2.384 -26.681)"/><path class="i" d="M388.681,533.3a4.732,4.732,0,0,0-2.108-.578c-1.1,0-2.914,0-2.914,2.914a10.388,10.388,0,0,0,.868,3.327" transform="translate(-16.269 -12.729)"/><path class="j" d="M375.723,533.819a5.191,5.191,0,0,0-2.727-1.1c-1.612,0-2.5.537-2.5,1.364a1.87,1.87,0,0,0,1.447,1.757" transform="translate(-9.47 -12.729)"/><path class="k" d="M385.183,510.469c-.112.81-.792,7.479,4.4,9.2a8.176,8.176,0,0,0-1.055-6.694A8.074,8.074,0,0,0,385.183,510.469Z" transform="translate(-17.01 -1.235)"/><path class="g" d="M361.537,517.163a8.629,8.629,0,0,1,3.162-7.687c3.947-3.327,10.312.042,11.614,2.294a9.63,9.63,0,0,1-4.339,5.393c-3.492,2.087-10.436,0-10.436,0" transform="translate(-4.81 0)"/></g><g transform="translate(-211.16 3578.921)"><path class="d" d="M354.412,564.138a22.277,22.277,0,0,0-2.252,2.19c1.859,1.612,8.8,5,16.49,4.092,7.667-.93,8.266-3.43,8.266-3.43-.93-.868-3.348-2.583-3.348-2.583" transform="translate(0 -28.955)"/><path class="e" d="M356.818,535.183a14.646,14.646,0,0,1,3.43-1.984c1.963-.785,1.591-1.695,2.066-5.828,0,0-2.046-2.728-2.17-4.216,0,0-1.921-.7-2.025-3.6-.124-2.893,1.033-2.4,1.033-2.4a8.629,8.629,0,0,1,3.162-7.687c3.947-3.327,10.312.041,11.614,2.294a8.162,8.162,0,0,1,1.1,6.468c-.6,2.108.538,4.174-1.219,7.563-1.757,3.41-2.707,3.843-4.257,4.464l.062,1.777a1.445,1.445,0,0,0,.889,1.013c.744.268,5.5,2.4,5.5,2.4-1.736.021-3.513,1.261-9.961,1.261s-9.216-1.529-9.216-1.529" transform="translate(-2.406)"/><path class="f" d="M377.383,553.624c-4.133-1.033-5.435-3.761-5.435-3.761,1.839,2.066,5.393,1.963,5.393,1.963Z" transform="translate(-10.221 -21.582)"/><path class="g" d="M361.605,526.868s1.736.434,2.108,3.079h.248l-.042-2.749Z" transform="translate(-4.878 -9.705)"/><path class="h" d="M370.435,559.736a53.947,53.947,0,0,1,5.5,2.4,32.26,32.26,0,0,1-9.961,1.261c-6.406,0-9.2-1.55-9.2-1.55a14.637,14.637,0,0,1,3.43-1.984s4.257,3.637,8.576,3.451c4.36-.165,1.653-3.575,1.653-3.575" transform="translate(-2.384 -26.681)"/><path class="i" d="M388.681,533.3a4.732,4.732,0,0,0-2.108-.578c-1.1,0-2.914,0-2.914,2.914a10.388,10.388,0,0,0,.868,3.327" transform="translate(-16.269 -12.729)"/><path class="j" d="M375.723,533.819a5.191,5.191,0,0,0-2.727-1.1c-1.612,0-2.5.537-2.5,1.364a1.87,1.87,0,0,0,1.447,1.757" transform="translate(-9.47 -12.729)"/><path class="k" d="M385.183,510.469c-.112.81-.792,7.479,4.4,9.2a8.176,8.176,0,0,0-1.055-6.694A8.074,8.074,0,0,0,385.183,510.469Z" transform="translate(-17.01 -1.235)"/><path class="g" d="M361.537,517.163a8.629,8.629,0,0,1,3.162-7.687c3.947-3.327,10.312.042,11.614,2.294a9.63,9.63,0,0,1-4.339,5.393c-3.492,2.087-10.436,0-10.436,0" transform="translate(-4.81 0)"/></g><g transform="translate(-227.16 3626.922)"><path class="d" d="M354.412,564.138a22.277,22.277,0,0,0-2.252,2.19c1.859,1.612,8.8,5,16.49,4.092,7.667-.93,8.266-3.43,8.266-3.43-.93-.868-3.348-2.583-3.348-2.583" transform="translate(0 -28.955)"/><path class="e" d="M356.818,535.183a14.646,14.646,0,0,1,3.43-1.984c1.963-.785,1.591-1.695,2.066-5.828,0,0-2.046-2.728-2.17-4.216,0,0-1.921-.7-2.025-3.6-.124-2.893,1.033-2.4,1.033-2.4a8.629,8.629,0,0,1,3.162-7.687c3.947-3.327,10.312.041,11.614,2.294a8.162,8.162,0,0,1,1.1,6.468c-.6,2.108.538,4.174-1.219,7.563-1.757,3.41-2.707,3.843-4.257,4.464l.062,1.777a1.445,1.445,0,0,0,.889,1.013c.744.268,5.5,2.4,5.5,2.4-1.736.021-3.513,1.261-9.961,1.261s-9.216-1.529-9.216-1.529" transform="translate(-2.406)"/><path class="f" d="M377.383,553.624c-4.133-1.033-5.435-3.761-5.435-3.761,1.839,2.066,5.393,1.963,5.393,1.963Z" transform="translate(-10.221 -21.582)"/><path class="g" d="M361.605,526.868s1.736.434,2.108,3.079h.248l-.042-2.749Z" transform="translate(-4.878 -9.705)"/><path class="h" d="M370.435,559.736a53.947,53.947,0,0,1,5.5,2.4,32.26,32.26,0,0,1-9.961,1.261c-6.406,0-9.2-1.55-9.2-1.55a14.637,14.637,0,0,1,3.43-1.984s4.257,3.637,8.576,3.451c4.36-.165,1.653-3.575,1.653-3.575" transform="translate(-2.384 -26.681)"/><path class="i" d="M388.681,533.3a4.732,4.732,0,0,0-2.108-.578c-1.1,0-2.914,0-2.914,2.914a10.388,10.388,0,0,0,.868,3.327" transform="translate(-16.269 -12.729)"/><path class="j" d="M375.723,533.819a5.191,5.191,0,0,0-2.727-1.1c-1.612,0-2.5.537-2.5,1.364a1.87,1.87,0,0,0,1.447,1.757" transform="translate(-9.47 -12.729)"/><path class="k" d="M385.183,510.469c-.112.81-.792,7.479,4.4,9.2a8.176,8.176,0,0,0-1.055-6.694A8.074,8.074,0,0,0,385.183,510.469Z" transform="translate(-17.01 -1.235)"/><path class="g" d="M361.537,517.163a8.629,8.629,0,0,1,3.162-7.687c3.947-3.327,10.312.042,11.614,2.294a9.63,9.63,0,0,1-4.339,5.393c-3.492,2.087-10.436,0-10.436,0" transform="translate(-4.81 0)"/></g><g transform="translate(-161.24 3691.922)"><path class="d" d="M354.412,564.138a22.277,22.277,0,0,0-2.252,2.19c1.859,1.612,8.8,5,16.49,4.092,7.667-.93,8.266-3.43,8.266-3.43-.93-.868-3.348-2.583-3.348-2.583" transform="translate(0 -28.955)"/><path class="e" d="M356.818,535.183a14.646,14.646,0,0,1,3.43-1.984c1.963-.785,1.591-1.695,2.066-5.828,0,0-2.046-2.728-2.17-4.216,0,0-1.921-.7-2.025-3.6-.124-2.893,1.033-2.4,1.033-2.4a8.629,8.629,0,0,1,3.162-7.687c3.947-3.327,10.312.041,11.614,2.294a8.162,8.162,0,0,1,1.1,6.468c-.6,2.108.538,4.174-1.219,7.563-1.757,3.41-2.707,3.843-4.257,4.464l.062,1.777a1.445,1.445,0,0,0,.889,1.013c.744.268,5.5,2.4,5.5,2.4-1.736.021-3.513,1.261-9.961,1.261s-9.216-1.529-9.216-1.529" transform="translate(-2.406)"/><path class="f" d="M377.383,553.624c-4.133-1.033-5.435-3.761-5.435-3.761,1.839,2.066,5.393,1.963,5.393,1.963Z" transform="translate(-10.221 -21.582)"/><path class="g" d="M361.605,526.868s1.736.434,2.108,3.079h.248l-.042-2.749Z" transform="translate(-4.878 -9.705)"/><path class="h" d="M370.435,559.736a53.947,53.947,0,0,1,5.5,2.4,32.26,32.26,0,0,1-9.961,1.261c-6.406,0-9.2-1.55-9.2-1.55a14.637,14.637,0,0,1,3.43-1.984s4.257,3.637,8.576,3.451c4.36-.165,1.653-3.575,1.653-3.575" transform="translate(-2.384 -26.681)"/><path class="i" d="M388.681,533.3a4.732,4.732,0,0,0-2.108-.578c-1.1,0-2.914,0-2.914,2.914a10.388,10.388,0,0,0,.868,3.327" transform="translate(-16.269 -12.729)"/><path class="j" d="M375.723,533.819a5.191,5.191,0,0,0-2.727-1.1c-1.612,0-2.5.537-2.5,1.364a1.87,1.87,0,0,0,1.447,1.757" transform="translate(-9.47 -12.729)"/><path class="k" d="M385.183,510.469c-.112.81-.792,7.479,4.4,9.2a8.176,8.176,0,0,0-1.055-6.694A8.074,8.074,0,0,0,385.183,510.469Z" transform="translate(-17.01 -1.235)"/><path class="g" d="M361.537,517.163a8.629,8.629,0,0,1,3.162-7.687c3.947-3.327,10.312.042,11.614,2.294a9.63,9.63,0,0,1-4.339,5.393c-3.492,2.087-10.436,0-10.436,0" transform="translate(-4.81 0)"/></g><g transform="translate(-211.16 3670.922)"><path class="d" d="M354.412,564.138a22.277,22.277,0,0,0-2.252,2.19c1.859,1.612,8.8,5,16.49,4.092,7.667-.93,8.266-3.43,8.266-3.43-.93-.868-3.348-2.583-3.348-2.583" transform="translate(0 -28.955)"/><path class="e" d="M356.818,535.183a14.646,14.646,0,0,1,3.43-1.984c1.963-.785,1.591-1.695,2.066-5.828,0,0-2.046-2.728-2.17-4.216,0,0-1.921-.7-2.025-3.6-.124-2.893,1.033-2.4,1.033-2.4a8.629,8.629,0,0,1,3.162-7.687c3.947-3.327,10.312.041,11.614,2.294a8.162,8.162,0,0,1,1.1,6.468c-.6,2.108.538,4.174-1.219,7.563-1.757,3.41-2.707,3.843-4.257,4.464l.062,1.777a1.445,1.445,0,0,0,.889,1.013c.744.268,5.5,2.4,5.5,2.4-1.736.021-3.513,1.261-9.961,1.261s-9.216-1.529-9.216-1.529" transform="translate(-2.406)"/><path class="f" d="M377.383,553.624c-4.133-1.033-5.435-3.761-5.435-3.761,1.839,2.066,5.393,1.963,5.393,1.963Z" transform="translate(-10.221 -21.582)"/><path class="g" d="M361.605,526.868s1.736.434,2.108,3.079h.248l-.042-2.749Z" transform="translate(-4.878 -9.705)"/><path class="h" d="M370.435,559.736a53.947,53.947,0,0,1,5.5,2.4,32.26,32.26,0,0,1-9.961,1.261c-6.406,0-9.2-1.55-9.2-1.55a14.637,14.637,0,0,1,3.43-1.984s4.257,3.637,8.576,3.451c4.36-.165,1.653-3.575,1.653-3.575" transform="translate(-2.384 -26.681)"/><path class="i" d="M388.681,533.3a4.732,4.732,0,0,0-2.108-.578c-1.1,0-2.914,0-2.914,2.914a10.388,10.388,0,0,0,.868,3.327" transform="translate(-16.269 -12.729)"/><path class="j" d="M375.723,533.819a5.191,5.191,0,0,0-2.727-1.1c-1.612,0-2.5.537-2.5,1.364a1.87,1.87,0,0,0,1.447,1.757" transform="translate(-9.47 -12.729)"/><path class="k" d="M385.183,510.469c-.112.81-.792,7.479,4.4,9.2a8.176,8.176,0,0,0-1.055-6.694A8.074,8.074,0,0,0,385.183,510.469Z" transform="translate(-17.01 -1.235)"/><path class="g" d="M361.537,517.163a8.629,8.629,0,0,1,3.162-7.687c3.947-3.327,10.312.042,11.614,2.294a9.63,9.63,0,0,1-4.339,5.393c-3.492,2.087-10.436,0-10.436,0" transform="translate(-4.81 0)"/></g><g transform="translate(-111.16 3670.921)"><path class="d" d="M354.412,564.138a22.277,22.277,0,0,0-2.252,2.19c1.859,1.612,8.8,5,16.49,4.092,7.667-.93,8.266-3.43,8.266-3.43-.93-.868-3.348-2.583-3.348-2.583" transform="translate(0 -28.955)"/><path class="e" d="M356.818,535.183a14.646,14.646,0,0,1,3.43-1.984c1.963-.785,1.591-1.695,2.066-5.828,0,0-2.046-2.728-2.17-4.216,0,0-1.921-.7-2.025-3.6-.124-2.893,1.033-2.4,1.033-2.4a8.629,8.629,0,0,1,3.162-7.687c3.947-3.327,10.312.041,11.614,2.294a8.162,8.162,0,0,1,1.1,6.468c-.6,2.108.538,4.174-1.219,7.563-1.757,3.41-2.707,3.843-4.257,4.464l.062,1.777a1.445,1.445,0,0,0,.889,1.013c.744.268,5.5,2.4,5.5,2.4-1.736.021-3.513,1.261-9.961,1.261s-9.216-1.529-9.216-1.529" transform="translate(-2.406)"/><path class="f" d="M377.383,553.624c-4.133-1.033-5.435-3.761-5.435-3.761,1.839,2.066,5.393,1.963,5.393,1.963Z" transform="translate(-10.221 -21.582)"/><path class="g" d="M361.605,526.868s1.736.434,2.108,3.079h.248l-.042-2.749Z" transform="translate(-4.878 -9.705)"/><path class="h" d="M370.435,559.736a53.947,53.947,0,0,1,5.5,2.4,32.26,32.26,0,0,1-9.961,1.261c-6.406,0-9.2-1.55-9.2-1.55a14.637,14.637,0,0,1,3.43-1.984s4.257,3.637,8.576,3.451c4.36-.165,1.653-3.575,1.653-3.575" transform="translate(-2.384 -26.681)"/><path class="i" d="M388.681,533.3a4.732,4.732,0,0,0-2.108-.578c-1.1,0-2.914,0-2.914,2.914a10.388,10.388,0,0,0,.868,3.327" transform="translate(-16.269 -12.729)"/><path class="j" d="M375.723,533.819a5.191,5.191,0,0,0-2.727-1.1c-1.612,0-2.5.537-2.5,1.364a1.87,1.87,0,0,0,1.447,1.757" transform="translate(-9.47 -12.729)"/><path class="k" d="M385.183,510.469c-.112.81-.792,7.479,4.4,9.2a8.176,8.176,0,0,0-1.055-6.694A8.074,8.074,0,0,0,385.183,510.469Z" transform="translate(-17.01 -1.235)"/><path class="g" d="M361.537,517.163a8.629,8.629,0,0,1,3.162-7.687c3.947-3.327,10.312.042,11.614,2.294a9.63,9.63,0,0,1-4.339,5.393c-3.492,2.087-10.436,0-10.436,0" transform="translate(-4.81 0)"/></g></g></svg>