<svg xmlns="http://www.w3.org/2000/svg" xmlns:xlink="http://www.w3.org/1999/xlink" width="136.004" height="181.088" viewBox="0 0 136.004 181.088"><defs><style>.a,.j,.k,.l,.m,.n,.r{fill:none;}.b{fill:#68b699;}.c{clip-path:url(#a);}.d{opacity:0.2;}.e{fill:#868281;}.f{fill:#e99d00;}.g{fill:#5f5c5a;}.h{fill:#608f77;}.i{fill:#9c9695;}.j,.k,.l,.m,.n,.r{stroke:#4e4d4d;}.j,.k,.n,.r{stroke-linecap:round;}.j,.k,.r{stroke-linejoin:round;}.j{stroke-width:1.5px;}.k,.r{stroke-width:0.5px;}.l,.n{stroke-width:2px;}.m{stroke-width:3px;}.o{fill:#787573;}.p{fill:#f7f8f9;}.q{fill:#7eb79c;}.r{stroke-dasharray:1 3 1 3 1 3;}.s{fill:#b68966;}</style><clipPath id="a"><rect class="a" width="86.125" height="55.28" rx="3.647"/></clipPath></defs><g transform="translate(0)"><g transform="translate(49.879 60.826)"><path class="b" d="M181.852,405.405A3.511,3.511,0,0,1,178.447,402V353.53a3.511,3.511,0,0,1,3.405-3.405h79.315a3.51,3.51,0,0,1,3.405,3.405V402a3.51,3.51,0,0,1-3.405,3.405Z" transform="translate(-178.447 -350.125)"/><g transform="translate(0 0)"><g class="c"><g class="d" transform="translate(68.466 3.171)"><g transform="translate(0.2 0)"><path class="e" d="M274.653,398.854a22.666,22.666,0,1,1,22.666-22.666A22.692,22.692,0,0,1,274.653,398.854Zm0-44.064a21.4,21.4,0,1,0,21.4,21.4A21.422,21.422,0,0,0,274.653,354.79Z" transform="translate(-251.987 -353.522)"/></g><g transform="translate(22.232 0)"><path class="e" d="M276.217,399.054a.634.634,0,0,1-.634-.634V354.156a.634.634,0,0,1,1.269,0V398.42A.635.635,0,0,1,276.217,399.054Z" transform="translate(-275.583 -353.522)"/></g><g transform="translate(9.213)"><path class="e" d="M274.892,398.854a.635.635,0,0,1-.38-.127c-8.27-6.2-12.841-14.15-12.872-22.38-.032-8.29,4.539-16.35,12.869-22.7a.634.634,0,1,1,.768,1.008c-8.006,6.1-12.4,13.8-12.368,21.683.029,7.823,4.42,15.411,12.364,21.369a.634.634,0,0,1-.381,1.142Z" transform="translate(-261.64 -353.522)"/></g><g transform="translate(22.432 0)"><path class="e" d="M276.432,398.854a.634.634,0,0,1-.381-1.142c7.943-5.958,12.335-13.547,12.364-21.369.03-7.883-4.362-15.583-12.368-21.683a.634.634,0,1,1,.768-1.008c8.33,6.346,12.9,14.406,12.869,22.7-.032,8.23-4.6,16.178-12.872,22.38A.634.634,0,0,1,276.432,398.854Z" transform="translate(-275.797 -353.522)"/></g><g transform="translate(0 22.432)"><path class="e" d="M274.515,391.433c-8.261,0-16.288-4.567-22.612-12.869a.634.634,0,1,1,1.008-.768c6.079,7.978,13.749,12.368,21.6,12.368h.079c7.823-.03,15.411-4.421,21.369-12.364a.634.634,0,1,1,1.015.761c-6.2,8.269-14.15,12.841-22.379,12.872Z" transform="translate(-251.773 -377.546)"/></g><g transform="translate(0 9.213)"><path class="e" d="M296.471,377.275a.631.631,0,0,1-.508-.253c-5.958-7.944-13.546-12.335-21.369-12.364h-.079c-7.855,0-15.524,4.389-21.6,12.368a.634.634,0,1,1-1.008-.769c6.324-8.3,14.351-12.868,22.612-12.868h.085c8.229.031,16.177,4.6,22.379,12.871a.634.634,0,0,1-.507,1.015Z" transform="translate(-251.773 -363.389)"/></g><g transform="translate(0.2 22.032)"><path class="e" d="M296.685,378.386H252.622a.634.634,0,1,1,0-1.269h44.064a.634.634,0,0,1,0,1.269Z" transform="translate(-251.987 -377.117)"/></g></g></g></g><g transform="translate(58.186 15.925)"><path class="f" d="M258.709,370.7v13.019a3.164,3.164,0,0,1-3.2,3.2H244.288a3.164,3.164,0,0,1-3.2-3.2V370.7a3.164,3.164,0,0,1,3.2-3.2H255.5A3.3,3.3,0,0,1,258.709,370.7Z" transform="translate(-240.784 -367.201)"/><path class="g" d="M255.483,387.207H244.266a3.467,3.467,0,0,1-3.5-3.5V370.683a3.466,3.466,0,0,1,3.5-3.5l11.25,0a3.575,3.575,0,0,1,3.471,3.5V383.7A3.467,3.467,0,0,1,255.483,387.207Zm-11.217-19.428a2.873,2.873,0,0,0-2.9,2.9V383.7a2.874,2.874,0,0,0,2.9,2.906h11.217a2.874,2.874,0,0,0,2.9-2.906V370.683a3,3,0,0,0-2.922-2.9Z" transform="translate(-240.763 -367.18)"/><g transform="translate(4.206 0.201)"><path class="g" d="M252.777,375.2h-5.608a1.882,1.882,0,0,1-1.9-1.9v-5.608a.3.3,0,0,1,.6,0V373.3a1.277,1.277,0,0,0,1.3,1.3h5.608a1.276,1.276,0,0,0,1.3-1.3v-5.608a.3.3,0,0,1,.6,0V373.3A1.883,1.883,0,0,1,252.777,375.2Z" transform="translate(-245.268 -367.395)"/></g><g transform="translate(4.406 12.418)"><path class="g" d="M254.593,388.073a.3.3,0,0,1-.3-.3v-5.392a1.276,1.276,0,0,0-1.3-1.3h-5.609a1.276,1.276,0,0,0-1.3,1.3v5.392a.3.3,0,1,1-.6,0v-5.392a1.884,1.884,0,0,1,1.9-1.9h5.609a1.883,1.883,0,0,1,1.9,1.9v5.392A.3.3,0,0,1,254.593,388.073Z" transform="translate(-245.482 -380.479)"/></g><g transform="translate(6.209 7.411)"><path class="g" d="M247.712,380.722a.3.3,0,0,1-.3-.3v-5.008a.3.3,0,0,1,.6,0v5.008A.3.3,0,0,1,247.712,380.722Z" transform="translate(-247.413 -375.117)"/></g><g transform="translate(11.216 7.411)"><path class="g" d="M253.075,380.722a.3.3,0,0,1-.3-.3v-5.008a.3.3,0,0,1,.6,0v5.008A.3.3,0,0,1,253.075,380.722Z" transform="translate(-252.775 -375.117)"/></g><g transform="translate(8.813 12.418)"><path class="g" d="M250.5,388.073a.3.3,0,0,1-.3-.3v-6.995a.3.3,0,1,1,.6,0v6.995A.3.3,0,0,1,250.5,388.073Z" transform="translate(-250.201 -380.479)"/></g><g transform="translate(8.813 0.201)"><path class="g" d="M250.5,375.2a.3.3,0,0,1-.3-.3v-7.21a.3.3,0,0,1,.6,0v7.21A.3.3,0,0,1,250.5,375.2Z" transform="translate(-250.201 -367.395)"/></g><g transform="translate(0.2 14.821)"><path class="g" d="M245.482,383.651h-4.206a.3.3,0,1,1,0-.6h4.206a.3.3,0,1,1,0,.6Z" transform="translate(-240.977 -383.053)"/></g><g transform="translate(13.234 14.821)"><path class="g" d="M259.627,383.651h-4.391a.3.3,0,1,1,0-.6h4.391a.3.3,0,0,1,0,.6Z" transform="translate(-254.936 -383.053)"/></g><g transform="translate(13.019 5.008)"><path class="g" d="M259.612,373.141H255a.3.3,0,1,1,0-.6h4.607a.3.3,0,0,1,0,.6Z" transform="translate(-254.706 -372.543)"/></g><g transform="translate(0.2 5.008)"><path class="g" d="M245.267,373.141h-3.991a.3.3,0,1,1,0-.6h3.991a.3.3,0,0,1,0,.6Z" transform="translate(-240.977 -372.543)"/></g></g><g transform="translate(4.207 16.424)"><rect class="h" width="41.059" height="3.805"/></g><g transform="translate(4.207 29.643)"><rect class="h" width="1.001" height="5.608"/><g transform="translate(1.803)"><rect class="h" width="3.205" height="5.608"/></g><g transform="translate(5.408)"><rect class="h" width="5.208" height="5.608"/></g><g transform="translate(11.216)"><rect class="h" width="2.404" height="5.608"/></g><g transform="translate(14.421)"><rect class="h" width="1.202" height="5.608"/></g><g transform="translate(16.223)"><rect class="h" width="6.61" height="5.608"/></g><g transform="translate(23.234)"><rect class="h" width="4.206" height="5.608"/></g><g transform="translate(28.041)"><rect class="h" width="0.801" height="5.608"/></g></g><g transform="translate(0.201 46.067)"><rect class="i" width="85.924" height="1.602"/></g><g transform="translate(4.559 5.177)"><path class="i" d="M185.945,356.295l-.341.327a1.033,1.033,0,0,0-.938-.516c-.459,0-.658.2-.658.455,0,.194.108.342.483.427l.635.142c.6.137.834.4.834.82,0,.578-.5.943-1.241.943a1.614,1.614,0,0,1-1.388-.655l.351-.35a1.161,1.161,0,0,0,1.051.569c.436,0,.7-.157.7-.45,0-.18-.1-.331-.436-.4l-.686-.157c-.569-.123-.835-.4-.835-.82,0-.53.46-.957,1.219-.957A1.419,1.419,0,0,1,185.945,356.295Z" transform="translate(-183.33 -355.669)"/><g transform="translate(4.287 0.048)"><path class="i" d="M191.119,358.847h-.464v-1.81l.033-.863h0l-.952,2.672h-.422l-.952-2.672h0l.038.863v1.81h-.47V355.72h.753l.63,1.81.218.744h.01l.222-.744.626-1.81h.739Z" transform="translate(-187.921 -355.72)"/></g><g transform="translate(8.991 0.048)"><path class="i" d="M195.1,358.027h-1.317l-.3.82h-.521l1.179-3.127h.607l1.179,3.127h-.535Zm-.151-.412-.36-1-.142-.45h-.014l-.133.441-.37,1.014Z" transform="translate(-192.959 -355.72)"/></g><g transform="translate(13.458 0.048)"><path class="i" d="M199.714,358.847l-.8-1.251h-.672v1.251h-.5V355.72h1.275c.668,0,1.094.36,1.094.929a.845.845,0,0,1-.678.866l.863,1.332Zm-1.469-1.672h.734c.407,0,.607-.166.607-.512s-.2-.512-.607-.512h-.734Z" transform="translate(-197.743 -355.72)"/></g><g transform="translate(17.19 0.048)"><path class="i" d="M204.389,356.156h-1.071v2.691h-.507v-2.691H201.74v-.436h2.649Z" transform="translate(-201.74 -355.72)"/></g><g transform="translate(23.59)"><path class="i" d="M210.067,358.891a1.618,1.618,0,0,1,0-3.222,1.214,1.214,0,0,1,1.251.767l-.479.214a.707.707,0,0,0-.743-.541c-.583,0-.966.427-.966,1.171s.355,1.17.951,1.17a.786.786,0,0,0,.8-.6l.484.161A1.283,1.283,0,0,1,210.067,358.891Z" transform="translate(-208.594 -355.669)"/></g><g transform="translate(27.583 0.048)"><path class="i" d="M215.007,358.027h-1.317l-.3.82h-.521l1.179-3.127h.607l1.179,3.127H215.3Zm-.151-.412-.36-1-.142-.45h-.014l-.134.441-.369,1.014Z" transform="translate(-212.871 -355.72)"/></g><g transform="translate(32.05 0.048)"><path class="i" d="M219.625,358.847l-.8-1.251h-.673v1.251h-.5V355.72h1.275c.668,0,1.094.36,1.094.929a.845.845,0,0,1-.678.866l.862,1.332Zm-1.469-1.672h.735c.407,0,.607-.166.607-.512s-.2-.512-.607-.512h-.735Z" transform="translate(-217.655 -355.72)"/></g><g transform="translate(36.18 0.048)"><path class="i" d="M224.736,357.284a1.417,1.417,0,0,1-1.554,1.563h-1.1V355.72h1.1A1.417,1.417,0,0,1,224.736,357.284Zm-.53,0c0-.721-.365-1.133-1.023-1.133h-.6v2.264h.6C223.841,358.416,224.206,358,224.206,357.284Z" transform="translate(-222.078 -355.72)"/></g></g></g><g transform="translate(86.701 124.072)"><g transform="translate(0)"><g transform="translate(3.467 7.684)"><path class="j" d="M295.942,367.411,310.7,395.148l-8.159,4.341-14.763-27.737" transform="translate(-287.749 -363.01)"/><path class="j" d="M295.939,367.1l-4.213-1.523-.554.295-1.688-3.173-1.737.924,1.686,3.181-.554.295-1.1,4.343" transform="translate(-287.747 -362.697)"/></g><line class="k" x1="4.335" y1="8.148"/></g><line class="k" x1="4.079" y2="2.17" transform="translate(9.051 14.842)"/><line class="k" x1="2.636" y2="1.402" transform="translate(12.73 19.045)"/><line class="k" x1="4.079" y2="2.17" transform="translate(13.523 23.247)"/><line class="k" x1="2.636" y2="1.402" transform="translate(17.202 27.45)"/><line class="k" x1="4.079" y2="2.17" transform="translate(17.995 31.653)"/><path class="l" d="M0,6.989,12.025,0" transform="matrix(1, 0.017, -0.017, 1, 16.744, 38.858)"/><path class="m" d="M0,0,6.195,12" transform="matrix(1, -0.017, 0.017, 1, 22.296, 41.716)"/><path class="n" d="M0,3.711,6.522,0" transform="matrix(1, 0.017, -0.017, 1, 25.471, 51.805)"/></g><g transform="translate(0 54.174)"><g transform="translate(4.985 6.294)"><g transform="translate(3.624 10.371)"><path class="o" d="M133.77,411.653a.685.685,0,0,1-.114-.009.754.754,0,0,1-.633-.858l7.048-46.619a.754.754,0,0,1,.746-.641h4.531a.755.755,0,0,1,.745.634l7.45,46.115a.755.755,0,0,1-1.49.24l-7.348-45.48h-3.239l-6.951,45.976A.755.755,0,0,1,133.77,411.653Z" transform="translate(-133.014 -363.526)"/></g><g transform="translate(0 56.989)"><path class="o" d="M156.786,408.278H130.406a.755.755,0,0,1,0-1.509h26.381a.755.755,0,1,1,0,1.509Z" transform="translate(-129.652 -406.769)"/></g><g transform="translate(3.624 24.668)"><path class="o" d="M133.769,410.618a.754.754,0,0,1-.432-1.372l8.759-6.131-6.547-4.616a.755.755,0,0,1-.062-1.184l6.742-5.913-5.126-4.428a.754.754,0,0,1-.023-1.122l4.955-4.639-3.528-3.1a.755.755,0,0,1,.5-1.321h8.054a.755.755,0,0,1,.516,1.306l-3.3,3.085,5.293,4.658a.755.755,0,0,1,0,1.133l-5.044,4.423,6.852,5.917a.754.754,0,0,1-.06,1.189l-6.6,4.619,7.406,5.222a.754.754,0,1,1-.869,1.233l-7.851-5.536-9.2,6.443A.754.754,0,0,1,133.769,410.618Zm3.432-12.8,6.207,4.377,6.25-4.375-6.277-5.422Zm1.521-11.437,4.652,4.017,4.556-4-4.758-4.187ZM141,378.3l2.137,1.88,2.01-1.88Z" transform="translate(-133.014 -376.788)"/></g><g transform="translate(12.888)"><path class="o" d="M142.361,380.083a.754.754,0,0,1-.754-.755V354.66a.754.754,0,0,1,1.508,0v24.669A.754.754,0,0,1,142.361,380.083Z" transform="translate(-141.607 -353.906)"/></g><g transform="translate(10.571 3.021)"><ellipse class="p" cx="2.215" cy="2.215" rx="2.215" ry="2.215" transform="translate(0.755 0.754)"/><path class="o" d="M142.428,362.647a2.969,2.969,0,1,1,2.97-2.97A2.974,2.974,0,0,1,142.428,362.647Zm0-4.431a1.461,1.461,0,1,0,1.461,1.461A1.463,1.463,0,0,0,142.428,358.216Z" transform="translate(-139.458 -356.708)"/></g></g><g transform="translate(4.228 2.214)"><path class="q" d="M130.662,359.084a10.566,10.566,0,0,1,3.323-7.653l-1.207-1.309a12.075,12.075,0,0,0-3.827,8.962,12.633,12.633,0,0,0,3.827,8.961l1.207-1.309A10.562,10.562,0,0,1,130.662,359.084Z" transform="translate(-128.95 -350.122)"/></g><g transform="translate(27.991 2.316)"><path class="q" d="M154.315,359.076a10.562,10.562,0,0,1-3.322,7.652l1.207,1.309a12.013,12.013,0,0,0,3.827-8.86,12.633,12.633,0,0,0-3.827-8.961l-1.207,1.309A10.169,10.169,0,0,1,154.315,359.076Z" transform="translate(-150.993 -350.216)"/></g><g transform="translate(31.314 0.1)"><path class="q" d="M155.283,348.161l-1.208,1.208a13.612,13.612,0,0,1,4.329,9.867,13.236,13.236,0,0,1-4.329,9.867l1.208,1.309a15.223,15.223,0,0,0,0-22.252Z" transform="translate(-154.075 -348.161)"/></g><g transform="translate(8.759 4.732)"><path class="q" d="M134.966,358.9a7.318,7.318,0,0,1,2.214-5.136l-1.207-1.309a8.772,8.772,0,0,0,0,12.888l1.207-1.309A7.314,7.314,0,0,1,134.966,358.9Z" transform="translate(-133.153 -352.457)"/></g><path class="q" d="M129.861,370.42l1.208-1.309a13.61,13.61,0,0,1-4.329-9.867,13.234,13.234,0,0,1,4.329-9.867l-1.208-1.309a15.447,15.447,0,0,0-4.833,11.075A15.181,15.181,0,0,0,129.861,370.42Z" transform="translate(-125.028 -348.068)"/><g transform="translate(24.467 4.732)"><path class="q" d="M149.938,358.9a7.314,7.314,0,0,1-2.214,5.135l1.207,1.309a8.772,8.772,0,0,0,0-12.888l-1.207,1.309A6.924,6.924,0,0,1,149.938,358.9Z" transform="translate(-147.724 -352.457)"/></g></g><g transform="translate(65.079)"><line class="r" y2="17.382" transform="translate(32.217 31.033)"/><line class="k" x2="20.806" transform="translate(4.908 41.232)"/><line class="k" x2="15.7" transform="translate(4.908 44.424)"/><path class="j" d="M247.72,309.686a1.528,1.528,0,0,1,1.529,1.528v2.621c-5.22,0-9.453,3.9-9.453,8.71s4.233,8.71,9.453,8.71v4.068a1.529,1.529,0,0,1-1.529,1.528H196.254a1.528,1.528,0,0,1-1.528-1.528V311.214a1.528,1.528,0,0,1,1.528-1.528Z" transform="translate(-194.726 -286.619)"/><ellipse class="k" cx="4.953" cy="4.953" rx="4.953" ry="4.953" transform="translate(4.908 27.992)"/><path class="s" d="M211.957,300.484h.357v2.167a.562.562,0,0,0,.288.493c.631.357,1.248.723,1.852,1.075l1.088.631v10.843a2.045,2.045,0,0,0,2.049,2.048H217.5v3.305a.577.577,0,0,0,.571.585h2.3a.577.577,0,0,0,.571-.585v-3.305h17.637v3.305a.577.577,0,0,0,.571.585h2.3a.577.577,0,0,0,.571-.585v-3.305h-.092a2.045,2.045,0,0,0,2.049-2.048V304.95l1.233-.709c.631-.365,1.248-.731,1.888-1.1a.563.563,0,0,0,.289-.493v-2.167h.352a.675.675,0,0,0,.676-.677v-5.358a.675.675,0,0,0-.676-.676h-1.866a.675.675,0,0,0-.676.676v5.358a.675.675,0,0,0,.676.677h.366v1.838c-.54.311-1.075.617-1.6.928l-.662.388V288.379a2.037,2.037,0,0,0-1.555-1.989,57.644,57.644,0,0,0-25.325,0,2.036,2.036,0,0,0-1.555,1.989v15.154l-.5-.3c-.526-.311-1.051-.617-1.577-.914v-1.838h.365a.675.675,0,0,0,.677-.677v-5.358a.675.675,0,0,0-.677-.676h-1.865a.675.675,0,0,0-.677.676v5.358A.669.669,0,0,0,211.957,300.484Zm10.66,12.941a.33.33,0,0,1-.333.32h-1.477a2.608,2.608,0,0,1-2.583-2.276.325.325,0,0,1,.334-.357h3.73a.335.335,0,0,1,.333.333v1.979Zm11.95.494a.321.321,0,0,1-.32.32h-8.978a.325.325,0,0,1-.334-.32v-2.963a.336.336,0,0,1,.334-.333h8.978a.33.33,0,0,1,.32.333Zm4.128-.174h-1.477a.334.334,0,0,1-.333-.32v-1.979a.335.335,0,0,1,.333-.333h3.731a.325.325,0,0,1,.333.357A2.6,2.6,0,0,1,238.7,313.745Zm-22.413-23.218a.989.989,0,0,1,.745-.951,52.7,52.7,0,0,1,25.458,0,.99.99,0,0,1,.745.951v10.446a.982.982,0,0,1-.745.951,52.935,52.935,0,0,1-25.458,0,.981.981,0,0,1-.745-.951Z" transform="translate(-195.823 -284.982)"/></g></g></svg>