<svg xmlns="http://www.w3.org/2000/svg" width="138.328" height="120.003" viewBox="0 0 138.328 120.003"><defs><style>.a{fill:none;}.a,.b{stroke:#4e4d4d;stroke-miterlimit:10;stroke-width:2px;}.b,.e{fill:#fff;}.c{fill:#a97552;}.d{fill:#68b699;}</style></defs><g transform="translate(0 1)"><line class="a" y2="28.213" transform="translate(106.429 83.611)"/><ellipse class="b" cx="4.433" cy="4.433" rx="4.433" ry="4.433" transform="translate(101.995 109.137)"/><g transform="translate(0 26.787)"><g transform="translate(9.112)"><path class="c" d="M95.4,100.578A32.95,32.95,0,0,1,109.768,97.7a33.881,33.881,0,0,1,14.371,2.875.912.912,0,0,0,.605.151,1.454,1.454,0,0,0,1.362-.908,1.5,1.5,0,0,0-.756-1.966,36.769,36.769,0,0,0-15.582-3.177,36.291,36.291,0,0,0-15.583,3.177,1.5,1.5,0,0,0-.756,1.966A1.607,1.607,0,0,0,95.4,100.578Z" transform="translate(-93.314 -94.678)"/></g><g transform="translate(3.177 5.9)"><path class="c" d="M88.383,113.633a27.752,27.752,0,0,1,19.969-8.623,27.166,27.166,0,0,1,19.969,8.623,1.462,1.462,0,0,0,2.118,0,1.463,1.463,0,0,0,0-2.118,30.088,30.088,0,0,0-22.087-9.379,30.934,30.934,0,0,0-22.087,9.379,1.5,1.5,0,0,0,2.118,2.118Z" transform="translate(-85.811 -102.136)"/></g><g transform="translate(18.212 11.951)"><path class="c" d="M112.321,109.784a30.4,30.4,0,0,0-6.354.756c-.907.3-1.362.908-1.059,1.816s.908,1.362,1.816,1.059a22.737,22.737,0,0,1,5.6-.756A22.5,22.5,0,0,1,134.862,135.2a1.513,1.513,0,0,0,3.026,0A25.8,25.8,0,0,0,112.321,109.784Z" transform="translate(-104.815 -109.784)"/></g><g transform="translate(0 15.024)"><path class="c" d="M84.973,136.011a23.213,23.213,0,0,1,6.5-15.885,20.6,20.6,0,0,1,4.69-3.631,1.532,1.532,0,0,0-1.665-2.572,27.491,27.491,0,0,0-5.294,4.085A26.107,26.107,0,0,0,81.8,135.859a1.43,1.43,0,0,0,1.513,1.513h0A1.26,1.26,0,0,0,84.973,136.011Z" transform="translate(-81.796 -113.668)"/></g><g transform="translate(2.577 18.154)"><path class="c" d="M91.7,137.29a16.689,16.689,0,0,1,4.841-11.951,16.515,16.515,0,0,1,24.205.907,1.5,1.5,0,1,0,2.269-1.966,19.434,19.434,0,0,0-28.441-.908,20.4,20.4,0,0,0-5.749,14.221,24.537,24.537,0,0,1-2.723,10.741l-.907,1.513a1.675,1.675,0,0,0,.605,2.118c.3.152.454.3.756.3a1.807,1.807,0,0,0,1.362-.756L88.83,150A36.118,36.118,0,0,0,91.7,137.29Z" transform="translate(-85.054 -117.624)"/></g><g transform="translate(41.205 29.708)"><path class="c" d="M138.965,151.686a55.41,55.41,0,0,1-1.059-11.043v-.908a19.532,19.532,0,0,0-1.059-6.5,1.532,1.532,0,0,0-2.874,1.059,17.355,17.355,0,0,1,.908,5.6v.907a53.87,53.87,0,0,0,1.21,11.649l1.665,5.749a1.82,1.82,0,0,0,1.513,1.059.557.557,0,0,0,.454-.151,1.308,1.308,0,0,0,.907-1.816Z" transform="translate(-133.878 -132.228)"/></g><g transform="translate(5.334 24.054)"><path class="c" d="M125.412,158.212c-2.421-7.715-2.875-16.49-3.026-19.666a13.493,13.493,0,0,0-13.464-13.464,13.657,13.657,0,0,0-13.464,13.766A35.039,35.039,0,0,1,88.8,157.91a1.513,1.513,0,1,0,2.421,1.815c6.656-9.682,7.11-18.3,7.11-20.877a10.59,10.59,0,0,1,21.179,0c.151,4.388.605,12.859,3.177,20.575l1.362,4.538a1.821,1.821,0,0,0,1.513,1.059.555.555,0,0,0,.453-.151,1.41,1.41,0,0,0,.908-1.967Z" transform="translate(-88.538 -125.082)"/></g><g transform="translate(8.511 29.803)"><path class="c" d="M117.174,139.912a7.564,7.564,0,0,0-15.128,0c0,.453.3,12.253-9.228,24.659a1.513,1.513,0,1,0,2.42,1.815c10.136-13.161,9.833-26.02,9.833-26.474a4.538,4.538,0,1,1,9.077,0c0,1.664,0,16.792-11.648,32.072a1.648,1.648,0,0,0,.3,2.118,1.112,1.112,0,0,0,.907.3,1.865,1.865,0,0,0,1.21-.605C117.325,157.914,117.174,141.727,117.174,139.912Z" transform="translate(-92.553 -132.348)"/></g><g transform="translate(23.723 35.853)"><path class="c" d="M113.02,149.073h.3a1.473,1.473,0,0,0,1.513-1.21,32.015,32.015,0,0,0,.454-6.354A1.516,1.516,0,0,0,113.776,140a1.627,1.627,0,0,0-1.513,1.513,27.069,27.069,0,0,1-.454,5.749A1.464,1.464,0,0,0,113.02,149.073Z" transform="translate(-111.781 -139.996)"/></g><g transform="translate(12.746 48.027)"><path class="c" d="M109.366,155.464a1.47,1.47,0,0,0-1.816.907,48.2,48.2,0,0,1-9.379,17.549,1.648,1.648,0,0,0,.3,2.118,1.111,1.111,0,0,0,.907.3,1.868,1.868,0,0,0,1.21-.605,53.837,53.837,0,0,0,9.833-18.608A1.349,1.349,0,0,0,109.366,155.464Z" transform="translate(-97.907 -155.383)"/></g><g transform="translate(25.009 54.764)"><path class="c" d="M125.311,169.5c-.756-2.119-1.362-4.539-1.513-4.539a1.452,1.452,0,0,0-1.362-1.059,1.663,1.663,0,0,0-1.513.907,88.586,88.586,0,0,1-7.262,13.918,1.514,1.514,0,0,0,.454,2.118,1.623,1.623,0,0,0,.907.3,1.541,1.541,0,0,0,1.21-.756,85.389,85.389,0,0,0,5.749-10.741c.151.3.151.453.3.756l1.815,5.749a1.531,1.531,0,0,0,2.874-1.059Z" transform="translate(-113.407 -163.899)"/></g></g><line class="a" x1="28.213" transform="translate(62.077 66.054)"/><ellipse class="b" cx="4.433" cy="4.433" rx="4.433" ry="4.433" transform="translate(55.897 61.62)"/><path class="a" d="M245.876,66.423H216.32v40.035" transform="translate(-109.891 -61.989)"/><ellipse class="b" cx="4.433" cy="4.433" rx="4.433" ry="4.433" transform="translate(101.995 0.269)"/><ellipse class="b" cx="4.433" cy="4.433" rx="4.433" ry="4.433" transform="translate(128.461 0)"/><g transform="translate(81.846 43.416)"><path class="d" d="M191.877,115.7a6.629,6.629,0,1,0,0,13.257h37.162a6.629,6.629,0,1,0,0-13.257Z" transform="translate(-185.248 -115.696)"/><ellipse class="e" cx="1.847" cy="1.847" rx="1.847" ry="1.847" transform="translate(4.781 4.673)"/><ellipse class="e" cx="1.847" cy="1.847" rx="1.847" ry="1.847" transform="translate(11.953 4.673)"/><ellipse class="e" cx="1.847" cy="1.847" rx="1.847" ry="1.847" transform="translate(19.125 4.673)"/></g><g transform="translate(81.846 58.955)"><path class="d" d="M191.877,135.337a6.655,6.655,0,0,0-6.629,6.628,6.586,6.586,0,0,0,6.629,6.628h37.162a6.655,6.655,0,0,0,6.629-6.628,6.586,6.586,0,0,0-6.629-6.628Z" transform="translate(-185.248 -135.337)"/><ellipse class="e" cx="1.847" cy="1.847" rx="1.847" ry="1.847" transform="translate(4.781 4.781)"/><ellipse class="e" cx="1.847" cy="1.847" rx="1.847" ry="1.847" transform="translate(11.953 4.781)"/><ellipse class="e" cx="1.847" cy="1.847" rx="1.847" ry="1.847" transform="translate(19.125 4.781)"/></g><g transform="translate(81.846 74.494)"><path class="d" d="M191.877,154.978a6.655,6.655,0,0,0-6.629,6.628,6.586,6.586,0,0,0,6.629,6.628h37.162a6.655,6.655,0,0,0,6.629-6.628,6.586,6.586,0,0,0-6.629-6.628Z" transform="translate(-185.248 -154.978)"/><ellipse class="e" cx="1.847" cy="1.847" rx="1.847" ry="1.847" transform="translate(4.781 4.781)"/><ellipse class="e" cx="1.847" cy="1.847" rx="1.847" ry="1.847" transform="translate(11.953 4.781)"/><ellipse class="e" cx="1.847" cy="1.847" rx="1.847" ry="1.847" transform="translate(19.125 4.781)"/></g></g></svg>