<svg xmlns="http://www.w3.org/2000/svg" xmlns:xlink="http://www.w3.org/1999/xlink" width="138.317" height="161.906" viewBox="0 0 138.317 161.906"><defs><style>.a,.b{fill:none;stroke:#eee;stroke-linecap:round;stroke-miterlimit:10;stroke-width:1.5px;}.a{stroke-dasharray:0.25 4;}.c{fill:#75b69b;}.d{fill:#9e7054;}.e{fill:#795644;}.f{fill:#282928;}.g{fill:#5c8e77;}.h{fill:url(#a);}.i{fill:url(#b);}.j{fill:#232322;}.k{fill:#eee;}.l{fill:#5fbda4;}</style><linearGradient id="a" x1="0.663" y1="-4.204" x2="0.088" y2="-4.667" gradientUnits="objectBoundingBox"><stop offset="0" stop-color="#9e7054"/><stop offset="0.335" stop-color="#986b52"/><stop offset="0.782" stop-color="#855f49"/><stop offset="1" stop-color="#795644"/></linearGradient><linearGradient id="b" x1="0.58" y1="-8.807" x2="0.392" y2="-9.675" gradientUnits="objectBoundingBox"><stop offset="0" stop-color="#9e7054"/><stop offset="0.349" stop-color="#9a6d52"/><stop offset="0.682" stop-color="#8d644c"/><stop offset="1" stop-color="#795644"/></linearGradient></defs><g transform="translate(-916.497 -428.611)"><path class="a" d="M933.748,485.4V469.481H921.5" transform="translate(-0.65 -5.368)"/><line class="a" y2="17.437" transform="translate(938.292 498.941)"/><circle class="b" cx="1.804" cy="1.804" r="1.804" transform="translate(936.488 516.378)"/><line class="a" x2="37.607" transform="translate(940.15 518.182)"/><path class="a" d="M983.671,556.892v16.672H953.143" transform="translate(-5.477 -18.704)"/><line class="a" y1="32.687" transform="translate(938.292 519.985)"/><path class="a" d="M946.854,486.227V476.005h85.217" transform="translate(-4.517 -6.363)"/><line class="a" y1="37.334" transform="translate(983.715 461.935)"/><circle class="b" cx="1.804" cy="1.804" r="1.804" transform="translate(917.247 462.309)"/><line class="a" x1="22.247" y2="20.99" transform="translate(995.85 479.099)"/><circle class="b" cx="1.804" cy="1.804" r="1.804" transform="translate(992.844 499.269)"/><circle class="b" cx="1.804" cy="1.804" r="1.804" transform="translate(1017.642 476.129)"/><line class="a" y1="67.843" transform="translate(1030.942 471.547)"/><circle class="b" cx="1.804" cy="1.804" r="1.804" transform="translate(1029.248 539.39)"/><line class="a" y2="14.103" transform="translate(997.323 571.674)"/><circle class="b" cx="1.804" cy="1.804" r="1.804" transform="translate(995.52 586.159)"/><circle class="b" cx="1.804" cy="1.804" r="1.804" transform="translate(986.175 534.635)"/><circle class="b" cx="1.804" cy="1.804" r="1.804" transform="translate(976.391 534.635)"/><path class="a" d="M1060.636,521.434V505.419h13.5" transform="translate(-21.877 -10.851)"/><circle class="b" cx="1.804" cy="1.804" r="1.804" transform="translate(1050.457 492.764)"/><circle class="b" cx="1.804" cy="1.804" r="1.804" transform="translate(981.911 457.999)"/><circle class="b" cx="1.804" cy="1.804" r="1.804" transform="translate(981.911 499.269)"/><line class="a" y2="10.962" transform="translate(987.979 538.242)"/><path class="a" d="M996.633,596.622H942.081V578.694" transform="translate(-3.789 -22.03)"/><line class="a" x2="18.722" transform="translate(1004.65 559.041)"/><g transform="translate(1023.964 546.297)"><path class="c" d="M353.945,564.138a17.66,17.66,0,0,0-1.785,1.736c1.474,1.278,6.978,3.964,13.071,3.243,6.077-.737,6.552-2.719,6.552-2.719-.737-.688-2.654-2.048-2.654-2.048" transform="translate(-352.16 -542.653)"/><path class="d" d="M356.818,529.563a11.607,11.607,0,0,1,2.719-1.573c1.556-.622,1.261-1.343,1.638-4.619,0,0-1.622-2.162-1.72-3.342a2.944,2.944,0,0,1-1.605-2.85c-.1-2.293.819-1.9.819-1.9a6.84,6.84,0,0,1,2.506-6.093c3.129-2.637,8.174.033,9.206,1.818a6.469,6.469,0,0,1,.868,5.127c-.475,1.671.426,3.309-.966,6-1.392,2.7-2.146,3.047-3.375,3.538l.049,1.408a1.145,1.145,0,0,0,.7.8c.59.213,4.357,1.9,4.357,1.9-1.376.016-2.785,1-7.9,1s-7.306-1.212-7.306-1.212" transform="translate(-355.033 -508.079)"/><path class="e" d="M376.256,552.844a6.445,6.445,0,0,1-4.308-2.981c1.458,1.638,4.275,1.556,4.275,1.556Z" transform="translate(-364.364 -533.849)"/><path class="f" d="M361.605,526.868s1.376.344,1.671,2.441h.2l-.033-2.179Z" transform="translate(-357.985 -519.667)"/><path class="g" d="M367.6,559.736a42.751,42.751,0,0,1,4.357,1.9,25.57,25.57,0,0,1-7.9,1c-5.078,0-7.289-1.229-7.289-1.229a11.6,11.6,0,0,1,2.719-1.572s3.375,2.883,6.8,2.736c3.456-.131,1.31-2.834,1.31-2.834" transform="translate(-355.007 -539.938)"/><path class="h" d="M387.639,533.182a3.751,3.751,0,0,0-1.671-.458c-.868,0-2.31,0-2.31,2.309a8.235,8.235,0,0,0,.688,2.637" transform="translate(-371.587 -523.279)"/><path class="i" d="M374.639,533.592a4.115,4.115,0,0,0-2.162-.868c-1.278,0-1.982.426-1.982,1.081a1.482,1.482,0,0,0,1.147,1.392" transform="translate(-363.468 -523.279)"/><path class="j" d="M385.164,510.469c-.089.642-.628,5.929,3.488,7.293a6.481,6.481,0,0,0-.836-5.306A6.4,6.4,0,0,0,385.164,510.469Z" transform="translate(-372.472 -509.553)"/><path class="f" d="M361.524,515.28a6.84,6.84,0,0,1,2.506-6.093c3.129-2.637,8.174.033,9.206,1.818a7.634,7.634,0,0,1-3.44,4.275c-2.768,1.655-8.272,0-8.272,0" transform="translate(-357.904 -508.079)"/></g><g transform="translate(930.031 539.818)"><path class="c" d="M353.945,564.138a17.66,17.66,0,0,0-1.785,1.736c1.474,1.278,6.978,3.964,13.071,3.243,6.077-.737,6.552-2.719,6.552-2.719-.737-.688-2.654-2.048-2.654-2.048" transform="translate(-352.16 -542.653)"/><path class="d" d="M356.818,529.563a11.607,11.607,0,0,1,2.719-1.573c1.556-.622,1.261-1.343,1.638-4.619,0,0-1.622-2.162-1.72-3.342a2.944,2.944,0,0,1-1.605-2.85c-.1-2.293.819-1.9.819-1.9a6.84,6.84,0,0,1,2.506-6.093c3.129-2.637,8.174.033,9.206,1.818a6.469,6.469,0,0,1,.868,5.127c-.475,1.671.426,3.309-.966,6-1.392,2.7-2.146,3.047-3.375,3.538l.049,1.408a1.145,1.145,0,0,0,.7.8c.59.213,4.357,1.9,4.357,1.9-1.376.016-2.785,1-7.9,1s-7.306-1.212-7.306-1.212" transform="translate(-355.033 -508.079)"/><path class="e" d="M376.256,552.844a6.445,6.445,0,0,1-4.308-2.981c1.458,1.638,4.275,1.556,4.275,1.556Z" transform="translate(-364.364 -533.849)"/><path class="f" d="M361.605,526.868s1.376.344,1.671,2.441h.2l-.033-2.179Z" transform="translate(-357.985 -519.667)"/><path class="g" d="M367.6,559.736a42.751,42.751,0,0,1,4.357,1.9,25.57,25.57,0,0,1-7.9,1c-5.078,0-7.289-1.229-7.289-1.229a11.6,11.6,0,0,1,2.719-1.572s3.375,2.883,6.8,2.736c3.456-.131,1.31-2.834,1.31-2.834" transform="translate(-355.007 -539.938)"/><path class="h" d="M387.639,533.182a3.751,3.751,0,0,0-1.671-.458c-.868,0-2.31,0-2.31,2.309a8.235,8.235,0,0,0,.688,2.637" transform="translate(-371.587 -523.279)"/><path class="i" d="M374.639,533.592a4.115,4.115,0,0,0-2.162-.868c-1.278,0-1.982.426-1.982,1.081a1.482,1.482,0,0,0,1.147,1.392" transform="translate(-363.468 -523.279)"/><path class="j" d="M385.164,510.469c-.089.642-.628,5.929,3.488,7.293a6.481,6.481,0,0,0-.836-5.306A6.4,6.4,0,0,0,385.164,510.469Z" transform="translate(-372.472 -509.553)"/><path class="f" d="M361.524,515.28a6.84,6.84,0,0,1,2.506-6.093c3.129-2.637,8.174.033,9.206,1.818a7.634,7.634,0,0,1-3.44,4.275c-2.768,1.655-8.272,0-8.272,0" transform="translate(-357.904 -508.079)"/></g><g transform="translate(975.378 428.611)"><path class="c" d="M353.945,564.138a17.66,17.66,0,0,0-1.785,1.736c1.474,1.278,6.978,3.964,13.071,3.243,6.077-.737,6.552-2.719,6.552-2.719-.737-.688-2.654-2.048-2.654-2.048" transform="translate(-352.16 -542.653)"/><path class="d" d="M356.818,529.563a11.607,11.607,0,0,1,2.719-1.573c1.556-.622,1.261-1.343,1.638-4.619,0,0-1.622-2.162-1.72-3.342a2.944,2.944,0,0,1-1.605-2.85c-.1-2.293.819-1.9.819-1.9a6.84,6.84,0,0,1,2.506-6.093c3.129-2.637,8.174.033,9.206,1.818a6.469,6.469,0,0,1,.868,5.127c-.475,1.671.426,3.309-.966,6-1.392,2.7-2.146,3.047-3.375,3.538l.049,1.408a1.145,1.145,0,0,0,.7.8c.59.213,4.357,1.9,4.357,1.9-1.376.016-2.785,1-7.9,1s-7.306-1.212-7.306-1.212" transform="translate(-355.033 -508.079)"/><path class="e" d="M376.256,552.844a6.445,6.445,0,0,1-4.308-2.981c1.458,1.638,4.275,1.556,4.275,1.556Z" transform="translate(-364.364 -533.849)"/><path class="f" d="M361.605,526.868s1.376.344,1.671,2.441h.2l-.033-2.179Z" transform="translate(-357.985 -519.667)"/><path class="g" d="M367.6,559.736a42.751,42.751,0,0,1,4.357,1.9,25.57,25.57,0,0,1-7.9,1c-5.078,0-7.289-1.229-7.289-1.229a11.6,11.6,0,0,1,2.719-1.572s3.375,2.883,6.8,2.736c3.456-.131,1.31-2.834,1.31-2.834" transform="translate(-355.007 -539.938)"/><path class="h" d="M387.639,533.182a3.751,3.751,0,0,0-1.671-.458c-.868,0-2.31,0-2.31,2.309a8.235,8.235,0,0,0,.688,2.637" transform="translate(-371.587 -523.279)"/><path class="i" d="M374.639,533.592a4.115,4.115,0,0,0-2.162-.868c-1.278,0-1.982.426-1.982,1.081a1.482,1.482,0,0,0,1.147,1.392" transform="translate(-363.468 -523.279)"/><path class="j" d="M385.164,510.469c-.089.642-.628,5.929,3.488,7.293a6.481,6.481,0,0,0-.836-5.306A6.4,6.4,0,0,0,385.164,510.469Z" transform="translate(-372.472 -509.553)"/><path class="f" d="M361.524,515.28a6.84,6.84,0,0,1,2.506-6.093c3.129-2.637,8.174.033,9.206,1.818a7.634,7.634,0,0,1-3.44,4.275c-2.768,1.655-8.272,0-8.272,0" transform="translate(-357.904 -508.079)"/></g><g transform="translate(936.509 448.045)"><path class="c" d="M353.945,564.138a17.66,17.66,0,0,0-1.785,1.736c1.474,1.278,6.978,3.964,13.071,3.243,6.077-.737,6.552-2.719,6.552-2.719-.737-.688-2.654-2.048-2.654-2.048" transform="translate(-352.16 -542.653)"/><path class="d" d="M356.818,529.563a11.607,11.607,0,0,1,2.719-1.573c1.556-.622,1.261-1.343,1.638-4.619,0,0-1.622-2.162-1.72-3.342a2.944,2.944,0,0,1-1.605-2.85c-.1-2.293.819-1.9.819-1.9a6.84,6.84,0,0,1,2.506-6.093c3.129-2.637,8.174.033,9.206,1.818a6.469,6.469,0,0,1,.868,5.127c-.475,1.671.426,3.309-.966,6-1.392,2.7-2.146,3.047-3.375,3.538l.049,1.408a1.145,1.145,0,0,0,.7.8c.59.213,4.357,1.9,4.357,1.9-1.376.016-2.785,1-7.9,1s-7.306-1.212-7.306-1.212" transform="translate(-355.033 -508.079)"/><path class="e" d="M376.256,552.844a6.445,6.445,0,0,1-4.308-2.981c1.458,1.638,4.275,1.556,4.275,1.556Z" transform="translate(-364.364 -533.849)"/><path class="f" d="M361.605,526.868s1.376.344,1.671,2.441h.2l-.033-2.179Z" transform="translate(-357.985 -519.667)"/><path class="g" d="M367.6,559.736a42.751,42.751,0,0,1,4.357,1.9,25.57,25.57,0,0,1-7.9,1c-5.078,0-7.289-1.229-7.289-1.229a11.6,11.6,0,0,1,2.719-1.572s3.375,2.883,6.8,2.736c3.456-.131,1.31-2.834,1.31-2.834" transform="translate(-355.007 -539.938)"/><path class="h" d="M387.639,533.182a3.751,3.751,0,0,0-1.671-.458c-.868,0-2.31,0-2.31,2.309a8.235,8.235,0,0,0,.688,2.637" transform="translate(-371.587 -523.279)"/><path class="i" d="M374.639,533.592a4.115,4.115,0,0,0-2.162-.868c-1.278,0-1.982.426-1.982,1.081a1.482,1.482,0,0,0,1.147,1.392" transform="translate(-363.468 -523.279)"/><path class="j" d="M385.164,510.469c-.089.642-.628,5.929,3.488,7.293a6.481,6.481,0,0,0-.836-5.306A6.4,6.4,0,0,0,385.164,510.469Z" transform="translate(-372.472 -509.553)"/><path class="f" d="M361.524,515.28a6.84,6.84,0,0,1,2.506-6.093c3.129-2.637,8.174.033,9.206,1.818a7.634,7.634,0,0,1-3.44,4.275c-2.768,1.655-8.272,0-8.272,0" transform="translate(-357.904 -508.079)"/></g><g transform="translate(1900.743 668.782)"><g transform="translate(-973.869 -186.338)"><path class="k" d="M-970.908-186.338a2.973,2.973,0,0,0-2.961,2.961,2.973,2.973,0,0,0,2.961,2.961h16.6a2.972,2.972,0,0,0,2.961-2.961,2.973,2.973,0,0,0-2.961-2.961Z" transform="translate(973.869 186.338)"/><circle class="l" cx="0.825" cy="0.825" r="0.825" transform="translate(2.136 2.087)"/><circle class="l" cx="0.825" cy="0.825" r="0.825" transform="translate(5.339 2.087)"/><circle class="l" cx="0.825" cy="0.825" r="0.825" transform="translate(8.543 2.087)"/></g><g transform="translate(-973.869 -179.397)"><path class="k" d="M-970.908-171.206a2.973,2.973,0,0,0-2.961,2.961,2.942,2.942,0,0,0,2.961,2.961h16.6a2.972,2.972,0,0,0,2.961-2.961,2.942,2.942,0,0,0-2.961-2.961Z" transform="translate(973.869 171.206)"/><circle class="l" cx="0.825" cy="0.825" r="0.825" transform="translate(2.136 2.136)"/><circle class="l" cx="0.825" cy="0.825" r="0.825" transform="translate(5.339 2.136)"/><circle class="l" cx="0.825" cy="0.825" r="0.825" transform="translate(8.543 2.136)"/></g><g transform="translate(-973.869 -172.456)"><path class="k" d="M-970.908-156.074a2.972,2.972,0,0,0-2.961,2.961,2.942,2.942,0,0,0,2.961,2.961h16.6a2.973,2.973,0,0,0,2.961-2.961,2.942,2.942,0,0,0-2.961-2.961Z" transform="translate(973.869 156.074)"/><circle class="l" cx="0.825" cy="0.825" r="0.825" transform="translate(2.136 2.136)"/><circle class="l" cx="0.825" cy="0.825" r="0.825" transform="translate(5.339 2.136)"/><circle class="l" cx="0.825" cy="0.825" r="0.825" transform="translate(8.543 2.136)"/></g></g><g transform="translate(1950.743 693.782)"><g transform="translate(-973.869 -186.338)"><path class="k" d="M-970.908-186.338a2.973,2.973,0,0,0-2.961,2.961,2.973,2.973,0,0,0,2.961,2.961h16.6a2.972,2.972,0,0,0,2.961-2.961,2.973,2.973,0,0,0-2.961-2.961Z" transform="translate(973.869 186.338)"/><circle class="l" cx="0.825" cy="0.825" r="0.825" transform="translate(2.136 2.087)"/><circle class="l" cx="0.825" cy="0.825" r="0.825" transform="translate(5.339 2.087)"/><circle class="l" cx="0.825" cy="0.825" r="0.825" transform="translate(8.543 2.087)"/></g><g transform="translate(-973.869 -179.397)"><path class="k" d="M-970.908-171.206a2.973,2.973,0,0,0-2.961,2.961,2.942,2.942,0,0,0,2.961,2.961h16.6a2.972,2.972,0,0,0,2.961-2.961,2.942,2.942,0,0,0-2.961-2.961Z" transform="translate(973.869 171.206)"/><circle class="l" cx="0.825" cy="0.825" r="0.825" transform="translate(2.136 2.136)"/><circle class="l" cx="0.825" cy="0.825" r="0.825" transform="translate(5.339 2.136)"/><circle class="l" cx="0.825" cy="0.825" r="0.825" transform="translate(8.543 2.136)"/></g><g transform="translate(-973.869 -172.456)"><path class="k" d="M-970.908-156.074a2.972,2.972,0,0,0-2.961,2.961,2.942,2.942,0,0,0,2.961,2.961h16.6a2.973,2.973,0,0,0,2.961-2.961,2.942,2.942,0,0,0-2.961-2.961Z" transform="translate(973.869 156.074)"/><circle class="l" cx="0.825" cy="0.825" r="0.825" transform="translate(2.136 2.136)"/><circle class="l" cx="0.825" cy="0.825" r="0.825" transform="translate(5.339 2.136)"/><circle class="l" cx="0.825" cy="0.825" r="0.825" transform="translate(8.543 2.136)"/></g></g><g transform="translate(1953.743 735.782)"><g transform="translate(-973.869 -186.338)"><path class="k" d="M-970.908-186.338a2.973,2.973,0,0,0-2.961,2.961,2.973,2.973,0,0,0,2.961,2.961h16.6a2.972,2.972,0,0,0,2.961-2.961,2.973,2.973,0,0,0-2.961-2.961Z" transform="translate(973.869 186.338)"/><circle class="l" cx="0.825" cy="0.825" r="0.825" transform="translate(2.136 2.087)"/><circle class="l" cx="0.825" cy="0.825" r="0.825" transform="translate(5.339 2.087)"/><circle class="l" cx="0.825" cy="0.825" r="0.825" transform="translate(8.543 2.087)"/></g><g transform="translate(-973.869 -179.397)"><path class="k" d="M-970.908-171.206a2.973,2.973,0,0,0-2.961,2.961,2.942,2.942,0,0,0,2.961,2.961h16.6a2.972,2.972,0,0,0,2.961-2.961,2.942,2.942,0,0,0-2.961-2.961Z" transform="translate(973.869 171.206)"/><circle class="l" cx="0.825" cy="0.825" r="0.825" transform="translate(2.136 2.136)"/><circle class="l" cx="0.825" cy="0.825" r="0.825" transform="translate(5.339 2.136)"/><circle class="l" cx="0.825" cy="0.825" r="0.825" transform="translate(8.543 2.136)"/></g><g transform="translate(-973.869 -172.456)"><path class="k" d="M-970.908-156.074a2.972,2.972,0,0,0-2.961,2.961,2.942,2.942,0,0,0,2.961,2.961h16.6a2.973,2.973,0,0,0,2.961-2.961,2.942,2.942,0,0,0-2.961-2.961Z" transform="translate(973.869 156.074)"/><circle class="l" cx="0.825" cy="0.825" r="0.825" transform="translate(2.136 2.136)"/><circle class="l" cx="0.825" cy="0.825" r="0.825" transform="translate(5.339 2.136)"/><circle class="l" cx="0.825" cy="0.825" r="0.825" transform="translate(8.543 2.136)"/></g></g><g transform="translate(1997.385 690.782)"><g transform="translate(-973.869 -186.338)"><path class="k" d="M-970.908-186.338a2.973,2.973,0,0,0-2.961,2.961,2.973,2.973,0,0,0,2.961,2.961h16.6a2.972,2.972,0,0,0,2.961-2.961,2.973,2.973,0,0,0-2.961-2.961Z" transform="translate(973.869 186.338)"/><circle class="l" cx="0.825" cy="0.825" r="0.825" transform="translate(2.136 2.087)"/><circle class="l" cx="0.825" cy="0.825" r="0.825" transform="translate(5.339 2.087)"/><circle class="l" cx="0.825" cy="0.825" r="0.825" transform="translate(8.543 2.087)"/></g><g transform="translate(-973.869 -179.397)"><path class="k" d="M-970.908-171.206a2.973,2.973,0,0,0-2.961,2.961,2.942,2.942,0,0,0,2.961,2.961h16.6a2.972,2.972,0,0,0,2.961-2.961,2.942,2.942,0,0,0-2.961-2.961Z" transform="translate(973.869 171.206)"/><circle class="l" cx="0.825" cy="0.825" r="0.825" transform="translate(2.136 2.136)"/><circle class="l" cx="0.825" cy="0.825" r="0.825" transform="translate(5.339 2.136)"/><circle class="l" cx="0.825" cy="0.825" r="0.825" transform="translate(8.543 2.136)"/></g><g transform="translate(-973.869 -172.456)"><path class="k" d="M-970.908-156.074a2.972,2.972,0,0,0-2.961,2.961,2.942,2.942,0,0,0,2.961,2.961h16.6a2.973,2.973,0,0,0,2.961-2.961,2.942,2.942,0,0,0-2.961-2.961Z" transform="translate(973.869 156.074)"/><circle class="l" cx="0.825" cy="0.825" r="0.825" transform="translate(2.136 2.136)"/><circle class="l" cx="0.825" cy="0.825" r="0.825" transform="translate(5.339 2.136)"/><circle class="l" cx="0.825" cy="0.825" r="0.825" transform="translate(8.543 2.136)"/></g></g><g transform="translate(1997.385 644.782)"><g transform="translate(-973.869 -186.338)"><path class="k" d="M-970.908-186.338a2.973,2.973,0,0,0-2.961,2.961,2.973,2.973,0,0,0,2.961,2.961h16.6a2.972,2.972,0,0,0,2.961-2.961,2.973,2.973,0,0,0-2.961-2.961Z" transform="translate(973.869 186.338)"/><circle class="l" cx="0.825" cy="0.825" r="0.825" transform="translate(2.136 2.087)"/><circle class="l" cx="0.825" cy="0.825" r="0.825" transform="translate(5.339 2.087)"/><circle class="l" cx="0.825" cy="0.825" r="0.825" transform="translate(8.543 2.087)"/></g><g transform="translate(-973.869 -179.397)"><path class="k" d="M-970.908-171.206a2.973,2.973,0,0,0-2.961,2.961,2.942,2.942,0,0,0,2.961,2.961h16.6a2.972,2.972,0,0,0,2.961-2.961,2.942,2.942,0,0,0-2.961-2.961Z" transform="translate(973.869 171.206)"/><circle class="l" cx="0.825" cy="0.825" r="0.825" transform="translate(2.136 2.136)"/><circle class="l" cx="0.825" cy="0.825" r="0.825" transform="translate(5.339 2.136)"/><circle class="l" cx="0.825" cy="0.825" r="0.825" transform="translate(8.543 2.136)"/></g><g transform="translate(-973.869 -172.456)"><path class="k" d="M-970.908-156.074a2.972,2.972,0,0,0-2.961,2.961,2.942,2.942,0,0,0,2.961,2.961h16.6a2.973,2.973,0,0,0,2.961-2.961,2.942,2.942,0,0,0-2.961-2.961Z" transform="translate(973.869 156.074)"/><circle class="l" cx="0.825" cy="0.825" r="0.825" transform="translate(2.136 2.136)"/><circle class="l" cx="0.825" cy="0.825" r="0.825" transform="translate(5.339 2.136)"/><circle class="l" cx="0.825" cy="0.825" r="0.825" transform="translate(8.543 2.136)"/></g></g></g></svg>