<svg xmlns="http://www.w3.org/2000/svg" width="75" height="75" viewBox="0 0 75 75">
  <g id="Group_4003" data-name="Group 4003" transform="translate(-2178.104 -4222.451)">
    <ellipse id="Ellipse_313" data-name="Ellipse 313" cx="37.052" cy="36.225" rx="37.052" ry="36.225" transform="translate(2178.104 4222.451)" fill="#fff"/>
    <g id="Group_2876" data-name="Group 2876" transform="translate(2179 4225)">
      <rect id="Rectangle_562" data-name="Rectangle 562" width="74.104" height="72.451" fill="none"/>
      <path id="notifications-none" d="M22.808,54.836a5.093,5.093,0,0,1-3.77-1.6,5.22,5.22,0,0,1-1.571-3.779H28.148a5.216,5.216,0,0,1-1.571,3.779,5.1,5.1,0,0,1-3.77,1.6Zm17.405-16.4,5.4,5.509v2.691H0V43.943l5.4-5.509V23.442a17.451,17.451,0,0,1,3.77-11.083,16.96,16.96,0,0,1,9.552-6.215V4.351A3.919,3.919,0,0,1,19.919,1.4,4.01,4.01,0,0,1,22.81.25,3.8,3.8,0,0,1,25.637,1.4a4.034,4.034,0,0,1,1.131,2.948V6.145a16.988,16.988,0,0,1,9.677,6.215,17.451,17.451,0,0,1,3.77,11.083V38.436Zm-5.4,2.818V23.442a11.985,11.985,0,0,0-3.518-8.714,11.514,11.514,0,0,0-8.546-3.587A11.53,11.53,0,0,0,14.2,14.728a11.979,11.979,0,0,0-3.518,8.714v17.81Z" transform="translate(14.306 7.75)" fill="#7ebfab"/>
    </g>
  </g>
</svg>
