<svg xmlns="http://www.w3.org/2000/svg" width="75" height="75" viewBox="0 0 75 75">
  <g id="Group_4005" data-name="Group 4005" transform="translate(-2178.604 -4065.451)">
    <circle id="Ellipse_314" data-name="Ellipse 314" cx="37.027" cy="37.027" r="37.027" transform="translate(2178.604 4065.451)" fill="#fff"/>
    <g id="Group_2875" data-name="Group 2875" transform="translate(2179 4066)">
      <rect id="Rectangle_561" data-name="Rectangle 561" width="74.604" height="74.451" transform="translate(0)" fill="none"/>
      <g id="bx-message-detail" transform="translate(11.81 14.982)">
        <path id="Path_2521" data-name="Path 2521" d="M47.964,3H8A5,5,0,0,0,3,8V37.972a5,5,0,0,0,5,5H15.49v9.411l15.679-9.411H47.964a5,5,0,0,0,5-5V8A5,5,0,0,0,47.964,3Zm0,34.972H29.787l-9.3,5.577V37.972H8V8H47.964Z" transform="translate(-3 -3)" fill="#7ebfab"/>
        <path id="Path_2522" data-name="Path 2522" d="M10.5,10.5H35.48v5H10.5Zm0,9.992H27.986v5H10.5Z" transform="translate(1.99 1.99)" fill="#7ebfab"/>
      </g>
    </g>
  </g>
</svg>
