<svg height="140.005" viewBox="0 0 120.291 140.005" width="120.291" xmlns="http://www.w3.org/2000/svg"><path d="m438.992 111.564v4.513a23.458 23.458 0 0 1 -.2 3.158 29.332 29.332 0 0 1 -1.091 4.96 28.646 28.646 0 0 1 -4.96 9.374c-.364.447-.744.893-1.14 1.306l-1.307 1.422a9.024 9.024 0 0 1 -6.613 2.959h-2.067a9.046 9.046 0 0 1 -6.614-2.956l-1.306-1.422a16.622 16.622 0 0 1 -1.124-1.306 28.463 28.463 0 0 1 -3.7-5.985 28.1 28.1 0 0 1 -2.38-8.415 21.192 21.192 0 0 1 -.215-3.042v-4.464a16.756 16.756 0 0 1 .612-4.531 16.4 16.4 0 0 1 31.545 0 15.6 15.6 0 0 1 .56 4.429z" fill="#b68966" transform="translate(-385.887 -95.224)"/><g fill="#57b093"><path d="m443.488 163.161a13.687 13.687 0 0 0 -2.48-.86l-9.407-3.389a.679.679 0 0 0 0-.3l-1.653-4.166a1.456 1.456 0 0 0 -1.893-.808 1.493 1.493 0 0 0 -.224.113l-5.985 3.6-4.133 2.43-4.05-2.43-6-3.638a1.455 1.455 0 0 0 -1.994.509 1.488 1.488 0 0 0 -.106.219l-1.653 4.166a.679.679 0 0 0 0 .3l-9.49 3.389a13.731 13.731 0 0 0 -2.48.86 14.384 14.384 0 0 0 -8.465 13.111v17.145a4.117 4.117 0 0 0 4.117 4.117h.017c.648-.28 59.982.262 60.214.082a4.117 4.117 0 0 0 4.133-4.1v-17.239a14.384 14.384 0 0 0 -8.468-13.111z" transform="translate(-380.993 -107.736)"/><path d="m468.626 252.758c0-.314.079-.628.079-.942-.157-.079-.314-.079-.393-.236l-1.885-1.257a1.79 1.79 0 0 1 -.471-2.513l1.257-1.885a.613.613 0 0 1 .314-.314 14.121 14.121 0 0 0 -2.67-4.084c-.157.079-.314.079-.393.157l-2.356.393a1.813 1.813 0 0 1 -2.121-1.414l-.471-2.278v-.471a15.34 15.34 0 0 0 -3.848-.942c-.314 0-.628-.079-.942-.079-.079.157-.079.314-.236.393l-1.257 1.885a1.789 1.789 0 0 1 -2.513.471l-1.885-1.257a.613.613 0 0 1 -.314-.314 14.121 14.121 0 0 0 -4.084 2.67c.079.157.079.314.157.393l.471 2.278a1.813 1.813 0 0 1 -1.414 2.12l-2.278.471h-.473a15.336 15.336 0 0 0 -.942 3.848c0 .314-.079.628-.079.942.157.079.314.079.393.236l1.885 1.257a1.79 1.79 0 0 1 .471 2.513l-1.257 1.885a.613.613 0 0 1 -.314.314 14.119 14.119 0 0 0 2.67 4.084c.157-.078.314-.078.393-.157l2.277-.471a1.813 1.813 0 0 1 2.12 1.414l.471 2.277v.471a15.339 15.339 0 0 0 3.848.942c.314 0 .628.079.942.079a1.047 1.047 0 0 1 .236-.393l1.257-1.885a1.79 1.79 0 0 1 2.513-.471l1.885 1.257a.614.614 0 0 1 .314.314 14.12 14.12 0 0 0 4.084-2.67c-.079-.157-.079-.314-.157-.393l-.471-2.277a1.813 1.813 0 0 1 1.414-2.12l2.277-.471h.471a11.1 11.1 0 0 0 1.025-3.77zm-7.854 3.063a7.918 7.918 0 1 1 -2.12-11 7.939 7.939 0 0 1 2.12 11z" transform="translate(-393.101 -125.633)"/><path d="m521.319 236.162a8.534 8.534 0 0 0 .079-1.414 2.351 2.351 0 0 1 -.628-.314l-2.906-1.963a2.771 2.771 0 0 1 -.707-3.848l1.963-2.906a3.4 3.4 0 0 1 .471-.55 23.637 23.637 0 0 0 -4.162-6.283c-.236.079-.393.157-.628.236l-3.455.628a2.833 2.833 0 0 1 -3.3-2.2l-.628-3.456a2.175 2.175 0 0 1 -.079-.707 24.8 24.8 0 0 0 -5.89-1.414 8.535 8.535 0 0 0 -1.414-.079 2.35 2.35 0 0 1 -.314.628l-1.963 2.984a2.863 2.863 0 0 1 -3.848.785l-2.984-1.963a3.415 3.415 0 0 1 -.55-.471 22.062 22.062 0 0 0 -6.2 4.162c.078.236.157.393.236.628l.628 3.456a2.834 2.834 0 0 1 -2.2 3.3l-3.456.628a2.174 2.174 0 0 1 -.707.079 24.806 24.806 0 0 0 -1.417 5.892 8.534 8.534 0 0 0 -.079 1.414 2.351 2.351 0 0 1 .628.314l2.906 1.963a2.863 2.863 0 0 1 .785 3.848l-1.963 2.906a3.414 3.414 0 0 1 -.471.55 23.638 23.638 0 0 0 4.162 6.283c.236-.079.393-.157.628-.236l3.456-.628a2.834 2.834 0 0 1 3.3 2.2l.628 3.456a2.175 2.175 0 0 1 .079.707 24.8 24.8 0 0 0 5.89 1.414 8.534 8.534 0 0 0 1.414.079 2.352 2.352 0 0 1 .314-.628l1.963-2.906a2.863 2.863 0 0 1 3.848-.785l2.906 1.963a3.411 3.411 0 0 1 .55.471 22.061 22.061 0 0 0 6.2-4.162c-.078-.236-.157-.393-.236-.628l-.707-3.456a2.834 2.834 0 0 1 2.2-3.3l3.456-.707a2.173 2.173 0 0 1 .707-.079 20.281 20.281 0 0 0 1.495-5.891zm-12.019 4.638a12.1 12.1 0 1 1 -3.22-16.807 12.109 12.109 0 0 1 3.22 16.807z" transform="translate(-401.107 -120.267)"/></g><path d="m449.623 209.264h-11.788l1.653-21.907a5.572 5.572 0 0 0 -5.214-5.908c-.114-.007-.228-.01-.342-.011h-33.777a5.572 5.572 0 0 0 -5.566 5.578c0 .114 0 .228.011.342l1.653 21.907h-11.8a4.133 4.133 0 1 0 0 8.267h65.174a4.133 4.133 0 0 0 0-8.267zm-32.588-9.573a4.382 4.382 0 1 1 4.381-4.381 4.381 4.381 0 0 1 -4.381 4.381z" fill="#9c9695" transform="translate(-380.315 -113.729)"/><ellipse cx="36.897" cy="81.19" fill="#fff" rx="4.534" ry="4.912"/></svg>