<svg xmlns="http://www.w3.org/2000/svg" width="75" height="75" viewBox="0 0 75 75">
  <g id="Group_2882" data-name="Group 2882" transform="translate(-1182.104 -4065.451)">
    <circle id="Ellipse_307" data-name="Ellipse 307" cx="37.5" cy="37.5" r="37.5" transform="translate(1182.104 4065.451)" fill="#fff"/>
    <path id="Path_2533" data-name="Path 2533" d="M27.18,7.2a26,26,0,0,1-9.87-1.77A20.856,20.856,0,0,1,9.9.42,21.891,21.891,0,0,1,5.22-7.35,29.675,29.675,0,0,1,3.6-17.4,30.216,30.216,0,0,1,5.25-27.57a22.755,22.755,0,0,1,4.74-7.98,21.528,21.528,0,0,1,7.47-5.19A24.945,24.945,0,0,1,27.3-42.6a26.715,26.715,0,0,1,9.6,1.65,21.743,21.743,0,0,1,7.41,4.62,20.159,20.159,0,0,1,4.77,7.2,25.064,25.064,0,0,1,1.68,9.33,28.77,28.77,0,0,1-.63,6.21,15.524,15.524,0,0,1-1.95,4.95,9.907,9.907,0,0,1-3.33,3.3,9.134,9.134,0,0,1-4.77,1.2,8.529,8.529,0,0,1-5.28-1.5,6.118,6.118,0,0,1-2.4-4.02h-.24a8.185,8.185,0,0,1-2.43,4.02,6.713,6.713,0,0,1-4.59,1.5,9.046,9.046,0,0,1-3.81-.81,8.434,8.434,0,0,1-3.09-2.46,12.174,12.174,0,0,1-2.07-4.14,20.135,20.135,0,0,1-.75-5.79,20.135,20.135,0,0,1,.75-5.79,12.174,12.174,0,0,1,2.07-4.14,8.434,8.434,0,0,1,3.09-2.46,9.046,9.046,0,0,1,3.81-.81,7.141,7.141,0,0,1,4.44,1.32,6.073,6.073,0,0,1,2.28,3.3h.3L34.98-30h2.94v18.84q0,4.02,2.82,4.02,2.28,0,3.69-2.73t1.41-8.67v-2.4a20.188,20.188,0,0,0-1.35-7.53,16.5,16.5,0,0,0-3.81-5.79,17.211,17.211,0,0,0-5.85-3.72A20.6,20.6,0,0,0,27.3-39.3a19.028,19.028,0,0,0-7.74,1.53,17.216,17.216,0,0,0-5.94,4.26,18.956,18.956,0,0,0-3.78,6.48,24.51,24.51,0,0,0-1.32,8.19v2.7A24.177,24.177,0,0,0,9.84-7.95a17.786,17.786,0,0,0,3.78,6.3A17.088,17.088,0,0,0,19.5,2.4a19.615,19.615,0,0,0,7.68,1.44h13.5V6.06q-1.38.3-3.09.51t-3.51.36q-1.8.15-3.57.21T27.18,7.2Zm-.3-15.12A4.648,4.648,0,0,0,30.45-9.3a4.591,4.591,0,0,0,1.29-3.24V-22.5a3.972,3.972,0,0,0-1.29-3.09,5.119,5.119,0,0,0-3.57-1.17,4.192,4.192,0,0,0-3.6,1.62,6.984,6.984,0,0,0-1.2,4.26v7.08a6.984,6.984,0,0,0,1.2,4.26A4.192,4.192,0,0,0,26.88-7.92Z" transform="translate(1192.424 4121.2)" fill="#7ebfab"/>
  </g>
</svg>
