<svg xmlns="http://www.w3.org/2000/svg" width="123.524" height="119.741" viewBox="0 0 123.524 119.741"><defs><style>.a{fill:#9c9695;}.b{fill:#b68966;}.c,.d{fill:none;}.c{stroke:#57b093;stroke-width:1.5px;}.c,.d,.e{stroke-linecap:round;}.c,.e{stroke-linejoin:round;}.d,.e{stroke:#4e4d4d;stroke-width:2px;}.e,.g{fill:#fff;}.f{fill:#68b699;}</style></defs><g transform="translate(0)"><path class="a" d="M360.838,381.721h19.2V343.313h-19.2Zm10.8-33.607h3.6v2.4h-3.6Zm0,4.8h3.6v2.4h-3.6Zm0,4.8h3.6v2.4h-3.6Zm0,4.8h3.6v2.4h-3.6Zm0,4.8h3.6v2.4h-3.6Zm-6-19.2h3.6v2.4h-3.6Zm0,4.8h3.6v2.4h-3.6Zm0,4.8h3.6v2.4h-3.6Zm0,4.8h3.6v2.4h-3.6Zm0,4.8h3.6v2.4h-3.6Z" transform="translate(-341.634 -261.98)"/><path class="b" d="M360.163,322.928h-2.4v-4.8h-2.4v-4.8h-3.6v-4.8h-2.4v4.8h-3.6v4.8h-2.4v4.8h-2.4V380.54h16.8V339.731h2.4Zm-10.8,45.61h-3.6v-2.4h3.6Zm0-4.8h-3.6v-2.4h3.6Zm0-4.8h-3.6v-2.4h3.6Zm0-4.8h-3.6v-2.4h3.6Zm0-4.8h-3.6v-2.4h3.6Zm0-4.8h-3.6v-2.4h3.6Zm0-4.8h-3.6v-2.4h3.6Zm0-4.8h-3.6v-2.4h3.6Zm0-4.8h-3.6v-2.4h3.6Zm6,38.408h-3.6v-2.4h3.6Zm0-4.8h-3.6v-2.4h3.6Zm0-4.8h-3.6v-2.4h3.6Zm0-4.8h-3.6v-2.4h3.6Zm0-4.8h-3.6v-2.4h3.6Zm0-4.8h-3.6v-2.4h3.6Zm0-4.8h-3.6v-2.4h3.6Zm0-4.8h-3.6v-2.4h3.6Zm0-4.8h-3.6v-2.4h3.6Z" transform="translate(-340.959 -260.799)"/><g transform="translate(85.791 59.37)"><path class="b" d="M464.982,377.864h-32.7a2.376,2.376,0,0,0-2.516,2.515v2.516H467.5v-2.516A2.376,2.376,0,0,0,464.982,377.864Z" transform="translate(-429.765 -322.523)"/><path class="b" d="M432.281,362.063h32.7a2.516,2.516,0,1,0,0-5.031h-32.7a2.516,2.516,0,0,0,0,5.031Z" transform="translate(-429.765 -321.816)"/><path class="b" d="M432.369,366.1v7.547a1.258,1.258,0,1,0,2.516,0V366.1a1.258,1.258,0,0,0-2.516,0Z" transform="translate(-429.853 -322.081)"/><path class="b" d="M437.577,366.1v7.547a1.258,1.258,0,1,0,2.516,0V366.1a1.258,1.258,0,1,0-2.516,0Z" transform="translate(-430.03 -322.081)"/><path class="b" d="M442.785,366.1v7.547a1.258,1.258,0,1,0,2.516,0V366.1a1.258,1.258,0,0,0-2.516,0Z" transform="translate(-430.207 -322.081)"/><path class="b" d="M447.993,366.1v7.547a1.258,1.258,0,0,0,2.516,0V366.1a1.258,1.258,0,0,0-2.516,0Z" transform="translate(-430.384 -322.081)"/><path class="b" d="M453.2,366.1v7.547a1.257,1.257,0,1,0,2.515,0V366.1a1.257,1.257,0,1,0-2.515,0Z" transform="translate(-430.561 -322.081)"/><path class="b" d="M458.408,366.1v7.547a1.258,1.258,0,1,0,2.516,0V366.1a1.258,1.258,0,1,0-2.516,0Z" transform="translate(-430.738 -322.081)"/><path class="b" d="M463.616,366.1v7.547a1.258,1.258,0,1,0,2.516,0V366.1a1.258,1.258,0,0,0-2.516,0Z" transform="translate(-430.914 -322.081)"/><path class="b" d="M449.978,338.186V330.64h12.577l-5.031-5.031,5.031-5.031H448.72a1.189,1.189,0,0,0-1.258,1.258v16.35c-8.552.5-15.094,7.044-15.094,15.094h32.7C465.071,345.23,458.531,338.941,449.978,338.186Z" transform="translate(-429.853 -320.578)"/></g><line class="c" x1="34.816" transform="translate(44.838 91.453)"/><path class="c" d="M421.441,356.606l2.961-2.919-2.961-2.919" transform="translate(-343.692 -262.233)"/><line class="c" x2="34.816" transform="translate(45.894 99.123)"/><path class="c" d="M390.333,364.545l-2.961-2.919,2.961-2.919" transform="translate(-342.535 -262.503)"/><path class="d" d="M0,0V34.45" transform="translate(61.956 43.924)"/><ellipse class="e" cx="3.369" cy="3.369" rx="3.369" ry="3.369" transform="translate(58.587 75.093)"/><g transform="translate(31.173 0)"><path class="f" d="M381.322,259.122a8.094,8.094,0,1,0,0,16.187H426.7a8.094,8.094,0,1,0,0-16.187Z" transform="translate(-373.228 -259.122)"/><ellipse class="g" cx="2.256" cy="2.256" rx="2.256" ry="2.256" transform="translate(5.838 5.705)"/><ellipse class="g" cx="2.256" cy="2.256" rx="2.256" ry="2.256" transform="translate(14.595 5.705)"/><ellipse class="g" cx="2.256" cy="2.256" rx="2.256" ry="2.256" transform="translate(23.352 5.705)"/></g><g transform="translate(31.173 18.973)"><path class="f" d="M381.322,278.762a8.127,8.127,0,0,0-8.094,8.095,8.042,8.042,0,0,0,8.094,8.094H426.7a8.126,8.126,0,0,0,8.094-8.094,8.042,8.042,0,0,0-8.094-8.095Z" transform="translate(-373.228 -278.762)"/><ellipse class="g" cx="2.256" cy="2.256" rx="2.256" ry="2.256" transform="translate(5.838 5.838)"/><ellipse class="g" cx="2.256" cy="2.256" rx="2.256" ry="2.256" transform="translate(14.595 5.838)"/><ellipse class="g" cx="2.256" cy="2.256" rx="2.256" ry="2.256" transform="translate(23.352 5.838)"/></g><g transform="translate(31.173 37.947)"><path class="f" d="M381.322,298.4a8.126,8.126,0,0,0-8.094,8.094,8.041,8.041,0,0,0,8.094,8.094H426.7a8.126,8.126,0,0,0,8.094-8.094A8.041,8.041,0,0,0,426.7,298.4Z" transform="translate(-373.228 -298.403)"/><ellipse class="g" cx="2.256" cy="2.256" rx="2.256" ry="2.256" transform="translate(5.838 5.838)"/><ellipse class="g" cx="2.256" cy="2.256" rx="2.256" ry="2.256" transform="translate(14.595 5.838)"/><ellipse class="g" cx="2.256" cy="2.256" rx="2.256" ry="2.256" transform="translate(23.352 5.838)"/></g></g></svg>