<svg xmlns="http://www.w3.org/2000/svg" width="75" height="75" viewBox="0 0 75 75">
  <g id="Group_4006" data-name="Group 4006" transform="translate(-1846.104 -4222.451)">
    <g id="Group_4001" data-name="Group 4001">
      <circle id="Ellipse_12" data-name="Ellipse 12" cx="37.5" cy="37.5" r="37.5" transform="translate(1846.104 4222.451)" fill="#fff"/>
      <g id="scan-circle-outline" transform="translate(1876.19 4238.151)">
        <path id="Path_2515" data-name="Path 2515" d="M39.408,21.954A17.454,17.454,0,1,0,21.954,39.408,17.459,17.459,0,0,0,39.408,21.954Z" transform="translate(-4.5 -4.5)" fill="none" stroke="#7ebfab" stroke-miterlimit="10" stroke-width="4"/>
        <path id="Path_2516" data-name="Path 2516" d="M20.813,25.9h2.546A2.546,2.546,0,0,0,25.9,23.358V20.812" transform="translate(0.278 0.278)" fill="none" stroke="#7ebfab" stroke-linecap="round" stroke-linejoin="round" stroke-width="4"/>
        <path id="Path_2517" data-name="Path 2517" d="M25.9,16.341V13.8a2.546,2.546,0,0,0-2.546-2.546H20.812" transform="translate(0.278 -2.523)" fill="none" stroke="#7ebfab" stroke-linecap="round" stroke-linejoin="round" stroke-width="4"/>
        <path id="Path_2518" data-name="Path 2518" d="M16.341,25.9H13.8a2.546,2.546,0,0,1-2.546-2.546V20.812" transform="translate(-2.523 0.278)" fill="none" stroke="#7ebfab" stroke-linecap="round" stroke-linejoin="round" stroke-width="4"/>
        <path id="Path_2519" data-name="Path 2519" d="M11.25,16.341V13.8A2.546,2.546,0,0,1,13.8,11.25h2.546" transform="translate(-2.523 -2.523)" fill="none" stroke="#7ebfab" stroke-linecap="round" stroke-linejoin="round" stroke-width="4"/>
      </g>
    </g>
    <path id="finger-print-outline" d="M23.543,4.617a.616.616,0,0,1-.313-.085,15.118,15.118,0,0,0-7.583-1.993A15.127,15.127,0,0,0,8.063,4.532a.677.677,0,0,1-.926-.285.73.73,0,0,1,.273-.961,16.769,16.769,0,0,1,16.447-.013.707.707,0,0,1,.286.947.666.666,0,0,1-.6.4ZM4.059,12.038a.691.691,0,0,1-.395-.127.722.722,0,0,1-.163-.989A14.236,14.236,0,0,1,8.607,6.3a15.206,15.206,0,0,1,14.037-.014,14.3,14.3,0,0,1,5.106,4.594.724.724,0,0,1-.163.989.663.663,0,0,1-.953-.169,12.929,12.929,0,0,0-4.616-4.156,13.873,13.873,0,0,0-12.8.014A13.088,13.088,0,0,0,4.59,11.739.589.589,0,0,1,4.059,12.038ZM12.569,29.1a.628.628,0,0,1-.477-.212,14.3,14.3,0,0,1-2.737-3.734,12.9,12.9,0,0,1-1.429-6.135,7.708,7.708,0,0,1,15.415,0,.681.681,0,1,1-1.361,0,6.348,6.348,0,0,0-12.693,0,11.421,11.421,0,0,0,1.266,5.443,13.391,13.391,0,0,0,2.519,3.421.746.746,0,0,1,0,1,.733.733,0,0,1-.5.217Zm9.763-2.615a7.137,7.137,0,0,1-4.221-1.258,7.6,7.6,0,0,1-3.239-6.206.682.682,0,1,1,1.362,0,6.142,6.142,0,0,0,2.641,5.033,5.808,5.808,0,0,0,3.459,1,8.683,8.683,0,0,0,1.414-.142.681.681,0,0,1,.789.58.7.7,0,0,1-.558.82,8.969,8.969,0,0,1-1.646.169ZM19.6,29.4a.765.765,0,0,1-.177-.028A10.679,10.679,0,0,1,11.4,19.021a4.194,4.194,0,0,1,8.387,0,2.834,2.834,0,0,0,5.665,0,9.771,9.771,0,0,0-9.871-9.655,9.9,9.9,0,0,0-9,5.7,9.4,9.4,0,0,0-.8,3.958,14.53,14.53,0,0,0,.911,5.1.7.7,0,0,1-.395.9.668.668,0,0,1-.871-.412,16.28,16.28,0,0,1-.994-5.6,10.967,10.967,0,0,1,.926-4.581A11.256,11.256,0,0,1,26.81,19.006a4.194,4.194,0,0,1-8.387,0,2.833,2.833,0,0,0-5.664,0,9.081,9.081,0,0,0,2.547,6.376,9.211,9.211,0,0,0,4.452,2.615.7.7,0,0,1,.477.862.671.671,0,0,1-.64.539Z" transform="translate(1851.237 4254.728)" fill="#7ebfab" stroke="#7ebfab" stroke-width="1"/>
  </g>
</svg>
