<svg xmlns="http://www.w3.org/2000/svg" xmlns:xlink="http://www.w3.org/1999/xlink" width="98.485" height="133.423" viewBox="0 0 98.485 133.423">
  <defs>
    <clipPath id="clip-path">
      <path id="Path_2413" data-name="Path 2413" d="M606.854,306.108s-3.7,29.349,16.933,36.007l8.469-1.234-1.645-34.691-23.757-.083Z" transform="translate(-606.596 -306.108)" fill="none"/>
    </clipPath>
  </defs>
  <g id="Group_2550" data-name="Group 2550" transform="translate(-567.357 -303.36)">
    <g id="Group_2549" data-name="Group 2549" transform="translate(567.357 303.36)">
      <g id="Group_2548" data-name="Group 2548">
        <path id="Path_2408" data-name="Path 2408" d="M576.319,369.354a88.8,88.8,0,0,0-8.962,8.714c7.4,6.411,35.021,19.894,65.6,16.277,30.5-3.7,32.883-13.646,32.883-13.646-3.7-3.452-13.318-10.275-13.318-10.275" transform="translate(-567.357 -261.527)" fill="#c1c1c1"/>
        <path id="Path_2409" data-name="Path 2409" d="M572.842,411.186a58.214,58.214,0,0,1,13.646-7.893c7.81-3.124,6.33-6.74,8.22-23.182,0,0-8.138-10.852-8.632-16.77,0,0-7.645-2.8-8.057-14.3-.493-11.509,4.111-9.537,4.111-9.537s-3.124-17.345,12.578-30.581,41.022.165,46.2,9.125c5.1,8.96,6.741,17.347,4.358,25.732s2.137,16.605-4.851,30.088c-6.988,13.564-10.769,15.29-16.935,17.757l.247,7.07a5.74,5.74,0,0,0,3.536,4.027c2.959,1.069,21.866,9.537,21.866,9.537-6.9.082-13.975,5.014-39.623,5.014s-36.664-6.083-36.664-6.083" transform="translate(-563.88 -303.36)" fill="#d6d6d6"/>
        <path id="Path_2410" data-name="Path 2410" d="M612.274,367.51c-16.442-4.111-21.621-14.961-21.621-14.961,7.317,8.22,21.456,7.808,21.456,7.808Z" transform="translate(-552.59 -272.18)" fill="#8a8a8a"/>
        <path id="Path_2411" data-name="Path 2411" d="M578.477,325.479s6.9,1.727,8.385,12.249h.987l-.165-10.934Z" transform="translate(-560.308 -289.339)" fill="#363636"/>
        <g id="Group_2547" data-name="Group 2547" transform="translate(64.112 4.49)">
          <g id="Group_2541" data-name="Group 2541">
            <g id="Group_2540" data-name="Group 2540">
              <g id="Group_2539" data-name="Group 2539">
                <g id="Group_2538" data-name="Group 2538">
                  <g id="Group_2537" data-name="Group 2537" clip-path="url(#clip-path)">
                    <path id="Path_2412" data-name="Path 2412" d="M572.842,411.186a58.214,58.214,0,0,1,13.646-7.893c7.81-3.124,6.33-6.74,8.22-23.182,0,0-8.138-10.852-8.632-16.77,0,0-7.645-2.8-8.057-14.3-.493-11.509,4.111-9.537,4.111-9.537s-3.124-17.345,12.578-30.581,41.022.165,46.2,9.125c5.1,8.96,6.741,17.347,4.358,25.732s2.137,16.605-4.851,30.088c-6.988,13.564-10.769,15.29-16.935,17.757l.247,7.07a5.74,5.74,0,0,0,3.536,4.027c2.959,1.069,17.264,5.838,21.866,9.537,0,0-13.975,5.014-39.623,5.014s-36.664-6.083-36.664-6.083" transform="translate(-627.992 -307.85)" fill="#2e2e2e"/>
                  </g>
                </g>
              </g>
            </g>
          </g>
          <g id="Group_2546" data-name="Group 2546">
            <g id="Group_2545" data-name="Group 2545">
              <g id="Group_2544" data-name="Group 2544">
                <g id="Group_2543" data-name="Group 2543">
                  <g id="Group_2542" data-name="Group 2542" clip-path="url(#clip-path)">
                    <path id="Path_2414" data-name="Path 2414" d="M612.274,367.51c-16.442-4.111-21.621-14.961-21.621-14.961,7.317,8.22,21.456,7.808,21.456,7.808Z" transform="translate(-616.702 -276.67)" fill="#686868"/>
                  </g>
                </g>
              </g>
            </g>
          </g>
        </g>
        <path id="Path_2416" data-name="Path 2416" d="M578.575,339.5s-3.124-17.345,12.578-30.581,41.022.165,46.2,9.125A38.321,38.321,0,0,1,620.09,339.5c-13.894,8.3-41.515,0-41.515,0" transform="translate(-560.406 -303.36)" fill="#363636"/>
        <path id="Path_2417" data-name="Path 2417" d="M627.131,364.171c2.959,1.069,15.62,6.083,21.868,9.537,0,0-13.976,5.014-39.625,5.014-25.484,0-36.583-6.166-36.583-6.166a58.289,58.289,0,0,1,13.646-7.892s16.935,14.468,34.117,13.729c17.345-.658,6.576-14.223,6.576-14.223" transform="translate(-563.912 -264.813)" fill="#9e9e9e"/>
      </g>
    </g>
    <g id="thumbs-up-solid" transform="translate(630.278 346.446)">
      <path id="Path_2408-2" data-name="Path 2408" d="M625.341,340.587c-1.781-2.385-3.884-7.571-4.822-10.011a1.311,1.311,0,0,0-1.938-.634,3.527,3.527,0,0,0-1.784,2.952v10.918h-9.16a1.754,1.754,0,0,0-1.769,1.779,33,33,0,0,0,1.6,9.125,22.491,22.491,0,0,0,4.023,7.53,1.78,1.78,0,0,0,1.33.6h6.952c2.294,0,6.326-1.815,9.568-3.624a1.754,1.754,0,0,0,.89-1.538V345.43a1.709,1.709,0,0,0-.944-1.5A12.14,12.14,0,0,1,625.341,340.587Z" transform="translate(-605.867 -329.73)" fill="#81c1ab"/>
      <path id="Path_2409-2" data-name="Path 2409" d="M623.271,336.978a1.119,1.119,0,0,0-1.119,1.119v17.915a1.118,1.118,0,0,0,1.119,1.119h6.315a1.522,1.522,0,0,0,1.523-1.523V338.5a1.522,1.522,0,0,0-1.523-1.523Z" transform="translate(-595.545 -325.136)" fill="#81c1ab"/>
    </g>
  </g>
</svg>
