<svg xmlns="http://www.w3.org/2000/svg" width="67.936" height="72.007" viewBox="0 0 67.936 72.007">
  <g id="arrow-change" transform="translate(-2.017 -0.107)">
    <path id="Path_2396" data-name="Path 2396" d="M8.973,36A5.879,5.879,0,0,0,15.2,29.776l-.017-1.964s-.925-5.567,6.5-5.567l30.074.207v7.942a3.748,3.748,0,0,0,5.283,0L68.657,18.781a3.748,3.748,0,0,0,0-5.283L57.037,1.2a3.748,3.748,0,0,0-5.283,0v8.33c-.727-.213-29.134-.335-29.134-.335C5.865,9.191,2.2,20.158,2.2,24.574v4.654A6.771,6.771,0,0,0,8.971,36Z" transform="translate(0.207 0)" fill="#7ebfab"/>
    <path id="Path_2397" data-name="Path 2397" d="M63.182,17.03A6.447,6.447,0,0,0,56.411,23.4l.009,4.322c-.2,1.612-2.912,2.663-6.884,2.663H20.011L20,23.351a3.748,3.748,0,0,0-5.283,0L3.106,34.964a3.748,3.748,0,0,0,0,5.283L14.719,51.861a3.729,3.729,0,0,0,5.283,0l.009-8.357H49.533c16.755,0,20.42-11.025,20.42-15.444V23.4a6.446,6.446,0,0,0-6.771-6.37Z" transform="translate(0 19.157)" fill="#aadccd"/>
  </g>
</svg>
