<svg xmlns="http://www.w3.org/2000/svg" xmlns:xlink="http://www.w3.org/1999/xlink" width="211.866" height="139.392" viewBox="0 0 211.866 139.392">
  <defs>
    <clipPath id="clip-path">
      <rect id="Rectangle_418" data-name="Rectangle 418" width="24.828" height="29.981" fill="none"/>
    </clipPath>
    <clipPath id="clip-path-2">
      <path id="Path_2422" data-name="Path 2422" d="M147.374,237.849s-.839,6.663,3.839,8.161l1.925-.29-.373-7.87Z" transform="translate(-147.316 -237.849)" fill="none"/>
    </clipPath>
    <clipPath id="clip-path-4">
      <path id="Path_2436" data-name="Path 2436" d="M219.107,237.849s-.841,6.663,3.84,8.161l1.923-.29-.372-7.87Z" transform="translate(-219.048 -237.849)" fill="none"/>
    </clipPath>
  </defs>
  <g id="Group_2582" data-name="Group 2582" transform="translate(-113.099 -210.246)">
    <g id="Group_2571" data-name="Group 2571" transform="translate(113.099 220.984)">
      <rect id="Rectangle_416" data-name="Rectangle 416" width="75.394" height="117.915" rx="1.337" fill="#efeeee"/>
      <g id="Group_2568" data-name="Group 2568" transform="translate(45.961 34.191)">
        <rect id="Rectangle_417" data-name="Rectangle 417" width="24.828" height="29.981" fill="#fff"/>
        <g id="Group_2567" data-name="Group 2567">
          <g id="Group_2566" data-name="Group 2566" clip-path="url(#clip-path)">
            <g id="Group_2565" data-name="Group 2565" transform="translate(1.235 3.462)">
              <path id="Path_2418" data-name="Path 2418" d="M141.286,250.85a19.977,19.977,0,0,0-2.03,1.981c1.692,1.469,7.948,4.522,14.884,3.693s7.461-3.091,7.461-3.091c-.839-.8-3.029-2.324-3.029-2.324" transform="translate(-139.256 -226.382)" fill="#686868"/>
              <path id="Path_2419" data-name="Path 2419" d="M140.381,261.757a12.8,12.8,0,0,1,3.085-1.8c1.759-.7,1.427-1.543,1.858-5.261,0,0-1.849-2.466-1.952-3.8,0,0-1.727-.639-1.83-3.248s.926-2.158.926-2.158a7.76,7.76,0,0,1,2.856-6.945c3.576-3,9.308.04,10.481,2.075a7.335,7.335,0,0,1,.985,5.835c-.534,1.891.473,3.762-1.11,6.844s-2.445,3.473-3.841,4.027l.056,1.608a1.309,1.309,0,0,0,.8.917c.668.24,4.969,2.163,4.969,2.163-1.566.022-3.183,1.142-8.982,1.142s-8.3-1.4-8.3-1.4" transform="translate(-138.351 -237.289)" fill="#a4a4a4"/>
              <g id="Group_2564" data-name="Group 2564" transform="translate(14.542 1.011)">
                <g id="Group_2563" data-name="Group 2563" clip-path="url(#clip-path-2)">
                  <path id="Path_2420" data-name="Path 2420" d="M140.381,261.757a12.8,12.8,0,0,1,3.085-1.8c1.759-.7,1.427-1.543,1.858-5.261,0,0-1.849-2.466-1.952-3.8,0,0-1.727-.639-1.83-3.248s.926-2.158.926-2.158a7.76,7.76,0,0,1,2.856-6.945c3.576-3,9.308.04,10.481,2.075a7.335,7.335,0,0,1,.985,5.835c-.534,1.891.473,3.762-1.11,6.844s-2.445,3.473-3.841,4.027l.056,1.608a1.309,1.309,0,0,0,.8.917,24.512,24.512,0,0,1,4.969,2.163,29.09,29.09,0,0,1-8.982,1.142c-5.8,0-8.3-1.4-8.3-1.4" transform="translate(-152.893 -238.3)" fill="#2d2d2d"/>
                  <path id="Path_2421" data-name="Path 2421" d="M148.955,250.8a7.387,7.387,0,0,1-4.917-3.383c1.651,1.869,4.861,1.775,4.861,1.775Z" transform="translate(-149.952 -230.158)" fill="#686563"/>
                </g>
              </g>
              <path id="Path_2423" data-name="Path 2423" d="M144.421,238.549a7.759,7.759,0,0,0-2.856,6.945s1.563.381,1.9,2.777h.229l-.038-2.291c2.113.392,5.341.7,7.334-.485a8.694,8.694,0,0,0,3.91-4.87C153.729,238.588,148,235.548,144.421,238.549Z" transform="translate(-137.447 -237.289)" fill="#353535"/>
              <path id="Path_2424" data-name="Path 2424" d="M152.7,249.795a45.892,45.892,0,0,1,4.969,2.163,29.089,29.089,0,0,1-8.982,1.142c-5.8,0-8.3-1.4-8.3-1.4a12.8,12.8,0,0,1,3.085-1.8s3.845,3.286,7.751,3.121,1.48-3.23,1.48-3.23" transform="translate(-138.351 -227.23)" fill="#686868"/>
            </g>
          </g>
        </g>
      </g>
      <g id="Group_2569" data-name="Group 2569" transform="translate(31.143 3.336)">
        <path id="Path_2425" data-name="Path 2425" d="M136.456,218.838a5.527,5.527,0,1,0,5.526,5.528A5.529,5.529,0,0,0,136.456,218.838Zm3.277,5.4a4.493,4.493,0,0,0-.449-1.992,7.925,7.925,0,0,1,2.185,1.992Zm-.321,0h-2.827v-2.827a5.567,5.567,0,0,1,2.25.579A4.7,4.7,0,0,1,139.412,224.236Zm-2.827-3.148v-1.8a9.126,9.126,0,0,1,1.992,2.248A4.128,4.128,0,0,0,136.584,221.088Zm-.256,0a6.3,6.3,0,0,0-2.122.449,10.249,10.249,0,0,1,2.122-2.376Zm0,.321v2.827h-2.892a4.463,4.463,0,0,1,.577-2.185A4.2,4.2,0,0,1,136.328,221.409Zm-3.213,2.827h-1.736a9.023,9.023,0,0,1,2.185-1.992A4.309,4.309,0,0,0,133.115,224.236Zm0,.258a5.606,5.606,0,0,0,.449,2.057,7.532,7.532,0,0,1-2.25-2.057Zm.321,0h2.892v2.892a5.56,5.56,0,0,1-2.25-.579A4.2,4.2,0,0,1,133.436,224.494Zm2.892,3.213v1.736a7.93,7.93,0,0,1-1.994-2.185A4.14,4.14,0,0,0,136.328,227.708Zm.256,0a5.15,5.15,0,0,0,1.929-.386,8.551,8.551,0,0,1-1.929,2.122Zm0-.321v-2.892h2.827a5.011,5.011,0,0,1-.642,2.313A4.27,4.27,0,0,1,136.584,227.387Zm3.148-2.892h1.8a7.655,7.655,0,0,1-2.315,2.057A4.615,4.615,0,0,0,139.733,224.494Zm1.929-.579a8.962,8.962,0,0,0-2.571-2.185,7.8,7.8,0,0,0-2.12-2.569A5.213,5.213,0,0,1,141.662,223.915Zm-5.785-4.754a7.393,7.393,0,0,0-2.12,2.634,8.193,8.193,0,0,0-2.506,2.057A5.26,5.26,0,0,1,135.877,219.161Zm-4.626,5.783a8.873,8.873,0,0,0,2.569,2.122,8.53,8.53,0,0,0,2.122,2.506A5.262,5.262,0,0,1,131.251,224.944Zm5.655,4.628a7.672,7.672,0,0,0,2.122-2.506,7.629,7.629,0,0,0,2.634-2.185A5.217,5.217,0,0,1,136.906,229.572Z" transform="translate(-129.901 -217.811)" fill="#e6ac23"/>
        <path id="Path_2426" data-name="Path 2426" d="M136.914,218.269a6.555,6.555,0,1,0,6.555,6.555A6.582,6.582,0,0,0,136.914,218.269Zm0,12.852a6.3,6.3,0,1,1,6.3-6.3A6.308,6.308,0,0,1,136.914,231.121Z" transform="translate(-130.359 -218.269)" fill="#e6ac23"/>
      </g>
      <rect id="Rectangle_419" data-name="Rectangle 419" width="27.159" height="1.185" transform="translate(24.117 18.305)" fill="#a4a4a4"/>
      <rect id="Rectangle_420" data-name="Rectangle 420" width="37.302" height="1.185" transform="translate(19.046 20.892)" fill="#a4a4a4"/>
      <rect id="Rectangle_421" data-name="Rectangle 421" width="32.916" height="2.792" transform="translate(4.652 34.191)" fill="#686868"/>
      <rect id="Rectangle_422" data-name="Rectangle 422" width="27.968" height="2.792" transform="translate(4.652 38.349)" fill="#686868"/>
      <rect id="Rectangle_423" data-name="Rectangle 423" width="23.7" height="1.902" transform="translate(4.652 75.635)" fill="#a4a4a4"/>
      <rect id="Rectangle_424" data-name="Rectangle 424" width="15.732" height="1.902" transform="translate(4.652 81.531)" fill="#a4a4a4"/>
      <rect id="Rectangle_425" data-name="Rectangle 425" width="20.137" height="1.902" transform="translate(4.652 87.426)" fill="#a4a4a4"/>
      <rect id="Rectangle_426" data-name="Rectangle 426" width="23.591" height="1.902" transform="translate(32.17 75.635)" fill="#7b7b7b"/>
      <rect id="Rectangle_427" data-name="Rectangle 427" width="34.527" height="1.902" transform="translate(32.17 81.531)" fill="#7b7b7b"/>
      <rect id="Rectangle_428" data-name="Rectangle 428" width="34.527" height="1.902" transform="translate(32.17 87.426)" fill="#7b7b7b"/>
      <g id="Group_2570" data-name="Group 2570" transform="translate(42.433 94.23)">
        <path id="Path_2427" data-name="Path 2427" d="M139.679,271.19a2.549,2.549,0,0,0-2.558,2.151c-.229.74.927,1.054,1.155.319.2-.651,1.563-1.821,2.23-1.023.484.576.009,2.279-.209,2.836a5.463,5.463,0,0,1-3.275,3.076c-.715.271-.406,1.429.318,1.157,2.809-1.063,4.931-3.715,4.428-6.849C141.565,271.6,140.948,271.165,139.679,271.19Z" transform="translate(-136.616 -266.601)" fill="#ef5253"/>
        <path id="Path_2428" data-name="Path 2428" d="M142.807,272.636c.029-.77-1.169-.77-1.2,0a4.438,4.438,0,0,1-.177,1.119c-.061.2-.251.92-.493.982-.442.115-.173-1.647-.148-1.94.067-.767-1.131-.763-1.2,0-.092,1.083-.372,3.264,1.35,3.175C142.374,275.9,142.765,273.724,142.807,272.636Z" transform="translate(-134.282 -265.902)" fill="#ef5253"/>
        <path id="Path_2429" data-name="Path 2429" d="M142.623,275.42a8.144,8.144,0,0,1,.588-2.12,6.007,6.007,0,0,1,.29.772.606.606,0,0,0,1,.263q.441-.46.879-.922c.637.426,1.189-.216,1.911-.695a4.56,4.56,0,0,1,1,1.375c.364.68,1.4.076,1.034-.6-.343-.641-.951-1.772-1.7-2.006-.374-.119-1.846.59-1.732.767a.6.6,0,0,0-.94-.121c-.217.226-.431.451-.648.678a2.357,2.357,0,0,0-.617-.866.623.623,0,0,0-.727-.094,2.114,2.114,0,0,0-.435.4c-.087-.705-1.211-.695-1.184.056q.051,1.48.1,2.959C141.469,275.911,142.472,276.1,142.623,275.42Z" transform="translate(-132.814 -266.375)" fill="#ef5253"/>
        <path id="Path_2430" data-name="Path 2430" d="M145.826,272.646a20.093,20.093,0,0,1-.927-3.567c-.126-.758-1.281-.437-1.157.319a20.275,20.275,0,0,0,.929,3.565C144.929,273.683,146.088,273.373,145.826,272.646Z" transform="translate(-130.893 -268.646)" fill="#ef5253"/>
        <path id="Path_2431" data-name="Path 2431" d="M155.975,272.93q-7.5,1.824-14.966,3.782a.6.6,0,0,0,.319,1.155q7.464-1.957,14.965-3.782C157.041,273.9,156.726,272.747,155.975,272.93Z" transform="translate(-133.426 -265.217)" fill="#ef5253"/>
      </g>
    </g>
    <g id="Group_2580" data-name="Group 2580" transform="translate(242.524 220.984)">
      <rect id="Rectangle_429" data-name="Rectangle 429" width="75.394" height="117.915" rx="1.337" fill="#efeeee"/>
      <g id="Group_2577" data-name="Group 2577" transform="translate(45.961 34.191)">
        <rect id="Rectangle_430" data-name="Rectangle 430" width="24.828" height="29.981" fill="#fff"/>
        <g id="Group_2576" data-name="Group 2576">
          <g id="Group_2575" data-name="Group 2575" clip-path="url(#clip-path)">
            <g id="Group_2574" data-name="Group 2574" transform="translate(1.235 3.462)">
              <path id="Path_2432" data-name="Path 2432" d="M213.019,250.85a19.747,19.747,0,0,0-2.03,1.981c1.692,1.469,7.948,4.522,14.882,3.693s7.462-3.091,7.462-3.091a38.168,38.168,0,0,0-3.031-2.324" transform="translate(-210.989 -226.382)" fill="#686868"/>
              <path id="Path_2433" data-name="Path 2433" d="M212.114,261.757a12.807,12.807,0,0,1,3.084-1.8c1.761-.7,1.429-1.543,1.86-5.261,0,0-1.849-2.466-1.952-3.8,0,0-1.727-.639-1.83-3.248s.926-2.158.926-2.158a7.76,7.76,0,0,1,2.856-6.945c3.576-3,9.308.04,10.479,2.075a7.337,7.337,0,0,1,.987,5.835c-.534,1.891.473,3.762-1.11,6.844s-2.445,3.473-3.843,4.027l.058,1.608a1.309,1.309,0,0,0,.8.917c.668.24,4.967,2.163,4.967,2.163-1.564.022-3.183,1.142-8.982,1.142s-8.3-1.4-8.3-1.4" transform="translate(-210.084 -237.289)" fill="#a4a4a4"/>
              <g id="Group_2573" data-name="Group 2573" transform="translate(14.541 1.011)">
                <g id="Group_2572" data-name="Group 2572" clip-path="url(#clip-path-4)">
                  <path id="Path_2434" data-name="Path 2434" d="M212.114,261.757a12.807,12.807,0,0,1,3.084-1.8c1.761-.7,1.429-1.543,1.86-5.261,0,0-1.849-2.466-1.952-3.8,0,0-1.727-.639-1.83-3.248s.926-2.158.926-2.158a7.76,7.76,0,0,1,2.856-6.945c3.576-3,9.308.04,10.479,2.075a7.337,7.337,0,0,1,.987,5.835c-.534,1.891.473,3.762-1.11,6.844s-2.445,3.473-3.843,4.027l.058,1.608a1.309,1.309,0,0,0,.8.917,24.5,24.5,0,0,1,4.967,2.163,29.09,29.09,0,0,1-8.982,1.142c-5.8,0-8.3-1.4-8.3-1.4" transform="translate(-224.626 -238.3)" fill="#2d2d2d"/>
                  <path id="Path_2435" data-name="Path 2435" d="M220.688,250.8a7.388,7.388,0,0,1-4.918-3.383c1.651,1.869,4.861,1.775,4.861,1.775Z" transform="translate(-221.685 -230.158)" fill="#686563"/>
                </g>
              </g>
              <path id="Path_2437" data-name="Path 2437" d="M216.154,238.549a7.759,7.759,0,0,0-2.856,6.945s1.561.381,1.9,2.777h.229l-.038-2.291c2.113.392,5.341.7,7.334-.485a8.7,8.7,0,0,0,3.908-4.87C225.462,238.588,219.728,235.548,216.154,238.549Z" transform="translate(-209.18 -237.289)" fill="#353535"/>
              <path id="Path_2438" data-name="Path 2438" d="M224.43,249.795a45.736,45.736,0,0,1,4.967,2.163,29.089,29.089,0,0,1-8.982,1.142c-5.8,0-8.3-1.4-8.3-1.4a12.806,12.806,0,0,1,3.084-1.8s3.847,3.286,7.753,3.121,1.48-3.23,1.48-3.23" transform="translate(-210.084 -227.23)" fill="#686868"/>
            </g>
          </g>
        </g>
      </g>
      <g id="Group_2578" data-name="Group 2578" transform="translate(31.142 3.336)">
        <path id="Path_2439" data-name="Path 2439" d="M208.188,218.838a5.527,5.527,0,1,0,5.528,5.528A5.528,5.528,0,0,0,208.188,218.838Zm3.278,5.4a4.493,4.493,0,0,0-.449-1.992,7.926,7.926,0,0,1,2.185,1.992Zm-.321,0h-2.827v-2.827a5.552,5.552,0,0,1,2.248.579A4.683,4.683,0,0,1,211.145,224.236Zm-2.827-3.148v-1.8a9.126,9.126,0,0,1,1.992,2.248A4.138,4.138,0,0,0,208.317,221.088Zm-.258,0a6.291,6.291,0,0,0-2.12.449,10.281,10.281,0,0,1,2.12-2.376Zm0,.321v2.827h-2.892a4.446,4.446,0,0,1,.579-2.185A4.2,4.2,0,0,1,208.059,221.409Zm-3.213,2.827H203.11a9.064,9.064,0,0,1,2.187-1.992A4.289,4.289,0,0,0,204.846,224.236Zm0,.258a5.608,5.608,0,0,0,.451,2.057,7.511,7.511,0,0,1-2.25-2.057Zm.321,0h2.892v2.892a5.568,5.568,0,0,1-2.25-.579A4.2,4.2,0,0,1,205.167,224.494Zm2.892,3.213v1.736a7.923,7.923,0,0,1-1.992-2.185A4.133,4.133,0,0,0,208.059,227.708Zm.258,0a5.134,5.134,0,0,0,1.927-.386,8.508,8.508,0,0,1-1.927,2.122Zm0-.321v-2.892h2.827a5.033,5.033,0,0,1-.642,2.313A4.27,4.27,0,0,1,208.317,227.387Zm3.148-2.892h1.8a7.629,7.629,0,0,1-2.313,2.057A4.639,4.639,0,0,0,211.466,224.494Zm1.929-.579a9.01,9.01,0,0,0-2.571-2.185,7.811,7.811,0,0,0-2.122-2.569A5.213,5.213,0,0,1,213.395,223.915Zm-5.785-4.754a7.419,7.419,0,0,0-2.122,2.634,8.236,8.236,0,0,0-2.506,2.057A5.262,5.262,0,0,1,207.61,219.161Zm-4.628,5.783a8.9,8.9,0,0,0,2.571,2.122,8.523,8.523,0,0,0,2.12,2.506A5.266,5.266,0,0,1,202.982,224.944Zm5.656,4.628a7.643,7.643,0,0,0,2.12-2.506,7.65,7.65,0,0,0,2.636-2.185A5.217,5.217,0,0,1,208.639,229.572Z" transform="translate(-201.633 -217.811)" fill="#e6ac23"/>
        <path id="Path_2440" data-name="Path 2440" d="M208.646,218.269a6.555,6.555,0,1,0,6.557,6.555A6.583,6.583,0,0,0,208.646,218.269Zm0,12.852a6.3,6.3,0,1,1,6.3-6.3A6.307,6.307,0,0,1,208.646,231.121Z" transform="translate(-202.091 -218.269)" fill="#e6ac23"/>
      </g>
      <rect id="Rectangle_432" data-name="Rectangle 432" width="27.159" height="1.185" transform="translate(24.118 18.305)" fill="#a4a4a4"/>
      <rect id="Rectangle_433" data-name="Rectangle 433" width="37.302" height="1.185" transform="translate(19.046 20.892)" fill="#a4a4a4"/>
      <rect id="Rectangle_434" data-name="Rectangle 434" width="32.916" height="2.792" transform="translate(4.652 34.191)" fill="#686868"/>
      <rect id="Rectangle_435" data-name="Rectangle 435" width="27.968" height="2.792" transform="translate(4.652 38.349)" fill="#686868"/>
      <rect id="Rectangle_436" data-name="Rectangle 436" width="23.7" height="1.902" transform="translate(4.652 75.635)" fill="#a4a4a4"/>
      <rect id="Rectangle_437" data-name="Rectangle 437" width="15.732" height="1.902" transform="translate(4.652 81.531)" fill="#a4a4a4"/>
      <rect id="Rectangle_438" data-name="Rectangle 438" width="20.137" height="1.902" transform="translate(4.652 87.426)" fill="#a4a4a4"/>
      <rect id="Rectangle_439" data-name="Rectangle 439" width="23.591" height="1.902" transform="translate(32.17 75.635)" fill="#7b7b7b"/>
      <rect id="Rectangle_440" data-name="Rectangle 440" width="34.527" height="1.902" transform="translate(32.17 81.531)" fill="#7b7b7b"/>
      <rect id="Rectangle_441" data-name="Rectangle 441" width="34.527" height="1.902" transform="translate(32.17 87.426)" fill="#7b7b7b"/>
      <g id="Group_2579" data-name="Group 2579" transform="translate(42.432 94.23)">
        <path id="Path_2441" data-name="Path 2441" d="M211.413,271.19a2.55,2.55,0,0,0-2.56,2.151c-.227.74.929,1.054,1.157.319.2-.651,1.563-1.821,2.23-1.023.484.576.007,2.279-.209,2.836a5.461,5.461,0,0,1-3.277,3.076c-.714.271-.4,1.429.319,1.157,2.809-1.063,4.931-3.715,4.428-6.849C213.3,271.6,212.679,271.165,211.413,271.19Z" transform="translate(-208.349 -266.601)" fill="#ef5253"/>
        <path id="Path_2442" data-name="Path 2442" d="M214.54,272.636c.029-.77-1.169-.77-1.2,0a4.442,4.442,0,0,1-.179,1.119c-.06.2-.249.92-.491.982-.444.115-.173-1.647-.148-1.94.067-.767-1.133-.763-1.2,0-.094,1.083-.374,3.264,1.35,3.175C214.105,275.9,214.5,273.724,214.54,272.636Z" transform="translate(-206.014 -265.902)" fill="#ef5253"/>
        <path id="Path_2443" data-name="Path 2443" d="M214.355,275.42a8.286,8.286,0,0,1,.588-2.12,5.773,5.773,0,0,1,.292.772.605.605,0,0,0,1,.263l.879-.922c.637.426,1.189-.216,1.909-.695a4.535,4.535,0,0,1,1,1.375c.365.68,1.4.076,1.034-.6-.343-.641-.951-1.772-1.7-2.006-.374-.119-1.846.59-1.732.767a.607.607,0,0,0-.942-.121c-.215.226-.431.451-.646.678a2.361,2.361,0,0,0-.619-.866.62.62,0,0,0-.725-.094,2.069,2.069,0,0,0-.435.4c-.087-.705-1.211-.695-1.185.056q.051,1.48.1,2.959C213.2,275.911,214.206,276.1,214.355,275.42Z" transform="translate(-204.547 -266.375)" fill="#ef5253"/>
        <path id="Path_2444" data-name="Path 2444" d="M217.559,272.646a20.256,20.256,0,0,1-.929-3.567c-.124-.758-1.279-.437-1.155.319a20.428,20.428,0,0,0,.927,3.565C216.662,273.683,217.821,273.373,217.559,272.646Z" transform="translate(-202.625 -268.646)" fill="#ef5253"/>
        <path id="Path_2445" data-name="Path 2445" d="M227.708,272.93q-7.5,1.824-14.966,3.782a.6.6,0,0,0,.318,1.155q7.467-1.957,14.966-3.782C228.774,273.9,228.457,272.747,227.708,272.93Z" transform="translate(-205.158 -265.217)" fill="#ef5253"/>
      </g>
    </g>
    <rect id="Rectangle_442" data-name="Rectangle 442" width="88.487" height="138.392" rx="1.337" transform="translate(235.978 210.746)" fill="none" stroke="#81c1ab" stroke-linecap="round" stroke-width="1" stroke-dasharray="0 3 0 3 0 3"/>
    <g id="Group_2581" data-name="Group 2581" transform="translate(197.526 272.739)">
      <line id="Line_77" data-name="Line 77" x2="30.011" transform="translate(0 5.412)" fill="none" stroke="#81c1ab" stroke-width="1"/>
      <path id="Path_2446" data-name="Path 2446" d="M173.525,245.1l5.412,5.412-5.412,5.412" transform="translate(-148.926 -245.104)" fill="none" stroke="#81c1ab" stroke-width="1"/>
    </g>
  </g>
</svg>
